<svg width="40" height="40" viewBox="0 0 40 40" fill="none" xmlns="http://www.w3.org/2000/svg">
<path d="M25.5734 1.66663H14.4267C7.37959 1.66663 1.66675 7.37947 1.66675 14.4266V25.5733C1.66675 32.6204 7.37959 38.3333 14.4267 38.3333H25.5734C32.6206 38.3333 38.3334 32.6204 38.3334 25.5733V14.4266C38.3334 7.37947 32.6206 1.66663 25.5734 1.66663Z" fill="#F8DE40"/>
<path d="M14.8451 16.4067C14.8435 16.4705 14.8218 16.5322 14.7831 16.5831C14.7444 16.6339 14.6907 16.6712 14.6296 16.6896C14.5684 16.7081 14.503 16.7068 14.4426 16.6859C14.3823 16.665 14.3301 16.6256 14.2934 16.5733C14.0439 16.1979 13.7214 15.8765 13.3451 15.6283C12.8721 15.3143 12.317 15.1468 11.7492 15.1468C11.1815 15.1468 10.6264 15.3143 10.1534 15.6283C9.77557 15.8771 9.45188 16.1997 9.20174 16.5767C9.16509 16.629 9.11286 16.6684 9.0525 16.6893C8.99214 16.7101 8.92673 16.7114 8.86559 16.693C8.80445 16.6745 8.7507 16.6372 8.712 16.5864C8.6733 16.5356 8.65163 16.4738 8.65007 16.41C8.64323 15.7927 8.8466 15.1914 9.22674 14.705C9.52734 14.3239 9.91041 14.0159 10.3472 13.8041C10.7839 13.5923 11.263 13.4823 11.7484 13.4823C12.2338 13.4823 12.7129 13.5923 13.1496 13.8041C13.5864 14.0159 13.9695 14.3239 14.2701 14.705C14.648 15.1912 14.8506 15.7909 14.8451 16.4067Z" fill="#864E20"/>
<path d="M31.3499 16.4067C31.3484 16.4705 31.3267 16.5322 31.288 16.5831C31.2493 16.6339 31.1956 16.6712 31.1344 16.6896C31.0733 16.7081 31.0079 16.7068 30.9475 16.6859C30.8872 16.665 30.8349 16.6256 30.7983 16.5733C30.5489 16.1984 30.227 15.877 29.8516 15.6283C29.3784 15.3141 28.823 15.1466 28.2549 15.1466C27.6869 15.1466 27.1315 15.3141 26.6583 15.6283C26.2805 15.8771 25.9568 16.1997 25.7066 16.5767C25.67 16.629 25.6177 16.6684 25.5574 16.6893C25.497 16.7101 25.4316 16.7114 25.3705 16.693C25.3093 16.6745 25.2556 16.6372 25.2169 16.5864C25.1782 16.5356 25.1565 16.4738 25.155 16.41C25.1481 15.7927 25.3515 15.1914 25.7316 14.705C26.0322 14.3239 26.4153 14.0159 26.8521 13.8041C27.2888 13.5923 27.7679 13.4823 28.2533 13.4823C28.7387 13.4823 29.2178 13.5923 29.6545 13.8041C30.0913 14.0159 30.4743 14.3239 30.7749 14.705C31.1528 15.1912 31.3554 15.7909 31.3499 16.4067Z" fill="#864E20"/>
<path d="M38.3333 23.23C36.067 26.6238 32.9884 29.3973 29.3773 31.2983C25.7662 33.1993 21.7372 34.1676 17.6566 34.115C8.41992 34.115 6.71826 32.4483 2.41992 29.9C3.31113 32.3697 4.94215 34.5046 7.09073 36.0138C9.23932 37.5229 11.801 38.3329 14.4266 38.3333H25.5733C28.9574 38.3333 32.203 36.989 34.5959 34.596C36.9889 32.203 38.3333 28.9575 38.3333 25.5733V23.23Z" fill="#E7C930"/>
<path d="M26.0551 21.655C24.225 22.7591 22.137 23.3631 20.0001 23.4067C17.8632 23.3631 15.7752 22.7591 13.9451 21.655C13.3401 21.2534 13.1484 21.2967 13.1484 21.44C13.1484 23.2 16.5734 24.2867 20.0001 24.2867C23.4268 24.2867 26.8518 23.2 26.8518 21.44C26.8518 21.2967 26.6668 21.2534 26.0551 21.655Z" fill="#864E20"/>
<path d="M21.8934 25.305C21.3183 25.639 20.6651 25.8149 20.0001 25.8149C19.3351 25.8149 18.6819 25.639 18.1068 25.305C17.6601 24.9717 17.6868 25.94 18.6751 26.1983C19.103 26.359 19.5523 26.4556 20.0084 26.485C20.4646 26.4556 20.9139 26.359 21.3418 26.1983C22.3134 25.94 22.3334 24.9667 21.8934 25.305Z" fill="#E7C930"/>
<path d="M32.7351 3.76657L32.5384 3.73657C33.0344 4.06178 33.5078 4.42039 33.9551 4.80991C37.3367 5.45657 37.5101 6.09657 37.5101 6.10324C37.5101 6.10991 37.2984 6.91157 32.6101 7.6249C28.4312 8.19121 24.217 8.45689 20.0001 8.4199C15.7831 8.45689 11.569 8.19121 7.39008 7.6249C2.70175 6.91157 2.49008 6.11157 2.49008 6.10324C2.49008 6.0949 2.65675 5.45657 6.04508 4.80991C6.49239 4.42039 6.96571 4.06178 7.46175 3.73657L7.26508 3.76657C2.24675 4.52991 1.66675 5.46657 1.66675 6.10324C1.66675 6.7399 2.24675 7.6749 7.26508 8.43657C11.4854 9.00925 15.7413 9.27883 20.0001 9.24324C24.2588 9.27994 28.5147 9.01147 32.7351 8.4399C37.7534 7.67491 38.3334 6.7399 38.3334 6.10324C38.3334 5.46657 37.7534 4.52991 32.7351 3.76657Z" fill="#26A9E0"/>
</svg>
