<svg width="16" height="7" viewBox="0 0 16 7" fill="none" xmlns="http://www.w3.org/2000/svg">
<path fill-rule="evenodd" clip-rule="evenodd" d="M15.9232 3.83382C15.8717 3.93659 15.7968 4.02405 15.7053 4.08823L12.8479 6.82039C12.7182 6.94446 12.5474 7.00872 12.373 6.99905C12.1987 6.98937 12.0351 6.90654 11.9183 6.76878C11.8014 6.63102 11.7409 6.44962 11.75 6.26447C11.7591 6.07933 11.8371 5.90561 11.9669 5.78154L13.6274 4.19381L4.90247 4.19382C4.60175 5.23699 3.63998 6 2.5 6C1.11929 6 0 4.88071 0 3.5C0 2.11929 1.11929 1 2.5 1C3.63623 1 4.59542 1.758 4.89948 2.7959L13.6169 2.7959L11.9669 1.21846C11.8371 1.09439 11.7591 0.920671 11.75 0.735528C11.7409 0.550385 11.8014 0.36898 11.9183 0.231221C12.0351 0.0934615 12.1987 0.010632 12.373 0.000954015C12.5474 -0.00872401 12.7182 0.0555421 12.8479 0.179615L15.7053 2.90979C15.7517 2.94255 15.794 2.98134 15.8312 3.02526C15.9417 3.15524 16.0021 3.32467 16.0003 3.4998C16.0012 3.61622 15.9747 3.73105 15.9232 3.83382ZM3 3.5C3 3.77614 2.77614 4 2.5 4C2.22386 4 2 3.77614 2 3.5C2 3.22386 2.22386 3 2.5 3C2.77614 3 3 3.22386 3 3.5Z" fill="#26282B"/>
</svg>
