<svg width="24" height="22" viewBox="0 0 24 22" fill="none" xmlns="http://www.w3.org/2000/svg">
<path fill-rule="evenodd" clip-rule="evenodd" d="M14.9444 0H9.40855C7.89786 0 6.66882 1.22904 6.66882 2.73973V4.04H6.66998V21.0185H17.68V4H17.6841V2.73973C17.6841 1.22904 16.4551 0 14.9444 0ZM18.68 4.04027V21.0185H21.2603C22.771 21.0185 24 19.7895 24 18.2788V6.78C24 5.26931 22.771 4.04027 21.2603 4.04027H18.68ZM2.73973 4.04027H5.66998V21.0185H2.73973C1.22904 21.0185 0 19.7895 0 18.2788V6.78C0 5.26931 1.22904 4.04027 2.73973 4.04027ZM7.76471 2.73973C7.76471 1.83331 8.50214 1.09589 9.40855 1.09589H14.9444C15.8508 1.09589 16.5882 1.83331 16.5882 2.73973V4.04027H7.76471V2.73973Z" fill="#CC0000"/>
</svg>
