<svg width="24" height="22" viewBox="0 0 24 22" fill="none" xmlns="http://www.w3.org/2000/svg">
<path d="M14.9444 0H9.40855C7.89786 0 6.66882 1.22904 6.66882 2.73973V4.04027H2.73973C1.22904 4.04027 0 5.26931 0 6.78V18.2788C0 19.7895 1.22904 21.0185 2.73973 21.0185H21.2603C22.771 21.0185 24 19.7895 24 18.2788V6.78C24 5.26931 22.771 4.04027 21.2603 4.04027H17.6841V2.73973C17.6841 1.22904 16.4551 0 14.9444 0ZM7.76471 2.73973C7.76471 1.83331 8.50214 1.09589 9.40855 1.09589H14.9444C15.8508 1.09589 16.5882 1.83331 16.5882 2.73973V4.04027H7.76471V2.73973ZM16.5882 5.13616V19.9226H7.76471V5.13616H16.5882ZM1.09589 18.2788V6.78C1.09589 5.87359 1.83332 5.13616 2.73973 5.13616H6.66882V19.9226H2.73973C1.83332 19.9226 1.09589 19.1852 1.09589 18.2788ZM21.2603 5.13616C22.1667 5.13616 22.9041 5.87359 22.9041 6.78V18.2788C22.9041 19.1852 22.1667 19.9226 21.2603 19.9226H17.6841V5.13616H21.2603Z" fill="#A1A4A8"/>
</svg>
