<svg width="375" height="250" viewBox="0 0 375 250" fill="none" xmlns="http://www.w3.org/2000/svg">
<path d="M375 0H0V250H375V0Z" fill="white"/>
<path d="M188.872 206.441C260.087 206.441 317.818 202.002 317.818 196.526C317.818 191.05 260.087 186.611 188.872 186.611C117.657 186.611 59.9254 191.05 59.9254 196.526C59.9254 202.002 117.657 206.441 188.872 206.441Z" fill="#DCEEF3"/>
<path d="M307.933 104.739C307.933 105.893 307.899 107.054 307.83 108.223C307.243 118.668 304.129 129.568 298.726 138.956C294.336 146.588 288.435 153.219 281.152 157.799C278.606 159.403 275.9 160.737 273.077 161.779C269.531 163.084 265.817 163.878 262.048 164.139C261.647 164.165 261.246 164.187 260.846 164.203C258.451 164.292 256.052 164.19 253.673 163.896C245.593 162.926 237.835 160.081 229.984 157.798H229.979C227.798 157.164 225.61 156.574 223.408 156.079C221.723 155.705 220.018 155.43 218.301 155.256C216.946 155.114 215.592 155.026 214.236 154.975C210.996 154.852 207.756 154.94 204.512 155.003C201.039 155.07 197.56 155.106 194.072 154.826C191.82 154.655 189.582 154.32 187.378 153.822C187.132 153.766 186.884 153.707 186.637 153.645C179.474 151.849 172.374 149.572 165.074 148.495C162.947 148.174 160.803 147.976 158.652 147.901C158.005 147.88 157.355 147.871 156.702 147.876C149.563 147.907 142.167 149.165 135.214 147.37C131.87 146.506 128.91 144.878 126.071 143.009C124.026 141.664 122.043 140.194 120.023 138.792C117.012 136.703 113.918 134.771 110.414 133.639C110.241 133.582 110.066 133.528 109.89 133.478C109.688 133.418 109.485 133.357 109.281 133.294C105.908 132.257 102.614 130.979 99.4248 129.47C92.1732 126.039 85.1067 121.189 81.1091 115.095C81.029 114.974 80.9489 114.855 80.8727 114.728C75.9705 106.956 72.9817 97.8469 72.6067 88.7043C72.5533 87.4025 72.5533 86.1012 72.6067 84.8005C72.7481 81.2333 73.3281 77.6971 74.3335 74.2716C75.4171 70.6439 77.0266 67.1946 79.1107 64.0337C85.8615 53.722 97.275 46.2452 109.28 43.5617C111.26 43.1171 113.268 42.8058 115.289 42.6298C115.518 42.6098 115.748 42.5906 115.976 42.5753C116.631 42.5294 117.285 42.4933 117.939 42.4672C119.307 42.4137 120.674 42.3967 122.039 42.4159C122.923 42.4266 123.806 42.449 124.689 42.4832C126.057 42.5361 127.423 42.613 128.789 42.7059C129.674 42.7652 130.557 42.8307 131.44 42.9023C132.807 43.0104 134.172 43.1274 135.54 43.2436C136.423 43.32 137.307 43.3942 138.191 43.4664C139.553 43.5785 140.924 43.6843 142.291 43.7717C143.174 43.8304 144.058 43.8804 144.942 43.9215C146.304 43.9856 147.673 44.0257 149.041 44.0345C149.924 44.0409 150.808 44.0334 151.692 44.012C152.134 44 152.573 43.9848 153.018 43.964C154.246 43.9105 155.473 43.8406 156.699 43.754C167.835 42.9798 178.847 40.9457 189.524 37.6907C193.141 36.5874 196.821 35.5273 200.539 34.5441C205.072 33.347 209.664 32.2701 214.271 31.383C214.919 31.258 215.566 31.1373 216.213 31.0209C216.624 30.9455 217.034 30.8742 217.444 30.8029C218.365 30.6427 219.285 30.4923 220.204 30.3518H220.209C220.662 30.2829 221.116 30.214 221.571 30.1483C222.96 29.9474 224.349 29.7679 225.737 29.6098C227.62 29.3961 229.499 29.2247 231.373 29.0954C241.98 28.3742 252.382 29.1483 262.049 32.2765C266.149 33.5942 270.092 35.3583 273.806 37.5369C274.7 38.0615 275.583 38.6146 276.457 39.1963C277.85 40.121 279.216 41.1189 280.557 42.1899C281.453 42.9079 282.337 43.6589 283.208 44.4431C284.61 45.7065 285.977 47.0612 287.307 48.5072C288.209 49.4859 289.093 50.508 289.958 51.5737C290.158 51.8189 290.356 52.0665 290.552 52.3165C291.03 52.9196 291.501 53.5366 291.966 54.1675C292.689 55.1466 293.386 56.1442 294.059 57.1603C294.99 58.5646 295.873 60.0021 296.709 61.4728C297.574 62.9915 298.388 64.5406 299.151 66.1202C299.226 66.274 299.3 66.4281 299.374 66.5825C299.875 67.6317 300.354 68.692 300.809 69.7636C301.796 72.0831 302.68 74.4455 303.459 76.8509C304.88 81.2334 305.967 85.7171 306.71 90.2636C306.836 91.0334 306.953 91.8045 307.06 92.5769C307.26 94.0192 307.427 95.466 307.558 96.9174C307.665 98.0793 307.749 99.2409 307.81 100.402C307.859 101.301 307.895 102.199 307.916 103.095C307.928 103.639 307.933 104.187 307.933 104.739Z" fill="#F3F5F4"/>
<path d="M204.514 69.9191V155.256H194.071H187.377V153.823C187.129 153.767 186.882 153.708 186.635 153.646C179.472 151.85 172.376 149.573 165.072 148.496V69.9191H204.514Z" fill="#DCEEF3"/>
<path d="M176.882 76.3374H168.852V79.597H176.882V76.3374Z" fill="#BDDDE6"/>
<path d="M187.378 76.3374H179.349V79.597H187.378V76.3374Z" fill="#BDDDE6"/>
<path d="M197.874 76.3374H189.845V79.597H197.874V76.3374Z" fill="#F6F6F6" stroke="black" stroke-width="4" stroke-miterlimit="10"/>
<path d="M176.882 83.6578H168.852V86.9174H176.882V83.6578Z" fill="#BDDDE6"/>
<path d="M187.378 83.6578H179.349V86.9174H187.378V83.6578Z" fill="#BDDDE6"/>
<path d="M197.874 83.6578H189.845V86.9174H197.874V83.6578Z" fill="#F6F6F6" stroke="black" stroke-width="4" stroke-miterlimit="10"/>
<path d="M176.882 90.9777H168.852V94.2373H176.882V90.9777Z" fill="#BDDDE6"/>
<path d="M187.378 90.9777H179.349V94.2373H187.378V90.9777Z" fill="#BDDDE6"/>
<path d="M197.874 90.9777H189.845V94.2373H197.874V90.9777Z" fill="#F6F6F6" stroke="black" stroke-width="4" stroke-miterlimit="10"/>
<path d="M176.882 98.2972H168.852V101.557H176.882V98.2972Z" fill="#BDDDE6"/>
<path d="M187.378 98.2972H179.349V101.557H187.378V98.2972Z" fill="#BDDDE6"/>
<path d="M197.874 98.2972H189.845V101.557H197.874V98.2972Z" fill="#F6F6F6" stroke="black" stroke-width="4" stroke-miterlimit="10"/>
<path d="M176.882 105.618H168.852V108.878H176.882V105.618Z" fill="#BDDDE6"/>
<path d="M187.378 105.618H179.349V108.878H187.378V105.618Z" fill="#BDDDE6"/>
<path d="M197.874 105.618H189.845V108.878H197.874V105.618Z" fill="#F6F6F6" stroke="black" stroke-width="4" stroke-miterlimit="10"/>
<path d="M204.512 69.9191H187.378V155.256H204.512V69.9191Z" fill="#BDDDE6"/>
<path d="M120.023 64.0336V138.793C116.862 136.6 113.613 134.579 109.89 133.477C109.688 133.417 109.485 133.356 109.28 133.292C105.908 132.255 102.614 130.978 99.4247 129.469C92.028 125.97 84.8229 120.993 80.8726 114.725C75.9703 106.953 72.9807 97.8437 72.6057 88.7011V84.7964C72.7483 81.2296 73.3285 77.6937 74.3333 74.2684C75.4172 70.6417 77.0267 67.1935 79.1105 64.0336H120.023Z" fill="#DCEEF3"/>
<path d="M112.041 70.8951H102.386V74.3799H112.041V70.8951Z" fill="#F6F6F6" stroke="black" stroke-width="4" stroke-miterlimit="10"/>
<path d="M112.041 78.7205H102.386V82.2053H112.041V78.7205Z" fill="#F6F6F6" stroke="black" stroke-width="4" stroke-miterlimit="10"/>
<path d="M112.041 86.5448H102.386V90.0296H112.041V86.5448Z" fill="#F6F6F6" stroke="black" stroke-width="4" stroke-miterlimit="10"/>
<path d="M112.041 94.3694H102.386V97.8542H112.041V94.3694Z" fill="#F6F6F6" stroke="black" stroke-width="4" stroke-miterlimit="10"/>
<path d="M86.7997 70.8951H77.145V74.3799H86.7997V70.8951Z" fill="#E2F9FF"/>
<path d="M99.4199 70.8951H89.7653V74.3799H99.4199V70.8951Z" fill="#E2F9FF"/>
<path d="M86.7997 78.7205H77.145V82.2053H86.7997V78.7205Z" fill="#E2F9FF"/>
<path d="M99.4199 78.7205H89.7653V82.2053H99.4199V78.7205Z" fill="#E2F9FF"/>
<path d="M86.7997 86.5448H77.145V90.0296H86.7997V86.5448Z" fill="#E2F9FF"/>
<path d="M99.4199 86.5448H89.7653V90.0296H99.4199V86.5448Z" fill="#E2F9FF"/>
<path d="M86.7997 94.3694H77.145V97.8542H86.7997V94.3694Z" fill="#E2F9FF"/>
<path d="M99.4199 94.3694H89.7653V97.8542H99.4199V94.3694Z" fill="#E2F9FF"/>
<path d="M86.7997 102.195H77.145V105.679H86.7997V102.195Z" fill="#E2F9FF"/>
<path d="M99.4199 102.195H89.7653V105.679H99.4199V102.195Z" fill="#E2F9FF"/>
<path d="M112.041 102.195H102.386V105.679H112.041V102.195Z" fill="#F6F6F6" stroke="black" stroke-width="4" stroke-miterlimit="10"/>
<path d="M117.468 58.0544H92.984V64.0345H117.468V58.0544Z" fill="#DCEEF3"/>
<path d="M120.022 64.0345V138.794C116.861 136.601 113.612 134.58 109.889 133.478C109.688 133.418 109.484 133.357 109.28 133.293C105.907 132.256 102.613 130.978 99.424 129.47V64.0345H120.022Z" fill="#BDDDE6"/>
<path d="M117.467 62.1539H92.984V64.0353H117.467V62.1539Z" fill="#BDDDE6"/>
<path d="M156.702 43.7548V147.877C149.563 147.908 142.166 149.166 135.214 147.37C129.462 145.884 124.847 142.139 120.023 138.796C116.862 136.603 113.613 134.582 109.89 133.48C109.688 133.42 109.485 133.359 109.281 133.296V43.5617C111.261 43.1167 113.268 42.8054 115.29 42.6298C115.519 42.61 115.748 42.5918 115.977 42.5753C116.631 42.5293 117.286 42.4936 117.94 42.4679C119.308 42.4126 120.674 42.399 122.039 42.415C122.923 42.4262 123.807 42.4489 124.69 42.4831C126.058 42.536 127.424 42.6129 128.79 42.7059C129.674 42.7652 130.558 42.8304 131.441 42.9014C132.803 43.0104 134.174 43.1274 135.541 43.2436C136.425 43.3199 137.309 43.3942 138.192 43.4663C139.554 43.5785 140.925 43.6843 142.292 43.7716C143.174 43.8304 144.057 43.8803 144.942 43.9214C146.305 43.9847 147.674 44.0256 149.043 44.0344C149.924 44.0408 150.808 44.0331 151.693 44.0112C152.134 44 152.576 43.9842 153.019 43.9639C154.248 43.9094 155.476 43.8397 156.702 43.7548Z" fill="#DCEEF3"/>
<path d="M117.942 42.468V119.175H115.292V42.6282C115.521 42.6084 115.75 42.5903 115.979 42.5737C116.633 42.5289 117.288 42.4936 117.942 42.468Z" fill="#BDDDE6"/>
<path d="M124.692 42.4831V119.175H122.042V42.4118C122.926 42.4252 123.809 42.4489 124.692 42.4831Z" fill="#BDDDE6"/>
<path d="M131.443 42.9014V119.175H128.792V42.7083C129.676 42.766 130.56 42.8304 131.443 42.9014Z" fill="#BDDDE6"/>
<path d="M138.194 43.4664V119.175H135.543V43.2437C136.427 43.32 137.311 43.3943 138.194 43.4664Z" fill="#BDDDE6"/>
<path d="M144.945 43.9214V119.175H142.294V43.7739C143.176 43.8311 144.059 43.8802 144.945 43.9214Z" fill="#BDDDE6"/>
<path d="M151.695 44.0112V119.171H149.045V44.0345C149.927 44.0409 150.81 44.0331 151.695 44.0112Z" fill="#BDDDE6"/>
<path d="M233.512 37.6874H194.073V155.257H233.512V37.6874Z" fill="#DCEEF3"/>
<path d="M226.873 46.5305H218.844V51.0217H226.873V46.5305Z" fill="#F6F6F6" stroke="black" stroke-width="4" stroke-miterlimit="10"/>
<path d="M226.873 56.6154H218.844V61.1065H226.873V56.6154Z" fill="#F6F6F6" stroke="black" stroke-width="4" stroke-miterlimit="10"/>
<path d="M226.873 66.6996H218.844V71.1908H226.873V66.6996Z" fill="#F6F6F6" stroke="black" stroke-width="4" stroke-miterlimit="10"/>
<path d="M226.873 76.7844H218.844V81.2756H226.873V76.7844Z" fill="#F6F6F6" stroke="black" stroke-width="4" stroke-miterlimit="10"/>
<path d="M205.881 46.5305H197.851V51.0217H205.881V46.5305Z" fill="#BDDDE6"/>
<path d="M216.377 46.5305H208.347V51.0217H216.377V46.5305Z" fill="#BDDDE6"/>
<path d="M205.881 56.6154H197.851V61.1065H205.881V56.6154Z" fill="#BDDDE6"/>
<path d="M216.377 56.6154H208.347V61.1065H216.377V56.6154Z" fill="#BDDDE6"/>
<path d="M205.881 66.6996H197.851V71.1908H205.881V66.6996Z" fill="#BDDDE6"/>
<path d="M216.377 66.6996H208.347V71.1908H216.377V66.6996Z" fill="#BDDDE6"/>
<path d="M205.881 76.7844H197.851V81.2756H205.881V76.7844Z" fill="#BDDDE6"/>
<path d="M216.377 76.7844H208.347V81.2756H216.377V76.7844Z" fill="#BDDDE6"/>
<path d="M205.881 86.8695H197.851V91.3599H205.881V86.8695Z" fill="#BDDDE6"/>
<path d="M216.377 86.8695H208.347V91.3599H216.377V86.8695Z" fill="#BDDDE6"/>
<path d="M226.873 86.8695H218.844V91.3599H226.873V86.8695Z" fill="#F6F6F6" stroke="black" stroke-width="4" stroke-miterlimit="10"/>
<path d="M253.677 51.2116V163.898C245.597 162.929 237.839 160.083 229.988 157.8H229.981C227.801 157.167 225.613 156.576 223.411 156.082C221.726 155.707 220.02 155.433 218.303 155.259C216.949 155.116 215.594 155.029 214.238 154.977V51.2108L253.677 51.2116Z" fill="#BDDDE6"/>
<path d="M220.875 41.3356H228.904V38.076H220.875V41.3356Z" fill="#F6F6F6" stroke="black" stroke-width="4" stroke-miterlimit="10"/>
<path d="M220.875 48.6562H228.904V45.3966H220.875V48.6562Z" fill="#F6F6F6" stroke="black" stroke-width="4" stroke-miterlimit="10"/>
<path d="M220.875 55.9769H228.904V52.7173H220.875V55.9769Z" fill="#F6F6F6" stroke="black" stroke-width="4" stroke-miterlimit="10"/>
<path d="M220.875 63.2958H228.904V60.0362H220.875V63.2958Z" fill="#F6F6F6" stroke="black" stroke-width="4" stroke-miterlimit="10"/>
<path d="M242.073 62.1705H250.102V58.9109H242.073V62.1705Z" fill="#E2F9FF"/>
<path d="M231.578 62.1705H239.607V58.9109H231.578V62.1705Z" fill="#E2F9FF"/>
<path d="M242.073 69.4912H250.102V66.2316H242.073V69.4912Z" fill="#E2F9FF"/>
<path d="M231.578 69.4912H239.607V66.2316H231.578V69.4912Z" fill="#E2F9FF"/>
<path d="M242.073 76.8116H250.102V73.552H242.073V76.8116Z" fill="#E2F9FF"/>
<path d="M231.578 76.8116H239.607V73.552H231.578V76.8116Z" fill="#E2F9FF"/>
<path d="M242.073 84.1313H250.102V80.8717H242.073V84.1313Z" fill="#E2F9FF"/>
<path d="M231.578 84.1313H239.607V80.8717H231.578V84.1313Z" fill="#E2F9FF"/>
<path d="M242.073 91.451H250.102V88.1914H242.073V91.451Z" fill="#E2F9FF"/>
<path d="M231.578 91.451H239.607V88.1914H231.578V91.451Z" fill="#E2F9FF"/>
<path d="M220.875 70.6162H228.904V67.3566H220.875V70.6162Z" fill="#F6F6F6" stroke="black" stroke-width="4" stroke-miterlimit="10"/>
<path d="M231.372 29.0945V157.799H214.237V31.4014L214.274 31.3829C215.332 31.1794 216.39 30.986 217.447 30.8028C218.368 30.6426 219.288 30.4922 220.207 30.3517H220.212C220.665 30.2828 221.119 30.2139 221.574 30.1482C222.963 29.9473 224.352 29.7678 225.741 29.6097C227.621 29.3944 229.498 29.2227 231.372 29.0945Z" fill="#DCEEF3"/>
<path d="M307.933 104.739C307.933 105.893 307.899 107.054 307.831 108.223C307.244 118.669 304.129 129.568 298.726 138.957C294.336 146.588 288.436 153.22 281.152 157.799C278.607 159.404 275.9 160.738 273.077 161.779C269.531 163.084 265.818 163.878 262.048 164.138V32.2756C266.148 33.5934 270.09 35.3574 273.805 37.5361C274.698 38.0617 275.582 38.6148 276.456 39.1955C277.848 40.1207 279.215 41.1189 280.556 42.1899C281.452 42.9062 282.335 43.657 283.206 44.4423C284.608 45.7057 285.974 47.0604 287.307 48.5064C288.208 49.4856 289.092 50.5077 289.957 51.5729C290.637 52.4105 291.305 53.2748 291.96 54.1659C292.683 55.1461 293.381 56.144 294.053 57.1594C294.985 58.5649 295.868 60.0024 296.703 61.4719C297.653 63.1386 298.542 64.8408 299.368 66.5785C299.869 67.6277 300.348 68.688 300.803 69.7596C301.791 72.0785 302.674 74.441 303.454 76.8469C304.875 81.2293 305.962 85.713 306.705 90.2596C306.831 91.0294 306.947 91.8005 307.054 92.5729C307.254 94.0184 307.421 95.4653 307.553 96.9134C307.659 98.0758 307.743 99.2374 307.805 100.398C307.854 101.297 307.889 102.195 307.911 103.091C307.926 103.639 307.933 104.188 307.933 104.739Z" fill="#DCEEF3"/>
<path d="M303.458 76.8469V121.719H300.808V69.7595C301.795 72.0779 302.678 74.4403 303.458 76.8469Z" fill="#E2F9FF"/>
<path d="M296.708 61.4718V121.719H294.057V57.1593C294.989 58.5648 295.873 60.0023 296.708 61.4718Z" fill="#E2F9FF"/>
<path d="M289.958 51.573V121.72H287.307V48.5065C288.209 49.4856 289.092 50.5078 289.958 51.573Z" fill="#E2F9FF"/>
<path d="M283.207 44.4423V121.72H280.556V42.1899C281.452 42.9062 282.336 43.657 283.207 44.4423Z" fill="#E2F9FF"/>
<path d="M276.456 39.1956V121.72H273.806V37.5361C274.699 38.0618 275.582 38.6149 276.456 39.1956Z" fill="#E2F9FF"/>
<path d="M267.056 121.719H269.706V36.8077H267.056V121.719Z" fill="#E2F9FF"/>
<path d="M170.182 38.2379C171.519 37.7571 172.835 37.201 174.153 36.5881C175.235 36.0841 176.828 35.4983 177.767 34.7684C178.644 34.0849 179.341 32.9038 179.726 31.9302C177.414 31.0688 175.069 33.5079 173.018 34.5384C165.493 38.3156 155.352 38.3405 147.34 36.2034C145.017 35.5833 140.138 32.399 137.815 34.2587C134.154 37.1922 143.334 39.2475 144.894 39.5913C151.358 41.0143 158.296 41.0336 164.783 39.7515C166.619 39.3858 168.424 38.8798 170.182 38.2379Z" fill="#DCEEF3"/>
<path d="M73.5674 128.503C76.0017 132.247 80.7886 136.842 85.9023 134.539C91.0466 132.224 86.3991 126.131 83.0762 123.691C78.085 120.025 74.6475 116.296 73.1131 109.947C72.3567 106.817 72.2189 103.58 71.5562 100.433C71.3647 99.525 68.5915 91.7173 67.3487 93.1275C65.7974 94.8903 66.1027 99.4801 66.0498 101.691C65.9752 104.833 66.2117 107.975 66.7557 111.071C67.8415 117.256 70.1427 123.237 73.5674 128.503Z" fill="#DCEEF3"/>
<path d="M61.1549 84.6043C63.3024 86.7333 67.1101 87.3679 67.7126 83.5001C68.1782 80.509 63.9819 76.1524 61.2014 78.5442C58.8633 80.5554 59.5355 83.0025 61.1549 84.6043Z" fill="#DCEEF3"/>
<path d="M57.1829 93.0543C57.227 94.5888 58.1773 96.0126 60.2959 95.6184C62.5587 95.1945 62.9401 91.3139 60.9649 90.2314C58.5739 88.9205 57.126 91.0792 57.1829 93.0543Z" fill="#DCEEF3"/>
<path d="M310.742 148.026C309.343 151.534 308.361 155.002 308.223 159.269C308.143 161.736 308.303 164.252 307.631 166.625C305.75 173.236 296.065 173.836 292.877 167.878C289.439 161.454 293.518 155.715 297.894 151.033C302.478 146.123 307.636 141.889 310.634 135.921C311.373 134.45 313.523 134.573 314.095 136.116C315.474 139.841 312.22 144.32 310.742 148.026Z" fill="#DCEEF3"/>
<path d="M231.008 66.5986H169.175C166.885 66.5986 165.029 68.4548 165.029 70.7445V194.079C165.029 196.368 166.885 198.225 169.175 198.225H231.008C233.298 198.225 235.154 196.368 235.154 194.079V70.7445C235.154 68.4548 233.298 66.5986 231.008 66.5986Z" fill="#92C6D4"/>
<path d="M227.528 66.5986V198.225H169.174C168.629 198.225 168.09 198.117 167.587 197.909C167.084 197.701 166.627 197.395 166.243 197.01C165.858 196.625 165.552 196.168 165.344 195.665C165.136 195.162 165.029 194.623 165.029 194.079V70.7445C165.029 70.2001 165.136 69.661 165.344 69.158C165.552 68.655 165.858 68.198 166.243 67.813C166.627 67.428 167.084 67.1226 167.587 66.9142C168.09 66.7059 168.629 66.5986 169.174 66.5986H227.528Z" fill="#45ABC7"/>
<path d="M225.358 73.7701H167.199V195.429H225.358V73.7701Z" fill="#F6F6F6"/>
<path d="M225.358 149.511V195.425H167.199V110.908C168.023 111.976 168.851 113.041 169.683 114.103C172.596 117.842 175.523 121.595 178.935 124.886C183.883 129.656 189.746 133.354 195.564 137.014C203.149 141.786 210.925 146.64 219.668 148.611C221.544 149.027 223.445 149.328 225.358 149.511Z" fill="#DCEEF3"/>
<path d="M213.506 91.9232L209.888 100.671L210.539 100.94L214.157 92.1927L213.506 91.9232Z" fill="#61B9D1"/>
<path d="M170.734 174.458L170.651 175.158L183.979 176.736L184.062 176.035L170.734 174.458Z" fill="#61B9D1"/>
<path d="M184.692 107.517L184.082 107.872L184.046 107.81L181.27 103.042L167.199 78.8733V77.4711L182.102 103.067L184.665 107.47L184.692 107.517Z" fill="#61B9D1"/>
<path d="M224.094 89.2167L219.239 101.645L219.896 101.901L224.751 89.4733L224.094 89.2167Z" fill="#61B9D1"/>
<path d="M210.754 123.334V195.432H210.048V123.334C210.048 123.12 210.034 122.906 210.007 122.693C209.872 121.64 209.393 120.662 208.644 119.909L208.282 119.55L203.487 114.785L202.955 114.255L192.564 103.932L192.492 103.86L192.303 103.672L192.085 103.456L192.169 103.371L192.229 103.311L192.334 103.206L192.402 103.137L192.581 102.956L193.048 103.42L208.149 118.429L209.14 119.414C210 120.276 210.551 121.399 210.706 122.606C210.738 122.848 210.754 123.091 210.754 123.334Z" fill="#61B9D1"/>
<path d="M206.373 73.7701L204.076 78.8815L203.932 79.2028L203.787 79.5241L203.631 79.8711L201.079 85.5514L200.789 86.1956L193.048 103.42L192.952 103.632L192.944 103.629V103.628L192.636 103.49L192.604 103.476L192.391 103.379H192.39L192.372 103.371L192.31 103.343L192.346 103.261L192.354 103.243H192.355L192.359 103.232L192.402 103.137L192.403 103.136L205.601 73.7701H206.373Z" fill="#61B9D1"/>
<path d="M200.942 85.4897L200.634 86.1241L213.641 92.4344L213.949 91.7999L200.942 85.4897Z" fill="#61B9D1"/>
<path d="M225.411 181.564L225.358 181.563L224.706 181.559L211.325 181.476L210.754 181.473L210.4 181.471L210.215 181.47L210.219 180.764L210.4 180.765L210.754 180.767L211.154 180.769L225.358 180.858V181.305H225.409L225.411 181.564Z" fill="#61B9D1"/>
<path d="M192.983 103.701L192.884 103.756L192.562 103.933L192.515 103.959L174.55 113.837L173.908 114.191L167.657 117.628L167.334 117.805L167.257 117.848L167.199 117.88L167.196 117.881L166.935 117.623V117.623L166.912 117.519L167.199 117.458V116.892L167.318 117.01L184.045 107.81L184.665 107.47L192.121 103.371L192.228 103.312L192.342 103.249V103.248L192.355 103.243L192.364 103.236L192.643 103.083L192.813 103.392L192.944 103.628L192.983 103.701Z" fill="#61B9D1"/>
<path d="M172.018 162.969L171.956 163.578L171.919 163.929L171.884 164.275V164.28L170.833 174.469L170.761 175.17L168.678 195.429H167.969L169.812 177.534L169.847 177.182L169.884 176.831L169.905 176.631L170.905 166.887L170.978 166.182L171.316 162.897C172.459 151.806 171.853 140.605 169.518 129.703L169.159 128.026L169.086 127.678L169.059 127.561L169.01 127.33L167.255 119.121L167.198 118.857L166.934 117.623L166.912 117.52L167.198 117.459L167.256 117.446L167.601 117.373L167.656 117.629L170.208 129.556C170.823 132.426 171.318 135.311 171.693 138.21C171.708 138.319 171.722 138.429 171.736 138.538C171.737 138.547 171.739 138.555 171.74 138.564C171.754 138.682 171.769 138.804 171.784 138.919C172.764 146.901 172.842 154.969 172.018 162.969Z" fill="#61B9D1"/>
<path d="M171.731 138.942L171.524 138.268L186.967 133.535C186.986 132.035 187.141 127.58 187.148 127.379L187.157 127.139L198.742 123.043L198.977 123.708L187.845 127.644C187.809 128.686 187.671 132.809 187.671 133.797V134.054L171.731 138.942Z" fill="#61B9D1"/>
<path d="M193.89 125.461L193.187 125.523L196.025 157.502L196.727 157.44L193.89 125.461Z" fill="#61B9D1"/>
<path d="M203.079 114.007L198.544 123.758L199.183 124.055L203.718 114.304L203.079 114.007Z" fill="#61B9D1"/>
<path d="M174.477 113.477L173.79 113.636L178.921 135.863L179.608 135.704L174.477 113.477Z" fill="#61B9D1"/>
<path d="M201.759 157.061L201.255 173.361L201.96 173.383L202.463 157.083L201.759 157.061Z" fill="#61B9D1"/>
<path d="M184.869 120.106L176.03 123.214L176.264 123.879L185.103 120.771L184.869 120.106Z" fill="#61B9D1"/>
<path d="M183.811 114.213L183.126 114.381L184.637 120.547L185.322 120.379L183.811 114.213Z" fill="#61B9D1"/>
<path d="M225.359 89.7197L203.788 79.5242L203.579 79.4264L203.381 79.3326L203.531 79.0145L203.532 79.0137L203.683 78.6948L204.076 78.8815L225.359 88.9392V89.7197Z" fill="#61B9D1"/>
<path d="M225.358 140.42H210.768V141.125H225.358V140.42Z" fill="#61B9D1"/>
<path d="M170.525 176.945L170.463 177.292L170.401 177.64L170.16 177.597L169.812 177.534L167.198 177.066H167.196V176.35H167.198L169.884 176.831L170.107 176.871L170.233 176.893L170.525 176.945Z" fill="#61B9D1"/>
<path d="M171.265 166.239L171.128 166.931L170.907 166.887L167.207 166.152L167.199 166.151V165.431L167.209 165.433L170.979 166.182L171.265 166.239Z" fill="#61B9D1"/>
<path d="M169.364 127.579L169.087 127.678L167.246 128.329L167.199 128.346V127.447L167.247 127.45L168.463 127.524L169.061 127.561L169.364 127.579Z" fill="#61B9D1"/>
<path d="M169.483 127.912L169.161 128.026L167.245 128.704V128.704L167.199 128.72V127.972L167.246 127.955L168.463 127.524L169.011 127.33L169.246 127.247L169.364 127.579L169.483 127.912Z" fill="#61B9D1"/>
<path d="M225.498 193.569L225.423 193.354L225.358 193.165V195.429H224.806L224.705 181.559L224.704 181.31L225.358 181.305H225.409L225.411 181.564L225.494 192.986L225.496 193.337V193.352L225.498 193.569Z" fill="#61B9D1"/>
<path d="M189.725 188.23L189.692 188.935L210.21 189.891L210.243 189.187L189.725 188.23Z" fill="#61B9D1"/>
<path d="M191.359 165.893L190.925 171.552L189.09 195.429H188.382L190.174 172.114L190.604 166.513L186.242 165.993L185.89 165.95L185.54 165.909L171.886 164.28H171.884L171.703 164.258L171.746 163.908L171.787 163.558L171.956 163.578L185.622 165.208L185.972 165.249L186.324 165.292L191.359 165.893Z" fill="#61B9D1"/>
<path d="M184.646 182.73L183.807 191.017L181.861 190.783L180.859 190.662L178.193 190.341L177.68 195.428H176.972L177.563 189.555L181.15 189.986L181.581 190.038L183.178 190.23L183.831 183.768L183.944 182.658L184.646 182.73Z" fill="#61B9D1"/>
<path d="M225.358 152.026V152.732C221.334 152.853 215.619 153.026 212.611 153.114C211.709 153.14 211.05 153.16 210.754 153.167H210.584V152.462H210.754C211.967 152.43 219.297 152.209 225.358 152.026Z" fill="#61B9D1"/>
<path d="M225.497 193.337V193.352H225.424C225.448 193.344 225.472 193.34 225.497 193.337Z" fill="#CC0000"/>
<path d="M225.498 193.569L225.424 193.354L225.358 193.166L225.308 193.02C225.324 193.015 225.341 193.011 225.358 193.007C225.403 192.998 225.449 192.99 225.494 192.986V193.337V193.352L225.498 193.569Z" fill="#CC0000"/>
<path d="M215.891 111.357L225.358 111.202V111.908L215.903 112.062L215.891 111.357Z" fill="#61B9D1"/>
<path d="M184.998 176.348L184.325 176.134C184.323 176.142 184.321 176.149 184.319 176.157C184.422 175.661 186.002 161.942 186.601 156.698L186.638 156.378L209.955 156.959L209.937 157.664L187.269 157.099C186.584 163.049 185.088 176.065 184.998 176.348Z" fill="#61B9D1"/>
<path d="M180.682 71.5889C180.491 71.5887 180.305 71.522 180.158 71.4001C180.01 71.2783 179.91 71.1089 179.874 70.9211C179.838 70.7332 179.868 70.5387 179.959 70.3707C180.051 70.2028 180.198 70.072 180.376 70.0007C180.599 69.9118 180.791 69.8349 190.016 69.8781C194.499 69.899 198.99 69.9414 199.032 69.9422C199.14 69.9432 199.247 69.9655 199.346 70.0078C199.446 70.0501 199.536 70.1115 199.612 70.1886C199.687 70.2658 199.747 70.3571 199.788 70.4573C199.828 70.5575 199.848 70.6647 199.847 70.7728C199.846 70.8808 199.824 70.9877 199.782 71.0871C199.739 71.1866 199.678 71.2767 199.601 71.3525C199.524 71.4282 199.432 71.4879 199.332 71.5284C199.232 71.5688 199.125 71.5891 199.017 71.5881C192.206 71.524 181.815 71.4655 180.865 71.5681C180.805 71.5817 180.743 71.5887 180.682 71.5889Z" fill="#92C6D4"/>
<path d="M211.875 71.5129H204.166C203.948 71.5129 203.739 71.4262 203.584 71.2719C203.43 71.1175 203.343 70.9082 203.343 70.6899C203.343 70.4717 203.43 70.2623 203.584 70.108C203.739 69.9536 203.948 69.8669 204.166 69.8669H211.872C212.09 69.8669 212.3 69.9536 212.454 70.108C212.608 70.2623 212.695 70.4717 212.695 70.6899C212.695 70.9082 212.608 71.1175 212.454 71.2719C212.3 71.4262 212.09 71.5129 211.872 71.5129H211.875Z" fill="#92C6D4"/>
<path d="M113.736 126.112C113.991 125.898 114.244 125.688 114.496 125.481C114.245 125.689 113.991 125.899 113.736 126.112Z" fill="#F6F6F6"/>
<path d="M117.496 123.059C117.795 122.825 118.089 122.596 118.377 122.377C118.092 122.597 117.798 122.824 117.496 123.059Z" fill="#F6F6F6"/>
<path d="M118.376 122.377C118.676 122.148 118.97 121.927 119.257 121.714C118.972 121.928 118.679 122.149 118.376 122.377Z" fill="#F6F6F6"/>
<path d="M119.502 121.53C119.744 121.351 119.98 121.18 120.211 121.017C119.98 121.181 119.744 121.352 119.502 121.53Z" fill="#F6F6F6"/>
<path d="M120.382 120.896C120.778 120.615 121.156 120.357 121.511 120.126C121.154 120.358 120.779 120.616 120.382 120.896Z" fill="#F6F6F6"/>
<path d="M121.511 120.126C121.612 120.058 121.712 119.994 121.809 119.933C121.712 119.995 121.612 120.06 121.511 120.126Z" fill="#F6F6F6"/>
<path d="M207.692 135.126C207.644 134.993 207.595 134.859 207.546 134.725C207.593 134.859 207.642 134.993 207.692 135.126Z" fill="#F6F6F6"/>
<path d="M207.542 134.728C207.513 134.648 207.484 134.568 207.454 134.494C207.484 134.572 207.513 134.65 207.542 134.728Z" fill="#F6F6F6"/>
<path d="M207.451 134.494C207.431 134.441 207.41 134.388 207.39 134.334C207.412 134.388 207.433 134.441 207.451 134.494Z" fill="#F6F6F6"/>
<path d="M184.399 115.946C184.418 115.946 184.471 115.941 184.56 115.938L184.411 115.947L184.399 115.946Z" fill="#F6F6F6"/>
<path d="M208.537 137.944C208.703 138.631 208.839 139.328 208.938 140.032C208.838 139.328 208.702 138.631 208.537 137.944Z" fill="#F6F6F6"/>
<path d="M208.966 140.256C208.957 140.182 208.947 140.107 208.937 140.032C208.948 140.101 208.956 140.17 208.965 140.238C208.966 140.244 208.966 140.25 208.966 140.256Z" fill="#F6F6F6"/>
<g opacity="0.33">
<path opacity="0.54" d="M196.95 127.989L190.98 136.895C190.684 136.089 190.407 135.2 190.154 134.301C189.949 133.569 189.76 132.829 189.593 132.117C189.366 131.175 189.171 130.281 189.014 129.519C190.421 126.521 192.55 122.775 193.809 122.123C194.056 122.523 194.308 122.938 194.559 123.37C194.94 124.024 195.325 124.717 195.706 125.447C196.126 126.248 196.541 127.093 196.95 127.98V127.989Z" fill="#F6F6F6"/>
</g>
<path d="M262.814 109.731L262.979 111.062C263.039 111.502 263.102 111.943 263.182 112.378L263.242 112.705L263.309 113.031L263.381 113.352C263.408 113.459 263.434 113.567 263.461 113.672C263.568 114.103 263.692 114.53 263.825 114.96C263.604 114.567 263.422 114.153 263.283 113.724C263.249 113.617 263.214 113.51 263.183 113.404L263.094 113.078L263.018 112.748L262.952 112.417C262.873 111.973 262.822 111.525 262.798 111.074C262.772 110.627 262.777 110.178 262.814 109.731Z" fill="#DCEEF3"/>
<path d="M264.915 110.966C264.971 111.262 265.012 111.557 265.052 111.848L265.172 112.729L265.288 113.611C265.325 113.905 265.364 114.2 265.387 114.5C265.27 114.223 265.176 113.937 265.106 113.645C265.032 113.355 264.976 113.061 264.937 112.764C264.897 112.466 264.874 112.167 264.868 111.867C264.859 111.566 264.875 111.265 264.915 110.966Z" fill="#DCEEF3"/>
<path d="M266.111 104.13C266.031 104.45 265.951 104.771 265.865 105.091C265.78 105.412 265.705 105.725 265.63 106.044L265.573 106.284L265.519 106.525L265.413 107.006C265.345 107.326 265.28 107.647 265.204 107.972C265.184 107.64 265.193 107.306 265.231 106.976C265.247 106.811 265.273 106.647 265.299 106.482C265.325 106.318 265.363 106.156 265.398 105.994C265.476 105.67 265.573 105.352 265.69 105.041C265.804 104.726 265.945 104.421 266.111 104.13Z" fill="#DCEEF3"/>
<path d="M264.961 101.024C264.828 101.554 264.686 102.079 264.546 102.604C264.405 103.129 264.267 103.654 264.134 104.179L264.031 104.574L263.933 104.969L263.735 105.759C263.604 106.286 263.476 106.814 263.334 107.342C263.379 106.798 263.452 106.256 263.553 105.72C263.599 105.451 263.657 105.184 263.713 104.918C263.769 104.652 263.837 104.387 263.903 104.122C264.041 103.594 264.193 103.07 264.368 102.552C264.544 102.034 264.736 101.522 264.961 101.024Z" fill="#DCEEF3"/>
<path d="M285.689 111.844L286.238 111.737C286.057 111.779 285.873 111.813 285.689 111.844Z" fill="#FDB23D"/>
<path opacity="0.67" d="M263.372 75.721C263.377 75.685 263.382 75.6473 263.385 75.6105C263.393 75.6282 263.397 75.648 263.395 75.6676C263.392 75.6872 263.384 75.7058 263.372 75.721Z" fill="#3A0302"/>
<path d="M250.91 107.921L250.953 107.953V107.959C250.924 107.99 250.87 107.925 250.91 107.921Z" fill="#A33307"/>
<path d="M277.108 109.304C277.095 109.262 277.083 109.224 277.072 109.178C277.11 109.236 277.119 109.276 277.108 109.304Z" fill="#A33307"/>
<path d="M139.808 66.5543C139.683 66.5543 139.563 66.5048 139.475 66.4166C139.387 66.3284 139.337 66.2087 139.337 66.084V63.2619C139.337 63.1371 139.387 63.0175 139.475 62.9293C139.563 62.8411 139.683 62.7915 139.808 62.7915C139.932 62.7915 140.052 62.8411 140.14 62.9293C140.228 63.0175 140.278 63.1371 140.278 63.2619V66.084C140.278 66.2087 140.228 66.3284 140.14 66.4166C140.052 66.5048 139.932 66.5543 139.808 66.5543Z" fill="#CC0000"/>
<path d="M139.808 57.8855C139.683 57.8855 139.563 57.8359 139.475 57.7477C139.387 57.6595 139.337 57.5399 139.337 57.4151V54.1227H142.628C142.753 54.1227 142.873 54.1722 142.961 54.2604C143.049 54.3487 143.098 54.4683 143.098 54.593C143.098 54.7178 143.049 54.8374 142.961 54.9256C142.873 55.0138 142.753 55.0634 142.628 55.0634H140.276V57.4151C140.276 57.5396 140.227 57.659 140.139 57.7472C140.051 57.8353 139.932 57.8851 139.808 57.8855Z" fill="#CC0000"/>
<path d="M187.491 55.0634H181.882C181.758 55.0634 181.638 55.0138 181.55 54.9256C181.461 54.8374 181.412 54.7178 181.412 54.593C181.412 54.4683 181.461 54.3487 181.55 54.2604C181.638 54.1722 181.758 54.1227 181.882 54.1227H187.491C187.616 54.1227 187.736 54.1722 187.824 54.2604C187.912 54.3487 187.962 54.4683 187.962 54.593C187.962 54.7178 187.912 54.8374 187.824 54.9256C187.736 55.0138 187.616 55.0634 187.491 55.0634ZM176.273 55.0634H170.664C170.54 55.0634 170.42 55.0138 170.332 54.9256C170.244 54.8374 170.194 54.7178 170.194 54.593C170.194 54.4683 170.244 54.3487 170.332 54.2604C170.42 54.1722 170.54 54.1227 170.664 54.1227H176.273C176.398 54.1227 176.518 54.1722 176.606 54.2604C176.694 54.3487 176.744 54.4683 176.744 54.593C176.744 54.7178 176.694 54.8374 176.606 54.9256C176.518 55.0138 176.398 55.0634 176.273 55.0634ZM165.055 55.0634H159.446C159.322 55.0634 159.202 55.0138 159.114 54.9256C159.026 54.8374 158.976 54.7178 158.976 54.593C158.976 54.4683 159.026 54.3487 159.114 54.2604C159.202 54.1722 159.322 54.1227 159.446 54.1227H165.055C165.18 54.1227 165.3 54.1722 165.388 54.2604C165.476 54.3487 165.526 54.4683 165.526 54.593C165.526 54.7178 165.476 54.8374 165.388 54.9256C165.3 55.0138 165.18 55.0634 165.055 55.0634ZM153.837 55.0634H148.228C148.104 55.0634 147.984 55.0138 147.896 54.9256C147.808 54.8374 147.758 54.7178 147.758 54.593C147.758 54.4683 147.808 54.3487 147.896 54.2604C147.984 54.1722 148.104 54.1227 148.228 54.1227H153.837C153.962 54.1227 154.082 54.1722 154.17 54.2604C154.258 54.3487 154.308 54.4683 154.308 54.593C154.308 54.7178 154.258 54.8374 154.17 54.9256C154.082 55.0138 153.962 55.0634 153.837 55.0634Z" fill="#CC0000"/>
<path d="M196.394 55.0634H193.102C192.977 55.0634 192.857 55.0138 192.769 54.9256C192.681 54.8374 192.631 54.7178 192.631 54.593C192.631 54.4683 192.681 54.3486 192.769 54.2604C192.857 54.1722 192.977 54.1227 193.102 54.1227H195.454V51.7709C195.454 51.7091 195.466 51.648 195.489 51.5909C195.513 51.5338 195.548 51.482 195.591 51.4383C195.635 51.3946 195.687 51.36 195.744 51.3363C195.801 51.3127 195.862 51.3005 195.924 51.3005C195.986 51.3005 196.047 51.3127 196.104 51.3363C196.161 51.36 196.213 51.3946 196.257 51.4383C196.3 51.482 196.335 51.5338 196.358 51.5909C196.382 51.648 196.394 51.7091 196.394 51.7709V55.0634Z" fill="#CC0000"/>
<path d="M195.921 45.5689C195.796 45.5689 195.677 45.5194 195.588 45.4312C195.5 45.343 195.451 45.2233 195.451 45.0986V41.8061H198.743C198.868 41.8061 198.988 41.8556 199.076 41.9439C199.164 42.0321 199.214 42.1517 199.214 42.2764C199.214 42.4012 199.164 42.5208 199.076 42.609C198.988 42.6972 198.868 42.7468 198.743 42.7468H196.394V45.0986C196.394 45.1605 196.382 45.2219 196.358 45.2791C196.334 45.3363 196.299 45.3883 196.255 45.432C196.211 45.4757 196.159 45.5103 196.102 45.5338C196.044 45.5573 195.983 45.5692 195.921 45.5689Z" fill="#CC0000"/>
<path d="M256.203 42.7468H250.457C250.332 42.7468 250.212 42.6972 250.124 42.609C250.036 42.5208 249.986 42.4012 249.986 42.2764C249.986 42.1517 250.036 42.0321 250.124 41.9439C250.212 41.8556 250.332 41.8061 250.457 41.8061H256.203C256.327 41.8061 256.447 41.8556 256.535 41.9439C256.624 42.0321 256.673 42.1517 256.673 42.2764C256.673 42.4012 256.624 42.5208 256.535 42.609C256.447 42.6972 256.327 42.7468 256.203 42.7468ZM244.711 42.7468H238.966C238.841 42.7468 238.721 42.6972 238.633 42.609C238.545 42.5208 238.495 42.4012 238.495 42.2764C238.495 42.1517 238.545 42.0321 238.633 41.9439C238.721 41.8556 238.841 41.8061 238.966 41.8061H244.712C244.836 41.8061 244.956 41.8556 245.044 41.9439C245.132 42.0321 245.182 42.1517 245.182 42.2764C245.182 42.4012 245.132 42.5208 245.044 42.609C244.956 42.6972 244.836 42.7468 244.712 42.7468H244.711ZM233.22 42.7468H227.474C227.349 42.7468 227.229 42.6972 227.141 42.609C227.053 42.5208 227.003 42.4012 227.003 42.2764C227.003 42.1517 227.053 42.0321 227.141 41.9439C227.229 41.8556 227.349 41.8061 227.474 41.8061H233.22C233.344 41.8061 233.464 41.8556 233.552 41.9439C233.64 42.0321 233.69 42.1517 233.69 42.2764C233.69 42.4012 233.64 42.5208 233.552 42.609C233.464 42.6972 233.344 42.7468 233.22 42.7468ZM221.728 42.7468H215.982C215.857 42.7468 215.737 42.6972 215.649 42.609C215.561 42.5208 215.511 42.4012 215.511 42.2764C215.511 42.1517 215.561 42.0321 215.649 41.9439C215.737 41.8556 215.857 41.8061 215.982 41.8061H221.728C221.852 41.8061 221.972 41.8556 222.06 41.9439C222.148 42.0321 222.198 42.1517 222.198 42.2764C222.198 42.4012 222.148 42.5208 222.06 42.609C221.972 42.6972 221.852 42.7468 221.728 42.7468ZM210.236 42.7468H204.487C204.362 42.7468 204.243 42.6972 204.155 42.609C204.066 42.5208 204.017 42.4012 204.017 42.2764C204.017 42.1517 204.066 42.0321 204.155 41.9439C204.243 41.8556 204.362 41.8061 204.487 41.8061H210.233C210.358 41.8061 210.478 41.8556 210.566 41.9439C210.654 42.0321 210.704 42.1517 210.704 42.2764C210.704 42.4012 210.654 42.5208 210.566 42.609C210.478 42.6972 210.358 42.7468 210.233 42.7468H210.236Z" fill="#CC0000"/>
<path d="M264.771 48.1835C264.646 48.1835 264.526 48.134 264.438 48.0457C264.35 47.9575 264.301 47.8379 264.301 47.7132V42.7452H261.949C261.824 42.7452 261.704 42.6957 261.616 42.6074C261.528 42.5192 261.478 42.3996 261.478 42.2749C261.478 42.1501 261.528 42.0305 261.616 41.9423C261.704 41.8541 261.824 41.8045 261.949 41.8045H265.241V47.7116C265.241 47.7735 265.229 47.8348 265.206 47.892C265.182 47.9493 265.148 48.0013 265.104 48.0452C265.06 48.089 265.008 48.1238 264.951 48.1476C264.894 48.1713 264.833 48.1835 264.771 48.1835Z" fill="#CC0000"/>
<path d="M265.174 48.4095C261.501 48.3814 258.499 51.5625 258.469 55.5137C258.448 58.2749 261.652 64.2525 263.583 67.6018V70.0001H265.011C265.063 69.9199 271.742 59.5497 271.771 55.6146C271.801 51.6627 268.847 48.4367 265.174 48.4095ZM265.101 58.0609C263.573 58.0497 262.344 56.7789 262.356 55.2236C262.368 53.6683 263.615 52.4191 265.144 52.4271C266.672 52.4351 267.902 53.7092 267.89 55.2645C267.878 56.8198 266.629 58.0722 265.101 58.0609Z" fill="#CC0000"/>
<path d="M139.634 70.0005C130.522 69.9316 123.076 77.7404 123 87.4395C122.949 94.2176 130.898 108.891 135.686 117.113V123H139.231C139.36 122.803 155.928 97.347 155.999 87.6873C156.075 77.9863 148.746 70.0673 139.634 70.0005ZM139.453 93.6924C135.662 93.6649 132.613 90.5453 132.643 86.7274C132.673 82.9096 135.768 79.8431 139.558 79.8627C143.349 79.8824 146.4 83.0099 146.371 86.8277C146.341 90.6456 143.244 93.7199 139.453 93.6924Z" fill="#CC0000"/>
<path d="M263.746 48.4087C260.073 48.3815 257.071 51.5618 257.041 55.5129C257.011 59.464 263.583 70.0001 263.583 70.0001C263.583 70.0001 270.314 59.565 270.343 55.6139C270.373 51.6628 267.419 48.4368 263.746 48.4087ZM263.673 58.061C262.145 58.049 260.916 56.7789 260.928 55.2229C260.94 53.6668 262.188 52.4184 263.716 52.4272C265.244 52.436 266.473 53.7092 266.462 55.2653C266.451 56.8214 265.201 58.0722 263.673 58.061Z" fill="#E83535"/>
<path d="M136.634 70.0004C127.522 69.9336 120.074 77.7401 120 87.4388C119.927 97.1375 136.229 123 136.229 123C136.229 123 152.926 97.3853 152.999 87.6866C153.073 77.9879 145.746 70.0693 136.634 70.0004ZM136.453 93.6935C132.662 93.664 129.613 90.5465 129.643 86.7268C129.673 82.9071 132.768 79.8427 136.558 79.8643C140.349 79.886 143.398 83.0113 143.371 86.831C143.343 90.6507 140.244 93.721 136.453 93.6935Z" fill="#E83535"/>
<path d="M265.078 98.4936L265.104 98.4807C265.115 98.4944 265.101 98.4968 265.078 98.4936Z" fill="#F26027"/>
<path d="M100.577 188.099C100.577 180.828 95.7427 174.889 89.659 174.514V174.495H89.2651C89.1922 174.495 89.1204 174.495 89.0475 174.495C88.9202 174.495 88.7929 174.495 88.6656 174.503L84.3533 174.539C78.2098 175.096 73.3752 180.959 73.3752 188.099C73.3752 195.239 78.2098 201.102 84.3533 201.659V201.704H89.6601V201.684C95.7427 201.309 100.577 195.371 100.577 188.099Z" fill="#CC0000"/>
<path d="M178.07 188.099C178.07 180.828 173.235 174.889 167.151 174.514V174.495H166.757C166.685 174.495 166.612 174.495 166.539 174.495C166.411 174.495 166.284 174.495 166.156 174.503L161.845 174.539C155.7 175.096 150.866 180.959 150.866 188.099C150.866 195.239 155.7 201.102 161.845 201.659V201.704H167.151V201.684C173.233 201.309 178.07 195.371 178.07 188.099Z" fill="#CC0000"/>
<path d="M209.191 168.526C209.29 167.786 209.645 166.934 209.575 165.96C208.86 156.167 207.381 155.755 206.972 155.347C206.472 154.847 205.231 154.687 204.938 154.064C201.565 146.819 197.945 140.783 196.134 140.206C171.42 132.338 132.225 134.172 120.389 140.5C101.412 150.642 91.8799 155.555 79.0052 160.919C77.9846 161.344 71.7311 164.99 69.2306 174.622C69.2089 174.705 69.0968 174.731 69.0272 174.787C66.7149 176.622 66 181.875 66 185.2C66 189.216 66.2437 193.161 70.6158 193.952C76.2349 194.967 90.4556 195.327 110.238 195.934C110.22 195.81 110.207 195.684 110.2 195.557C110.192 195.429 110.188 195.291 110.183 195.157C109.639 192.53 109.667 189.778 110.042 187.124C110.612 183.088 112.688 178.825 116.431 176.86C117.167 176.466 118 176.294 118.832 176.364C119.357 176.151 119.904 175.997 120.464 175.905C121.98 175.669 123.166 175.656 124.684 175.924C125.786 176.119 126.839 176.557 127.845 177.036C129.718 177.927 131.435 179.305 132.85 180.807C134.352 182.397 135.703 184.212 136.702 186.161C138.258 189.197 139.313 192.725 138.736 196.079H140.12C156.6 196.079 173.803 196.396 187.531 195.849C187.289 193.511 187.341 191.151 187.688 188.826C188.151 185.6 189.505 182.102 192.029 179.925C194.378 177.902 197.348 176.743 200.446 176.639C201.843 176.585 203.339 176.747 204.645 177.271C205.72 177.681 206.723 178.261 207.614 178.988C208.243 179.487 208.702 180.113 209.189 180.752C210.822 182.928 211.207 185.975 211.378 188.599C211.459 189.854 211.453 191.113 211.468 192.371C212.518 191.88 212.718 191.334 213.51 191.075C213.749 190.996 214.127 190.627 214.195 190.5C214.356 190.201 215.718 190.531 216.007 184.548C216.474 174.514 209.171 168.643 209.191 168.526Z" fill="url(#paint0_linear)"/>
<path opacity="0.27" d="M70.619 178.788C74.3883 175.25 79.7592 167.731 84.4882 165.585C89.6253 163.254 95.6306 163.002 101.166 161.877C103.413 161.421 114.961 156.311 117.239 156.014C116.208 155.777 113.531 156.267 112.497 156.055C109.181 155.851 107.254 156.49 103.933 156.444C101.821 156.417 91.0616 155.478 89.1857 156.451C87.1911 157.484 83.2445 159.113 80.4448 160.321C79.966 160.524 79.4829 160.726 78.9954 160.929C77.9747 161.355 71.7224 165.001 69.2208 174.64C69.199 174.721 69.0869 174.749 69.0173 174.803C67.8813 175.705 67.1327 177.431 66.6626 179.348C69.7779 178.881 70.8334 178.792 70.619 178.788Z" fill="#FFA0A0"/>
<path opacity="0.19" d="M193.781 172.473C196.027 171.759 198.272 169.923 197.762 167.371C197.66 166.352 196.741 165.535 195.823 165.637C187.863 166.046 165.834 165.15 165.073 165.179C164.083 165.261 145.913 166.267 139.176 165.347C137.442 165.041 134.8 164.821 133.473 166.555C132.657 167.576 134.468 169.419 135.043 170.653C139.635 180.5 146.331 183.393 155.565 182.574C156.675 182.574 169.594 182.711 170.415 182.683C172.058 182.64 176.524 181.975 177.561 180.616C180.425 176.866 191.435 173.29 193.781 172.473Z" fill="#FFA0A0"/>
<path d="M209.176 168.556C209.275 167.816 209.631 166.964 209.56 165.989C208.845 156.196 207.365 155.785 206.957 155.377C206.458 154.877 205.216 154.716 204.924 154.094C204.834 153.9 204.743 153.707 204.652 153.514C204.071 153.737 203.475 153.935 202.862 154.107C202.061 154.226 201.022 154.107 200.22 154.216C200.002 154.953 206.372 162.025 208.652 167.6C208.881 167.886 209.058 168.209 209.176 168.556Z" fill="url(#paint1_linear)"/>
<path d="M137.162 187.584C138.329 190.271 139.012 193.242 138.522 196.079H139.907C156.387 196.079 173.589 196.396 187.319 195.849C187.076 193.511 187.128 191.151 187.475 188.826C187.504 188.622 187.538 188.417 187.574 188.212C184.447 189.369 161.406 191.878 137.162 187.584Z" fill="#FFA0A0"/>
<path d="M75.6047 169.676C73.8234 171.559 72.1455 171.326 70.6766 170.751C70.2848 170.597 71.9507 168.065 73.5633 166.036C75.6199 163.448 79.4718 160.653 79.6568 160.619C81.2139 160.34 79.4316 165.627 75.6047 169.676Z" fill="#9C1A1A"/>
<path d="M75.7583 168.936C73.8258 170.665 72.3633 170.769 70.8933 170.194C70.5026 170.041 72.0684 167.296 73.7224 165.297C76.3165 162.151 79.1467 160.79 79.3349 160.756C80.8822 160.476 77.6897 167.207 75.7583 168.936Z" fill="white"/>
<path d="M122.729 161.88C123.415 163.366 119.391 168.288 115.004 170.105C110.616 171.923 104.565 172.726 104.303 172.282C102.832 169.767 106.004 163.056 110.397 161.238C114.789 159.421 121.508 159.235 122.729 161.88Z" fill="#9C1A1A"/>
<path d="M121.729 162.19C122.342 163.517 118.747 167.914 114.824 169.538C110.901 171.161 105.501 171.877 105.266 171.476C103.954 169.23 106.789 163.235 110.706 161.612C114.624 159.988 120.639 159.828 121.729 162.19Z" fill="white"/>
<path d="M100.911 174.147C100.911 174.286 100.567 175.547 100.426 175.679C99.3378 176.702 94.7068 176.268 88.5382 176.238C81.5742 176.205 75.7919 175.958 75.7974 174.734C75.7974 174.582 76.2838 173.531 76.4502 173.383C77.6276 172.348 80.4056 171.619 86.4958 171.649C93.4576 171.682 100.922 172.924 100.911 174.147Z" fill="#E93535"/>
<path d="M100.401 188.178C100.401 189.578 100.495 191.273 97.8981 192.031C95.1963 192.82 89.7165 192.644 85.2443 192.644C79.2292 192.644 73.5872 192.284 70.831 190.903C70.3276 190.667 69.9024 190.291 69.6054 189.821C69.3085 189.351 69.1523 188.806 69.1553 188.25C69.1553 187.028 69.189 184.544 71.3664 183.658C74.276 182.476 79.8015 183.146 84.8167 183.146C89.1082 183.146 95.2953 183.216 98.1527 184.117C101.14 185.063 100.401 186.72 100.401 188.178Z" fill="url(#paint2_linear)"/>
<path d="M73.9931 184.776L73.9824 185.422L94.9662 185.77L94.9769 185.123L73.9931 184.776Z" fill="#FFA0A0"/>
<path d="M73.9641 186.475L73.9534 187.121L94.9371 187.469L94.9478 186.823L73.9641 186.475Z" fill="#FFA0A0"/>
<path d="M74.6208 188.601L74.6079 189.247L95.5945 189.667L95.6075 189.021L74.6208 188.601Z" fill="#FFA0A0"/>
<path d="M73.9118 189.604L73.9011 190.25L94.8849 190.598L94.8956 189.952L73.9118 189.604Z" fill="#FFA0A0"/>
<path d="M72.8323 187.94C72.8323 189.137 72.2882 190.105 71.6244 190.105C70.9607 190.105 70.4177 189.137 70.4177 187.94C70.4177 186.743 70.9618 185.775 71.6244 185.775C72.2871 185.775 72.8323 186.743 72.8323 187.94Z" fill="#FFCFCF"/>
<path d="M98.5816 188.442C98.5816 189.639 98.0376 190.607 97.3738 190.607C96.7101 190.607 96.166 189.637 96.166 188.442C96.166 187.246 96.7101 186.275 97.3738 186.275C98.0376 186.275 98.5816 187.245 98.5816 188.442Z" fill="#FFCFCF"/>
<path d="M204.911 153.477C205.841 155.359 203.675 154.552 200.55 154.319C200.146 154.29 193.945 149.029 191.151 144.072C190.172 142.337 195.355 139.566 197.816 141.504C198.962 142.407 203.058 149.728 204.911 153.477Z" fill="#9C1A1A"/>
<path d="M204.644 153.17C205.515 154.955 203.64 154.087 200.718 153.868C200.342 153.839 194.58 148.895 191.967 144.198C191.053 142.555 195.812 139.839 198.027 141.758C199.264 142.83 202.912 149.62 204.644 153.17Z" fill="#CC0000"/>
<path opacity="0.22" d="M194.362 147.826C196.13 146.59 198.092 145.658 200.168 145.068C199.214 143.452 198.37 142.175 197.89 141.758C195.675 139.839 190.917 142.555 191.832 144.198C192.567 145.48 193.414 146.694 194.362 147.826Z" fill="url(#paint3_linear)"/>
<path d="M209.219 162.279H206.229L206.247 160.654L209.009 160.653L209.219 162.279Z" fill="white"/>
<path d="M204.332 157.799C203.55 157.799 201.798 154.946 202.58 154.946H206.274C207.156 154.899 208.422 157.05 208.422 157.833L204.332 157.799Z" fill="white"/>
<path d="M202.09 163.119C202.09 164.969 201.053 166.469 199.774 166.469C198.494 166.469 197.457 164.97 197.457 163.119C197.457 161.268 198.494 159.768 199.774 159.768C201.053 159.768 202.09 161.269 202.09 163.119Z" fill="#9C1A1A"/>
<path d="M201.891 163.119C201.891 164.81 200.943 166.181 199.774 166.181C198.604 166.181 197.657 164.81 197.657 163.119C197.657 161.428 198.605 160.058 199.774 160.058C200.942 160.058 201.891 161.429 201.891 163.119Z" fill="#FFDCDC"/>
<path d="M156.493 137.406C139.719 135.871 127.431 131.044 89.1856 156.449C88.8439 156.676 93.2563 156.824 93.3596 156.824C96.8036 156.824 101.014 156.563 111.881 156.074C116.8 155.857 127.276 156.47 127.698 156.38C131.724 155.528 146.778 138.208 156.424 137.585C156.416 137.521 156.485 137.473 156.493 137.406Z" fill="#9C1A1A"/>
<path d="M126.78 155.41C126.359 155.5 116.826 155.125 111.907 155.347C101.039 155.836 97.5696 156.379 93.8711 156.32C93.7623 156.32 89.9822 156.441 90.3238 156.211C129.033 130.499 140.475 137.233 152.273 137.233C152.627 137.233 155.259 137.451 154.977 137.472C145.726 138.025 130.94 154.528 126.78 155.41Z" fill="#CC0000"/>
<path d="M184.209 163.266C184.215 163.455 184.182 163.645 184.115 163.822C184.047 163.999 183.945 164.162 183.814 164.3C183.684 164.438 183.527 164.549 183.354 164.626C183.18 164.703 182.993 164.746 182.803 164.751L177.79 164.89C177.407 164.901 177.035 164.759 176.756 164.495C176.477 164.231 176.315 163.868 176.304 163.484L176.29 162.959C176.279 162.575 176.422 162.203 176.685 161.925C176.949 161.646 177.312 161.483 177.696 161.472L182.71 161.334C182.9 161.329 183.089 161.361 183.266 161.429C183.443 161.497 183.606 161.599 183.744 161.729C183.882 161.86 183.992 162.016 184.07 162.19C184.147 162.363 184.19 162.55 184.195 162.74L184.209 163.266Z" fill="#E93535"/>
<path d="M184.204 163.053C184.211 163.192 184.163 163.327 184.071 163.431C183.979 163.534 183.849 163.596 183.711 163.604L176.312 163.808C176.173 163.808 176.041 163.753 175.943 163.655C175.845 163.557 175.79 163.425 175.789 163.286C175.783 163.149 175.832 163.015 175.924 162.913C176.016 162.811 176.145 162.75 176.282 162.742L183.681 162.538C183.82 162.538 183.952 162.593 184.05 162.691C184.148 162.788 184.203 162.921 184.204 163.059V163.053Z" fill="#FBD4DA"/>
<path d="M110.155 195.932C108.74 187.21 110.357 173.116 125.19 173.307C139.715 173.492 139.255 190.864 139.483 196.079L110.155 195.932Z" fill="#9C1A1A"/>
<path d="M187.319 195.849C184.296 188.358 186.733 174.84 199.979 175.06C212.952 175.277 213.288 185.858 213.503 191.075L212.523 191.861L187.319 195.849Z" fill="#9C1A1A"/>
<path d="M134.11 190.607C134.11 184.84 130.961 179.913 126.516 177.932V177.002L121.21 177.047C115.065 177.604 110.231 183.467 110.231 190.607C110.231 197.747 115.065 203.61 121.21 204.167V204.212H126.516V203.282C130.961 201.301 134.11 196.373 134.11 190.607Z" fill="#CC0000"/>
<path d="M137.434 190.607C137.434 198.115 132.272 204.208 125.9 204.208C119.528 204.208 114.366 198.115 114.366 190.607C114.366 183.099 119.529 177.005 125.9 177.005C132.271 177.005 137.434 183.093 137.434 190.607Z" fill="#CC0000"/>
<path d="M126.622 193.712L131.352 197.723C132.953 196.217 132.767 195.409 133.135 192.988L128.098 190.613L133.358 188.292C132.888 186.643 132.669 185.766 131.578 184.608L126.963 187.621L128.06 182.135C127.182 181.808 126.164 181.405 125.189 181.405C124.195 181.405 123.633 181.568 122.739 181.907L123.486 187.621L119.144 184.233C118.106 185.299 117.692 186.214 117.185 187.728L121.513 190.875L116.875 193.5C117.163 195.953 117.501 196.267 119.051 197.836L123.705 193.637L122.495 200.819C123.162 200.999 124.446 201.202 125.161 201.202C125.744 201.202 127.171 200.992 127.722 200.876L126.622 193.712Z" fill="url(#paint4_linear)"/>
<path d="M125.187 181.002C120.27 181.002 116.284 185.545 116.284 191.148C116.284 196.75 120.27 201.293 125.187 201.293C130.104 201.293 134.091 196.752 134.091 191.148C134.091 185.544 130.107 181.002 125.187 181.002ZM125.187 200.386C120.71 200.386 117.081 196.251 117.081 191.148C117.081 186.044 120.71 181.911 125.187 181.911C129.665 181.911 133.294 186.046 133.294 191.148C133.294 196.25 129.667 200.386 125.187 200.386Z" fill="url(#paint5_linear)"/>
<path d="M202.852 178.218H197.452V204.183H202.852V178.218Z" fill="#CC0000"/>
<path d="M208.605 191.214C208.605 198.396 203.729 204.212 197.715 204.212C191.701 204.212 186.826 198.392 186.826 191.214C186.826 184.036 191.701 178.218 197.715 178.218C203.729 178.218 208.605 184.036 208.605 191.214Z" fill="#CC0000"/>
<path d="M202.145 204.211C208.159 204.211 213.035 198.392 213.035 191.214C213.035 184.036 208.159 178.218 202.145 178.218C196.13 178.218 191.255 184.036 191.255 191.214C191.255 198.392 196.13 204.211 202.145 204.211Z" fill="#CC0000"/>
<path d="M203.641 193.665L207.954 197.496C209.416 196.057 209.245 195.285 209.581 192.971L204.987 190.704L209.784 188.486C209.356 186.911 209.156 186.073 208.161 184.966L203.952 187.844L204.947 182.608C204.146 182.296 203.218 181.911 202.329 181.911C201.421 181.911 200.909 182.066 200.094 182.391L200.776 187.849L196.815 184.611C195.867 185.631 195.491 186.506 195.031 187.951L198.977 190.957L194.747 193.46C195.011 195.804 195.318 196.104 196.733 197.604L200.977 193.591L199.877 200.453C200.485 200.624 201.656 200.819 202.309 200.819C202.841 200.819 204.141 200.619 204.645 200.503L203.641 193.665Z" fill="white"/>
<path d="M202.335 181.52C197.85 181.52 194.215 185.861 194.215 191.213C194.215 196.565 197.85 200.906 202.335 200.906C206.82 200.906 210.456 196.567 210.456 191.213C210.456 185.859 206.816 181.52 202.335 181.52ZM202.335 200.039C198.252 200.039 194.941 196.087 194.941 191.213C194.941 186.339 198.252 182.388 202.335 182.388C206.419 182.388 209.729 186.339 209.729 191.213C209.729 196.087 206.415 200.04 202.335 200.04V200.039Z" fill="url(#paint6_linear)"/>
<path opacity="0.39" d="M187.817 155.449C187.887 156.366 188.027 156.731 187.775 157.592C187.691 157.882 187.594 158.166 187.485 158.444C186.537 161.862 185.108 165.025 183.677 168.15C183.568 168.503 183.459 168.859 183.351 169.219L179.396 182.167L179.202 182.805C178.861 183.749 178.522 184.748 178.125 185.727C177.994 186.053 177.856 186.38 177.709 186.695C176.433 189.724 172.862 191.561 169.667 191.522L168.573 191.535C161.098 191.618 141.739 192.072 141.433 191.664C140.718 190.745 140.792 187.343 140.78 186.917C140.473 177.136 139.814 156.179 139.814 156.179C139.803 155.828 139.652 155.549 139.476 155.554C139.301 155.56 139.168 155.848 139.179 156.198C139.179 156.198 139.809 176.255 140.125 186.284C140.133 186.501 140.045 190.73 140.887 192.088C141.187 192.572 161.523 192.319 168.634 192.216C168.988 192.216 169.338 192.205 169.678 192.196C173.269 192.174 176.945 190.438 178.413 186.943C178.563 186.622 178.705 186.298 178.838 185.97C179.241 184.991 179.577 183.986 179.874 183.013L180.076 182.345C181.273 178.381 182.694 173.696 183.994 169.389C184.103 169.029 184.211 168.674 184.32 168.321C185.817 165.439 186.736 162.377 187.932 159.276C188.068 158.98 188.246 158.698 188.33 158.387C188.576 157.462 188.699 156.524 188.379 155.477C188.317 155.187 188.005 155.481 187.817 155.449Z" fill="#E83535"/>
<path d="M189.557 156.283L139.601 156.174C138.777 156.16 138.676 154.899 139.42 154.097L140.989 151.783C148.34 141.382 158.508 138.201 159.326 138.215L182.752 139.056C183.576 139.07 185.86 141.867 185.845 142.69C185.845 142.689 190.381 156.298 189.557 156.283Z" fill="#9C1A1A"/>
<path d="M188.923 154.643C188.91 155.405 189.305 155.59 188.519 155.576L141.107 155.476C140.32 155.462 140.224 154.303 140.935 153.564L142.431 151.436C149.445 141.87 159.139 138.943 159.925 138.956L182.271 139.728C183.057 139.743 185.235 142.315 185.222 143.072L188.923 154.643Z" fill="#CC0000"/>
<path opacity="0.22" d="M93.4413 156.33C93.6187 156.215 93.7982 156.101 93.9854 155.994C96.4815 154.506 99.3281 153.462 101.973 152.369C103.126 151.894 104.299 151.475 105.492 151.112C106.656 150.747 107.837 150.442 109.031 150.196C109.438 150.115 109.846 150.037 110.255 149.963C110.808 149.785 111.366 149.619 111.932 149.471C113.61 149.035 115.311 148.691 117.026 148.441C120.957 147.86 124.897 147.308 128.866 147.094C131.134 146.971 133.406 146.926 135.677 146.929C136.514 146.929 137.349 146.938 138.185 146.95C143.751 142.44 150.126 137.762 154.978 137.473C155.26 137.455 152.628 137.234 152.274 137.234C140.477 137.234 129.034 130.499 90.3249 156.215C90.0496 156.396 92.4348 156.354 93.4413 156.33Z" fill="#FFA0A0"/>
<g opacity="0.52">
<path opacity="0.22" d="M188.923 154.685L186.605 147.437L178.194 155.598L188.519 155.619C189.305 155.631 188.91 155.442 188.923 154.685Z" fill="#FFA0A0"/>
<path opacity="0.22" d="M162.428 139.084L145.479 155.526L155.837 155.548L172.453 139.43L162.428 139.084Z" fill="#FFA0A0"/>
</g>
<path d="M146.819 153.315H140.085V154.897H146.819V153.315Z" fill="#9C1A1A"/>
<path d="M152.592 152.067C153.386 155.848 150.252 155.359 147.369 155.359C144.485 155.359 141.136 155.848 142.146 152.067C142.581 150.428 144.485 148.996 147.369 148.996C150.252 148.996 152.242 150.407 152.592 152.067Z" fill="#FFA0A0"/>
<path d="M148.813 154.397C148.111 154.397 147.918 152.631 148.621 152.631H152.682C152.791 153.091 152.706 154.075 152.377 154.418L148.813 154.397Z" fill="white"/>
<defs>
<linearGradient id="paint0_linear" x1="141.009" y1="135.001" x2="141.009" y2="196.17" gradientUnits="userSpaceOnUse">
<stop stop-color="#FFA0A0"/>
<stop offset="1" stop-color="#FFDCDC"/>
</linearGradient>
<linearGradient id="paint1_linear" x1="26810.9" y1="18832" x2="27615.2" y2="18832" gradientUnits="userSpaceOnUse">
<stop stop-color="#FFA0A0"/>
<stop offset="1" stop-color="#67A3D8"/>
</linearGradient>
<linearGradient id="paint2_linear" x1="51447.3" y1="14620.5" x2="60465" y2="14620.5" gradientUnits="userSpaceOnUse">
<stop stop-color="#CC0000"/>
<stop offset="1" stop-color="#00264C"/>
</linearGradient>
<linearGradient id="paint3_linear" x1="23571.6" y1="7470.73" x2="24228" y2="7470.73" gradientUnits="userSpaceOnUse">
<stop stop-color="#D7EDFA"/>
<stop offset="1" stop-color="#A7CFEE"/>
</linearGradient>
<linearGradient id="paint4_linear" x1="34378.7" y1="30272" x2="36875.2" y2="30272" gradientUnits="userSpaceOnUse">
<stop stop-color="white"/>
<stop offset="1" stop-color="#EDB0BA"/>
</linearGradient>
<linearGradient id="paint5_linear" x1="37034.1" y1="30993" x2="39948.2" y2="30993" gradientUnits="userSpaceOnUse">
<stop stop-color="white"/>
<stop offset="1" stop-color="#EDB0BA"/>
</linearGradient>
<linearGradient id="paint6_linear" x1="45496.6" y1="29630.6" x2="47920.8" y2="29630.6" gradientUnits="userSpaceOnUse">
<stop stop-color="white"/>
<stop offset="1" stop-color="#EDB0BA"/>
</linearGradient>
</defs>
</svg>
