<svg width="55" height="42" viewBox="0 0 55 42" fill="none" xmlns="http://www.w3.org/2000/svg">
<g clip-path="url(#clip0)">
<path d="M5.67551 9.53918L11.7114 2.61173C12.3591 1.86577 13.3796 1.5847 14.2964 1.90035L51.8876 14.7713C53.1417 15.2008 53.8022 16.5883 53.3631 17.871L47.5323 34.9004C47.0932 36.1831 45.7208 36.8746 44.4666 36.4452L3.59594 22.4514C2.34179 22.022 1.68128 20.6344 2.12045 19.3517L5.19485 10.3726C5.29897 10.0659 5.46301 9.78211 5.67551 9.53918Z" fill="#CC0000"/>
<path d="M26.3425 10.3491L33.9111 12.9406L27.8153 30.7441L20.2467 28.1527L26.3425 10.3491Z" fill="#FFA0A0"/>
<path d="M5.67551 9.5391L11.2207 3.17537C11.6666 13.3841 16.2635 22.8866 23.9131 29.4078L3.59591 22.4514C2.34176 22.022 1.68124 20.6344 2.12041 19.3518L5.19482 10.3726C5.29897 10.0658 5.46301 9.78204 5.67551 9.5391Z" fill="#E83535"/>
<path d="M7.07995 9.80736L14.6486 12.3988L16.2388 7.75439L10.5963 5.82247L7.07995 9.80736Z" fill="#88CADB"/>
<path d="M43.4857 17.0836L48.0269 18.6384L46.4367 23.2828L41.8955 21.728L43.4857 17.0836Z" fill="#88CADB"/>
<path d="M37.2391 27.9169C34.7309 27.0581 31.986 28.4413 31.1077 31.0065C30.2294 33.5717 31.5505 36.3469 34.0587 37.2057C36.5669 38.0645 39.3118 36.6814 40.1901 34.1162C41.0684 31.551 39.7473 28.7757 37.2391 27.9169Z" fill="#42210B"/>
<path d="M14.533 20.1426C12.0248 19.2839 9.27995 20.667 8.40164 23.2322C7.52333 25.7974 8.84441 28.5726 11.3526 29.4314C13.8608 30.2902 16.6057 28.9071 17.484 26.3419C18.3623 23.7767 17.0412 21.0014 14.533 20.1426Z" fill="#42210B"/>
<path d="M36.1791 31.0132C35.3428 30.7269 34.4282 31.1877 34.1353 32.0431C33.8424 32.8984 34.2826 33.8231 35.119 34.1095C35.9553 34.3959 36.8699 33.9351 37.1628 33.0797C37.4556 32.2243 37.0154 31.2995 36.1791 31.0132Z" fill="#CC0000"/>
<path d="M13.4731 23.2389C12.6368 22.9526 11.7221 23.4134 11.4292 24.2688C11.1364 25.1241 11.5765 26.0488 12.4129 26.3352C13.2492 26.6216 14.1639 26.1608 14.4567 25.3054C14.7496 24.4501 14.3094 23.5252 13.4731 23.2389Z" fill="#CC0000"/>
<path d="M30.9959 21.4552L49.9175 27.9338L49.3874 29.482L30.4658 23.0034L30.9959 21.4552Z" fill="#FF9F33"/>
<path d="M4.50566 12.3852L23.4272 18.8638L22.8972 20.4119L3.97558 13.9333L4.50566 12.3852Z" fill="#FF9F33"/>
<path d="M45.6139 23.001L41.8954 21.7278L43.4856 17.0834L44.1865 17.3234C44.3521 19.287 44.8345 21.2051 45.6139 23.001Z" fill="#5BB2C9"/>
<path d="M37.4305 15.0103L41.9717 16.5652L40.3815 21.2096L35.8403 19.6547L37.4305 15.0103Z" fill="#88CADB"/>
<path d="M39.5587 20.9278L35.8403 19.6547L37.4305 15.0103L38.1313 15.2502C38.2969 17.2139 38.7792 19.1319 39.5587 20.9278Z" fill="#5BB2C9"/>
<path d="M17.7523 8.27253L22.2935 9.82739L20.7033 14.4718L16.1621 12.9169L17.7523 8.27253Z" fill="#88CADB"/>
<path d="M19.8805 14.19L16.1621 12.9169L17.7523 8.27249L18.4531 8.51246C18.6187 10.4761 19.101 12.3942 19.8805 14.19Z" fill="#5BB2C9"/>
<path d="M11.4619 6.11868C11.6952 8.00602 12.0733 9.8703 12.5919 11.6944L7.0797 9.8071L10.5961 5.82222L11.4619 6.11868Z" fill="#5BB2C9"/>
<path d="M28.9758 27.356L27.8157 30.744L20.2471 28.1526L24.8269 14.7767C24.649 19.3659 26.1249 23.84 28.9758 27.356Z" fill="#FFDCDC"/>
</g>
<defs>
<clipPath id="clip0">
<rect width="48" height="27" fill="white" transform="matrix(-0.946081 -0.323931 -0.323931 0.946081 54.1582 15.5487)"/>
</clipPath>
</defs>
</svg>
