<svg width="16" height="16" viewBox="0 0 16 16" fill="none" xmlns="http://www.w3.org/2000/svg">
<path d="M14.1026 1.76282H13.3682V2.64424C13.3682 3.37313 12.7753 3.96637 12.0462 3.96637C11.3172 3.96637 10.7239 3.37331 10.7239 2.64424V1.76282H9.25493V2.64424C9.25493 3.37313 8.66187 3.96637 7.9328 3.96637C7.20391 3.96637 6.61067 3.37331 6.61067 2.64424V1.76282H5.14169V2.64424C5.14169 3.37313 4.54844 3.96637 3.81955 3.96637C3.09067 3.96637 2.4976 3.37331 2.4976 2.64424V1.76282H1.76302C0.790755 1.76282 0 2.5534 0 3.52566V14.2373C0 15.2094 0.790755 16 1.76302 16H14.1026C15.0747 16 15.8658 15.2094 15.8658 14.2373V3.52566C15.8658 2.55357 15.0747 1.76282 14.1026 1.76282ZM14.6903 14.2373C14.6903 14.561 14.4268 14.8249 14.1026 14.8249H1.76302C1.43911 14.8249 1.17547 14.5612 1.17547 14.2373V5.87588C1.17547 5.55144 1.43858 5.28833 1.76302 5.28833H14.1026C14.4272 5.28833 14.6903 5.55126 14.6903 5.87588V14.2373Z" fill="#53555B"/>
<path d="M3.81965 3.52569C4.30659 3.52569 4.70108 3.13102 4.70108 2.64427V0.881422C4.70108 0.394667 4.30641 0 3.81965 0C3.3329 0 2.93823 0.394667 2.93823 0.881422V2.64427C2.93823 3.13102 3.3329 3.52569 3.81965 3.52569Z" fill="#53555B"/>
<path d="M7.93281 3.52569C8.41957 3.52569 8.81388 3.13102 8.81388 2.64427V0.881422C8.81388 0.394667 8.41957 0 7.93281 0C7.44588 0 7.05139 0.394667 7.05139 0.881422V2.64427C7.05157 3.13102 7.44588 3.52569 7.93281 3.52569Z" fill="#53555B"/>
<path d="M12.0462 3.52569C12.5329 3.52569 12.9278 3.13102 12.9278 2.64427V0.881422C12.9278 0.394667 12.5329 0 12.0462 0C11.5594 0 11.1649 0.394667 11.1649 0.881422V2.64427C11.1649 3.13102 11.5594 3.52569 12.0462 3.52569Z" fill="#53555B"/>
<path d="M4.04575 6.52588H3.0621C2.79046 6.52588 2.57019 6.74615 2.57019 7.01779V8.00143C2.57019 8.2729 2.79046 8.49335 3.0621 8.49335H4.04575C4.31739 8.49335 4.53766 8.27308 4.53766 8.00143V7.01761C4.53766 6.74597 4.31739 6.52588 4.04575 6.52588Z" fill="#53555B"/>
<path d="M6.96518 6.52588H5.98153C5.70989 6.52588 5.48962 6.74615 5.48962 7.01779V8.00143C5.48962 8.2729 5.70989 8.49335 5.98153 8.49335H6.96518C7.23682 8.49335 7.45709 8.27308 7.45709 8.00143V7.01761C7.45691 6.74597 7.23682 6.52588 6.96518 6.52588Z" fill="#53555B"/>
<path d="M9.88426 6.52588H8.90097C8.62932 6.52588 8.40906 6.74615 8.40906 7.01779V8.00143C8.40906 8.2729 8.62915 8.49335 8.90097 8.49335H9.88426C10.1561 8.49335 10.3763 8.27308 10.3763 8.00143V7.01761C10.3762 6.74597 10.1561 6.52588 9.88426 6.52588Z" fill="#53555B"/>
<path d="M12.8037 6.52588H11.82C11.5486 6.52588 11.3281 6.74615 11.3281 7.01779V8.00143C11.3281 8.2729 11.5484 8.49335 11.82 8.49335H12.8037C13.0753 8.49335 13.2958 8.27308 13.2958 8.00143V7.01761C13.2954 6.74597 13.0753 6.52588 12.8037 6.52588Z" fill="#53555B"/>
<path d="M4.04575 9.07312H3.0621C2.79046 9.07312 2.57019 9.29339 2.57019 9.56521V10.5487C2.57019 10.8201 2.79046 11.0406 3.0621 11.0406H4.04575C4.31739 11.0406 4.53766 10.8203 4.53766 10.5487V9.56521C4.53766 9.29321 4.31739 9.07312 4.04575 9.07312Z" fill="#53555B"/>
<path d="M6.96518 9.07312H5.98153C5.70989 9.07312 5.48962 9.29339 5.48962 9.56521V10.5487C5.48962 10.8201 5.70989 11.0406 5.98153 11.0406H6.96518C7.23682 11.0406 7.45709 10.8203 7.45709 10.5487V9.56521C7.45691 9.29321 7.23682 9.07312 6.96518 9.07312Z" fill="#53555B"/>
<path d="M9.88426 9.07312H8.90097C8.62932 9.07312 8.40906 9.29339 8.40906 9.56521V10.5487C8.40906 10.8201 8.62915 11.0406 8.90097 11.0406H9.88426C10.1561 11.0406 10.3763 10.8203 10.3763 10.5487V9.56521C10.3762 9.29321 10.1561 9.07312 9.88426 9.07312Z" fill="#53555B"/>
<path d="M12.8037 9.07312H11.82C11.5486 9.07312 11.3281 9.29339 11.3281 9.56521V10.5487C11.3281 10.8201 11.5484 11.0406 11.82 11.0406H12.8037C13.0753 11.0406 13.2958 10.8203 13.2958 10.5487V9.56521C13.2954 9.29321 13.0753 9.07312 12.8037 9.07312Z" fill="#53555B"/>
<path d="M4.04575 11.6201H3.0621C2.79046 11.6201 2.57019 11.8404 2.57019 12.112V13.0955C2.57019 13.3673 2.79046 13.5876 3.0621 13.5876H4.04575C4.31739 13.5876 4.53766 13.3675 4.53766 13.0955V12.112C4.53766 11.8406 4.31739 11.6201 4.04575 11.6201Z" fill="#53555B"/>
<path d="M6.96518 11.6201H5.98153C5.70989 11.6201 5.48962 11.8404 5.48962 12.112V13.0955C5.48962 13.3673 5.70989 13.5876 5.98153 13.5876H6.96518C7.23682 13.5876 7.45709 13.3675 7.45709 13.0955V12.112C7.45691 11.8406 7.23682 11.6201 6.96518 11.6201Z" fill="#53555B"/>
<path d="M9.88426 11.6201H8.90097C8.62932 11.6201 8.40906 11.8404 8.40906 12.112V13.0955C8.40906 13.3673 8.62915 13.5876 8.90097 13.5876H9.88426C10.1561 13.5876 10.3763 13.3675 10.3763 13.0955V12.112C10.3762 11.8406 10.1561 11.6201 9.88426 11.6201Z" fill="#53555B"/>
</svg>
