<svg width="20" height="20" viewBox="0 0 20 20" fill="none" xmlns="http://www.w3.org/2000/svg">
<path d="M15.4225 19.9562C15.4224 19.9562 15.4224 19.9562 15.4224 19.9562C14.7835 19.9562 13.4459 19.85 11.6653 19.1387C9.48852 18.2691 7.339 16.7824 5.27644 14.7198C1.16589 10.6093 -0.344111 7.5524 0.064453 4.16841C0.256727 2.4706 0.984908 1.62158 1.99251 0.607815C2.38484 0.215531 2.90128 0 3.44782 0C3.97225 0 4.46183 0.200817 4.82649 0.56543L7.77011 3.50905C8.53921 4.2809 8.52131 5.55149 7.73081 6.34199L6.88858 7.18309C6.6599 7.41148 6.61467 7.76618 6.77875 8.04574C7.44024 9.17304 8.0407 10.0625 8.98883 11.0122C9.82456 11.8479 10.6835 12.4902 11.9531 13.2288C12.0613 13.2917 12.1846 13.325 12.3095 13.3249C12.4992 13.3249 12.6775 13.2512 12.8115 13.1174L13.6587 12.2714C14.0493 11.8809 14.5656 11.6656 15.1123 11.6656C15.6362 11.6656 16.1258 11.866 16.4908 12.2297L19.435 15.1739C20.2034 15.945 20.1857 17.2162 19.3963 18.0084C19.3949 18.0097 19.3934 18.0112 19.3921 18.0125C18.3363 19.0455 17.5182 19.7376 15.8312 19.9381C15.8295 19.9383 15.8277 19.9385 15.8259 19.9387C15.777 19.944 15.6399 19.9562 15.4225 19.9562ZM3.44782 0.949266C3.15483 0.949266 2.87675 1.06602 2.66478 1.27804C1.61636 2.33277 1.15402 2.98321 1.00726 4.27872C0.637619 7.34048 2.06902 10.17 5.94767 14.0486C10.5483 18.6493 14.3629 19.0069 15.4224 19.0069C15.4224 19.0069 15.4225 19.0069 15.4225 19.0069C15.5973 19.0069 15.6987 18.9976 15.7222 18.9951C17.064 18.8349 17.697 18.3427 18.7257 17.3364C19.1451 16.9136 19.1621 16.245 18.7631 15.8446L15.8201 12.9015C15.6348 12.7169 15.3832 12.6149 15.1122 12.6149C14.8191 12.6149 14.5411 12.7314 14.3296 12.9429L13.4822 13.7891C13.169 14.1019 12.7525 14.2742 12.3095 14.2742C12.017 14.2742 11.7287 14.1965 11.4757 14.0493C10.5391 13.5044 9.43133 12.7972 8.31722 11.6831C7.29752 10.6617 6.65928 9.71791 5.95991 8.52611C5.57712 7.87368 5.68311 7.04516 6.21778 6.51134L7.05978 5.67053C7.48054 5.24972 7.49791 4.58082 7.09827 4.17971L4.15522 1.2367C3.96992 1.05136 3.7187 0.949266 3.44782 0.949266Z" fill="#A1A4A8"/>
</svg>
