<svg width="15" height="16" viewBox="0 0 15 16" fill="none" xmlns="http://www.w3.org/2000/svg">
<path d="M4.11003 10.8819C4.88673 11.6586 5.70658 12.3598 6.56958 12.9854C7.43258 13.6111 8.29558 14.1073 9.15858 14.4741C10.0216 14.8409 10.8387 15.0243 11.61 15.0243C12.1332 15.0243 12.6214 14.9299 13.0744 14.7411C13.5275 14.5523 13.9374 14.2557 14.3042 13.8511C14.52 13.6138 14.6899 13.3576 14.8139 13.0825C14.938 12.8128 15 12.5405 15 12.2654C15 12.0604 14.9595 11.8662 14.8786 11.6828C14.7977 11.4941 14.6602 11.3323 14.466 11.1974L11.9822 9.43366C11.7934 9.30421 11.6181 9.20712 11.4563 9.1424C11.2945 9.07767 11.1408 9.04531 10.9951 9.04531C10.8118 9.04531 10.6338 9.09655 10.4612 9.19903C10.2886 9.29612 10.1106 9.43635 9.92718 9.61974L9.35275 10.1861C9.27184 10.2724 9.16936 10.3155 9.04531 10.3155C8.98058 10.3155 8.91855 10.3047 8.85922 10.2832C8.80529 10.2616 8.75944 10.2427 8.72168 10.2265C8.46818 10.0917 8.14455 9.85976 7.75081 9.53074C7.35707 9.19633 6.96063 8.82956 6.56149 8.43042C6.16775 8.03128 5.80367 7.63484 5.46926 7.2411C5.13484 6.84736 4.90291 6.52643 4.77346 6.27832C4.75189 6.23517 4.73031 6.18662 4.70874 6.13269C4.69256 6.07335 4.68447 6.01402 4.68447 5.95469C4.68447 5.83603 4.72492 5.73625 4.80583 5.65534L5.38026 5.06472C5.55825 4.88134 5.69849 4.70334 5.80097 4.53074C5.90345 4.35814 5.95469 4.18015 5.95469 3.99676C5.95469 3.85113 5.91963 3.69741 5.84951 3.5356C5.78479 3.37379 5.68501 3.19849 5.55016 3.00971L3.81068 0.558252C3.67044 0.364078 3.50324 0.22384 3.30906 0.13754C3.11489 0.0458468 2.90992 0 2.69417 0C2.13862 0 1.61812 0.234628 1.13269 0.703883C0.738943 1.08145 0.450378 1.49946 0.26699 1.95793C0.0889968 2.411 0 2.89644 0 3.41424C0 4.19094 0.18069 5.00809 0.542071 5.8657C0.903452 6.71791 1.39428 7.57282 2.01456 8.43042C2.63484 9.28803 3.33333 10.1052 4.11003 10.8819Z" fill="white"/>
</svg>
