<svg width="16" height="16" viewBox="0 0 16 16" fill="none" xmlns="http://www.w3.org/2000/svg">
<circle cx="8" cy="8" r="8" fill="#A1A4A8"/>
<path d="M11.8438 4.15619C11.7438 4.05618 11.6081 4 11.4667 4C11.3252 4 11.1895 4.05618 11.0895 4.15619L7.99979 7.24592L4.91006 4.15619C4.80999 4.05637 4.67439 4.00034 4.53305 4.00043C4.3917 4.00052 4.25617 4.0567 4.15622 4.15665C4.05627 4.2566 4.00009 4.39213 4 4.53348C3.99991 4.67482 4.05594 4.81042 4.15576 4.91049L7.24549 8.00022L4.15576 11.0899C4.05594 11.19 3.99991 11.3256 4 11.467C4.00009 11.6083 4.05627 11.7438 4.15622 11.8438C4.25617 11.9437 4.3917 11.9999 4.53305 12C4.67439 12.0001 4.80999 11.9441 4.91006 11.8442L7.99979 8.75451L11.0895 11.8442C11.1896 11.9441 11.3252 12.0001 11.4665 12C11.6079 11.9999 11.7434 11.9437 11.8433 11.8438C11.9433 11.7438 11.9995 11.6083 11.9996 11.467C11.9997 11.3256 11.9436 11.19 11.8438 11.0899L8.75408 8.00022L11.8438 4.91049C11.8933 4.86097 11.9326 4.80217 11.9594 4.73746C11.9862 4.67274 12 4.60339 12 4.53334C12 4.4633 11.9862 4.39394 11.9594 4.32923C11.9326 4.26452 11.8933 4.20572 11.8438 4.15619Z" fill="white"/>
</svg>
