<svg width="12" height="12" viewBox="0 0 12 12" fill="none" xmlns="http://www.w3.org/2000/svg">
<path d="M11.7657 0.234291C11.6157 0.0842749 11.4122 0 11.2 0C10.9878 0 10.7843 0.0842749 10.6343 0.234291L5.99968 4.86888L1.36509 0.234291C1.21499 0.0845516 1.01159 0.000516482 0.799571 0.000644913C0.587551 0.000773343 0.384252 0.0850548 0.234331 0.234976C0.08441 0.384896 0.000128577 0.588196 1.46993e-07 0.800216C-0.000128283 1.01224 0.0839068 1.21564 0.233646 1.36574L4.86823 6.00032L0.233646 10.6349C0.0839068 10.785 -0.000128283 10.9884 1.46993e-07 11.2004C0.000128577 11.4124 0.08441 11.6157 0.234331 11.7657C0.384252 11.9156 0.587551 11.9999 0.799571 12C1.01159 12.0001 1.21499 11.9161 1.36509 11.7664L5.99968 7.13177L10.6343 11.7664C10.7844 11.9161 10.9878 12.0001 11.1998 12C11.4118 11.9999 11.6151 11.9156 11.765 11.7657C11.9149 11.6157 11.9992 11.4124 11.9994 11.2004C11.9995 10.9884 11.9154 10.785 11.7657 10.6349L7.13112 6.00032L11.7657 1.36574C11.84 1.29145 11.8989 1.20325 11.9391 1.10618C11.9794 1.00912 12 0.90508 12 0.800015C12 0.694949 11.9794 0.590913 11.9391 0.493845C11.8989 0.396778 11.84 0.308581 11.7657 0.234291Z" fill="#A1A4A8"/>
</svg>
