<svg width="16" height="16" viewBox="0 0 16 16" fill="none" xmlns="http://www.w3.org/2000/svg">
<path d="M15.6876 0.312387C15.4875 0.112366 15.2162 0 14.9333 0C14.6504 0 14.3791 0.112366 14.179 0.312387L7.99957 6.49183L1.82013 0.312387C1.61999 0.112735 1.34879 0.000688643 1.06609 0.000859884C0.783401 0.00103112 0.512335 0.113406 0.312441 0.313301C0.112547 0.513195 0.000171436 0.784261 1.95991e-07 1.06695C-0.000171044 1.34965 0.111876 1.62085 0.311528 1.82099L6.49097 8.00043L0.311528 14.1799C0.111876 14.38 -0.000171044 14.6512 1.95991e-07 14.9339C0.000171436 15.2166 0.112547 15.4877 0.312441 15.6876C0.512335 15.8875 0.783401 15.9998 1.06609 16C1.34879 16.0002 1.61999 15.8881 1.82013 15.6885L7.99957 9.50903L14.179 15.6885C14.3792 15.8881 14.6504 16.0002 14.933 16C15.2157 15.9998 15.4868 15.8875 15.6867 15.6876C15.8866 15.4877 15.999 15.2166 15.9991 14.9339C15.9993 14.6512 15.8873 14.38 15.6876 14.1799L9.50817 8.00043L15.6876 1.82099C15.7867 1.72193 15.8653 1.60434 15.9189 1.47491C15.9725 1.34549 16.0001 1.20677 16.0001 1.06669C16.0001 0.926599 15.9725 0.787883 15.9189 0.65846C15.8653 0.529037 15.7867 0.411441 15.6876 0.312387Z" fill="#CC0000"/>
</svg>
