<svg width="16" height="16" viewBox="0 0 16 16" fill="none" xmlns="http://www.w3.org/2000/svg">
<path d="M15.7074 0.292566C15.52 0.105236 15.2659 0 15.001 0C14.736 0 14.4819 0.105236 14.2945 0.292566L8.00625 6.58082L1.71799 0.292566C1.52953 0.110545 1.27712 0.00982631 1.01512 0.012103C0.753122 0.0143797 0.502499 0.11947 0.31723 0.304738C0.131962 0.490006 0.0268721 0.740629 0.0245954 1.00263C0.0223187 1.26463 0.123037 1.51704 0.305058 1.7055L6.59331 7.99375L0.305058 14.282C0.20962 14.3742 0.133495 14.4844 0.0811256 14.6064C0.0287562 14.7283 0.00119067 14.8594 3.77286e-05 14.9921C-0.00111522 15.1248 0.0241672 15.2563 0.0744102 15.3791C0.124653 15.5019 0.19885 15.6135 0.292672 15.7073C0.386494 15.8011 0.498062 15.8753 0.620866 15.9256C0.743669 15.9758 0.87525 16.0011 1.00793 16C1.14061 15.9988 1.27173 15.9712 1.39364 15.9189C1.51555 15.8665 1.62581 15.7904 1.71799 15.6949L8.00625 9.40669L14.2945 15.6949C14.483 15.877 14.7354 15.9777 14.9974 15.9754C15.2594 15.9731 15.51 15.868 15.6953 15.6828C15.8805 15.4975 15.9856 15.2469 15.9879 14.9849C15.9902 14.7229 15.8895 14.4705 15.7074 14.282L9.41918 7.99375L15.7074 1.7055C15.8948 1.51811 16 1.264 16 0.999032C16 0.734068 15.8948 0.479952 15.7074 0.292566Z" fill="#53555B"/>
</svg>
