<svg width="375" height="250" viewBox="0 0 375 250" fill="none" xmlns="http://www.w3.org/2000/svg">
<path d="M257.525 161.731C226.251 210.033 171.058 201.916 144.392 177.765C144.392 177.765 114.925 149.768 137.585 122.254C147.164 110.622 148.528 98.5885 150.864 87.853C154.055 73.1896 159.053 60.939 189.245 55.4137C209.553 51.6965 229.098 59.6143 243.584 73.5224C266.402 95.4241 276.654 132.186 257.525 161.731Z" fill="#FFEAD2"/>
<path d="M257.525 161.731C226.251 210.033 171.058 201.916 144.392 177.765C144.392 177.765 120.37 154.941 132.384 130.257C133.678 127.602 135.385 124.926 137.585 122.254C147.164 110.623 148.528 98.5885 150.864 87.8558C150.88 88.1331 152.344 113.391 179.87 105.128C201.26 98.7077 218.528 76.708 243.584 73.5197C256.427 85.8479 265.289 102.883 267.172 120.69C268.635 134.52 265.891 148.815 257.525 161.731Z" fill="#FFCD95"/>
<path d="M257.525 161.731C226.251 210.033 171.058 201.916 144.392 177.766C144.392 177.766 133.194 167.125 129.913 152.519C128.388 145.732 128.573 138.089 132.384 130.257C143.964 136.867 169.89 148.712 188.8 135.434C209.859 120.643 243.148 98.3186 267.172 120.692C267.421 123.046 267.544 125.411 267.542 127.779C267.537 139.342 264.465 151.012 257.525 161.731Z" fill="#FFB25C"/>
<path d="M257.525 161.731C226.251 210.033 171.058 201.916 144.392 177.765C144.392 177.765 133.194 167.125 129.913 152.519C129.913 152.519 141.271 168.915 172.056 172.709C205.737 176.86 235.791 133.566 267.55 127.781C267.537 139.342 264.465 151.012 257.525 161.731Z" fill="#FF9F33"/>
<path d="M170.826 52C149.329 57.1445 146 78.4065 146 78.4065" stroke="#49B89D" stroke-width="5" stroke-miterlimit="10" stroke-linecap="round"/>
<path d="M188 50.7407C188 50.7407 195.505 49.061 198.478 49" stroke="#49B89D" stroke-width="5" stroke-miterlimit="10" stroke-linecap="round"/>
<path d="M131.582 177.232C131.582 177.232 117.301 168.999 120.455 138" stroke="#49B89D" stroke-width="5" stroke-miterlimit="10" stroke-linecap="round"/>
<path d="M214.415 69.4882H214.439C214.417 69.4706 214.394 69.453 214.371 69.4364L214.415 69.4882Z" fill="#5BB2C9"/>
<path d="M241.996 156.161C230.825 165.28 195.947 165.28 185.004 156.161C173.834 147.042 174.974 108.06 185.004 97.802C195.035 87.5436 231.965 87.5436 241.996 97.802C252.026 108.06 253.166 147.043 241.996 156.161Z" fill="#CC0000"/>
<path opacity="0.32" d="M213.728 140.204C203.697 148.182 192.527 152.286 182.041 152.514C174.29 139.292 175.886 107.149 185.004 97.8021C193.211 89.3675 218.971 87.7716 233.789 93.0148C237.436 108.061 229.913 127.209 213.728 140.204Z" fill="white"/>
<path d="M208.257 146.814C206.661 146.814 205.065 146.13 204.153 144.763L191.388 128.349C189.564 126.07 190.02 122.878 192.299 121.054C194.579 119.231 197.77 119.687 199.594 121.966L208.257 133.137L227.406 108.288C229.23 106.009 232.421 105.553 234.701 107.377C236.98 109.2 237.436 112.392 235.613 114.671L212.36 144.763C211.22 145.903 209.853 146.814 208.257 146.814Z" fill="white"/>
</svg>
