<svg width="24" height="16" viewBox="0 0 24 16" fill="none" xmlns="http://www.w3.org/2000/svg">
<path d="M22.0909 6H23.4545C23.5992 6 23.7379 5.94253 23.8402 5.84024C23.9425 5.73795 24 5.59921 24 5.45455V2.18182C23.9994 1.60335 23.7693 1.04875 23.3603 0.63971C22.9513 0.230671 22.3967 0.000606437 21.8182 0H2.18182C1.60335 0.000606437 1.04875 0.230671 0.63971 0.63971C0.230671 1.04875 0.000606437 1.60335 0 2.18182V5.45455C0 5.59921 0.0574673 5.73795 0.15976 5.84024C0.262052 5.94253 0.400791 6 0.545455 6H1.90909C2.27075 6 2.6176 6.14367 2.87333 6.3994C3.12906 6.65513 3.27273 7.00198 3.27273 7.36364C3.27273 7.7253 3.12906 8.07214 2.87333 8.32787C2.6176 8.5836 2.27075 8.72727 1.90909 8.72727H0.545455C0.400791 8.72727 0.262052 8.78474 0.15976 8.88703C0.0574673 8.98933 0 9.12806 0 9.27273V13.0909C0.000606437 13.6694 0.230671 14.224 0.63971 14.633C1.04875 15.0421 1.60335 15.2721 2.18182 15.2727H21.8182C22.3967 15.2721 22.9513 15.0421 23.3603 14.633C23.7693 14.224 23.9994 13.6694 24 13.0909V9.27273C24 9.12806 23.9425 8.98933 23.8402 8.88703C23.7379 8.78474 23.5992 8.72727 23.4545 8.72727H22.0909C21.7292 8.72727 21.3824 8.5836 21.1267 8.32787C20.8709 8.07214 20.7273 7.7253 20.7273 7.36364C20.7273 7.00198 20.8709 6.65513 21.1267 6.3994C21.3824 6.14367 21.7292 6 22.0909 6ZM22.0909 9.81818H22.9091V13.0909C22.9088 13.3801 22.7937 13.6574 22.5892 13.8619C22.3847 14.0664 22.1074 14.1815 21.8182 14.1818H2.18182C1.89259 14.1815 1.61531 14.0664 1.4108 13.8619C1.20628 13.6574 1.09124 13.3801 1.09091 13.0909V9.81818H1.90909C2.56008 9.81818 3.1844 9.55958 3.64472 9.09926C4.10503 8.63895 4.36364 8.01462 4.36364 7.36364C4.36364 6.71265 4.10503 6.08833 3.64472 5.62801C3.1844 5.16769 2.56008 4.90909 1.90909 4.90909H1.09091V2.18182C1.09124 1.89259 1.20628 1.61531 1.4108 1.4108C1.61531 1.20628 1.89259 1.09124 2.18182 1.09091H21.8182C22.1074 1.09124 22.3847 1.20628 22.5892 1.4108C22.7937 1.61531 22.9088 1.89259 22.9091 2.18182V4.90909H22.0909C21.4399 4.90909 20.8156 5.16769 20.3553 5.62801C19.895 6.08833 19.6364 6.71265 19.6364 7.36364C19.6364 8.01462 19.895 8.63895 20.3553 9.09926C20.8156 9.55958 21.4399 9.81818 22.0909 9.81818ZM15.0857 5.32216L9.68575 10.7218C9.63543 10.7739 9.57524 10.8155 9.50869 10.8441C9.44215 10.8727 9.37057 10.8877 9.29815 10.8883C9.22572 10.889 9.1539 10.8752 9.08686 10.8477C9.01983 10.8203 8.95893 10.7798 8.90771 10.7286C8.8565 10.6774 8.816 10.6165 8.78857 10.5494C8.76114 10.4824 8.74734 10.4106 8.74797 10.3382C8.7486 10.2657 8.76365 10.1942 8.79224 10.1276C8.82082 10.0611 8.86238 10.0009 8.91447 9.95056L14.3145 4.55089C14.3648 4.49879 14.425 4.45724 14.4915 4.42865C14.5581 4.40007 14.6296 4.38502 14.7021 4.38439C14.7745 4.38376 14.8463 4.39756 14.9134 4.42499C14.9804 4.45241 15.0413 4.49292 15.0925 4.54413C15.1437 4.59535 15.1842 4.65625 15.2116 4.72328C15.2391 4.79031 15.2529 4.86214 15.2522 4.93456C15.2516 5.00699 15.2366 5.07856 15.208 5.14511C15.1794 5.21166 15.1378 5.27185 15.0857 5.32216ZM11.4545 4.90909C11.4545 4.58545 11.3586 4.26908 11.1788 3.99998C10.999 3.73088 10.7434 3.52114 10.4444 3.39729C10.1454 3.27344 9.81637 3.24103 9.49894 3.30417C9.18152 3.36731 8.88995 3.52316 8.6611 3.75201C8.43225 3.98086 8.2764 4.27243 8.21326 4.58985C8.15012 4.90728 8.18253 5.23629 8.30638 5.5353C8.43023 5.83431 8.63997 6.08987 8.90907 6.26968C9.17817 6.44948 9.49454 6.54545 9.81818 6.54545C10.252 6.54498 10.668 6.37242 10.9747 6.06565C11.2815 5.75887 11.4541 5.34294 11.4545 4.90909ZM9.27273 4.90909C9.27273 4.80121 9.30472 4.69575 9.36465 4.60605C9.42459 4.51635 9.50978 4.44644 9.60945 4.40516C9.70912 4.36387 9.81879 4.35307 9.9246 4.37412C10.0304 4.39516 10.1276 4.44711 10.2039 4.5234C10.2802 4.59968 10.3321 4.69687 10.3532 4.80268C10.3742 4.90849 10.3634 5.01816 10.3221 5.11783C10.2808 5.2175 10.2109 5.30269 10.1212 5.36262C10.0315 5.42256 9.92606 5.45455 9.81818 5.45455C9.67356 5.45442 9.53489 5.39691 9.43263 5.29464C9.33037 5.19238 9.27286 5.05371 9.27273 4.90909ZM14.1818 8.72727C13.8582 8.72727 13.5418 8.82324 13.2727 9.00305C13.0036 9.18286 12.7939 9.43842 12.67 9.73743C12.5462 10.0364 12.5138 10.3655 12.5769 10.6829C12.64 11.0003 12.7959 11.2919 13.0247 11.5207C13.2536 11.7496 13.5452 11.9054 13.8626 11.9686C14.18 12.0317 14.509 11.9993 14.808 11.8754C15.107 11.7516 15.3626 11.5419 15.5424 11.2728C15.7222 11.0037 15.8182 10.6873 15.8182 10.3636C15.8177 9.92979 15.6452 9.51385 15.3384 9.20708C15.0316 8.9003 14.6157 8.72775 14.1818 8.72727ZM14.1818 10.9091C14.0739 10.9091 13.9685 10.8771 13.8788 10.8172C13.7891 10.7572 13.7192 10.672 13.6779 10.5724C13.6366 10.4727 13.6258 10.363 13.6468 10.2572C13.6679 10.1514 13.7198 10.0542 13.7961 9.97794C13.8724 9.90166 13.9696 9.84971 14.0754 9.82866C14.1812 9.80762 14.2909 9.81842 14.3906 9.8597C14.4902 9.90099 14.5754 9.9709 14.6353 10.0606C14.6953 10.1503 14.7273 10.2558 14.7273 10.3636C14.7271 10.5083 14.6696 10.6469 14.5674 10.7492C14.4651 10.8515 14.3264 10.909 14.1818 10.9091ZM6.54545 2.72727V3.81818C6.54545 3.96285 6.48799 4.10158 6.38569 4.20388C6.2834 4.30617 6.14466 4.36364 6 4.36364C5.85534 4.36364 5.7166 4.30617 5.61431 4.20388C5.51201 4.10158 5.45455 3.96285 5.45455 3.81818V2.72727C5.45455 2.58261 5.51201 2.44387 5.61431 2.34158C5.7166 2.23929 5.85534 2.18182 6 2.18182C6.14466 2.18182 6.2834 2.23929 6.38569 2.34158C6.48799 2.44387 6.54545 2.58261 6.54545 2.72727ZM6.54545 7.09091V8.18182C6.54545 8.32648 6.48799 8.46522 6.38569 8.56751C6.2834 8.66981 6.14466 8.72727 6 8.72727C5.85534 8.72727 5.7166 8.66981 5.61431 8.56751C5.51201 8.46522 5.45455 8.32648 5.45455 8.18182V7.09091C5.45455 6.94625 5.51201 6.80751 5.61431 6.70521C5.7166 6.60292 5.85534 6.54545 6 6.54545C6.14466 6.54545 6.2834 6.60292 6.38569 6.70521C6.48799 6.80751 6.54545 6.94625 6.54545 7.09091ZM6.54545 11.4545V12.5455C6.54545 12.6901 6.48799 12.8289 6.38569 12.9311C6.2834 13.0334 6.14466 13.0909 6 13.0909C5.85534 13.0909 5.7166 13.0334 5.61431 12.9311C5.51201 12.8289 5.45455 12.6901 5.45455 12.5455V11.4545C5.45455 11.3099 5.51201 11.1711 5.61431 11.0689C5.7166 10.9666 5.85534 10.9091 6 10.9091C6.14466 10.9091 6.2834 10.9666 6.38569 11.0689C6.48799 11.1711 6.54545 11.3099 6.54545 11.4545ZM18.5455 2.72727V3.81818C18.5455 3.96285 18.488 4.10158 18.3857 4.20388C18.2834 4.30617 18.1447 4.36364 18 4.36364C17.8553 4.36364 17.7166 4.30617 17.6143 4.20388C17.512 4.10158 17.4545 3.96285 17.4545 3.81818V2.72727C17.4545 2.58261 17.512 2.44387 17.6143 2.34158C17.7166 2.23929 17.8553 2.18182 18 2.18182C18.1447 2.18182 18.2834 2.23929 18.3857 2.34158C18.488 2.44387 18.5455 2.58261 18.5455 2.72727ZM18.5455 7.09091V8.18182C18.5455 8.32648 18.488 8.46522 18.3857 8.56751C18.2834 8.66981 18.1447 8.72727 18 8.72727C17.8553 8.72727 17.7166 8.66981 17.6143 8.56751C17.512 8.46522 17.4545 8.32648 17.4545 8.18182V7.09091C17.4545 6.94625 17.512 6.80751 17.6143 6.70521C17.7166 6.60292 17.8553 6.54545 18 6.54545C18.1447 6.54545 18.2834 6.60292 18.3857 6.70521C18.488 6.80751 18.5455 6.94625 18.5455 7.09091ZM18.5455 11.4545V12.5455C18.5455 12.6901 18.488 12.8289 18.3857 12.9311C18.2834 13.0334 18.1447 13.0909 18 13.0909C17.8553 13.0909 17.7166 13.0334 17.6143 12.9311C17.512 12.8289 17.4545 12.6901 17.4545 12.5455V11.4545C17.4545 11.3099 17.512 11.1711 17.6143 11.0689C17.7166 10.9666 17.8553 10.9091 18 10.9091C18.1447 10.9091 18.2834 10.9666 18.3857 11.0689C18.488 11.1711 18.5455 11.3099 18.5455 11.4545Z" fill="#FFFFFF"/>
</svg>
