<svg width="18" height="18" viewBox="0 0 18 18" fill="none" xmlns="http://www.w3.org/2000/svg">
<path d="M13.68 9C13.68 11.592 11.592 13.68 9 13.68C6.408 13.68 4.32 11.592 4.32 9C4.32 6.408 6.408 4.32 9 4.32C11.592 4.32 13.68 6.408 13.68 9ZM18 9.72H16.164C15.84 13.104 13.104 15.84 9.72 16.164V18H8.28V16.164C4.896 15.84 2.16 13.104 1.836 9.72H0V8.28H1.836C2.16 4.896 4.896 2.16 8.28 1.836V0H9.72V1.836C13.104 2.16 15.84 4.896 16.164 8.28H18V9.72ZM14.76 9C14.76 5.832 12.168 3.24 9 3.24C5.832 3.24 3.24 5.832 3.24 9C3.24 12.168 5.832 14.76 9 14.76C12.168 14.76 14.76 12.168 14.76 9Z" fill="#A1A4A8"/>
</svg>
