<svg width="54" height="67" viewBox="0 0 54 67" fill="none" xmlns="http://www.w3.org/2000/svg">
<path d="M28.9204 53.9328C42.9359 52.9478 54 41.266 54 27C54 12.0883 41.9117 0 27 0C12.0883 0 0 12.0883 0 27C0 41.266 11.0641 52.9478 25.0795 53.9328L26.7308 56.8413C26.7574 56.8894 26.7964 56.9295 26.8437 56.9574C26.8911 56.9853 26.945 57 27 57C27.0549 57 27.1089 56.9853 27.1562 56.9574C27.2036 56.9295 27.2426 56.8894 27.2692 56.8413L28.9204 53.9328Z" fill="#CC0000"/>
<circle cx="27" cy="63" r="4" fill="#CC0000"/>
<circle cx="27" cy="28" r="8" fill="white"/>
</svg>
