<svg width="14" height="16" viewBox="0 0 14 16" fill="none" xmlns="http://www.w3.org/2000/svg">
<path d="M13.2826 4.1494C13.2734 4.12911 13.263 4.10934 13.2516 4.0902C13.2457 4.08294 13.2391 4.07632 13.2319 4.07047C13.2219 4.05456 13.2095 4.04029 13.1952 4.02819L9.074 0.109937C9.03692 0.0753496 8.99396 0.0476653 8.94715 0.0281889C8.89944 0.00990269 8.84883 0.00035407 8.79774 0H2.11417C1.55345 0 1.01571 0.222742 0.619225 0.619225C0.222742 1.01571 0 1.55345 0 2.11417V13.8858C0 14.4465 0.222742 14.9843 0.619225 15.3808C1.01571 15.7773 1.55345 16 2.11417 16H11.2023C11.763 16 12.3007 15.7773 12.6972 15.3808C13.0937 14.9843 13.3164 14.4465 13.3164 13.8858V4.31572C13.3169 4.25852 13.3054 4.20186 13.2826 4.1494ZM9.19521 1.40944L11.8196 3.89288H9.19521V1.40944ZM11.191 15.1543H2.11417C1.77797 15.1536 1.45575 15.0197 1.21802 14.782C0.980295 14.5442 0.846411 14.222 0.845666 13.8858V2.1198C0.846411 1.7836 0.980295 1.46139 1.21802 1.22366C1.45575 0.985933 1.77797 0.852048 2.11417 0.851304H8.34954V4.31572C8.34954 4.42786 8.39409 4.53541 8.47339 4.6147C8.55268 4.694 8.66023 4.73855 8.77238 4.73855H12.4708V13.8858C12.47 14.222 12.3361 14.5442 12.0984 14.782C11.8607 15.0197 11.5385 15.1536 11.2023 15.1543H11.191ZM10.6047 9.92812C10.6047 10.0403 10.5601 10.1478 10.4808 10.2271C10.4015 10.3064 10.294 10.351 10.1818 10.351H3.14306C3.03092 10.351 2.92337 10.3064 2.84407 10.2271C2.76477 10.1478 2.72023 10.0403 2.72023 9.92812C2.72023 9.81598 2.76477 9.70843 2.84407 9.62913C2.92337 9.54983 3.03092 9.50529 3.14306 9.50529H10.1734C10.2296 9.50416 10.2855 9.51427 10.3378 9.53501C10.3901 9.55576 10.4377 9.58672 10.4778 9.6261C10.518 9.66548 10.5499 9.71247 10.5717 9.76433C10.5935 9.81619 10.6047 9.87187 10.6047 9.92812ZM10.6047 12.4087C10.6047 12.5209 10.5601 12.6284 10.4808 12.7077C10.4015 12.787 10.294 12.8316 10.1818 12.8316H3.14306C3.03092 12.8316 2.92337 12.787 2.84407 12.7077C2.76477 12.6284 2.72023 12.5209 2.72023 12.4087C2.72023 12.2966 2.76477 12.189 2.84407 12.1098C2.92337 12.0305 3.03092 11.9859 3.14306 11.9859H10.1734C10.2296 11.9848 10.2855 11.9949 10.3378 12.0156C10.3901 12.0364 10.4377 12.0673 10.4778 12.1067C10.518 12.1461 10.5499 12.1931 10.5717 12.245C10.5935 12.2968 10.6047 12.3525 10.6047 12.4087Z" fill="#53555B"/>
</svg>
