<svg width="32" height="32" viewBox="0 0 32 32" fill="none" xmlns="http://www.w3.org/2000/svg">
<path d="M5.77903 26.864L5.00351 27.8948C4.49151 28.5754 3.46751 27.8098 3.97951 27.1292L5.11997 25.6134V25.588H5.13903L7.81951 22.0252C8.33151 21.3447 9.35551 22.1103 8.84351 22.7908L6.73903 25.588H25.28L23.168 22.7809C22.9559 22.499 23.0132 22.0991 23.296 21.8876C23.5788 21.6762 23.9799 21.7334 24.192 22.0152L28.032 27.1193C28.2441 27.4011 28.1868 27.801 27.904 28.0125C27.6212 28.2239 27.2201 28.1667 27.008 27.8849L26.24 26.864H5.77903Z" fill="#57A4B9"/>
<path d="M10.4902 3.84006C8.74809 3.84006 7.31042 5.15034 7.19559 6.82832L6.40723 18.3483C6.40241 18.4188 6.4 18.4894 6.4 18.5601C6.4 20.3236 7.87457 21.7601 9.70179 21.7601H22.298C22.3717 21.7601 22.4453 21.7577 22.5188 21.7529C24.341 21.6346 25.713 20.1071 25.5926 18.3483L24.8042 6.82832C24.6894 5.15034 23.2518 3.84006 21.5097 3.84006H10.4902ZM10.4902 2.56006H21.5097C23.9181 2.56006 25.92 4.38463 26.0813 6.74093L26.8696 18.2609C27.0389 20.7343 25.1238 22.8664 22.6017 23.0302C22.5006 23.0368 22.3994 23.0401 22.298 23.0401H9.70179C7.17503 23.0401 5.12 21.0381 5.12 18.5601C5.12 18.4603 5.12341 18.3605 5.13022 18.2609L5.91858 6.74093C6.07983 4.38463 8.08179 2.56006 10.4902 2.56006Z" fill="#57A4B9"/>
<path d="M10.6882 7.68002L10.2915 12.8H21.7081L21.3085 7.68002H10.6882ZM10.0958 6.40002H21.9005C22.2346 6.40002 22.5125 6.65709 22.5385 6.99022L23.0381 13.3902C23.0671 13.7622 22.7731 14.08 22.4 14.08H9.6C9.22705 14.08 8.9331 13.7624 8.96191 13.3906L9.45773 6.99059C9.48355 6.6573 9.76153 6.40002 10.0958 6.40002Z" fill="#57A4B9"/>
<path d="M9.59996 19.2H11.9415C12.295 19.2 12.5815 18.9135 12.5815 18.56C12.5815 18.2066 12.295 17.92 11.9415 17.92H9.59996C9.2465 17.92 8.95996 18.2066 8.95996 18.56C8.95996 18.9135 9.2465 19.2 9.59996 19.2Z" fill="#57A4B9"/>
<path d="M19.84 19.2H22.1815C22.535 19.2 22.8215 18.9135 22.8215 18.56C22.8215 18.2066 22.535 17.92 22.1815 17.92H19.84C19.4865 17.92 19.2 18.2066 19.2 18.56C19.2 18.9135 19.4865 19.2 19.84 19.2Z" fill="#57A4B9"/>
</svg>
