<svg width="23" height="16" viewBox="0 0 23 16" fill="none" xmlns="http://www.w3.org/2000/svg">
<path d="M22.5551 1.14316L15.6538 8L22.5551 14.8568C22.6799 14.5961 22.7555 14.3078 22.7555 14V2C22.7555 1.69214 22.6799 1.40391 22.5551 1.14316Z" fill="#CC0000"/>
<path d="M20.7556 0H2.00003C1.69217 0 1.40394 0.075689 1.14319 0.200445L9.96377 8.97658C10.7437 9.75649 12.0119 9.75649 12.7919 8.97658L21.6124 0.200445C21.3517 0.075689 21.0635 0 20.7556 0Z" fill="#CC0000"/>
<path d="M0.200444 1.14316C0.0756889 1.40391 0 1.69214 0 2V14C0 14.3079 0.0756889 14.5961 0.200444 14.8568L7.10173 8L0.200444 1.14316Z" fill="#CC0000"/>
<path d="M14.7111 8.94272L13.7346 9.9193C12.4351 11.2188 10.3205 11.2188 9.02101 9.9193L8.04448 8.94272L1.14319 15.7996C1.40394 15.9243 1.69217 16 2.00003 16H20.7556C21.0635 16 21.3517 15.9243 21.6124 15.7996L14.7111 8.94272Z" fill="#CC0000"/>
</svg>
