<svg width="137" height="144" viewBox="0 0 137 144" fill="none" xmlns="http://www.w3.org/2000/svg">
<path opacity="0.25" d="M133.515 125.948C133.086 126.725 132.614 127.491 132.099 128.244C132.002 128.387 131.903 128.529 131.802 128.669C131.76 128.731 131.715 128.791 131.671 128.851C131.608 128.936 131.55 129.018 131.489 129.101C131.442 129.164 131.393 129.226 131.345 129.292C131.289 129.367 131.231 129.443 131.172 129.518C131.074 129.643 130.976 129.771 130.875 129.896L130.688 130.128C130.652 130.17 130.618 130.212 130.584 130.253C130.296 130.598 130.004 130.934 129.703 131.26C129.641 131.332 129.572 131.404 129.506 131.473C129.44 131.543 129.381 131.606 129.319 131.673C129.256 131.739 129.177 131.819 129.106 131.891C129.008 131.993 128.908 132.093 128.808 132.192C128.776 132.224 128.746 132.255 128.71 132.289L128.517 132.476L128.506 132.485C128.405 132.583 128.303 132.679 128.199 132.775L128.157 132.814C127.966 132.992 127.773 133.167 127.577 133.339C127.565 133.35 127.551 133.36 127.539 133.373C127.342 133.545 127.143 133.715 126.942 133.881C126.853 133.954 126.766 134.026 126.676 134.098L126.618 134.144C126.415 134.307 126.209 134.468 126.003 134.625C125.931 134.68 125.861 134.731 125.789 134.786C125.731 134.829 125.674 134.873 125.616 134.914C125.508 134.994 125.399 135.072 125.29 135.15C125.195 135.219 125.099 135.286 125.001 135.354C124.964 135.38 124.924 135.407 124.887 135.432C124.807 135.488 124.726 135.543 124.646 135.598C124.618 135.616 124.591 135.635 124.563 135.653C124.455 135.725 124.347 135.797 124.239 135.868C124.13 135.939 124.021 136.009 123.911 136.079C123.801 136.149 123.69 136.219 123.578 136.287C123.383 136.407 123.186 136.526 122.988 136.644C122.878 136.706 122.768 136.774 122.656 136.836C122.64 136.846 122.624 136.856 122.608 136.864C122.483 136.936 122.358 137.007 122.233 137.077L122.02 137.194L121.962 137.226C121.894 137.263 121.826 137.3 121.756 137.337C121.652 137.393 121.545 137.45 121.439 137.505C121.345 137.554 121.252 137.603 121.157 137.651L120.953 137.755L120.843 137.809C120.655 137.903 120.468 137.997 120.281 138.085C120.213 138.117 120.145 138.151 120.076 138.183L120.051 138.195C119.918 138.257 119.785 138.32 119.652 138.382C119.634 138.39 119.617 138.398 119.6 138.405C119.483 138.459 119.365 138.511 119.249 138.563C119.072 138.642 118.894 138.721 118.715 138.796C118.564 138.859 118.413 138.925 118.261 138.987C118.108 139.05 117.969 139.107 117.823 139.165C117.807 139.173 117.79 139.18 117.773 139.185C117.645 139.237 117.515 139.288 117.385 139.339C117.364 139.348 117.342 139.355 117.323 139.363C117.177 139.42 117.031 139.477 116.886 139.53C116.77 139.575 116.653 139.618 116.537 139.66C116.334 139.736 116.13 139.808 115.925 139.879C115.778 139.931 115.631 139.982 115.482 140.033C115.349 140.079 115.213 140.124 115.08 140.169C114.969 140.205 114.858 140.242 114.747 140.278C114.635 140.314 114.508 140.354 114.387 140.393C114.364 140.401 114.342 140.407 114.319 140.414C114.201 140.452 114.084 140.488 113.965 140.525C113.551 140.653 113.135 140.776 112.715 140.894L112.311 141.007C112.186 141.041 112.061 141.076 111.936 141.108C111.757 141.158 111.575 141.205 111.394 141.253L111.06 141.338C110.634 141.448 110.206 141.553 109.776 141.651L109.487 141.719C109.274 141.768 109.061 141.817 108.846 141.864C108.742 141.888 108.638 141.911 108.534 141.933C108.391 141.965 108.251 141.996 108.109 142.026C107.537 142.15 106.962 142.267 106.386 142.375L106.003 142.45C105.567 142.533 105.129 142.613 104.691 142.689C101.996 143.166 99.2758 143.511 96.5317 143.724C95.5215 143.804 94.5101 143.866 93.4974 143.912C74.4057 144.755 54.7175 139.49 38.3678 129.55C38.1873 129.44 38.0062 129.33 37.8263 129.218L37.4434 128.98C37.0495 128.734 36.6578 128.486 36.2685 128.235L35.9318 128.016C35.7976 127.93 35.6645 127.842 35.5302 127.755C35.1834 127.527 34.8386 127.298 34.4959 127.067C34.3441 126.964 34.1917 126.862 34.0412 126.755C33.9981 126.726 33.9543 126.696 33.9125 126.666C33.7551 126.56 33.6002 126.45 33.4428 126.342C33.4304 126.334 33.4185 126.326 33.4072 126.317C33.2361 126.198 33.0655 126.077 32.895 125.958C32.3404 125.565 31.7911 125.167 31.2473 124.764C31.1567 124.698 31.0674 124.63 30.9775 124.562C30.8582 124.475 30.7401 124.385 30.6208 124.295L30.5977 124.277C30.5446 124.238 30.4903 124.198 30.4372 124.156C30.2767 124.036 30.1168 123.913 29.9562 123.79C29.5544 123.48 29.1547 123.168 28.757 122.853C28.6096 122.736 28.4622 122.617 28.316 122.499C28.2817 122.472 28.2473 122.444 28.2117 122.416L27.8563 122.126C27.7814 122.066 27.706 122.003 27.6302 121.939C27.5053 121.838 27.3804 121.735 27.2554 121.632L26.7614 121.217C26.5353 121.026 26.3098 120.833 26.0849 120.639C25.9556 120.527 25.8251 120.414 25.6952 120.301C25.6764 120.284 25.6571 120.268 25.6383 120.251C25.5871 120.207 25.5372 120.162 25.4859 120.117C25.3554 120.003 25.2236 119.887 25.0931 119.77C25.0599 119.741 25.0262 119.711 24.9925 119.681C24.837 119.543 24.6802 119.403 24.5284 119.264C24.5247 119.264 24.5222 119.257 24.5184 119.254C24.1399 118.912 23.7651 118.566 23.3941 118.217C23.273 118.103 23.1518 117.988 23.0306 117.872C22.9775 117.823 22.9232 117.771 22.8701 117.72C22.7989 117.653 22.7279 117.585 22.6571 117.516C22.4928 117.359 22.3304 117.204 22.1674 117.043C21.98 116.861 21.797 116.677 21.6115 116.494C21.4449 116.327 21.2784 116.16 21.1118 115.994L21.01 115.891C20.8638 115.743 20.7181 115.594 20.5728 115.444C20.5309 115.401 20.4897 115.359 20.4479 115.319C20.3229 115.189 20.198 115.058 20.0731 114.926C20.0394 114.891 20.0056 114.857 19.9732 114.821C19.8482 114.693 19.7302 114.565 19.609 114.435C19.5715 114.397 19.5341 114.356 19.4972 114.316L19.4091 114.222C19.2424 114.043 19.0775 113.863 18.9095 113.683C15.7753 110.263 12.9582 106.565 10.4929 102.636C10.0136 101.87 9.5489 101.095 9.09877 100.312C9.05005 100.229 9.00133 100.145 8.95511 100.062C8.6199 99.4732 8.29324 98.8792 7.97511 98.28C5.78402 94.1688 4.02208 89.8428 2.71717 85.3707C0.110063 76.4119 -0.838712 66.8305 0.837106 57.7169C1.794 52.5045 3.61223 47.444 6.46918 42.7394C12.3523 33.0537 22.0975 25.5578 33.2729 22.3011C43.2666 19.3898 54.1347 19.8489 64.1547 22.6408C73.7037 25.301 82.6811 30.108 89.5761 36.9793C96.4968 43.8756 99.5542 51.5951 101.986 60.6519C104.304 69.2714 110.412 74.5444 117.924 79.3026C125.794 84.2913 132.107 92.3569 135.101 101.226C137.849 109.381 137.783 118.221 133.515 125.948Z" fill="#FFDCDC"/>
<path opacity="0.25" d="M133.515 125.947C133.086 126.725 132.614 127.49 132.099 128.244C132.002 128.386 131.902 128.529 131.802 128.669C131.759 128.731 131.715 128.791 131.671 128.851C131.608 128.935 131.549 129.017 131.489 129.101C131.441 129.163 131.393 129.226 131.345 129.292C131.288 129.367 131.231 129.443 131.172 129.518C131.074 129.642 130.975 129.771 130.875 129.896L130.687 130.128C130.652 130.17 130.617 130.211 130.584 130.253C130.296 130.598 130.004 130.934 129.703 131.26C129.641 131.332 129.572 131.403 129.506 131.473C129.439 131.543 129.381 131.606 129.318 131.672C129.256 131.739 129.177 131.819 129.106 131.891C129.007 131.993 128.907 132.093 128.808 132.192C128.776 132.224 128.746 132.255 128.71 132.288L128.516 132.476L128.506 132.484C128.405 132.582 128.302 132.679 128.199 132.775L128.157 132.814C127.966 132.992 127.773 133.166 127.577 133.338C127.564 133.35 127.551 133.36 127.539 133.373C127.342 133.545 127.143 133.714 126.942 133.881C126.853 133.954 126.766 134.026 126.676 134.098L126.618 134.144C126.415 134.307 126.209 134.468 126.002 134.625C125.931 134.679 125.86 134.731 125.789 134.785C125.731 134.829 125.674 134.872 125.616 134.914C125.508 134.994 125.398 135.072 125.29 135.15C125.195 135.219 125.098 135.286 125 135.354C124.964 135.38 124.924 135.406 124.887 135.432C124.807 135.488 124.726 135.543 124.646 135.598C124.618 135.616 124.591 135.634 124.563 135.653C124.454 135.725 124.347 135.797 124.238 135.868C124.13 135.939 124.021 136.008 123.911 136.078C123.801 136.148 123.69 136.218 123.578 136.286C123.382 136.407 123.186 136.526 122.987 136.644C122.877 136.706 122.767 136.774 122.656 136.836C122.64 136.846 122.624 136.855 122.608 136.864C122.483 136.935 122.358 137.007 122.233 137.077L122.02 137.194L121.962 137.226C121.894 137.263 121.826 137.3 121.756 137.336C121.651 137.393 121.545 137.45 121.439 137.504C121.345 137.554 121.252 137.603 121.157 137.651L120.952 137.754L120.842 137.809C120.655 137.903 120.468 137.997 120.28 138.085C120.213 138.117 120.145 138.151 120.075 138.183L120.051 138.195C119.918 138.257 119.785 138.319 119.651 138.382C119.634 138.389 119.617 138.398 119.6 138.405C119.483 138.459 119.365 138.511 119.249 138.563C119.072 138.642 118.894 138.72 118.715 138.796C118.564 138.859 118.413 138.925 118.26 138.987C118.108 139.05 117.969 139.107 117.823 139.165C117.807 139.173 117.79 139.18 117.773 139.185C117.644 139.236 117.515 139.287 117.385 139.338C117.364 139.348 117.342 139.355 117.323 139.363C117.177 139.42 117.031 139.476 116.886 139.53C116.769 139.575 116.653 139.618 116.536 139.66C116.334 139.735 116.13 139.808 115.925 139.879C115.777 139.931 115.631 139.982 115.482 140.033C115.348 140.079 115.213 140.124 115.08 140.168C114.969 140.205 114.858 140.242 114.746 140.278C114.634 140.313 114.508 140.354 114.387 140.393C114.364 140.401 114.341 140.407 114.319 140.414C114.201 140.452 114.084 140.488 113.964 140.524C113.551 140.653 113.135 140.776 112.715 140.893L112.311 141.007C112.186 141.041 112.061 141.075 111.936 141.108C111.756 141.158 111.575 141.205 111.393 141.253L111.06 141.338C110.634 141.448 110.206 141.552 109.776 141.651L109.486 141.719C109.274 141.768 109.061 141.816 108.846 141.864C108.742 141.887 108.638 141.911 108.534 141.933C108.391 141.965 108.25 141.995 108.109 142.025C107.536 142.15 106.962 142.267 106.385 142.375L106.002 142.449C105.566 142.533 105.129 142.612 104.691 142.689C101.995 143.166 99.2756 143.511 96.5315 143.724C95.5213 143.803 94.5098 143.866 93.4972 143.912C74.4054 144.755 54.7172 139.489 38.3675 129.549C38.187 129.439 38.0059 129.33 37.826 129.218L37.4431 128.98C37.0492 128.734 36.6576 128.485 36.2682 128.235L35.9316 128.016C35.7973 127.93 35.6642 127.842 35.53 127.754C35.1831 127.527 34.8383 127.298 34.4956 127.067C34.9183 126.776 35.3426 126.487 35.7686 126.2C40.6798 122.895 45.7954 119.887 51.0776 117.268C51.2988 117.16 51.5193 117.051 51.741 116.943C56.2038 114.757 60.8074 112.87 65.521 111.297C74.7758 108.226 84.3954 106.487 94.1986 106.537C102.081 106.575 109.986 107.759 117.819 106.881C123.889 106.2 129.796 104.232 135.104 101.213C137.849 109.381 137.783 118.22 133.515 125.947Z" fill="#FFDCDC"/>
<path opacity="0.8" d="M129.105 131.889C129.006 131.991 128.906 132.091 128.807 132.19C128.775 132.222 128.745 132.253 128.709 132.287L128.515 132.474L128.505 132.483C128.404 132.58 128.301 132.677 128.198 132.773L128.156 132.812C127.965 132.99 127.772 133.164 127.576 133.336C127.563 133.348 127.55 133.358 127.538 133.371C127.341 133.543 127.142 133.713 126.941 133.879C126.852 133.952 126.765 134.024 126.675 134.096L126.617 134.142C126.414 134.305 126.208 134.466 126.001 134.623C125.93 134.677 125.86 134.729 125.788 134.784C125.73 134.827 125.673 134.871 125.615 134.912C125.507 134.992 125.397 135.07 125.289 135.148C125.194 135.217 125.097 135.284 124.999 135.352C124.963 135.378 124.923 135.405 124.886 135.43C124.806 135.486 124.725 135.541 124.645 135.596C124.617 135.614 124.59 135.633 124.562 135.651C124.454 135.723 124.346 135.795 124.237 135.866C124.129 135.937 124.02 136.007 123.91 136.077C123.8 136.147 123.689 136.217 123.577 136.285C123.381 136.405 123.185 136.524 122.986 136.642C122.876 136.704 122.766 136.772 122.655 136.834C122.639 136.844 122.623 136.854 122.607 136.862C122.482 136.934 122.357 137.005 122.232 137.075L122.019 137.192L121.961 137.224C121.893 137.261 121.825 137.298 121.755 137.335C121.65 137.391 121.544 137.448 121.438 137.503C121.344 137.552 121.251 137.601 121.156 137.649L120.951 137.752L120.841 137.807C120.654 137.901 120.467 137.995 120.279 138.083C120.212 138.115 120.144 138.149 120.074 138.181L120.05 138.193C119.917 138.255 119.784 138.318 119.65 138.38C119.633 138.388 119.616 138.396 119.599 138.403C119.482 138.457 119.364 138.509 119.248 138.561C119.071 138.64 118.893 138.719 118.714 138.794C118.563 138.857 118.412 138.923 118.259 138.985C118.107 139.048 117.968 139.105 117.822 139.163C117.806 139.171 117.789 139.178 117.772 139.183C117.643 139.235 117.514 139.286 117.384 139.336C117.363 139.346 117.341 139.353 117.322 139.361C117.176 139.418 117.03 139.474 116.885 139.528C116.768 139.573 116.652 139.616 116.535 139.658C116.333 139.733 116.129 139.806 115.924 139.877C115.776 139.929 115.63 139.98 115.481 140.031C115.347 140.077 115.212 140.122 115.079 140.167C114.968 140.203 114.857 140.24 114.745 140.276C114.633 140.311 114.507 140.352 114.386 140.391C114.363 140.399 114.341 140.405 114.318 140.412C114.2 140.45 114.083 140.486 113.963 140.523C113.55 140.651 113.134 140.774 112.714 140.892L112.31 141.005C112.185 141.039 112.06 141.073 111.935 141.106C111.755 141.156 111.574 141.203 111.392 141.251L111.059 141.336C110.633 141.446 110.205 141.55 109.775 141.649L109.485 141.717C109.273 141.766 109.06 141.814 108.845 141.862C108.741 141.885 108.637 141.909 108.533 141.931C108.39 141.963 108.249 141.994 108.108 142.023C107.535 142.148 106.961 142.265 106.384 142.373L106.001 142.448C105.565 142.531 105.128 142.611 104.69 142.687C101.994 143.164 99.2746 143.509 96.5305 143.722C95.5203 143.802 94.5089 143.864 93.4962 143.91C74.4045 144.753 54.7162 139.488 38.3666 129.548C38.186 129.438 38.0049 129.328 37.825 129.216L37.4421 128.978C37.0482 128.732 36.6566 128.483 36.2673 128.233L35.9306 128.014C35.7963 127.928 35.6633 127.84 35.529 127.752C35.1821 127.525 34.8373 127.296 34.4946 127.065C34.3428 126.962 34.1904 126.86 34.0399 126.753C33.9968 126.724 33.9531 126.694 33.9112 126.664C33.7538 126.558 33.5989 126.448 33.4415 126.34C33.4291 126.332 33.4172 126.324 33.4059 126.315C33.2348 126.196 33.0643 126.075 32.8938 125.956C32.3391 125.563 31.7899 125.165 31.246 124.762C31.1555 124.696 31.0662 124.628 30.9762 124.56C30.8569 124.473 30.7389 124.383 30.6196 124.293L30.5965 124.275C30.5434 124.236 30.489 124.196 30.4359 124.154C30.2754 124.034 30.1155 123.911 29.955 123.788C29.5532 123.478 29.1534 123.166 28.7557 122.851C28.6083 122.734 28.4609 122.615 28.3148 122.497C28.2804 122.47 28.2461 122.441 28.2105 122.414L27.8551 122.124C27.7801 122.064 27.7047 122.001 27.629 121.937C27.504 121.836 27.3791 121.733 27.2542 121.629L26.7601 121.215C26.534 121.024 26.3085 120.831 26.0837 120.637C25.9544 120.525 25.8238 120.412 25.6939 120.298C25.6752 120.282 25.6558 120.266 25.6371 120.248C25.5859 120.205 25.5359 120.16 25.4847 120.115C25.3541 120.001 25.2223 119.885 25.0918 119.768C25.0587 119.739 25.025 119.709 24.9912 119.679C24.8357 119.541 24.6789 119.401 24.5272 119.262C24.5234 119.262 24.5209 119.255 24.5172 119.252C24.1386 118.91 23.7639 118.564 23.3929 118.215C23.2717 118.101 23.1505 117.986 23.0294 117.87C22.9763 117.821 22.9219 117.769 22.8688 117.718C22.7976 117.651 22.7266 117.583 22.6558 117.514C22.4916 117.357 22.3292 117.202 22.1661 117.04C21.9788 116.859 21.7958 116.675 21.6102 116.491C21.4437 116.325 21.2771 116.158 21.1106 115.992L21.0088 115.889C20.8626 115.741 20.7169 115.592 20.5715 115.442C20.5297 115.399 20.4885 115.357 20.4466 115.317C20.3217 115.187 20.1968 115.056 20.0718 114.924C20.0381 114.889 20.0044 114.855 19.9719 114.819C19.847 114.691 19.7289 114.563 19.6078 114.433C19.5703 114.395 19.5328 114.354 19.496 114.314L19.4079 114.22C19.2411 114.041 19.0762 113.861 18.9082 113.681C19.1647 113.548 19.4231 113.419 19.6833 113.292C19.8083 113.229 19.9394 113.167 20.0681 113.104C20.5474 112.876 21.0302 112.656 21.5166 112.445C21.6627 112.382 21.8101 112.32 21.9575 112.257C24.0316 111.385 26.1645 110.661 28.3404 110.089C28.9829 109.918 29.63 109.76 30.2817 109.615C30.4416 109.578 30.6021 109.543 30.7632 109.509C31.2966 109.395 31.8321 109.289 32.3697 109.19C33.5402 108.975 34.7201 108.796 35.9094 108.655C39.9849 108.169 44.1479 108.096 48.3053 108.365C48.5614 108.38 48.8168 108.398 49.0736 108.418C54.0236 108.786 58.9567 109.631 63.7112 110.829C64.3133 110.98 64.914 111.137 65.5132 111.298C73.3245 113.403 80.8785 116.308 88.3913 119.352C91.0421 120.426 93.6873 121.516 96.3369 122.599C97.253 122.974 98.1676 123.345 99.0808 123.713C100.05 124.101 101.02 124.488 101.991 124.872H101.995C102.233 124.966 102.466 125.059 102.703 125.151C105.348 126.188 108.005 127.19 110.683 128.127C111.043 128.252 111.4 128.377 111.758 128.502C113.187 128.992 114.625 129.465 116.076 129.893C119.4 130.875 122.786 131.627 126.237 131.839C127.193 131.892 128.149 131.908 129.105 131.889Z" fill="#FFDCDC"/>
<path d="M133.515 125.947C133.087 126.724 132.615 127.489 132.1 128.242C132.002 128.385 131.903 128.527 131.802 128.667C131.759 128.729 131.715 128.792 131.671 128.849C131.608 128.933 131.55 129.015 131.488 129.099C131.441 129.162 131.394 129.224 131.345 129.29C131.289 129.366 131.231 129.441 131.172 129.516C131.074 129.643 130.975 129.769 130.875 129.894L130.688 130.126C130.653 130.168 130.619 130.21 130.585 130.251C130.297 130.596 130.004 130.931 129.704 131.258C129.638 131.33 129.572 131.401 129.507 131.471C129.444 131.538 129.382 131.604 129.319 131.671C129.257 131.737 129.178 131.817 129.107 131.89C129.008 131.991 128.908 132.091 128.809 132.191L128.713 132.287L128.517 132.474C128.513 132.477 128.51 132.48 128.507 132.483C128.405 132.581 128.303 132.677 128.201 132.774C128.186 132.786 128.172 132.8 128.158 132.813C127.967 132.99 127.774 133.165 127.578 133.337C127.565 133.348 127.552 133.36 127.539 133.371C127.342 133.544 127.142 133.714 126.941 133.88L126.677 134.096L126.618 134.143C126.415 134.306 126.21 134.467 126.003 134.624L125.789 134.784C125.731 134.827 125.674 134.87 125.616 134.913C125.508 134.993 125.399 135.071 125.291 135.148C125.194 135.218 125.098 135.285 125.001 135.352L124.887 135.431C124.807 135.487 124.727 135.542 124.645 135.597C124.618 135.614 124.59 135.634 124.563 135.651C124.455 135.723 124.347 135.795 124.239 135.866C124.13 135.937 124.021 136.007 123.911 136.076C123.801 136.145 123.69 136.216 123.579 136.285C123.383 136.406 123.186 136.525 122.988 136.642C122.878 136.707 122.768 136.771 122.657 136.834C122.64 136.844 122.624 136.854 122.608 136.862C122.483 136.934 122.358 137.005 122.233 137.074C122.162 137.113 122.091 137.153 122.019 137.192C122 137.203 121.981 137.213 121.961 137.223C121.893 137.261 121.825 137.298 121.756 137.335C121.651 137.391 121.545 137.448 121.439 137.503C121.344 137.552 121.251 137.601 121.156 137.648L120.953 137.752L120.842 137.807C120.656 137.901 120.468 137.993 120.28 138.083C120.212 138.115 120.143 138.149 120.074 138.181L120.05 138.193L119.65 138.38C119.633 138.387 119.616 138.395 119.599 138.403C119.482 138.456 119.364 138.508 119.247 138.561C119.071 138.639 118.893 138.718 118.714 138.793C118.563 138.855 118.412 138.922 118.259 138.985C118.106 139.048 117.968 139.105 117.822 139.163C117.805 139.171 117.789 139.177 117.772 139.183C117.643 139.235 117.514 139.286 117.385 139.336C117.363 139.345 117.342 139.353 117.322 139.361C117.177 139.418 117.031 139.473 116.885 139.528C116.769 139.573 116.652 139.616 116.535 139.657C116.333 139.733 116.129 139.806 115.925 139.877C115.777 139.929 115.63 139.98 115.482 140.03L115.079 140.166C114.969 140.203 114.857 140.24 114.746 140.275C114.635 140.31 114.507 140.352 114.387 140.389C114.364 140.398 114.342 140.405 114.319 140.411C114.201 140.449 114.083 140.486 113.964 140.522C113.551 140.649 113.134 140.772 112.715 140.891L112.309 141.004C112.184 141.038 112.059 141.073 111.935 141.106C111.754 141.155 111.574 141.203 111.392 141.25C111.282 141.28 111.17 141.308 111.058 141.336C110.632 141.446 110.205 141.55 109.774 141.648L109.485 141.716C109.273 141.765 109.059 141.813 108.845 141.861C108.741 141.884 108.635 141.908 108.533 141.93C108.391 141.962 108.25 141.993 108.108 142.022C107.536 142.147 106.962 142.263 106.385 142.372C106.26 142.398 106.129 142.421 106.002 142.446C105.566 142.529 105.129 142.609 104.69 142.686C101.995 143.163 99.2752 143.508 96.5311 143.722C95.5218 143.8 94.5106 143.863 93.4974 143.909C74.4045 144.753 54.7169 139.487 38.3672 129.547C41.9755 127.049 46.0498 125.027 49.79 123.488C51.0484 122.972 52.3184 122.503 53.6001 122.08C53.842 121.999 54.0844 121.921 54.3271 121.844C65.2115 118.396 76.8173 118.138 88.4013 119.343C95.1352 120.044 101.862 121.238 108.434 122.591C108.64 122.633 108.846 122.676 109.052 122.716C110.628 123.042 112.205 123.376 113.786 123.7C115.178 123.985 116.573 124.262 117.971 124.521H117.975C119.191 124.745 120.403 124.954 121.622 125.14C124.635 125.599 127.66 125.917 130.7 125.972C131.539 125.987 132.38 125.981 133.222 125.954L133.515 125.947Z" fill="#FF9F33"/>
<path d="M72.2522 7.13807C66.6511 7.07449 61.1168 8.35856 56.1159 10.882C55.583 11.1502 55.0582 11.4314 54.5417 11.7258C54.4628 11.7711 54.3839 11.8165 54.3062 11.8621C52.9421 12.6542 51.6343 13.5395 50.3922 14.5117C49.8166 14.9615 49.2563 15.4291 48.7113 15.9144C47.7798 16.7433 46.894 17.6223 46.058 18.5475C41.6608 23.4166 38.6769 29.5408 37.7339 36.3096C37.7164 36.4339 37.7002 36.5527 37.6858 36.6745C37.6803 36.6976 37.6792 36.7211 37.6768 36.7443C37.6612 36.8632 37.6464 36.9817 37.6332 37.1012C37.6171 37.2463 37.6009 37.3921 37.5862 37.5395C37.574 37.6586 37.5625 37.7783 37.5517 37.8986L37.5493 37.925C37.5294 38.1441 37.5119 38.3643 37.4967 38.5854L37.4757 38.9176L37.4583 39.2345L37.4553 39.2473C37.4439 39.4668 37.4355 39.687 37.4258 39.9075C37.4262 39.9131 37.4261 39.9186 37.4257 39.9242L37.4196 40.1835C37.4161 40.3179 37.4139 40.4525 37.413 40.5871C37.4121 40.6794 37.412 40.7712 37.411 40.8641L37.414 41.0607C37.4144 41.1102 37.4161 41.1594 37.4177 41.2093L37.4286 41.4322L37.4386 41.6401C37.4448 41.77 37.454 41.9006 37.4637 42.0346C37.4701 42.1286 37.4773 42.2222 37.4869 42.3163C37.4929 42.3935 37.5006 42.4711 37.5078 42.5486C37.5411 42.8803 37.5819 43.2197 37.6303 43.567L37.6318 43.5769C37.6593 43.7719 37.6893 43.9694 37.722 44.1694L37.7263 44.1942C37.7434 44.2972 37.7604 44.4008 37.7804 44.5051C37.8091 44.6539 37.8336 44.8037 37.8655 44.9551C37.8991 45.1314 37.9349 45.3095 37.9715 45.4891C37.9975 45.6167 38.0251 45.746 38.0532 45.8754L38.1266 46.2025C38.1528 46.3211 38.1805 46.4389 38.2087 46.5573C38.2547 46.7516 38.3027 46.9474 38.3527 47.1447C38.3624 47.1849 38.3731 47.2234 38.3829 47.263C38.413 47.3824 38.4437 47.5019 38.475 47.6216C38.5034 47.7311 38.5332 47.8404 38.5631 47.9516C38.5683 47.9727 38.5748 47.9942 38.581 48.0162L38.6726 48.3477L38.7465 48.6107L38.7723 48.699C38.8744 49.051 38.9805 49.4073 39.0908 49.7681L39.1115 49.8372L39.2307 50.217C39.2704 50.3434 39.3118 50.4715 39.3532 50.5989C39.4756 50.9822 39.6051 51.3701 39.7416 51.7623C39.7863 51.8925 39.8316 52.0234 39.8776 52.1551L39.9756 52.4355C40.0032 52.5134 40.0304 52.5905 40.0597 52.6694C40.3064 53.3638 40.5689 54.0688 40.8474 54.7844C40.9242 54.9839 41.0025 55.184 41.0821 55.3845L41.2471 55.7984L41.4142 56.214C41.469 56.3556 41.5269 56.4921 41.5835 56.6315L41.7561 57.051C41.8547 57.2887 41.9543 57.5266 42.0549 57.7647C42.1329 57.949 42.2111 58.1347 42.2915 58.3196C42.3511 58.4623 42.4156 58.6062 42.4735 58.7485C42.63 59.1109 42.7894 59.4755 42.9517 59.8422C43.0397 60.0412 43.1292 60.2417 43.2194 60.4418C43.2319 60.4699 43.2437 60.4984 43.2575 60.5267C43.4432 60.9411 43.6324 61.3575 43.8251 61.7761C43.892 61.9205 43.9596 62.0651 44.0277 62.2099C44.1625 62.5028 44.3001 62.7952 44.4385 63.089C44.5085 63.2342 44.577 63.3829 44.6471 63.53C45.1586 64.6139 45.6899 65.7043 46.2411 66.8011C46.3488 67.0196 46.4584 67.2352 46.5665 67.4518C46.9546 68.2262 47.3502 69.0024 47.7533 69.7804L48.0593 70.3673L48.3974 71.0134C48.5347 71.2752 48.6725 71.537 48.8107 71.7987C48.9305 72.0258 49.0511 72.2518 49.1714 72.479C49.6857 73.4437 50.2062 74.4069 50.7327 75.3686C50.8601 75.6013 50.9887 75.8344 51.1168 76.0667C51.245 76.299 51.3825 76.5483 51.5159 76.7882C51.6209 76.9791 51.7269 77.1699 51.8337 77.3607L52.1062 77.8484C52.2713 78.1448 52.4362 78.4396 52.6011 78.7329L52.8502 79.174C53.2663 79.9084 53.6829 80.6385 54.1002 81.3642C54.2292 81.5877 54.3575 81.8111 54.4852 82.0343C54.8571 82.6798 55.2288 83.3184 55.6005 83.9502L55.8506 84.376C57.3108 86.8638 58.7602 89.2655 60.1496 91.5256C60.2124 91.628 60.2741 91.7301 60.3372 91.8312L60.5221 92.1323L60.7135 92.444L61.0786 93.0335L61.2643 93.3309L61.4472 93.6245C61.7512 94.115 62.0515 94.5966 62.3482 95.0692L62.7017 95.6321C63.639 97.124 64.5306 98.5253 65.3621 99.8152C65.4629 99.9717 65.5621 100.126 65.6597 100.279C65.9997 100.805 66.3281 101.312 66.6448 101.799C66.9001 102.192 67.1471 102.572 67.3855 102.939C67.4739 103.075 67.5622 103.208 67.6476 103.339C68.2226 104.216 68.742 105.004 69.1975 105.688L69.7334 106.509C69.7639 106.553 69.793 106.598 69.8219 106.641C70.0471 106.978 70.2482 107.277 70.4251 107.54L70.4859 107.63C70.5457 107.718 70.601 107.801 70.6553 107.88C70.688 107.928 70.7199 107.975 70.75 108.021C70.7706 108.05 70.7905 108.08 70.8092 108.109C70.8394 108.152 70.8674 108.193 70.8938 108.233C70.9761 108.354 71.0449 108.456 71.1012 108.54L71.1327 108.585C71.1327 108.585 71.1327 108.585 71.1361 108.59C71.1543 108.619 71.1717 108.643 71.186 108.666L71.2087 108.7L71.245 108.752C71.2713 108.79 71.284 108.809 71.284 108.809L71.4109 108.63L71.5522 108.432L71.5958 108.37C71.8057 108.072 72.1192 107.629 72.5221 107.05C72.5745 106.974 72.6296 106.896 72.6857 106.815C72.758 106.711 72.8337 106.604 72.9112 106.492L73.0681 106.266L73.7166 105.329L73.8321 105.16L74.1265 104.735C74.2257 104.588 74.3294 104.44 74.434 104.287L74.4892 104.206C74.5356 104.138 74.5813 104.071 74.6292 104.002L74.6459 103.978L74.8516 103.676L75.0628 103.368C75.2203 103.137 75.382 102.898 75.5488 102.654L75.8165 102.26L75.9865 102.008L76.5112 101.235C76.5582 101.164 76.6093 101.093 76.6546 101.022L76.7425 100.891L76.8693 100.701L76.9972 100.51L77.0541 100.426L77.3216 100.027L77.3485 99.9867L77.5933 99.6208C77.6303 99.5654 77.6694 99.5067 77.7079 99.4504C77.7672 99.3601 77.8279 99.2691 77.8901 99.1773L78.5392 98.2003L79.0184 97.4801C79.6171 96.5734 80.2376 95.6277 80.8799 94.6428L81.4053 93.834C81.6759 93.4184 81.948 92.9968 82.2215 92.5694L82.2717 92.4909L82.4913 92.1497L82.4931 92.1424L82.9245 91.4692L82.9307 91.4591L83.359 90.7908C83.4393 90.6643 83.5203 90.5378 83.6002 90.4105L84.0171 89.755L84.2778 89.3414C84.485 89.0121 84.6928 88.6803 84.9011 88.3461C84.9975 88.1936 85.0931 88.0409 85.1879 87.888L85.5525 87.306C86.0836 86.4547 86.6187 85.5902 87.1578 84.7126L87.4835 84.1804C87.7258 83.7849 87.9677 83.3872 88.2094 82.9873C88.2883 82.8585 88.3659 82.73 88.4437 82.6008C88.6785 82.2134 88.9128 81.8246 89.1465 81.4344L89.3812 81.0409L89.5117 80.823C89.6213 80.6334 89.7375 80.4454 89.8496 80.2558C90.1687 79.7181 90.4876 79.1778 90.8062 78.6349C90.9529 78.3868 91.0989 78.1359 91.2423 77.8857L91.7094 77.0816C92.4109 75.8703 93.1048 74.6525 93.7911 73.4281C98.8929 64.3206 103.391 55.0566 105.367 47.8134C105.554 47.1261 105.718 46.4578 105.859 45.8086L105.907 45.5837L105.912 45.5606C105.923 45.5145 105.934 45.4683 105.941 45.4211L105.95 45.3841C105.97 45.3008 105.984 45.2156 106 45.1327C106.023 45.0161 106.045 44.9006 106.064 44.7859C106.065 44.7847 106.066 44.7833 106.066 44.7818C106.067 44.7803 106.067 44.7788 106.066 44.7773C106.087 44.6647 106.107 44.5515 106.125 44.4401C106.143 44.3287 106.163 44.2135 106.181 44.1008C106.198 43.9881 106.215 43.8759 106.23 43.7652C106.245 43.6544 106.259 43.5614 106.271 43.461L106.276 43.4255L106.306 43.1854C106.324 43.0334 106.339 42.883 106.353 42.7343C106.361 42.646 106.369 42.5579 106.376 42.47C106.381 42.4071 106.386 42.3472 106.389 42.2857C106.396 42.1974 106.402 42.1095 106.407 42.0214C106.41 41.9792 106.412 41.9367 106.414 41.8947L106.419 41.7676C106.428 41.5928 106.433 41.4205 106.434 41.2508C106.443 40.2683 106.41 39.2971 106.335 38.3372C106.327 38.2345 106.32 38.1319 106.309 38.0291C106.309 38.0173 106.308 38.0054 106.306 37.9937C106.283 37.7229 106.256 37.4519 106.225 37.1831C106.224 37.1682 106.222 37.1542 106.22 37.1395C106.21 37.0454 106.201 36.9507 106.187 36.8569C106.138 36.4559 106.082 36.0572 106.019 35.6606C105.971 35.3667 105.92 35.0745 105.865 34.7839C105.846 34.6791 105.826 34.576 105.806 34.4723C105.782 34.353 105.758 34.233 105.732 34.1125C105.707 33.992 105.682 33.8736 105.656 33.7544C105.612 33.5512 105.566 33.3541 105.517 33.1554C105.451 32.8763 105.38 32.5983 105.305 32.3213C101.455 17.9526 88.1602 7.28979 72.2522 7.13807Z" fill="#CC0000"/>
<path d="M105.315 32.3212C105.844 34.2895 106.189 36.3026 106.346 38.3347C106.421 39.2945 106.454 40.2657 106.444 41.2482C106.426 43.1486 106.048 45.365 105.38 47.8109C103.405 55.0541 98.9062 64.3174 93.8041 73.4287C91.116 72.6195 88.5549 71.3193 86.138 69.8673C82.5723 67.7245 79.2211 65.2219 75.5665 63.2363C75.4987 63.2002 75.4306 63.1627 75.3635 63.1235C83.2997 61.7363 89.9752 55.9664 91.9115 47.8687C91.9948 47.5206 92.0686 47.1716 92.1314 46.8231C92.7065 43.6926 92.5183 40.4695 91.5826 37.4272C91.33 36.5988 91.0242 35.7875 90.667 34.9984C90.7643 35.0108 90.8635 35.0229 90.9622 35.0343C95.1254 35.4923 99.4176 34.8573 103.234 33.1317C103.899 32.8335 104.608 32.5032 105.315 32.3212Z" fill="#9C1A1A"/>
<path d="M37.7325 36.314C40.0814 44.0986 43.3053 51.1459 46.87 57.3801C52.3796 67.0137 58.6991 74.6946 63.8439 80.1275C66.7175 83.1597 70.6282 84.9977 74.7964 85.2751C78.9647 85.5526 83.0845 84.2492 86.3346 81.6247C88.2759 80.0595 90.1415 78.4723 91.7197 77.083L91.2525 77.8871C91.1062 78.1366 90.9601 78.3874 90.8165 78.6363C90.4978 79.1792 90.179 79.7195 89.8599 80.2571C89.7502 80.4473 89.6346 80.6355 89.522 80.8243L89.3915 81.0423L89.1568 81.4357C88.9234 81.826 88.6892 82.2149 88.454 82.6022C88.3762 82.7313 88.2986 82.8598 88.2196 82.9886C87.9777 83.3881 87.7358 83.7857 87.4938 84.1817L87.1681 84.7139C86.6296 85.5909 86.0945 86.4553 85.5628 87.3074L85.1982 87.8894C85.1029 88.0425 85.0073 88.1952 84.9114 88.3474C84.7027 88.6829 84.495 89.0146 84.288 89.3428L84.0273 89.7563L83.6105 90.4119C83.5306 90.5392 83.4496 90.6656 83.3692 90.7922L82.941 91.4604L82.9347 91.4705L82.5034 92.1438L82.5016 92.1511L82.282 92.4922L82.2317 92.5708C81.9583 92.9978 81.6863 93.4193 81.4155 93.8354L80.8901 94.6441C80.2496 95.6273 79.6291 96.573 79.0287 97.4814L78.5495 98.2017L77.9003 99.1787C77.8386 99.2705 77.7778 99.3615 77.7182 99.4517C77.68 99.5068 77.6417 99.5619 77.6036 99.6221L77.3587 99.9881L77.3319 100.028L77.0643 100.427L77.0075 100.512L76.8796 100.703L76.7515 100.892L76.6637 101.023C76.6153 101.093 76.5654 101.165 76.5203 101.236L75.8248 102.264L75.5571 102.659C75.3904 102.902 75.2286 103.141 75.0711 103.372L74.8599 103.681L74.6543 103.982L74.6376 104.006C74.5896 104.075 74.5409 104.142 74.4975 104.21L74.4423 104.291C74.3365 104.444 74.2347 104.593 74.1348 104.739L73.8404 105.164L73.7249 105.333L73.0764 106.27L72.9195 106.496C72.8425 106.606 72.766 106.717 72.6941 106.819C72.6379 106.9 72.5828 106.978 72.5304 107.055C72.1282 107.63 71.8148 108.073 71.6041 108.374L71.5605 108.436L71.4192 108.635L71.2923 108.814C71.2923 108.814 71.2797 108.794 71.2534 108.756L71.2171 108.704L71.1943 108.67C71.1798 108.647 71.1625 108.623 71.1444 108.594C71.1444 108.594 71.1444 108.594 71.1411 108.589L71.1095 108.544C71.0531 108.46 70.9843 108.358 70.9022 108.237C70.8757 108.198 70.8477 108.156 70.8176 108.113C70.7988 108.084 70.7789 108.054 70.7583 108.025C70.7282 107.979 70.6963 107.932 70.6636 107.884C70.6089 107.807 70.554 107.722 70.4942 107.634L70.4334 107.544C70.2571 107.282 70.0561 106.983 69.8302 106.645C69.8013 106.602 69.7722 106.557 69.7417 106.513L69.2001 105.7C68.7452 105.013 68.2253 104.228 67.6503 103.351C67.5649 103.219 67.4765 103.086 67.3882 102.951C67.1497 102.586 66.9028 102.206 66.6475 101.811C66.3316 101.323 66.0032 100.816 65.6623 100.291C65.5646 100.139 65.4654 99.9842 65.3647 99.827C64.5358 98.537 63.6441 97.1363 62.7044 95.6438L62.3509 95.0809C62.0546 94.6084 61.7542 94.1269 61.4498 93.6362L61.267 93.3427L61.0812 93.0452L60.7161 92.4557L60.5248 92.1441L60.3399 91.843C60.2767 91.7418 60.2151 91.6397 60.1522 91.5373C58.7656 89.2791 57.315 86.8772 55.8533 84.3878L55.6032 83.9619C55.2323 83.3286 54.8605 82.69 54.4879 82.046C54.3602 81.8228 54.2318 81.5994 54.1029 81.3759C53.6856 80.6519 53.2689 79.9218 52.8528 79.1857L52.6038 78.7447C52.4383 78.4482 52.2734 78.1534 52.1089 77.8601L51.8363 77.3724C51.7295 77.1816 51.6236 76.9908 51.5185 76.8C51.3853 76.56 51.2523 76.3195 51.1195 76.0784C50.9913 75.8461 50.8628 75.613 50.7354 75.3803C50.2094 74.4196 49.689 73.4565 49.1741 72.4908C49.0538 72.2635 48.9331 72.0375 48.8134 71.8104C48.675 71.5492 48.5373 71.2874 48.4001 71.0251L48.062 70.3791L47.756 69.7921C47.3547 69.0154 46.9591 68.2392 46.5692 67.4635C46.4603 67.2448 46.3516 67.0307 46.2437 66.8129C45.696 65.716 45.1647 64.6256 44.6498 63.5417C44.5792 63.3964 44.5107 63.2477 44.4412 63.1007C44.3027 62.8069 44.1652 62.5146 44.0304 62.2216C43.9622 62.0768 43.8947 61.9322 43.8278 61.7878C43.6348 61.37 43.4456 60.9536 43.2602 60.5385C43.2464 60.5101 43.2346 60.4816 43.222 60.4536C43.1318 60.2535 43.0423 60.0529 42.9544 59.854C42.7928 59.4878 42.6333 59.1232 42.4761 58.7602C42.4152 58.6172 42.352 58.4736 42.2941 58.3314C42.2138 58.1465 42.1355 57.9608 42.0576 57.7764C41.9566 57.5378 41.8563 57.2993 41.7588 57.0628L41.5861 56.6432C41.5301 56.5014 41.4722 56.3649 41.4169 56.2258L41.2498 55.8101L41.0848 55.3962C41.0042 55.1959 40.926 54.9959 40.85 54.7962C40.5734 54.0801 40.3108 53.3751 40.0623 52.6812C40.033 52.6022 40.0059 52.5251 39.9783 52.4472L39.8803 52.1669C39.8339 52.035 39.7885 51.9041 39.7443 51.7741C39.6102 51.3824 39.4807 50.9945 39.3559 50.6106C39.3144 50.4832 39.2731 50.3551 39.2333 50.2287L39.1141 49.8489L39.0934 49.7798C39.0578 49.6602 39.0223 49.5399 38.9864 49.4215C38.8794 49.0633 38.7765 48.7094 38.6777 48.36L38.5861 48.0285C38.5798 48.0065 38.5734 47.985 38.5682 47.9639C38.5383 47.8527 38.5085 47.7435 38.4801 47.6339C38.4517 47.5244 38.4178 47.3949 38.388 47.2753C38.3782 47.2358 38.3675 47.1972 38.3578 47.157C38.3083 46.9594 38.2603 46.7636 38.2138 46.5696C38.1856 46.4512 38.1579 46.3334 38.1316 46.2148L38.0583 45.8877C38.0302 45.7583 38.0026 45.629 37.9766 45.5014C37.9399 45.3218 37.9042 45.1437 37.8705 44.9674C37.8423 44.8168 37.8141 44.6662 37.7855 44.5175C37.7673 44.4136 37.7503 44.31 37.7314 44.2065L37.727 44.1817C37.6948 43.9818 37.6647 43.7843 37.6369 43.5892L37.6354 43.5793C37.5862 43.2318 37.5453 42.8924 37.5129 42.5609C37.5057 42.4834 37.4979 42.4058 37.492 42.3286C37.4824 42.2345 37.4728 42.1403 37.4688 42.0469C37.4584 41.916 37.4499 41.7823 37.4437 41.6524L37.4337 41.4445L37.4228 41.2216C37.4212 41.1717 37.4195 41.1225 37.4191 41.073L37.416 40.8764C37.4152 40.7831 37.4153 40.6913 37.418 40.5994C37.4194 40.4649 37.4216 40.3303 37.4247 40.1958L37.4308 39.9365C37.4312 39.931 37.4312 39.9254 37.4309 39.9198C37.4382 39.6987 37.4465 39.4785 37.4603 39.2596L37.4634 39.2468L37.4807 38.9299L37.5017 38.5977C37.5173 38.3767 37.5349 38.1565 37.5543 37.9373L37.5568 37.9109C37.5675 37.791 37.579 37.6713 37.5913 37.5518C37.6058 37.405 37.6221 37.2592 37.6383 37.1135C37.6515 36.994 37.6663 36.8755 37.6819 36.7566C37.6842 36.7334 37.6872 36.7103 37.6909 36.6868C37.6988 36.557 37.7157 36.4352 37.7325 36.314Z" fill="#9C1A1A"/>
<path d="M37.5483 37.9292C37.5635 38.11 37.5783 38.2979 37.5917 38.4944C37.7427 40.6749 38.5073 43.6706 39.6947 47.1836C41.7114 53.1536 44.9532 60.62 48.49 68.1262C52.6609 76.9791 57.2435 85.8862 60.7181 92.4572L60.5267 92.1456L60.3418 91.8445C60.2787 91.7433 60.217 91.6412 60.1542 91.5388C58.7675 89.2806 57.317 86.8787 55.8552 84.3893L55.6052 83.9634C55.2343 83.3301 54.8625 82.6915 54.4899 82.0475C54.3621 81.8243 54.2338 81.6009 54.1048 81.3774C53.6876 80.6534 53.2709 79.9233 52.8548 79.1872L52.6058 78.7462C52.4403 78.4497 52.2753 78.1549 52.1108 77.8617L51.8383 77.3739C51.7315 77.1831 51.6255 76.9923 51.5205 76.8015C51.3873 76.5615 51.2543 76.321 51.1214 76.0799C50.9933 75.8476 50.8647 75.6146 50.7373 75.3818C50.2114 74.4211 49.691 73.458 49.1761 72.4923C49.0557 72.265 48.9351 72.039 48.8153 71.8119C48.677 71.5507 48.5392 71.2889 48.402 71.0266L48.0639 70.3806L47.7579 69.7936C47.3567 69.0169 46.9611 68.2407 46.5711 67.465C46.4622 67.2463 46.3535 67.0322 46.2457 66.8144C45.6979 65.7175 45.1666 64.6271 44.6517 63.5432C44.5811 63.3979 44.5127 63.2492 44.4431 63.1022C44.3047 62.8084 44.1671 62.5161 44.0323 62.2231C43.9642 62.0783 43.8967 61.9337 43.8297 61.7893C43.6368 61.3715 43.4476 60.9551 43.2621 60.54C43.2484 60.5116 43.2365 60.4831 43.224 60.4551C43.1338 60.255 43.0443 60.0544 42.9564 59.8555C42.7947 59.4893 42.6353 59.1247 42.4781 58.7617C42.4172 58.6187 42.3539 58.4751 42.2961 58.3329C42.2157 58.148 42.1375 57.9623 42.0595 57.7779C41.9585 57.5397 41.8589 57.3018 41.7607 57.0643L41.5881 56.6447C41.5321 56.5029 41.4742 56.3664 41.4188 56.2273L41.2517 55.8116L41.0867 55.3978C41.0062 55.1974 40.9279 54.9974 40.852 54.7977C40.5754 54.0816 40.3128 53.3766 40.0643 52.6827C40.035 52.6037 40.0078 52.5266 39.9802 52.4487L39.8822 52.1684C39.8358 52.0365 39.7905 51.9056 39.7462 51.7756C39.6121 51.3839 39.4827 50.996 39.3578 50.6121C39.3164 50.4847 39.2751 50.3566 39.2353 50.2302L39.1161 49.8505L39.0954 49.7813C38.9474 49.3006 38.8081 48.8272 38.6772 48.3609L38.5856 48.0294C38.5794 48.0074 38.5729 47.986 38.5677 47.9648C38.5378 47.8536 38.508 47.7444 38.4796 47.6348C38.4512 47.5253 38.4173 47.3958 38.3875 47.2763C38.3777 47.2367 38.367 47.1982 38.3573 47.158C38.3078 46.9603 38.2598 46.7645 38.2133 46.5706C38.1851 46.4521 38.1574 46.3343 38.1312 46.2157L38.0578 45.8886C38.0297 45.7592 38.0022 45.63 37.9761 45.5024C37.9395 45.3228 37.9037 45.1447 37.8701 44.9684C37.8419 44.8178 37.8137 44.6672 37.785 44.5184C37.7668 44.4145 37.7499 44.3109 37.7309 44.2075L37.7266 44.1827C37.6944 43.9823 37.6644 43.7848 37.6364 43.5902L37.6349 43.5802C37.5857 43.2328 37.5449 42.8933 37.5124 42.5619C37.5052 42.4844 37.4975 42.4067 37.4915 42.3295C37.4819 42.2354 37.4723 42.1413 37.4683 42.0478C37.4579 41.9169 37.4494 41.7832 37.4432 41.6533L37.4332 41.4454L37.4223 41.2225C37.4207 41.1727 37.419 41.1235 37.4186 41.0739L37.4156 40.8773C37.4148 40.784 37.4149 40.6922 37.4176 40.6003C37.4189 40.4658 37.4211 40.3312 37.4242 40.1967L37.4303 39.9374C37.4307 39.9319 37.4308 39.9263 37.4304 39.9208C37.4377 39.6996 37.4461 39.4794 37.4599 39.2605L37.4629 39.2478L37.4803 38.9308L37.5013 38.5987C37.5132 38.3716 37.5289 38.1484 37.5483 37.9292Z" fill="#E83535"/>
<path d="M76.0381 23.0329C82.8121 24.6527 88.0685 29.2376 90.6682 34.9983C91.0253 35.7875 91.3314 36.5988 91.5844 37.4272C92.5201 40.4704 92.7084 43.6943 92.1332 46.8256C92.07 47.1734 91.996 47.523 91.9128 47.8711C89.9768 55.967 83.2999 61.7353 75.3631 63.1249C72.4266 63.6355 69.4167 63.5387 66.5191 62.8404C58.71 60.973 52.9142 55.1629 50.8861 48.153C50.0645 45.3201 49.8841 42.3398 50.3581 39.4285C50.8321 36.5172 51.9486 33.748 53.6264 31.3221C53.9768 30.8163 54.3489 30.3294 54.7425 29.8614C56.3811 27.9118 58.3684 26.2843 60.6027 25.0621C61.3429 24.6547 62.1069 24.292 62.8905 23.976C62.9738 23.9429 63.0579 23.9097 63.1429 23.8765C65.79 22.851 68.614 22.3601 71.4518 22.432C72.0904 22.4473 72.731 22.4915 73.3737 22.5647C74.2705 22.6664 75.1603 22.8227 76.0381 23.0329Z" fill="white"/>
</svg>
