<svg width="32" height="32" viewBox="0 0 32 32" fill="none" xmlns="http://www.w3.org/2000/svg">
<circle cx="16" cy="16" r="15.5" fill="white" stroke="#5BB2C9"/>
<path d="M19.3246 23.2149C19.398 23.326 19.498 23.4169 19.6155 23.4795C19.7331 23.542 19.8644 23.5742 19.9975 23.5731C20.1978 23.5753 20.3916 23.502 20.5402 23.3677C20.5905 23.3225 20.6348 23.2711 20.6723 23.2149L23.7946 19.7448C23.9365 19.5873 24.01 19.3798 23.9989 19.1681C23.9878 18.9563 23.8931 18.7577 23.7356 18.6158C23.578 18.4739 23.3706 18.4004 23.1588 18.4115C22.9471 18.4225 22.7484 18.5172 22.6065 18.6748L20.8025 20.6787V9.8013C20.8025 9.5893 20.7183 9.38598 20.5684 9.23608C20.4185 9.08617 20.2152 9.00195 20.0032 9.00195C19.7912 9.00195 19.5879 9.08617 19.438 9.23608C19.2881 9.38598 19.2039 9.5893 19.2039 9.8013V20.6913L17.3881 18.6748C17.2462 18.5172 17.0475 18.4225 16.8358 18.4115C16.6241 18.4004 16.4166 18.4739 16.2591 18.6158C16.1015 18.7577 16.0068 18.9563 15.9957 19.1681C15.9847 19.3798 16.0582 19.5873 16.2 19.7448L19.3246 23.2149Z" fill="#5BB2C9"/>
<path d="M11.3967 9.27331C11.4176 9.24935 11.4399 9.22669 11.4636 9.20548C11.6126 9.07311 11.805 9 12.0043 9C12.2036 9 12.3959 9.07311 12.5449 9.20548C12.5951 9.25073 12.6395 9.30208 12.677 9.35834L15.8011 12.8284C15.9429 12.986 16.0164 13.1934 16.0052 13.4051C15.9941 13.6168 15.8994 13.8154 15.7418 13.9572C15.5843 14.099 15.3769 14.1725 15.1652 14.1614C14.9535 14.1503 14.7549 14.0555 14.613 13.898L12.7959 11.8837V22.7737C12.7959 22.9857 12.7117 23.189 12.5618 23.3389C12.4119 23.4888 12.2086 23.5731 11.9966 23.5731C11.7846 23.5731 11.5813 23.4888 11.4314 23.3389C11.2815 23.189 11.1972 22.9857 11.1972 22.7737V11.8963L9.39323 13.9002C9.2514 14.0578 9.05279 14.1525 8.8411 14.1636C8.62941 14.1747 8.42197 14.1013 8.26443 13.9595C8.10688 13.8176 8.01214 13.619 8.00103 13.4073C7.98991 13.1956 8.06335 12.9882 8.20519 12.8307L11.3316 9.36014C11.3513 9.32981 11.3731 9.30081 11.3967 9.27331Z" fill="#5BB2C9"/>
</svg>
