<svg width="16" height="12" viewBox="0 0 16 12" fill="none" xmlns="http://www.w3.org/2000/svg">
<path d="M3.73087 6.4618C3.85459 6.4618 3.97755 6.4095 4.06403 6.30772C4.22015 6.12379 4.19745 5.84828 4.01352 5.69241L1.62653 3.66767H15.2635C15.5046 3.66767 15.7003 3.47226 15.7003 3.23093C15.7003 2.9896 15.5048 2.7942 15.2635 2.7942H1.62628L4.01327 0.769451C4.19719 0.613584 4.2199 0.338073 4.06378 0.154145C3.90791 -0.029784 3.6324 -0.0522329 3.44847 0.103634L0.154082 2.89802C0.15 2.90134 0.147194 2.90593 0.143367 2.90925C0.129592 2.92175 0.117092 2.93552 0.104847 2.94981C0.0974493 2.95848 0.089796 2.9669 0.0831633 2.97634C0.0716837 2.99215 0.0622451 3.00925 0.0528063 3.02659C0.0479594 3.03552 0.0423473 3.04394 0.0382657 3.05338C0.029082 3.07353 0.0227041 3.09522 0.0168367 3.1169C0.0147959 3.1243 0.01148 3.13144 0.00994935 3.13909C0.0035718 3.16869 0 3.1993 0 3.23093C0 3.26231 0.0038269 3.29318 0.00994935 3.32277C0.01148 3.33042 0.0147959 3.33756 0.0168367 3.34496C0.0227041 3.36664 0.0293371 3.38807 0.0382657 3.40848C0.0423473 3.41792 0.0479594 3.42634 0.0528063 3.43527C0.06199 3.45261 0.0716837 3.46971 0.0831633 3.48552C0.089796 3.49471 0.0974493 3.50312 0.104847 3.51205C0.117092 3.52634 0.129592 3.53986 0.143367 3.55261C0.147194 3.55619 0.15 3.56052 0.154082 3.56384L3.44847 6.35797C3.53061 6.42787 3.63087 6.4618 3.73087 6.4618Z" fill="#A1A4A8"/>
<path d="M15.99 8.36861C15.9885 8.36095 15.9852 8.35381 15.9832 8.34641C15.9773 8.32473 15.9706 8.3033 15.9617 8.28289C15.9576 8.27345 15.952 8.26503 15.9472 8.25611C15.9377 8.23876 15.9283 8.22167 15.9168 8.20585C15.9102 8.19667 15.9025 8.18825 15.8951 8.17932C15.8829 8.16503 15.8704 8.15126 15.8566 8.13876C15.8528 8.13519 15.85 8.13085 15.8459 8.12753L12.5515 5.33315C12.3678 5.17702 12.0923 5.19998 11.9362 5.38366C11.7801 5.56759 11.8028 5.8431 11.9867 5.99896L14.3737 8.02371H0.736722C0.495651 8.02371 0.299988 8.21912 0.299988 8.46044C0.299988 8.70151 0.495396 8.89718 0.736722 8.89718H14.3737L11.9867 10.9219C11.8028 11.0778 11.7801 11.3533 11.9362 11.5372C12.0227 11.639 12.1457 11.6913 12.2694 11.6913C12.3691 11.6913 12.4696 11.6574 12.5515 11.5877L15.8459 8.79361C15.85 8.79029 15.8528 8.7857 15.8566 8.78238C15.8704 8.76988 15.8829 8.75611 15.8951 8.74182C15.9025 8.73315 15.9102 8.72473 15.9168 8.71529C15.9283 8.69947 15.938 8.68238 15.9472 8.66503C15.952 8.65611 15.9576 8.64769 15.9617 8.63825C15.9709 8.61784 15.9773 8.59641 15.9832 8.57473C15.9852 8.56733 15.9885 8.56019 15.99 8.55253C15.9964 8.52294 16 8.49233 16 8.4607C16 8.42881 15.9964 8.3982 15.99 8.36861Z" fill="#A1A4A8"/>
</svg>
