<svg width="22" height="22" viewBox="0 0 22 22" fill="none" xmlns="http://www.w3.org/2000/svg">
<path d="M11 1C5.48254 1 1 5.48254 1 11C1 16.5175 5.48254 21 11 21C16.5175 21 21 16.5175 21 11C21 5.48254 16.5175 1 11 1ZM11 1.90909C16.0262 1.90909 20.0909 5.97385 20.0909 11C20.0909 16.0262 16.0262 20.0909 11 20.0909C5.97385 20.0909 1.90909 16.0262 1.90909 11C1.90909 5.97385 5.97385 1.90909 11 1.90909ZM11 5.54545C9.24811 5.54545 7.81818 6.97539 7.81818 8.72727C7.81733 8.78751 7.82846 8.84731 7.85092 8.9032C7.87338 8.9591 7.90673 9.00997 7.94902 9.05287C7.99131 9.09576 8.04171 9.12982 8.09728 9.15307C8.15285 9.17632 8.21249 9.18829 8.27273 9.18829C8.33297 9.18829 8.3926 9.17632 8.44818 9.15307C8.50375 9.12982 8.55414 9.09576 8.59644 9.05287C8.63873 9.00997 8.67208 8.9591 8.69454 8.9032C8.717 8.84731 8.72812 8.78751 8.72727 8.72727C8.72727 7.4667 9.73942 6.45455 11 6.45455C12.2606 6.45455 13.2727 7.4667 13.2727 8.72727C13.2816 9.74812 12.7335 10.2977 12.0582 10.9361C11.7206 11.2552 11.3597 11.5809 11.0639 11.9872C10.7681 12.3935 10.5455 12.9001 10.5455 13.5V13.7273C10.5446 13.7875 10.5557 13.8473 10.5782 13.9032C10.6007 13.9591 10.634 14.01 10.6763 14.0529C10.7186 14.0958 10.769 14.1298 10.8246 14.1531C10.8801 14.1763 10.9398 14.1883 11 14.1883C11.0602 14.1883 11.1199 14.1763 11.1754 14.1531C11.231 14.1298 11.2814 14.0958 11.3237 14.0529C11.366 14.01 11.3993 13.9591 11.4218 13.9032C11.4443 13.8473 11.4554 13.7875 11.4545 13.7273V13.5C11.4545 13.1105 11.5766 12.8205 11.7955 12.5199C12.0143 12.2193 12.3365 11.9244 12.6832 11.5966C13.3755 10.9421 14.1906 10.0924 14.1818 8.72727C14.1818 8.72473 14.1818 8.72269 14.1818 8.72017C14.1779 6.97157 12.7495 5.54545 11 5.54545ZM11 15.0909C10.6234 15.0909 10.3182 15.3962 10.3182 15.7727C10.3182 16.1493 10.6234 16.4545 11 16.4545C11.3766 16.4545 11.6818 16.1493 11.6818 15.7727C11.6818 15.3962 11.3766 15.0909 11 15.0909Z" fill="#A1A4A8" stroke="#A1A4A8" stroke-width="0.2"/>
</svg>
