<svg width="26" height="24" viewBox="0 0 26 24" fill="none" xmlns="http://www.w3.org/2000/svg">
<path d="M24.9987 11.6209C25.0073 11.8211 24.974 12.021 24.901 12.2076C24.8279 12.3943 24.7167 12.5636 24.5744 12.7048C24.4321 12.8459 24.2618 12.9558 24.0746 13.0274C23.8874 13.099 23.6873 13.1306 23.4871 13.1204H21.8436V20.2281C21.8502 20.5345 21.7947 20.839 21.6806 21.1234C21.5665 21.4078 21.3962 21.6662 21.1797 21.8831C20.9632 22.1 20.7052 22.2709 20.421 22.3856C20.1368 22.5002 19.8324 22.5563 19.5261 22.5503H16.1465C16.0054 22.5682 15.8621 22.5534 15.7277 22.507C15.5932 22.4606 15.4713 22.3839 15.3713 22.2827C15.2714 22.1816 15.196 22.0588 15.1512 21.9238C15.1063 21.7888 15.0932 21.6454 15.1127 21.5045V17.5773C15.1439 17.026 14.9572 16.4846 14.5928 16.0698C14.2283 15.655 13.7154 15.4001 13.1647 15.3601C12.614 15.3201 12.0697 15.4983 11.6492 15.8561C11.2287 16.2139 10.9657 16.7226 10.9169 17.2726C10.8665 18.6305 10.8785 20.0457 10.9003 21.4323C10.9186 21.5845 10.9021 21.7389 10.852 21.8839C10.802 22.0288 10.7197 22.1605 10.6114 22.269C10.5031 22.3775 10.3716 22.4601 10.2268 22.5104C10.0819 22.5608 9.92757 22.5776 9.7753 22.5596C8.66698 22.5235 7.55635 22.5596 6.44804 22.5596C6.14839 22.5612 5.85139 22.5035 5.5741 22.39C5.29681 22.2764 5.0447 22.1091 4.83226 21.8978C4.61982 21.6865 4.45124 21.4353 4.33621 21.1586C4.22117 20.8819 4.16196 20.5852 4.16196 20.2855V13.1199H2.59208C2.37662 13.1436 2.15859 13.1182 1.95435 13.0456C1.75012 12.973 1.56499 12.855 1.41286 12.7006C1.26072 12.5462 1.14554 12.3594 1.07596 12.1541C1.00637 11.9488 0.984196 11.7304 1.01109 11.5153C1.00286 11.0747 1.03089 10.6342 1.09488 10.1982C1.20436 9.66516 1.51107 9.19309 1.95366 8.87647C5.0675 6.4583 8.1798 4.03859 11.2906 1.61733C11.7722 1.21834 12.378 1 13.0035 1C13.6289 1 14.2348 1.21834 14.7164 1.61733C17.8127 4.02902 20.9106 6.43917 24.0103 8.84777C24.326 9.07898 24.5808 9.38337 24.753 9.73479C24.9252 10.0862 25.0095 10.4742 24.9987 10.8653V11.6209Z" stroke="#A1A4A8"/>
</svg>
