<svg width="24" height="22" viewBox="0 0 24 22" fill="none" xmlns="http://www.w3.org/2000/svg">
<path d="M23.9987 10.6209C24.0073 10.8211 23.974 11.021 23.901 11.2076C23.8279 11.3943 23.7167 11.5636 23.5744 11.7048C23.4321 11.8459 23.2618 11.9558 23.0746 12.0274C22.8874 12.099 22.6873 12.1306 22.4871 12.1204H20.8436V19.2281C20.8502 19.5345 20.7947 19.839 20.6806 20.1234C20.5665 20.4078 20.3962 20.6662 20.1797 20.8831C19.9632 21.1 19.7052 21.2709 19.421 21.3856C19.1368 21.5002 18.8324 21.5563 18.5261 21.5503H15.1465C15.0054 21.5682 14.8621 21.5534 14.7277 21.507C14.5932 21.4606 14.4713 21.3839 14.3713 21.2827C14.2714 21.1816 14.196 21.0588 14.1512 20.9238C14.1063 20.7888 14.0932 20.6454 14.1127 20.5045V16.5773C14.1439 16.026 13.9572 15.4846 13.5928 15.0698C13.2283 14.655 12.7154 14.4001 12.1647 14.3601C11.614 14.3201 11.0697 14.4983 10.6492 14.8561C10.2287 15.2139 9.96566 15.7226 9.91695 16.2726C9.86648 17.6305 9.87852 19.0457 9.90028 20.4323C9.91857 20.5845 9.90207 20.7389 9.85204 20.8839C9.80201 21.0288 9.71974 21.1605 9.61143 21.269C9.50312 21.3775 9.3716 21.4601 9.22677 21.5104C9.08193 21.5608 8.92757 21.5776 8.7753 21.5596C7.66698 21.5235 6.55635 21.5596 5.44804 21.5596C5.14839 21.5612 4.85139 21.5035 4.5741 21.39C4.29681 21.2764 4.0447 21.1091 3.83226 20.8978C3.61982 20.6865 3.45124 20.4353 3.33621 20.1586C3.22117 19.8819 3.16196 19.5852 3.16196 19.2855V12.1199H1.59208C1.37662 12.1436 1.15859 12.1182 0.954354 12.0456C0.75012 11.973 0.564989 11.855 0.412856 11.7006C0.260723 11.5462 0.145542 11.3594 0.0759584 11.1541C0.00637457 10.9488 -0.0158041 10.7304 0.0110872 10.5153C0.00286067 10.0747 0.0308868 9.63421 0.0948821 9.19821C0.204359 8.66516 0.511075 8.19309 0.953665 7.87647C4.0675 5.4583 7.1798 3.03859 10.2906 0.617332C10.7722 0.218338 11.378 0 12.0035 0C12.6289 0 13.2348 0.218338 13.7164 0.617332C16.8127 3.02902 19.9106 5.43917 23.0103 7.84777C23.326 8.07898 23.5808 8.38337 23.753 8.73479C23.9252 9.0862 24.0095 9.47416 23.9987 9.86533V10.6209Z" fill="#CC0000"/>
</svg>
