<svg width="13" height="16" viewBox="0 0 13 16" fill="none" xmlns="http://www.w3.org/2000/svg">
<path d="M11.6817 14.697H11.3449C11.2786 14.0269 11.1133 13.3839 10.8785 12.78C10.4799 11.7554 9.88046 10.8448 9.22316 10.1093C8.48559 9.28462 7.67522 8.68043 6.99166 8.38594C6.99166 8.38594 6.73059 8.19528 6.73059 7.99597C6.73059 7.79696 6.99166 7.60809 6.99166 7.60809C7.89393 7.21067 9.03071 6.26752 9.92104 4.98723C10.6452 3.94562 11.2067 2.68114 11.3446 1.30297H11.6817C12.0412 1.30297 12.3331 1.01117 12.3331 0.651636C12.3331 0.291804 12.0412 0 11.6817 0H0.651333C0.291799 0 0 0.291804 0 0.651636C0 1.01117 0.291799 1.30297 0.651333 1.30297H0.98819C1.12454 2.68084 1.67951 3.94532 2.39918 4.98723C3.28503 6.26991 4.41973 7.21395 5.33214 7.60988C5.33214 7.60988 5.60604 7.77965 5.60604 7.99597C5.60604 8.21229 5.34138 8.39191 5.34138 8.39191C4.66737 8.68878 3.86237 9.29029 3.12689 10.1093C2.46631 10.8448 1.86241 11.7557 1.45991 12.78C1.22271 13.3836 1.05562 14.0272 0.988491 14.697H0.651333C0.291799 14.697 0 14.9888 0 15.3484C0 15.7082 0.291799 16 0.651333 16H11.6817C12.0412 16 12.3331 15.7082 12.3331 15.3484C12.3331 14.9888 12.0412 14.697 11.6817 14.697ZM10.166 14.7215C10.0851 13.9997 9.94044 13.3663 9.73665 12.78C7.03612 12.8451 3.62726 11.8461 2.60356 12.78C2.38038 13.5185 2.2497 14.0003 2.16824 14.7215H1.65057C1.69801 13.972 1.81706 13.335 1.991 12.78C2.19539 12.1284 2.47556 11.5913 2.80973 11.1259C3.06991 10.7633 3.35992 10.4205 3.66336 10.1093C4.2604 9.49676 4.91144 9.00863 5.49923 8.74965L5.60336 8.7037L5.6666 8.60912C5.6666 8.60912 5.91724 8.36654 5.91724 8.01238C5.91724 7.65822 5.6508 7.38402 5.6508 7.38402L5.58784 7.2951L5.48788 7.25154C4.62918 6.87858 3.6392 6.0166 2.87925 4.98723C2.8524 4.95082 2.82524 4.91502 2.79899 4.87832C2.18435 4.01783 1.75231 2.93803 1.65027 1.30327H10.6825C10.5792 2.93266 10.1421 4.01275 9.52361 4.87444C9.49616 4.91263 9.46782 4.94993 9.44007 4.98752C8.67804 6.01302 7.68985 6.87381 6.83413 7.25065L6.73029 7.2963L6.66733 7.38999C6.66733 7.38999 6.42147 7.66598 6.42147 8.00015C6.42147 8.33432 6.66674 8.60315 6.66674 8.60315L6.73089 8.69893L6.83681 8.74458C7.42997 8.99998 8.08637 9.4908 8.68758 10.109C8.98685 10.4169 9.27269 10.7565 9.52928 11.1151C9.86375 11.5824 10.1436 12.1227 10.3468 12.7797C10.5184 13.3341 10.6356 13.9714 10.6825 14.7212H10.166V14.7215Z" fill="#FF9F33"/>
</svg>
