<svg width="10" height="12" viewBox="0 0 10 12" fill="none" xmlns="http://www.w3.org/2000/svg">
<path d="M8.76128 11.0228H8.50864C8.45896 10.5202 8.33499 10.0379 8.15888 9.58501C7.85991 8.81656 7.41035 8.13359 6.91737 7.58198C6.36419 6.96347 5.75642 6.51032 5.24374 6.28945C5.24374 6.28945 5.04794 6.14646 5.04794 5.99698C5.04794 5.84772 5.24374 5.70607 5.24374 5.70607C5.92044 5.408 6.77303 4.70064 7.44078 3.74042C7.98388 2.95922 8.40503 2.01085 8.50841 0.977231H8.76128C9.03093 0.977231 9.24979 0.758377 9.24979 0.488727C9.24979 0.218853 9.03093 0 8.76128 0H0.4885C0.218849 0 0 0.218853 0 0.488727C0 0.758377 0.218849 0.977231 0.4885 0.977231H0.741143C0.843408 2.01063 1.25963 2.95899 1.79938 3.74042C2.46377 4.70243 3.3148 5.41046 3.99911 5.70741C3.99911 5.70741 4.20453 5.83474 4.20453 5.99698C4.20453 6.15922 4.00604 6.29393 4.00604 6.29393C3.50053 6.51659 2.89678 6.96772 2.34517 7.58198C1.84973 8.13359 1.39681 8.81678 1.09493 9.58501C0.917029 10.0377 0.791718 10.5204 0.741368 11.0228H0.4885C0.218849 11.0228 0 11.2416 0 11.5113C0 11.7811 0.218849 12 0.4885 12H8.76128C9.03093 12 9.24979 11.7811 9.24979 11.5113C9.24979 11.2416 9.03093 11.0228 8.76128 11.0228ZM7.6245 11.0411C7.56386 10.4998 7.45533 10.0247 7.30249 9.58501C5.27709 9.63379 2.72044 8.88459 1.95267 9.58501C1.78528 10.1389 1.68727 10.5003 1.62618 11.0411H1.23793C1.27351 10.479 1.36279 10.0012 1.49325 9.58501C1.64654 9.09628 1.85667 8.69348 2.1073 8.34439C2.30243 8.0725 2.51994 7.81538 2.74752 7.58198C3.1953 7.12257 3.68358 6.75647 4.12442 6.56224L4.20252 6.52778L4.24995 6.45684C4.24995 6.45684 4.43793 6.27491 4.43793 6.00929C4.43793 5.74366 4.2381 5.53801 4.2381 5.53801L4.19088 5.47133L4.11591 5.43866C3.47188 5.15894 2.7294 4.51245 2.15944 3.74042C2.1393 3.71312 2.11893 3.68627 2.09924 3.65874C1.63826 3.01337 1.31423 2.20352 1.2377 0.977455H8.01186C7.93443 2.1995 7.6066 3.00957 7.14271 3.65583C7.12212 3.68447 7.10086 3.71245 7.08005 3.74064C6.50853 4.50976 5.76738 5.15536 5.12559 5.43799L5.04771 5.47222L5.0005 5.54249C5.0005 5.54249 4.81611 5.74948 4.81611 6.00011C4.81611 6.25074 5.00005 6.45236 5.00005 6.45236L5.04817 6.5242L5.12761 6.55843C5.57248 6.74999 6.06478 7.1181 6.51569 7.58176C6.74013 7.8127 6.95451 8.06736 7.14696 8.33634C7.39782 8.68677 7.60772 9.09203 7.76011 9.58478C7.88878 10.0006 7.97672 10.4785 8.01186 11.0409H7.6245V11.0411Z" fill="#CC0000"/>
<path d="M4.92557 5.25714L4.97525 5.23118L5.04932 5.19224C5.53715 4.93624 6.32551 4.09663 6.56674 3.74061C5.92831 3.25054 4.18577 3.91806 2.71533 3.74061C2.98543 4.0935 3.74582 4.93938 4.23544 5.19269L4.30683 5.22984L4.35426 5.25423C4.35426 5.25423 4.49838 5.32919 4.61698 5.61115L4.64674 5.70111L4.67203 5.61115C4.78168 5.32897 4.92557 5.25714 4.92557 5.25714Z" fill="#CC0000"/>
</svg>
