<svg width="19" height="15" viewBox="0 0 19 15" fill="none" xmlns="http://www.w3.org/2000/svg">
<path d="M9.21418 5.86488C9.53043 5.86488 9.79636 5.58457 9.79636 5.23239V2.53713L9.71011 1.45184L10.242 2.06277L11.1404 2.97556C11.2482 3.07619 11.3848 3.14087 11.5213 3.14087C11.8088 3.14087 12.0172 2.93963 12.0172 2.65932C12.0172 2.50839 11.9669 2.39339 11.8448 2.27839L9.6023 0.186871C9.45137 0.0503114 9.34356 0 9.21418 0C9.07762 0 8.96981 0.0503114 8.81888 0.186871L6.57643 2.27839C6.45424 2.39339 6.40393 2.50839 6.40393 2.65932C6.40393 2.93963 6.61236 3.14087 6.89986 3.14087C7.03642 3.14087 7.17298 3.07619 7.28079 2.97556L8.25108 1.9909L8.71107 1.45184L8.62482 2.53713V5.23239C8.62482 5.58457 8.89075 5.86488 9.21418 5.86488ZM12.9157 7.86296C13.1457 8.08577 13.5266 8.08577 13.7853 7.81984L15.0359 6.56924C15.3091 6.30331 15.2947 5.93675 15.0719 5.70676C14.8491 5.47676 14.4753 5.47676 14.2094 5.74269L12.9588 6.99329C12.6929 7.25204 12.6857 7.64015 12.9157 7.86296ZM5.50551 7.86296C5.72832 7.63297 5.72832 7.25204 5.46239 6.99329L4.21179 5.74269C3.94586 5.47676 3.5793 5.48395 3.34931 5.70676C3.11931 5.92956 3.11212 6.30331 3.38524 6.56924L4.63584 7.81984C4.89459 8.08577 5.2827 8.09296 5.50551 7.86296ZM0.625299 15H17.7959C18.1337 15 18.4212 14.7413 18.4212 14.425C18.4212 14.1088 18.1337 13.85 17.7959 13.85H12.391C12.8654 13.2104 13.1385 12.4197 13.1385 11.5716C13.1385 9.41543 11.356 7.63297 9.21418 7.63297C7.06517 7.63297 5.2827 9.41543 5.2827 11.5716C5.2827 12.4197 5.55582 13.2104 6.03019 13.85H0.625299C0.287494 13.85 0 14.1088 0 14.425C0 14.7413 0.287494 15 0.625299 15ZM6.43268 11.5716C6.43268 10.0479 7.69046 8.79013 9.21418 8.79013C10.7307 8.79013 11.9885 10.0479 11.9885 11.5716C11.9885 12.5204 11.4926 13.3613 10.7595 13.85H7.66172C6.92861 13.3613 6.43268 12.5204 6.43268 11.5716ZM1.55965 11.9669H3.32774C3.70149 11.9669 3.98179 11.7082 3.9746 11.3848C3.96742 11.0613 3.6943 10.8026 3.32774 10.8026H1.55965C1.18591 10.8026 0.919981 11.0613 0.919981 11.3848C0.919981 11.7082 1.18591 11.9669 1.55965 11.9669ZM15.0934 11.9669H16.8615C17.2353 11.9669 17.5012 11.7082 17.5012 11.3848C17.5012 11.0613 17.2353 10.8026 16.8615 10.8026H15.0934C14.7269 10.8026 14.4394 11.0613 14.4466 11.3848C14.4538 11.7082 14.7269 11.9669 15.0934 11.9669Z" fill="#B72F47"/>
</svg>
