<svg width="24" height="24" viewBox="0 0 24 24" fill="none" xmlns="http://www.w3.org/2000/svg">
<path d="M12 24C5.3856 24 0 18.6144 0 12C0 5.3856 5.3856 0 12 0C18.6144 0 24 5.3856 24 12C24 18.6144 18.6144 24 12 24ZM12 0.96C5.9136 0.96 0.96 5.9136 0.96 12C0.96 18.0864 5.9136 23.04 12 23.04C18.0864 23.04 23.04 18.0864 23.04 12C23.04 5.9136 18.0864 0.96 12 0.96Z" fill="#B72F47"/>
<path d="M8.48632 9.42748H14.1695C14.6783 9.42748 15.0911 9.84028 15.0911 10.3491C15.0911 10.8579 14.6783 11.2707 14.1695 11.2707H13.0079H10.9919H9.83032C8.53432 11.2707 7.45912 12.3267 7.45912 13.6419C7.45912 14.9379 8.53432 16.0131 9.83032 16.0131H15.5135V17.0499L17.0495 15.2739L15.5135 13.4979V14.5731H9.83032C9.32152 14.5731 8.90872 14.1603 8.90872 13.6515C8.90872 13.1427 9.32152 12.7299 9.83032 12.7299H10.9919H13.0079H14.1695C15.4655 12.7299 16.5407 11.6739 16.5407 10.3587C16.5407 9.06268 15.4655 7.98748 14.1695 7.98748H8.48632V6.95068L6.95032 8.72668L8.48632 10.5027V9.42748Z" fill="#B72F47"/>
</svg>
