<svg width="375" height="250" viewBox="0 0 375 250" fill="none" xmlns="http://www.w3.org/2000/svg">
<defs>
<linearGradient id="paint0_linear" x1="201.173" y1="104.727" x2="191.125" y2="90.0214" gradientUnits="userSpaceOnUse">
<stop stop-color="white"/>
<stop offset="1" stop-color="white" stop-opacity="0"/>
</linearGradient>
</defs>
<path d="M375 0H0V250H375V0Z" fill="white"/>
<path d="M71.5865 157.795C77.3915 161.701 79.6269 170.107 76.528 176.38C75.4476 178.565 73.3453 180.661 70.9374 180.299C67.7974 179.828 66.7781 175.939 65.8836 172.892C64.2085 167.174 59.6229 162.896 56.0792 158.319C52.4661 153.639 48.1225 145.213 58.3758 149.005C63.185 150.785 67.3728 154.957 71.5865 157.795Z" fill="#D9F3FA"/>
<path d="M316.255 121.928C312.899 137.881 307.183 153.225 301.49 168.496C308.944 157.356 314.575 145.003 318.171 132.092C320.014 125.49 327.245 102.666 320.46 97.9105C316.095 102.633 317.532 115.857 316.255 121.928Z" fill="#D9F3FA"/>
<path d="M171.362 37.7602C176.403 38.7168 181.53 39.1479 186.661 39.0467C189.987 38.9805 193.542 38.6019 196.11 36.4854C196.612 36.0725 197.101 35.4284 196.846 34.8321C196.622 34.3103 195.966 34.1621 195.401 34.1009C189.985 33.5347 184.607 35.0976 179.228 35.9536C173.849 36.8096 167.901 36.8322 163.482 33.6453C166.79 34.7467 167.94 37.1144 171.362 37.7602Z" fill="#D9F3FA"/>
<path d="M156.981 33.7341C156.671 35.4594 158.982 36.9125 160.49 36.0197C161.999 35.1269 162.014 32.6235 160.618 31.5631C159.221 30.5028 156.985 31.0145 156.011 32.4736" fill="#D9F3FA"/>
<path d="M309.234 137.747C308.103 141.946 306.761 146.086 305.214 150.151C304.803 151.226 304.376 152.296 303.932 153.36C303.393 154.653 302.829 155.935 302.242 157.205C300.865 160.194 299.331 163.107 297.646 165.934C296.934 167.123 296.196 168.286 295.431 169.424C295.184 169.791 294.933 170.156 294.677 170.519C293.275 172.507 291.74 174.396 290.081 176.174C289.132 177.191 288.141 178.169 287.111 179.096C285.662 180.405 284.126 181.615 282.514 182.717C281.55 183.374 280.559 183.986 279.543 184.552C278.065 185.377 276.529 186.093 274.947 186.695C273.974 187.063 272.984 187.386 271.976 187.661C271.566 187.773 271.152 187.877 270.736 187.972C269.628 188.226 268.508 188.424 267.38 188.565C266.953 188.621 266.527 188.667 266.1 188.704C265.537 188.755 264.974 188.793 264.409 188.818C262.538 188.899 260.664 188.86 258.798 188.699C255.663 188.439 252.528 187.879 249.413 187.153C242.484 185.538 235.643 183.098 229.075 181.281C228.319 181.073 227.565 180.86 226.813 180.642C226.013 180.414 225.213 180.182 224.414 179.945C217.981 178.05 211.608 175.962 205.208 173.957C201.588 172.823 197.96 171.715 194.309 170.684C192.223 170.095 190.129 169.534 188.027 169.002C186.218 168.547 184.411 168.069 182.607 167.57C180.102 166.882 177.601 166.162 175.103 165.436C166.741 163.007 158.411 160.495 150.101 158.804C146.97 158.168 143.843 157.648 140.721 157.297C131.899 156.292 123.094 156.605 114.292 159.307C109.518 160.774 104.547 161.31 99.6054 161.024C95.5377 160.781 91.5184 160.014 87.6477 158.74C83.7296 157.457 79.985 155.694 76.4991 153.493C72.0433 150.686 68.0331 147.168 64.729 143.082C56.9557 133.469 53.397 122.083 53.1876 110.501C53.1507 108.413 53.2198 106.324 53.3945 104.242C53.6138 101.624 53.9902 99.0212 54.5218 96.4481C54.954 94.3441 55.4844 92.2581 56.1131 90.1899C56.9212 87.5381 57.8815 84.9352 58.9893 82.394C59.9167 80.2616 60.9447 78.1758 62.0731 76.1367C63.5663 73.4357 65.2291 70.8322 67.0515 68.3416C67.4871 67.7469 67.9318 67.159 68.3858 66.5777C69.6019 65.0199 70.8685 63.5218 72.1857 62.0834C73.5705 60.5697 75.0069 59.1227 76.4949 57.7424C79.6666 54.7971 83.0833 52.1271 86.708 49.7614C87.3328 49.3516 87.9632 48.9523 88.5992 48.5637C90.4518 47.428 92.3469 46.3718 94.2844 45.3952C95.2655 44.8994 96.2555 44.4248 97.2544 43.9714C98.7664 43.2846 100.299 42.6445 101.851 42.0509C102.833 41.674 103.823 41.3167 104.822 40.9789C106.339 40.4629 107.871 39.9914 109.418 39.5642C110.403 39.2901 111.393 39.0349 112.389 38.7987C113.911 38.4363 115.443 38.1147 116.985 37.8339C117.972 37.6546 118.963 37.4924 119.957 37.3472C121.482 37.1239 123.014 36.9413 124.553 36.7995C125.54 36.7068 126.53 36.6311 127.523 36.5725C129.052 36.482 130.584 36.4307 132.119 36.4184C133.109 36.4106 134.1 36.4195 135.091 36.4452C136.962 36.4921 138.832 36.5976 140.702 36.7618C144.542 37.0979 148.357 37.6786 152.123 38.5005C162.365 40.7343 172.451 42.3968 182.592 43.0501C184.003 43.1417 185.415 43.2129 186.829 43.2637C189.82 43.372 192.82 43.3829 195.829 43.2964C196.749 43.2695 197.67 43.2324 198.593 43.185C200.786 43.0733 202.986 42.9038 205.195 42.6766C205.994 42.5956 206.793 42.5051 207.593 42.4052C208.513 42.2935 209.435 42.169 210.357 42.0317C211.083 41.9256 211.81 41.8125 212.539 41.6924C214.823 41.3155 217.095 40.9001 219.357 40.4721C221.043 40.153 222.724 39.8255 224.4 39.5023C225.202 39.347 226.002 39.1932 226.8 39.0408C234.346 37.6027 241.836 36.3162 249.403 36.1144C252.536 36.0204 255.671 36.1424 258.787 36.4795C260.649 36.6847 262.52 36.9779 264.399 37.3715C265.386 37.5776 266.376 37.8121 267.37 38.0751C267.755 38.1772 268.141 38.2839 268.527 38.395C269.681 38.73 270.827 39.093 271.965 39.4838C272.964 39.8306 273.954 40.201 274.937 40.5953C276.494 41.2212 278.026 41.9046 279.533 42.6456C280.538 43.1403 281.528 43.6604 282.504 44.2059C284.078 45.0854 285.61 46.0293 287.101 47.0377C288.114 47.7228 289.104 48.4378 290.071 49.1826C291.671 50.4128 293.206 51.7268 294.667 53.1191C295.699 54.0991 296.689 55.1175 297.638 56.1745C299.313 58.034 300.849 60.0137 302.235 62.0977C302.535 62.5499 302.828 63.0072 303.113 63.4696C303.864 64.6857 304.562 65.937 305.207 67.2235C306.322 69.4404 307.258 71.7425 308.007 74.1081C314.449 94.6013 314.835 117.017 309.234 137.747Z" fill="#F5FDFF"/>
<path d="M309.234 137.747C308.103 141.946 306.761 146.086 305.214 150.151C304.803 151.226 304.376 152.296 303.932 153.36C303.393 154.653 302.83 155.935 302.242 157.205C300.866 160.194 299.331 163.107 297.646 165.934C296.934 167.123 296.196 168.286 295.431 169.424C295.185 169.791 294.933 170.156 294.678 170.519C293.276 172.507 291.74 174.396 290.081 176.174C289.132 177.191 288.141 178.169 287.111 179.096C285.662 180.405 284.127 181.615 282.515 182.717C281.55 183.374 280.559 183.986 279.543 184.552C278.065 185.377 276.529 186.093 274.947 186.695C273.975 187.063 272.984 187.386 271.976 187.661C271.566 187.773 271.152 187.877 270.736 187.972C269.628 188.226 268.508 188.424 267.38 188.565C266.953 188.621 266.527 188.667 266.1 188.704C265.537 188.755 264.974 188.793 264.409 188.818C262.538 188.899 260.664 188.86 258.798 188.699V36.477C260.66 36.6822 262.53 36.9754 264.409 37.369C265.396 37.575 266.386 37.8096 267.38 38.0726C267.765 38.1747 268.151 38.2814 268.537 38.3925C269.691 38.7275 270.837 39.0905 271.976 39.4813C272.974 39.8281 273.965 40.1985 274.947 40.5927C276.505 41.2187 278.036 41.9021 279.543 42.6431C280.548 43.1378 281.539 43.6579 282.515 44.2034C284.088 45.0828 285.62 46.0268 287.111 47.0352C288.124 47.7203 289.114 48.4353 290.081 49.1801C291.682 50.4103 293.216 51.7243 294.678 53.1166C295.709 54.0965 296.699 55.115 297.648 56.172C299.323 58.0315 300.859 60.0111 302.245 62.0951C302.546 62.5474 302.839 63.0047 303.123 63.467C303.874 64.6832 304.572 65.9345 305.217 67.2209C306.329 69.439 307.261 71.742 308.007 74.1081C314.45 94.6013 314.836 117.017 309.234 137.747Z" fill="#CDEFF8"/>
<path d="M305.215 67.2218V150.151C304.804 151.226 304.377 152.296 303.934 153.359C303.395 154.653 302.831 155.935 302.244 157.205V62.0952C302.545 62.5475 302.838 63.0048 303.122 63.4671C303.873 64.6838 304.571 65.9354 305.215 67.2218Z" fill="#A8E0EE"/>
<path d="M297.648 56.172V165.933C296.936 167.123 296.197 168.286 295.433 169.424C295.186 169.791 294.935 170.156 294.679 170.519V53.1166C295.709 54.0965 296.698 55.115 297.648 56.172Z" fill="#A8E0EE"/>
<path d="M290.084 49.1835V176.174C289.135 177.191 288.144 178.169 287.114 179.096V47.0386C288.124 47.7237 289.114 48.4387 290.084 49.1835Z" fill="#A8E0EE"/>
<path d="M282.514 44.2067V182.717C281.549 183.374 280.559 183.986 279.542 184.552V42.6464C280.547 43.1417 281.538 43.6618 282.514 44.2067Z" fill="#A8E0EE"/>
<path d="M274.947 40.596V186.695C273.974 187.063 272.983 187.385 271.975 187.661V39.4846C272.973 39.8313 273.964 40.2018 274.947 40.596Z" fill="#A8E0EE"/>
<path d="M267.379 38.0726V188.565C266.953 188.621 266.526 188.667 266.099 188.704C265.536 188.755 264.973 188.793 264.408 188.818V37.3657C265.395 37.5739 266.385 37.8096 267.379 38.0726Z" fill="#A8E0EE"/>
<path d="M194.303 60.3288V170.683C192.217 170.094 190.124 169.533 188.022 169.002C186.213 168.546 184.406 168.069 182.601 167.569C180.097 166.881 177.596 166.162 175.098 165.435C166.736 163.006 158.406 160.494 150.096 158.804V60.3288H194.303Z" fill="#CEEAF1"/>
<path d="M163.328 71.8559H154.327V80.6435H163.328V71.8559Z" fill="#9AB5A9"/>
<path d="M175.094 71.8559H166.093V80.6435H175.094V71.8559Z" fill="#9AB5A9"/>
<path d="M186.861 71.8559H177.86V77.7104H186.861V71.8559Z" fill="white" stroke="black" stroke-width="4" stroke-miterlimit="10"/>
<path d="M163.328 91.5894H154.327V100.377H163.328V91.5894Z" fill="#9AB5A9"/>
<path d="M175.094 91.5894H166.093V100.377H175.094V91.5894Z" fill="#9AB5A9"/>
<path d="M186.861 85.0031H177.86V90.8575H186.861V85.0031Z" fill="white" stroke="black" stroke-width="4" stroke-miterlimit="10"/>
<path d="M163.328 111.322H154.327V120.11H163.328V111.322Z" fill="#9AB5A9"/>
<path d="M175.094 111.322H166.093V120.11H175.094V111.322Z" fill="#9AB5A9"/>
<path d="M186.861 98.1491H177.86V104.004H186.861V98.1491Z" fill="white" stroke="black" stroke-width="4" stroke-miterlimit="10"/>
<path d="M163.328 131.055H154.327V139.843H163.328V131.055Z" fill="#9AB5A9"/>
<path d="M175.094 131.055H166.093V139.843H175.094V131.055Z" fill="#9AB5A9"/>
<path d="M186.861 111.295H177.86V117.15H186.861V111.295Z" fill="white" stroke="black" stroke-width="4" stroke-miterlimit="10"/>
<path d="M163.328 150.788H154.327V159.576H163.328V150.788Z" fill="#9AB5A9"/>
<path d="M175.094 150.788H166.093V159.576H175.094V150.788Z" fill="#9AB5A9"/>
<path d="M186.861 124.442H177.86V130.296H186.861V124.442Z" fill="white" stroke="black" stroke-width="4" stroke-miterlimit="10"/>
<path d="M194.302 60.3288V170.683C192.216 170.094 190.122 169.533 188.021 169.002C186.211 168.546 184.405 168.069 182.6 167.569C180.096 166.881 177.595 166.162 175.096 165.435V60.3288H194.302Z" fill="#87D3E5"/>
<path d="M99.5929 49.7614V161.022C95.5295 160.779 91.5145 160.012 87.6478 158.74C83.7296 157.457 79.985 155.694 76.4991 153.493C72.0434 150.686 68.0332 147.168 64.729 143.082C56.9557 133.469 53.397 122.083 53.1876 110.501C53.1507 108.413 53.2198 106.324 53.3945 104.242C53.6138 101.624 53.9902 99.0212 54.5218 96.4481C54.954 94.3442 55.4844 92.2581 56.1131 90.1899C56.9212 87.5381 57.8815 84.9352 58.9893 82.394C59.9167 80.2616 60.9447 78.1758 62.0732 76.1367C63.5663 73.4358 65.2291 70.8322 67.0516 68.3416C67.4871 67.7469 67.9318 67.159 68.3858 66.5777C69.6019 65.0199 70.8686 63.5218 72.1857 62.0834C73.5705 60.5697 75.0069 59.1227 76.4949 57.7424C79.6667 54.7971 83.0834 52.1272 86.708 49.7614H99.5895H99.5929Z" fill="#E2F3F7"/>
<path d="M76.4986 62.0818V68.3399H67.0552C67.4908 67.7452 67.9355 67.1573 68.3895 66.576C69.6056 65.0182 70.8722 63.5201 72.1894 62.0818H76.4986Z" fill="#87D3E6"/>
<path d="M90.6452 62.0818H79.8224V68.3399H90.6452V62.0818Z" fill="white" stroke="black" stroke-width="4" stroke-miterlimit="10"/>
<path d="M62.3539 76.1349V82.3923H58.9927C59.9202 80.2599 60.9482 78.1741 62.0766 76.1349H62.3539Z" fill="#87D3E6"/>
<path d="M76.4985 76.1349H65.6757V82.3932H76.4985V76.1349Z" fill="#87D3E6"/>
<path d="M90.6452 76.1349H79.8224V82.3932H90.6452V76.1349Z" fill="white" stroke="black" stroke-width="4" stroke-miterlimit="10"/>
<path d="M62.3537 90.1882V96.4464H54.5218C54.954 94.3425 55.4844 92.2564 56.1131 90.1882H62.3537Z" fill="#87D3E6"/>
<path d="M76.4985 90.1882H65.6757V96.4464H76.4985V90.1882Z" fill="#87D3E6"/>
<path d="M90.6452 90.1882H79.8224V96.4464H90.6452V90.1882Z" fill="white" stroke="black" stroke-width="4" stroke-miterlimit="10"/>
<path d="M62.3537 104.241V110.5H53.1876C53.1507 108.411 53.2198 106.322 53.3945 104.241H62.3537Z" fill="#87D3E6"/>
<path d="M76.4985 104.241H65.6757V110.499H76.4985V104.241Z" fill="#87D3E5"/>
<path d="M90.6452 104.241H79.8224V110.499H90.6452V104.241Z" fill="white" stroke="black" stroke-width="4" stroke-miterlimit="10"/>
<path d="M76.4985 118.294H65.6757V124.552H76.4985V118.294Z" fill="#87D3E6"/>
<path d="M90.6452 118.294H79.8224V124.552H90.6452V118.294Z" fill="white" stroke="black" stroke-width="4" stroke-miterlimit="10"/>
<path d="M99.5928 49.7614V161.022C95.5296 160.779 91.515 160.012 87.6485 158.74C83.7303 157.457 79.9858 155.694 76.4998 153.493V57.7407C79.6703 54.7962 83.0856 52.1268 86.7087 49.7614H99.5928Z" fill="#A8E0EE"/>
<path d="M140.709 36.7593V157.293C131.887 156.288 123.082 156.601 114.28 159.303C109.506 160.77 104.535 161.305 99.5932 161.02C95.5299 160.778 91.515 160.011 87.6481 158.74L87.9446 124.552L87.9999 118.294L88.0669 110.5L88.1213 104.241L88.1892 96.4464L88.2436 90.1882L88.3114 82.3932L88.365 76.135L88.4329 68.3399L88.4882 62.0817L88.5945 49.7614L88.6046 48.5637C90.4572 47.428 92.3523 46.3718 94.2899 45.3952C95.2709 44.8994 96.2609 44.4248 97.2598 43.9714C98.7719 43.2846 100.304 42.6444 101.856 42.0509C102.838 41.674 103.829 41.3167 104.827 40.9788C106.345 40.4629 107.877 39.9914 109.424 39.5642C110.409 39.2901 111.399 39.0349 112.394 38.7987C113.916 38.4363 115.448 38.1147 116.99 37.8338C117.977 37.6546 118.968 37.4924 119.962 37.3472C121.488 37.1239 123.02 36.9413 124.558 36.7995C125.545 36.7068 126.536 36.6311 127.529 36.5725C129.058 36.482 130.59 36.4307 132.124 36.4184C133.114 36.4106 134.105 36.4195 135.096 36.4452C136.966 36.4904 138.837 36.5951 140.709 36.7593Z" fill="#F3F7F7"/>
<path d="M97.2596 43.9689V148.79H94.2897V45.3927C95.2708 44.8991 96.2607 44.4245 97.2596 43.9689Z" fill="#CAE3E9"/>
<path d="M104.827 40.9764V148.79H101.857V42.0484C102.839 41.6715 103.829 41.3142 104.827 40.9764Z" fill="#CAE3E9"/>
<path d="M112.394 38.7962V148.79H109.424V39.5617C110.408 39.2876 111.398 39.0324 112.394 38.7962Z" fill="#CAE3E9"/>
<path d="M119.962 37.3448V148.79H116.989V37.8314C117.976 37.6521 118.967 37.4899 119.962 37.3448Z" fill="#CAE3E9"/>
<path d="M127.529 36.57V148.79H124.558V36.797C125.546 36.7043 126.536 36.6287 127.529 36.57Z" fill="#CAE3E9"/>
<path d="M135.096 36.4444V148.79H132.122V36.4159C133.113 36.4086 134.105 36.4181 135.096 36.4444Z" fill="#CAE3E9"/>
<path d="M226.808 39.0407V180.642C226.008 180.414 225.208 180.182 224.409 179.945C217.976 178.05 211.603 175.962 205.203 173.957C201.583 172.823 197.955 171.715 194.304 170.684C192.218 170.095 190.124 169.534 188.022 169.002C186.213 168.547 184.406 168.069 182.602 167.57V43.0476C184.013 43.1391 185.425 43.2103 186.838 43.2612C189.829 43.3695 192.829 43.3804 195.838 43.2938C196.758 43.267 197.68 43.2299 198.602 43.1824C200.795 43.0708 202.996 42.9013 205.205 42.674C206.003 42.5931 206.802 42.5026 207.602 42.4027C208.523 42.291 209.444 42.1665 210.366 42.0291C211.092 41.923 211.819 41.81 212.548 41.6899C214.832 41.313 217.104 40.8976 219.367 40.4696C221.053 40.1505 222.734 39.823 224.41 39.4997C225.211 39.3451 226.01 39.1921 226.808 39.0407Z" fill="#A8E0EE"/>
<path d="M195.835 54.5472H186.834V62.6128H195.835V54.5472Z" fill="#F3F5F4"/>
<path d="M207.601 54.5472H198.6V62.6128H207.601V54.5472Z" fill="#F3F5F4"/>
<path d="M219.366 54.5472H210.365V62.6128H219.366V54.5472Z" fill="white" stroke="black" stroke-width="4" stroke-miterlimit="10"/>
<path d="M195.835 72.6584H186.834V80.724H195.835V72.6584Z" fill="#F3F5F4"/>
<path d="M207.601 72.6584H198.6V80.724H207.601V72.6584Z" fill="#F3F5F4"/>
<path d="M219.366 72.6584H210.365V80.724H219.366V72.6584Z" fill="white" stroke="black" stroke-width="4" stroke-miterlimit="10"/>
<path d="M195.835 90.7703H186.834V98.8359H195.835V90.7703Z" fill="#F3F5F4"/>
<path d="M207.601 90.7703H198.6V98.8359H207.601V90.7703Z" fill="#F3F5F4"/>
<path d="M219.366 90.7703H210.365V98.8359H219.366V90.7703Z" fill="white" stroke="black" stroke-width="4" stroke-miterlimit="10"/>
<path d="M249.411 36.1094V187.153C242.482 185.538 235.642 183.098 229.073 181.281C228.317 181.073 227.563 180.86 226.812 180.642C226.011 180.414 225.211 180.182 224.412 179.945C217.98 178.05 211.606 175.962 205.206 173.957V42.6741C206.005 42.5931 206.804 42.5027 207.604 42.4027C208.524 42.291 209.446 42.1665 210.368 42.0292C211.094 41.9231 211.821 41.81 212.55 41.69C214.834 41.3131 217.106 40.8976 219.368 40.4697C221.054 40.1505 222.735 39.8231 224.411 39.4998C225.213 39.3445 226.013 39.1907 226.811 39.0383C234.355 37.6002 241.845 36.3137 249.411 36.1094Z" fill="#CEEAF1"/>
<path d="M236.406 46.4136H245.406V40.5592H236.406V46.4136Z" fill="#87D3E5"/>
<path d="M224.639 46.4136H233.64V40.5592H224.639V46.4136Z" fill="#87D3E5"/>
<path d="M236.406 59.5608H245.406V53.7063H236.406V59.5608Z" fill="#87D3E5"/>
<path d="M224.639 59.5608H233.64V53.7063H224.639V59.5608Z" fill="#87D3E5"/>
<path d="M236.406 72.7078H245.406V66.8533H236.406V72.7078Z" fill="#9AB5A9"/>
<path d="M224.639 72.7078H233.64V66.8533H224.639V72.7078Z" fill="#9AB5A9"/>
<path d="M236.406 85.854H245.406V79.9994H236.406V85.854Z" fill="#9AB5A9"/>
<path d="M224.639 85.854H233.64V79.9994H224.639V85.854Z" fill="#9AB5A9"/>
<path d="M236.406 98.9993H245.406V93.1448H236.406V98.9993Z" fill="#9AB5A9"/>
<path d="M224.639 98.9993H233.64V93.1448H224.639V98.9993Z" fill="#9AB5A9"/>
<path d="M224.409 39.4998V179.945C217.976 178.05 211.602 175.962 205.203 173.957V42.6741C206.001 42.5931 206.801 42.5026 207.601 42.4027C208.521 42.291 209.442 42.1665 210.365 42.0292C211.09 41.9231 211.818 41.81 212.546 41.6899C214.83 41.313 217.103 40.8976 219.365 40.4696C221.052 40.1505 222.733 39.823 224.409 39.4998Z" fill="#CEEAF1"/>
<path d="M185.22 221C246.666 221 296.477 210.833 296.477 198.292C296.477 185.75 246.666 175.583 185.22 175.583C123.775 175.583 73.9638 185.75 73.9638 198.292C73.9638 210.833 123.775 221 185.22 221Z" fill="#DCEEF3"/>
<path d="M277.13 70.675V187.33C277.13 187.873 276.914 188.394 276.53 188.778C276.145 189.163 275.624 189.378 275.081 189.378H93.2123C92.6689 189.378 92.1479 189.163 91.7637 188.778C91.3795 188.394 91.1636 187.873 91.1636 187.33V70.675C91.1636 70.1317 91.3795 69.6106 91.7637 69.2264C92.1479 68.8422 92.6689 68.6263 93.2123 68.6263H275.081C275.624 68.6263 276.145 68.8422 276.53 69.2264C276.914 69.6106 277.13 70.1317 277.13 70.675Z" fill="#F3F5F4"/>
<path d="M177.19 99.7907L166.554 95.6465L277.001 69.958L283.199 68.5166C283.046 67.9403 282.831 67.3821 282.558 66.8516L274.367 68.6263C244.084 75.1927 197.994 85.1972 160.649 93.3449L149.228 88.8967L212.273 68.628H204.311C185.131 74.4842 164.039 80.9283 144.285 86.9703L97.1843 68.628H93.2143C92.8476 68.627 92.4873 68.7245 92.1712 68.9102C91.855 69.096 91.5945 69.3633 91.4169 69.6842L139.558 88.4176L144.601 90.3825L155.245 94.5242L161.275 96.8693L170.636 100.511C149.822 102.815 129.028 105.124 111.484 107.087L91.1657 97.5461V101.675L104.985 107.817C100.028 108.372 95.3945 108.893 91.1657 109.371V113.467L111.862 110.876L139.016 122.947C119.523 124.774 102.441 126.392 91.1657 127.493V133.014L102.857 131.913L132.606 160.318L91.1657 168.077V180.201L243.717 144.187L244.245 144.446L245.932 143.664L277.132 136.294V133.278L244.756 139.337L230.232 131.79L227.056 130.139L210.909 121.749L277.132 115.519V110.165C252.015 112.473 192.028 117.993 144.237 122.466L117.945 110.119L277.133 90.1773V89.0047L276.698 88.8305C276.698 88.8305 227.892 94.1816 177.19 99.7907ZM236.866 140.785L139.358 159.036L111.816 131.045L149.774 127.473L167.565 139.604L171.183 142.071L180.427 148.374L185.795 146.247L178.341 140.821L221.604 133.265L236.866 140.785ZM200.207 122.732L218.093 131.448C204.572 133.581 189.825 135.908 175.026 138.248L158.826 126.584L200.207 122.732Z" fill="#92C6D4"/>
<path d="M84.8925 112.833V158.869L91.1633 153.174V107.249L84.8925 112.833ZM283.208 68.5041C282.731 66.7156 281.677 65.1346 280.209 64.0067C278.742 62.8787 276.943 62.2668 275.092 62.266L268.628 68.6263H275.078C275.347 68.6261 275.613 68.679 275.862 68.7818C276.111 68.8847 276.336 69.0356 276.527 69.2259C276.717 69.4162 276.868 69.6421 276.971 69.8907C277.074 70.1394 277.126 70.4059 277.126 70.675V187.33C277.126 187.873 276.91 188.394 276.526 188.778C276.142 189.162 275.621 189.378 275.078 189.378H145.916L139.545 195.649H275.092C277.319 195.649 279.455 194.764 281.03 193.19C282.604 191.615 283.489 189.479 283.489 187.252V70.6649C283.49 69.9354 283.396 69.2089 283.208 68.5041ZM141.683 62.266L134.539 68.6263H184.228L191.229 62.266H141.683Z" fill="#75C1D4"/>
<path d="M144.239 125.141C142.17 122.88 139.405 121.623 136.449 121.602C130.36 121.552 125.369 126.84 125.32 133.381C125.286 137.968 130.606 147.87 133.799 153.392V157.219H136.28L136.333 157.135L138.833 153.07C142.016 147.72 147.367 138.069 147.4 133.548C147.428 130.384 146.303 127.402 144.239 125.141ZM136.377 128.565H136.409C138.802 128.583 140.734 130.581 140.715 133.018C140.711 134.188 140.246 135.308 139.419 136.136C139.017 136.542 138.538 136.864 138.009 137.082C137.481 137.3 136.914 137.41 136.342 137.405C133.95 137.388 132.019 135.39 132.037 132.953C132.056 130.516 134 128.567 136.377 128.567V128.565Z" fill="#CC0000"/>
<path d="M134.257 121.826C128.259 121.781 123.357 126.974 123.308 133.427C123.258 139.879 133.991 157.082 133.991 157.082C133.991 157.082 144.981 140.042 145.03 133.591C145.08 127.139 140.255 121.874 134.257 121.826ZM134.138 137.586C131.643 137.568 129.635 135.492 129.655 132.953C129.674 130.413 131.712 128.369 134.208 128.387C136.703 128.406 138.71 130.481 138.691 133.021C138.672 135.562 136.633 137.605 134.138 137.586Z" fill="#E83535"/>
<path d="M133.988 157.417L133.839 157.177C133.812 157.135 131.122 152.812 128.472 147.757C124.906 140.953 123.112 136.13 123.128 133.425C123.152 130.259 124.321 127.291 126.42 125.066C128.519 122.842 131.308 121.622 134.258 121.647C137.209 121.672 139.975 122.926 142.048 125.184C144.12 127.443 145.237 130.426 145.213 133.592C145.193 136.298 143.322 141.092 139.654 147.842C136.928 152.856 134.173 157.139 134.145 157.18L133.988 157.417ZM134.179 122.004C131.356 122.004 128.697 123.177 126.682 125.313C124.645 127.471 123.51 130.353 123.486 133.428C123.442 139.341 132.695 154.632 133.993 156.746C135.322 154.652 144.806 139.502 144.851 133.589C144.874 130.514 143.783 127.615 141.779 125.427C139.774 123.238 137.106 122.026 134.256 122.005H134.179V122.004ZM134.172 137.766H134.137C131.546 137.747 129.456 135.589 129.475 132.952C129.494 130.315 131.621 128.189 134.209 128.209C136.797 128.229 138.89 130.387 138.87 133.023C138.85 135.66 136.746 137.765 134.172 137.766ZM134.172 128.567C131.794 128.567 129.85 130.528 129.832 132.954C129.813 135.381 131.745 137.393 134.138 137.408C136.529 137.422 138.493 135.457 138.51 133.02C138.526 130.582 136.597 128.581 134.205 128.567H134.172Z" fill="#E83535"/>
<path d="M135.281 165.013C136.889 165.013 138.192 163.71 138.192 162.102C138.192 160.494 136.889 159.191 135.281 159.191C133.673 159.191 132.37 160.494 132.37 162.102C132.37 163.71 133.673 165.013 135.281 165.013Z" fill="#E83535"/>
<path d="M280.273 133.557C280.038 133.557 279.812 133.464 279.645 133.297C279.479 133.131 279.385 132.905 279.385 132.669V113.231C279.385 112.995 279.479 112.769 279.645 112.603C279.812 112.436 280.038 112.342 280.273 112.342C280.509 112.342 280.735 112.436 280.902 112.603C281.068 112.769 281.162 112.995 281.162 113.231V132.669C281.162 132.786 281.139 132.901 281.094 133.009C281.05 133.117 280.984 133.215 280.902 133.297C280.819 133.38 280.721 133.445 280.613 133.49C280.506 133.534 280.39 133.557 280.273 133.557Z" fill="#60723D"/>
<path d="M280.273 145.577C280.038 145.577 279.812 145.483 279.645 145.317C279.479 145.15 279.385 144.924 279.385 144.688V138.888C279.385 138.653 279.479 138.427 279.645 138.26C279.812 138.093 280.038 138 280.273 138C280.509 138 280.735 138.093 280.902 138.26C281.068 138.427 281.162 138.653 281.162 138.888V144.688C281.162 144.924 281.068 145.15 280.902 145.317C280.735 145.483 280.509 145.577 280.273 145.577Z" fill="#60723D"/>
<path d="M272.829 155.607H210.93V179.436H272.829V155.607Z" fill="#92C6D4"/>
<path d="M268.798 159.541H239.595V160.81H268.798V159.541Z" fill="white"/>
<path d="M268.798 162.676H239.595V163.946H268.798V162.676Z" fill="white"/>
<path d="M268.798 165.812H239.595V167.081H268.798V165.812Z" fill="white"/>
<path d="M268.798 168.946H239.595V170.216H268.798V168.946Z" fill="white"/>
<path d="M259.213 171.992H239.595V173.262H259.213V171.992Z" fill="white"/>
<path d="M214.407 165.096C214.568 165.111 214.729 165.113 214.891 165.104C215.217 165.104 215.538 165.026 215.827 164.877C216.118 164.719 216.335 164.453 216.432 164.136L216.417 164.129C216.221 164.31 215.934 164.409 215.51 164.409C214.701 164.409 213.945 163.872 213.945 162.866C213.945 161.883 214.754 161.083 215.872 161.083C217.247 161.083 217.829 162.118 217.829 163.214C217.829 164.219 217.519 164.96 216.96 165.459C216.457 165.912 215.758 166.139 214.889 166.154C214.728 166.158 214.566 166.153 214.405 166.139L214.407 165.096ZM215.328 162.775C215.328 163.123 215.501 163.456 215.909 163.456C216.174 163.456 216.333 163.342 216.412 163.221C216.454 163.124 216.473 163.017 216.465 162.911C216.472 162.526 216.321 162.065 215.867 162.065C215.563 162.065 215.322 162.345 215.33 162.775H215.328Z" fill="white"/>
<path d="M218.075 166.971C218.342 166.224 218.542 165.455 218.672 164.672L220.026 164.597C219.76 165.399 219.407 166.17 218.975 166.895L218.075 166.971Z" fill="white"/>
<path d="M220.544 166.046V165.204L221.227 164.607C222.227 163.745 222.735 163.232 222.742 162.733C222.742 162.377 222.508 162.12 222.007 162.12C221.598 162.12 221.227 162.325 220.954 162.521L220.583 161.546C220.961 161.266 221.583 161.032 222.28 161.032C223.424 161.032 224.106 161.651 224.106 162.623C224.106 163.409 223.545 164.047 222.961 164.521L222.477 164.898V164.913H224.182V166.05L220.544 166.046Z" fill="white"/>
<path d="M225.09 160.931H226.453V163.091H226.468C226.574 162.902 226.688 162.713 226.793 162.532L227.775 160.931H229.479L227.848 163.109L229.54 166.045H227.948L226.866 163.973L226.454 164.497V166.045H225.09V160.931Z" fill="white"/>
<path d="M234.257 164.23C234.234 163.65 234.226 162.974 234.226 162.181H234.195C234.038 162.851 233.827 163.605 233.662 164.166L233.159 165.933H232.099L231.68 164.174C231.545 163.625 231.395 162.874 231.274 162.182H231.251C231.221 162.898 231.198 163.651 231.175 164.231L231.092 166.047H229.839L230.151 161.046H232.004L232.331 162.392C232.473 162.949 232.621 163.619 232.725 164.228H232.747C232.889 163.619 233.052 162.912 233.201 162.386L233.58 161.046H235.387L235.639 166.047H234.318L234.257 164.23Z" fill="white"/>
<path d="M255.98 97.6047C255.965 97.5679 255.949 97.531 255.934 97.495C255.949 97.531 255.965 97.5679 255.98 97.6047Z" fill="white"/>
<path d="M255.934 97.495L255.906 97.4297L255.934 97.495Z" fill="white"/>
<path d="M255.905 97.4297C255.899 97.4155 255.893 97.4004 255.886 97.3853C255.893 97.4004 255.899 97.418 255.905 97.4297Z" fill="white"/>
<path d="M256.409 99.0328C256.409 99.0118 256.401 98.9909 256.398 98.97C256.398 98.9892 256.406 99.0085 256.409 99.0278V99.0328Z" fill="white"/>
<path d="M141.683 62.266L134.539 68.6263H93.212C92.6691 68.627 92.1486 68.8431 91.765 69.2273C91.3813 69.6114 91.1658 70.1321 91.1658 70.675V107.249L84.8951 112.833V70.6633C84.8951 68.4366 85.7795 66.3011 87.3537 64.7264C88.928 63.1517 91.0632 62.2667 93.2899 62.266H141.683Z" fill="#88CADB"/>
<path opacity="0.62" d="M134.539 68.6263L91.1657 107.249V70.675C91.1657 70.1317 91.3815 69.6106 91.7657 69.2264C92.1499 68.8422 92.671 68.6263 93.2143 68.6263H134.539Z" fill="white"/>
<path d="M145.916 189.381L139.545 195.652H93.2898C92.1871 195.652 91.0951 195.434 90.0763 195.012C89.0575 194.59 88.1318 193.972 87.3521 193.192C86.5723 192.412 85.9538 191.487 85.5318 190.468C85.1097 189.449 84.8925 188.357 84.8925 187.254V158.869L91.1633 153.173V187.33C91.1633 187.874 91.3791 188.395 91.7633 188.779C92.1475 189.163 92.6686 189.379 93.2119 189.379L145.916 189.381Z" fill="#88CADB"/>
<path d="M246.04 109.05L249.866 109.359L249.85 109.56L246.023 109.252L246.04 109.05Z" fill="#92C6D4"/>
<path d="M245.945 98.8869L245.879 98.6963L250.242 97.1785C250.232 96.7495 250.229 95.4745 250.229 95.4167L250.228 95.348L253.496 94.053L253.57 94.2405L250.43 95.4844C250.431 95.7829 250.436 96.9626 250.446 97.245L250.449 97.3197L245.945 98.8869Z" fill="#92C6D4"/>
<path d="M252.14 94.7899L253.293 103.901L253.093 103.926L251.94 94.8152L252.14 94.7899Z" fill="#92C6D4"/>
<path d="M254.722 103.747L254.924 103.745L254.954 108.41L254.752 108.411L254.722 103.747Z" fill="#92C6D4"/>
<path d="M249.496 93.3718L249.57 93.5595L247.077 94.5423L247.003 94.3546L249.496 93.3718Z" fill="#92C6D4"/>
<path d="M246.007 109.764L245.993 109.864L245.979 109.964L245.91 109.954L245.809 109.94L245.057 109.834L245.057 109.834L245.049 109.629L245.049 109.629L245.822 109.738L245.887 109.747L245.923 109.753L246.007 109.764Z" fill="#92C6D4"/>
<path d="M246.104 106.696L246.072 106.895L246.008 106.885L244.943 106.714L244.94 106.714L244.933 106.508L244.935 106.509L246.021 106.683L246.104 106.696Z" fill="#92C6D4"/>
<path d="M245.147 95.6652L245.069 95.6965L244.55 95.9023L244.536 95.9076L244.527 95.6505L244.541 95.6506L244.889 95.6589L245.06 95.6633L245.147 95.6652Z" fill="#92C6D4"/>
<path d="M245.185 95.7591L245.094 95.795L244.554 96.0092L244.554 96.0094L244.54 96.0145L244.532 95.8004L244.546 95.7954L244.889 95.6589L245.044 95.5977L245.11 95.5714L245.147 95.6652L245.185 95.7591Z" fill="#92C6D4"/>
<path d="M251.844 106.382L251.78 108.004L251.511 114.849L251.309 114.857L251.572 108.173L251.635 106.567L250.382 106.465L250.281 106.457L250.181 106.449L246.26 106.129L246.26 106.129L246.208 106.125L246.216 106.024L246.225 105.924L246.273 105.928L250.197 106.247L250.297 106.256L250.398 106.264L251.844 106.382Z" fill="#92C6D4"/>
<path d="M250.105 111.267L249.954 113.644L249.395 113.598L249.107 113.575L248.342 113.512L248.25 114.971L248.047 114.979L248.153 113.293L249.184 113.378L249.307 113.389L249.766 113.426L249.883 111.572L249.904 111.254L250.105 111.267Z" fill="#92C6D4"/>
<path d="M250.137 109.439L249.943 109.385L249.941 109.391C249.965 109.248 250.27 105.31 250.386 103.805L250.393 103.713L257.063 103.629L257.066 103.831L250.58 103.911C250.449 105.62 250.16 109.357 250.137 109.439Z" fill="#92C6D4"/>
<path d="M258.497 105.548C258.521 105.474 258.559 105.405 258.61 105.347C259.053 104.864 259.208 106.205 259.266 106.529C259.359 107.043 259.392 107.565 259.401 108.086C259.405 108.337 259.229 109.429 259.371 109.605C258.901 109.022 258.777 107.867 258.574 107.152C258.423 106.624 258.226 105.596 258.675 105.163C258.779 105.063 258.944 105.01 259.072 105.077C259.183 105.135 259.236 105.263 259.273 105.383C259.526 106.223 259.34 107.132 259.462 108C259.552 108.633 259.804 109.273 259.647 109.893C259.59 109.852 259.544 109.799 259.511 109.737C259.478 109.676 259.46 109.607 259.458 109.537" fill="#111111"/>
<path d="M250.72 106.012C250.72 106.012 251.636 106.205 252.605 107.784C252.605 107.784 252.64 104.637 251.74 104.671C251.74 104.672 251.036 104.654 250.72 106.012Z" fill="#070208"/>
<path d="M237.048 115.566C235.52 115.623 234.218 113.97 234.139 111.873C234.061 109.776 235.236 108.03 236.764 107.973C238.292 107.915 239.594 109.569 239.673 111.666C239.751 113.763 238.576 115.509 237.048 115.566Z" fill="#AF0C0C"/>
<path d="M239.589 111.656C239.652 113.341 239.068 114.73 238.285 114.76C237.501 114.789 236.815 113.447 236.752 111.762C236.689 110.077 237.273 108.688 238.056 108.658C238.84 108.629 239.526 109.971 239.589 111.656Z" fill="#AF0C0C"/>
<path d="M259.437 109.685C259.554 112.818 258.683 115.393 257.491 115.438C256.299 115.482 255.237 112.979 255.12 109.847C255.003 106.714 255.874 104.139 257.067 104.094C258.259 104.05 259.32 106.553 259.437 109.685Z" fill="#CC0000"/>
<path d="M259.037 109.821C259.116 111.917 258.799 113.63 258.329 113.647C257.86 113.665 257.416 111.98 257.337 109.885C257.259 107.789 257.576 106.076 258.046 106.058C258.515 106.041 258.959 107.725 259.037 109.821Z" fill="#BB1010"/>
<path d="M258.988 109.948C259.04 111.354 258.828 112.501 258.513 112.513C258.198 112.525 257.901 111.396 257.848 109.991C257.795 108.587 258.008 107.438 258.323 107.426C258.637 107.415 258.935 108.544 258.988 109.948Z" fill="#F3F5F4"/>
<path d="M224.496 117.59C222.321 117.672 220.468 115.318 220.357 112.334C220.245 109.35 221.917 106.865 224.092 106.783C226.266 106.702 228.12 109.055 228.231 112.04C228.343 115.024 226.671 117.509 224.496 117.59Z" fill="#AF0C0C"/>
<path d="M227.612 112.288C227.707 114.816 226.723 116.905 225.416 116.954C224.108 117.003 222.971 114.993 222.876 112.465C222.782 109.937 223.765 107.848 225.073 107.799C226.381 107.751 227.518 109.76 227.612 112.288Z" fill="#CC0000"/>
<path d="M227.062 112.582C227.126 114.295 226.562 115.707 225.803 115.736C225.043 115.764 224.376 114.399 224.311 112.685C224.247 110.972 224.811 109.561 225.571 109.532C226.331 109.504 226.998 110.87 227.062 112.582Z" fill="#CACCCF"/>
<path d="M253.452 111.025C253.462 111.311 253.458 111.599 253.438 111.885C253.433 111.976 253.424 112.059 253.418 112.134C253.401 112.299 253.379 112.46 253.353 112.618C253.165 113.756 252.732 114.745 252.138 115.448C251.57 116.121 250.855 116.531 250.065 116.561C248.564 116.617 247.225 115.276 246.617 113.324C246.414 112.664 246.299 111.981 246.275 111.292C246.233 110.157 246.426 109.096 246.79 108.212C247.384 106.77 248.433 105.8 249.661 105.754C249.861 105.747 250.062 105.764 250.258 105.806C250.421 105.84 250.58 105.891 250.733 105.955C250.759 105.966 250.785 105.978 250.811 105.99C251.135 106.138 251.441 106.352 251.723 106.623C252.031 106.917 252.308 107.278 252.547 107.691C252.586 107.759 252.624 107.828 252.661 107.898C252.661 107.899 252.661 107.9 252.661 107.9C253.118 108.772 253.408 109.85 253.452 111.025Z" fill="#CC0000"/>
<path d="M252.902 111.018C252.981 113.139 252.267 114.888 251.307 114.924C250.346 114.96 249.503 113.269 249.424 111.148C249.344 109.027 250.059 107.278 251.019 107.242C251.98 107.206 252.823 108.897 252.902 111.018Z" fill="#BB1010"/>
<path d="M252.679 111.017C252.742 112.706 252.173 114.098 251.408 114.127C250.643 114.155 249.971 112.809 249.908 111.121C249.845 109.432 250.414 108.04 251.179 108.012C251.944 107.983 252.616 109.329 252.679 111.017Z" fill="#F3F5F4"/>
<path d="M229.23 95.8405C229.301 95.7767 229.371 95.7138 229.44 95.6519C229.371 95.7141 229.301 95.7768 229.23 95.8405Z" fill="white"/>
<path d="M230.272 94.9273C230.355 94.8573 230.437 94.7889 230.516 94.7231C230.437 94.7891 230.355 94.8571 230.272 94.9273Z" fill="white"/>
<path d="M230.516 94.7231C230.6 94.6544 230.681 94.5881 230.76 94.5241C230.681 94.5882 230.6 94.6546 230.516 94.7231Z" fill="white"/>
<path d="M230.829 94.4691C230.896 94.4153 230.962 94.3638 231.026 94.3148C230.962 94.3642 230.897 94.4157 230.829 94.4691Z" fill="white"/>
<path d="M231.074 94.2782C231.184 94.1934 231.289 94.1161 231.388 94.0461C231.289 94.116 231.184 94.1934 231.074 94.2782Z" fill="white"/>
<path d="M231.388 94.0461C231.417 94.0258 231.445 94.0061 231.472 93.9879C231.445 94.0067 231.417 94.026 231.388 94.0461Z" fill="white"/>
<path d="M256.183 97.4128C256.168 97.3751 256.153 97.3377 256.138 97.3006C256.153 97.3377 256.168 97.3751 256.183 97.4128Z" fill="white"/>
<path d="M256.137 97.3006L256.109 97.2346L256.137 97.3006Z" fill="white"/>
<path d="M256.109 97.2346L256.09 97.1897L256.109 97.2346Z" fill="white"/>
<path d="M255.697 96.3851C255.832 96.6337 255.966 96.9041 256.09 97.1898C255.492 95.8117 254.651 94.7942 254.651 94.7942C254.635 94.7741 254.619 94.754 254.602 94.7339C254.619 94.754 254.635 94.7741 254.652 94.7942C254.652 94.7941 255.18 95.4339 255.697 96.3851Z" fill="white"/>
<path d="M249.321 92.1799C249.326 92.1797 249.341 92.1777 249.365 92.1762L249.324 92.1802L249.321 92.1799Z" fill="white"/>
<path d="M249.695 92.1659C249.537 92.1635 249.424 92.1701 249.365 92.175C249.422 92.1707 249.536 92.164 249.695 92.1659Z" fill="white"/>
<path d="M249.698 92.1658L249.739 92.1665L249.698 92.1658Z" fill="white"/>
<path d="M259.83 109.266C259.765 109.659 259.644 110.015 259.448 110.302C259.448 110.302 259.456 109.778 259.444 109.069C259.419 107.457 259.297 104.884 258.768 105.298C258.699 105.373 258.638 105.455 258.586 105.543C258.461 105.747 258.358 105.963 258.279 106.189C258.126 106.614 257.991 107.205 257.966 107.992C257.964 108.031 257.963 108.07 257.963 108.11C257.959 108.323 257.963 108.55 257.978 108.791C257.992 109.152 257.986 109.513 257.957 109.874C257.941 110.077 257.917 110.295 257.88 110.511C257.809 110.926 257.691 111.338 257.501 111.645C257.348 111.892 257.148 112.071 256.886 112.131L255.433 112.332L253.352 112.619L253.343 112.619C253.377 112.459 253.401 112.297 253.416 112.134C253.424 112.058 253.431 111.975 253.437 111.885C253.522 110.512 253.255 109.141 252.661 107.901C252.661 107.9 252.661 107.899 252.661 107.899C252.643 107.861 252.624 107.823 252.605 107.785C252.605 107.785 252.605 107.783 252.605 107.779C252.604 107.758 252.6 107.696 252.592 107.6C252.544 106.997 252.354 105.115 251.837 104.778C251.801 104.753 251.759 104.737 251.716 104.73C251.549 104.703 251.352 104.829 251.121 105.179C251.044 105.296 251.037 105.363 250.914 105.696C250.912 105.7 250.911 105.705 250.909 105.71C250.878 105.794 250.846 105.888 250.811 105.991C250.806 106.005 250.801 106.02 250.797 106.035C250.634 106.527 250.498 107.028 250.389 107.534C250.308 107.913 250.233 108.329 250.174 108.776C250.153 108.939 250.134 109.107 250.117 109.278C250.038 110.083 250.029 110.893 250.09 111.699L250.084 111.724C250.075 111.771 250.048 111.883 250.007 112.03C249.998 112.061 249.988 112.093 249.978 112.125L249.975 112.134C249.908 112.35 249.807 112.614 249.667 112.845C249.608 112.947 249.537 113.042 249.457 113.13C249.457 113.13 248.372 113.209 246.617 113.325L246.436 113.337C246.048 113.363 245.629 113.39 245.184 113.418L245.181 113.418L244.78 113.444L244.75 113.445C243.17 113.545 241.297 113.657 239.298 113.764L239.28 113.765C238.609 113.801 237.925 113.837 237.232 113.87C236.395 113.912 235.546 113.951 234.697 113.988C232.388 114.087 230.077 114.165 227.989 114.197C227.814 114.2 227.64 114.203 227.469 114.205C227.284 114.207 227.101 114.209 226.92 114.21C226.077 114.217 225.28 114.215 224.546 114.202C224.035 114.194 223.554 114.18 223.11 114.161C222.871 114.15 222.643 114.138 222.426 114.124C222.338 114.118 222.251 114.113 222.167 114.106C222.095 114.101 222.025 114.096 221.956 114.09C221.853 114.082 221.752 114.073 221.655 114.063C221.399 114.039 221.167 114.01 220.96 113.978C220.96 113.978 220.607 113.459 220.394 112.852C220.374 112.795 220.356 112.737 220.338 112.678C220.278 112.475 220.237 112.268 220.235 112.072C220.234 112.043 220.236 112.014 220.237 111.986C220.237 111.986 220.071 107.068 221.237 105.024C221.237 105.024 221.208 104.623 221.305 104.073C221.36 103.765 221.447 103.464 221.566 103.175L221.566 103.173C221.688 102.876 221.849 102.596 222.046 102.342C222.155 102.201 222.276 102.07 222.407 101.949C222.426 101.932 222.445 101.914 222.464 101.897L222.493 101.872C222.522 101.846 222.553 101.821 222.583 101.797L222.614 101.772C222.625 101.764 222.635 101.756 222.646 101.748L222.678 101.724C222.701 101.706 222.725 101.689 222.749 101.672C222.769 101.658 222.789 101.644 222.81 101.63L222.844 101.608C222.866 101.593 222.889 101.579 222.912 101.564L222.915 101.562L222.945 101.544L222.985 101.519C222.993 101.515 223 101.51 223.008 101.506C223.224 101.382 223.452 101.279 223.688 101.199C223.688 101.199 224.265 100.61 225.122 99.7598L225.146 99.7364C225.167 99.7149 225.189 99.6933 225.211 99.6718C225.24 99.6434 225.269 99.6146 225.298 99.5857C225.471 99.4136 225.654 99.2334 225.844 99.0476C225.863 99.0291 225.882 99.0106 225.901 98.9919C225.942 98.9513 225.984 98.9102 226.027 98.8687L226.195 98.7043C226.377 98.526 226.565 98.3434 226.756 98.1583L226.87 98.0487C226.912 98.008 226.954 97.9673 226.997 97.927L227.121 97.8068C227.235 97.698 227.35 97.5887 227.465 97.4788L227.567 97.3813C227.695 97.2598 227.824 97.1382 227.953 97.0168C227.971 97 227.989 96.9827 228.007 96.9655C228.032 96.9422 228.056 96.919 228.081 96.896C228.099 96.879 228.117 96.8624 228.135 96.8455C228.208 96.7771 228.281 96.709 228.354 96.6413L228.452 96.5504C228.649 96.3673 228.846 96.187 229.039 96.0108L229.101 95.9538L229.226 95.8411L229.317 95.76L229.332 95.7464L229.349 95.7307L229.436 95.6529C229.58 95.5232 229.722 95.3981 229.861 95.2775L229.951 95.2004L230.009 95.1498L230.066 95.1002C230.135 95.0418 230.202 94.9842 230.268 94.9271C230.28 94.9175 230.291 94.9075 230.303 94.8978C230.314 94.8881 230.321 94.8828 230.33 94.875C230.37 94.8406 230.412 94.8063 230.452 94.773L230.512 94.7231L230.574 94.6719L230.636 94.6217C230.676 94.5886 230.716 94.5566 230.756 94.5241L230.775 94.5095L230.825 94.4689L230.876 94.4291L230.974 94.3519L231.023 94.3145C231.038 94.3023 231.054 94.2899 231.07 94.2781L231.111 94.2468L231.152 94.2161L231.192 94.1858C231.205 94.1762 231.218 94.1662 231.232 94.1565C231.258 94.1371 231.284 94.1181 231.31 94.0998C231.336 94.0814 231.36 94.0633 231.385 94.0458C231.391 94.0421 231.396 94.0382 231.402 94.0342C231.424 94.0183 231.447 94.0029 231.469 93.9878C231.741 93.8002 231.963 93.6764 232.116 93.6348C232.116 93.6348 239.907 92.3574 249.315 92.1793L249.32 92.1791L249.346 92.1765C249.351 92.1763 249.356 92.1761 249.362 92.1759L249.385 92.175L249.412 92.174L249.414 92.174C249.451 92.1726 249.497 92.1696 249.554 92.1687C249.569 92.1682 249.585 92.1676 249.601 92.1684L249.622 92.1676L249.661 92.1678L249.691 92.1683C249.703 92.1679 249.716 92.1687 249.728 92.169C250.599 92.1903 252.714 92.4937 254.598 94.7365L254.623 94.7661C254.631 94.7759 254.639 94.7862 254.647 94.796L254.653 94.8026C254.656 94.8064 254.659 94.8103 254.662 94.8143C254.665 94.8183 254.672 94.8257 254.677 94.8316C254.681 94.8374 254.682 94.8388 254.685 94.8424C254.688 94.8461 254.695 94.8537 254.699 94.8595C254.7 94.86 254.7 94.8606 254.7 94.8613C255.628 96.0069 256.341 97.2775 256.94 98.6027C256.98 98.6908 257.019 98.779 257.058 98.8674C257.097 98.9559 257.137 99.0445 257.177 99.1334C257.202 99.1903 257.225 99.2474 257.249 99.3043C257.319 99.471 257.388 99.6385 257.454 99.8068C257.581 100.123 257.703 100.44 257.821 100.76C258.286 102.014 258.701 103.286 259.145 104.526C259.144 104.526 260.151 107.342 259.83 109.266Z" fill="#E83535"/>
<path d="M256.456 98.2091C256.51 98.4036 256.557 98.6017 256.592 98.8016C256.556 98.6017 256.51 98.4036 256.456 98.2091Z" fill="white"/>
<path d="M256.603 98.8649C256.6 98.8444 256.596 98.8224 256.592 98.801C256.596 98.8215 256.599 98.8402 256.603 98.8598C256.603 98.8615 256.603 98.8632 256.603 98.8649Z" fill="white"/>
<path d="M225.1 99.7383L224.454 100.36L224.017 100.231L224.103 99.6524C224.905 98.206 226.192 98.6352 226.192 98.6352L225.1 99.7383Z" fill="#AF0C0C"/>
<path d="M252.829 93.3386C252.829 93.3386 249.914 91.3467 250.055 93.6676C250.055 93.6676 250.78 99.6868 251.807 100.623C251.807 100.623 255.979 99.641 256.57 98.9348C256.784 98.68 254.679 94.3058 252.829 93.3386Z" fill="#CC0000"/>
<path d="M254.183 98.4635C254.183 98.4635 254.05 98.5544 253.845 98.6697C253.361 98.9419 252.473 99.3484 251.985 99.0056C251.925 98.9607 251.871 98.9075 251.826 98.8473C251.693 98.6802 251.564 98.4297 251.443 98.1384C251.443 98.1361 251.441 98.1339 251.44 98.1315C251.435 98.1202 251.43 98.1086 251.426 98.097C251.332 97.8696 251.244 97.6188 251.162 97.3643C251.095 97.1572 251.033 96.9477 250.977 96.7461C250.902 96.4797 250.837 96.2254 250.784 96.0095C250.737 95.8183 250.699 95.6563 250.674 95.5411C250.646 95.4202 250.632 95.3503 250.632 95.3503C250.591 95.1392 250.561 94.9261 250.543 94.7118C250.493 94.1368 250.513 93.362 250.958 93.2285C250.958 93.2285 251.324 93.144 251.524 93.1786C251.574 93.1873 251.614 93.2034 251.634 93.2304C251.775 93.414 251.923 93.6188 252.075 93.8444C252.15 93.9558 252.226 94.0721 252.303 94.1933C252.419 94.3753 252.536 94.5699 252.653 94.7745C252.782 94.9987 252.909 95.2355 253.036 95.4849C253.036 95.4857 253.037 95.4865 253.037 95.4873C253.254 95.9165 253.464 96.3825 253.66 96.8802C253.671 96.9085 253.683 96.9365 253.693 96.9651C253.881 97.456 254.045 97.9561 254.183 98.4635Z" fill="#CDEFF8"/>
<path d="M255.684 97.8394C255.684 97.8394 255.158 98.0611 254.772 98.1766C254.759 98.1806 254.745 98.1847 254.732 98.1883C254.56 98.2376 254.422 98.262 254.382 98.2306C254.334 98.1924 254.166 97.7454 253.93 97.1388C253.889 97.0311 253.844 96.9182 253.798 96.8017C253.79 96.7813 253.782 96.7623 253.775 96.7425C253.752 96.6864 253.729 96.6295 253.707 96.572C253.612 96.3355 253.511 96.0887 253.405 95.8417C253.34 95.6887 253.273 95.5361 253.204 95.385C252.937 94.7976 252.652 94.2484 252.38 93.8873C252.38 93.8873 252.313 93.7941 252.301 93.7161C252.29 93.65 252.319 93.5945 252.46 93.6139L252.471 93.6195C252.557 93.6647 253.139 93.9819 253.8 94.621C253.881 94.6994 253.963 94.7826 254.046 94.8707C254.098 94.9259 254.149 94.9825 254.202 95.0417C254.277 95.1271 254.352 95.2166 254.426 95.3103L254.428 95.3123C254.633 95.5712 254.82 95.8446 254.986 96.1305C255.065 96.2663 255.141 96.4084 255.213 96.5568C255.291 96.7163 255.364 96.8825 255.432 97.056C255.532 97.3117 255.616 97.5733 255.684 97.8394Z" fill="#CDEFF8"/>
<path d="M232.534 93.9544C233.23 93.7886 244.48 92.7803 249.063 92.9468C249.25 92.9537 249.364 93.1668 249.376 93.3557C249.445 94.5302 249.63 98.9783 248.658 98.6432C248.658 98.6432 231.905 99.1869 227.283 99.52C226.876 99.5493 226.642 99.0582 226.918 98.7534C228.195 97.344 230.745 94.6928 232.46 93.9783C232.484 93.9683 232.509 93.9603 232.534 93.9544Z" fill="#CC0000"/>
<path d="M248.804 94.5921C248.846 96.04 248.804 98.3913 248.079 98.1693C248.079 98.1693 245.515 98.2538 242.18 98.3738C240.534 98.4333 238.701 98.501 236.895 98.5714C233.386 98.7089 229.981 98.8571 228.259 98.9726L228.185 98.9777C227.806 99.0037 227.59 98.5933 227.848 98.3372C229.041 97.1537 231.423 94.924 233.022 94.3199C233.045 94.3113 233.068 94.3045 233.091 94.2995C233.339 94.2455 235.018 94.0825 237.237 93.9107C239.67 93.7209 242.753 93.518 245.309 93.4305C246.527 93.3889 247.626 93.3735 248.476 93.398C248.65 93.4031 248.756 93.5814 248.766 93.7392C248.778 93.9342 248.792 94.2358 248.804 94.5921Z" fill="#CDEFF8"/>
<path d="M244.779 113.443C238.352 113.849 227.036 114.464 222.166 114.107L222.115 114.009C222.029 113.768 222.038 113.503 222.141 113.268C222.305 112.907 222.44 112.404 222.567 112.318L222.592 112.306C222.725 112.273 222.822 107.588 225.072 106.991C225.072 106.991 227.27 106.022 228.774 105.543C229.399 105.345 229.904 105.232 230.084 105.306C230.697 105.562 236.244 105.113 236.244 105.113C236.244 105.113 236.54 105.142 237.008 105.213C238.52 105.445 241.839 106.119 242.833 107.68C242.833 107.68 244.289 110.222 244.423 111.598L244.779 113.443Z" fill="#CC0000"/>
<path d="M224.113 101.851C223.968 101.85 222.714 102.2 222.047 102.343C222.411 101.876 222.935 101.457 223.692 101.199C223.692 101.199 224.268 100.61 225.125 99.76L225.196 99.7095L248.951 98.6141C249.211 99.1258 248.205 99.8976 248.205 99.8976" fill="#F44E4E"/>
<path d="M244.779 113.443C238.352 113.85 227.036 114.464 222.166 114.107L222.115 114.009C222.029 113.768 222.038 113.503 222.141 113.268C222.305 112.907 222.44 112.404 222.567 112.317L222.592 112.306L223.803 112.611C224.923 112.893 226.075 113.027 227.229 113.009C229.421 112.973 231.614 112.935 233.806 112.892C236.096 112.847 238.458 112.744 240.733 112.523C241.96 112.404 243.221 111.916 244.423 111.598L244.622 112.59L244.779 113.443Z" fill="#AF0C0C"/>
<path d="M238.172 108.431C238.179 108.601 238.152 108.771 238.092 108.931C238.033 109.09 237.943 109.237 237.827 109.362C237.711 109.487 237.572 109.587 237.417 109.659C237.262 109.73 237.095 109.769 236.925 109.776L228.893 110.076C228.721 110.085 228.55 110.059 228.388 110.001C228.226 109.943 228.078 109.853 227.951 109.737C227.825 109.621 227.722 109.481 227.65 109.325C227.578 109.169 227.538 109 227.531 108.829C227.525 108.657 227.552 108.486 227.613 108.325C227.673 108.164 227.765 108.017 227.882 107.892C228 107.766 228.141 107.666 228.298 107.596C228.455 107.526 228.624 107.487 228.796 107.483L236.828 107.183C237.171 107.17 237.506 107.294 237.758 107.528C238.011 107.762 238.16 108.087 238.172 108.431Z" fill="#AF0C0C"/>
<path d="M238.172 108.431C238.204 108.561 238.203 108.696 238.17 108.826C238.137 108.956 238.073 109.075 237.984 109.175C237.894 109.274 237.781 109.35 237.656 109.396C237.53 109.442 237.395 109.456 237.263 109.438L229.231 109.738C229.071 109.801 228.9 109.828 228.729 109.817C228.557 109.806 228.391 109.758 228.24 109.675C228.09 109.593 227.96 109.478 227.859 109.339C227.758 109.201 227.688 109.041 227.656 108.873C227.623 108.704 227.628 108.531 227.67 108.365C227.713 108.198 227.791 108.043 227.9 107.911C228.009 107.778 228.145 107.671 228.3 107.597C228.455 107.523 228.624 107.485 228.796 107.484L236.828 107.183C237.171 107.17 237.506 107.295 237.758 107.529C238.01 107.762 238.159 108.087 238.172 108.431Z" fill="#EC2C2C"/>
<path d="M257.82 100.76C257.713 100.899 257.584 101.02 257.439 101.118C257.013 101.418 256.494 101.595 255.996 101.728C253.772 102.32 251.295 101.976 249.078 101.549C249.078 101.549 248.926 100.936 248.702 100.66C249.01 101.04 250.798 100.731 251.167 100.684C253.318 100.411 255.072 99.5338 256.943 98.6012C257.263 99.3081 257.55 100.031 257.82 100.76Z" fill="#F44E4E"/>
<path d="M250.117 109.278C250.038 110.083 250.029 110.893 250.09 111.699L250.084 111.723C250.075 111.771 250.048 111.883 250.006 112.03C249.998 112.06 249.988 112.093 249.978 112.125L249.975 112.134C249.908 112.35 249.807 112.614 249.667 112.845C249.607 112.947 249.537 113.042 249.457 113.13C249.457 113.13 248.372 113.209 246.617 113.325L246.436 113.337C246.048 113.363 245.629 113.39 245.184 113.418L245.181 113.418L244.779 113.444L244.428 111.739C244.422 111.673 244.412 111.604 244.4 111.533C244.546 111.542 244.692 111.546 244.839 111.545C245.885 111.543 246.915 111.29 247.843 110.808C248.771 110.326 249.57 109.629 250.174 108.775C250.153 108.939 250.133 109.107 250.117 109.278Z" fill="#BB1010"/>
<path d="M222.839 110.958C222.691 111.794 222.645 112.436 222.597 112.448L222.572 112.459C222.445 112.547 222.31 113.049 222.146 113.41C221.973 113.796 222.158 114.104 222.158 114.104L221.956 114.091C221.852 114.083 221.753 114.074 221.656 114.064C221.4 114.039 221.167 114.01 220.96 113.979C220.96 113.979 220.607 113.459 220.395 112.853C220.375 112.796 220.356 112.738 220.339 112.679C220.278 112.476 220.238 112.269 220.236 112.072C220.638 112.059 221.028 111.928 221.356 111.695C222.022 111.214 222.389 110.415 222.569 109.614C222.575 109.73 222.588 109.845 222.606 109.959C222.655 110.292 222.748 110.626 222.839 110.958Z" fill="#BB1010"/>
<path d="M244.779 113.444L244.428 111.739C244.421 111.673 244.412 111.604 244.399 111.533C244.157 110.125 242.837 107.822 242.837 107.822C241.536 105.778 236.249 105.255 236.249 105.255C236.249 105.255 230.702 105.705 230.089 105.448C229.476 105.192 225.077 107.133 225.077 107.133C223.655 107.511 223.093 109.522 222.839 110.959C222.691 111.795 222.646 112.436 222.598 112.448L222.572 112.46C222.446 112.547 222.311 113.049 222.147 113.411C221.973 113.796 222.158 114.105 222.158 114.105L221.956 114.092L221.66 114.073L221.656 114.065C221.634 114.013 221.533 113.721 221.753 113.233C221.806 113.116 221.858 112.977 221.908 112.843C222.016 112.554 222.095 112.343 222.219 112.201C222.231 112.122 222.246 112.008 222.26 111.902C222.325 111.418 222.42 110.705 222.606 109.96C222.948 108.586 223.599 107.101 224.934 106.725C225.447 106.499 228.816 105.034 229.883 104.994C230.032 104.989 230.154 105.007 230.258 105.05C230.296 105.062 230.606 105.131 232.213 105.071C233.972 105.006 236.194 104.826 236.217 104.824L236.255 104.821L236.294 104.825C236.519 104.847 241.806 105.394 243.205 107.59C243.274 107.71 244.623 110.076 244.841 111.545C244.848 111.59 244.853 111.633 244.858 111.675L245.182 113.419L245.185 113.433L244.779 113.444Z" fill="#AF0C0C"/>
<g opacity="0.51">
<path opacity="0.51" d="M249.085 101.737C248.954 102.53 248.888 103.674 248.056 103.982C246.959 104.386 245.565 104.469 244.408 104.62C239.589 105.245 240.921 104.776 240.04 104.482C240.04 104.482 241.36 103.285 243.312 102.204C243.774 101.947 244.321 101.725 244.968 101.566C244.968 101.566 246.544 101.036 247.33 100.662C247.805 100.436 248.375 100.505 248.766 100.857C248.899 100.976 249.007 101.124 249.061 101.305C249.103 101.445 249.111 101.593 249.085 101.737Z" fill="#AF0C0C"/>
</g>
<path d="M237.008 105.213C236.676 105.272 236.41 105.344 236.257 105.431C235.445 105.895 232.832 108.837 229.974 105.734C229.974 105.734 229.446 105.644 228.774 105.543C229.398 105.345 229.903 105.232 230.083 105.306C230.696 105.562 236.243 105.113 236.243 105.113C236.243 105.113 236.54 105.142 237.008 105.213Z" fill="#AF0C0C"/>
<path d="M225.459 103.264C225.459 103.264 230.587 103.296 230.987 103.145C230.987 103.145 232.706 101.377 235.254 102.959C235.254 102.959 242.086 102.649 242.69 102.518C242.69 102.518 241.251 103.821 241.064 104.621C241.064 104.621 237.057 104.649 236.245 105.112C235.432 105.575 232.82 108.518 229.961 105.415C229.961 105.415 226.676 104.857 226.067 104.952C226.068 104.952 225.861 104.332 225.459 103.264Z" fill="#CC0000"/>
<g opacity="0.51">
<path opacity="0.51" d="M226.111 105.197L224.296 105.272C223.585 105.302 222.664 105.502 221.969 105.359C220.685 105.097 221.58 103.229 222.068 102.608C222.324 102.282 222.64 102.006 222.999 101.797C223.175 101.695 223.383 101.662 223.582 101.706C223.78 101.75 223.955 101.867 224.072 102.034C224.295 102.353 224.592 102.746 224.88 103.036L224.882 103.036C224.968 103.126 225.061 103.209 225.16 103.284C225.47 103.514 225.734 103.801 225.937 104.13C226.215 104.58 227.199 104.956 227.341 105.03C227.144 105.037 226.308 105.189 226.111 105.197Z" fill="#AF0C0C"/>
</g>
<path d="M226.692 104.896L226.101 104.92L224.286 104.995C223.575 105.025 222.654 105.225 221.959 105.083C220.955 104.877 221.283 103.691 221.706 102.887C221.807 102.692 221.925 102.506 222.057 102.331C222.134 102.234 222.215 102.141 222.302 102.053C222.506 101.846 222.737 101.666 222.989 101.519C223.165 101.417 223.373 101.384 223.571 101.428C223.77 101.472 223.945 101.589 224.062 101.756C224.285 102.075 224.582 102.468 224.87 102.758L224.871 102.758C224.958 102.848 225.051 102.931 225.15 103.006C225.46 103.236 225.724 103.524 225.927 103.852C226.055 104.059 226.197 104.281 226.327 104.467L226.347 104.497C226.492 104.701 226.619 104.858 226.692 104.896Z" fill="#FFEAD2"/>
<path d="M249.078 101.549C248.947 102.343 248.881 103.487 248.049 103.794C246.952 104.199 245.564 104.349 244.401 104.432C243.239 104.515 242.071 104.593 240.921 104.776C240.921 104.776 241.254 103.482 242.656 102.435C242.862 102.281 243.079 102.142 243.304 102.017C243.766 101.76 244.314 101.538 244.96 101.379C244.96 101.379 246.536 100.849 247.322 100.475C247.798 100.25 248.367 100.318 248.758 100.67C248.82 100.724 248.875 100.786 248.923 100.853C248.981 100.933 249.025 101.023 249.054 101.117C249.095 101.258 249.104 101.406 249.078 101.549Z" fill="#FFEAD2"/>
<path d="M257.957 109.874C257.941 110.077 257.917 110.295 257.88 110.511C257.809 110.926 257.691 111.338 257.501 111.645C257.348 111.892 257.148 112.071 256.886 112.131L255.433 112.332L253.352 112.619L253.343 112.619C253.377 112.459 253.401 112.297 253.416 112.134C253.424 112.058 253.431 111.975 253.437 111.885C253.522 110.512 253.255 109.141 252.661 107.901C252.661 107.9 252.661 107.899 252.661 107.899C252.643 107.861 252.624 107.823 252.605 107.785C252.605 107.785 252.605 107.783 252.605 107.779C252.604 107.758 252.6 107.696 252.592 107.6C253.206 108.361 254.062 108.927 254.979 109.283C255.927 109.65 256.94 109.811 257.957 109.874Z" fill="#BB1010"/>
<path d="M255.016 99.7579C255.067 99.867 255.112 99.978 255.155 100.09C255.176 100.146 255.198 100.202 255.218 100.258L255.249 100.342L255.278 100.428C255.355 100.654 255.429 100.882 255.492 101.113L255.516 101.199L255.54 101.285L255.586 101.458L255.629 101.632C255.643 101.69 255.658 101.748 255.67 101.807C255.723 102.039 255.775 102.273 255.817 102.507C255.839 102.625 255.861 102.742 255.879 102.86C255.897 102.978 255.919 103.095 255.934 103.214L255.959 103.391C255.967 103.45 255.976 103.509 255.982 103.568L256.025 103.923L256.06 104.279C256.067 104.339 256.07 104.398 256.075 104.458L256.089 104.636C256.093 104.696 256.099 104.755 256.102 104.814L256.112 104.993L256.122 105.172L256.127 105.261L256.13 105.351L256.142 105.708C256.145 105.827 256.145 105.947 256.146 106.066L256.148 106.245C256.149 106.305 256.147 106.365 256.147 106.424L256.142 106.782C256.127 107.259 256.107 107.736 256.068 108.214C255.992 109.168 255.866 110.118 255.709 111.066C255.96 110.136 256.141 109.189 256.25 108.232L256.271 108.052C256.277 107.992 256.285 107.932 256.29 107.872L256.321 107.512C256.325 107.452 256.331 107.392 256.335 107.332L256.345 107.151L256.364 106.79C256.38 106.307 256.384 105.824 256.364 105.341C256.343 104.859 256.306 104.377 256.246 103.898C256.185 103.418 256.102 102.942 255.995 102.471C255.89 101.999 255.758 101.534 255.6 101.077L255.539 100.907L255.474 100.738C255.454 100.681 255.429 100.626 255.408 100.57C255.386 100.514 255.362 100.459 255.337 100.404C255.244 100.182 255.137 99.9663 255.016 99.7579Z" fill="#CC0000"/>
<g opacity="0.33">
<path opacity="0.54" d="M253.037 95.4874L251.426 98.0971C251.332 97.8697 251.244 97.6189 251.162 97.3644C251.095 97.1573 251.033 96.9478 250.977 96.7462C250.902 96.4798 250.837 96.2255 250.784 96.0096C251.154 95.1377 251.722 94.044 252.075 93.844C252.15 93.9554 252.226 94.0717 252.303 94.1929C252.419 94.375 252.536 94.5696 252.653 94.7741C252.782 94.9983 252.909 95.2351 253.036 95.4845C253.037 95.4854 253.037 95.4864 253.037 95.4874Z" fill="white"/>
</g>
<g opacity="0.33">
<path opacity="0.54" d="M255.432 97.0551L254.732 98.1883C254.56 98.2376 254.422 98.262 254.382 98.2306C254.334 98.1924 254.166 97.7454 253.93 97.1388C253.889 97.031 253.844 96.9182 253.798 96.8017C253.79 96.7813 253.782 96.7623 253.775 96.7425C253.966 96.2534 254.183 95.7752 254.427 95.3101L254.428 95.3121C254.634 95.5709 254.821 95.8444 254.987 96.1303C255.066 96.266 255.141 96.4081 255.214 96.5566C255.291 96.7154 255.365 96.8821 255.432 97.0551Z" fill="white"/>
</g>
<path d="M251.222 99.4129L251.474 100.053C251.474 100.053 255.191 100.337 256.11 99.1218C256.11 99.1218 256.262 96.4292 252.297 97.479C251.862 97.5945 252.347 99.2805 252.347 99.2805C252.347 99.2805 251.624 99.5241 251.222 99.4129Z" fill="#AF0C0C"/>
<g opacity="0.54">
<path opacity="0.54" d="M245.309 93.4309L236.895 98.5718C233.386 98.7092 229.981 98.8575 228.259 98.973C229.981 98.0068 233.715 95.9115 237.236 93.9111C239.67 93.7211 242.753 93.5184 245.309 93.4309Z" fill="white"/>
<path opacity="0.54" d="M248.804 94.5922C248.846 96.04 248.804 98.3914 248.079 98.1694C248.079 98.1694 245.515 98.2539 242.18 98.3738C244.555 97.0294 246.988 95.6445 248.804 94.5922Z" fill="white"/>
</g>
<path d="M248.772 101.444C246.747 102.269 244.636 103.012 242.504 103.027C242.71 102.873 242.927 102.734 243.152 102.609C243.614 102.352 244.162 102.13 244.808 101.97C244.808 101.97 246.384 101.441 247.17 101.067C247.646 100.842 248.215 100.91 248.607 101.262C248.668 101.316 248.724 101.378 248.772 101.444Z" fill="white"/>
<path d="M226.297 104.665C225.155 104.271 224.074 103.72 223.085 103.028C222.792 102.822 222.499 102.581 222.255 102.311C222.461 102.11 222.692 101.937 222.942 101.795C223.306 101.588 223.773 101.689 224.015 102.022C224.238 102.33 224.533 102.709 224.821 102.989L224.823 102.989C224.909 103.075 225.002 103.155 225.101 103.227C225.409 103.447 225.673 103.724 225.877 104.043C226.004 104.242 226.146 104.456 226.276 104.636C226.283 104.646 226.29 104.656 226.297 104.665Z" fill="white"/>
<path d="M275.094 62.266L268.631 68.6263H184.228L191.229 62.266H275.094Z" fill="#88CADB"/>
<path d="M204.464 189.378L197.505 195.649H155.109L162.026 189.378H204.464Z" fill="#88CADB"/>
<path d="M283.488 79.265V118.17L277.128 123.901V85.0315L283.488 79.265Z" fill="#88CADB"/>
<path opacity="0.62" d="M277.128 85.0314V123.901L204.463 189.378H162.026L277.128 85.0314Z" fill="white"/>
<path opacity="0.44" d="M268.631 68.6263L145.917 189.381H93.2123C92.6689 189.381 92.1479 189.165 91.7637 188.781C91.3795 188.397 91.1636 187.876 91.1636 187.332V153.173L184.228 68.6263H268.631Z" fill="white"/>
<path d="M191.439 72.8719C191.49 72.8359 191.54 72.7973 191.588 72.7571C191.545 72.8032 191.495 72.8419 191.439 72.8719Z" fill="#530905"/>
<path d="M191.439 72.8719C191.49 72.8359 191.54 72.7973 191.588 72.7571C191.545 72.8032 191.495 72.8419 191.439 72.8719Z" fill="#72120C"/>
<path d="M184.15 167.357C187.261 156.178 188.609 144.581 188.142 132.987C186.119 132.111 182.769 133.124 181.488 134.919C180.206 136.714 179.842 138.992 179.628 141.186C179.037 147.229 179.307 153.324 180.429 159.29C181.025 162.45 182.831 164.424 184.15 167.357Z" fill="#070208"/>
<path d="M188.138 70.8508C190.907 71.0016 193.125 67.8608 192.158 65.2719C192.104 65.1253 191.998 64.9561 191.842 64.9721C191.181 64.4695 190.234 64.586 189.482 64.9411C188.002 65.6404 186.886 67.1622 186.875 68.7988" fill="#530905"/>
<path d="M174.485 72.8962C173.547 75.6793 172.369 78.6342 170.323 80.7859C172.8 82.2689 175.234 83.8225 177.623 85.4468C178.105 85.7751 178.607 86.1294 178.862 86.6546C178.898 84.4206 179.474 82.2286 180.542 80.2658C181.303 78.8679 180.212 77.3042 179.253 76.0336C178.294 74.7631 176.934 73.8434 175.498 73.1575C175.176 73.0034 174.816 72.856 174.47 72.9456C174.448 73.031 174.515 72.8116 174.485 72.8962Z" fill="#F2AD94"/>
<path d="M188.536 71.2352C188.471 71.5543 188.407 71.85 188.355 72.1054C188.191 72.9275 187.977 73.7386 187.713 74.5344C187.678 74.6424 187.641 74.7496 187.604 74.8568C187.534 75.0587 187.461 75.258 187.384 75.4565C187.333 75.5905 187.28 75.7228 187.227 75.8552C187.166 76.0059 187.102 76.155 187.038 76.3049C186.787 76.8812 186.509 77.4429 186.205 77.9901L186.156 78.0739C186.147 78.0931 186.136 78.1107 186.125 78.1291C186.091 78.192 186.055 78.2539 186.018 78.3159C185.967 78.4047 185.914 78.4935 185.862 78.5806C185.836 78.6241 185.809 78.6643 185.778 78.7112C185.047 79.9224 184.228 81.2557 182.991 81.9953C181.4 82.9476 179.905 81.9115 178.501 81.105C177.893 80.7557 177.407 80.2322 176.937 79.7105C175.81 78.4541 174.695 77.1274 174.16 75.5294C173.942 74.8761 173.825 74.1893 173.711 73.5142C173.615 72.9405 173.518 72.3584 173.587 71.7813C173.649 71.2788 173.834 70.7995 174.128 70.3868C174.664 69.633 175.516 69.1639 176.366 68.7887C176.673 68.653 176.984 68.5269 177.298 68.4102C178.502 67.9591 179.75 67.6385 181.021 67.4537C181.748 67.3473 182.523 67.3825 183.227 67.1949C183.8 67.0444 184.386 66.9451 184.977 66.8984C185.535 66.8523 186.027 66.6379 186.586 66.5399C187.382 66.4 188.376 66.4293 188.697 67.3213C189.071 68.3524 188.793 69.973 188.536 71.2352Z" fill="#FCDCCD"/>
<path d="M188.535 71.2352C186.385 71.2687 184.24 69.968 183.332 68.0064C183.096 67.4939 183.348 68.1346 182.803 68.2812C182.259 68.4277 181.831 68.8423 181.442 69.2511C180.749 69.9839 180.084 70.7654 179.242 71.3215C178.399 71.8776 177.322 72.1858 176.368 71.8584C177.005 70.8533 177.038 69.5794 177.302 68.4101C178.505 67.9591 179.753 67.6385 181.025 67.4537C181.751 67.3473 182.527 67.3825 183.23 67.1949C183.804 67.0444 184.39 66.9451 184.981 66.8984C185.539 66.8523 186.03 66.6379 186.59 66.5399C187.385 66.4 188.379 66.4293 188.7 67.3213C189.07 68.3524 188.792 69.973 188.535 71.2352Z" fill="#F2AD94"/>
<path d="M189.059 69.6382C188.088 69.8785 186.83 69.4154 185.929 69.0318C185.619 68.9003 182.963 66.7762 182.663 67.1967L182.014 68.0937C181.891 68.2653 181.728 68.4051 181.54 68.5015C181.352 68.5979 181.143 68.6482 180.932 68.6482H179.976C179.826 69.0949 179.672 69.5376 179.514 69.9765C179.312 70.5435 179.228 71.2328 178.699 71.6106C178.245 71.9355 177.805 71.7362 177.293 71.7253C177.128 71.7213 176.963 71.7434 176.804 71.7906C176.456 70.6943 176.319 70.1156 175.296 70.0008C174.187 69.8769 173.384 72.0361 173.755 73.2672C173.882 73.7214 174.076 74.1541 174.33 74.5512C173.987 75.0814 173.597 75.6166 173.081 75.8913C172.196 76.3586 171.49 75.5127 171.033 74.8385C170.866 74.5948 170.719 74.336 170.578 74.0847C170.502 73.9448 170.422 73.7874 170.461 73.6333C170.495 73.5009 170.607 73.4071 170.708 73.3158C172.19 71.9757 171.735 70.2621 172.08 68.5418C172.391 66.9907 172.903 65.4253 173.677 64.0433C174.49 62.5919 175.508 61.1119 177.315 60.9184C177.672 60.8682 178.035 60.945 178.341 61.1354C178.029 60.9243 178.821 60.6178 178.909 60.6002C179.215 60.5399 179.629 60.5013 179.957 60.4662C181.22 60.3296 182.397 60.575 183.579 61.0223C185.073 61.5893 186.326 62.6689 187.864 63.1421C188.54 63.3395 189.238 63.449 189.942 63.4679C190.093 63.4679 191.653 63.2167 191.597 63.1329C193.109 65.5501 191.97 68.9187 189.059 69.6382Z" fill="#72120C"/>
<path d="M149.888 199.729C149.799 199.777 149.705 199.817 149.609 199.848C149.294 199.774 148.991 199.66 148.705 199.508C147.931 199.108 147.233 198.474 146.677 197.882C146.024 197.188 141.934 189.765 142.858 189.444C142.432 189.593 142.069 189.881 141.828 190.263C140.948 188.738 140.36 187.062 140.092 185.321C140.594 184.841 141.258 184.11 141.997 183.373C143.298 182.079 144.845 180.769 146.204 180.758C146.51 180.758 146.844 181.044 147.183 181.506C148.509 183.316 149.898 187.784 149.898 187.788C150.16 188.631 149.71 189.456 149.5 190.25C149.024 192.051 148.872 195.122 150.142 196.65C150.763 197.392 151.031 199.113 149.888 199.729Z" fill="#72120C"/>
<path d="M203.945 100.795L202.154 83.2331C202.154 83.2331 186.649 87.3714 182.07 99.706L196.327 108.364L203.945 100.795Z" fill="url(#paint0_linear)"/>
<path d="M200.724 104.397L204.149 101.474L203.945 100.792L200.672 100.315L196.513 103.588L200.724 104.397Z" fill="#75C1D4"/>
<path d="M193.526 206.838C193.526 206.838 189.359 207.747 187.861 207.801C186.57 207.846 185.298 207.614 184.017 207.504C182.819 207.504 181.404 207.039 180.295 207.174C180.255 207.553 180.25 207.928 180.236 208.311C179.589 208.457 174.017 207.635 174.078 207.316C174.14 206.981 174.139 206.06 174.166 205.014C174.171 204.834 174.176 204.651 174.181 204.467C174.248 202.624 174.443 200.62 175.228 200.64C175.295 200.64 182.095 200.813 183.369 200.866C184.643 200.92 183.853 201.44 184.548 201.975C184.57 201.993 184.597 202.012 184.627 202.033C185.464 202.619 188.563 204.168 188.716 204.22C188.87 204.272 191.656 204.381 192.672 204.7C193.327 204.908 193.493 205.737 193.527 206.301C193.54 206.48 193.539 206.659 193.526 206.838Z" fill="#72120C"/>
<path d="M174.674 175.931C174.674 175.931 166.961 180.197 166.14 180.935C165.858 181.186 164.098 182.16 161.912 183.323C157.745 185.54 152.029 188.459 152.029 188.459C152.029 188.459 150.553 188.95 149.733 188.626L146.208 180.76C146.208 180.76 149.244 178.052 149.818 177.807C150.306 177.598 162.214 168.453 169.061 165.349C170.275 164.798 171.331 164.438 172.135 164.351L174.321 163.902C174.321 163.902 175.661 164.202 175.744 165.104C175.828 166.006 174.674 175.931 174.674 175.931Z" fill="#39363A"/>
<path d="M174.674 175.931C174.674 175.931 166.961 180.197 166.14 180.935C165.858 181.186 164.098 182.16 161.912 183.323C165.748 178.016 168.203 171.838 169.057 165.345C170.271 164.794 171.326 164.434 172.13 164.347L174.316 163.898C174.316 163.898 175.656 164.198 175.74 165.1C175.824 166.002 174.674 175.931 174.674 175.931Z" fill="#070208"/>
<path d="M186.592 167.245C186.592 167.245 184.52 200.161 184.76 200.715C184.999 201.27 174.24 201.034 174.559 200.317C174.878 199.6 173.395 190.319 173.205 188.575C172.397 181.164 171.831 173.721 171.138 166.296C170.719 161.819 170.066 157.308 169.838 152.818C169.526 146.725 165.682 142.615 164.163 136.833C164.031 136.334 163.911 135.818 163.802 135.287L173.524 134.33L184.021 134.025L185.461 133.983C185.538 134.187 185.619 134.745 185.701 135.574C185.785 136.442 185.875 137.608 185.961 138.982C186.523 148.038 187.028 166.104 186.592 167.245Z" fill="#39363A"/>
<path d="M177.212 87.7098C178.024 87.6193 179.288 87.5289 180.101 88.3413C180.913 89.1537 187.323 99.3551 188.225 105.679C188.545 107.917 187.419 115.394 187.419 115.394C187.419 115.394 190.721 129.987 190.663 130.861C190.572 132.216 190.933 134.923 188.135 135.736C185.337 136.548 181.183 135.736 181.183 135.736L174.594 96.8282L177.212 87.7098Z" fill="black"/>
<path d="M190.05 111.119C190.05 111.119 193.3 111.299 194.835 110.486C196.369 109.673 198.078 107.96 198.078 107.96C198.078 107.96 198.648 107.685 198.873 107.566C200.125 106.912 199.594 106.161 199.594 106.161C199.594 106.161 201.337 105.819 201.186 104.962C201.115 104.573 200.728 104.397 200.728 104.397C200.728 104.397 201.398 103.762 201.433 103.515C201.468 103.268 201.468 102.88 200.833 102.88C200.198 102.88 199.352 103.198 199.352 103.198L197.09 103.656C197.09 103.656 197.444 103.303 196.738 103.091C196.032 102.88 193.104 102.704 192.645 102.563C192.186 102.422 188.8 105.032 188.8 105.032L190.05 111.119Z" fill="#FCDCCD"/>
<path d="M200.724 104.396C200.724 104.396 201.112 104.572 201.182 104.961C201.338 105.818 199.591 106.16 199.591 106.16C199.591 106.16 200.121 106.914 198.87 107.566C198.644 107.684 198.074 107.959 198.074 107.959C198.074 107.959 196.365 109.673 194.831 110.485L196.325 108.36C196.325 108.36 197.833 107.593 197.357 106.796L199.097 105.617L195.44 105.646L200.724 104.396Z" fill="#F2AD94"/>
<path d="M186.637 111.225C186.571 111.665 186.53 111.931 186.53 111.931L170.641 81.0572L170.009 78.5295L171.454 76.2731C171.454 76.2731 181.023 83.9468 181.023 84.5783C181.022 84.6324 181.018 84.6864 181.009 84.7399C180.959 85.09 180.779 85.7056 180.585 86.3028C180.32 87.1294 180.03 87.9176 180.03 87.9176C180.03 87.9176 185.653 102.533 185.923 104.339C186.138 105.771 186.886 109.541 186.637 111.225Z" fill="white"/>
<path d="M187.585 112.678L190.306 112.376C190.306 112.376 189.619 104.875 189.014 104.67C188.41 104.465 185.771 105.82 185.771 105.82L187.585 112.678Z" fill="white"/>
<path d="M185.771 105.824L187.585 112.678L190.306 112.376L188.739 110.576L185.771 105.824Z" fill="#D3E0DB"/>
<path d="M185.957 138.987C180.68 139.23 175.374 139.383 170.153 138.616C168.08 138.311 165.985 137.846 164.159 136.836C164.027 136.337 163.906 135.822 163.798 135.29L173.52 134.334L184.017 134.028C184.621 134.495 185.184 135.014 185.697 135.579C185.783 136.446 185.871 137.612 185.957 138.987Z" fill="#070208"/>
<path d="M189.341 134.788C189.341 134.788 185.705 135.96 182.655 135.96C176.457 135.96 166.507 137.887 161.465 134.098C161.268 133.95 161.057 133.779 161.01 133.537C160.963 133.295 161.086 133.078 161.195 132.867C162.819 129.763 162.755 125.484 163.096 121.682C163.18 120.747 163.287 119.839 163.45 118.987C163.666 117.86 163.694 115.854 163.598 113.4C163.272 105.099 161.532 91.6815 160.882 89.8958C160.045 87.5817 163.091 84.4266 166.876 82.5337C166.876 82.5337 167.915 81.9893 168.241 81.5287C168.27 81.4892 168.295 81.4461 168.314 81.4005L168.717 80.0186L169.161 78.4993C169.161 78.4993 173.398 80.6853 176.659 84.2608C177.607 85.3002 176.621 85.8471 178.05 87.9628C180.245 91.2141 182.879 97.1046 184.526 101.017C185.494 103.315 186.122 104.93 186.122 104.93C186.122 104.93 186.148 105.02 186.197 105.195C186.471 106.2 187.438 110.005 187.909 115.249C188.001 116.279 188.077 117.364 188.12 118.495C188.204 120.61 188.331 122.76 188.471 124.776C188.858 130.288 189.341 134.788 189.341 134.788Z" fill="#524E53"/>
<path d="M161.55 117.187C162.164 117.878 165.004 118.109 165.619 117.955C166.233 117.802 173.832 117.264 176.903 116.957C179.973 116.65 185.27 114.578 186.575 114.347C187.88 114.117 188.268 113.274 188.268 113.274L188.193 116.496C188.193 116.496 185.229 117.533 180.932 118.126C176.634 118.719 166.557 119.756 166.557 119.756L163.593 119.015L161.55 117.187Z" fill="#070208"/>
<path d="M186.2 105.2C185.332 107.229 183.57 108.943 181.532 109.878C178.452 111.292 174.898 111.234 171.55 110.708C169.682 110.414 167.649 109.86 166.609 108.279C166.022 107.391 165.846 106.304 165.696 105.252C165.392 103.099 165.152 100.897 165.539 98.7589C165.926 96.6206 167.02 94.5159 168.868 93.3692C169.335 91.2017 168.268 90.4496 168.991 88.354C170.613 89.9237 171.871 91.8297 172.677 93.9379C173.542 96.1767 173.217 98.8979 174.084 101.009C175.863 105.334 181.859 103.199 184.454 101.082C184.48 101.06 184.506 101.041 184.531 101.021C185.499 103.319 186.127 104.934 186.127 104.934C186.127 104.934 186.152 105.025 186.2 105.2Z" fill="#070208"/>
<path opacity="0.46" d="M188.474 124.783C179.911 124.954 171.367 123.91 163.097 121.684C163.181 120.75 163.288 119.842 163.451 118.99C163.667 117.862 163.695 115.857 163.599 113.403L163.644 113.371C170.837 111.619 178.379 111.929 185.404 114.265C186.259 114.545 187.095 114.876 187.91 115.257C188.002 116.286 188.077 117.372 188.121 118.502C188.208 120.616 188.335 122.766 188.474 124.783Z" fill="#070208"/>
<path d="M164.62 85.0992C166.932 84.9778 171.145 87.7861 172.067 94.0811C172.988 100.376 170.992 108.59 170.992 108.59C170.992 108.59 172.681 109.434 174.754 108.666C176.827 107.898 181.739 106.364 182.967 105.902C184.196 105.441 185.369 104.581 186.125 104.934C186.881 105.288 188.444 113.915 188.444 113.915C188.444 113.915 187.88 114.116 186.575 114.346C185.27 114.577 179.976 116.65 176.903 116.96C173.83 117.27 166.232 117.804 165.618 117.958C165.005 118.112 162.164 117.881 161.55 117.19C160.936 116.499 158.632 103.086 158.632 100.762C158.632 88.1596 161.703 85.2533 164.62 85.0992Z" fill="#524E53"/>
<path d="M186.975 122.029C187.292 122.43 187.032 123.131 186.531 123.228C186.029 123.325 185.525 122.775 185.669 122.285C185.812 121.795 186.531 121.598 186.902 121.95" fill="#530905"/>
<path d="M200.473 104.458C198.887 105.002 195.879 105.579 194.236 105.911L200.473 104.458Z" fill="#F2AD94"/>
<path d="M199.418 106.155C198.562 106.448 195.544 107.283 194.133 107.35L199.418 106.155Z" fill="#F2AD94"/>
<path d="M197.793 107.914C196.955 108.214 195.072 108.5 194.185 108.584L197.793 107.914Z" fill="#F2AD94"/>
<path d="M197.511 103.449C195.803 103.772 194.075 103.98 192.34 104.071L197.511 103.449Z" fill="#F2AD94"/>
<path d="M187.713 74.5327C187.678 74.6408 187.641 74.748 187.603 74.8552C187.534 75.057 187.461 75.2564 187.384 75.4549C187.165 75.7983 186.956 76.181 187.037 76.3033C187.011 76.2696 186.991 76.2313 186.979 76.1902C186.781 75.6157 186.677 73.6776 187.475 73.5101C187.597 73.8258 187.587 74.1918 187.713 74.5327Z" fill="#F2AD94"/>
<path d="M187.472 77.9692C187.439 78.0309 187.398 78.0873 187.349 78.1367C187.294 78.1914 187.232 78.2377 187.164 78.2741C187.092 78.3119 187.016 78.34 186.936 78.3579L186.911 78.3646C186.614 78.4192 186.307 78.4017 186.018 78.3135C185.64 78.2079 185.29 78.0153 185.096 77.8L185.129 77.7339L187.51 72.8593C187.336 73.8475 187.241 74.8478 187.225 75.8511C187.225 75.8661 187.225 75.8804 187.225 75.8954C187.218 76.5161 187.788 77.3771 187.472 77.9692Z" fill="#FCDCCD"/>
<path d="M186.293 62.6957C187.036 63.101 187.875 63.3 188.722 63.2719C189.257 63.2535 189.843 63.1044 190.145 62.6647C190.509 63.0164 190.86 63.3925 191.094 63.8372C191.329 64.282 191.439 64.8172 191.301 65.3038C189.71 65.3365 188.035 65.1664 186.562 64.5634" fill="#72120C"/>
<path d="M181.009 84.7399C180.959 85.09 180.779 85.7056 180.585 86.3028C179.637 86.3262 178.685 86.3103 177.668 86.2902C178.531 85.7793 179.968 85.2759 180.831 84.7658C180.82 84.832 180.96 84.8278 180.944 84.7658L181.009 84.7399Z" fill="#D3E0DB"/>
<path d="M149.733 198.404L148.705 199.508C147.931 199.108 147.233 198.473 146.677 197.882C146.024 197.188 141.934 189.764 142.858 189.444C142.432 189.592 142.069 189.881 141.828 190.263C140.948 188.737 140.36 187.062 140.092 185.321C140.594 184.84 141.258 184.109 141.997 183.372C143.054 188.989 145.765 194.289 149.733 198.404Z" fill="#070208"/>
<path d="M193.526 206.838C193.526 206.838 189.359 207.747 187.861 207.801C186.57 207.846 185.298 207.614 184.017 207.504C182.819 207.504 181.404 207.039 180.295 207.174C180.255 207.553 180.25 207.928 180.236 208.311C179.589 208.457 174.017 207.635 174.078 207.316C174.14 206.981 174.139 206.06 174.166 205.014C180.479 206.667 187.05 207.104 193.527 206.301C193.54 206.48 193.539 206.659 193.526 206.838Z" fill="#070208"/>
<path d="M149.888 199.729L149.461 198.684C148.25 196.575 147.085 194.389 146.631 192.001C146.202 189.74 146.432 187.407 146.665 185.117C146.767 184.112 146.868 183.107 146.971 182.101C146.985 181.887 147.058 181.681 147.183 181.506C148.509 183.316 149.898 187.783 149.898 187.788C150.16 188.631 149.71 189.456 149.5 190.25C149.023 192.051 148.872 195.122 150.142 196.65C150.763 197.392 151.031 199.112 149.888 199.729Z" fill="#530905"/>
<path d="M184.627 202.033C182.783 202.871 180.88 203.568 178.931 204.118C177.727 204.453 176.485 204.742 175.237 204.65C174.88 204.623 174.527 204.562 174.182 204.467C174.249 202.624 174.444 200.62 175.228 200.64C175.295 200.64 182.096 200.813 183.37 200.866C184.644 200.92 183.854 201.44 184.549 201.975C184.57 201.993 184.597 202.012 184.627 202.033Z" fill="#530905"/>
<path opacity="0.51" d="M182.463 75.4818C182.718 74.8465 181.996 73.9586 180.851 73.4987C179.706 73.0388 178.571 73.181 178.315 73.8163C178.06 74.4516 178.782 75.3394 179.927 75.7993C181.072 76.2592 182.207 76.1171 182.463 75.4818Z" fill="#F68E6E"/>
<path d="M181.578 77.434C181.726 78.4072 182.705 79.4775 183.772 79.336" stroke="#72120C" stroke-width="0.5" stroke-miterlimit="10" stroke-linecap="round"/>
<path d="M187.346 78.1374C187.292 78.1921 187.23 78.2384 187.162 78.2748C187.09 78.3126 187.013 78.3407 186.934 78.3585L186.909 78.3652C186.611 78.4199 186.305 78.4023 186.015 78.3141C185.964 78.4029 185.911 78.4917 185.858 78.5788C185.832 78.6224 185.806 78.6626 185.775 78.7095C185.441 78.4345 185.178 78.0838 185.007 77.6868L185.124 77.7345C185.448 77.8754 185.785 77.9875 186.129 78.0696C186.527 78.168 186.94 78.191 187.346 78.1374Z" fill="#F2AD94"/>
<path d="M173.842 84.6562C171.948 83.669 170.082 82.6282 168.244 81.5338C168.274 81.4943 168.298 81.4512 168.317 81.4057L168.721 80.0237C170.33 81.6726 172.041 83.2197 173.842 84.6562Z" fill="#070208"/>
</svg>
