<svg width="375" height="250" viewBox="0 0 375 250" fill="none" xmlns="http://www.w3.org/2000/svg">
<path d="M375 0H0V250H375V0Z" fill="white"/>
<path opacity="0.75" d="M304.665 124.509C304.624 124.671 304.58 124.828 304.537 124.984C304.288 125.881 304.014 126.774 303.714 127.662C303.713 127.667 303.711 127.672 303.709 127.677C303.659 127.827 303.607 127.976 303.555 128.127C301.637 133.635 298.734 138.926 294.784 143.806C289.874 149.872 284.488 155.182 278.702 159.706C275.072 162.544 271.229 165.1 267.207 167.349C264.07 169.101 260.827 170.658 257.497 172.011C257.1 172.172 256.7 172.331 256.297 172.486C256.03 172.59 255.762 172.693 255.493 172.794C255.224 172.895 254.955 172.995 254.685 173.094C242.623 177.509 229.479 179.291 215.58 178.266C215.095 176.46 213.658 173.692 211.927 172.356C211.409 171.958 210.865 171.687 210.31 171.607C207.611 171.225 204.891 171.007 202.165 170.955C193.448 170.774 184.729 172.173 176.164 174.358C173.546 175.027 170.943 175.769 168.36 176.563C165.542 177.426 162.744 178.35 159.981 179.308C158.716 179.747 157.451 180.19 156.188 180.639C152.408 181.982 148.635 183.362 144.853 184.715C140.983 186.095 137.109 187.438 133.2 188.676C131.166 189.32 129.124 189.929 127.074 190.505C126.342 190.709 125.609 190.908 124.875 191.1C124.044 191.32 123.212 191.531 122.378 191.733C118.561 192.677 114.696 193.418 110.801 193.952C109.063 194.185 107.367 194.462 105.706 194.757C103.366 195.173 101.096 195.628 98.8717 196.056C95.5395 196.696 92.3129 197.274 89.1126 197.575C83.083 198.137 77.1521 197.707 70.8043 194.811C60.6435 190.177 52.5309 182.635 46.3533 173.594C44.2872 170.559 42.4348 167.383 40.8096 164.09C39.5239 161.496 38.3683 158.83 37.3421 156.118C34.8381 149.468 33.0646 142.566 32.0528 135.533C31.8049 133.823 31.6013 132.101 31.4419 130.367C31.3602 129.477 31.2896 128.585 31.23 127.69C29.8294 106.502 34.8694 84.1564 45.8947 66.5016C46.7932 65.0641 47.7312 63.6587 48.7086 62.2853C49.6974 60.8961 50.7273 59.5423 51.7983 58.2239C53.3101 56.3638 54.9033 54.5832 56.5779 52.8819C57.5803 51.867 58.6099 50.8825 59.6667 49.9284C61.2017 48.5487 62.7955 47.2398 64.448 46.0014C65.3301 45.3405 66.2287 44.7023 67.1437 44.0868L67.5368 43.8248C69.0838 42.8003 70.6772 41.841 72.3172 40.947C73.3304 40.3956 74.3606 39.8706 75.4078 39.3719C76.9627 38.6345 78.5556 37.956 80.1865 37.3365C81.2019 36.9502 82.2315 36.59 83.2753 36.2559C85.1728 35.6478 87.1189 35.123 89.1134 34.6817C93.6564 33.6897 98.2878 33.1574 102.937 33.093C109.632 32.9858 116.07 33.9771 122.379 35.542C123.212 35.7484 124.043 35.9651 124.872 36.1921C125.837 36.4536 126.795 36.7264 127.747 37.0106C128.538 37.2438 129.327 37.484 130.116 37.7314C131.144 38.053 132.17 38.3834 133.194 38.7227C133.909 38.9604 134.623 39.1998 135.337 39.4408C136.719 39.9106 138.099 40.3888 139.476 40.8755C140.435 41.2119 141.393 41.5503 142.352 41.8906L144.847 42.7713L145.833 43.1193C150.11 44.6204 154.403 46.078 158.754 47.3178C161.911 48.2153 165.116 48.9346 168.354 49.4723C176.616 50.8584 185.032 51.1333 193.353 50.6942C199.565 50.3674 205.743 49.5599 211.919 48.7796C213.864 48.5346 215.81 48.2912 217.755 48.0674C218.785 47.9483 219.815 47.8348 220.845 47.727C222.438 47.5625 224.031 47.4207 225.625 47.3016C226.655 47.225 227.685 47.1606 228.715 47.1084C230.307 47.0293 231.9 46.9816 233.494 46.9765C234.524 46.9703 235.554 46.9842 236.585 47.0182C238.177 47.0667 239.769 47.1629 241.364 47.3161C242.394 47.4136 243.424 47.5347 244.455 47.6794C246.043 47.9063 247.636 48.1942 249.234 48.5431L249.262 48.5499C250.287 48.7768 251.308 49.0221 252.326 49.2859C253.932 49.6995 255.526 50.1584 257.106 50.6627C258.142 50.9929 259.172 51.3426 260.195 51.7119C262.167 52.4221 264.109 53.2035 266.021 54.0562C266.418 54.2331 266.812 54.4135 267.203 54.5973C270.816 56.2736 274.296 58.2245 277.611 60.4329C279.001 61.3604 280.357 62.3353 281.68 63.3575C286.049 66.7177 289.99 70.6007 293.414 74.9197C293.794 75.4008 294.167 75.8869 294.533 76.3782C294.738 76.6522 294.939 76.9273 295.137 77.2036C295.67 77.941 296.184 78.6887 296.679 79.4466C298.103 81.613 299.387 83.8676 300.525 86.1969C301.394 87.9753 302.169 89.7818 302.849 91.6164C306.804 102.266 307.55 113.71 304.665 124.509Z" fill="#F1FCFF"/>
<path opacity="0.75" d="M32.0511 135.534C33.4483 145.193 36.338 155.07 40.8087 164.091C42.4335 167.384 44.2862 170.559 46.3532 173.594C52.5309 182.635 60.6418 190.177 70.8034 194.811C77.1512 197.704 83.0821 198.137 89.1117 197.575V34.6825C87.1172 35.1216 85.1714 35.6466 83.2744 36.2575C82.2295 36.5917 81.1996 36.9513 80.1847 37.3365C78.5527 37.9543 76.9595 38.633 75.4052 39.3727C74.358 39.8714 73.3281 40.3964 72.3155 40.9478C70.6761 41.8407 69.0826 42.7999 67.5351 43.8256C67.4034 43.9124 67.2724 44 67.1419 44.0885C66.2275 44.7046 65.3286 45.3425 64.4454 46.0022C62.7929 47.2389 61.1997 48.5481 59.6658 49.93C58.6073 50.8819 57.5774 51.8661 56.5761 52.8827C54.9027 54.5806 53.3095 56.3612 51.7965 58.2247C50.7267 59.5419 49.6968 60.896 48.7069 62.287C47.7289 63.6587 46.7909 65.0638 45.8929 66.5024C33.4968 86.3543 28.6678 112.143 32.0511 135.534Z" fill="#D3F1F9"/>
<path opacity="0.75" d="M40.8376 83.2859V153.073H43.9281V72.2632C42.7771 75.8694 41.7469 79.5436 40.8376 83.2859Z" fill="#BDDDE5"/>
<path opacity="0.75" d="M48.7075 62.2871V153.073H51.7971V58.2248C50.7278 59.542 49.6979 60.8961 48.7075 62.2871Z" fill="#BDDDE5"/>
<path opacity="0.75" d="M56.5771 52.8827V153.073H59.6669V49.9292C58.6061 50.8811 57.5761 51.8656 56.5771 52.8827Z" fill="#BDDDE5"/>
<path opacity="0.75" d="M64.4471 46.0022V153.073H67.5368V43.8256C66.485 44.5228 65.4551 45.2483 64.4471 46.0022Z" fill="#BDDDE5"/>
<path opacity="0.75" d="M72.3168 40.9478V153.073H75.4074V39.3728C74.359 39.8714 73.3289 40.3964 72.3168 40.9478Z" fill="#BDDDE5"/>
<path opacity="0.75" d="M80.1856 37.3365V153.072H83.2753V36.2567C82.2304 36.5919 81.2005 36.9519 80.1856 37.3365Z" fill="#BDDDE5"/>
<path opacity="0.75" d="M156.186 72.5107V180.644C157.448 180.195 158.713 179.751 159.978 179.312C162.745 178.357 165.54 177.431 168.357 176.567C170.941 175.773 173.544 175.036 176.16 174.363C184.726 172.176 193.446 170.776 202.162 170.959V72.5082L156.186 72.5107Z" fill="#CDEFF8"/>
<path d="M197.756 82.4929H188.396V90.1026H197.756V82.4929Z" fill="#A8E0EE"/>
<path d="M185.521 82.4929H176.16V90.1026H185.521V82.4929Z" fill="#A8E0EE"/>
<path opacity="0.75" d="M173.285 82.4929H163.924V87.5626H173.285V82.4929Z" fill="white" stroke="#88CADB" stroke-width="4" stroke-miterlimit="10"/>
<path d="M197.756 99.5809H188.396V107.191H197.756V99.5809Z" fill="#A8E0EE"/>
<path d="M185.521 99.5809H176.16V107.191H185.521V99.5809Z" fill="#A8E0EE"/>
<path opacity="0.75" d="M173.285 93.8772H163.924V98.9469H173.285V93.8772Z" fill="white" stroke="#88CADB" stroke-width="4" stroke-miterlimit="10"/>
<path opacity="0.75" d="M197.756 116.669H188.396V124.279H197.756V116.669Z" fill="#BDDDE5"/>
<path opacity="0.75" d="M185.521 116.669H176.16V124.279H185.521V116.669Z" fill="#BDDDE5"/>
<path opacity="0.75" d="M173.285 105.262H163.924V110.331H173.285V105.262Z" fill="white" stroke="#88CADB" stroke-width="4" stroke-miterlimit="10"/>
<path opacity="0.75" d="M197.756 133.758H188.396V141.368H197.756V133.758Z" fill="#BDDDE5"/>
<path opacity="0.75" d="M185.521 133.758H176.16V141.368H185.521V133.758Z" fill="#BDDDE5"/>
<path opacity="0.75" d="M173.285 116.646H163.924V121.716H173.285V116.646Z" fill="white" stroke="#88CADB" stroke-width="4" stroke-miterlimit="10"/>
<path opacity="0.75" d="M197.756 150.846H188.396V158.456H197.756V150.846Z" fill="#BDDDE5"/>
<path opacity="0.75" d="M185.521 150.846H176.16V158.456H185.521V150.846Z" fill="#BDDDE5"/>
<path opacity="0.75" d="M173.285 128.031H163.924V133.101H173.285V128.031Z" fill="white" stroke="#88CADB" stroke-width="4" stroke-miterlimit="10"/>
<path opacity="0.75" d="M156.186 72.5107V180.644C157.448 180.195 158.713 179.751 159.978 179.312C162.745 178.357 165.54 177.431 168.357 176.567C170.941 175.773 173.544 175.036 176.16 174.363V72.5082L156.186 72.5107Z" fill="#D7F2FA"/>
<path opacity="0.75" d="M303.555 128.126C301.637 133.634 298.733 138.927 294.785 143.805C289.874 149.872 284.494 155.183 278.702 159.706C275.072 162.545 271.229 165.1 267.207 167.348C263.191 169.593 259.003 171.515 254.683 173.096V63.3574H281.68C286.049 66.7177 289.99 70.6007 293.415 74.9196C293.794 75.3996 294.167 75.886 294.534 76.379C295.278 77.3842 295.993 78.407 296.676 79.4474C298.099 81.6139 299.384 83.8685 300.521 86.1977C301.391 87.9761 302.166 89.7826 302.847 91.6171C306.804 102.266 307.55 113.709 304.666 124.509C304.321 125.801 303.995 126.864 303.555 128.126Z" fill="#A8E0EE"/>
<path opacity="0.75" d="M289.954 74.0287H278.699V79.4482H289.954V74.0287Z" fill="#A8E0EE"/>
<path opacity="0.75" d="M275.241 74.0287H263.986V79.4482H275.241V74.0287Z" fill="white" stroke="#88CADB" stroke-width="4" stroke-miterlimit="10"/>
<path opacity="0.75" d="M293.411 86.1978V91.6171H302.847C302.166 89.7854 301.391 87.979 300.521 86.1978H293.411Z" fill="#A8E0EE"/>
<path opacity="0.75" d="M289.954 86.1985H278.699V91.6181H289.954V86.1985Z" fill="#A8E0EE"/>
<path opacity="0.75" d="M275.241 86.1985H263.986V91.6181H275.241V86.1985Z" fill="white" stroke="#88CADB" stroke-width="4" stroke-miterlimit="10"/>
<path opacity="0.75" d="M304.666 98.3675H293.411V103.787H304.666V98.3675Z" fill="#A8E0EE"/>
<path opacity="0.75" d="M289.954 98.3675H278.699V103.787H289.954V98.3675Z" fill="#A8E0EE"/>
<path opacity="0.75" d="M275.241 98.3675H263.986V103.787H275.241V98.3675Z" fill="white" stroke="#88CADB" stroke-width="4" stroke-miterlimit="10"/>
<path opacity="0.75" d="M304.666 110.537H293.411V115.957H304.666V110.537Z" fill="#A8E0EE"/>
<path opacity="0.75" d="M289.954 110.537H278.699V115.957H289.954V110.537Z" fill="#A8E0EE"/>
<path opacity="0.75" d="M275.241 110.537H263.986V115.957H275.241V110.537Z" fill="white" stroke="#88CADB" stroke-width="4" stroke-miterlimit="10"/>
<path opacity="0.75" d="M289.954 122.707H278.699V128.127H289.954V122.707Z" fill="#A8E0EE"/>
<path opacity="0.75" d="M275.241 122.707H263.986V128.127H275.241V122.707Z" fill="white" stroke="#88CADB" stroke-width="4" stroke-miterlimit="10"/>
<path opacity="0.75" d="M254.68 63.3593V173.096C259 171.514 263.188 169.593 267.204 167.349C271.226 165.1 275.069 162.545 278.699 159.706V63.3593H254.68Z" fill="#CDEFF8"/>
<path opacity="0.75" d="M266.022 54.0613C264.111 53.2104 262.169 52.4287 260.196 51.7162C259.174 51.3469 258.145 50.9971 257.107 50.667C255.527 50.1633 253.934 49.704 252.326 49.2894C251.31 49.0261 250.289 48.7811 249.263 48.5542L249.234 48.5482C247.638 48.1942 246.044 47.9061 244.454 47.6837C243.423 47.5379 242.393 47.4168 241.364 47.3203C239.769 47.1683 238.176 47.0688 236.585 47.0217C235.554 46.9876 234.524 46.9757 233.495 46.98C231.9 46.9851 230.307 47.0336 228.715 47.1127C227.684 47.1643 226.654 47.2287 225.625 47.3059C224.031 47.4239 222.437 47.5657 220.845 47.7313C219.815 47.8369 218.785 47.9503 217.755 48.0717C215.809 48.2955 213.864 48.5389 211.918 48.7839V172.359C213.651 173.695 215.086 176.463 215.572 178.268C229.472 179.29 242.617 177.511 254.677 173.097C258.997 171.515 263.184 169.594 267.2 167.35" fill="#CDEFF8"/>
<path opacity="0.75" d="M257.104 50.6635V149.114H260.193V51.7127C259.172 51.3434 258.142 50.9937 257.104 50.6635Z" fill="#A8E0EE"/>
<path opacity="0.75" d="M249.237 48.5448V149.115H252.326V49.2859C251.31 49.0227 250.289 48.7777 249.263 48.5508L249.237 48.5448Z" fill="#A8E0EE"/>
<path opacity="0.75" d="M241.367 47.317V149.115H244.456V47.6794C243.426 47.5342 242.396 47.4134 241.367 47.317Z" fill="#A8E0EE"/>
<path opacity="0.75" d="M233.497 46.9766V149.115H236.587V47.0183C235.556 46.9843 234.526 46.9723 233.497 46.9766Z" fill="#A8E0EE"/>
<path opacity="0.75" d="M225.627 47.3025V149.115H228.718V47.1093C227.687 47.1609 226.657 47.2253 225.627 47.3025Z" fill="#A8E0EE"/>
<path opacity="0.75" d="M217.757 48.0674V149.115H220.847V47.7305C219.818 47.836 218.788 47.9483 217.757 48.0674Z" fill="#A8E0EE"/>
<path opacity="0.75" d="M122.379 35.5428V191.739C123.211 191.537 124.043 191.326 124.874 191.107C127.665 190.373 130.438 189.555 133.196 188.681C137.101 187.446 140.979 186.1 144.849 184.719C148.63 183.37 152.404 181.988 156.183 180.645C157.446 180.196 158.71 179.752 159.975 179.313C162.743 178.358 165.537 177.432 168.354 176.568V49.4731C165.117 48.9345 161.911 48.2155 158.754 47.3195C154.405 46.0788 150.111 44.6212 145.833 43.1194C145.504 43.0045 145.176 42.8879 144.847 42.7722C144.015 42.4795 143.183 42.1859 142.352 41.8915C141.394 41.5511 140.436 41.2127 139.477 40.8763C138.097 40.3913 136.717 39.9131 135.337 39.4417C134.624 39.2 133.91 38.9607 133.195 38.7235C132.174 38.3832 131.147 38.0527 130.116 37.7322C129.328 37.4843 128.538 37.2438 127.747 37.0106C126.791 36.727 125.832 36.4544 124.872 36.1929C124.044 35.9654 123.213 35.7487 122.379 35.5428Z" fill="#88CADB"/>
<path opacity="0.75" d="M163.951 51.8191H154.59V58.8035H163.951V51.8191Z" fill="#F3F5F4"/>
<path opacity="0.75" d="M151.715 51.8191H142.354V58.8035H151.715V51.8191Z" fill="#F3F5F4"/>
<path opacity="0.75" d="M139.478 51.8191H130.118V58.8035H139.478V51.8191Z" fill="white" stroke="#88CADB" stroke-width="4" stroke-miterlimit="10"/>
<path opacity="0.75" d="M163.951 67.504H154.59V74.4883H163.951V67.504Z" fill="#F3F5F4"/>
<path opacity="0.75" d="M151.715 67.504H142.354V74.4883H151.715V67.504Z" fill="#F3F5F4"/>
<path opacity="0.75" d="M139.478 67.504H130.118V74.4883H139.478V67.504Z" fill="white" stroke="#88CADB" stroke-width="4" stroke-miterlimit="10"/>
<path opacity="0.75" d="M163.951 83.1881H154.59V90.1724H163.951V83.1881Z" fill="#F3F5F4"/>
<path opacity="0.75" d="M151.715 83.1881H142.354V90.1724H151.715V83.1881Z" fill="#F3F5F4"/>
<path opacity="0.75" d="M139.478 83.1881H130.118V90.1724H139.478V83.1881Z" fill="white" stroke="#88CADB" stroke-width="4" stroke-miterlimit="10"/>
<path opacity="0.75" d="M163.951 98.8721H154.59V105.856H163.951V98.8721Z" fill="#F3F5F4"/>
<path opacity="0.75" d="M151.715 98.8721H142.354V105.856H151.715V98.8721Z" fill="#F3F5F4"/>
<path opacity="0.75" d="M139.478 98.8721H130.118V105.856H139.478V98.8721Z" fill="white" stroke="#88CADB" stroke-width="4" stroke-miterlimit="10"/>
<path opacity="0.75" d="M98.872 43.4164V196.059C102.675 195.328 106.615 194.518 110.802 193.956C114.697 193.422 118.562 192.682 122.379 191.739C123.212 191.537 124.044 191.326 124.874 191.107C127.665 190.373 130.438 189.555 133.197 188.681C137.102 187.446 140.979 186.1 144.849 184.719V43.4164H98.872Z" fill="#E2F9FF"/>
<path opacity="0.75" d="M137.11 45.7563H127.75V50.8261H137.11V45.7563Z" fill="white" stroke="#88CADB" stroke-width="4" stroke-miterlimit="10"/>
<path opacity="0.75" d="M137.11 57.1407H127.75V62.2105H137.11V57.1407Z" fill="white" stroke="#88CADB" stroke-width="4" stroke-miterlimit="10"/>
<path opacity="0.75" d="M112.397 55.3912H103.037V60.461H112.397V55.3912Z" fill="#BDDDE5"/>
<path opacity="0.75" d="M124.634 55.3912H115.274V60.461H124.634V55.3912Z" fill="#BDDDE5"/>
<path opacity="0.75" d="M112.397 66.7756H103.037V71.8454H112.397V66.7756Z" fill="#BDDDE5"/>
<path opacity="0.75" d="M124.634 66.7756H115.274V71.8454H124.634V66.7756Z" fill="#BDDDE5"/>
<path opacity="0.75" d="M112.397 78.16H103.037V83.2297H112.397V78.16Z" fill="#BDDDE5"/>
<path opacity="0.75" d="M124.634 78.16H115.274V83.2297H124.634V78.16Z" fill="#BDDDE5"/>
<path opacity="0.75" d="M112.397 89.5444H103.037V94.6142H112.397V89.5444Z" fill="#BDDDE5"/>
<path opacity="0.75" d="M124.634 89.5444H115.274V94.6142H124.634V89.5444Z" fill="#BDDDE5"/>
<path opacity="0.75" d="M112.397 100.929H103.037V105.999H112.397V100.929Z" fill="#BDDDE5"/>
<path opacity="0.75" d="M124.634 100.929H115.274V105.999H124.634V100.929Z" fill="#BDDDE5"/>
<path opacity="0.75" d="M137.11 68.5251H127.75V73.5949H137.11V68.5251Z" fill="white" stroke="#88CADB" stroke-width="4" stroke-miterlimit="10"/>
<path opacity="0.75" d="M124.872 36.192V191.106C127.663 190.372 130.436 189.554 133.195 188.68C137.1 187.445 140.977 186.099 144.847 184.718V42.7721C144.015 42.4794 143.183 42.1858 142.352 41.8914C141.394 41.551 140.436 41.2127 139.477 40.8763C138.098 40.3912 136.718 39.913 135.337 39.4416C134.624 39.2 133.91 38.9606 133.195 38.7235C132.174 38.3831 131.148 38.0527 130.116 37.7321C129.328 37.4842 128.539 37.2437 127.747 37.0106C126.792 36.7275 125.834 36.4546 124.872 36.192Z" fill="#E2F9FF"/>
<g opacity="0.63">
<path opacity="0.63" d="M327.59 140.019C329.667 144.959 330.839 150.37 331.061 152.791C331.98 162.747 326.234 169.075 317.106 171.718C313.362 172.802 309.091 172.521 305.881 170.31C304.179 169.135 302.854 167.492 301.633 165.821C300.108 163.736 298.677 161.517 298.015 159.02C296.297 152.538 302.629 150.412 305.617 145.768C308.579 141.164 308.921 134.096 314.105 131.231C320.765 127.55 325.299 134.571 327.59 140.019Z" fill="#CDEFF8"/>
</g>
<path opacity="0.75" d="M318.625 122.748C316.939 124.671 314.533 124.902 312.437 120.332C311.422 118.12 312.461 115.186 314.643 114.104C322.369 110.276 321.675 119.274 318.625 122.748Z" fill="#CDEFF8"/>
<path opacity="0.75" d="M160.059 42.5858C153.067 41.124 145.659 38.4776 143.222 33.2394C140.134 26.6022 163.83 36.7588 166.111 37.5169C175.344 40.5862 184.613 42.3093 194.266 39.9318C196.097 39.4817 207.665 36.2329 208.837 38.7303C209.347 39.8263 206.833 41.0108 205.928 41.4992C195.873 46.9187 180.778 45.4075 169.853 44.1056C167.201 43.7839 163.686 43.3449 160.059 42.5858Z" fill="#CDEFF8"/>
<path opacity="0.44" d="M304.665 124.509C304.624 124.671 304.58 124.828 304.537 124.984C304.288 125.881 304.014 126.774 303.714 127.662C303.713 127.667 303.711 127.672 303.709 127.677C303.659 127.827 303.607 127.976 303.555 128.127C301.637 133.634 298.734 138.926 294.785 143.806C289.874 149.872 284.488 155.182 278.702 159.706C275.072 162.544 271.229 165.1 267.207 167.349C264.07 169.101 260.827 170.658 257.497 172.011C257.1 172.172 256.7 172.331 256.297 172.486C256.03 172.59 255.762 172.693 255.493 172.794C255.224 172.895 254.955 172.995 254.685 173.094C242.624 177.509 229.479 179.291 215.58 178.266C215.095 176.46 213.658 173.692 211.927 172.356C211.409 171.958 210.865 171.687 210.31 171.607C207.611 171.225 204.891 171.007 202.165 170.955C193.448 170.774 184.729 172.173 176.164 174.358C173.546 175.027 170.943 175.769 168.36 176.563C165.542 177.426 162.744 178.35 159.981 179.308C158.716 179.747 157.452 180.19 156.188 180.639C152.408 181.982 148.635 183.362 144.853 184.715C138.751 184.715 132.855 187.068 127.077 190.501C126.345 190.706 125.612 190.904 124.878 191.097C124.047 191.316 123.215 191.527 122.382 191.73C118.563 192.675 114.698 193.417 110.801 193.952C109.063 194.185 107.367 194.462 105.706 194.757C103.366 195.173 101.096 195.628 98.8718 196.056C95.5396 196.696 92.313 197.274 89.1127 197.575C83.0831 198.137 77.1522 197.707 70.8044 194.811C60.6436 190.177 52.531 182.635 46.3534 173.594C44.2873 170.559 42.4349 167.383 40.8097 164.09C39.524 161.496 38.3684 158.83 37.3422 156.118C34.8382 149.468 33.0647 142.566 32.0529 135.533C31.805 133.823 31.6014 132.101 31.442 130.367C31.3603 129.477 31.2897 128.585 31.2301 127.69C46.4785 132.436 63.0185 132.795 78.9842 133.003C106.213 133.36 133.486 131.642 160.371 127.265C209.747 119.228 254.603 103.755 295.133 77.2061C295.667 77.9436 296.181 78.6912 296.676 79.4491C298.099 81.6155 299.384 83.8702 300.521 86.1994C301.391 87.9778 302.166 89.7843 302.846 91.6189C306.804 102.266 307.55 113.71 304.665 124.509Z" fill="#CDEFF8"/>
<path d="M323.646 209.539C331.134 201.562 329.54 187.733 321.969 179.837C318.785 176.519 314.639 174.005 310.093 173.297C305.548 172.589 300.617 173.839 297.321 177.048C296.974 170.562 292.204 164.305 285.823 163.093C279.441 161.882 272.293 166.642 271.719 173.113C275.695 181.599 280.824 188.657 287.244 195.484C290.63 199.084 294.512 202.512 299.282 203.804C303.054 204.825 307.081 204.425 310.901 205.251C313.599 205.837 321.143 208.368 323.646 209.539Z" fill="#D6F3EC"/>
<path d="M238.593 180.209C242.031 187.501 245.542 194.85 250.561 201.158C255.58 207.466 262.304 212.73 270.172 214.5C277.531 216.154 292.447 216.05 298.531 210.775C308.635 202.016 292.235 175.287 282.247 186.828C286.576 181.825 289.047 175.046 288.111 168.496C287.175 161.947 282.528 155.863 276.188 153.973C269.848 152.083 262.196 155.03 259.394 161.024C258.622 157.024 257.825 152.963 255.898 149.38C253.971 145.796 250.701 142.703 246.69 142.017C224.226 138.171 233.534 169.474 238.593 180.209Z" fill="#8FE9D3"/>
<path d="M95.699 204.922C92.8416 206.885 88.9444 205.364 85.5127 205.852C83.1241 206.193 81.0028 207.515 78.7002 208.245C67.5601 211.782 52.6622 209.233 43.937 201.239C36.0192 193.985 32.8878 164.935 50.5018 171.362C47.4232 163.032 50.8881 153.068 57.8256 147.522C64.7631 141.977 74.5146 140.637 83.0918 142.944C92.2596 145.412 91.692 149.893 94.6413 157.136C97.3319 163.741 103.418 167.942 105.695 175.362C107.926 182.638 108.54 191.212 103.903 197.248C100.865 201.202 99.8089 202.097 95.699 204.922Z" fill="#D6F3EC"/>
<path d="M68.6325 185.901C66.3389 181.84 65.5493 177.101 66.4023 172.516C66.5929 171.513 66.8788 170.489 67.5315 169.708C68.9644 167.982 71.7529 167.999 73.6887 169.132C75.6245 170.265 76.9094 172.221 78.1237 174.106C80.0654 170.022 85.4415 171.027 87.9492 173.758C91.5332 177.654 89.3532 183.644 87.1978 187.553C83.4666 194.321 75.9377 200.961 68.1194 202.261C60.8365 203.471 53.7849 199.55 52.1903 191.929C49.966 181.289 63.2063 176.374 68.6325 185.901Z" fill="#8FE9D3"/>
<path d="M265.124 164.044C265.986 161.397 267.795 159.161 270.204 157.767C271.361 160.405 271.853 163.414 271.108 166.196C270.327 169.112 268.225 171.364 265.877 173.114C264.789 170.003 264.098 167.233 265.124 164.044Z" fill="#68D5BA"/>
<path d="M264.713 183C266.115 181.644 267.968 180.854 269.918 180.781C269.769 182.793 269.086 184.817 267.713 186.296C266.273 187.845 264.233 188.551 262.205 188.864C262.55 186.581 263.032 184.64 264.713 183Z" fill="#68D5BA"/>
<path d="M295.409 173.193C296.811 171.837 298.665 171.047 300.614 170.974C300.464 172.987 299.782 175.011 298.408 176.489C296.968 178.039 294.929 178.744 292.901 179.057C293.247 176.774 293.728 174.833 295.409 173.193Z" fill="#61CDB3"/>
<path d="M308.622 173.598C309.631 171.929 311.221 170.692 313.086 170.123C313.456 172.107 313.313 174.238 312.364 176.018C311.367 177.884 309.575 179.087 307.695 179.909C307.447 177.614 307.416 175.613 308.622 173.598Z" fill="#68D5BA"/>
<path d="M317.379 185.839C318.388 184.17 319.978 182.932 321.843 182.363C322.214 184.347 322.071 186.479 321.121 188.259C320.125 190.125 318.333 191.327 316.452 192.148C316.204 189.853 316.173 187.854 317.379 185.839Z" fill="#61CDB3"/>
<path d="M297.005 189.917C298.013 188.248 299.603 187.01 301.469 186.441C301.839 188.426 301.696 190.556 300.746 192.337C299.75 194.203 297.958 195.406 296.077 196.227C295.829 193.93 295.798 191.931 297.005 189.917Z" fill="#61CDB3"/>
<path d="M278.036 153.903C279.658 152.662 281.681 152.063 283.717 152.222C283.32 154.297 282.366 156.321 280.758 157.692C279.074 159.13 276.868 159.618 274.717 159.7C275.358 157.366 276.091 155.405 278.036 153.903Z" fill="#61CDB3"/>
<path d="M275.621 179.396C275.695 176.703 276.761 174.133 278.614 172.178C280.41 174.306 281.692 176.966 281.762 179.751C281.838 182.672 280.506 185.337 278.807 187.605C276.946 185.017 275.546 182.634 275.621 179.396Z" fill="#61CDB3"/>
<path d="M66.4724 165.692C65.6104 163.046 63.8021 160.811 61.3941 159.415C60.2377 162.053 59.7467 165.062 60.4913 167.845C61.2724 170.761 63.3742 173.012 65.7227 174.762C66.8068 171.651 67.4969 168.883 66.4724 165.692Z" fill="#8FE9D3"/>
<path d="M66.8822 184.649C65.4804 183.293 63.6271 182.503 61.678 182.429C61.8269 184.442 62.5094 186.466 63.8828 187.945C65.3225 189.494 67.3621 190.199 69.3907 190.513C69.0436 188.229 68.5636 186.293 66.8822 184.649Z" fill="#68D5BA"/>
<path d="M53.5583 155.551C51.9356 154.312 49.9126 153.714 47.8767 153.873C48.2749 155.949 49.2288 157.971 50.8353 159.344C52.5201 160.782 54.7266 161.269 56.8768 161.35C56.2378 159.015 55.5034 157.054 53.5583 155.551Z" fill="#8FE9D3"/>
<path d="M54.9624 179.203C54.9064 177.167 54.1 175.222 52.6981 173.743C51.3366 175.355 50.37 177.365 50.3155 179.472C50.2585 181.685 51.266 183.698 52.5518 185.414C53.96 183.456 55.0194 181.656 54.9624 179.203Z" fill="#61CDB3"/>
<path d="M188.44 218C271.792 218 339.363 212.804 339.363 206.395C339.363 199.986 271.792 194.79 188.44 194.79C105.087 194.79 37.5165 199.986 37.5165 206.395C37.5165 212.804 105.087 218 188.44 218Z" fill="#DCEEF3"/>
<path d="M151.187 50.9783H78.4507C75.7574 50.9783 73.5741 53.1617 73.5741 55.8549V200.936C73.5741 203.629 75.7574 205.812 78.4507 205.812H151.187C153.88 205.812 156.063 203.629 156.063 200.936V55.8549C156.063 53.1617 153.88 50.9783 151.187 50.9783Z" fill="#88CADB"/>
<path d="M82.5435 50.9783V205.812H151.187C152.48 205.812 153.72 205.299 154.635 204.384C155.55 203.469 156.063 202.229 156.063 200.936V55.8549C156.063 54.5616 155.55 53.3212 154.635 52.4067C153.72 51.4921 152.48 50.9783 151.187 50.9783H82.5435Z" fill="#75C1D4"/>
<path d="M153.511 59.4143H85.0963V202.525H153.511V59.4143Z" fill="white"/>
<path d="M85.0963 148.513V202.527H153.51V103.1C152.541 104.358 151.568 105.61 150.592 106.858C147.165 111.257 143.723 115.672 139.709 119.542C133.888 125.158 126.992 129.498 120.149 133.809C111.225 139.425 102.079 145.132 91.7938 147.451C89.585 147.941 87.3483 148.295 85.0963 148.513Z" fill="#CDEFF8" fill-opacity="0.8"/>
<path d="M98.3967 80.6991L97.6334 81.0143L101.865 91.2593L102.628 90.9441L98.3967 80.6991Z" fill="#92C6D4"/>
<path d="M149.352 177.854L133.675 179.709L133.772 180.533L149.45 178.678L149.352 177.854Z" fill="#92C6D4"/>
<path d="M132.932 99.1111L133.65 99.5289L133.692 99.4566L136.957 93.8482L153.51 65.4166V63.7676L135.979 93.8772L132.964 99.0567L132.932 99.1111Z" fill="#92C6D4"/>
<path d="M86.5926 77.572L85.8198 77.8739L91.5312 92.4928L92.304 92.1909L86.5926 77.572Z" fill="#92C6D4"/>
<path d="M102.276 117.717V202.524H103.106V117.717C103.106 117.466 103.122 117.214 103.155 116.965C103.314 115.727 103.878 114.576 104.758 113.691L105.184 113.265L110.825 107.661L111.451 107.038L123.673 94.894L123.759 94.8089L123.981 94.5885L124.237 94.3333L124.138 94.2337L124.067 94.1622L123.945 94.0397L123.865 93.9546L123.654 93.7419L123.105 94.2873L105.341 111.939L104.175 113.098C103.162 114.113 102.514 115.436 102.332 116.859C102.295 117.143 102.276 117.43 102.276 117.717Z" fill="#92C6D4"/>
<path d="M107.429 59.4143L110.131 65.4269L110.301 65.8038L110.471 66.1833L110.654 66.5909L113.657 73.2731L113.998 74.0305L123.104 94.2916L123.216 94.5417L123.226 94.5375V94.5366L123.589 94.3741L123.626 94.3571L123.877 94.2439H123.878L123.899 94.2346L123.973 94.2014L123.929 94.1052L123.92 94.0831H123.919L123.914 94.0712L123.864 93.9589L123.863 93.958L108.337 59.4143H107.429Z" fill="#92C6D4"/>
<path d="M113.825 73.188L98.524 80.611L98.8861 81.3575L114.187 73.9344L113.825 73.188Z" fill="#92C6D4"/>
<path d="M85.0335 186.214L85.0956 186.213L85.8631 186.209L101.603 186.111L102.275 186.107L102.691 186.104L102.908 186.103L102.904 185.273L102.691 185.274L102.275 185.276L101.804 185.28L85.0956 185.384V185.91H85.0352L85.0335 186.214Z" fill="#92C6D4"/>
<path d="M123.179 94.6226L123.296 94.6864L123.674 94.8948L123.73 94.9263L144.863 106.546L145.619 106.962L152.972 111.005L153.352 111.214L153.442 111.264L153.511 111.301L153.513 111.303L153.82 110.999V110.998L153.847 110.878L153.511 110.805V110.139L153.37 110.277L133.693 99.4566L132.965 99.0567L124.194 94.2345L124.067 94.1639L123.934 94.0907V94.0899L123.919 94.0831L123.908 94.0763L123.58 93.8959L123.379 94.2584L123.226 94.5366L123.179 94.6226Z" fill="#92C6D4"/>
<path d="M147.84 164.34L147.914 165.056L147.957 165.469L147.999 165.876V165.882L149.231 177.869L149.316 178.694L151.766 202.524H152.6L150.437 181.475L150.395 181.061L150.351 180.647L150.328 180.413L149.149 168.951L149.064 168.121L148.668 164.256C147.322 151.211 148.035 138.034 150.781 125.21L151.207 123.237L151.292 122.829L151.322 122.691L151.379 122.419L153.445 112.762L153.512 112.453L153.822 111L153.848 110.879L153.508 110.807L153.439 110.792L153.033 110.707L152.969 111.009L149.966 125.039C149.243 128.415 148.661 131.81 148.22 135.222C148.202 135.351 148.186 135.478 148.17 135.609C148.169 135.619 148.169 135.629 148.17 135.639C148.152 135.777 148.134 135.917 148.118 136.056C146.965 145.444 146.872 154.931 147.84 164.34Z" fill="#92C6D4"/>
<path d="M148.179 136.073L148.423 135.28L130.257 129.713C130.234 127.949 130.052 122.709 130.043 122.471L130.033 122.189L116.406 117.369L116.129 118.151L129.224 122.78C129.265 124.007 129.429 128.856 129.429 130.018V130.325L148.179 136.073Z" fill="#92C6D4"/>
<path d="M122.092 120.189L118.755 157.806L119.581 157.88L122.919 120.262L122.092 120.189Z" fill="#92C6D4"/>
<path d="M111.311 106.729L110.559 107.079L115.893 118.549L116.645 118.199L111.311 106.729Z" fill="#92C6D4"/>
<path d="M144.967 106.155L138.931 132.302L139.739 132.489L145.775 106.342L144.967 106.155Z" fill="#92C6D4"/>
<path d="M112.857 157.393L112.028 157.419L112.62 176.592L113.45 176.567L112.857 157.393Z" fill="#92C6D4"/>
<path d="M132.738 113.955L132.463 114.738L142.861 118.394L143.136 117.611L132.738 113.955Z" fill="#92C6D4"/>
<path d="M133.963 106.977L132.185 114.231L132.991 114.428L134.769 107.174L133.963 106.977Z" fill="#92C6D4"/>
<path d="M85.0963 78.1761L110.471 66.1833L110.716 66.0676L110.95 65.9578L110.773 65.5826L110.772 65.5817L110.595 65.2073L110.131 65.4269L85.0963 77.2571V78.1761Z" fill="#92C6D4"/>
<path d="M102.259 137.816H85.0963V138.645H102.259V137.816Z" fill="#92C6D4"/>
<path d="M149.597 180.782L149.67 181.19L149.743 181.599L150.026 181.548L150.436 181.475L153.51 180.924H153.513V180.081H153.51L150.351 180.647L150.089 180.694L149.941 180.721L149.597 180.782Z" fill="#92C6D4"/>
<path d="M148.728 168.187L148.889 169.002L149.149 168.95L153.5 168.085L153.511 168.083V167.237L153.5 167.239L149.065 168.12L148.728 168.187Z" fill="#92C6D4"/>
<path d="M150.963 122.711L151.289 122.828L153.454 123.594L153.51 123.613V122.556L153.453 122.558L152.023 122.646L151.32 122.69L150.963 122.711Z" fill="#92C6D4"/>
<path d="M150.824 123.103L151.202 123.236L153.455 124.034V124.034L153.51 124.053V123.172L153.454 123.154L152.023 122.646L151.378 122.418L151.101 122.32L150.962 122.711L150.824 123.103Z" fill="#92C6D4"/>
<path d="M84.9305 200.336L85.0182 200.083L85.0956 199.862V202.524H85.744L85.8631 186.209L85.8648 185.916L85.0956 185.91H85.0352L85.0335 186.214L84.9357 199.65L84.9331 200.064V200.081L84.9305 200.336Z" fill="#92C6D4"/>
<path d="M127.032 194.039L102.895 195.165L102.934 195.994L127.07 194.868L127.032 194.039Z" fill="#92C6D4"/>
<path d="M125.089 167.78L125.601 174.438L127.759 202.524H128.591L126.484 175.098L125.978 168.51L131.109 167.898L131.522 167.848L131.934 167.8L147.996 165.882H147.999L148.21 165.857L148.161 165.445L148.112 165.033L147.913 165.057L131.839 166.974L131.427 167.023L131.013 167.073L125.089 167.78Z" fill="#92C6D4"/>
<path d="M132.987 187.586L133.972 197.334L136.262 197.059L137.441 196.917L140.577 196.54L141.18 202.524H142.013L141.318 195.614L137.098 196.122L136.591 196.183L134.713 196.409L133.944 188.808L133.812 187.502L132.987 187.586Z" fill="#92C6D4"/>
<path d="M85.0963 151.469V152.299C89.8307 152.441 96.5538 152.645 100.091 152.748C101.153 152.779 101.928 152.801 102.275 152.811H102.475V151.981H102.275C100.848 151.943 92.2252 151.684 85.0963 151.469Z" fill="#92C6D4"/>
<path d="M84.9339 200.064V200.081H85.0189C84.9911 200.073 84.9627 200.067 84.9339 200.064Z" fill="#92C6D4"/>
<path d="M84.9305 200.333L85.0156 200.078L85.0922 199.857L85.1518 199.687C85.1323 199.68 85.1124 199.675 85.0922 199.671C85.0394 199.66 84.986 199.652 84.9322 199.646V200.059V200.077L84.9305 200.333Z" fill="#92C6D4"/>
<path d="M96.2322 103.629L85.0963 103.446V104.276L96.2185 104.458L96.2322 103.629Z" fill="#92C6D4"/>
<path d="M132.573 180.082L133.364 179.826L133.371 179.854C133.251 179.271 131.392 163.133 130.687 156.965L130.643 156.588L103.218 157.269L103.239 158.098L129.906 157.433C130.706 164.435 132.466 179.745 132.573 180.082Z" fill="#92C6D4"/>
<path d="M137.435 56.8233C136.317 56.7033 124.095 56.7714 116.083 56.848C115.826 56.8504 115.578 56.7508 115.395 56.571C115.212 56.3911 115.107 56.1458 115.105 55.889C115.102 55.6322 115.202 55.3849 115.382 55.2015C115.562 55.0182 115.807 54.9138 116.064 54.9113C116.117 54.9113 121.397 54.8611 126.67 54.8364C137.522 54.7854 137.749 54.8756 138.01 54.9802C138.222 55.0618 138.398 55.2153 138.509 55.414C138.619 55.6126 138.656 55.8437 138.613 56.0668C138.57 56.2899 138.45 56.4908 138.274 56.6344C138.098 56.778 137.877 56.8551 137.65 56.8522C137.578 56.851 137.506 56.8413 137.435 56.8233Z" fill="#92C6D4"/>
<path d="M100.956 56.7586H110.02C110.277 56.7586 110.524 56.6566 110.705 56.475C110.887 56.2934 110.989 56.0471 110.989 55.7902C110.989 55.5334 110.887 55.2871 110.705 55.1055C110.524 54.9239 110.277 54.8219 110.02 54.8219H100.956C100.699 54.8219 100.453 54.9239 100.271 55.1055C100.089 55.2871 99.9873 55.5334 99.9873 55.7902C99.9873 56.0471 100.089 56.2934 100.271 56.475C100.453 56.6566 100.699 56.7586 100.956 56.7586Z" fill="#92C6D4"/>
<path d="M97.6211 165.375C97.5126 165.074 97.3441 164.799 97.1259 164.565C95.2335 162.65 94.802 168.184 94.6114 169.524C94.3085 171.652 94.2532 173.802 94.2966 175.945C94.3179 176.974 95.2088 181.436 94.6523 182.181C96.4971 179.713 96.8264 174.948 97.5531 171.979C98.0891 169.785 98.7443 165.529 96.8298 163.82C96.3865 163.425 95.7032 163.233 95.1875 163.529C94.7399 163.784 94.5391 164.318 94.4089 164.817C93.4967 168.306 94.4013 172.012 94.0311 175.601C93.7614 178.216 92.8211 180.885 93.564 183.406C93.7907 183.23 93.9738 183.004 94.0988 182.746C94.2238 182.488 94.2874 182.204 94.2847 181.917" fill="#111111"/>
<path d="M129.653 166.085C129.653 166.085 125.916 167.021 122.18 173.658C122.18 173.658 121.551 160.733 125.253 160.733C125.253 160.736 128.145 160.553 129.653 166.085Z" fill="#070208"/>
<path d="M187.304 203.248C193.592 203.248 198.689 196.252 198.689 187.623C198.689 178.994 193.592 171.999 187.304 171.999C181.016 171.999 175.919 178.994 175.919 187.623C175.919 196.252 181.016 203.248 187.304 203.248Z" fill="#AF0C0C"/>
<path d="M176.26 187.57C176.26 194.503 178.874 200.123 182.098 200.123C185.323 200.123 187.937 194.503 187.937 187.57C187.937 180.636 185.323 175.015 182.098 175.015C178.874 175.015 176.26 180.636 176.26 187.57Z" fill="#AF0C0C"/>
<path d="M94.3947 182.521C94.3947 195.412 98.371 205.861 103.277 205.861C108.182 205.861 112.159 195.412 112.159 182.521C112.159 169.631 108.182 159.181 103.277 159.181C98.371 159.181 94.3947 169.632 94.3947 182.521Z" fill="#CC0000"/>
<path d="M96.0574 183.018C96.0574 191.642 97.6239 198.633 99.5555 198.633C101.487 198.633 103.054 191.642 103.054 183.018C103.054 174.394 101.487 167.403 99.5555 167.403C97.6239 167.403 96.0574 174.394 96.0574 183.018Z" fill="#BB1010"/>
<path d="M96.2814 183.534C96.2814 189.316 97.3314 194 98.6265 194C99.9216 194 100.972 189.313 100.972 183.534C100.972 177.754 99.9216 173.068 98.6265 173.068C97.3314 173.068 96.2814 177.753 96.2814 183.534Z" fill="#F3F5F4"/>
<path d="M239.196 209.637C248.144 209.637 255.399 199.682 255.399 187.401C255.399 175.121 248.144 165.165 239.196 165.165C230.247 165.165 222.993 175.121 222.993 187.401C222.993 199.682 230.247 209.637 239.196 209.637Z" fill="#AF0C0C"/>
<path d="M225.575 188.327C225.575 198.73 229.938 207.164 235.319 207.164C240.7 207.164 245.064 198.73 245.064 188.327C245.064 177.924 240.701 169.491 235.319 169.491C229.937 169.491 225.575 177.924 225.575 188.327Z" fill="#CC0000"/>
<path d="M227.881 189.452C227.881 196.5 230.415 202.216 233.54 202.216C236.666 202.216 239.201 196.503 239.201 189.452C239.201 182.401 236.667 176.688 233.54 176.688C230.414 176.688 227.881 182.404 227.881 189.452Z" fill="#CACCCF"/>
<path d="M119.197 187.105C119.196 188.286 119.259 189.466 119.383 190.64C119.421 191.012 119.468 191.354 119.507 191.661C119.601 192.333 119.714 192.993 119.848 193.64C120.794 198.286 122.726 202.283 125.274 205.081C127.711 207.758 130.715 209.336 133.964 209.336C140.143 209.336 145.436 203.618 147.638 195.504C148.37 192.763 148.736 189.937 148.728 187.101C148.728 182.432 147.773 178.101 146.14 174.523C143.479 168.69 139.018 164.865 133.964 164.865C133.139 164.865 132.318 164.967 131.519 165.168C130.856 165.336 130.21 165.566 129.591 165.856C129.486 165.905 129.381 165.956 129.276 166.009C127.966 166.669 126.739 167.596 125.624 168.75C124.405 170.007 123.319 171.532 122.402 173.269C122.252 173.553 122.108 173.842 121.967 174.136C121.967 174.139 121.967 174.142 121.967 174.146C120.221 177.798 119.197 182.271 119.197 187.105Z" fill="#CC0000"/>
<path d="M121.454 186.994C121.454 195.722 124.658 202.799 128.611 202.799C132.563 202.799 135.769 195.722 135.769 186.994C135.769 178.265 132.564 171.188 128.611 171.188C124.657 171.188 121.454 178.264 121.454 186.994Z" fill="#BB1010"/>
<path d="M122.372 186.956C122.372 193.905 124.925 199.539 128.073 199.539C131.222 199.539 133.774 193.905 133.774 186.956C133.774 180.007 131.222 174.374 128.073 174.374C124.925 174.374 122.372 180.007 122.372 186.956Z" fill="#F3F5F4"/>
<path d="M216.399 120.986C216.1 120.734 215.802 120.487 215.507 120.243C215.801 120.488 216.1 120.735 216.399 120.986Z" fill="white"/>
<path d="M211.976 117.393C211.625 117.118 211.28 116.849 210.942 116.591C211.28 116.85 211.625 117.117 211.976 117.393Z" fill="white"/>
<path d="M210.942 116.591C210.589 116.322 210.244 116.062 209.909 115.811C210.245 116.062 210.59 116.323 210.942 116.591Z" fill="white"/>
<path d="M209.616 115.596C209.333 115.385 209.055 115.183 208.783 114.992C209.054 115.185 209.332 115.387 209.616 115.596Z" fill="white"/>
<path d="M208.582 114.849C208.115 114.518 207.673 114.216 207.254 113.943C207.672 114.216 208.115 114.518 208.582 114.849Z" fill="white"/>
<path d="M207.253 113.943C207.134 113.864 207.017 113.788 206.902 113.717C207.017 113.79 207.134 113.865 207.253 113.943Z" fill="white"/>
<path d="M105.88 131.588C105.936 131.431 105.994 131.275 106.05 131.121C105.994 131.275 105.936 131.431 105.88 131.588Z" fill="white"/>
<path d="M106.052 131.12L106.157 130.845L106.052 131.12Z" fill="white"/>
<path d="M106.156 130.845L106.229 130.658L106.156 130.845Z" fill="white"/>
<path d="M107.718 127.291C107.202 128.333 106.693 129.465 106.229 130.658C108.473 124.903 111.773 120.592 111.773 120.592C111.838 120.507 111.901 120.422 111.965 120.337C111.901 120.422 111.835 120.507 111.771 120.592C111.768 120.592 109.698 123.303 107.718 127.291Z" fill="white"/>
<path d="M133.276 109.03C133.254 109.03 133.191 109.024 133.092 109.022L133.262 109.032L133.276 109.03Z" fill="white"/>
<path d="M131.736 109.03C132.385 108.996 132.851 109.006 133.093 109.017C132.858 109.008 132.391 108.998 131.736 109.03Z" fill="white"/>
<path d="M131.724 109.03L131.554 109.04L131.724 109.03Z" fill="white"/>
<path d="M92.7154 180.858C93.0439 182.463 93.5953 183.906 94.4445 185.056C94.4445 185.056 94.3321 182.907 94.2692 179.989C94.1262 173.362 94.2334 162.768 96.4713 164.389C96.7642 164.688 97.0262 165.016 97.2533 165.368C97.799 166.186 98.2554 167.06 98.6148 167.976C99.3083 169.698 99.9575 172.105 100.18 175.337C100.192 175.495 100.203 175.657 100.211 175.819C100.26 176.694 100.276 177.628 100.255 178.621C100.249 180.107 100.332 181.591 100.504 183.067C100.602 183.901 100.735 184.791 100.921 185.675C101.277 187.37 101.822 189.044 102.653 190.279C103.32 191.267 104.17 191.973 105.255 192.181L111.257 192.782L119.851 193.642H119.888C119.726 192.988 119.601 192.326 119.512 191.658C119.469 191.349 119.427 191.007 119.388 190.637C118.829 185.011 119.716 179.335 121.966 174.147C121.966 174.144 121.966 174.141 121.966 174.138C122.035 173.979 122.106 173.821 122.178 173.661C122.178 173.661 122.178 173.653 122.178 173.637C122.178 173.552 122.187 173.296 122.203 172.899C122.308 170.415 122.799 162.65 124.871 161.188C125.018 161.08 125.185 161.006 125.363 160.97C126.044 160.836 126.874 161.322 127.876 162.726C128.21 163.193 128.25 163.468 128.805 164.817C128.813 164.836 128.821 164.855 128.829 164.875C128.968 165.215 129.116 165.595 129.274 166.014C129.295 166.073 129.318 166.133 129.34 166.193C130.083 168.191 130.718 170.227 131.244 172.292C131.639 173.837 132.01 175.535 132.319 177.36C132.432 178.029 132.537 178.716 132.631 179.417C133.078 182.712 133.24 186.038 133.115 189.361L133.144 189.46C133.187 189.654 133.314 190.111 133.508 190.709C133.549 190.832 133.593 190.964 133.64 191.095L133.652 191.13C133.962 192.008 134.418 193.076 135.027 194.004C135.289 194.414 135.593 194.796 135.934 195.143C135.934 195.143 140.407 195.301 147.635 195.509L148.383 195.53C149.982 195.576 151.707 195.623 153.539 195.671H153.552L155.206 195.714H155.327C161.835 195.884 169.55 196.054 177.781 196.189H177.854C180.617 196.234 183.436 196.274 186.287 196.308C189.733 196.349 193.228 196.38 196.722 196.4C206.226 196.454 215.735 196.418 224.32 196.23C225.04 196.215 225.753 196.198 226.46 196.18C227.219 196.161 227.97 196.14 228.714 196.118C232.18 196.016 235.455 195.886 238.469 195.722C240.569 195.608 242.542 195.478 244.365 195.33C245.345 195.25 246.279 195.165 247.168 195.075C247.531 195.037 247.886 195.001 248.233 194.962C248.526 194.93 248.813 194.897 249.095 194.864C249.52 194.813 249.93 194.761 250.327 194.707C251.376 194.565 252.327 194.41 253.173 194.249C253.173 194.249 254.543 192.06 255.323 189.534C255.397 189.297 255.464 189.055 255.526 188.813C255.745 187.967 255.879 187.111 255.856 186.303C255.856 186.184 255.846 186.068 255.836 185.952C255.836 185.952 255.765 165.717 250.655 157.494C250.655 157.494 250.717 155.845 250.23 153.598C249.96 152.341 249.555 151.116 249.022 149.946V149.939C248.474 148.737 247.768 147.613 246.921 146.599C246.45 146.038 245.934 145.516 245.377 145.039C245.297 144.97 245.216 144.903 245.135 144.836L245.011 144.735C244.887 144.635 244.756 144.536 244.628 144.44L244.497 144.344C244.453 144.313 244.412 144.28 244.364 144.25L244.229 144.155C244.13 144.088 244.03 144.02 243.929 143.953C243.844 143.898 243.759 143.844 243.674 143.789L243.529 143.704C243.435 143.647 243.339 143.591 243.241 143.534L243.228 143.527L243.104 143.457L242.934 143.361C242.903 143.344 242.872 143.328 242.84 143.313C241.932 142.835 240.98 142.447 239.996 142.155C239.996 142.155 237.536 139.822 233.883 136.46L233.782 136.368C233.691 136.282 233.597 136.197 233.503 136.112C233.382 136 233.258 135.886 233.133 135.772C232.396 135.091 231.616 134.379 230.806 133.645C230.726 133.571 230.644 133.498 230.564 133.424C230.387 133.264 230.209 133.101 230.029 132.938L229.313 132.287C228.535 131.583 227.735 130.861 226.921 130.13L226.436 129.697C226.257 129.536 226.077 129.376 225.898 129.217L225.367 128.742C224.882 128.312 224.395 127.881 223.905 127.447L223.469 127.062C222.924 126.582 222.377 126.102 221.83 125.623C221.752 125.557 221.676 125.489 221.597 125.421C221.493 125.329 221.388 125.237 221.282 125.147C221.206 125.079 221.13 125.014 221.053 124.947C220.743 124.677 220.433 124.409 220.124 124.142L219.707 123.783C218.868 123.061 218.033 122.35 217.212 121.656L216.945 121.431L216.415 120.987L216.032 120.668L215.968 120.615L215.893 120.553L215.524 120.246C214.911 119.736 214.309 119.243 213.719 118.769L213.34 118.466L213.094 118.267L212.849 118.072C212.56 117.842 212.275 117.616 211.994 117.391C211.945 117.354 211.895 117.315 211.847 117.276C211.798 117.238 211.769 117.218 211.731 117.187C211.561 117.052 211.385 116.917 211.215 116.786L210.959 116.591L210.695 116.39L210.435 116.193C210.265 116.063 210.095 115.938 209.925 115.81L209.847 115.753L209.633 115.594L209.42 115.439L209.003 115.136L208.799 114.99C208.732 114.942 208.664 114.894 208.598 114.848L208.424 114.725L208.253 114.605L208.083 114.487C208.027 114.45 207.971 114.411 207.913 114.373C207.802 114.297 207.693 114.223 207.585 114.152C207.476 114.08 207.372 114.01 207.267 113.942C207.243 113.927 207.221 113.912 207.197 113.897C207.102 113.835 207.008 113.775 206.916 113.716C205.766 112.987 204.838 112.512 204.202 112.365C204.202 112.365 171.989 108.313 133.298 109.027H133.279L133.173 109.02C133.153 109.02 133.131 109.02 133.106 109.02H133.01H132.901H132.892C132.742 109.02 132.552 109.015 132.315 109.02C132.253 109.02 132.188 109.02 132.121 109.026H132.036L131.877 109.033L131.751 109.04C131.702 109.04 131.651 109.045 131.6 109.048C128.026 109.269 119.381 110.841 111.981 120.347L111.884 120.473C111.852 120.514 111.82 120.558 111.789 120.599L111.767 120.627C111.755 120.644 111.742 120.66 111.73 120.677C111.718 120.694 111.692 120.725 111.675 120.75C111.657 120.775 111.652 120.781 111.641 120.796C111.631 120.811 111.604 120.844 111.586 120.868C111.584 120.87 111.582 120.873 111.581 120.876C107.943 125.726 105.211 131.057 102.953 136.595C102.802 136.963 102.654 137.332 102.508 137.701C102.361 138.07 102.212 138.441 102.059 138.812C101.968 139.05 101.879 139.288 101.79 139.525C101.528 140.221 101.273 140.92 101.024 141.622C100.554 142.939 100.1 144.263 99.6623 145.595C97.9451 150.821 96.4348 156.112 94.8027 161.275C94.807 161.276 91.1012 173 92.7154 180.858Z" fill="#E83535"/>
<path d="M104.883 134.903C104.688 135.711 104.528 136.532 104.412 137.359C104.529 136.532 104.689 135.711 104.883 134.903Z" fill="white"/>
<path d="M104.378 137.621C104.389 137.536 104.401 137.445 104.413 137.356C104.4 137.441 104.39 137.519 104.379 137.599C104.378 137.606 104.378 137.613 104.378 137.621Z" fill="white"/>
<path d="M233.971 136.368L236.719 138.823L238.498 138.228L238.053 135.862C234.536 130.042 229.311 132.003 229.311 132.003L233.971 136.368Z" fill="#AF0C0C"/>
<path d="M119.039 114.331C119.039 114.331 130.71 105.697 130.488 115.256C130.488 115.256 128.432 140.103 124.356 144.108C124.356 144.108 107.06 140.714 104.523 137.903C103.607 136.888 111.586 118.589 119.039 114.331Z" fill="#CC0000"/>
<path d="M114.259 135.599C114.259 135.599 114.82 135.952 115.68 136.395C117.713 137.439 121.422 138.973 123.375 137.489C123.617 137.296 123.83 137.068 124.007 136.814C124.525 136.107 125.018 135.058 125.472 133.842C125.472 133.833 125.479 133.823 125.483 133.813C125.501 133.766 125.519 133.718 125.536 133.669C125.885 132.721 126.21 131.676 126.508 130.618C126.749 129.757 126.972 128.886 127.172 128.049C127.44 126.943 127.669 125.888 127.853 124.993C128.017 124.199 128.145 123.528 128.234 123.051C128.326 122.55 128.376 122.26 128.376 122.26C128.512 121.386 128.602 120.506 128.645 119.622C128.761 117.252 128.559 114.071 126.708 113.591C126.708 113.591 125.191 113.3 124.376 113.473C124.171 113.516 124.01 113.589 123.93 113.703C123.38 114.479 122.804 115.343 122.212 116.294C121.921 116.763 121.627 117.252 121.329 117.762C120.882 118.528 120.43 119.346 119.981 120.204C119.487 121.146 118.999 122.138 118.517 123.183C118.515 123.186 118.513 123.189 118.512 123.193C117.686 124.99 116.895 126.937 116.168 129.012C116.127 129.131 116.082 129.247 116.046 129.366C115.346 131.413 114.75 133.493 114.259 135.599Z" fill="#CDEFF8"/>
<path d="M107.997 133.265C107.997 133.265 110.191 134.096 111.796 134.511C111.852 134.525 111.907 134.54 111.961 134.552C112.677 134.729 113.248 134.808 113.408 134.672C113.599 134.508 114.219 132.646 115.096 130.117C115.251 129.667 115.415 129.197 115.588 128.711C115.616 128.626 115.646 128.547 115.673 128.464C115.758 128.23 115.843 127.993 115.928 127.753C116.281 126.767 116.658 125.737 117.055 124.706C117.3 124.067 117.553 123.429 117.811 122.798C118.816 120.343 119.903 118.042 120.967 116.517C120.967 116.517 121.229 116.123 121.267 115.801C121.299 115.528 121.173 115.304 120.596 115.405L120.553 115.43C120.206 115.629 117.862 117.022 115.244 119.75C114.923 120.084 114.597 120.439 114.272 120.814C114.068 121.049 113.864 121.289 113.659 121.54C113.363 121.903 113.069 122.282 112.777 122.679L112.771 122.687C111.966 123.783 111.241 124.935 110.603 126.135C110.299 126.705 110.009 127.301 109.734 127.922C109.44 128.589 109.164 129.284 108.913 130.007C108.541 131.073 108.235 132.161 107.997 133.265Z" fill="#CDEFF8"/>
<path d="M202.53 113.743C199.645 113.168 153.262 110.753 134.452 112.142C133.686 112.199 133.248 113.093 133.231 113.87C133.128 118.708 133.051 137.015 136.994 135.489C136.994 135.489 205.922 135.148 224.965 135.807C226.643 135.865 227.529 133.811 226.348 132.601C220.884 127.005 209.998 116.502 202.84 113.829C202.739 113.792 202.636 113.763 202.53 113.743Z" fill="#CC0000"/>
<path d="M135.771 118.863C135.819 124.82 136.355 134.476 139.299 133.452C139.299 133.452 149.85 133.405 163.573 133.386C170.345 133.377 177.889 133.374 185.322 133.386C199.763 133.411 213.779 133.497 220.871 133.708L221.175 133.717C222.737 133.765 223.563 132.046 222.464 131.033C217.376 126.353 207.245 117.556 200.583 115.319C200.489 115.288 200.393 115.263 200.295 115.246C199.27 115.062 192.346 114.651 183.201 114.285C173.171 113.88 160.47 113.52 149.953 113.553C144.942 113.569 140.422 113.675 136.934 113.906C136.221 113.954 135.813 114.702 135.797 115.353C135.778 116.156 135.764 117.397 135.771 118.863Z" fill="#CDEFF8"/>
<path d="M155.206 195.712C181.68 196.393 228.279 197.179 248.236 194.964L248.432 194.555C248.747 193.55 248.668 192.462 248.209 191.513C247.479 190.056 246.848 188.009 246.314 187.672L246.208 187.627C245.657 187.512 244.536 168.277 235.199 166.169C235.199 166.169 226.02 162.522 219.763 160.788C217.166 160.068 215.072 159.682 214.345 160.015C211.863 161.162 188.999 160.166 188.999 160.166C188.999 160.166 187.79 160.331 185.877 160.697C179.697 161.881 166.165 165.16 162.321 171.727C162.321 171.727 156.727 182.398 156.389 188.072L155.206 195.712Z" fill="#CC0000"/>
<path d="M238.353 144.9C238.948 144.873 244.153 146.117 246.916 146.602C245.35 144.738 243.13 143.099 239.982 142.156C239.982 142.156 237.523 139.823 233.87 136.461L233.572 136.265L135.784 135.414C134.796 137.556 139.048 140.574 139.048 140.574" fill="#F44E4E"/>
<path d="M155.206 195.711C181.681 196.396 228.279 197.179 248.236 194.964L248.431 194.555C248.746 193.55 248.667 192.462 248.208 191.514C247.479 190.055 246.847 188.01 246.314 187.672L246.208 187.628L241.277 189.067C236.72 190.4 232.008 191.126 227.261 191.229C218.246 191.421 209.23 191.598 200.213 191.761C190.8 191.926 181.076 191.867 171.694 191.308C166.632 191.006 161.374 189.195 156.389 188.074L155.722 192.182L155.206 195.711Z" fill="#AF0C0C"/>
<path d="M181.587 174.098C181.586 174.798 181.724 175.492 181.992 176.14C182.26 176.787 182.653 177.375 183.149 177.871C183.644 178.366 184.232 178.759 184.879 179.027C185.527 179.296 186.22 179.434 186.921 179.434H219.973C220.68 179.443 221.381 179.311 222.036 179.047C222.691 178.783 223.287 178.392 223.79 177.895C224.293 177.399 224.692 176.808 224.964 176.156C225.236 175.504 225.377 174.805 225.377 174.098C225.377 173.392 225.236 172.692 224.964 172.041C224.692 171.389 224.293 170.798 223.79 170.301C223.287 169.805 222.691 169.413 222.036 169.149C221.381 168.885 220.68 168.754 219.973 168.763H186.921C185.506 168.763 184.149 169.325 183.149 170.326C182.149 171.326 181.587 172.683 181.587 174.098Z" fill="#AF0C0C"/>
<path d="M181.587 174.098C181.477 174.637 181.501 175.195 181.656 175.722C181.811 176.25 182.093 176.732 182.477 177.126C182.86 177.52 183.334 177.815 183.858 177.984C184.381 178.153 184.938 178.192 185.48 178.097H218.532C219.197 178.331 219.906 178.416 220.608 178.345C221.31 178.273 221.988 178.049 222.593 177.686C223.198 177.323 223.716 176.832 224.11 176.246C224.503 175.661 224.763 174.996 224.871 174.299C224.979 173.602 224.932 172.889 224.733 172.212C224.534 171.535 224.189 170.91 223.721 170.382C223.253 169.854 222.675 169.435 222.027 169.155C221.38 168.876 220.678 168.742 219.973 168.765H186.921C185.507 168.765 184.15 169.327 183.15 170.327C182.149 171.327 181.587 172.684 181.587 174.098Z" fill="#EC2C2C"/>
<path d="M99.666 145.597C100.13 146.149 100.677 146.625 101.288 147.008C103.085 148.174 105.246 148.823 107.314 149.293C116.543 151.385 126.67 149.588 135.714 147.496C135.714 147.496 136.245 144.95 137.121 143.782C135.913 145.393 128.521 144.398 126.995 144.261C118.116 143.469 110.774 140.134 102.941 136.589C101.734 139.543 100.664 142.556 99.666 145.597Z" fill="#F44E4E"/>
<path d="M132.632 179.416C133.079 182.711 133.241 186.038 133.116 189.36L133.145 189.459C133.188 189.653 133.315 190.11 133.509 190.708C133.55 190.831 133.594 190.963 133.641 191.094L133.653 191.129C133.963 192.007 134.419 193.075 135.028 194.003C135.29 194.414 135.593 194.796 135.934 195.143C135.934 195.143 140.407 195.301 147.635 195.509L148.383 195.53C149.982 195.576 151.707 195.623 153.539 195.671H153.553L155.206 195.714L156.388 188.655C156.404 188.383 156.433 188.098 156.473 187.804C155.874 187.861 155.273 187.9 154.67 187.922C150.372 188.073 146.1 187.192 142.212 185.355C138.324 183.517 134.932 180.775 132.32 177.359C132.433 178.028 132.538 178.715 132.632 179.416Z" fill="#BB1010"/>
<path d="M244.988 182.128C245.724 185.541 246.009 188.169 246.208 188.212L246.314 188.255C246.848 188.596 247.479 190.638 248.209 192.098C248.983 193.654 248.269 194.952 248.269 194.952L249.096 194.867C249.521 194.817 249.928 194.764 250.324 194.71C251.374 194.568 252.325 194.413 253.171 194.253C253.171 194.253 254.541 192.063 255.321 189.538C255.394 189.3 255.461 189.059 255.523 188.816C255.742 187.97 255.877 187.114 255.854 186.307C254.198 186.315 252.576 185.835 251.191 184.927C248.383 183.055 246.75 179.828 245.889 176.563C245.88 177.039 245.848 177.514 245.792 177.987C245.638 179.361 245.31 180.748 244.988 182.128Z" fill="#BB1010"/>
<path d="M155.207 195.715L156.389 188.656C156.405 188.384 156.434 188.099 156.474 187.805C157.254 181.982 162.323 172.313 162.323 172.313C167.356 163.713 189.001 160.752 189.001 160.752C189.001 160.752 211.865 161.748 214.347 160.601C216.828 159.454 235.201 166.755 235.201 166.755C241.104 168.086 243.723 176.264 244.986 182.13C245.723 185.543 246.007 188.171 246.206 188.214L246.313 188.257C246.846 188.598 247.478 190.64 248.208 192.1C248.981 193.656 248.268 194.954 248.268 194.954L249.095 194.869L250.309 194.745L250.323 194.712C250.408 194.495 250.778 193.28 249.797 191.309C249.561 190.838 249.327 190.275 249.1 189.73C248.614 188.56 248.257 187.704 247.726 187.142C247.663 186.817 247.583 186.349 247.509 185.919C247.169 183.937 246.669 181.024 245.79 177.99C244.174 172.398 241.272 166.395 235.727 165.056C233.582 164.205 219.515 158.702 215.122 158.702C214.51 158.702 214.01 158.796 213.59 158.989C213.436 159.043 212.174 159.377 205.562 159.377C198.32 159.377 189.161 158.981 189.068 158.978L188.909 158.971L188.751 158.992C187.832 159.118 166.187 162.178 160.777 171.415C160.512 171.919 155.331 181.852 154.662 187.923C154.641 188.105 154.624 188.283 154.612 188.458L153.546 195.673L153.538 195.732L155.207 195.715Z" fill="#AF0C0C"/>
<g opacity="0.51">
<path opacity="0.51" d="M135.713 148.268C136.373 151.507 136.819 156.199 140.287 157.333C144.859 158.828 150.598 158.955 155.375 159.395C175.276 161.226 169.729 159.502 173.303 158.157C173.303 158.157 167.697 153.442 159.51 149.302C157.571 148.314 155.288 147.486 152.607 146.931C152.607 146.931 146.049 144.997 142.76 143.582C140.773 142.726 138.443 143.097 136.889 144.603C136.362 145.113 135.939 145.735 135.745 146.488C135.596 147.071 135.585 147.68 135.713 148.268Z" fill="#AF0C0C"/>
</g>
<path d="M185.878 160.697C187.25 160.889 188.355 161.144 188.997 161.478C192.405 163.257 203.597 174.948 214.864 161.757C214.864 161.757 217.021 161.307 219.766 160.788C217.169 160.068 215.076 159.682 214.349 160.015C211.867 161.162 189.003 160.166 189.003 160.166C189.003 160.166 187.791 160.331 185.878 160.697Z" fill="#AF0C0C"/>
<path d="M233.035 150.912C233.035 150.912 211.97 151.831 210.304 151.273C210.304 151.273 202.967 144.27 192.74 151.162C192.74 151.162 164.616 150.939 162.115 150.495C162.115 150.495 168.229 155.627 169.118 158.888C169.118 158.888 185.589 158.388 188.998 160.164C192.408 161.941 203.597 173.633 214.866 160.442C214.866 160.442 228.279 157.645 230.799 157.942C230.794 157.943 231.551 155.362 233.035 150.912Z" fill="#CC0000"/>
<g opacity="0.51">
<path opacity="0.51" d="M230.653 158.955L238.124 158.987C241.049 158.999 244.865 159.678 247.701 158.987C252.935 157.71 248.972 150.172 246.873 147.697C245.768 146.394 244.427 145.311 242.921 144.506C242.182 144.112 241.322 144.01 240.512 144.221C239.702 144.432 239.001 144.94 238.548 145.644C237.679 146.989 236.52 148.649 235.38 149.886H235.374C235.033 150.268 234.663 150.623 234.268 150.948C233.028 151.942 231.989 153.162 231.205 154.544C230.134 156.436 226.147 158.133 225.575 158.458C226.386 158.458 229.842 158.952 230.653 158.955Z" fill="#AF0C0C"/>
</g>
<path d="M228.22 157.806L230.653 157.816L238.123 157.847C241.049 157.86 244.865 158.539 247.701 157.847C251.792 156.847 250.264 152.027 248.4 148.785C247.956 147.999 247.445 147.254 246.872 146.556C246.544 146.168 246.195 145.799 245.825 145.45C244.952 144.63 243.976 143.928 242.921 143.362C242.182 142.968 241.322 142.867 240.511 143.078C239.701 143.289 239 143.797 238.547 144.501C237.678 145.845 236.52 147.507 235.38 148.744H235.374C235.033 149.125 234.663 149.48 234.268 149.805C233.028 150.799 231.988 152.019 231.204 153.401C230.712 154.272 230.162 155.206 229.655 155.991L229.576 156.114C229.014 156.978 228.513 157.64 228.22 157.806Z" fill="#FFEAD2"/>
<path d="M135.713 147.496C136.373 150.735 136.819 155.427 140.287 156.562C144.859 158.057 150.583 158.461 155.374 158.622C160.166 158.784 164.975 158.925 169.73 159.502C169.73 159.502 168.163 154.234 162.242 150.148C161.37 149.548 160.459 149.008 159.513 148.531C157.574 147.544 155.291 146.715 152.61 146.161C152.61 146.161 146.052 144.227 142.763 142.811C140.775 141.96 138.446 142.326 136.892 143.832C136.647 144.066 136.429 144.327 136.242 144.61C136.017 144.949 135.85 145.323 135.747 145.717C135.597 146.299 135.586 146.908 135.713 147.496Z" fill="#FFEAD2"/>
<path d="M100.503 183.067C100.601 183.901 100.735 184.791 100.92 185.675C101.277 187.37 101.821 189.044 102.653 190.279C103.319 191.267 104.169 191.973 105.255 192.181L111.256 192.782L119.851 193.642H119.887C119.725 192.988 119.6 192.326 119.512 191.658C119.469 191.349 119.427 191.007 119.388 190.637C118.828 185.011 119.716 179.334 121.966 174.147C121.966 174.144 121.966 174.141 121.966 174.138C122.035 173.979 122.106 173.82 122.178 173.661C122.178 173.661 122.178 173.653 122.178 173.637C122.178 173.552 122.186 173.296 122.203 172.899C119.796 176.122 116.367 178.577 112.652 180.181C108.814 181.836 104.674 182.653 100.503 183.067Z" fill="#BB1010"/>
<path d="M111.035 141.047C110.846 141.503 110.676 141.966 110.517 142.433C110.438 142.666 110.356 142.898 110.283 143.133L110.17 143.485L110.063 143.839C109.781 144.782 109.513 145.728 109.29 146.687L109.205 147.044L109.12 147.404L108.956 148.122L108.806 148.844C108.757 149.084 108.706 149.324 108.663 149.566C108.483 150.531 108.306 151.497 108.167 152.469C108.096 152.954 108.022 153.439 107.967 153.927C107.913 154.415 107.838 154.9 107.797 155.389L107.721 156.121C107.696 156.364 107.669 156.608 107.651 156.852L107.531 158.319L107.44 159.788C107.422 160.032 107.417 160.277 107.406 160.522L107.377 161.258C107.37 161.503 107.354 161.748 107.35 161.993L107.337 162.729L107.324 163.464L107.318 163.832V164.2L107.323 165.672C107.329 166.162 107.349 166.653 107.361 167.143L107.38 167.879C107.388 168.124 107.404 168.37 107.415 168.615L107.488 170.086C107.622 172.043 107.779 174 108.015 175.957C108.473 179.865 109.137 183.75 109.925 187.624C108.751 183.841 107.864 179.975 107.269 176.058L107.155 175.323C107.119 175.078 107.077 174.834 107.048 174.588L106.867 173.111C106.838 172.865 106.805 172.619 106.782 172.372L106.713 171.632L106.578 170.15C106.44 168.17 106.345 166.185 106.355 164.198C106.366 162.211 106.445 160.226 106.62 158.247C106.795 156.268 107.062 154.297 107.431 152.345C107.789 150.391 108.26 148.459 108.84 146.559L109.065 145.849L109.304 145.145C109.38 144.909 109.474 144.678 109.552 144.444C109.631 144.211 109.723 143.98 109.816 143.749C110.166 142.824 110.574 141.921 111.035 141.047Z" fill="#CC0000"/>
<g opacity="0.33">
<path opacity="0.54" d="M118.512 123.193L125.536 133.669C125.885 132.721 126.21 131.677 126.508 130.618C126.748 129.757 126.971 128.886 127.172 128.049C127.439 126.943 127.668 125.888 127.853 124.993C126.198 121.466 123.694 117.06 122.212 116.292C121.921 116.761 121.627 117.251 121.329 117.761C120.881 118.527 120.43 119.344 119.981 120.203C119.487 121.144 118.999 122.137 118.517 123.181C118.515 123.185 118.513 123.189 118.512 123.193Z" fill="white"/>
</g>
<g opacity="0.33">
<path opacity="0.54" d="M108.911 130.004L111.961 134.553C112.677 134.729 113.248 134.808 113.408 134.673C113.599 134.508 114.219 132.646 115.096 130.117C115.251 129.668 115.415 129.197 115.588 128.711C115.616 128.626 115.646 128.547 115.673 128.464C114.814 126.484 113.846 124.552 112.775 122.678L112.769 122.687C111.963 123.782 111.239 124.934 110.6 126.135C110.296 126.705 110.006 127.3 109.732 127.921C109.438 128.586 109.162 129.282 108.911 130.004Z" fill="white"/>
</g>
<path d="M126.574 139.045L125.638 141.713C125.638 141.713 110.406 143.455 106.444 138.6C106.444 138.6 105.406 127.559 121.858 131.264C123.665 131.671 121.932 138.674 121.932 138.674C121.932 138.674 124.939 139.565 126.574 139.045Z" fill="#AF0C0C"/>
<g opacity="0.54">
<path opacity="0.54" d="M149.953 113.555L185.322 133.388C199.763 133.413 213.779 133.499 220.871 133.709C213.644 130.004 197.982 121.967 183.201 114.287C173.172 113.881 160.47 113.521 149.953 113.555Z" fill="white"/>
<path opacity="0.54" d="M135.771 118.864C135.819 124.82 136.355 134.476 139.299 133.452C139.299 133.452 149.851 133.406 163.573 133.386C153.604 128.226 143.396 122.909 135.771 118.864Z" fill="white"/>
</g>
<path d="M136.955 147.018C145.402 150.093 154.193 152.825 162.957 152.558C162.085 151.957 161.173 151.417 160.228 150.941C158.289 149.954 156.006 149.125 153.325 148.57C153.325 148.57 146.767 146.636 143.478 145.22C141.49 144.37 139.161 144.735 137.607 146.242C137.361 146.475 137.142 146.735 136.955 147.018Z" fill="white"/>
<path d="M229.81 156.797C234.442 155.005 238.8 152.574 242.758 149.575C243.93 148.686 245.097 147.651 246.059 146.504C245.182 145.71 244.206 145.032 243.155 144.489C241.628 143.695 239.725 144.182 238.782 145.588C237.913 146.886 236.755 148.489 235.615 149.684H235.609C235.266 150.051 234.897 150.392 234.503 150.705C233.27 151.656 232.23 152.834 231.44 154.175C230.947 155.015 230.396 155.917 229.89 156.675C229.864 156.719 229.837 156.758 229.81 156.797Z" fill="white"/>
<path d="M162.092 74.6814C162.129 79.5792 170.441 92.4851 170.505 92.5855H172.283V89.6013C174.686 85.4318 178.674 77.9931 178.648 74.5563C178.61 69.6389 174.875 65.6804 170.303 65.7145C165.731 65.7485 162.057 69.764 162.092 74.6814ZM166.923 74.2466C166.909 72.3107 168.438 70.7297 170.34 70.7153C172.242 70.7008 173.796 72.2588 173.81 74.1955C173.825 76.1322 172.295 77.7166 170.396 77.7268C168.496 77.737 166.937 76.1849 166.923 74.2466Z" fill="#CC0000"/>
<path d="M168.701 74.2474C168.686 72.3116 170.216 70.7297 172.118 70.7153C174.02 70.7008 175.573 72.2588 175.588 74.1955C175.603 76.1322 174.072 77.7123 172.171 77.7268C170.269 77.7413 168.715 76.1849 168.701 74.2474ZM163.869 74.6814C163.906 79.5988 172.283 92.5855 172.283 92.5855C172.283 92.5855 175.594 87.2783 177.993 82.1507C179.365 79.2185 180.439 76.3449 180.425 74.5563C180.388 69.6389 176.652 65.6804 172.08 65.7145C171.116 65.7212 170.161 65.9082 169.265 66.2658C166.091 67.5294 163.844 70.8284 163.869 74.6814Z" fill="#E83535"/>
<path d="M344.339 191.609C344.373 191.609 344.405 191.596 344.429 191.572C344.453 191.548 344.466 191.516 344.466 191.482C344.466 191.448 344.453 191.416 344.429 191.392C344.405 191.368 344.373 191.354 344.339 191.354C344.305 191.354 344.273 191.368 344.249 191.392C344.225 191.416 344.211 191.448 344.211 191.482C344.211 191.516 344.225 191.548 344.249 191.572C344.273 191.596 344.305 191.609 344.339 191.609Z" fill="black"/>
</svg>
