<svg width="48" height="48" viewBox="0 0 48 48" fill="none" xmlns="http://www.w3.org/2000/svg">
<rect width="48" height="48" rx="16" fill="#75C1D4"/>
<path opacity="0.25" d="M40.3789 37.4871C40.2717 37.6814 40.1537 37.8728 40.0249 38.0612C40.0005 38.0968 39.9757 38.1324 39.9506 38.1674C39.94 38.183 39.9289 38.1979 39.9178 38.213C39.9022 38.2341 39.8875 38.2546 39.8723 38.2755C39.8605 38.2911 39.8483 38.3067 39.8363 38.3233C39.8222 38.342 39.8078 38.3609 39.7932 38.3796C39.7687 38.4109 39.744 38.443 39.7188 38.4743L39.672 38.5322C39.6631 38.5427 39.6545 38.5531 39.6461 38.5634C39.5741 38.6498 39.501 38.7338 39.4259 38.8151C39.4103 38.8333 39.3931 38.8511 39.3766 38.8685C39.36 38.886 39.3453 38.9018 39.3297 38.9184C39.3141 38.9349 39.2944 38.9549 39.2766 38.973C39.2519 38.9985 39.227 39.0234 39.2021 39.0483C39.194 39.0562 39.1865 39.0639 39.1776 39.0723L39.1292 39.1192L39.1266 39.1214C39.1013 39.1458 39.0757 39.17 39.0499 39.194L39.0394 39.2038C38.9916 39.2482 38.9433 39.2918 38.8944 39.3348C38.8912 39.3376 38.8878 39.3403 38.8848 39.3434C38.8356 39.3865 38.7858 39.4289 38.7356 39.4705C38.7134 39.4888 38.6915 39.5067 38.669 39.5247L38.6547 39.5363C38.6039 39.577 38.5524 39.6171 38.5007 39.6565C38.4829 39.6701 38.4653 39.683 38.4473 39.6966C38.4329 39.7076 38.4186 39.7183 38.404 39.7288C38.377 39.7488 38.3497 39.7683 38.3227 39.7877C38.2988 39.805 38.2747 39.8217 38.2502 39.8387C38.241 39.8453 38.2312 39.8518 38.2218 39.8582C38.2018 39.8723 38.1815 39.886 38.1615 39.8998C38.1545 39.9041 38.1478 39.9088 38.1408 39.9135C38.1138 39.9315 38.0869 39.9494 38.0597 39.9672C38.0326 39.985 38.0054 40.0024 37.9779 40.0199C37.9504 40.0373 37.9226 40.0548 37.8947 40.0719C37.8457 40.1019 37.7965 40.1317 37.747 40.1612C37.7195 40.1768 37.692 40.1937 37.664 40.2093C37.6601 40.2118 37.6561 40.2141 37.652 40.2163C37.6208 40.2341 37.5896 40.2519 37.5583 40.2694L37.5051 40.2987L37.4906 40.3067C37.4735 40.3159 37.4565 40.3253 37.439 40.3343C37.4129 40.3486 37.3864 40.3628 37.3599 40.3763C37.3363 40.3887 37.313 40.401 37.2893 40.4129L37.2382 40.4388L37.2107 40.4525C37.1639 40.476 37.117 40.4994 37.0702 40.5214C37.0533 40.5295 37.0363 40.538 37.019 40.5459L37.0129 40.5489C36.9796 40.5645 36.9464 40.5801 36.9129 40.5957C36.9086 40.5976 36.9044 40.5998 36.9001 40.6015C36.8708 40.6149 36.8414 40.6279 36.8124 40.641C36.768 40.6607 36.7235 40.6804 36.6789 40.6993C36.6411 40.7149 36.6033 40.7314 36.5652 40.7471C36.5271 40.7627 36.4923 40.777 36.4559 40.7916C36.4519 40.7935 36.4477 40.7952 36.4434 40.7966C36.4112 40.8094 36.3789 40.8221 36.3464 40.8348C36.3411 40.8372 36.3357 40.839 36.3308 40.8411C36.2944 40.8553 36.2579 40.8693 36.2215 40.8827C36.1925 40.894 36.1633 40.9048 36.1342 40.9152C36.0835 40.9341 36.0326 40.9523 35.9813 40.9699C35.9445 40.983 35.9078 40.9958 35.8706 41.0085C35.8372 41.02 35.8033 41.0312 35.7701 41.0423C35.7423 41.0515 35.7146 41.0608 35.6867 41.0697C35.6587 41.0786 35.627 41.0887 35.5969 41.0984C35.5911 41.1004 35.5855 41.102 35.5799 41.1037C35.5504 41.1132 35.521 41.1223 35.4912 41.1313C35.3879 41.1634 35.2838 41.1942 35.1789 41.2236L35.0779 41.2519C35.0466 41.2605 35.0154 41.2691 34.9842 41.2772C34.9392 41.2897 34.8939 41.3015 34.8485 41.3134L34.7651 41.3348C34.6586 41.3623 34.5516 41.3883 34.444 41.4129L34.3717 41.4299C34.3186 41.4422 34.2653 41.4543 34.2117 41.4663C34.1856 41.4721 34.1595 41.478 34.1336 41.4835C34.0978 41.4914 34.0627 41.4991 34.0273 41.5066C33.8842 41.5378 33.7406 41.567 33.5964 41.594L33.5007 41.6126C33.3917 41.6334 33.2824 41.6534 33.1728 41.6724C32.499 41.7917 31.819 41.878 31.133 41.9313C30.8804 41.9511 30.6276 41.9667 30.3744 41.9782C25.6015 42.189 20.6794 40.8726 16.592 38.3876C16.5468 38.3601 16.5016 38.3326 16.4566 38.3047L16.3609 38.2452C16.2624 38.1837 16.1645 38.1216 16.0671 38.0589L15.983 38.0042C15.9494 37.9827 15.9161 37.9607 15.8826 37.9388C15.7959 37.882 15.7097 37.8247 15.624 37.767C15.586 37.7413 15.5479 37.7157 15.5103 37.689C15.4995 37.6818 15.4886 37.6743 15.4781 37.6668C15.4388 37.6401 15.4001 37.6128 15.3607 37.5856C15.3576 37.5838 15.3546 37.5818 15.3518 37.5795C15.309 37.5497 15.2664 37.5195 15.2238 37.4896C15.0851 37.3915 14.9478 37.292 14.8118 37.1912C14.7892 37.1746 14.7669 37.1577 14.7444 37.1407C14.7146 37.1189 14.685 37.0965 14.6552 37.0739L14.6494 37.0695C14.6362 37.0597 14.6226 37.0497 14.6093 37.0392C14.5692 37.0091 14.5292 36.9783 14.4891 36.9477C14.3886 36.8703 14.2887 36.7922 14.1893 36.7135C14.1524 36.6841 14.1156 36.6545 14.079 36.625C14.0704 36.6181 14.0618 36.6111 14.0529 36.6042L13.9641 36.5317C13.9454 36.5166 13.9265 36.501 13.9076 36.4849C13.8763 36.4596 13.8451 36.434 13.8139 36.4081L13.6904 36.3044C13.6338 36.2566 13.5775 36.2084 13.5212 36.1599C13.4889 36.132 13.4563 36.1037 13.4238 36.0753C13.4191 36.0711 13.4143 36.0672 13.4096 36.0628C13.3968 36.0519 13.3843 36.0406 13.3715 36.0294C13.3389 36.0008 13.3059 35.9719 13.2733 35.9427C13.265 35.9355 13.2566 35.9279 13.2481 35.9204C13.2093 35.8859 13.1701 35.8509 13.1321 35.8161C13.1312 35.8161 13.1306 35.8144 13.1296 35.8137C13.035 35.7282 12.9413 35.6417 12.8485 35.5544C12.8183 35.526 12.788 35.4972 12.7577 35.4682C12.7444 35.4558 12.7308 35.443 12.7175 35.4302C12.6997 35.4134 12.682 35.3964 12.6643 35.3792C12.6232 35.3398 12.5826 35.3011 12.5419 35.2608C12.495 35.2154 12.4493 35.1695 12.4029 35.1236C12.3612 35.0819 12.3196 35.0403 12.278 34.9986L12.2525 34.973C12.216 34.936 12.1795 34.8987 12.1432 34.8612C12.1327 34.8504 12.1224 34.84 12.112 34.83C12.0807 34.7974 12.0495 34.7647 12.0183 34.7316C12.0099 34.723 12.0014 34.7144 11.9933 34.7055C11.9621 34.6734 11.9326 34.6415 11.9023 34.609C11.8929 34.5994 11.8835 34.5892 11.8743 34.5792L11.8523 34.5558C11.8106 34.511 11.7694 34.466 11.7274 34.4209C10.9438 33.5659 10.2396 32.6415 9.62323 31.6592C9.50341 31.4676 9.38723 31.2739 9.2747 31.0781C9.26252 31.0574 9.25034 31.0364 9.23878 31.0157C9.15498 30.8685 9.07331 30.72 8.99378 30.5702C8.44601 29.5424 8.00552 28.4609 7.67929 27.3428C7.02752 25.1031 6.79032 22.7078 7.20928 20.4294C7.4485 19.1263 7.90306 17.8611 8.6173 16.685C10.0881 14.2635 12.5244 12.3896 15.3182 11.5754C17.8167 10.8476 20.5337 10.9623 23.0387 11.6603C25.426 12.3254 27.6703 13.5271 29.3941 15.245C31.1242 16.969 31.8886 18.8989 32.4967 21.1631C33.076 23.318 34.6031 24.6362 36.481 25.8258C38.4485 27.073 40.0269 29.0894 40.7752 31.3067C41.4624 33.3455 41.4459 35.5553 40.3789 37.4871Z" fill="white"/>
<path opacity="0.25" d="M40.3789 37.4871C40.2717 37.6814 40.1537 37.8728 40.0249 38.0613C40.0006 38.0969 39.9757 38.1325 39.9506 38.1674C39.94 38.1831 39.9289 38.1979 39.9178 38.213C39.9022 38.2341 39.8875 38.2546 39.8724 38.2755C39.8605 38.2911 39.8483 38.3067 39.8363 38.3233C39.8223 38.342 39.8079 38.3609 39.7932 38.3796C39.7687 38.4109 39.744 38.443 39.7189 38.4743L39.672 38.5322C39.6631 38.5427 39.6545 38.5531 39.6461 38.5634C39.5741 38.6498 39.501 38.7338 39.4259 38.8152C39.4103 38.8333 39.3931 38.8511 39.3766 38.8686C39.36 38.886 39.3454 38.9018 39.3297 38.9184C39.3141 38.9349 39.2945 38.9549 39.2767 38.973C39.252 38.9985 39.227 39.0235 39.2022 39.0483C39.194 39.0563 39.1866 39.0639 39.1777 39.0723L39.1292 39.1192L39.1266 39.1214C39.1013 39.1458 39.0757 39.17 39.0499 39.194L39.0395 39.2038C38.9917 39.2482 38.9433 39.2918 38.8944 39.3348C38.8913 39.3376 38.8878 39.3403 38.8849 39.3434C38.8356 39.3865 38.7859 39.4289 38.7356 39.4705C38.7134 39.4888 38.6916 39.5067 38.6691 39.5247L38.6547 39.5363C38.604 39.577 38.5524 39.6171 38.5007 39.6565C38.4829 39.6701 38.4653 39.683 38.4473 39.6966C38.433 39.7076 38.4186 39.7183 38.4041 39.7288C38.3771 39.7488 38.3497 39.7683 38.3227 39.7877C38.2988 39.805 38.2748 39.8217 38.2503 39.8387C38.2411 39.8453 38.2312 39.8518 38.2218 39.8582C38.2019 39.8723 38.1816 39.886 38.1616 39.8998C38.1545 39.9042 38.1478 39.9088 38.1408 39.9135C38.1138 39.9315 38.0869 39.9494 38.0598 39.9672C38.0326 39.985 38.0054 40.0024 37.9779 40.0199C37.9505 40.0374 37.9227 40.0548 37.8947 40.0719C37.8458 40.1019 37.7965 40.1317 37.747 40.1612C37.7195 40.1768 37.692 40.1937 37.6641 40.2093C37.6602 40.2118 37.6561 40.2141 37.6521 40.2163C37.6208 40.2341 37.5896 40.2519 37.5584 40.2694L37.5051 40.2988L37.4906 40.3067C37.4736 40.3159 37.4565 40.3253 37.4391 40.3344C37.413 40.3486 37.3864 40.3628 37.3599 40.3764C37.3363 40.3887 37.313 40.401 37.2893 40.4129L37.2382 40.4388L37.2108 40.4526C37.1639 40.476 37.1171 40.4994 37.0702 40.5214C37.0534 40.5295 37.0363 40.538 37.019 40.5459L37.0129 40.5489C36.9797 40.5645 36.9464 40.5801 36.913 40.5958C36.9086 40.5976 36.9044 40.5998 36.9002 40.6015C36.8708 40.615 36.8415 40.6279 36.8124 40.641C36.7681 40.6607 36.7236 40.6804 36.6789 40.6993C36.6411 40.7149 36.6033 40.7314 36.5652 40.7471C36.5271 40.7627 36.4923 40.777 36.4559 40.7916C36.4519 40.7935 36.4477 40.7952 36.4434 40.7966C36.4113 40.8094 36.3789 40.8221 36.3465 40.8348C36.3412 40.8372 36.3357 40.839 36.3309 40.8411C36.2945 40.8553 36.2579 40.8693 36.2215 40.8828C36.1925 40.894 36.1633 40.9048 36.1343 40.9152C36.0836 40.9341 36.0326 40.9523 35.9814 40.9699C35.9445 40.983 35.9078 40.9958 35.8707 41.0085C35.8373 41.02 35.8034 41.0313 35.7701 41.0423C35.7423 41.0516 35.7147 41.0608 35.6867 41.0697C35.6588 41.0786 35.6271 41.0887 35.5969 41.0984C35.5912 41.1004 35.5855 41.102 35.5799 41.1037C35.5504 41.1132 35.521 41.1223 35.4912 41.1314C35.388 41.1634 35.2839 41.1942 35.1789 41.2236L35.0779 41.2519C35.0467 41.2605 35.0154 41.2691 34.9842 41.2772C34.9392 41.2897 34.8939 41.3016 34.8485 41.3134L34.7651 41.3348C34.6586 41.3623 34.5516 41.3883 34.4441 41.4129L34.3718 41.4299C34.3187 41.4422 34.2653 41.4543 34.2117 41.4663C34.1856 41.4721 34.1596 41.478 34.1336 41.4835C34.0979 41.4914 34.0627 41.4991 34.0273 41.5066C33.8843 41.5378 33.7407 41.567 33.5965 41.594L33.5008 41.6126C33.3918 41.6334 33.2825 41.6534 33.1728 41.6724C32.499 41.7917 31.819 41.878 31.133 41.9313C30.8805 41.9511 30.6276 41.9667 30.3744 41.9782C25.6015 42.189 20.6794 40.8726 16.592 38.3876C16.5469 38.3601 16.5016 38.3326 16.4566 38.3047L16.3609 38.2452C16.2624 38.1837 16.1645 38.1216 16.0672 38.0589L15.983 38.0043C15.9494 37.9827 15.9162 37.9607 15.8826 37.9388C15.7959 37.882 15.7097 37.8247 15.624 37.7671C15.7297 37.6942 15.8358 37.6219 15.9423 37.5503C17.1701 36.724 18.449 35.9721 19.7695 35.3174C19.8248 35.2903 19.8799 35.263 19.9354 35.236C21.0511 34.6895 22.202 34.2179 23.3804 33.8244C25.6941 33.0567 28.099 32.622 30.5498 32.6345C32.5204 32.644 34.4967 32.9399 36.4548 32.7205C37.9723 32.5503 39.4492 32.0583 40.7762 31.3035C41.4625 33.3455 41.4459 35.5553 40.3789 37.4871Z" fill="white"/>
<path opacity="0.8" d="M39.2763 38.9725C39.2516 38.9979 39.2266 39.0229 39.2018 39.0477C39.1937 39.0557 39.1862 39.0633 39.1773 39.0718L39.1289 39.1186L39.1262 39.1208C39.1009 39.1453 39.0754 39.1695 39.0496 39.1934L39.0391 39.2032C38.9913 39.2476 38.943 39.2913 38.894 39.3343C38.8909 39.3371 38.8875 39.3397 38.8845 39.3428C38.8353 39.3859 38.7855 39.4283 38.7352 39.4699C38.7131 39.4882 38.6912 39.5062 38.6687 39.5241L38.6543 39.5357C38.6036 39.5764 38.5521 39.6166 38.5004 39.6559C38.4826 39.6695 38.4649 39.6825 38.447 39.6961C38.4326 39.707 38.4182 39.7178 38.4037 39.7282C38.3767 39.7482 38.3494 39.7677 38.3224 39.7871C38.2985 39.8044 38.2744 39.8211 38.2499 39.8382C38.2407 39.8447 38.2309 39.8513 38.2215 39.8577C38.2015 39.8717 38.1812 39.8855 38.1612 39.8992C38.1542 39.9036 38.1475 39.9083 38.1404 39.913C38.1134 39.9309 38.0866 39.9489 38.0594 39.9667C38.0322 39.9845 38.0051 40.0018 37.9776 40.0193C37.9501 40.0368 37.9223 40.0543 37.8944 40.0713C37.8454 40.1014 37.7962 40.1311 37.7466 40.1606C37.7191 40.1762 37.6917 40.1931 37.6637 40.2087C37.6598 40.2112 37.6557 40.2135 37.6517 40.2157C37.6205 40.2335 37.5892 40.2513 37.558 40.2688L37.5048 40.2982L37.4902 40.3061C37.4732 40.3154 37.4562 40.3247 37.4387 40.3338C37.4126 40.348 37.3861 40.3622 37.3595 40.3758C37.336 40.3881 37.3127 40.4005 37.2889 40.4123L37.2379 40.4382L37.2104 40.452C37.1636 40.4754 37.1167 40.4988 37.0699 40.5209C37.053 40.529 37.036 40.5374 37.0187 40.5454L37.0126 40.5483C36.9793 40.5639 36.946 40.5796 36.9126 40.5952C36.9083 40.5971 36.904 40.5992 36.8998 40.601C36.8705 40.6144 36.8411 40.6273 36.8121 40.6405C36.7677 40.6601 36.7232 40.6798 36.6786 40.6987C36.6408 40.7143 36.603 40.7309 36.5649 40.7465C36.5268 40.7621 36.492 40.7765 36.4556 40.791C36.4515 40.793 36.4474 40.7946 36.4431 40.796C36.4109 40.8088 36.3786 40.8215 36.3461 40.8342C36.3408 40.8366 36.3353 40.8385 36.3305 40.8405C36.2941 40.8547 36.2576 40.8688 36.2212 40.8822C36.1921 40.8934 36.1629 40.9042 36.1339 40.9147C36.0832 40.9335 36.0322 40.9517 35.981 40.9693C35.9442 40.9824 35.9075 40.9952 35.8703 41.0079C35.8369 41.0194 35.803 41.0307 35.7697 41.0418C35.742 41.051 35.7143 41.0602 35.6864 41.0691C35.6584 41.078 35.6267 41.0882 35.5966 41.0978C35.5908 41.0999 35.5852 41.1014 35.5796 41.1031C35.55 41.1127 35.5207 41.1217 35.4909 41.1308C35.3876 41.1628 35.2835 41.1936 35.1786 41.2231L35.0775 41.2513C35.0463 41.2599 35.0151 41.2685 34.9838 41.2766C34.9389 41.2891 34.8936 41.301 34.8481 41.3129L34.7648 41.3342C34.6583 41.3617 34.5512 41.3878 34.4437 41.4123L34.3714 41.4293C34.3183 41.4416 34.265 41.4538 34.2114 41.4657C34.1853 41.4715 34.1592 41.4774 34.1333 41.4829C34.0975 41.4909 34.0624 41.4985 34.0269 41.506C33.8839 41.5372 33.7403 41.5664 33.5961 41.5935L33.5004 41.612C33.3914 41.6329 33.2821 41.6528 33.1725 41.6718C32.4986 41.7911 31.8187 41.8774 31.1327 41.9307C30.8801 41.9505 30.6273 41.9661 30.3741 41.9776C25.6011 42.1884 20.6791 40.872 16.5916 38.387C16.5465 38.3596 16.5012 38.3321 16.4563 38.3041L16.3605 38.2446C16.2621 38.1831 16.1642 38.121 16.0668 38.0583L15.9827 38.0037C15.9491 37.9821 15.9158 37.9601 15.8823 37.9383C15.7955 37.8814 15.7093 37.8242 15.6237 37.7665C15.5857 37.7407 15.5476 37.7151 15.51 37.6884C15.4992 37.6812 15.4883 37.6737 15.4778 37.6662C15.4385 37.6395 15.3997 37.6122 15.3604 37.585C15.3573 37.5832 15.3543 37.5812 15.3515 37.579C15.3087 37.5491 15.2661 37.519 15.2234 37.489C15.0848 37.3909 14.9475 37.2915 14.8115 37.1906C14.7889 37.174 14.7665 37.1572 14.7441 37.1402C14.7142 37.1183 14.6847 37.096 14.6549 37.0733L14.6491 37.069C14.6358 37.0591 14.6223 37.0491 14.609 37.0387C14.5689 37.0085 14.5289 36.9778 14.4888 36.9472C14.3883 36.8697 14.2884 36.7916 14.1889 36.7129C14.1521 36.6836 14.1152 36.6539 14.0787 36.6244C14.0701 36.6175 14.0615 36.6105 14.0526 36.6036L13.9638 36.5312C13.945 36.5161 13.9262 36.5005 13.9072 36.4843C13.876 36.459 13.8448 36.4334 13.8136 36.4075L13.69 36.3038C13.6335 36.256 13.5771 36.2079 13.5209 36.1594C13.4886 36.1314 13.456 36.1032 13.4235 36.0747C13.4188 36.0705 13.414 36.0666 13.4093 36.0622C13.3965 36.0513 13.384 36.0401 13.3712 36.0288C13.3385 36.0003 13.3056 35.9714 13.273 35.9422C13.2647 35.935 13.2562 35.9273 13.2478 35.9198C13.2089 35.8853 13.1697 35.8503 13.1318 35.8155C13.1309 35.8155 13.1302 35.8138 13.1293 35.8132C13.0347 35.7276 12.941 35.6412 12.8482 35.5538C12.8179 35.5254 12.7876 35.4967 12.7573 35.4676C12.7441 35.4553 12.7305 35.4425 12.7172 35.4297C12.6994 35.4128 12.6817 35.3958 12.664 35.3786C12.6229 35.3393 12.5823 35.3005 12.5415 35.2603C12.4947 35.2148 12.4489 35.1689 12.4026 35.123C12.3609 35.0814 12.3193 35.0397 12.2776 34.9981L12.2522 34.9725C12.2156 34.9354 12.1792 34.8981 12.1429 34.8607C12.1324 34.8499 12.1221 34.8394 12.1117 34.8294C12.0804 34.7968 12.0492 34.7642 12.018 34.7311C12.0095 34.7225 12.0011 34.7139 11.993 34.705C11.9617 34.6728 11.9322 34.641 11.9019 34.6085C11.8926 34.5988 11.8832 34.5886 11.874 34.5786L11.852 34.5552C11.8103 34.5104 11.7691 34.4654 11.7271 34.4203C11.7912 34.3872 11.8558 34.3548 11.9208 34.323C11.9521 34.3074 11.9849 34.2918 12.017 34.2762C12.1368 34.219 12.2575 34.1641 12.3791 34.1113C12.4157 34.0957 12.4525 34.0801 12.4894 34.0644C13.0079 33.8465 13.5411 33.6653 14.0851 33.5223C14.2457 33.4796 14.4075 33.4401 14.5704 33.4038C14.6104 33.3947 14.6505 33.3859 14.6908 33.3774C14.8242 33.3488 14.958 33.3223 15.0924 33.2977C15.3851 33.2438 15.68 33.1992 15.9773 33.1639C16.9962 33.0424 18.037 33.0242 19.0763 33.0913C19.1404 33.095 19.2042 33.0997 19.2684 33.1046C20.5059 33.1965 21.7392 33.408 22.9278 33.7073C23.0784 33.7452 23.2285 33.7844 23.3783 33.8247C25.3312 34.3508 27.2197 35.0771 29.0979 35.838C29.7606 36.1066 30.4219 36.3792 31.0843 36.65C31.3133 36.7437 31.5419 36.8364 31.7702 36.9283C32.0126 37.0255 32.2551 37.1221 32.4979 37.2181H32.4988C32.5582 37.2417 32.6164 37.2649 32.6759 37.2879C33.3371 37.5471 34.0013 37.7976 34.6708 38.0319C34.7607 38.0632 34.85 38.0944 34.9396 38.1256C35.2968 38.2481 35.6564 38.3664 36.0191 38.4734C36.85 38.7189 37.6965 38.9069 38.5592 38.9598C38.7984 38.973 39.0374 38.9772 39.2763 38.9725Z" fill="white"/>
<path d="M40.3787 37.487C40.2718 37.6812 40.1539 37.8724 40.025 38.0607C40.0006 38.0965 39.9758 38.1319 39.9506 38.1668C39.9398 38.1825 39.9289 38.1981 39.9178 38.2124C39.9022 38.2334 39.8875 38.254 39.8722 38.2749C39.8603 38.2905 39.8484 38.3061 39.8363 38.3227C39.8222 38.3416 39.8078 38.3605 39.7932 38.3791C39.7686 38.4109 39.7438 38.4425 39.7188 38.4737L39.672 38.5316C39.6632 38.5421 39.6548 38.5527 39.6462 38.5628C39.5744 38.649 39.501 38.733 39.426 38.8147C39.4096 38.8326 39.3932 38.8503 39.3767 38.8678C39.3611 38.8847 39.3455 38.9011 39.3299 38.9178C39.3142 38.9345 39.2946 38.9543 39.2768 38.9726C39.2521 38.9979 39.2271 39.0229 39.2023 39.0479L39.1782 39.0719L39.1292 39.1187C39.1283 39.1194 39.1275 39.1201 39.1267 39.1209C39.1014 39.1455 39.0758 39.1695 39.0502 39.1935C39.0466 39.1967 39.0432 39.2001 39.0396 39.2034C38.9918 39.2477 38.9434 39.2914 38.8945 39.3344C38.8914 39.337 38.8879 39.34 38.8848 39.343C38.8356 39.3861 38.7857 39.4286 38.7354 39.4701L38.6692 39.5241L38.6545 39.5358C38.6038 39.5767 38.5525 39.6168 38.5007 39.6561L38.4473 39.6962C38.4329 39.707 38.4186 39.7177 38.404 39.7284C38.377 39.7484 38.3498 39.7679 38.3227 39.7872C38.2986 39.8046 38.2746 39.8213 38.2504 39.8381L38.2218 39.858C38.2018 39.8718 38.1817 39.8856 38.1614 39.8994C38.1545 39.9037 38.1476 39.9086 38.1408 39.9129C38.1137 39.9309 38.0869 39.9489 38.0597 39.9667C38.0325 39.9845 38.0054 40.0018 37.9779 40.0191C37.9504 40.0365 37.9226 40.0541 37.8948 40.0713C37.8458 40.1016 37.7965 40.1313 37.7469 40.1606C37.7197 40.1768 37.6921 40.1929 37.6642 40.2087C37.6601 40.2112 37.6561 40.2137 37.652 40.2157C37.6208 40.2336 37.5895 40.2513 37.5583 40.2687C37.5405 40.2785 37.5227 40.2885 37.5048 40.2982C37.5001 40.3008 37.4954 40.3035 37.4904 40.306C37.4734 40.3153 37.4563 40.3246 37.439 40.3338C37.4128 40.348 37.3862 40.3622 37.3597 40.3758C37.3361 40.3881 37.3128 40.4003 37.2891 40.4122L37.2382 40.4382L37.2106 40.452C37.1639 40.4754 37.1171 40.4984 37.07 40.521C37.053 40.529 37.0358 40.5374 37.0187 40.5454L37.0126 40.5483L36.9126 40.5952C36.9083 40.5969 36.904 40.5989 36.8998 40.6009C36.8706 40.6142 36.8411 40.6272 36.8119 40.6403C36.7677 40.66 36.7232 40.6796 36.6786 40.6984C36.6408 40.714 36.6031 40.7305 36.5649 40.7463C36.5266 40.7621 36.492 40.7765 36.4556 40.7908C36.4514 40.7929 36.4473 40.7944 36.4431 40.796C36.4109 40.8088 36.3786 40.8216 36.3463 40.8341C36.3408 40.8364 36.3355 40.8384 36.3306 40.8405C36.2943 40.8545 36.2579 40.8684 36.2213 40.8822C36.1923 40.8933 36.1631 40.9041 36.1339 40.9145C36.0832 40.9333 36.0323 40.9516 35.9812 40.9693C35.9443 40.9824 35.9074 40.9952 35.8705 41.0077L35.7699 41.0416C35.7423 41.0508 35.7143 41.06 35.6865 41.0688C35.6587 41.0775 35.6267 41.0881 35.5969 41.0975C35.5911 41.0995 35.5855 41.1014 35.5799 41.103C35.5502 41.1123 35.5207 41.1216 35.491 41.1306C35.3877 41.1625 35.2836 41.1932 35.1787 41.2229L35.0774 41.2512C35.0461 41.2597 35.0149 41.2683 34.9837 41.2766C34.9386 41.2889 34.8934 41.3008 34.848 41.3125C34.8205 41.32 34.7925 41.3272 34.7644 41.3341C34.6582 41.3616 34.5512 41.3876 34.4435 41.4122L34.3714 41.429C34.3182 41.4413 34.2649 41.4534 34.2114 41.4654C34.1853 41.4712 34.1589 41.4771 34.1333 41.4827C34.0978 41.4905 34.0625 41.4983 34.0271 41.5055C33.8841 41.5368 33.7404 41.566 33.5963 41.5931C33.565 41.5995 33.5324 41.6055 33.5005 41.6116C33.3916 41.6324 33.2822 41.6524 33.1726 41.6715C32.4988 41.7908 31.8188 41.8772 31.1328 41.9306C30.8805 41.9503 30.6277 41.9659 30.3744 41.9774C25.6011 42.1884 20.6792 40.8719 16.5918 38.3869C17.4939 37.7623 18.5125 37.2568 19.4475 36.8722C19.7621 36.7431 20.0796 36.6258 20.4 36.5202C20.4605 36.4999 20.5211 36.4803 20.5818 36.4612C23.3029 35.5991 26.2044 35.5346 29.1003 35.8358C30.7838 36.011 32.4654 36.3097 34.1086 36.6478C34.1601 36.6583 34.2115 36.669 34.263 36.679C34.657 36.7605 35.0513 36.8441 35.4465 36.9251C35.7946 36.9963 36.1433 37.0657 36.4927 37.1303H36.4938C36.7977 37.1864 37.1008 37.2385 37.4056 37.2851C38.1589 37.4 38.9151 37.4793 39.6749 37.4931C39.8848 37.4968 40.0951 37.4953 40.3056 37.4885L40.3787 37.487Z" fill="white"/>
<path d="M25.063 7.78472C23.6627 7.76882 22.2791 8.08984 21.0289 8.7207C20.8956 8.78775 20.7645 8.85806 20.6353 8.93165C20.6156 8.94299 20.5959 8.95433 20.5764 8.96574C20.2354 9.16375 19.9085 9.38507 19.5979 9.62813C19.4541 9.74057 19.314 9.85747 19.1777 9.9788C18.9448 10.186 18.7234 10.4058 18.5144 10.6371C17.4151 11.8544 16.6691 13.3854 16.4334 15.0776C16.429 15.1087 16.4249 15.1384 16.4213 15.1688C16.42 15.1746 16.4197 15.1805 16.4191 15.1863C16.4152 15.216 16.4115 15.2456 16.4082 15.2755C16.4042 15.3118 16.4001 15.3482 16.3964 15.3851C16.3934 15.4149 16.3905 15.4448 16.3878 15.4749L16.3872 15.4815C16.3822 15.5363 16.3778 15.5913 16.374 15.6466L16.3688 15.7296L16.3645 15.8089L16.3637 15.812C16.3609 15.8669 16.3588 15.922 16.3563 15.9771C16.3564 15.9785 16.3564 15.9799 16.3563 15.9813L16.3548 16.0461C16.3539 16.0797 16.3534 16.1133 16.3531 16.147C16.3529 16.1701 16.3529 16.193 16.3526 16.2162L16.3534 16.2654C16.3535 16.2778 16.3539 16.2901 16.3543 16.3025L16.357 16.3583L16.3595 16.4102C16.3611 16.4427 16.3634 16.4754 16.3658 16.5089C16.3674 16.5324 16.3692 16.5558 16.3716 16.5793C16.3731 16.5986 16.375 16.618 16.3768 16.6374C16.3852 16.7203 16.3954 16.8051 16.4075 16.892L16.4078 16.8945C16.4147 16.9432 16.4222 16.9926 16.4304 17.0426L16.4315 17.0488C16.4357 17.0745 16.44 17.1004 16.445 17.1265C16.4521 17.1637 16.4583 17.2011 16.4663 17.239C16.4747 17.2831 16.4836 17.3276 16.4928 17.3725C16.4993 17.4044 16.5062 17.4367 16.5132 17.4691L16.5315 17.5508C16.5381 17.5805 16.545 17.6099 16.5521 17.6396C16.5636 17.6881 16.5756 17.7371 16.5881 17.7864C16.5905 17.7964 16.5932 17.8061 16.5956 17.816C16.6031 17.8458 16.6108 17.8757 16.6186 17.9056C16.6257 17.933 16.6332 17.9603 16.6407 17.9881C16.642 17.9934 16.6436 17.9988 16.6451 18.0043L16.668 18.0871L16.6865 18.1529L16.693 18.175C16.7185 18.263 16.745 18.352 16.7726 18.4422L16.7778 18.4595L16.8076 18.5545C16.8175 18.5861 16.8278 18.6181 16.8382 18.6499C16.8688 18.7458 16.9012 18.8427 16.9353 18.9408C16.9465 18.9733 16.9578 19.0061 16.9693 19.039L16.9938 19.1091C17.0007 19.1286 17.0075 19.1478 17.0148 19.1676C17.0765 19.3412 17.1421 19.5174 17.2117 19.6963C17.2309 19.7462 17.2505 19.7962 17.2704 19.8464L17.3117 19.9498L17.3534 20.0537C17.3671 20.0891 17.3816 20.1233 17.3958 20.1581L17.4389 20.263C17.4636 20.3224 17.4885 20.3819 17.5136 20.4414C17.5331 20.4875 17.5527 20.5339 17.5728 20.5801C17.5877 20.6158 17.6038 20.6518 17.6183 20.6873C17.6574 20.7779 17.6972 20.8691 17.7378 20.9608C17.7598 21.0105 17.7822 21.0607 17.8047 21.1107C17.8079 21.1177 17.8108 21.1248 17.8143 21.1319C17.8607 21.2355 17.908 21.3396 17.9562 21.4442C17.9729 21.4804 17.9898 21.5165 18.0068 21.5527C18.0405 21.6259 18.0749 21.699 18.1095 21.7725C18.127 21.8088 18.1441 21.8459 18.1617 21.8827C18.2895 22.1537 18.4224 22.4263 18.5602 22.7005C18.5871 22.7551 18.6145 22.809 18.6415 22.8632C18.7385 23.0568 18.8374 23.2508 18.9382 23.4453L19.0147 23.5921L19.0992 23.7536C19.1336 23.819 19.168 23.8845 19.2026 23.9499C19.2325 24.0067 19.2627 24.0632 19.2928 24.12C19.4213 24.3612 19.5514 24.602 19.6831 24.8424C19.7149 24.9006 19.7471 24.9588 19.7791 25.0169C19.8111 25.075 19.8455 25.1373 19.8789 25.1973C19.9051 25.245 19.9316 25.2927 19.9583 25.3404L20.0264 25.4623C20.0677 25.5364 20.109 25.6101 20.1502 25.6835L20.2124 25.7937C20.3165 25.9773 20.4206 26.1599 20.525 26.3413C20.5572 26.3972 20.5893 26.453 20.6212 26.5088C20.7142 26.6702 20.8071 26.8298 20.9 26.9878L20.9626 27.0942C21.3276 27.7162 21.6899 28.3166 22.0373 28.8816C22.053 28.9072 22.0684 28.9328 22.0842 28.958L22.1304 29.0333L22.1783 29.1112L22.2695 29.2586L22.316 29.333L22.3617 29.4064C22.4377 29.529 22.5128 29.6494 22.587 29.7675L22.6753 29.9083C22.9097 30.2812 23.1325 30.6316 23.3404 30.9541C23.3656 30.9932 23.3904 31.0318 23.4148 31.0699C23.4998 31.2015 23.5819 31.3281 23.6611 31.4499C23.7249 31.5483 23.7867 31.6433 23.8463 31.7351C23.8684 31.7689 23.8905 31.8021 23.9118 31.835C24.0556 32.0544 24.1854 32.2513 24.2993 32.4223L24.4333 32.6275C24.4409 32.6386 24.4481 32.6498 24.4554 32.6605C24.5117 32.7446 24.562 32.8195 24.6062 32.8852L24.6214 32.9076C24.6363 32.9297 24.6501 32.9505 24.6637 32.9703C24.6719 32.9823 24.6799 32.994 24.6874 33.0055C24.6926 33.0128 24.6975 33.0203 24.7022 33.0275C24.7097 33.0383 24.7167 33.0486 24.7234 33.0586C24.7439 33.0887 24.7611 33.1141 24.7752 33.1352L24.7831 33.1465C24.7831 33.1465 24.7831 33.1465 24.7839 33.1477C24.7885 33.1549 24.7928 33.1609 24.7964 33.1667L24.8021 33.1752L24.8112 33.1882C24.8177 33.1977 24.8209 33.2026 24.8209 33.2026L24.8526 33.1579L24.8879 33.1082L24.8988 33.0928C24.9513 33.0183 25.0297 32.9075 25.1304 32.7629C25.1435 32.7437 25.1573 32.7243 25.1713 32.7039C25.1894 32.6781 25.2083 32.6513 25.2277 32.6233L25.2669 32.5667L25.4291 32.3325L25.4579 32.2903L25.5315 32.184C25.5563 32.1473 25.5822 32.1102 25.6084 32.072L25.6222 32.0518C25.6338 32.0349 25.6452 32.018 25.6572 32.0008L25.6614 31.9947L25.7128 31.9194L25.7656 31.8422C25.805 31.7844 25.8454 31.7247 25.8871 31.6639L25.954 31.5652L25.9965 31.5023L26.1277 31.3089C26.1395 31.2913 26.1522 31.2735 26.1636 31.2557L26.1855 31.2229L26.2172 31.1756L26.2492 31.1278L26.2634 31.1067L26.3303 31.0069L26.337 30.9969L26.3982 30.9054C26.4075 30.8916 26.4173 30.8769 26.4269 30.8628C26.4417 30.8403 26.4569 30.8175 26.4724 30.7946L26.6347 30.5503L26.7545 30.3703C26.9042 30.1436 27.0593 29.9072 27.2199 29.6609L27.3512 29.4587C27.4189 29.3548 27.4869 29.2494 27.5553 29.1426L27.5678 29.123L27.6227 29.0377L27.6232 29.0359L27.731 28.8675L27.7326 28.865L27.8397 28.698C27.8597 28.6663 27.88 28.6347 27.9 28.6029L28.0042 28.439L28.0694 28.3356C28.1212 28.2533 28.1731 28.1703 28.2252 28.0868C28.2493 28.0486 28.2732 28.0105 28.2969 27.9722L28.388 27.8267C28.5208 27.6139 28.6546 27.3978 28.7894 27.1784L28.8708 27.0453C28.9314 26.9465 28.9918 26.847 29.0523 26.7471C29.072 26.7149 29.0914 26.6827 29.1108 26.6504C29.1695 26.5536 29.2281 26.4564 29.2865 26.3588L29.3452 26.2605L29.3778 26.206C29.4052 26.1586 29.4343 26.1116 29.4623 26.0642C29.5421 25.9298 29.6218 25.7947 29.7015 25.659C29.7381 25.5969 29.7746 25.5342 29.8105 25.4717L29.9273 25.2706C30.1026 24.9678 30.2761 24.6634 30.4477 24.3573C31.7231 22.0804 32.8477 19.7644 33.3416 17.9536C33.3885 17.7817 33.4295 17.6147 33.4646 17.4524L33.4766 17.3962L33.478 17.3904C33.4808 17.3788 33.4835 17.3673 33.4852 17.3555L33.4875 17.3462C33.4924 17.3254 33.4959 17.3041 33.4999 17.2834C33.5056 17.2542 33.5111 17.2254 33.516 17.1967C33.5162 17.1964 33.5164 17.196 33.5165 17.1957C33.5166 17.1953 33.5166 17.1949 33.5165 17.1946C33.5216 17.1664 33.5268 17.1381 33.5312 17.1102C33.5356 17.0824 33.5407 17.0536 33.5451 17.0254C33.5494 16.9972 33.5537 16.9692 33.5574 16.9415C33.5612 16.9138 33.5646 16.8906 33.5677 16.8655L33.5689 16.8566L33.5763 16.7966C33.5808 16.7586 33.5848 16.721 33.5882 16.6838C33.5903 16.6617 33.5922 16.6397 33.5939 16.6177C33.5953 16.602 33.5964 16.587 33.5972 16.5716C33.599 16.5496 33.6004 16.5276 33.6016 16.5056C33.6024 16.495 33.603 16.4844 33.6034 16.4739L33.6048 16.4421C33.6069 16.3984 33.6081 16.3553 33.6084 16.3129C33.6107 16.0673 33.6024 15.8245 33.5836 15.5845C33.5817 15.5588 33.5798 15.5332 33.5771 15.5075C33.5772 15.5045 33.5769 15.5016 33.5764 15.4986C33.5706 15.4309 33.5638 15.3632 33.5561 15.296C33.5559 15.2923 33.5554 15.2888 33.5549 15.2851C33.5525 15.2616 33.5501 15.2379 33.5467 15.2144C33.5344 15.1142 33.5203 15.0145 33.5046 14.9154C33.4928 14.8419 33.48 14.7688 33.4662 14.6962C33.4614 14.67 33.4564 14.6442 33.4513 14.6183C33.4454 14.5885 33.4395 14.5585 33.433 14.5283C33.4266 14.4982 33.4203 14.4686 33.4138 14.4388C33.4028 14.388 33.3915 14.3387 33.3791 14.2891C33.3626 14.2193 33.345 14.1498 33.3262 14.0805C32.3636 10.4883 29.04 7.82265 25.063 7.78472Z" fill="#FFC150"/>
<path d="M33.3286 14.0803C33.4608 14.5724 33.5471 15.0756 33.5863 15.5837C33.605 15.8236 33.6132 16.0664 33.6109 16.312C33.6063 16.7871 33.5117 17.3412 33.3449 17.9527C32.8511 19.7635 31.7264 22.0793 30.4509 24.3572C29.7788 24.1549 29.1385 23.8298 28.5343 23.4668C27.6429 22.9311 26.8051 22.3055 25.8914 21.8091C25.8745 21.8 25.8575 21.7907 25.8407 21.7809C27.8248 21.4341 29.4936 19.9916 29.9777 17.9672C29.9985 17.8801 30.017 17.7929 30.0327 17.7058C30.1765 16.9231 30.1294 16.1174 29.8955 15.3568C29.8323 15.1497 29.7559 14.9469 29.6666 14.7496C29.6909 14.7527 29.7157 14.7557 29.7404 14.7586C30.7812 14.8731 31.8542 14.7143 32.8083 14.2829C32.9747 14.2084 33.1517 14.1258 33.3286 14.0803Z" fill="#FFB03A"/>
<path d="M16.433 15.0783C17.0202 17.0245 17.8262 18.7863 18.7174 20.3449C20.0948 22.7533 21.6747 24.6735 22.9609 26.0317C23.6793 26.7898 24.6569 27.2493 25.699 27.3187C26.7411 27.388 27.771 27.0622 28.5836 26.406C29.0689 26.0147 29.5353 25.618 29.9298 25.2706L29.813 25.4716C29.7765 25.534 29.7399 25.5967 29.704 25.6589C29.6244 25.7947 29.5447 25.9297 29.4649 26.0642C29.4375 26.1117 29.4086 26.1587 29.3804 26.2059L29.3478 26.2604L29.2891 26.3588C29.2308 26.4564 29.1722 26.5536 29.1134 26.6504C29.094 26.6827 29.0746 26.7148 29.0548 26.747C28.9943 26.8469 28.9339 26.9463 28.8734 27.0453L28.7919 27.1784C28.6573 27.3976 28.5235 27.6137 28.3906 27.8267L28.2995 27.9722C28.2756 28.0105 28.2517 28.0487 28.2278 28.0867C28.1756 28.1706 28.1236 28.2535 28.0719 28.3356L28.0067 28.439L27.9025 28.6028C27.8825 28.6347 27.8623 28.6663 27.8422 28.6979L27.7352 28.865L27.7336 28.8675L27.6257 29.0358L27.6253 29.0376L27.5704 29.1229L27.5578 29.1426C27.4895 29.2493 27.4215 29.3547 27.3538 29.4587L27.2224 29.6609C27.0623 29.9067 26.9072 30.1431 26.7571 30.3702L26.6373 30.5503L26.475 30.7946C26.4595 30.8175 26.4444 30.8403 26.4294 30.8628C26.4199 30.8766 26.4103 30.8904 26.4008 30.9054L26.3396 30.9969L26.3329 31.0069L26.266 31.1066L26.2518 31.1278L26.2198 31.1755L26.1878 31.2228L26.1658 31.2556C26.1537 31.2732 26.1413 31.2911 26.13 31.3088L25.9561 31.5659L25.8892 31.6645C25.8475 31.7254 25.8071 31.785 25.7677 31.8429L25.7149 31.92L25.6635 31.9954L25.6593 32.0015C25.6473 32.0187 25.6351 32.0353 25.6243 32.0525L25.6105 32.0726C25.584 32.1108 25.5586 32.148 25.5336 32.1846L25.46 32.291L25.4311 32.3332L25.269 32.5674L25.2298 32.624C25.2105 32.6515 25.1914 32.679 25.1734 32.7046C25.1594 32.725 25.1456 32.7443 25.1325 32.7635C25.032 32.9074 24.9536 33.0182 24.9009 33.0935L24.89 33.1088L24.8547 33.1585L24.823 33.2033C24.823 33.2033 24.8198 33.1983 24.8132 33.1889L24.8042 33.1758L24.7985 33.1674C24.7949 33.1617 24.7905 33.1557 24.786 33.1484C24.786 33.1484 24.786 33.1484 24.7852 33.1472L24.7773 33.1358C24.7632 33.115 24.746 33.0895 24.7254 33.0592C24.7188 33.0493 24.7118 33.0389 24.7043 33.0281C24.6996 33.0209 24.6946 33.0135 24.6895 33.0061C24.6819 32.9947 24.674 32.983 24.6658 32.9709C24.6521 32.9516 24.6384 32.9303 24.6235 32.9083L24.6083 32.8859C24.5642 32.8204 24.5139 32.7455 24.4575 32.6612C24.4502 32.6505 24.4429 32.6392 24.4353 32.6281L24.2999 32.4249C24.1862 32.2532 24.0562 32.0569 23.9125 31.8376C23.8911 31.8047 23.869 31.7715 23.8469 31.7376C23.7873 31.6463 23.7256 31.5513 23.6618 31.4525C23.5828 31.3307 23.5007 31.204 23.4155 31.0725C23.391 31.0346 23.3662 30.9959 23.3411 30.9566C23.1338 30.6341 22.9109 30.284 22.676 29.9108L22.5876 29.7701C22.5135 29.652 22.4384 29.5316 22.3623 29.4089L22.3166 29.3355L22.2702 29.2612L22.1789 29.1138L22.1311 29.0359L22.0849 28.9606C22.0691 28.9353 22.0537 28.9098 22.0379 28.8842C21.6913 28.3197 21.3287 27.7192 20.9632 27.0968L20.9007 26.9903C20.808 26.832 20.715 26.6724 20.6219 26.5114C20.5899 26.4556 20.5579 26.3997 20.5256 26.3439C20.4213 26.1628 20.3171 25.9803 20.2131 25.7963L20.1508 25.686C20.1095 25.6119 20.0682 25.5382 20.0271 25.4649L19.959 25.343C19.9323 25.2953 19.9058 25.2476 19.8795 25.1999C19.8462 25.1399 19.813 25.0797 19.7798 25.0195C19.7477 24.9614 19.7156 24.9031 19.6837 24.8449C19.5522 24.6048 19.4221 24.364 19.2934 24.1226C19.2633 24.0657 19.2332 24.0092 19.2032 23.9525C19.1687 23.8872 19.1342 23.8217 19.0999 23.7561L19.0154 23.5946L18.9389 23.4479C18.8386 23.2537 18.7397 23.0597 18.6422 22.8657C18.615 22.8111 18.5878 22.7575 18.5608 22.7031C18.4239 22.4289 18.2911 22.1563 18.1623 21.8853C18.1447 21.849 18.1276 21.8118 18.1102 21.775C18.0756 21.7016 18.0412 21.6285 18.0075 21.5553C17.9904 21.5191 17.9736 21.4829 17.9568 21.4468C17.9086 21.3424 17.8613 21.2383 17.8149 21.1345C17.8115 21.1274 17.8085 21.1203 17.8054 21.1133C17.7828 21.0632 17.7605 21.0131 17.7385 20.9633C17.6981 20.8718 17.6582 20.7807 17.6189 20.6899C17.6037 20.6542 17.5879 20.6183 17.5734 20.5827C17.5533 20.5365 17.5338 20.49 17.5143 20.444C17.489 20.3843 17.464 20.3247 17.4396 20.2655L17.3964 20.1607C17.3824 20.1252 17.3679 20.0911 17.3541 20.0563L17.3123 19.9524L17.2711 19.8489C17.2509 19.7988 17.2314 19.7488 17.2124 19.6989C17.1432 19.5199 17.0776 19.3436 17.0155 19.1701C17.0081 19.1504 17.0014 19.1311 16.9945 19.1117L16.97 19.0416C16.9584 19.0086 16.947 18.9759 16.936 18.9434C16.9024 18.8454 16.8701 18.7485 16.8389 18.6525C16.8285 18.6206 16.8182 18.5886 16.8082 18.557L16.7784 18.4621L16.7732 18.4448C16.7643 18.4149 16.7555 18.3848 16.7465 18.3552C16.7197 18.2657 16.694 18.1772 16.6693 18.0898L16.6464 18.007C16.6448 18.0015 16.6432 17.9961 16.6419 17.9908C16.6344 17.963 16.627 17.9357 16.6199 17.9083C16.6128 17.8809 16.6043 17.8486 16.5969 17.8187C16.5944 17.8088 16.5918 17.7992 16.5893 17.7891C16.577 17.7397 16.565 17.6907 16.5533 17.6423C16.5463 17.6126 16.5394 17.5832 16.5328 17.5535L16.5145 17.4718C16.5074 17.4394 16.5005 17.4071 16.494 17.3752C16.4849 17.3303 16.4759 17.2858 16.4675 17.2417C16.4605 17.2041 16.4534 17.1664 16.4463 17.1292C16.4417 17.1032 16.4375 17.0773 16.4327 17.0515L16.4316 17.0453C16.4236 16.9953 16.4161 16.9459 16.4091 16.8972L16.4087 16.8947C16.3964 16.8078 16.3862 16.7229 16.3781 16.6401C16.3763 16.6207 16.3744 16.6013 16.3729 16.582C16.3705 16.5585 16.3681 16.5349 16.3671 16.5116C16.3645 16.4788 16.3624 16.4454 16.3608 16.4129L16.3583 16.361L16.3556 16.3052C16.3552 16.2928 16.3548 16.2805 16.3547 16.2681L16.3539 16.2189C16.3537 16.1956 16.3537 16.1727 16.3544 16.1497C16.3547 16.1161 16.3553 16.0824 16.356 16.0488L16.3576 15.984C16.3577 15.9826 16.3577 15.9812 16.3576 15.9798C16.3594 15.9245 16.3615 15.8695 16.365 15.8147L16.3657 15.8116L16.3701 15.7323L16.3753 15.6493C16.3792 15.594 16.3836 15.539 16.3885 15.4842L16.3891 15.4776C16.3918 15.4476 16.3946 15.4177 16.3977 15.3878C16.4013 15.3511 16.4054 15.3147 16.4095 15.2782C16.4128 15.2483 16.4165 15.2187 16.4204 15.189C16.4209 15.1832 16.4217 15.1774 16.4226 15.1715C16.4246 15.1391 16.4288 15.1086 16.433 15.0783Z" fill="#FFB03A"/>
<path d="M16.3868 15.4824C16.3906 15.5276 16.3943 15.5746 16.3977 15.6237C16.4354 16.1688 16.6266 16.9178 16.9234 17.796C17.4276 19.2885 18.2381 21.1551 19.1223 23.0317C20.165 25.2449 21.3106 27.4717 22.1793 29.1144L22.1315 29.0365L22.0852 28.9612C22.0694 28.936 22.054 28.9104 22.0383 28.8848C21.6917 28.3203 21.329 27.7198 20.9636 27.0974L20.9011 26.991C20.8083 26.8326 20.7154 26.673 20.6222 26.512C20.5903 26.4562 20.5582 26.4004 20.526 26.3445C20.4217 26.1635 20.3175 25.981 20.2135 25.7969L20.1512 25.6867C20.1098 25.6125 20.0686 25.5388 20.0275 25.4655L19.9593 25.3436C19.9326 25.2959 19.9062 25.2482 19.8799 25.2005C19.8466 25.1405 19.8133 25.0804 19.7801 25.0201C19.7481 24.962 19.7159 24.9038 19.6841 24.8456C19.5526 24.6054 19.4225 24.3646 19.2938 24.1232C19.2637 24.0664 19.2335 24.0099 19.2036 23.9531C19.169 23.8878 19.1346 23.8223 19.1003 23.7568L19.0157 23.5953L18.9392 23.4485C18.8389 23.2544 18.74 23.0603 18.6426 22.8664C18.6153 22.8117 18.5882 22.7582 18.5612 22.7037C18.4243 22.4295 18.2914 22.1569 18.1627 21.8859C18.1451 21.8496 18.1279 21.8124 18.1105 21.7757C18.0759 21.7022 18.0416 21.6291 18.0078 21.5559C17.9908 21.5197 17.9739 21.4835 17.9572 21.4474C17.909 21.343 17.8617 21.2389 17.8153 21.1351C17.8119 21.128 17.8089 21.1209 17.8058 21.1139C17.7832 21.0638 17.7608 21.0137 17.7389 20.964C17.6984 20.8724 17.6586 20.7813 17.6193 20.6905C17.6041 20.6548 17.5882 20.6189 17.5738 20.5833C17.5537 20.5371 17.5341 20.4907 17.5146 20.4446C17.4894 20.385 17.4645 20.3256 17.4399 20.2662L17.3968 20.1613C17.3828 20.1258 17.3683 20.0917 17.3545 20.0569L17.3127 19.953L17.2714 19.8495C17.2513 19.7995 17.2317 19.7494 17.2128 19.6995C17.1436 19.5205 17.078 19.3443 17.0158 19.1708C17.0085 19.151 17.0017 19.1318 16.9948 19.1123L16.9703 19.0422C16.9587 19.0092 16.9474 18.9765 16.9363 18.944C16.9028 18.8461 16.8704 18.7491 16.8392 18.6531C16.8289 18.6213 16.8185 18.5893 16.8086 18.5577L16.7788 18.4627L16.7736 18.4454C16.7366 18.3253 16.7018 18.2069 16.6691 18.0903L16.6462 18.0075C16.6446 18.002 16.643 17.9966 16.6417 17.9913C16.6342 17.9635 16.6268 17.9362 16.6197 17.9088C16.6126 17.8814 16.6041 17.8491 16.5966 17.8192C16.5942 17.8093 16.5915 17.7996 16.5891 17.7896C16.5767 17.7402 16.5647 17.6912 16.5531 17.6427C16.546 17.6131 16.5391 17.5837 16.5326 17.554L16.5142 17.4723C16.5072 17.4399 16.5003 17.4076 16.4938 17.3757C16.4846 17.3308 16.4757 17.2863 16.4673 17.2422C16.4602 17.2045 16.4532 17.1669 16.446 17.1297C16.4415 17.1037 16.4372 17.0778 16.4325 17.052L16.4314 17.0458C16.4234 16.9957 16.4159 16.9463 16.4089 16.8976L16.4085 16.8951C16.3962 16.8083 16.386 16.7234 16.3779 16.6406C16.3761 16.6212 16.3741 16.6018 16.3726 16.5825C16.3702 16.5589 16.3678 16.5354 16.3668 16.5121C16.3642 16.4793 16.3621 16.4459 16.3606 16.4134L16.3581 16.3614L16.3553 16.3057C16.3549 16.2933 16.3545 16.281 16.3544 16.2686L16.3537 16.2194C16.3535 16.1961 16.3535 16.1731 16.3542 16.1502C16.3545 16.1165 16.355 16.0829 16.3558 16.0493L16.3573 15.9845C16.3574 15.9831 16.3575 15.9817 16.3574 15.9803C16.3592 15.925 16.3613 15.87 16.3647 15.8152L16.3655 15.812L16.3698 15.7328L16.3751 15.6498C16.3781 15.593 16.382 15.5372 16.3868 15.4824Z" fill="#FED267"/>
<path d="M26.0095 11.7582C27.703 12.1632 29.0171 13.3094 29.6671 14.7496C29.7564 14.9469 29.8329 15.1497 29.8961 15.3568C30.1301 16.1176 30.1771 16.9236 30.0333 17.7064C30.0175 17.7933 29.999 17.8808 29.9782 17.9678C29.4942 19.9917 27.825 21.4338 25.8408 21.7812C25.1067 21.9089 24.3542 21.8847 23.6298 21.7101C21.6775 21.2433 20.2286 19.7907 19.7215 18.0383C19.5161 17.33 19.471 16.5849 19.5895 15.8571C19.708 15.1293 19.9871 14.437 20.4066 13.8305C20.4942 13.7041 20.5872 13.5823 20.6856 13.4653C21.0953 12.9779 21.5921 12.5711 22.1507 12.2655C22.3357 12.1637 22.5267 12.073 22.7226 11.994C22.7435 11.9857 22.7645 11.9774 22.7857 11.9691C23.4475 11.7127 24.1535 11.59 24.863 11.608C25.0226 11.6118 25.1828 11.6229 25.3434 11.6412C25.5677 11.6666 25.7901 11.7057 26.0095 11.7582Z" fill="white"/>
<path d="M27.1083 18.2481L25.5712 16.7L27.1083 15.1518C27.316 14.9426 27.316 14.587 27.1083 14.3569C26.9006 14.1476 26.5475 14.1476 26.319 14.3569L24.7819 15.905L23.2449 14.3569C23.0372 14.1476 22.6841 14.1476 22.4556 14.3569C22.2479 14.5661 22.2479 14.9217 22.4556 15.1518L23.9926 16.7L22.4556 18.2481C22.2479 18.4573 22.2479 18.8129 22.4556 19.043C22.6633 19.2523 23.0164 19.2523 23.2449 19.043L24.7819 17.4949L26.319 19.043C26.5267 19.2523 26.8798 19.2523 27.1083 19.043C27.3367 18.8129 27.3367 18.4573 27.1083 18.2481Z" fill="#FFB03A"/>
</svg>
