<svg width="14" height="16" viewBox="0 0 14 16" fill="none" xmlns="http://www.w3.org/2000/svg">
<path d="M10.7667 10.8579C11.8773 9.77151 12.5143 8.28897 12.5143 6.7041C12.5143 3.4952 9.913 0.89388 6.7041 0.89388C3.4952 0.89388 0.89388 3.4952 0.89388 6.7041C0.89388 8.28411 1.52694 9.76256 2.63428 10.8512L6.70408 14.921L10.7667 10.8579ZM0 6.7041C0 3.00153 3.00153 0 6.7041 0C10.4067 0 13.4082 3.00153 13.4082 6.7041C13.4082 8.53196 12.6726 10.244 11.3952 11.4935L7.02015 15.8691C6.84562 16.0436 6.56261 16.0436 6.38807 15.8691L2.00492 11.4859C0.731061 10.2336 0 8.52632 0 6.7041Z" fill="#5BB2C9"/>
<path d="M6.70426 9.83284C4.9764 9.83284 3.57568 8.43213 3.57568 6.70426C3.57568 4.9764 4.9764 3.57568 6.70426 3.57568C8.43213 3.57568 9.83284 4.9764 9.83284 6.70426C9.83284 8.43213 8.43213 9.83284 6.70426 9.83284Z" fill="#5BB2C9"/>
</svg>
