<svg width="375" height="812" viewBox="0 0 375 812" fill="none" xmlns="http://www.w3.org/2000/svg">
<defs>
<linearGradient id="paint0_linear" x1="187.842" y1="553.916" x2="187.842" y2="8.41646" gradientUnits="userSpaceOnUse">
<stop offset="0.09" stop-color="#FEFCC5"/>
<stop offset="0.19" stop-color="#F3FAC9"/>
<stop offset="0.39" stop-color="#D4F3D3"/>
<stop offset="0.64" stop-color="#A3E8E4"/>
<stop offset="0.94" stop-color="#60DAFA"/>
<stop offset="1" stop-color="#52D7FF"/>
</linearGradient>
<linearGradient id="paint1_linear" x1="27.1797" y1="315.094" x2="150.248" y2="315.094" gradientUnits="userSpaceOnUse">
<stop stop-color="white"/>
<stop offset="1"/>
</linearGradient>
<linearGradient id="paint2_linear" x1="51693.5" y1="26607.2" x2="68232.2" y2="26607.2" gradientUnits="userSpaceOnUse">
<stop stop-color="white"/>
<stop offset="1"/>
</linearGradient>
<linearGradient id="paint3_linear" x1="40062.6" y1="10566.2" x2="44060.9" y2="10566.2" gradientUnits="userSpaceOnUse">
<stop stop-color="white"/>
<stop offset="1"/>
</linearGradient>
<linearGradient id="paint4_linear" x1="40055.8" y1="6979.26" x2="44048.1" y2="6979.26" gradientUnits="userSpaceOnUse">
<stop stop-color="white"/>
<stop offset="1"/>
</linearGradient>
<radialGradient id="paint5_radial" cx="0" cy="0" r="1" gradientUnits="userSpaceOnUse" gradientTransform="translate(3.33885 638.631) scale(449.875)">
<stop stop-color="#B02323"/>
<stop offset="0.12" stop-color="#A52121"/>
<stop offset="0.32" stop-color="#861B1B"/>
<stop offset="0.6" stop-color="#551111"/>
<stop offset="0.92" stop-color="#120303"/>
<stop offset="1"/>
</radialGradient>
<linearGradient id="paint6_linear" x1="6402.07" y1="12832.1" x2="6402.07" y2="13485.6" gradientUnits="userSpaceOnUse">
<stop stop-color="white"/>
<stop offset="1"/>
</linearGradient>
<linearGradient id="paint7_linear" x1="3642.9" y1="11450.6" x2="3642.9" y2="11956.7" gradientUnits="userSpaceOnUse">
<stop stop-color="white"/>
<stop offset="1"/>
</linearGradient>
<linearGradient id="paint8_linear" x1="15435.2" y1="17702.5" x2="15435.2" y2="19074.9" gradientUnits="userSpaceOnUse">
<stop stop-color="white"/>
<stop offset="1"/>
</linearGradient>
<linearGradient id="paint9_linear" x1="12580.5" y1="16777.9" x2="12580.5" y2="18038.7" gradientUnits="userSpaceOnUse">
<stop stop-color="white"/>
<stop offset="1"/>
</linearGradient>
<linearGradient id="paint10_linear" x1="5505.37" y1="14393.2" x2="5505.37" y2="15342.5" gradientUnits="userSpaceOnUse">
<stop stop-color="white"/>
<stop offset="1"/>
</linearGradient>
<linearGradient id="paint11_linear" x1="17019.8" y1="18742.6" x2="17019.8" y2="20556.6" gradientUnits="userSpaceOnUse">
<stop stop-color="white"/>
<stop offset="1"/>
</linearGradient>
<linearGradient id="paint12_linear" x1="6676.83" y1="17110.6" x2="6676.83" y2="18559.7" gradientUnits="userSpaceOnUse">
<stop stop-color="white"/>
<stop offset="1"/>
</linearGradient>
<linearGradient id="paint13_linear" x1="25130.1" y1="21160" x2="25130.1" y2="23695.6" gradientUnits="userSpaceOnUse">
<stop stop-color="white"/>
<stop offset="1"/>
</linearGradient>
<linearGradient id="paint14_linear" x1="20602.8" y1="20468" x2="20602.8" y2="22896.2" gradientUnits="userSpaceOnUse">
<stop stop-color="white"/>
<stop offset="1"/>
</linearGradient>
<linearGradient id="paint15_linear" x1="26240.8" y1="19891.6" x2="26240.8" y2="22422.9" gradientUnits="userSpaceOnUse">
<stop stop-color="white"/>
<stop offset="1"/>
</linearGradient>
<linearGradient id="paint16_linear" x1="26668.7" y1="20410.6" x2="26668.7" y2="23198.5" gradientUnits="userSpaceOnUse">
<stop stop-color="white"/>
<stop offset="1"/>
</linearGradient>
<radialGradient id="paint17_radial" cx="0" cy="0" r="1" gradientUnits="userSpaceOnUse" gradientTransform="translate(169.98 208.019) scale(524.783)">
<stop stop-color="#FFF4E5"/>
<stop offset="0.2" stop-color="#FCF1E2"/>
<stop offset="0.37" stop-color="#F1E6D9"/>
<stop offset="0.52" stop-color="#E0D5C9"/>
<stop offset="0.67" stop-color="#C7BCB3"/>
<stop offset="0.82" stop-color="#A89C97"/>
<stop offset="0.96" stop-color="#827674"/>
<stop offset="1" stop-color="#756969"/>
</radialGradient>
<radialGradient id="paint18_radial" cx="0" cy="0" r="1" gradientUnits="userSpaceOnUse" gradientTransform="translate(25.9694 531.412) scale(269.706)">
<stop stop-color="#2394B0"/>
<stop offset="0.22" stop-color="#1E89A5"/>
<stop offset="0.62" stop-color="#106B89"/>
<stop offset="1" stop-color="#004869"/>
</radialGradient>
<radialGradient id="paint19_radial" cx="0" cy="0" r="1" gradientUnits="userSpaceOnUse" gradientTransform="translate(249844 38298.4) scale(226808 18288)">
<stop stop-color="#2394B0"/>
<stop offset="0.22" stop-color="#1E89A5"/>
<stop offset="0.62" stop-color="#106B89"/>
<stop offset="1" stop-color="#004869"/>
</radialGradient>
</defs>
<path d="M729.675 0H-353.982V812H729.675V0Z" fill="url(#paint0_linear)"/>
<path d="M672.322 243.617C657.792 242.976 640.309 244.629 619.466 250.128C535.22 272.38 576.959 388.142 576.959 388.142C576.959 388.142 557.995 348.408 519.561 355.262C481.127 362.116 479.538 419.108 479.538 419.108C479.538 419.108 451.01 350.701 407.808 352.553C364.606 354.404 375.831 427.66 375.831 427.66C375.831 427.66 366.15 377.64 334.426 382.805C302.702 387.971 305.582 486.349 305.582 486.349C305.582 486.349 284.361 457.993 275.041 455.646C265.721 453.298 252.871 475.91 252.871 475.91C252.871 475.91 243.145 445.649 226.114 447.283C209.082 448.918 212.568 478.619 212.568 478.619C212.568 478.619 205.614 458.436 183.218 458.752C160.823 459.068 158.15 480.425 158.15 480.425C158.15 480.425 123.517 417.085 111.001 416.634C98.4848 416.182 91.6035 432.103 91.6035 432.103C91.6035 432.103 60.8003 364.581 24.9129 360.59C-10.9745 356.598 -24.7552 434.776 -24.7552 434.776C-24.7552 434.776 -29.3246 415.487 -35.7815 412.525C-42.2383 409.563 -45.6157 418.286 -45.6157 418.286C-45.6157 418.286 -47.1509 380.556 -64.2909 369.828C-81.4309 359.1 -102.933 380.927 -102.933 380.927C-102.933 380.927 -106.807 326.5 -128.67 311.238C-150.533 295.976 -216.085 339.549 -216.085 339.549C-216.085 339.549 -178.943 263.024 -226.019 213.708C-270.63 166.948 -353.982 171.373 -353.982 171.373V568.925H672.322V243.617Z" fill="white"/>
<path d="M-13.53 510.073C25.193 504.926 22.5922 543.983 22.5922 543.983C22.5922 543.983 33.5823 522.066 58.8498 531.638C95.2881 545.437 69.7948 612.353 69.7948 612.353H-59.9832L-60.1909 556.58H-46.04C-46.04 556.58 -52.2801 515.22 -13.53 510.073Z" fill="#69702A"/>
<path d="M306.702 744.009V739.855L306.774 728.314V721.387V718.1V715.797L306.847 698.531V691.568V687.396V685.094L307.054 668.712V661.786V657.207V656.069L307.127 638.911V631.949V629.131V626.783L307.217 609.092V602.166V596.901V594.58L307.289 577.142V570.171V567.57V565.312L307.37 549.554V542.609V538.266V535.945L307.443 517.586V510.641L307.551 485.609V478.691V475.007V472.668L307.641 451.491V444.547L307.705 430.351V423.406V420.273V417.97L307.75 404.894V397.931V395.691V393.371L307.831 370.749V363.805V358.666L307.948 333.968L307.994 326.996V323.023L308.084 303.887V296.879V295.073V292.68L308.174 270.664V263.439V261.037V258.653V251.555V244.24V240.953V238.506L308.219 224.635V218.855C308.219 218.855 308.743 217.952 309.682 216.309C310.305 215.243 311.118 213.898 312.102 212.263C312.789 211.107 313.583 209.825 314.441 208.434C318.469 201.914 324.203 192.947 330.931 183.392L331.491 182.607C334.932 177.748 338.625 172.781 342.49 167.896C344.387 165.488 346.331 163.11 348.324 160.762C349.417 159.425 350.555 158.116 351.692 156.824C352.279 156.147 352.893 155.47 353.499 154.82C375.813 129.778 393.233 114.327 393.233 114.327V128.776V135.422V143.098V162.577V175.102V193.163V217.546V219.731V221.89V229.114L393.278 253.984V267.105V286.684V291.786V298.73V322.544V330.139V337.056V357.61V371.155V384.178V389.596V396.513V410.682V417.609V437.06V439.255V444.754V451.663V476.641V483.586V501.412V508.546V515.464V529.271V531.502V536.107V543.052V568.021V574.939V591.844V597.75V604.695V620.579V622.729V627.479V634.405V651.798V653.947V664.134V680.515V682.709V686.99V693.916L393.332 716.827V731.944V753.482L305.149 755.08V750.628L306.702 744.009Z" fill="#7E8EBD"/>
<path d="M394 135.377V143.053L332.231 182.589C335.672 177.73 339.366 172.763 343.231 167.878L394 135.377Z" fill="#707EA9"/>
<path d="M310.423 216.327L394.046 167.562V175.021L308.924 224.617V218.837C308.924 218.837 309.484 217.952 310.423 216.327Z" fill="#707EA9"/>
<path d="M394.091 199.503V206.772L308.824 251.573L308.86 244.258L394.091 199.503Z" fill="#707EA9"/>
<path d="M394.109 221.89L394.127 229.087L308.734 270.664L308.779 263.466L394.109 221.89Z" fill="#707EA9"/>
<path d="M394.172 260.071V267.079L308.608 303.842L308.626 296.834L394.172 260.071Z" fill="#707EA9"/>
<path d="M394.209 291.759L394.227 298.703L308.463 333.922L308.509 326.951L394.209 291.759Z" fill="#707EA9"/>
<path d="M394.262 330.112L394.28 337.029L308.31 370.704L308.337 363.76L394.262 330.112Z" fill="#707EA9"/>
<path d="M394.317 364.166V371.111L308.156 404.849L308.201 397.886L394.317 364.166Z" fill="#707EA9"/>
<path d="M394.343 389.578L394.362 396.495L308.057 430.305L308.084 423.361L394.343 389.578Z" fill="#707EA9"/>
<path d="M394.389 410.664L394.38 417.591L307.966 451.446L307.993 444.502L394.389 410.664Z" fill="#707EA9"/>
<path d="M394.425 444.746L394.443 451.645L307.813 485.564L307.858 478.646L394.425 444.746Z" fill="#707EA9"/>
<path d="M394.461 476.623L394.479 483.568L307.678 517.541L307.705 510.596L394.461 476.623Z" fill="#707EA9"/>
<path d="M394.506 508.528L394.515 515.446L307.551 549.509L307.569 542.564L394.506 508.528Z" fill="#707EA9"/>
<path d="M394.552 536.089L394.57 543.034L307.425 577.16L307.452 570.189L394.552 536.089Z" fill="#707EA9"/>
<path d="M394.587 567.994L394.605 574.912L307.289 609.11L307.316 602.184L394.587 567.994Z" fill="#707EA9"/>
<path d="M394.633 597.723L394.651 604.668L307.172 638.93L307.19 631.967L394.633 597.723Z" fill="#707EA9"/>
<path d="M394.678 627.479L394.696 634.405L307.036 668.712L307.063 661.786L394.678 627.479Z" fill="#707EA9"/>
<path d="M394.723 657.189L394.714 664.133L306.91 698.531L306.937 691.568L394.723 657.189Z" fill="#707EA9"/>
<path d="M394.768 686.945L394.759 693.871L306.784 728.314L306.811 721.387L394.768 686.945Z" fill="#707EA9"/>
<path d="M394.814 725.315L394.823 731.899L306.693 750.583L306.702 744.009L394.814 725.315Z" fill="#707EA9"/>
<g opacity="0.51">
<path opacity="0.51" d="M354.239 154.802L393.973 128.73L394.145 128.622L428.895 144.615V146.999L394.271 131.069L393.928 131.286L349.083 160.744C350.175 159.407 351.313 158.098 352.451 156.806C353.038 156.129 353.652 155.452 354.239 154.802Z" fill="#67749C"/>
</g>
<g opacity="0.51">
<path opacity="0.51" d="M393.856 162.64L394.046 162.532L394.218 162.441L429.437 170.921V173.134L394.57 164.708L394.055 164.997L312.861 212.218C313.548 211.062 314.342 209.78 315.2 208.389L393.856 162.64Z" fill="#67749C"/>
</g>
<g opacity="0.51">
<path opacity="0.51" d="M393.486 193.263L393.82 193.1L394.082 193.145L429.915 199.783L429.951 201.95L394.163 195.331L394.082 195.376L308.86 240.971L308.887 238.524L393.486 193.263Z" fill="#67749C"/>
</g>
<g opacity="0.51">
<path opacity="0.51" d="M393.793 217.482L394.091 217.546L430.367 225.014L430.412 227.226L394.109 219.731H394.091L308.779 261.055L308.797 258.671L393.793 217.482Z" fill="#67749C"/>
</g>
<g opacity="0.51">
<path opacity="0.51" d="M393.504 253.975L394.172 253.966L430.882 253.208L430.918 255.357L394.163 256.025L308.644 295.046V292.68L393.504 253.975Z" fill="#67749C"/>
</g>
<g opacity="0.51">
<path opacity="0.51" d="M393.775 286.756L394.055 286.639L394.209 286.666L431.568 291.425L431.613 293.592L394.353 288.833L394.199 288.896L308.518 325.316L308.527 322.978L393.775 286.756Z" fill="#67749C"/>
</g>
<g opacity="0.51">
<path opacity="0.51" d="M393.847 322.616L394.1 322.499H394.254L432.227 327.854V330.03L394.353 324.693L394.208 324.757C365.889 336.713 321.702 355.352 308.301 360.933V358.603C322.777 352.598 368.11 333.462 393.847 322.616Z" fill="#67749C"/>
</g>
<g opacity="0.51">
<path opacity="0.51" d="M393.901 357.682L394.181 357.564L394.307 357.583L432.868 362.947L432.904 365.123L394.452 359.777L394.307 359.84L308.201 395.646L308.228 393.325L393.901 357.682Z" fill="#67749C"/>
</g>
<g opacity="0.51">
<path opacity="0.51" d="M393.522 384.151L393.82 384.033L394.335 384.133L433.392 392.179L433.437 394.373L394.335 386.327L394.027 386.273L308.093 420.228L308.111 417.925L393.522 384.151Z" fill="#67749C"/>
</g>
<g opacity="0.51">
<path opacity="0.51" d="M307.876 472.623L394.091 436.988L394.416 437.042L434.358 445.179L434.394 447.392L394.407 439.237L394.298 439.219L307.876 474.944V472.641V472.623Z" fill="#67749C"/>
</g>
<g opacity="0.51">
<path opacity="0.51" d="M392.998 501.439L393.188 501.367L394.507 501.394L435.379 501.701L435.415 503.851L394.497 503.516H393.612L307.605 538.221V535.9L392.998 501.439Z" fill="#67749C"/>
</g>
<g opacity="0.51">
<path opacity="0.51" d="M394.407 529.235L394.533 529.253L435.929 532.008L435.965 534.139L394.768 531.403L394.551 531.484L307.47 567.588V565.267L394.407 529.235Z" fill="#67749C"/>
</g>
<g opacity="0.51">
<path opacity="0.51" d="M394.362 561.465L394.579 561.474L436.553 566.55L436.589 568.735L394.615 563.669L394.579 563.696L307.334 596.919L307.353 594.598L394.362 561.465Z" fill="#67749C"/>
</g>
<g opacity="0.51">
<path opacity="0.51" d="M307.208 626.801L394.226 591.88L394.461 591.799L394.633 591.817L437.076 595.583L437.112 597.75L394.777 593.984L394.633 594.047L307.208 629.149V626.828V626.801Z" fill="#67749C"/>
</g>
<g opacity="0.51">
<path opacity="0.51" d="M394.055 620.651L394.289 620.543L394.66 620.579L437.6 624.336L437.636 626.485L394.678 622.728H394.633L307.497 658.209L307.09 657.207L306.684 656.223L307.09 656.069L394.055 620.651Z" fill="#67749C"/>
</g>
<g opacity="0.51">
<path opacity="0.51" d="M394.127 651.852L394.362 651.762L394.705 651.798L438.169 656.015L438.205 658.164L394.723 653.947H394.66L306.946 687.396L306.973 685.094L394.127 651.852Z" fill="#67749C"/>
</g>
<g opacity="0.51">
<path opacity="0.51" d="M394.136 680.569L394.389 680.479H394.759L438.693 684.714V686.891L394.75 682.71H394.651C335.727 706.523 314.487 715.084 306.784 718.145V715.843C321.847 709.801 367.948 691.153 394.136 680.569Z" fill="#67749C"/>
</g>
<g opacity="0.51">
<path opacity="0.51" d="M306.711 739.855L394.57 716.764L394.813 716.782L439.325 719.807L439.361 721.974L394.804 718.931L394.786 718.94L306.711 742.094V739.882V739.855Z" fill="#67749C"/>
</g>
<g style="mix-blend-mode:multiply" opacity="0.13">
<path d="M306.702 744.009V739.855L306.774 728.314V721.387V718.1V715.797L306.847 698.531V691.569V687.396V685.094L307.054 668.712V661.786V657.207V656.069L307.127 638.911V631.949V629.131V626.783L307.217 609.092V602.166V596.901V594.58L307.289 577.142V570.171V567.57V565.312L307.37 549.554V542.61V538.266V535.945L307.443 517.586V510.641L307.551 485.609V478.691V475.007V472.668L307.641 451.491V444.547L307.704 430.351V423.406V420.273V417.97L307.75 404.894V397.931V395.692V393.371L307.831 370.749V363.805V358.666L307.948 333.968L307.993 326.996V323.023L308.084 303.887V296.879V295.073V292.68L308.174 270.664V263.439V261.037V258.653V251.555V244.24V240.953V238.506L308.219 224.635V218.855C308.219 218.855 308.743 217.952 309.682 216.309C310.305 215.243 311.118 213.898 312.102 212.263C312.789 211.107 313.583 209.825 314.441 208.434C318.469 201.914 324.203 192.947 330.931 183.392L319.697 754.8L306.63 755.035V750.583L306.702 744.009Z" fill="#2F3A71"/>
</g>
<path d="M376.761 282.719L374.991 626.079L352.072 626.557L351.196 273.12L376.761 282.719Z" fill="#A9D9FC"/>
<path d="M351.196 273.12L352.072 626.557L334.625 626.918L336.34 279.287L351.196 273.12Z" fill="#95BEDE"/>
<path d="M357.689 282.566L356.163 625.826L354.772 281.717L357.689 282.566Z" fill="#94BEDD"/>
<path d="M363.568 285.022L358.98 626.422L360.244 283.667L363.568 285.022Z" fill="#94BEDD"/>
<path d="M369.835 286.927L362.881 625.681L366.078 285.97L369.835 286.927Z" fill="#94BEDD"/>
<path d="M374.458 288.255L367.053 625.6L371.975 287.632L374.458 288.255Z" fill="#94BEDD"/>
<path d="M332.548 174.1L274.283 181.803L273.533 145.085L333.153 131.729L332.548 174.1Z" fill="#7AB6E0"/>
<path d="M332.548 174.1L333.153 131.729L339.014 139.838L334.625 626.919L302.684 627.569L304.083 154.404L332.548 174.1Z" fill="#96D3FF"/>
<path d="M310.775 627.397L253.052 628.58L243.561 164.383L304.083 154.404L310.775 627.397Z" fill="#82C2ED"/>
<path d="M300.977 206.312L301.085 215.974L301.184 223.759L301.266 233.331L301.401 244.52L301.437 248.223L301.528 255.935L301.609 265.507L301.717 274.05L301.753 277.906L301.853 287.262L301.934 294.522L301.97 299.796L302.051 305.666L302.449 343.025L302.503 348.805L302.602 356.95L302.674 364.03L302.729 369.729L302.765 373.476L302.837 379.283L302.936 388.566L302.963 392.088L303.036 397.895L303.09 403.81L303.171 410.917L303.234 416.633L303.27 420.363L303.343 426.142L303.424 435.453L303.478 439.282L303.505 442.957L303.866 475.964L303.966 485.275L304.056 492.806L304.155 501.954L304.255 512.7L304.291 516.303L304.372 523.817L304.471 532.947L304.571 541.174L304.607 544.939L304.697 553.907L304.769 560.887L304.833 565.999L304.887 571.688L304.995 582.696V582.723L305.049 586.308L305.131 593.777V593.795L305.23 602.952L305.311 611.178L305.338 614.926L305.438 622.864L257.44 623.839L248.13 168.7L300.498 160.662L300.977 206.312Z" fill="#2D5885"/>
<path d="M335.916 183.943L332.168 622.674L313.665 623.054L307.172 162.857L335.916 183.943Z" fill="#2F6EAA"/>
<path d="M304.453 180.71L244.03 187.131L243.985 185.352L304.517 175.518L304.453 180.71Z" fill="#82C2ED"/>
<path d="M303.415 194.003L245.403 199.602L245.367 197.823L303.478 188.811L303.415 194.003Z" fill="#82C2ED"/>
<path d="M337.072 192.54V194.5L305.826 181.162C305.754 181.162 306.341 176.836 306.341 176.836L337.072 192.54Z" fill="#96D3FF"/>
<path d="M337.289 203.115L336.909 205.084L306.133 194.572L306.314 189.596L337.289 203.115Z" fill="#96D3FF"/>
<path d="M336.648 328.459L336.693 330.419L307.958 318.679L308.174 313.676L336.648 328.459Z" fill="#96D3FF"/>
<path d="M336.864 339.034L336.494 341.002L307.831 335.358L308.192 330.121L336.864 339.034Z" fill="#96D3FF"/>
<path d="M335.717 460.35L335.772 462.96C335.772 462.96 309.348 453.93 309.276 453.857L309.475 448.854L335.717 460.35Z" fill="#96D3FF"/>
<path d="M335.537 471.449L335.473 473.833L309.574 470.004L309.691 465.904L335.537 471.449Z" fill="#96D3FF"/>
<path d="M303.731 319.447L248.708 324.684L248.609 319.826L303.623 313.812L303.731 319.447Z" fill="#82C2ED"/>
<path d="M304.02 333.643L248.943 336.487L248.862 332.216L303.939 329.588L304.02 333.643Z" fill="#82C2ED"/>
<path d="M306.477 453.397L252.952 459.411L251.39 456.016L306.35 447.608L306.477 453.397Z" fill="#82C2ED"/>
<path d="M305.899 471.16L254.334 472.216L251.625 467.539L306.684 463.556L305.899 471.16Z" fill="#82C2ED"/>
<path d="M335.564 225.159L307.948 215.568L307.831 209.653L335.618 218.151L335.564 225.159Z" fill="#397FBD"/>
<path d="M335.501 232.988L335.419 242.335L308.192 235.192L308.093 228.283C308.093 228.283 335.492 233.295 335.501 232.988Z" fill="#397FBD"/>
<path d="M335.356 249.929L335.284 257.334L308.427 252.16L308.436 247.112L335.356 249.929Z" fill="#397FBD"/>
<path d="M335.203 266.943L335.149 274.249L308.671 269.309L308.608 264.541L335.203 266.943Z" fill="#397FBD"/>
<path d="M335.076 282.114L335.049 285.916L308.933 287.939L308.842 281.311L335.076 282.114Z" fill="#397FBD"/>
<path d="M334.968 295.263L334.887 304.862L309.077 298.36L309.005 292.852L334.968 295.263Z" fill="#397FBD"/>
<path d="M334.76 318.769L309.249 306.452L309.186 303.499L334.823 311.662L334.76 318.769Z" fill="#397FBD"/>
<path d="M334.435 357.086L309.836 349.283L309.718 343.612L334.498 350.358L334.435 357.086Z" fill="#397FBD"/>
<path d="M334.39 362.829L334.363 365.448L310.008 364.103L309.926 358.323L334.39 362.829Z" fill="#397FBD"/>
<path d="M334.318 371.418L334.264 377.242L310.152 374.479L310.089 370.027L334.318 371.418Z" fill="#397FBD"/>
<path d="M334.219 383.302L334.182 386.634L310.342 388.142L310.288 380.782L334.219 383.302Z" fill="#397FBD"/>
<path d="M334.083 398.518L310.513 396.477L310.405 392.458L334.128 393.018L334.083 398.518Z" fill="#397FBD"/>
<path d="M334.038 404.541L310.703 410.348L310.558 403.485L334.056 401.805L334.038 404.541Z" fill="#397FBD"/>
<path d="M333.974 411.531L333.92 418.069L310.739 416.028L310.766 413.364L333.974 411.531Z" fill="#397FBD"/>
<path d="M333.893 421.067L333.866 423.966L310.883 426.395L310.811 421.067H333.893Z" fill="#397FBD"/>
<path d="M333.794 433.141L333.731 440.014L311.001 434.379L310.938 429.899L333.794 433.141Z" fill="#397FBD"/>
<path d="M333.677 446.425L333.65 449.55L311.136 444.195L311.073 438.162L333.677 446.425Z" fill="#397FBD"/>
<path d="M333.387 480.524L333.351 484.597L311.705 484.76L311.615 478.24L333.387 480.524Z" fill="#397FBD"/>
<path d="M333.27 493.465L311.913 494.711L311.769 488.995L333.297 490.946L333.27 493.465Z" fill="#397FBD"/>
<path d="M333.198 501.999L333.135 510.325L312.003 505.711L312.021 501.412L333.198 501.999Z" fill="#397FBD"/>
<path d="M333.081 516.213L333.053 519.365L312.238 522.246L312.157 516.638L333.081 516.213Z" fill="#397FBD"/>
<path d="M332.954 530.761L312.355 527.781L312.274 525.009L333.008 525.117L332.954 530.761Z" fill="#397FBD"/>
<path d="M332.927 533.977L332.909 536.505L312.509 541.616L312.428 535.412L332.927 533.977Z" fill="#397FBD"/>
<path d="M332.837 544.885L332.819 547.269L312.608 548.696L312.545 543.928L332.837 544.885Z" fill="#397FBD"/>
<path d="M332.746 555.433L332.683 562.576L312.744 557.98L312.726 554.286L332.746 555.433Z" fill="#397FBD"/>
<path d="M332.656 566.441L332.638 568.473L312.933 571.679L312.87 567.092L332.656 566.441Z" fill="#397FBD"/>
<path d="M332.584 574.216L332.529 580.601L313.014 577.531L312.969 574.37L332.584 574.216Z" fill="#397FBD"/>
<path d="M332.539 585.992L313.204 588.81L313.105 583.969L332.503 584.06L332.539 585.992Z" fill="#397FBD"/>
<path d="M332.43 592.341L332.394 596.576L313.249 594.201L313.222 592.169L332.43 592.341Z" fill="#397FBD"/>
<path d="M332.367 599.98L332.349 601.868L313.412 605.345L313.403 601.461L332.367 599.98Z" fill="#397FBD"/>
<path d="M332.295 608.632L332.241 615.098L313.439 612.163L313.484 608.849L332.295 608.632Z" fill="#397FBD"/>
<path d="M301.085 215.975L249.223 222.016L249.033 212.642L300.977 206.312L301.085 215.975Z" fill="#366CA1"/>
<path d="M301.266 233.331L249.539 237.259L249.431 231.922L301.185 223.759L301.266 233.331Z" fill="#366CA1"/>
<path d="M302.937 388.567L252.627 388.404L252.519 383.067L302.837 379.283L302.937 388.567Z" fill="#366CA1"/>
<path d="M301.609 265.507L250.171 268.306L250.062 262.969L301.528 255.935L301.609 265.507Z" fill="#366CA1"/>
<path d="M301.934 294.522L250.695 293.845L250.631 290.793L301.853 287.262L301.934 294.522Z" fill="#366CA1"/>
<path d="M302.675 364.03L252.112 363.362L252.049 360.355L302.602 356.95L302.675 364.03Z" fill="#366CA1"/>
<path d="M302.052 305.666L251.029 310.145L250.875 302.677L301.97 299.796L302.052 305.666Z" fill="#366CA1"/>
<path d="M302.503 348.805L251.905 353.158L251.751 345.834L302.449 343.025L302.503 348.805Z" fill="#366CA1"/>
<path d="M301.437 248.223L249.837 252.124L249.683 244.655L301.401 244.52L301.437 248.223Z" fill="#366CA1"/>
<path d="M302.765 373.476L252.402 377.242L252.248 369.882L302.729 369.729L302.765 373.476Z" fill="#366CA1"/>
<path d="M303.424 435.453L253.584 435.3L253.476 429.917L303.343 426.143L303.424 435.453Z" fill="#366CA1"/>
<path d="M303.172 410.917L253.07 410.303L253.007 407.215L303.09 403.81L303.172 410.917Z" fill="#366CA1"/>
<path d="M303.036 397.895L252.907 402.194L252.754 394.879L302.964 392.088L303.036 397.895Z" fill="#366CA1"/>
<path d="M303.27 420.363L253.35 424.074L253.205 416.787L303.234 416.633L303.27 420.363Z" fill="#366CA1"/>
<path d="M303.505 442.958L253.855 448.502L253.702 441.224L303.478 439.282L303.505 442.958Z" fill="#366CA1"/>
<path d="M301.754 277.906L250.451 281.807L250.289 274.185L301.718 274.05L301.754 277.906Z" fill="#366CA1"/>
<path d="M303.966 485.274L254.722 490.828L254.533 481.798L303.867 475.964L303.966 485.274Z" fill="#366CA1"/>
<path d="M304.156 501.954L255.02 505.602L254.912 500.292L304.056 492.806L304.156 501.954Z" fill="#366CA1"/>
<path d="M304.471 532.947L255.634 535.557L255.526 530.292L304.372 523.817L304.471 532.947Z" fill="#366CA1"/>
<path d="M304.77 560.887L256.14 560.282L256.077 557.194L304.698 553.907L304.77 560.887Z" fill="#366CA1"/>
<path d="M304.887 571.688L256.456 575.824L256.312 568.672L304.833 565.999L304.887 571.688Z" fill="#366CA1"/>
<path d="M304.291 516.303L255.31 519.907L255.165 512.845L304.255 512.7L304.291 516.303Z" fill="#366CA1"/>
<path d="M304.607 544.94L255.896 548.534L255.752 541.3L304.571 541.174L304.607 544.94Z" fill="#366CA1"/>
<path d="M305.23 602.952L257.061 605.499L256.953 600.17L305.131 593.795L305.23 602.952Z" fill="#366CA1"/>
<path d="M304.995 582.723L305.05 586.309L256.745 589.876L256.601 582.859L304.995 582.696V582.723Z" fill="#366CA1"/>
<path d="M305.339 614.926L257.323 618.484L257.179 611.332L305.312 611.179L305.339 614.926Z" fill="#366CA1"/>
<path d="M194.597 261.66L194.136 237.115L194.091 234.74L193.64 209.4L193.576 206.402L193.188 185.099L260.276 246.796L260.141 263.484L260.132 266.401L260.077 274.429L260.059 276.967L259.969 286.792L259.951 289.194L259.707 323.267L195.717 323.402L194.642 264.08L194.597 261.66Z" fill="#CCE1F0"/>
<path d="M81.7602 267.015L82.2208 251.401L82.284 249.108L82.5639 239.725L82.6272 237.377L83.467 209.138L193.188 185.099L193.577 206.402L193.64 209.4L194.091 234.74L194.136 237.115L194.57 261.66L194.624 264.08L195.211 296.437L80.7759 300.184L81.688 269.282L81.7602 267.015Z" fill="#ACB9C7"/>
<path d="M192.728 205.671L193.577 206.402L260.141 263.484L260.132 266.401L193.64 209.401L192.177 208.154L82.564 239.725L82.6272 237.377L192.728 205.671Z" fill="#97A4B0"/>
<path d="M194.064 234.74L194.444 234.686L194.778 234.876C215.629 247.681 244.184 265.092 260.051 274.429V276.967C247.703 269.815 225.728 256.531 194.128 237.115L193.947 237.007L82.1938 251.402L82.2571 249.108L194.064 234.74Z" fill="#97A4B0"/>
<path d="M193.531 261.344H193.757L194.57 261.66H194.597L259.969 286.792L259.951 289.194L194.642 264.08H194.624L193.396 263.61L81.688 269.282L81.7602 267.015L193.531 261.344Z" fill="#97A4B0"/>
<path d="M269.09 305.792L265.893 619.866L221.029 620.579L222.33 285.771L269.09 305.792Z" fill="#3B334C"/>
<path d="M190.353 592.557L190.47 576.293L190.479 574.063L190.642 553.735L190.651 551.477L190.822 530.003V527.727L191.012 503.543L191.021 501.223L191.147 485.329L191.156 483.053L191.4 451.229V451.202V448.872L191.572 427.371L191.581 425.032L191.716 407.214V404.857L191.816 392.757L191.825 390.49V390.463L191.942 374.506L191.978 372.23L192.105 354.16L192.114 351.812L192.267 329.768L192.303 327.43L192.376 315.572L192.403 313.261V313.234L192.466 302.993L192.493 300.744L192.565 288.643L192.601 286.458L192.692 272.948L196.466 274.592L198.67 275.549L204.206 277.933L206.4 278.872L208.423 279.766L210.644 280.724L218.555 284.128L220.759 285.085L222.339 285.772L222.321 290.359L222.312 292.563L222.249 308.258V310.533L222.185 323.555L222.176 325.894L222.122 337.77V340.108L222.05 362.179L222.023 364.491V364.518L221.96 380.276L221.951 382.552L221.896 398.554V400.821L221.824 416.182V418.548L221.752 436.356L221.743 438.722L221.671 460.26L221.662 462.599V462.617L221.526 490.612L221.535 490.63L221.526 492.905L221.472 511.752L221.445 514.091L221.373 534.617L221.364 536.866L221.282 558.368L221.273 560.634L221.201 579.31L221.192 581.54L221.12 597.831L221.111 600.062L221.039 620.579L190.145 621.076L190.344 594.788L190.353 592.557Z" fill="#6C658A"/>
<path d="M214.564 596.693L214.771 580.447L214.798 578.217L215.051 559.235L215.078 556.959L215.358 535.529L215.394 533.281L215.385 533.254L215.647 512.086L215.674 509.747L215.918 491.487L215.945 489.239V489.221L216.307 460.585L216.334 458.246L216.614 436.789L216.641 434.432L216.866 416.687L216.903 414.339L217.083 399.529L217.11 397.254L217.318 381.297L217.354 379.048V379.021L217.562 362.956L217.589 360.635L217.86 338.627L217.887 336.315V336.288L218.049 324.458L218.086 322.138L218.23 309.513L218.266 307.237L218.465 292.057L218.492 289.871L218.555 284.128L220.759 285.085L220.686 290.16L220.65 292.346L220.461 307.797L220.424 310.073L220.28 322.896L220.253 325.217L220.081 337.047V337.074L220.054 339.386L219.783 361.393L219.756 363.714L219.548 379.626L219.521 381.902L219.305 397.859L219.278 400.134L219.097 415.17L219.07 417.509L218.844 435.254V435.281L218.817 437.62L218.537 459.077L218.51 461.416V461.434L218.14 489.781L218.113 492.056L217.878 510.506L217.842 512.845L217.58 533.768L217.553 536.026L217.273 557.456L217.246 559.731L217.011 578.605L216.984 580.809L216.776 597.082L216.749 599.312L216.469 620.651L214.266 620.688L214.537 598.924L214.564 596.693Z" fill="#493F5E"/>
<path d="M207.971 595.583L207.998 579.273L207.989 577.052L208.034 557.645V555.379L208.052 533.877L208.061 531.61L208.107 509.467V507.128L208.116 489.564L208.125 487.288L208.179 457.542L208.17 455.176L208.197 433.638V433.62L208.206 431.272L208.233 413.445V413.418L208.242 411.079L208.26 397.181L208.269 394.879L208.278 378.885L208.287 376.61L208.332 359.768L208.314 357.429L208.36 335.34L208.369 333.001L208.378 321.126V321.099L208.387 318.787L208.396 307.02L208.405 304.745L208.423 290.729L208.432 288.553L208.423 279.766L210.644 280.723L210.626 288.824L210.635 291.027L210.599 305.305L210.608 307.58L210.581 319.546L210.572 321.885L210.563 333.76L210.554 336.099L210.536 358.187L210.527 360.526L210.5 377.188V379.491L210.464 395.484L210.473 397.759L210.437 411.91L210.455 414.267L210.428 432.102L210.418 434.459L210.391 456.006L210.382 458.363L210.337 487.83V490.106L210.31 507.887L210.301 510.226L210.274 532.125L210.265 534.373L210.229 555.866L210.22 558.142L210.202 577.431L210.193 579.662L210.184 595.953L210.175 598.174L210.139 620.76L207.935 620.787L207.962 597.813L207.971 595.583Z" fill="#493F5E"/>
<path d="M200.25 594.255L200.458 577.982L200.485 575.779L200.72 556.002L200.756 553.744L201.027 532.288L201.063 530.039L201.334 507.128L201.361 504.808V504.79L201.577 487.921L201.614 485.672L201.984 455.212L202.02 452.873L202.291 431.416V431.389L202.327 429.05L202.544 411.287L202.58 408.939L202.742 395.701L202.769 393.425V393.407L202.959 377.468L202.986 375.192L203.203 357.998L203.23 355.659L203.519 333.652L203.555 331.331L203.691 319.501L203.727 317.162L203.853 305.883L203.88 303.625V303.607L204.07 290.16L204.079 287.975V287.957L204.205 277.933L206.4 278.872L206.282 288.255L206.255 290.459L206.102 304.167L206.066 306.443L205.921 317.92L205.894 320.259L205.75 332.089L205.722 334.41L205.424 356.418L205.397 358.757L205.181 375.779L205.153 378.046L204.964 394.012L204.937 396.278L204.774 409.77L204.747 412.109L204.521 429.881L204.494 432.22V432.238L204.214 453.695L204.187 456.034L203.808 486.214L203.772 488.48L203.564 505.548V505.566L203.528 507.887L203.248 530.536L203.221 532.784L202.968 554.241L202.941 556.517L202.697 576.14L202.661 578.371L202.462 594.634L202.426 596.865L202.128 620.886L199.925 620.922L200.214 596.486L200.25 594.255Z" fill="#493F5E"/>
<path d="M192.655 592.964L192.836 576.691L192.872 574.46L193.125 554.286L193.134 552.037L193.405 530.581L193.414 528.305L193.721 504.492L193.748 502.171V502.153L193.937 486.015L193.965 483.766L194.353 452.331L194.38 449.992L194.633 428.536V428.509L194.66 426.17L194.868 408.406L194.895 406.068L195.048 393.614L195.084 391.339L195.274 375.4L195.301 373.133L195.5 355.343V355.316L195.527 352.995L195.798 330.988L195.825 328.649L195.969 316.819L195.996 314.498L196.123 303.932L196.15 301.656L196.303 289.14L196.331 286.955L196.466 274.592L198.669 275.549L198.525 287.226L198.516 289.438L198.362 302.216L198.335 304.492L198.2 315.265L198.164 317.577L198.028 329.407L197.992 331.755L197.73 353.763L197.694 356.074V356.102L197.496 373.711L197.459 375.987L197.279 391.944L197.243 394.22L197.098 406.889L197.062 409.228L196.863 427L196.836 429.339V429.357L196.574 450.814L196.547 453.153L196.159 484.299V484.326L196.132 486.575L195.951 502.911V502.929L195.915 505.25L195.635 528.802L195.599 531.078L195.346 552.534L195.319 554.783L195.084 574.849L195.057 577.079L194.85 593.325L194.813 595.556L194.515 621.004L192.312 621.04L192.628 595.194L192.655 592.964Z" fill="#493F5E"/>
<path d="M196.331 286.955L198.525 287.226L204.079 287.957V287.975L206.282 288.255L208.432 288.553L210.626 288.824L218.492 289.872L220.686 290.161L222.321 290.359L222.312 292.563L220.65 292.346L218.465 292.057L210.635 291.027L208.423 290.729L206.255 290.459L204.07 290.161L198.516 289.438L196.304 289.14L192.565 288.643L192.601 286.458L196.331 286.955Z" fill="#493F5E"/>
<path d="M196.15 301.656L198.363 302.216L203.88 303.607V303.625L206.102 304.167L208.405 304.745L210.599 305.305L218.266 307.237L220.461 307.797L222.249 308.258V310.533L220.424 310.073L218.23 309.513L210.608 307.58L208.396 307.02L206.066 306.442L203.853 305.883L198.336 304.492L196.123 303.932L192.466 302.993L192.493 300.744L196.15 301.656Z" fill="#493F5E"/>
<path d="M195.997 314.498L198.2 315.266L203.727 317.162L205.921 317.92L208.387 318.787L210.581 319.546L218.085 322.138L220.28 322.896L222.185 323.556L222.176 325.895L220.253 325.217L218.049 324.459L210.572 321.885L208.378 321.126V321.099L205.894 320.259L203.691 319.501L198.164 317.577L195.97 316.819L192.375 315.573L192.403 313.261L195.997 314.498Z" fill="#493F5E"/>
<path d="M195.825 328.649L198.029 329.407L203.555 331.331L205.75 332.089L208.369 333.002L210.563 333.76L217.887 336.289V336.316L220.081 337.047V337.074L222.122 337.77V340.109L220.054 339.386L217.86 338.628L210.554 336.099L208.36 335.34L205.723 334.41L203.519 333.652L197.992 331.755L195.798 330.988L192.267 329.769L192.303 327.43L195.825 328.649Z" fill="#493F5E"/>
<path d="M195.527 352.995L197.731 353.763L203.23 355.659L205.425 356.418L208.314 357.429L210.536 358.188L217.589 360.635L219.783 361.393L222.05 362.179L222.023 364.491L219.756 363.714L217.562 362.956L210.527 360.527L208.332 359.768L205.397 358.757L203.203 357.998L197.694 356.102V356.074L195.5 355.343V355.316L192.104 354.16L192.113 351.812L195.527 352.995Z" fill="#493F5E"/>
<path d="M195.301 373.133L197.496 373.711L202.986 375.192L205.181 375.779L208.287 376.61L210.5 377.188L217.354 379.021V379.048L219.548 379.626L221.959 380.276L221.95 382.552L219.521 381.902L217.318 381.297L210.5 379.491L208.278 378.885L205.154 378.046L202.959 377.468L197.46 375.987L195.274 375.4L191.942 374.506L191.978 372.23L195.301 373.133Z" fill="#493F5E"/>
<path d="M195.084 391.339L197.279 391.944L202.77 393.407V393.425L204.964 394.012L208.269 394.879L210.464 395.484L217.11 397.254L219.304 397.859L221.896 398.554V400.821L219.277 400.134L217.083 399.529L210.473 397.759L208.26 397.181L204.937 396.278L202.742 395.7L197.243 394.219L195.048 393.614L191.815 392.756L191.824 390.49L195.084 391.339Z" fill="#493F5E"/>
<path d="M194.895 406.068L197.098 406.889L202.58 408.939L204.774 409.77L208.242 411.079L210.437 411.91L216.902 414.34L219.097 415.17L221.824 416.182V418.548L219.07 417.509L216.866 416.687L210.455 414.267L208.233 413.445V413.418L204.747 412.109L202.544 411.287L197.062 409.228L194.868 408.406L191.716 407.214V404.857L194.895 406.068Z" fill="#493F5E"/>
<path d="M194.38 449.992L196.574 450.814L202.02 452.873L204.214 453.695L208.17 455.176L210.391 456.007L216.333 458.246L218.537 459.077L221.67 460.26L221.661 462.599L218.51 461.434V461.416L216.306 460.585L210.382 458.364L208.179 457.542L204.187 456.034L201.984 455.212L196.547 453.153L194.353 452.331L191.4 451.23V451.202V448.873L194.38 449.992Z" fill="#493F5E"/>
<path d="M193.965 483.767L196.159 484.299V484.327L201.614 485.672L203.808 486.214L208.125 487.289L210.337 487.83L215.945 489.221V489.239L218.14 489.781L221.526 490.612L221.535 490.63L221.526 492.906L218.113 492.057L215.918 491.488L210.337 490.106L208.116 489.564L203.772 488.481L201.578 487.921L196.132 486.575L193.938 486.015L191.147 485.329L191.156 483.053L193.965 483.767Z" fill="#493F5E"/>
<path d="M193.748 502.153V502.171L195.951 502.911V502.929L201.361 504.79V504.808L203.564 505.548V505.566L208.107 507.129L210.31 507.887L215.674 509.747L217.878 510.506L221.472 511.752L221.445 514.091L217.842 512.845L215.647 512.086L210.301 510.226L208.107 509.467L203.528 507.887L201.334 507.129L195.915 505.25L193.721 504.492L191.012 503.543L191.021 501.223L193.748 502.153Z" fill="#493F5E"/>
<path d="M193.414 528.305L195.636 528.802L201.063 530.039L203.248 530.536L208.062 531.61L210.274 532.125L215.385 533.254L215.394 533.281L217.58 533.768L221.373 534.617L221.364 536.866L217.553 536.026L215.358 535.529L210.265 534.373L208.053 533.877L203.221 532.784L201.027 532.287L195.599 531.077L193.405 530.581L190.822 530.003V527.727L193.414 528.305Z" fill="#493F5E"/>
<path d="M193.134 552.037L195.346 552.534L200.756 553.744L202.968 554.241L208.034 555.379L210.229 555.866L215.078 556.959L217.273 557.456L221.282 558.368L221.273 560.635L217.246 559.731L215.051 559.235L210.22 558.142L208.034 557.645L202.941 556.517L200.72 556.002L195.319 554.783L193.125 554.286L190.642 553.735L190.651 551.478L193.134 552.037Z" fill="#493F5E"/>
<path d="M192.872 574.46L195.085 574.849L200.485 575.779L202.698 576.14L207.989 577.052L210.202 577.431L214.799 578.217L217.011 578.605L221.201 579.31L221.192 581.54L216.984 580.809L214.771 580.448L210.193 579.662L207.999 579.274L202.661 578.371L200.458 577.982L195.058 577.079L192.836 576.691L190.47 576.294L190.479 574.063L192.872 574.46Z" fill="#493F5E"/>
<path d="M192.656 592.964L194.85 593.325L200.25 594.255L202.463 594.635L207.971 595.583L210.184 595.953L214.564 596.694L216.776 597.082L221.12 597.831L221.111 600.062L216.749 599.313L214.537 598.924L210.175 598.175L207.962 597.813L202.427 596.865L200.214 596.486L194.814 595.556L192.628 595.195L190.344 594.788L190.353 592.558L192.656 592.964Z" fill="#493F5E"/>
<path d="M194.66 426.17L196.864 427L202.327 429.05L204.522 429.881L208.206 431.272L210.428 432.103L216.641 434.433L218.844 435.254V435.281L221.752 436.356L221.743 438.722L218.817 437.62L216.613 436.789L210.419 434.46L208.197 433.638V433.62L204.494 432.238V432.22L202.291 431.416V431.389L196.837 429.357V429.339L194.633 428.536V428.509L191.572 427.371L191.581 425.032L194.66 426.17Z" fill="#493F5E"/>
<path d="M230.34 318.264L226.574 315.518L226.321 299.489L232.281 301.774L230.34 318.264Z" fill="#4E4566"/>
<path d="M238.567 315.329L236.86 320.539L232.58 320.115L233.835 312.602L238.567 315.329Z" fill="#4E4566"/>
<path d="M263.184 354.061L260.294 354.115L260.141 344.524L264.71 345.807L263.184 354.061Z" fill="#4E4566"/>
<path d="M250.279 340.479L249.72 348.534L245.836 347.351L246.387 338.393L250.279 340.479Z" fill="#4E4566"/>
<path d="M244.102 359.885L243.542 367.706L239.416 368.419L240.635 358.44L244.102 359.885Z" fill="#4E4566"/>
<path d="M234.304 385.622L232.543 395.845L228.669 395.312L229.464 384.629L234.304 385.622Z" fill="#4E4566"/>
<path d="M239.939 401.381L238.259 417.546L232.444 416.128L233.844 399.792L239.939 401.381Z" fill="#4E4566"/>
<path d="M245.295 434.568L243.832 447.22L239.226 446.254L239.759 433.322L245.295 434.568Z" fill="#4E4566"/>
<path d="M251.49 458.129L249.404 473.68L244.446 473.761L244.97 457.307L251.49 458.129Z" fill="#4E4566"/>
<path d="M254.578 509.702L250.668 508.113L250.496 497.078L255.309 497.647L254.578 509.702Z" fill="#4E4566"/>
<path d="M150.176 275.441L150.14 284.688L150.122 289.258L150.113 298.523L150.076 309.938V315.347L150.049 321.912L150.031 330.816L150.004 340.461L149.995 345.626L149.959 358.296L149.941 368.004L149.896 377.947V383.329L149.851 394.635L149.824 404.316L149.805 413.094V418.584L149.76 428.653V438.325L149.706 451.239V456.738L149.67 470.104L149.643 479.748L149.625 490.892L149.598 496.437L149.589 504.618L149.544 515.608L149.526 527.764L149.507 533.399L149.471 542.772L149.444 552.462L149.426 565.556L149.408 571.3L149.39 581.577L149.354 592.747L149.327 604.903L149.309 610.556L149.246 633.791L32.607 633.078L25.2109 271.269L150.248 243.906L150.176 275.441Z" fill="#31638F"/>
<path d="M150.194 261.118L25.4997 285.699L25.4727 284.48L150.203 259.023L150.194 261.118Z" fill="#2A567D"/>
<path d="M150.185 264.487L25.5722 288.968L25.5361 287.379L150.14 262.229L150.185 264.487Z" fill="#2A567D"/>
<path d="M149.327 604.903L149.354 592.747L149.39 581.577L149.408 571.3L149.426 565.556L149.444 552.462L149.471 542.772L149.507 533.399L149.526 527.764L149.544 515.608L149.589 504.618L149.598 496.437L149.625 490.892L149.643 479.748L149.67 470.104L149.706 456.738V451.239L149.76 438.325V428.653L149.805 418.584V413.094L149.824 404.316L149.851 394.635L149.896 383.329V377.947L149.941 368.004L149.959 358.296L149.995 345.626L150.004 340.461L150.031 330.816L150.049 321.912L150.076 315.347V309.938L150.113 298.523L150.122 289.258L150.14 284.688L150.176 275.441L150.248 243.906L199.699 270.122L199.609 298.478L199.591 303.409L199.573 312.295L199.564 317.252L199.537 323.411L199.501 334.049L199.474 342.348L199.455 346.882L199.428 353.429L199.401 364.04L199.374 371.598V376.999L199.329 386.914L199.302 397.742L199.266 405.869V411.251L199.221 420.065L199.203 431.01L199.176 439.887L199.148 445.206L199.13 456.169L199.085 467.123L199.04 477.211V482.457L199.013 490.919L198.968 501.927L198.941 512.583L198.923 518.688L198.887 527.791L198.869 538.781L198.823 549.861V555.18L198.787 565.583L198.742 576.691L198.706 589.108L198.688 595.637L198.652 604.93L198.625 615.911L198.57 632.78L149.246 633.791L149.309 610.556L149.327 604.903Z" fill="#3D79AF"/>
<path d="M199.672 285.266L199.645 286.006L150.194 261.118L150.203 259.023L199.672 285.266Z" fill="#31638F"/>
<path d="M199.618 288.562L199.636 289.402L149.887 264.333L149.896 262.238L199.618 288.562Z" fill="#31638F"/>
<path opacity="0.62" d="M199.609 298.478L199.591 303.409L150.14 284.688L150.176 275.441L199.609 298.478Z" fill="#245D8F"/>
<path opacity="0.62" d="M199.573 312.294L199.564 317.252L150.112 298.523L150.121 289.257L199.573 312.294Z" fill="#245D8F"/>
<path opacity="0.62" d="M199.473 342.348L199.455 346.882L150.031 330.816L150.049 321.912L199.473 342.348Z" fill="#245D8F"/>
<path opacity="0.62" d="M199.537 323.411L199.5 334.049L150.076 315.347V309.938L199.537 323.411Z" fill="#245D8F"/>
<path opacity="0.62" d="M199.428 353.428L199.401 364.039L149.995 345.626L150.004 340.46L199.428 353.428Z" fill="#245D8F"/>
<path opacity="0.62" d="M199.329 386.914L199.302 397.741L149.896 383.329V377.946L199.329 386.914Z" fill="#245D8F"/>
<path opacity="0.62" d="M199.221 420.065L199.203 431.01L149.806 418.584V413.093L199.221 420.065Z" fill="#245D8F"/>
<path opacity="0.62" d="M199.13 456.169L199.085 467.123L149.706 456.738V451.238L199.13 456.169Z" fill="#245D8F"/>
<path opacity="0.62" d="M199.013 490.919L198.968 501.927L149.598 496.436L149.625 490.892L199.013 490.919Z" fill="#245D8F"/>
<path opacity="0.62" d="M198.886 527.79L198.868 538.78L149.507 533.398L149.525 527.763L198.886 527.79Z" fill="#245D8F"/>
<path opacity="0.62" d="M198.652 604.929L198.624 615.911L149.309 610.555L149.327 604.902L198.652 604.929Z" fill="#245D8F"/>
<path opacity="0.62" d="M198.787 565.583L198.742 576.691L149.408 571.3L149.426 565.556L198.787 565.583Z" fill="#245D8F"/>
<path opacity="0.62" d="M199.374 371.598V376.998L149.941 368.004L149.959 358.296L199.374 371.598Z" fill="#245D8F"/>
<path opacity="0.62" d="M199.266 405.869V411.251L149.824 404.316L149.851 394.635L199.266 405.869Z" fill="#245D8F"/>
<path opacity="0.62" d="M199.175 439.887L199.148 445.206L149.76 438.325V428.653L199.175 439.887Z" fill="#245D8F"/>
<path opacity="0.62" d="M199.04 477.21V482.457L149.643 479.748L149.67 470.103L199.04 477.21Z" fill="#245D8F"/>
<path opacity="0.62" d="M198.823 549.861V555.18L149.444 552.462L149.471 542.772L198.823 549.861Z" fill="#245D8F"/>
<path opacity="0.62" d="M198.706 589.108L198.688 595.637L149.354 592.747L149.39 581.576L198.706 589.108Z" fill="#245D8F"/>
<path opacity="0.62" d="M198.941 512.583L198.923 518.688L149.543 515.608L149.589 504.618L198.941 512.583Z" fill="#245D8F"/>
<path opacity="0.62" d="M150.139 284.688L25.8881 304.429L25.7617 298.108L150.176 275.441L150.139 284.688Z" fill="#20517A"/>
<path opacity="0.62" d="M150.112 298.523L26.1591 317.378L25.9785 308.817L150.121 289.257L150.112 298.523Z" fill="#20517A"/>
<path opacity="0.62" d="M150.076 315.347L26.4663 332.559L26.2495 321.804L150.076 309.938V315.347Z" fill="#20517A"/>
<path opacity="0.62" d="M150.031 330.816L26.674 342.583L26.5928 338.528L150.049 321.912L150.031 330.816Z" fill="#20517A"/>
<path opacity="0.62" d="M149.995 345.626L26.9631 356.815L26.7915 348.498L150.004 340.46L149.995 345.626Z" fill="#20517A"/>
<path opacity="0.62" d="M149.941 368.004L27.2971 373.268L27.1797 367.444L149.959 358.296L149.941 368.004Z" fill="#20517A"/>
<path opacity="0.62" d="M149.896 383.329L27.6581 390.779L27.4414 380.33L149.896 377.946V383.329Z" fill="#20517A"/>
<path opacity="0.62" d="M149.824 404.316L28.0014 407.458L27.9111 403.114L149.851 394.635L149.824 404.316Z" fill="#20517A"/>
<path opacity="0.62" d="M149.806 418.584L28.3266 423.695L28.1099 413.039L149.806 413.093V418.584Z" fill="#20517A"/>
<path opacity="0.62" d="M149.761 438.325L28.6789 440.953L28.5796 436.176L149.761 428.653V438.325Z" fill="#20517A"/>
<path opacity="0.62" d="M149.706 456.738L29.1122 461.939L28.8955 451.509L149.706 451.238V456.738Z" fill="#20517A"/>
<path opacity="0.62" d="M149.643 479.748L29.6176 486.593L29.3828 475.142L149.67 470.103L149.643 479.748Z" fill="#20517A"/>
<path opacity="0.62" d="M149.598 496.436L30.0153 506.37L29.7715 494.486L149.625 490.892L149.598 496.436Z" fill="#20517A"/>
<path opacity="0.62" d="M149.544 515.608L30.2861 519.573L30.1777 514.326L149.589 504.618L149.544 515.608Z" fill="#20517A"/>
<path opacity="0.62" d="M149.507 533.399L30.6745 538.429L30.4307 526.526L149.526 527.764L149.507 533.399Z" fill="#20517A"/>
<path opacity="0.62" d="M149.444 552.462L31.0178 555.306L30.9185 550.331L149.472 542.772L149.444 552.462Z" fill="#20517A"/>
<path opacity="0.62" d="M149.408 571.299L31.4782 577.657L31.1982 564.229L149.426 565.556L149.408 571.299Z" fill="#20517A"/>
<path opacity="0.62" d="M149.354 592.747L31.8576 596.467L31.7764 592.295L149.39 581.576L149.354 592.747Z" fill="#20517A"/>
<path opacity="0.62" d="M149.309 610.556L32.255 615.838L31.9751 601.94L149.327 604.902L149.309 610.556Z" fill="#20517A"/>
<path opacity="0.33" d="M199.699 270.122L198.57 632.78L195.193 632.852L197.243 268.821L199.699 270.122Z" fill="#679ED1"/>
<path opacity="0.33" d="M150.248 243.906L155.666 246.778L153.436 633.701L144.387 633.891L142.4 245.622L150.248 243.906Z" fill="#679ED1"/>
<path opacity="0.33" d="M37.8357 633.114L32.607 633.078L25.2109 271.269L30.4216 270.131L37.8357 633.114Z" fill="#679ED1"/>
<path style="mix-blend-mode:screen" opacity="0.35" d="M108.446 253.054L27.1797 360.978L27.568 386.273L150.076 309.938L150.248 243.906L108.446 253.054Z" fill="url(#paint1_linear)"/>
<path style="mix-blend-mode:screen" opacity="0.35" d="M27.7935 397.434L150.004 342.05L149.95 367.299L27.7935 405.508V397.434Z" fill="url(#paint2_linear)"/>
<path style="mix-blend-mode:screen" opacity="0.5" d="M244.428 206.791L304.345 172.673L304.517 193.1L244.708 220.427L244.428 206.791Z" fill="url(#paint3_linear)"/>
<path style="mix-blend-mode:screen" opacity="0.5" d="M244.771 223.759L304.689 197.344L304.815 206.312L244.825 226.26L244.771 223.759Z" fill="url(#paint4_linear)"/>
<path style="mix-blend-mode:screen" d="M729.675 169.232H-353.982V684.507H729.675V169.232Z" fill="url(#paint5_radial)"/>
<path d="M665.531 489.528L664.185 527.628L637.97 525.822L639.116 477.635L613.163 475.639L614.219 522.995L367.008 533.958V494.594L343.267 495.181L342.517 609.382L691.141 610.303L679.194 489.528H665.531Z" fill="#D3AC76"/>
<path d="M355.016 548.642V609.382L615.944 610.303L610.761 537.788L355.016 548.642Z" fill="#DAD1BB"/>
<path d="M367.008 519.437V533.958L614.219 522.995L613.894 506.812L367.008 519.437Z" fill="#B75416"/>
<path d="M365.121 555.018L365.897 609.129L368.001 609.445L369.482 557.962L598.84 550.503L600.728 610.059L602.886 610.068L602.218 547.83L365.121 555.018Z" fill="#D3AC76"/>
<path d="M370.385 493.782H342.517V500.365H370.385V493.782Z" fill="#DAD1BB"/>
<path d="M369.491 512.213H337.74V521.361H369.491V512.213Z" fill="#DAD1BB"/>
<path d="M353.607 529.741H351.042V534.374H353.607V529.741Z" fill="#6B4C4C"/>
<path d="M352.839 538.907H351.042V541.725H352.839V538.907Z" fill="#6B4C4C"/>
<path d="M325.828 586.011C325.569 588.162 325.088 590.28 324.393 592.332C324.393 592.332 324.853 589.758 325.828 586.011Z" fill="#69702A"/>
<path d="M312.337 580.032C311.289 581.522 310.477 582.443 310.477 582.443C310.853 581.478 311.499 580.642 312.337 580.032Z" fill="#69702A"/>
<path d="M302.62 556.192C323.481 560.563 316.274 574.416 312.337 580.033C311.499 580.642 310.853 581.479 310.477 582.444C310.477 582.444 311.289 581.541 312.337 580.033C313.8 578.868 316.365 577.712 320.762 577.712C325.612 577.712 326.244 582.055 325.829 586.011C324.853 589.758 324.393 592.332 324.393 592.332C325.088 590.28 325.569 588.162 325.829 586.011C328.538 575.59 335.175 556.21 346.816 558.82C362.655 562.351 367.342 600.225 367.342 600.225C367.342 600.225 364.154 563.913 386.776 566.252C409.397 568.591 414.852 637.088 414.852 637.088L254.469 652.665L258.081 564.491C258.081 564.491 276.233 550.665 302.62 556.192Z" fill="#69702A"/>
<path d="M401.243 656.503H334.94V576.682L405.198 569.124L401.243 656.503Z" fill="#F0BF7E"/>
<path d="M303.279 656.9L611.483 653.135C611.483 653.135 609.677 615.017 601.956 612.299C594.235 609.58 584.707 624.092 584.707 624.092C584.707 624.092 580.192 573.72 563.386 576.447C546.581 579.174 545.687 607.756 545.687 607.756C545.687 607.756 533.884 592.16 524.808 596.323C515.732 600.487 514.369 624.544 514.369 624.544C514.369 624.544 512.102 619.126 504.39 622.738C496.678 626.35 489.869 637.557 489.869 637.557C489.869 637.557 486.256 621.826 481.245 620.011C476.233 618.195 468.078 628.138 468.078 628.138C468.078 628.138 461.955 592.377 448.111 596.278C434.268 600.179 440.399 621.781 440.399 621.781C440.399 621.781 437.221 614.412 434.078 616.732C430.935 619.053 429.87 630.26 429.87 630.26C429.87 630.26 426.727 620.462 418.789 620.462C410.851 620.462 408.594 630.901 408.594 630.901C408.594 630.901 406.932 610.33 395.129 611.693C383.326 613.057 386.361 640.429 386.361 640.429C386.361 640.429 380.157 633.773 376.978 634.83C373.799 635.886 372.589 646.028 372.589 646.028C372.589 646.028 370.629 628.779 362.303 628.03C353.977 627.28 350.807 633.448 350.807 633.448C350.807 633.448 348.848 621.04 336.738 620.589C324.628 620.137 326.921 631.236 326.921 631.236C326.921 631.236 323.138 618.53 312.852 622.765C302.566 627 297.301 651.103 297.301 651.103L303.279 656.9Z" fill="#574C32"/>
<path d="M202.932 628.924C209.452 628.924 214.085 639.02 214.085 639.02C214.085 639.02 215.954 619.026 226.845 617.346C237.736 615.667 240.698 633.945 240.698 633.945C240.698 633.945 241.935 591.068 260.863 589.262C279.791 587.455 270.137 632.879 270.137 632.879C270.137 632.879 277.307 614.818 281.516 615.197C285.724 615.577 284.478 625.474 284.478 625.474C284.478 625.474 296.85 587.356 310.459 589.262C324.068 591.167 317.629 638.361 317.629 638.361C317.629 638.361 326.289 619.27 332.222 621.374C338.155 623.478 342.156 639.643 342.156 639.643C342.156 639.643 346.111 616.055 375.569 615.197C403.645 614.375 389.422 646.262 388.049 649.215L387.941 649.45L388.049 649.215C388.79 647.653 393.585 638.189 401.297 636.735C409.704 635.155 404.006 648.917 404.006 648.917C404.006 648.917 415.628 634.947 425.354 638.361C435.08 641.774 440.869 657.885 440.869 657.885L191.219 656.521C191.219 656.521 196.412 628.924 202.932 628.924Z" fill="#97A13D"/>
<path d="M116.121 627.289C123.409 628.138 125.729 633.448 125.729 633.448C125.729 633.448 134.57 615.811 141.695 614.737C148.821 613.662 151.792 632.924 151.792 632.924C151.792 632.924 155.593 621.744 160.298 620.652C165.003 619.559 165.988 634.857 165.988 634.857C165.988 634.857 170.936 619.767 180.834 620.697C190.731 621.627 188.907 654.426 188.907 654.426L91.5308 657.867C91.5308 657.867 108.842 626.449 116.121 627.289Z" fill="#97A13D"/>
<path d="M259.02 645.531C261.533 645.522 264.019 646.042 266.318 647.058C268.616 648.074 270.674 649.563 272.358 651.428C272.358 651.428 282.292 640.546 292.921 641.783C303.55 643.02 311.217 660.829 311.217 660.829L241.935 656.521C241.935 656.521 250.342 645.495 259.02 645.531Z" fill="#71782D"/>
<path d="M336.927 645.946C344.838 643.761 351.764 651.229 351.764 651.229C351.764 651.229 350.301 634.523 363.405 633.945C376.508 633.367 385.981 654.327 385.981 654.327L329.992 656.503C329.992 656.503 329.007 648.132 336.927 645.946Z" fill="#71782D"/>
<path d="M169.699 653.442C169.699 653.442 178.603 642.687 191.219 642.605C203.835 642.524 206.968 660.088 206.968 660.088L126.804 661.371C126.804 661.371 154.528 645.016 159.802 645.242C165.076 645.468 169.699 653.442 169.699 653.442Z" fill="#71782D"/>
<path d="M-31.5913 551.947L23.9917 562.026L25.6353 541.842L-34.0566 531.927L-31.5913 551.947Z" fill="#94C6EB"/>
<path d="M123.905 520.53L121.25 567.39L124.041 565.855C123.138 564.112 126.696 520.53 126.696 520.53H123.905Z" fill="#B0DDFF"/>
<path d="M117.286 521.451L114.631 568.311L117.421 566.776C116.518 565.033 120.067 521.451 120.067 521.451H117.286Z" fill="#B0DDFF"/>
<path d="M110.667 522.373L108.003 569.232L110.793 567.697C109.944 565.954 113.448 522.373 113.448 522.373H110.667Z" fill="#B0DDFF"/>
<path d="M104.038 523.293L101.383 570.144L104.174 568.618C103.325 566.875 106.829 523.293 106.829 523.293H104.038Z" fill="#B0DDFF"/>
<path d="M42.4502 554.178L79.8818 561.249L77.4255 541.996L42.4502 554.178Z" fill="#B0DDFF"/>
<path d="M78.9785 558.774L128.177 566.36V553.681L77.4253 541.996L78.9785 558.774Z" fill="#94C6EB"/>
<path d="M-18.0366 660.621H143.375V562.748L-18.0366 539.124V660.621Z" fill="#625C6E"/>
<path d="M-11.6699 570.279L139.122 580.159V575.571L-11.6699 560.743V570.279Z" fill="#534E5E"/>
<path d="M-11.6699 587.212L139.122 592.865V584.042L-11.6699 575.219V587.212Z" fill="#534E5E"/>
<path d="M-11.6699 601.688L139.122 606.627V598.157L-11.6699 592.865V601.688Z" fill="#534E5E"/>
<path d="M-11.6699 617.563L139.122 618.62V611.54L-11.6699 606.627V617.563Z" fill="#534E5E"/>
<path d="M-11.6699 631.678H139.122V625.682L-11.6699 622.151V631.678Z" fill="#534E5E"/>
<path d="M-11.6699 648.971H139.122V640.853L-11.6699 637.331V648.971Z" fill="#534E5E"/>
<path d="M197.225 587.058C183.336 581.505 176.111 589.623 176.111 589.623C176.111 589.623 183.092 577.468 172.553 567.272C165.934 560.861 156.172 566.902 156.172 566.902C156.172 566.902 154.79 533.706 119.101 542.736C86.8172 550.918 96.3174 604.045 96.3174 604.045L88.7407 634.071L212.947 628.084C212.947 628.084 211.15 592.621 197.225 587.058Z" fill="#7B6127"/>
<path d="M16.4782 616.985C16.4782 616.985 10.3826 596.983 -1.19456 598.12C-12.7717 599.258 -5.29444 611.368 -5.29444 611.368C-5.29444 611.368 -11.1192 606.194 -15.7157 610.908C-20.3123 615.622 -19.6801 622.891 -19.5537 622.422C-19.4273 621.952 -25.6312 607.973 -36.5492 610.908C-47.4671 613.843 -43.2408 632.527 -43.2408 632.527C-44.8787 630.099 -47.095 628.117 -49.6899 626.76C-52.2849 625.403 -55.1768 624.712 -58.1051 624.752C-68.4541 624.679 -69.2669 643.662 -69.2669 643.662C-69.2669 643.662 -73.9808 639.39 -83.4358 641.205C-92.8908 643.02 -99.2031 651.608 -99.2031 651.608L33.546 652.791L16.4782 616.985Z" fill="#574C32"/>
<path d="M80.7575 617.302C80.7575 617.302 80.1253 601.95 73.9304 602.32C67.7354 602.69 66.7059 612.253 66.7059 612.253C66.7059 612.253 62.3984 586.823 47.0645 590.887C31.7306 594.951 38.6119 614.592 38.6119 614.592C38.6119 614.592 35.3338 608.759 29.9967 611.278C24.6597 613.798 26.809 623.542 26.809 623.542C26.809 623.542 24.5062 600.965 5.72263 607.567C-13.0609 614.168 -0.526527 637.16 -0.526527 637.16C-0.526527 637.16 -8.33795 631.263 -14.9122 633.015C-21.4864 634.767 -18.5244 643.571 -18.5244 643.571C-18.5244 643.571 -24.5026 635.778 -31.1672 638.433C-37.8317 641.088 -41.0015 654.363 -41.0015 654.363L75.1495 653.668L80.7575 617.302Z" fill="#889125"/>
<path d="M66.3809 603.819L101.997 629.899L350.383 629.384L347.646 603.819H66.3809Z" fill="#DD6843"/>
<path d="M101.998 629.899V653.767H349.389L350.383 629.384L101.998 629.899Z" fill="#F0BF7E"/>
<path d="M46.8206 626.675L22.0859 626.747V651.464L101.997 653.767V629.899L66.3808 603.819L46.8206 626.675Z" fill="#FEF3DA"/>
<path d="M22.0861 626.747L101.997 629.899L20.9482 624.761L22.0861 626.747Z" fill="#9E7171"/>
<path d="M67.4106 619.054C61.929 619.279 58.8857 627.326 58.8857 627.326L75.6013 628.229C75.6013 628.229 72.8831 618.819 67.4106 619.054Z" fill="#9E7171"/>
<path d="M26.4842 651.59L31.6226 651.744L32.9862 637.259H25.7979L26.4842 651.59Z" fill="#9E7171"/>
<path d="M46.8208 654.724L52.5101 656.088L53.7111 638.117L46.8208 637.259V654.724Z" fill="#9E7171"/>
<path d="M62.0464 656.774H68.6026L69.8036 639.201L62.0464 640.167V656.774Z" fill="#9E7171"/>
<path d="M82.1304 656.088L87.7835 656.774L91.8924 639.201H83.0334L82.1304 656.088Z" fill="#9E7171"/>
<path d="M106.468 656.088L116.645 656.774V638.117L106.468 637.259V656.088Z" fill="#8F6666"/>
<path d="M123.228 656.088L133.405 656.774V638.117L123.228 637.259V656.088Z" fill="#8F6666"/>
<path d="M139.989 656.088L150.166 656.774V638.117L139.989 637.259V656.088Z" fill="#8F6666"/>
<path d="M156.75 656.088L166.927 656.774V638.117L156.75 637.259V656.088Z" fill="#8F6666"/>
<path d="M173.51 656.088L183.688 656.774V638.117L173.51 637.259V656.088Z" fill="#8F6666"/>
<path d="M190.271 656.088L200.458 656.774V638.117L190.271 637.259V656.088Z" fill="#8F6666"/>
<path d="M207.032 656.088L217.218 656.774V638.117L207.032 637.259V656.088Z" fill="#8F6666"/>
<path d="M223.792 656.088L233.979 656.774V638.117L223.792 637.259V656.088Z" fill="#8F6666"/>
<path d="M240.553 656.088L250.74 656.774V638.117L240.553 637.259V656.088Z" fill="#8F6666"/>
<path d="M257.314 656.088L267.5 656.774V638.117L257.314 637.259V656.088Z" fill="#8F6666"/>
<path d="M274.083 656.088L284.261 656.774V638.117L274.083 637.259V656.088Z" fill="#8F6666"/>
<path d="M290.844 656.088L301.022 656.774V638.117L290.844 637.259V656.088Z" fill="#8F6666"/>
<path d="M307.605 656.088L317.782 656.774V638.117L307.605 637.259V656.088Z" fill="#8F6666"/>
<path d="M324.366 656.088L334.543 656.774V638.117L324.366 637.259V656.088Z" fill="#8F6666"/>
<path d="M22.0859 629.899L101.997 633.43L332.358 633.322L102.106 632.292L22.0859 629.899Z" fill="#8F6666"/>
<path d="M43.6602 626.585L46.8209 626.675L66.381 603.819L64.2137 603.178L43.6602 626.585Z" fill="#8F6666"/>
<path d="M537.153 367.67L516.753 372.853L-14.623 507.923L-13.2595 491.072C-13.2595 491.072 43.922 470.13 91.224 454.751C138.526 439.372 402.444 359.235 454.794 345.87L507.171 332.469C507.171 332.469 524.79 334.952 528.754 339.693C532.719 344.434 537.153 367.67 537.153 367.67Z" fill="#00C4D8"/>
<path d="M-14.063 500.943C-14.063 500.943 115.543 462.816 190.226 443.527C264.909 424.237 488.776 367.3 488.776 367.3V364.943C488.776 364.943 206.481 437.693 188.51 442.813C170.539 447.934 -13.9185 499.2 -13.9185 499.2L-14.063 500.943Z" fill="#00A2D8"/>
<path d="M-14.1537 502.099C-14.1537 502.099 106.485 467.783 161.211 453.261C215.936 438.74 492.812 369.35 492.812 369.35L512.68 374.768L184.807 454.752L-14.5239 506.722L-14.1537 502.099Z" fill="#00A2D8"/>
<path d="M284.008 395.665L283.141 432.229L276.775 433.855L278.753 397.245L284.008 395.665Z" fill="#003A40"/>
<path d="M137.885 440.113V469.156L130.949 470.916L134.417 441.188L137.885 440.113Z" fill="#003A40"/>
<path d="M35.0628 473.815L34.3855 495.461L29.5723 496.689L32.3085 474.772L35.0628 473.815Z" fill="#003A40"/>
<path d="M3.02277 500.058V486.358L-8.88849 491.09L-10.0083 505.232L-7.95835 492.084L2.6435 487.37L3.02277 500.058Z" fill="#003A40"/>
<path d="M6.6167 500.148L6.86051 485.248L19.6388 480.552L19.8916 491.524L19.1421 481.048L7.67329 485.636L6.6167 500.148Z" fill="#003A40"/>
<path d="M47.4258 490.35V470.917L63.9246 465.291L48.5456 471.621L47.4258 490.35Z" fill="#003A40"/>
<path d="M69.939 485.248L70.8691 462.563L87.8646 456.856L71.9889 463.304L69.939 485.248Z" fill="#003A40"/>
<path d="M123.96 470.916L124.71 445.197L131.717 443.518L125.703 446.191L123.96 470.916Z" fill="#003A40"/>
<path d="M155.034 463.99V436.826L177.917 429.629L155.837 437.756L155.034 463.99Z" fill="#003A40"/>
<path d="M136.928 441.658L149.76 437.756L137.172 443.518L136.928 441.658Z" fill="#003A40"/>
<path d="M188.51 456.287V427.335L218.356 417.663L189.702 427.958L188.51 456.287Z" fill="#003A40"/>
<path d="M223.693 446.805L225.436 416.047L251.354 408.235L227.667 417.663L223.693 446.805Z" fill="#003A40"/>
<path d="M264.502 436.97V404.018L276.775 401.282L265.496 405.996L264.502 436.97Z" fill="#003A40"/>
<path d="M311.019 425.149L310.025 391.61L347.61 381.441L311.895 392.603L311.019 425.149Z" fill="#003A40"/>
<path d="M363.631 411.775V378.461L402.814 366.92L361.635 377.098L363.631 411.775Z" fill="#003A40"/>
<path d="M9.96729 485.961V490.612L12.3333 490.35L12.0082 484.706L9.96729 485.961Z" fill="#0081A3"/>
<path d="M13.7778 484.706V489.546L16.478 489.032L16.0625 483.631L13.7778 484.706Z" fill="#0081A3"/>
<path d="M21.0654 481.852V487.37L29.5722 484.706L30.0599 478.375L21.0654 481.852Z" fill="#0081A3"/>
<path d="M38.3049 476.109L38.1875 482.159L44.0754 480.552L44.1928 473.996L38.3049 476.109Z" fill="#0081A3"/>
<path d="M51.2729 472.551V478.078L61.0079 474.971V468.271L51.2729 472.551Z" fill="#0081A3"/>
<path d="M64.2949 467.647V473.996L68.4489 472.732V466.537L64.2949 467.647Z" fill="#0081A3"/>
<path d="M75.0233 464.116L74.7163 470.004L86.6276 466.536V459.772L75.0233 464.116Z" fill="#0081A3"/>
<path d="M90.9082 458.346V465.29L96.4259 463.493V456.856L90.9082 458.346Z" fill="#0081A3"/>
<path d="M99.9927 455.411L100.516 462.319L111.805 458.906L111.534 451.627L99.9927 455.411Z" fill="#0081A3"/>
<path d="M115.462 450.408L122.722 448.241V455.122L115.715 457.217L115.462 450.408Z" fill="#0081A3"/>
<path d="M126.633 447.744L131.22 446.254L130.949 452.142L126.633 453.262V447.744Z" fill="#0081A3"/>
<path d="M139.402 444.583L152.18 440.637V447.798L139.899 451.627L139.402 444.583Z" fill="#0081A3"/>
<path d="M156.777 439.246L165.211 436.573L164.715 444.583L156.777 446.561V439.246Z" fill="#0081A3"/>
<path d="M167.442 435.77L184.808 430.929L184.185 440.113L166.819 443.987L167.442 435.77Z" fill="#0081A3"/>
<path d="M191.815 429.629L207.384 424.518V432.112L191.815 436.266V429.629Z" fill="#0081A3"/>
<path d="M210.174 423.118L221.056 420.183L220.496 428.509L210.174 431.209V423.118Z" fill="#0081A3"/>
<path d="M231.107 419.126L238.359 416.606L237.528 424.048L229.617 426.368L231.107 419.126Z" fill="#0081A3"/>
<path d="M240.688 415.857L239.849 423.307L250.64 420.887L251.354 412.516L240.688 415.857Z" fill="#0081A3"/>
<path d="M255.39 411.486L262.271 409.437L261.811 417.663L255.39 418.747V411.486Z" fill="#0081A3"/>
<path d="M267.482 408.976L274.924 406.926L274.273 415.306L267.482 416.607V408.976Z" fill="#0081A3"/>
<path d="M296.696 400.785L308.418 397.625L307.858 405.255L297.157 408.235L296.696 400.785Z" fill="#0081A3"/>
<path d="M317.069 395.665L338.562 390.183V397.164L317.439 402.925L317.069 395.665Z" fill="#0081A3"/>
<path d="M343.086 388.486L358.438 384.675V392.486L343.086 395.692V388.486Z" fill="#0081A3"/>
<path d="M366.349 381.442L380.238 377.622V386.273L367.216 388.883L366.349 381.442Z" fill="#0081A3"/>
<path style="mix-blend-mode:screen" opacity="0.5" d="M18.1038 498.206L28.6425 476.063L21.0658 478.746L13.2544 499.48L18.1038 498.206Z" fill="url(#paint6_linear)"/>
<path style="mix-blend-mode:screen" opacity="0.5" d="M16.5958 480.335L10.7078 500.618L7.62842 500.943L11.4574 482.16L16.5958 480.335Z" fill="url(#paint7_linear)"/>
<path style="mix-blend-mode:screen" opacity="0.5" d="M61.0077 464.839L47.4258 492.147L62.5158 488.309L80.6672 458.21L61.0077 464.839Z" fill="url(#paint8_linear)"/>
<path style="mix-blend-mode:screen" opacity="0.5" d="M71.7363 485.248L84.4152 456.973L97.4915 452.729L86.1852 482.295L71.7363 485.248Z" fill="url(#paint9_linear)"/>
<path style="mix-blend-mode:screen" opacity="0.5" d="M117.097 446.561L109.231 473.996L113.168 473.174L119.634 445.775L117.097 446.561Z" fill="url(#paint10_linear)"/>
<path style="mix-blend-mode:screen" opacity="0.5" d="M170.693 430.035L164.119 462.319L184.808 456.856L192.709 423.307L170.693 430.035Z" fill="url(#paint11_linear)"/>
<path style="mix-blend-mode:screen" opacity="0.5" d="M166.475 431.326L158.817 463.99L155.034 466.193L160.985 433.006L166.475 431.326Z" fill="url(#paint12_linear)"/>
<path style="mix-blend-mode:screen" opacity="0.5" d="M226.764 412.949L212.965 451.627L219.864 449.757L251.354 405.508L226.764 412.949Z" fill="url(#paint13_linear)"/>
<path style="mix-blend-mode:screen" opacity="0.5" d="M256.565 403.296L237.149 445.775L251.354 441.567L267.482 400.641L256.565 403.296Z" fill="url(#paint14_linear)"/>
<path style="mix-blend-mode:screen" opacity="0.5" d="M308.418 388.341L296.461 427.524L312.337 424.815L331.536 381.441L308.418 388.341Z" fill="url(#paint15_linear)"/>
<path style="mix-blend-mode:screen" opacity="0.5" d="M338.562 379.347L324.926 421.61L349.742 420.183L359.107 373.251L338.562 379.347Z" fill="url(#paint16_linear)"/>
<path style="mix-blend-mode:overlay" opacity="0.32" d="M729.675 0H-353.982V812H729.675V0Z" fill="url(#paint17_radial)"/>
<path d="M26.3759 650.488L25.3916 525.894L36.6978 521.595L37.4293 650.488H26.3759Z" fill="#DFD1BC"/>
<path d="M36.6978 521.595L44.6627 525.542L46.1889 650.488H37.4292L36.6978 521.595Z" fill="#80554D"/>
<path d="M36.77 535.295L45.1323 564.238L46.1889 650.489H37.4292L36.77 535.295Z" fill="#9C7A67"/>
<path d="M413.362 472.117L432.714 477.535C432.714 477.535 495.233 457.749 562.212 443.951C629.192 430.152 729.684 411.576 729.684 411.576V386.291L389.169 455.862L68.5845 504.013L3.03174 535.909L79.9359 537.715C79.9359 537.715 115.652 504.202 244.743 491.081C373.835 477.96 394.47 477.535 394.47 477.535L413.362 472.117Z" fill="#1A202F"/>
<path d="M729.684 347.577V396.197C729.684 396.197 617.787 415.053 520.546 439.363C423.305 463.673 413.371 472.108 413.371 472.108L386.921 478.068C386.921 478.068 285.851 475.801 201.993 491.072C118.135 506.343 28.0827 540.397 28.0827 540.397L-64.7333 535.638L-82.7944 534.735C-82.7944 534.735 122.515 475.774 268.006 444.014C413.498 412.253 729.684 347.577 729.684 347.577Z" fill="#9C7A67"/>
<path d="M-35.5015 529.271L378.134 430.54L729.675 356.508V378.831L191.355 486.358L-18.5602 532.667L-35.5015 529.271Z" fill="#80554D"/>
<path d="M-82.8215 534.708L729.675 352.038V314.326L-107.628 528.341L-82.8215 534.708Z" fill="#DFD1BC"/>
<path d="M729.684 347.577V362.459L-64.7421 535.638L-75.4433 537.968L-82.8213 534.708C-82.8213 534.708 122.488 475.747 267.979 443.987C413.471 412.226 729.684 347.577 729.684 347.577Z" fill="#1A202F"/>
<path d="M170.693 457.198L171.425 466.653L190.226 480.055L191.193 479.847L172.12 466.373L171.497 456.991L170.693 457.198Z" fill="#875F58"/>
<path d="M190.226 480.055L192.529 492.869L193.82 492.616L191.192 479.847L190.226 480.055Z" fill="#1A202F"/>
<path d="M193.82 492.616L211.692 495.145L209.533 495.461L192.529 492.869L193.82 492.616Z" fill="#875F58"/>
<path opacity="0.4" d="M-11.9409 548.055L99.2883 656.088L135.338 650.489L131.717 561.466L-11.9409 548.055Z" fill="#231F20"/>
<path opacity="0.4" d="M134.887 564.897L286.934 650.489L294.709 573.909L134.887 564.897Z" fill="#231F20"/>
<g style="mix-blend-mode:multiply" opacity="0.4">
<path d="M297.301 579.102L319.173 633.394L376.626 632.852L400.927 543.955L437.636 626.485L563.766 603.62L593.269 570.794L592.835 494.711L648.789 567.389L729.684 497.403V665.226L298.222 660.828L294.339 624.399L297.301 579.102Z" fill="#231F20"/>
</g>
<path d="M-353.982 481.048V483.026L405.921 554.042V553.735L-353.982 481.048Z" fill="#FFE6B1"/>
<path d="M-353.982 488.011V489.998L405.921 556.544V556.237L-353.982 488.011Z" fill="#FFE6B1"/>
<path d="M8.26059 516.15H6.9873V532.992H8.26059V516.15Z" fill="#FFE6B1"/>
<path d="M28.0735 518.155H26.2402V534.997H28.0735V518.155Z" fill="#FFE6B1"/>
<path d="M49.0607 519.916H48.0493V536.758H49.0607V519.916Z" fill="#FFE6B1"/>
<path d="M69.9393 521.821H68.5757V538.663H69.9393V521.821Z" fill="#FFE6B1"/>
<path d="M91.2063 524.242H90.3032V541.084H91.2063V524.242Z" fill="#FFE6B1"/>
<path d="M105.917 525.488H105.014V542.33H105.917V525.488Z" fill="#FFE6B1"/>
<path d="M120.628 526.725H119.725V543.567H120.628V526.725Z" fill="#FFE6B1"/>
<path d="M135.339 528.278H134.436V545.12H135.339V528.278Z" fill="#FFE6B1"/>
<path d="M148.279 529.552H147.53V546.394H148.279V529.552Z" fill="#FFE6B1"/>
<path d="M161.211 530.816H160.461V547.658H161.211V530.816Z" fill="#FFE6B1"/>
<path d="M174.152 532.089H173.402V548.931H174.152V532.089Z" fill="#FFE6B1"/>
<path d="M187.092 533.362H186.343V550.204H187.092V533.362Z" fill="#FFE6B1"/>
<path d="M200.024 534.636H199.275V551.478H200.024V534.636Z" fill="#FFE6B1"/>
<path d="M212.965 535.909H212.215V552.751H212.965V535.909Z" fill="#FFE6B1"/>
<path d="M225.436 536.803H224.687V553.645H225.436V536.803Z" fill="#FFE6B1"/>
<path d="M237.898 537.706H237.149V554.548H237.898V537.706Z" fill="#FFE6B1"/>
<path d="M250.37 539.35H249.62V556.192H250.37V539.35Z" fill="#FFE6B1"/>
<path d="M262.841 540.397H262.091V557.239H262.841V540.397Z" fill="#FFE6B1"/>
<path d="M275.303 541.662H274.553V558.504H275.303V541.662Z" fill="#FFE6B1"/>
<path d="M287.774 542.718H287.024V559.56H287.774V542.718Z" fill="#FFE6B1"/>
<path d="M300.372 543.847H299.622V560.689H300.372V543.847Z" fill="#FFE6B1"/>
<path d="M312.716 545.03H311.967V561.872H312.716V545.03Z" fill="#FFE6B1"/>
<path d="M325.305 546.42H324.556V563.262H325.305V546.42Z" fill="#FFE6B1"/>
<path d="M337.767 547.314H337.018V564.156H337.767V547.314Z" fill="#FFE6B1"/>
<path d="M350.121 548.723H349.372V565.565H350.121V548.723Z" fill="#FFE6B1"/>
<path d="M362.583 549.717H361.833V566.559H362.583V549.717Z" fill="#FFE6B1"/>
<path d="M374.829 550.854H374.079V567.696H374.829V550.854Z" fill="#FFE6B1"/>
<path d="M-353.982 497.917V509.079L405.921 564.897V558.946L-353.982 497.917Z" fill="url(#paint18_radial)"/>
<path d="M-353.982 509.079V517.27L405.921 566.143V564.897L-353.982 509.079Z" fill="#11123A"/>
<path d="M-353.982 517.27V542.321L405.921 578.542V566.143L-353.982 517.27Z" fill="url(#paint19_radial)"/>
<path d="M-353.982 542.321V555.469L405.921 587.23V578.542L-353.982 542.321Z" fill="#00152D"/>
<path d="M146.41 571.354H123.093V650.498H146.41V571.354Z" fill="#00152D"/>
<path d="M135.338 571.354L146.419 572.095V650.489H135.338V571.354Z" fill="#004869"/>
<path d="M301.744 580.339H286.934V650.489H301.744V580.339Z" fill="#00152D"/>
<path d="M294.709 580.339L301.744 581.008V650.489H294.709V580.339Z" fill="#004869"/>
<path d="M383.661 580.339H368.851V650.489H383.661V580.339Z" fill="#00152D"/>
<path d="M367.92 594.328L355.124 608.045L356.813 593.994L359.775 587.203L358.194 587.094L355.115 593.939L352.893 607.223L333.812 587.203H333.803L330.489 585.469L329.838 586.76L330.2 586.968H330.209L351.313 609.02L354.925 626.476L352.812 651.301L358.321 651.157L358.718 625.411L354.257 612.353L371.099 594.409L374.576 592.829L372.77 592.54L367.92 594.328Z" fill="#591D25"/>
<path d="M405.74 568.663C404.774 564.355 403.699 559.849 402.534 555.388C402.417 554.954 402.3 554.485 402.191 554.097C398.353 539.783 393.522 526.328 388.248 522.327C387.855 522.02 387.428 521.759 386.975 521.55C386.522 521.333 386.037 521.193 385.539 521.135L384.518 521.045H383.796C380.307 520.874 376.879 522.007 374.178 524.223C374.034 524.337 373.895 524.457 373.763 524.585C371.35 526.849 369.631 529.752 368.805 532.956C368.157 528.265 367.102 523.639 365.654 519.13C365.437 518.489 365.229 517.839 364.985 517.198C363.179 512.303 360.669 507.562 357.192 505.133C356.728 504.811 356.239 504.527 355.729 504.284C354.408 503.652 352.946 503.372 351.485 503.471C350.457 503.565 349.462 503.88 348.568 504.396C347.675 504.912 346.904 505.617 346.31 506.46C346.093 506.732 345.891 507.016 345.705 507.309C338.851 517.667 340.811 545.346 340.811 545.346C340.811 545.346 340.72 545.21 340.54 544.976C338.729 542.603 336.298 540.777 333.514 539.702C333.251 539.603 332.982 539.518 332.71 539.449C329.795 538.674 326.694 539.043 324.041 540.478L323.698 540.65C322.368 541.367 321.12 542.227 319.977 543.215C319.769 543.395 319.553 543.576 319.336 543.775C319.119 543.973 318.929 544.145 318.731 544.344C318.532 544.542 318.469 544.587 318.333 544.732C318.198 544.876 317.936 545.129 317.728 545.346C315.025 548.226 312.75 551.48 310.974 555.009C310.829 555.27 310.703 555.532 310.576 555.803C309 559.033 307.698 562.389 306.684 565.836C306.54 566.315 306.404 566.784 306.269 567.263C304.638 573.112 303.639 579.118 303.289 585.18L313.222 585.839L314.577 585.929L321.169 586.354L322.072 586.426L327.391 586.769L328.854 586.877L330.191 586.968L333.803 587.202L344.847 587.934L345.994 588.006H346.373L347.322 588.069L352.343 588.404L351.439 593.822L355.052 593.921L356.749 593.975H358.185L359.603 594.021L366.602 594.219H367.857H367.947L371.027 594.3L374.097 594.391H374.829L377.863 594.472H379.028L383.688 594.608H384.907L394.913 594.897H395.527L397.432 594.951L401.433 595.068H402.589L410.87 595.312C410.87 595.312 409.063 583.672 405.93 569.602C405.921 569.466 405.831 569.06 405.74 568.663Z" fill="#7A6127"/>
<path d="M349.498 578.1C349.895 575.707 350.907 567.263 351.033 565.9C351.096 565.884 351.153 565.85 351.196 565.8C364.763 552.379 377.17 537.833 388.284 522.318C387.889 522.017 387.462 521.759 387.011 521.55C375.524 536.415 363.838 550.864 351.105 564.78C351.665 558.657 352.053 552.534 352.595 546.556C352.758 544.75 352.496 535.548 354.573 534.907C356.18 534.419 357.282 532.351 358.131 531.069C360.614 527.158 363.233 523.176 365.653 519.112C365.446 518.471 365.229 517.821 364.985 517.18C364.028 518.778 363.089 520.395 362.123 521.975C359.793 525.813 357.381 532.459 353.092 534.365C353.018 534.405 352.957 534.466 352.915 534.539C352.874 534.612 352.854 534.696 352.857 534.78C352.36 541.689 351.81 548.642 351.141 555.605C351.064 555.591 350.984 555.591 350.907 555.605C342.644 556.417 335.275 552.805 328.195 548.994C325.185 547.363 322.235 545.626 319.345 543.784C319.146 543.964 318.938 544.154 318.74 544.353C318.541 544.551 318.478 544.596 318.342 544.741C321.747 546.999 325.26 549.085 328.854 551.062C335.69 554.765 342.987 557.817 350.907 556.905H351.015C350.569 561.318 350.052 565.725 349.462 570.126C343.041 570.659 336.25 569.855 329.757 569.223C326.669 566.514 323.436 564.03 320.139 561.592C318.071 560.039 315.958 558.54 313.818 557.077C312.978 556.463 312.12 555.885 311.244 555.334L310.955 555.153C310.82 555.415 310.685 555.677 310.558 555.948C312.427 557.032 314.297 558.133 316.13 559.262C320.773 562.242 325.189 565.562 329.342 569.196C328.177 569.069 327.012 568.961 325.883 568.862C319.381 568.256 313.032 567.128 306.657 565.963L306.25 567.39C312.208 568.636 318.242 569.49 324.312 569.945C326.506 570.162 328.709 570.333 330.913 570.487C330.932 570.502 330.956 570.511 330.981 570.511C331.005 570.511 331.029 570.502 331.048 570.487C333.649 570.656 336.244 570.809 338.833 570.948C342.237 571.146 345.886 571.67 349.317 571.209C349.055 573.115 347.511 582.335 346.4 588.16L347.349 588.223C348.152 585.243 348.802 582.218 349.326 579.147C368.751 576.673 387.823 568.555 402.552 555.514C402.435 555.081 402.318 554.611 402.209 554.223C386.866 566.568 369.193 574.975 349.498 578.1Z" fill="#574C32"/>
<path d="M-353.982 650.489V671.521V812H729.675V650.489H-353.982Z" fill="#979EB3"/>
<path d="M-353.982 650.489V671.521V685.527L-187.368 690.025L301.744 650.489H-353.982Z" fill="#848AA1"/>
<path d="M574.612 650.489L210.175 722.932L729.675 690.684V650.489H574.612Z" fill="#848AA1"/>
<path opacity="0.3" d="M-353.982 650.489V653.026V655.04L729.675 666.951V650.489H-353.982Z" fill="#4B4E5C"/>
<path d="M-353.982 672.821L729.675 682.249V684.507L-353.982 673.309V672.821Z" fill="#FEEDC5"/>
<path d="M-353.982 665.371L729.675 668.839V671.105L-353.982 665.859V665.371Z" fill="#FEEDC5"/>
<path d="M-353.982 650.001L729.675 650.335V652.602L-353.982 650.489V650.001Z" fill="#FEEDC5"/>
<path d="M729.675 701.845L77.4436 680.262H-353.982V812H729.675V701.845Z" fill="#EA98A6"/>
<path d="M77.4437 680.262L46.3876 699.985L-107.628 812H-58.5112L88.1359 680.614L77.4437 680.262Z" fill="#FCAEBA"/>
<path d="M-107.629 812C-105.398 812 6.66208 729.984 6.66208 729.984L-353.982 732.377V811.982L-107.629 812Z" fill="#7B6127"/>
<path d="M6.66208 729.984L77.4435 680.262H-353.982V732.396L6.66208 729.984Z" fill="#E7BEBA"/>
<path opacity="0.21" d="M50.1531 686.033L41.4838 812H-234.779L-56.3803 712.881L50.1531 686.033Z" fill="#231F20"/>
<path d="M-49.5801 712.881H3.02286V703.832L-48.3339 704.573L-49.5801 712.881Z" fill="#A38380"/>
<path d="M-48.334 704.573L3.02274 703.832L50.1532 680.262H-41.0192L-48.334 704.573Z" fill="#FAF4F1"/>
<g style="mix-blend-mode:screen" opacity="0.15">
<path d="M375.307 690.024L503.46 779.255L108.229 704.573L108.446 681.283L11.8276 678.149L202.11 660.829L410.192 664.134L375.307 690.024Z" fill="#FBD5A2"/>
</g>
<path d="M47.426 680.262L0.918701 701.448L-353.982 697.158V662.644C-353.982 662.644 -349.142 665.253 -342.82 669.218C-338.871 671.789 -335.56 675.226 -333.139 679.269C-333.139 679.269 -333.266 672.324 -326.195 672.568C-319.124 672.812 -316.893 675.675 -316.893 675.675C-316.893 675.675 -311.177 660.323 -296.295 659.961C-281.412 659.6 -276.581 673.065 -276.581 673.065C-276.581 673.065 -275.335 667.358 -269.998 668.107C-266.998 668.417 -264.238 669.884 -262.304 672.198C-262.304 672.198 -258.087 660.413 -251.016 662.029C-243.945 663.646 -240.098 672.695 -240.098 672.695C-240.098 672.695 -240.197 668.261 -235.682 668.477C-231.166 668.694 -229.107 673.561 -229.107 673.561C-229.107 673.561 -223.274 660.919 -214.469 662.4C-205.664 663.881 -201.068 671.205 -201.068 671.205C-201.068 671.205 -199.207 659.672 -187.802 659.672C-176.396 659.672 -168.946 674.311 -168.946 674.311C-168.946 674.311 -154.94 663.89 -147.489 667.087C-140.039 670.283 -136.942 672.92 -136.942 672.92C-136.942 672.92 -132.426 667.71 -125.78 668.577C-119.133 669.444 -110.645 681.472 -110.645 681.472C-110.645 681.472 -98.1103 657.162 -76.8976 657.993C-55.6848 658.824 -52.4609 675.611 -52.4609 675.611C-52.4609 675.611 -47.2593 669.651 -42.5273 669.407C-37.7953 669.164 -34.463 675.485 -34.463 675.485C-34.463 675.485 -25.5318 649.685 -11.5164 653.035C2.49905 656.385 3.0228 670.97 3.0228 670.97C3.0228 670.97 4.26001 667.619 8.97394 668.486C13.6879 669.353 16.4151 678.194 16.4151 678.194C17.1832 677.333 18.1176 676.636 19.1621 676.146C20.2066 675.656 21.3395 675.382 22.4927 675.341C26.2133 675.341 28.0735 678.953 28.0735 678.953C28.0735 678.953 29.69 669.272 35.6412 669.155C41.5923 669.037 47.426 680.262 47.426 680.262Z" fill="#706140"/>
<path d="M-353.982 669.597C-350.664 670.599 -347.462 671.949 -344.428 673.625C-340.526 675.982 -337.357 682.926 -337.357 682.926C-337.357 682.926 -335.018 680.452 -332.399 681.626C-330.931 682.246 -329.654 683.243 -328.696 684.516C-328.17 682.851 -327.129 681.396 -325.724 680.359C-324.319 679.322 -322.622 678.757 -320.876 678.745C-319.065 678.731 -317.282 679.186 -315.699 680.066C-314.117 680.946 -312.789 682.221 -311.845 683.766C-311.845 683.766 -311.285 671.611 -301.858 671.051C-292.43 670.491 -290.94 677.038 -290.94 677.038C-290.94 677.038 -288.303 674.158 -285.729 674.564C-283.155 674.97 -280.311 681.572 -280.311 681.572C-280.106 680.987 -279.689 680.5 -279.141 680.209C-278.594 679.917 -277.957 679.843 -277.358 680C-276.616 680.19 -275.92 680.528 -275.311 680.994C-274.703 681.459 -274.195 682.043 -273.818 682.71C-273.818 682.71 -272.671 674.212 -267.153 674.925C-261.636 675.639 -259.486 681.129 -259.486 681.129C-259.327 680.782 -259.051 680.501 -258.706 680.336C-258.361 680.171 -257.969 680.132 -257.599 680.226C-256.172 680.47 -255.269 682.204 -255.269 682.204C-255.269 682.204 -253.075 673.426 -247.268 673.372C-245.549 673.385 -243.86 673.822 -242.351 674.644C-240.842 675.467 -239.559 676.649 -238.617 678.086C-238.061 677.411 -237.304 676.93 -236.457 676.712C-235.61 676.495 -234.715 676.552 -233.903 676.876C-230.742 677.869 -229.469 682.637 -229.469 682.637C-229.469 682.637 -227.888 679.729 -225.965 680.163C-225.38 680.32 -224.838 680.608 -224.381 681.005C-223.924 681.403 -223.564 681.899 -223.328 682.457C-223.328 682.457 -221.134 673.769 -211.949 673.959C-202.765 674.149 -200.417 680.38 -200.417 680.38C-200.417 680.38 -195.731 669.462 -187.775 671.042C-179.819 672.622 -175.592 681.879 -175.592 681.879C-175.592 681.879 -157.45 673.137 -148.329 675.738C-139.208 678.339 -133.447 685.879 -133.447 685.879C-133.447 685.879 -128.67 675.467 -120.082 679.188C-111.494 682.908 -110.834 686.999 -110.834 686.999C-110.834 686.999 -101.804 674.808 -91.6715 676.668C-81.5393 678.528 -79.2997 686.159 -79.2997 686.159C-79.2997 686.159 -76.7892 677.228 -67.9483 677.878C-59.1074 678.528 -57.527 686.006 -57.527 686.006C-57.527 686.006 -51.7565 680.587 -49.6253 681.725C-47.4941 682.863 -45.0649 687.026 -45.0649 687.026C-45.0649 687.026 -33.9934 671.214 -21.5222 676.605C-9.05106 681.996 -5.42978 694.666 -5.33948 694.287C-5.24918 693.907 -2.54907 690.675 -0.589417 690.675C1.37021 690.675 3.78137 695.136 3.78137 695.136C3.78137 695.136 1.64111 688.345 4.52188 688.065C7.40262 687.785 10.1028 691.325 10.1028 691.325C10.1028 691.325 8.80237 680.813 11.5025 680.163C14.2026 679.513 22.2488 689.031 22.2488 689.031C22.2488 689.031 20.1989 683.712 24.0098 682.71C25.0915 682.426 26.2356 682.496 27.2742 682.911C28.3128 683.325 29.1911 684.062 29.7803 685.012C29.7803 685.012 32.7604 678.248 36.0114 677.969C39.2624 677.689 47.426 680.298 47.426 680.298L0.918701 701.448L-353.982 690.684V669.597Z" fill="#574C32"/>
<path d="M3.02295 703.832L50.1534 680.262V686.033L3.02295 712.881V703.832Z" fill="#D0A490"/>
<path d="M85.3359 313.794V315.726L-49.2463 335.043L-55.6851 698.27H-66.6392L-55.6851 329.245L85.3359 313.794Z" fill="white"/>
<path d="M119.869 319.591L71.8174 322.725V312.105L119.869 304.619V319.591Z" fill="white"/>
<path d="M153.833 410.98V412.136L73.443 423.677L69.605 640.609H63.0669L69.605 420.21L153.833 410.98Z" fill="white"/>
<path d="M174.45 414.448L145.75 416.317V409.978L174.45 405.508V414.448Z" fill="white"/>
<path d="M71.9074 635.588H61.9106V698.279H71.9074V635.588Z" fill="#BA6962"/>
<path d="M76.3596 567.706L59.7886 569.927L59.7163 554.521L75.5379 554.756L76.3596 567.706Z" fill="#F0D8BE"/>
<path d="M76.9826 497.764L70.0562 496.653V494.116H76.9826V497.764Z" fill="#767D82"/>
<path d="M77.5609 531.277L68.0337 529.182V527.962L77.5609 529.182V531.277Z" fill="#767D82"/>
<path d="M91.26 547.089H75.2939V488.634L93.9511 488.444L91.26 547.089Z" fill="#F0D8BE"/>
<path d="M91.7657 535.945H75.2578V499.715H93.4273L91.7657 535.945Z" fill="#FBB766"/>
<path d="M71.9074 640.61L61.9106 640.284V638.433L71.9074 639.481V640.61Z" fill="white"/>
<path d="M102.44 623.388C101.482 623.388 100.697 624.544 100.697 625.962C100.697 627.38 101.482 628.527 102.44 628.527C103.397 628.527 104.183 627.38 104.183 625.962C104.183 624.544 103.406 623.388 102.44 623.388Z" fill="#8DC63F"/>
<path d="M103.704 623.181C104.572 623.181 105.275 622.287 105.275 621.185C105.275 620.083 104.572 619.189 103.704 619.189C102.836 619.189 102.133 620.083 102.133 621.185C102.133 622.287 102.836 623.181 103.704 623.181Z" fill="#893238"/>
<path d="M95.1885 680.84L99.0806 680.976V659.935H95.8025L95.1885 680.84Z" fill="#50373E"/>
<path d="M96.29 659.935H98.2948L98.7193 582.435H97.5634L96.29 659.935Z" fill="#DEDEDE"/>
<path d="M101.636 622.819C102.79 622.678 103.918 622.374 104.987 621.916C106.088 621.475 107.031 620.714 107.696 619.731L101.952 618.367L101.636 622.819Z" fill="#38262B"/>
<path d="M100.95 627.47C102.107 627.334 103.239 627.03 104.309 626.567C105.409 626.127 106.352 625.369 107.018 624.39L101.266 623.027L100.95 627.47Z" fill="#38262B"/>
<path d="M99.1436 629.348L102.629 629.556L104.183 618.34L99.577 618.123L99.1436 629.348Z" fill="#50373E"/>
<path d="M96.561 621.483L99.4869 621.185V620.67L96.561 620.796V621.483Z" fill="#38262B"/>
<path d="M96.498 626.504H99.2795L99.2975 625.962H96.498V626.504Z" fill="#38262B"/>
<path d="M105.745 588.16C104.842 588.16 104.074 589.343 104.074 590.788C104.074 592.232 104.824 593.415 105.745 593.415C106.666 593.415 107.425 592.242 107.425 590.788C107.425 589.334 106.675 588.16 105.745 588.16Z" fill="#893238"/>
<path d="M91.3504 588.792C90.4473 588.792 89.6797 589.966 89.6797 591.411C89.6797 592.856 90.4292 594.039 91.3504 594.039C92.2715 594.039 93.03 592.865 93.03 591.411C93.03 589.957 92.2805 588.792 91.3504 588.792Z" fill="#893238"/>
<path d="M104.716 595.113C103.813 595.113 103.036 596.296 103.036 597.741C103.036 599.186 103.786 600.369 104.716 600.369C105.646 600.369 106.395 599.195 106.395 597.741C106.395 596.287 105.673 595.113 104.716 595.113Z" fill="#A78761"/>
<path d="M104.11 607.296C105.038 607.296 105.79 606.119 105.79 604.668C105.79 603.217 105.038 602.04 104.11 602.04C103.183 602.04 102.431 603.217 102.431 604.668C102.431 606.119 103.183 607.296 104.11 607.296Z" fill="#8DC63F"/>
<path d="M92.3074 601.327C93.1304 601.327 93.7975 600.15 93.7975 598.699C93.7975 597.247 93.1304 596.071 92.3074 596.071C91.4845 596.071 90.8174 597.247 90.8174 598.699C90.8174 600.15 91.4845 601.327 92.3074 601.327Z" fill="#A78761"/>
<path d="M92.8496 602.97C92.0188 602.97 91.3506 604.144 91.3506 605.598C91.3506 607.052 92.0188 608.226 92.8496 608.226C93.6804 608.226 94.3397 607.052 94.3397 605.598C94.3397 604.144 93.6714 602.97 92.8496 602.97Z" fill="#8DC63F"/>
<path d="M93.2739 589.334L104.102 588.72L104.409 587.456L93.2739 588.62V589.334Z" fill="#38262B"/>
<path d="M93.2739 594.364L103.496 593.605V592.847L93.2739 593.352V594.364Z" fill="#38262B"/>
<path d="M93.5811 598.139L103.036 598.491V597.886L93.5811 597.425V598.139Z" fill="#38262B"/>
<path d="M93.2739 602.916L102.584 603.367L102.783 602.708L93.2739 602.455V602.916Z" fill="#38262B"/>
<path d="M89.1559 590.652C89.9972 591.15 90.9114 591.513 91.865 591.727V587.456L86.9795 588.359C87.4575 589.325 88.2161 590.124 89.1559 590.652Z" fill="#38262B"/>
<path d="M89.6615 597.218C90.5019 597.715 91.4165 598.075 92.3706 598.283V594.012L87.4941 594.915C87.9678 595.883 88.7233 596.686 89.6615 597.218Z" fill="#38262B"/>
<path d="M90.1222 603.981C90.9626 604.479 91.8772 604.838 92.8313 605.047V600.775L87.9458 601.678C88.4256 602.646 89.1835 603.448 90.1222 603.981Z" fill="#38262B"/>
<path d="M105.745 591.98C106.716 591.798 107.652 591.463 108.518 590.987C109.452 590.483 110.216 589.713 110.712 588.774L105.863 587.708L105.745 591.98Z" fill="#38262B"/>
<path d="M105.068 598.527C106.04 598.344 106.976 598.006 107.84 597.524C108.775 597.025 109.54 596.258 110.035 595.321L105.185 594.255L105.068 598.527Z" fill="#38262B"/>
<path d="M104.436 605.273C105.407 605.091 106.343 604.756 107.208 604.28C108.143 603.776 108.906 603.006 109.402 602.067L104.553 601.001L104.436 605.273Z" fill="#38262B"/>
<path d="M95.0802 608.867H100.851L102.07 582.417L94.5474 582.949L95.0802 608.867Z" fill="#50373E"/>
<path d="M97.8342 584.277C94.2942 583.843 95.8656 588.927 95.8656 588.927L99.5591 589.695C99.5591 589.695 101.446 584.746 97.8342 584.277Z" fill="#38262B"/>
<path d="M90.7812 585.469L92.2081 608.867H94.3393L94.0413 584.25L90.7812 585.469Z" fill="#50373E"/>
<path d="M101.465 608.045H104.102L106.748 584.963L102.883 584.25L101.465 608.045Z" fill="#50373E"/>
<path d="M100.851 608.867L102.63 583.22L102.07 582.417L100.851 608.867Z" fill="#38262B"/>
<path d="M97.7529 585.776C96.7053 585.776 95.8564 587.121 95.8564 588.783C95.8564 590.445 96.7053 591.781 97.7529 591.781C98.8004 591.781 99.6583 590.436 99.6583 588.783C99.6583 587.13 98.8094 585.776 97.7529 585.776Z" fill="#DD2B36"/>
<path d="M98.2588 593.018C94.3757 592.332 96.0192 597.217 96.0192 597.217L99.3695 597.913C99.3695 597.913 100.498 593.416 98.2588 593.018Z" fill="#38262B"/>
<path d="M97.7351 594.337C96.832 594.337 96.0103 595.556 96.0103 597.046C96.0103 598.536 96.7869 599.755 97.7351 599.755C98.6833 599.755 99.4599 598.545 99.4599 597.046C99.4599 595.547 98.6833 594.337 97.7351 594.337Z" fill="#957856"/>
<path d="M98.1592 601.435C94.9172 600.875 96.2176 605.047 96.2176 605.047L99.1255 605.652C99.1255 605.652 100.363 601.814 98.1592 601.435Z" fill="#38262B"/>
<path d="M97.7078 607.295C98.5307 607.295 99.1978 606.24 99.1978 604.939C99.1978 603.637 98.5307 602.582 97.7078 602.582C96.8849 602.582 96.2178 603.637 96.2178 604.939C96.2178 606.24 96.8849 607.295 97.7078 607.295Z" fill="#4B602F"/>
<path d="M97.7533 586.173C96.8503 586.173 96.5703 587.221 96.5703 587.221L99.3246 589.027C99.2072 587.501 98.7015 586.173 97.7533 586.173Z" fill="#FF424D"/>
<path d="M96.1455 588.612L99.0623 589.948L99.2159 589.451L96.3713 587.582L96.1455 588.612Z" fill="#FF424D"/>
<path d="M315.245 474.24V474.944L364.56 482.024L366.917 615.116H370.927L366.917 479.902L315.245 474.24Z" fill="white"/>
<path d="M302.593 476.362L320.202 477.509V473.616L302.593 470.871V476.362Z" fill="white"/>
<path d="M371.632 612.028H365.5V650.489H371.632V612.028Z" fill="#C2807B"/>
<path d="M362.772 570.388L372.941 571.751L372.986 562.296L363.278 562.441L362.772 570.388Z" fill="#F0D8BE"/>
<path d="M362.394 527.475L366.638 526.797V525.244H362.394V527.475Z" fill="#767D82"/>
<path d="M362.041 548.037L367.875 546.755V546.005L362.041 546.755V548.037Z" fill="#767D82"/>
<path d="M353.634 557.736H363.423V521.876L351.981 521.758L353.634 557.736Z" fill="#F0D8BE"/>
<path d="M353.318 550.9H363.45V528.667H352.297L353.318 550.9Z" fill="#FBB766"/>
<path d="M365.5 615.116L371.641 614.917V613.771L365.5 614.421V615.116Z" fill="white"/>
<path d="M187.535 523.429V523.943L223.088 529.046L224.786 624.986H227.685L224.786 527.511L187.535 523.429Z" fill="white"/>
<path d="M178.414 524.964L191.111 525.795V522.986L178.414 521.009V524.964Z" fill="white"/>
<path d="M228.191 622.765H223.766V650.489H228.191V622.765Z" fill="#C2807B"/>
<path d="M221.797 592.747L229.13 593.723L229.166 586.914L222.167 587.013L221.797 592.747Z" fill="#F0D8BE"/>
<path d="M221.526 561.809L224.587 561.321V560.201H221.526V561.809Z" fill="#767D82"/>
<path d="M221.273 576.628L225.481 575.707V575.165L221.273 575.707V576.628Z" fill="#767D82"/>
<path d="M215.214 583.627H222.266V557.772L214.021 557.691L215.214 583.627Z" fill="#F0D8BE"/>
<path d="M214.988 578.696H222.284V562.676H214.247L214.988 578.696Z" fill="#FBB766"/>
<path d="M223.766 624.986L228.191 624.842V624.02L223.766 624.49V624.986Z" fill="white"/>
<path opacity="0.21" d="M-105.696 719.248L-110.555 762.712L193.82 812H-331.406L-105.696 719.248Z" fill="#231F20"/>
</svg>
