<svg width="231" height="50" viewBox="0 0 231 50" fill="none" xmlns="http://www.w3.org/2000/svg">
<path d="M34.8573 9.60037H24.8417V42.7726C24.8417 44.6877 24.4195 46.1027 23.5646 47.0283C22.7202 47.9539 21.6226 48.4113 20.2822 48.4113C18.9207 48.4113 17.8019 47.9433 16.9472 47.007C16.0923 46.0707 15.6595 44.6664 15.6595 42.7726V9.60037H5.64369C4.07127 9.60037 2.91019 9.24934 2.15023 8.55772C1.39045 7.85565 1 6.93002 1 5.781C1 4.60003 1.40091 3.66371 2.19246 2.97231C2.98397 2.2807 4.13438 1.94031 5.64369 1.94031H34.8573C36.4512 1.94031 37.6227 2.29134 38.4034 3.00426C39.174 3.71701 39.5645 4.64265 39.5645 5.781C39.5645 6.93002 39.1634 7.85565 38.3825 8.55772C37.6014 9.24934 36.4299 9.60037 34.8573 9.60037Z" fill="#CC0000" stroke="#D71A21" stroke-width="0.0762" stroke-miterlimit="22.9256"/>
<path d="M110.231 40.6817L102.929 11.5071V43.1128C102.929 44.8615 102.537 46.1732 101.763 47.0476C100.989 47.9219 99.9614 48.3592 98.6897 48.3592C97.4498 48.3592 96.4324 47.9219 95.648 47.0582C94.864 46.1945 94.4717 44.883 94.4717 43.1128V6.8791C94.4717 4.87442 94.991 3.53101 96.0192 2.82713C97.0576 2.13409 98.4565 1.78223 100.205 1.78223H103.066C104.783 1.78223 106.023 1.94208 106.797 2.25131C107.571 2.56051 108.153 3.12568 108.525 3.93612C108.895 4.74656 109.319 6.06888 109.796 7.90286L116.409 33.0041L123.022 7.90286C123.499 6.06888 123.923 4.74656 124.294 3.93612C124.665 3.12568 125.237 2.56051 126.011 2.25131C126.784 1.94208 128.035 1.78223 129.752 1.78223H132.603C134.362 1.78223 135.761 2.13409 136.799 2.82713C137.827 3.53101 138.347 4.87442 138.347 6.8791V43.1128C138.347 44.8615 137.954 46.1732 137.181 47.0476C136.407 47.9219 135.369 48.3592 134.076 48.3592C132.857 48.3592 131.85 47.9219 131.066 47.0476C130.282 46.1732 129.89 44.8615 129.89 43.1128V11.5071L122.588 40.6817C122.111 42.569 121.729 43.9658 121.422 44.8509C121.125 45.7252 120.574 46.5357 119.769 47.2609C118.953 47.9965 117.84 48.3592 116.409 48.3592C115.328 48.3592 114.417 48.1246 113.675 47.6553C112.933 47.1863 112.35 46.589 111.937 45.864C111.524 45.1281 111.195 44.3286 110.962 43.4433C110.718 42.5583 110.474 41.6306 110.231 40.6817Z" fill="#CC0000" stroke="#D71A21" stroke-width="0.0762" stroke-miterlimit="22.9256"/>
<path d="M230.114 33.8428C230.114 36.6046 229.406 39.089 227.989 41.2963C226.582 43.5037 224.51 45.2311 221.781 46.4786C219.053 47.7263 215.817 48.3448 212.084 48.3448C207.601 48.3448 203.9 47.4917 200.992 45.7963C198.929 44.5698 197.258 42.9278 195.969 40.8805C194.678 38.833 194.033 36.839 194.033 34.8985C194.033 33.7788 194.424 32.819 195.196 32.0086C195.969 31.209 196.952 30.8143 198.147 30.8143C199.12 30.8143 199.934 31.1235 200.6 31.7528C201.277 32.3712 201.848 33.2989 202.324 34.5358C202.895 35.9859 203.529 37.2124 204.196 38.1826C204.872 39.1638 205.814 39.974 207.03 40.6139C208.256 41.243 209.853 41.5629 211.841 41.5629C214.559 41.5629 216.78 40.9232 218.482 39.6435C220.185 38.364 221.041 36.7644 221.041 34.845C221.041 33.3202 220.586 32.0833 219.666 31.1448C218.746 30.1959 217.551 29.4709 216.092 28.9697C214.644 28.4684 212.687 27.9352 210.255 27.3701C206.998 26.6025 204.259 25.6959 202.07 24.6724C199.871 23.638 198.126 22.2304 196.836 20.4497C195.546 18.669 194.9 16.4617 194.9 13.8066C194.9 11.29 195.577 9.0507 196.941 7.08864C198.306 5.13722 200.283 3.63374 202.863 2.57804C205.443 1.52251 208.478 1 211.968 1C214.749 1 217.16 1.35182 219.201 2.04507C221.231 2.74874 222.923 3.67638 224.267 4.82803C225.599 5.97965 226.582 7.19537 227.206 8.46421C227.819 9.73327 228.137 10.9808 228.137 12.1857C228.137 13.284 227.746 14.2863 226.973 15.1715C226.202 16.0565 225.229 16.4936 224.076 16.4936C223.019 16.4936 222.225 16.227 221.676 15.7045C221.126 15.1715 220.533 14.2969 219.899 13.092C219.064 11.3646 218.08 10.0103 216.917 9.04003C215.764 8.06974 213.903 7.58984 211.333 7.58984C208.965 7.58984 207.04 8.1124 205.591 9.1681C204.132 10.2236 203.402 11.482 203.402 12.9641C203.402 13.8811 203.646 14.6703 204.143 15.342C204.64 16.003 205.327 16.5788 206.194 17.0588C207.061 17.5387 207.939 17.9118 208.827 18.1891C209.716 18.4557 211.185 18.8501 213.227 19.3727C215.786 19.9805 218.112 20.6417 220.185 21.3773C222.257 22.1025 224.023 22.9876 225.482 24.0326C226.942 25.0669 228.073 26.3892 228.888 27.9779C229.702 29.5774 230.114 31.5288 230.114 33.8428Z" fill="#CC0000" stroke="#D71A21" stroke-width="0.0762" stroke-miterlimit="22.9256"/>
<path d="M64.294 1.40979C69.0159 1.40979 73.0604 2.36114 76.4377 4.27457C79.8154 6.17732 82.3774 8.89393 84.1139 12.4141C85.8501 15.9341 86.7183 20.0673 86.7183 24.8136C86.7183 28.3231 86.2418 31.5156 85.289 34.3802C84.336 37.2554 82.9174 39.7396 81.0116 41.8432C79.1059 43.9468 76.7767 45.5536 74.0026 46.6741C71.2287 47.7841 68.0629 48.3444 64.4844 48.3444C60.927 48.3444 57.7401 47.7735 54.9345 46.6212C52.1182 45.4796 49.7783 43.8624 47.8937 41.7799C46.0092 39.6974 44.5904 37.1921 43.6269 34.2533C42.6635 31.3252 42.187 28.154 42.187 24.7502C42.187 21.2618 42.6846 18.0695 43.6905 15.1518C44.6963 12.2448 46.1467 9.77132 48.0525 7.72056C49.9478 5.68031 52.2663 4.11593 54.998 3.0377C57.719 1.94881 60.8211 1.40979 64.294 1.40979ZM77.3803 24.7502C77.3803 21.4309 76.84 18.5452 75.7708 16.1032C74.691 13.6719 73.1556 11.8327 71.1653 10.5747C69.1747 9.32739 66.8773 8.70373 64.294 8.70373C62.4622 8.70373 60.7577 9.05256 59.2014 9.73955C57.6342 10.4372 56.2897 11.4414 55.1673 12.7629C54.045 14.0843 53.1558 15.7755 52.4993 17.8262C51.8536 19.8876 51.5252 22.1921 51.5252 24.7502C51.5252 27.34 51.8536 29.6657 52.4993 31.7587C53.1558 33.8412 54.0768 35.5749 55.2628 36.949C56.4484 38.3232 57.8143 39.3486 59.3496 40.0251C60.8952 40.7121 62.5787 41.0505 64.4209 41.0505C66.7818 41.0505 68.9417 40.4586 70.9217 39.2851C72.891 38.1117 74.458 36.2936 75.6331 33.8305C76.7978 31.3781 77.3803 28.3442 77.3803 24.7502Z" fill="#CC0000" stroke="#D71A21" stroke-width="0.0762" stroke-miterlimit="22.9256"/>
<path fill-rule="evenodd" clip-rule="evenodd" d="M170.986 25.4287L166.382 12.1515L161.763 25.4707C159.533 31.9162 157.409 38.9232 154.757 45.1613C154.376 46.0686 154.026 46.7542 153.696 47.1973C153.355 47.6402 152.945 47.9883 152.465 48.2414C151.974 48.5052 151.384 48.6318 150.703 48.6318C149.533 48.6318 148.522 48.1992 147.691 47.3238C146.85 46.48 146.43 45.5202 146.43 44.4548C146.43 43.8323 146.53 43.189 146.72 42.5348C146.866 42.0498 147.076 41.4358 147.354 40.6801L147.356 40.6746L147.36 40.6656C147.438 40.4507 147.52 40.2287 147.608 39.9999L147.611 39.9913L147.629 39.9458L147.691 39.7815L158.679 10.3722C158.999 9.52834 159.369 8.51544 159.81 7.33408C160.25 6.14222 160.72 5.16112 161.221 4.38064C161.721 3.59994 162.372 2.96703 163.182 2.48191C163.993 1.99657 164.994 1.75391 166.184 1.75391C166.573 1.75391 166.94 1.77863 167.285 1.82769C168.165 1.9077 168.926 2.13991 169.567 2.52392C170.378 3.00905 171.028 3.64195 171.528 4.42265C172.029 5.20313 172.499 6.18427 172.94 7.37609C173.38 8.55745 173.75 9.57037 174.07 10.4142L184.02 37.0447L184.978 39.5391C185.359 40.5025 185.658 41.3512 185.874 42.0862C185.932 42.2625 185.983 42.426 186.029 42.5768C186.219 43.231 186.319 43.8744 186.319 44.4968C186.319 45.5622 185.899 46.522 185.058 47.3658C184.217 48.2098 183.247 48.6318 182.156 48.6318C181.091 48.6318 180.271 48.3588 179.702 47.8188C179.463 47.6282 179.247 47.407 179.054 47.1553C178.723 46.7122 178.373 46.0266 177.993 45.1193C175.34 38.8812 173.216 31.8742 170.986 25.4287Z" fill="#CC0000" stroke="#D71A21" stroke-width="0.0762" stroke-miterlimit="22.9256"/>
<path fill-rule="evenodd" clip-rule="evenodd" d="M168.517 39.0111L166.397 33.2953L164.271 39.0292C163.244 41.804 162.266 44.8205 161.045 47.506C160.87 47.8966 160.709 48.1917 160.557 48.3825C160.4 48.5732 160.211 48.723 159.99 48.8319C159.764 48.9455 159.492 49 159.179 49C158.64 49 158.174 48.8138 157.792 48.437C157.405 48.0737 157.211 47.6605 157.211 47.2018C157.211 46.9339 157.258 46.6569 157.345 46.3752C157.412 46.1665 157.509 45.9021 157.637 45.5768L157.638 45.5745L157.639 45.5706C157.675 45.4781 157.713 45.3825 157.754 45.284L157.755 45.2803L157.763 45.2607L157.792 45.19L162.851 32.5292C162.998 32.166 163.169 31.7299 163.372 31.2213C163.574 30.7083 163.791 30.2859 164.021 29.9499C164.251 29.6138 164.551 29.3414 164.924 29.1325C165.298 28.9235 165.758 28.8191 166.306 28.8191C166.485 28.8191 166.654 28.8297 166.813 28.8509C167.218 28.8853 167.569 28.9853 167.864 29.1506C168.237 29.3594 168.537 29.6319 168.767 29.968C168.997 30.304 169.214 30.7264 169.417 31.2395C169.619 31.748 169.79 32.1841 169.937 32.5474L174.518 44.0118L174.959 45.0856C175.135 45.5004 175.272 45.8657 175.372 46.1822C175.398 46.258 175.422 46.3284 175.443 46.3933C175.531 46.675 175.577 46.9519 175.577 47.2199C175.577 47.6785 175.383 48.0917 174.996 48.455C174.609 48.8184 174.162 49 173.66 49C173.169 49 172.792 48.8825 172.53 48.65C172.42 48.568 172.321 48.4728 172.232 48.3644C172.08 48.1736 171.918 47.8785 171.743 47.4879C170.522 44.8024 169.544 41.7859 168.517 39.0111Z" fill="#CC0000" stroke="#D71A21" stroke-width="0.2" stroke-miterlimit="22.9256"/>
</svg>
