<svg width="21" height="22" viewBox="0 0 21 22" fill="none" xmlns="http://www.w3.org/2000/svg">
<path d="M19.7276 14.7368C19.6654 14.7063 19.5978 14.6883 19.5287 14.684C19.4596 14.6796 19.3903 14.689 19.3247 14.7115C19.2592 14.7339 19.1988 14.7692 19.1469 14.8151C19.095 14.861 19.0527 14.9167 19.0224 14.9789C18.1251 16.7862 16.6433 18.237 14.8175 19.096C12.9918 19.955 10.9293 20.1717 8.96494 19.7109C7.00056 19.2501 5.2496 18.1388 3.99633 16.5575C2.74306 14.9762 2.06106 13.0177 2.06106 11C2.06106 8.98228 2.74306 7.0238 3.99633 5.44251C5.2496 3.86121 7.00056 2.74994 8.96494 2.28912C10.9293 1.82829 12.9918 2.04497 14.8175 2.90396C16.6433 3.76295 18.1251 5.21384 19.0224 7.02106C19.0471 7.09124 19.0865 7.15538 19.1379 7.20923C19.1893 7.26308 19.2515 7.30542 19.3204 7.33345C19.3894 7.36148 19.4635 7.37458 19.5379 7.37186C19.6123 7.36915 19.6852 7.35069 19.7519 7.3177C19.8187 7.28472 19.8776 7.23796 19.9249 7.1805C19.9723 7.12305 20.0069 7.05622 20.0264 6.98441C20.046 6.91261 20.0502 6.83747 20.0386 6.76394C20.027 6.69042 19.9999 6.6202 19.9592 6.5579C18.9573 4.53708 17.3016 2.91435 15.261 1.95325C13.2204 0.992152 10.9149 0.749138 8.71879 1.26368C6.5227 1.77822 4.56505 3.02009 3.1638 4.7876C1.76255 6.55511 1 8.74443 1 11C1 13.2556 1.76255 15.4449 3.1638 17.2124C4.56505 18.9799 6.5227 20.2218 8.71879 20.7363C10.9149 21.2509 13.2204 21.0078 15.261 20.0467C17.3016 19.0856 18.9573 17.4629 19.9592 15.4421C20.0216 15.3178 20.0323 15.1738 19.9889 15.0417C19.9455 14.9095 19.8516 14.7999 19.7276 14.7368Z" fill="#A1A4A8" stroke="#A1A4A8" stroke-width="0.2"/>
<path d="M15.896 13.4736C15.9433 13.524 16.0004 13.5641 16.0637 13.5915C16.1271 13.619 16.1954 13.6331 16.2645 13.6331C16.3335 13.6331 16.4018 13.619 16.4652 13.5915C16.5286 13.5641 16.5856 13.524 16.6329 13.4736L18.7381 11.3684C18.7914 11.3239 18.8315 11.2656 18.8539 11.1999C18.9066 11.0718 18.9066 10.9281 18.8539 10.7999C18.8315 10.7343 18.7914 10.676 18.7381 10.6315L16.6329 8.52626C16.5352 8.42855 16.4026 8.37366 16.2645 8.37366C16.1263 8.37366 15.9938 8.42855 15.896 8.52626C15.7983 8.62397 15.7434 8.7565 15.7434 8.89468C15.7434 9.03287 15.7983 9.16539 15.896 9.2631L17.096 10.4736H9.94868C9.80909 10.4736 9.67522 10.5291 9.57652 10.6278C9.47781 10.7265 9.42236 10.8604 9.42236 10.9999C9.42236 11.1395 9.47781 11.2734 9.57652 11.3721C9.67522 11.4708 9.80909 11.5263 9.94868 11.5263H17.096L15.896 12.7368C15.8457 12.784 15.8056 12.8411 15.7781 12.9045C15.7507 12.9678 15.7365 13.0362 15.7365 13.1052C15.7365 13.1743 15.7507 13.2426 15.7781 13.3059C15.8056 13.3693 15.8457 13.4264 15.896 13.4736Z" fill="#A1A4A8" stroke="#A1A4A8" stroke-width="0.2"/>
</svg>
