<svg width="96" height="20" viewBox="0 0 96 20" fill="none" xmlns="http://www.w3.org/2000/svg">
<path d="M14.1072 3.58342H9.93404V17.4052C9.93404 18.2031 9.75811 18.7927 9.40191 19.1784C9.05007 19.5641 8.59276 19.7547 8.03427 19.7547C7.46697 19.7547 7.00078 19.5596 6.64467 19.1695C6.28847 18.7794 6.10811 18.1942 6.10811 17.4052V3.58342H1.93487C1.2797 3.58342 0.795911 3.43715 0.479263 3.14898C0.162689 2.85645 0 2.47077 0 1.99201C0 1.49994 0.167047 1.10981 0.496859 0.821725C0.826655 0.533554 1.30599 0.391724 1.93487 0.391724H14.1072C14.7713 0.391724 15.2595 0.537987 15.5848 0.835038C15.9058 1.13201 16.0685 1.5177 16.0685 1.99201C16.0685 2.47077 15.9014 2.85645 15.576 3.14898C15.2506 3.43715 14.7625 3.58342 14.1072 3.58342Z" fill="white"/>
<path d="M45.5129 16.534L42.4704 4.37796V17.547C42.4704 18.2756 42.3071 18.8222 41.9846 19.1865C41.6623 19.5508 41.234 19.733 40.7041 19.733C40.1875 19.733 39.7635 19.5508 39.4367 19.1909C39.11 18.831 38.9466 18.2846 38.9466 17.547V2.44962C38.9466 1.61434 39.163 1.05459 39.5914 0.761303C40.0241 0.472538 40.6069 0.325928 41.3355 0.325928H42.5277C43.2431 0.325928 43.7598 0.392533 44.0822 0.52138C44.4045 0.650212 44.6473 0.885701 44.802 1.22338C44.9564 1.56107 45.133 2.11203 45.3318 2.87619L48.0872 13.335L50.8427 2.87619C51.0413 2.11203 51.218 1.56107 51.3725 1.22338C51.5271 0.885701 51.7656 0.650212 52.0879 0.52138C52.4103 0.392533 52.9313 0.325928 53.6466 0.325928H54.8344C55.5675 0.325928 56.1504 0.472538 56.5832 0.761303C57.0115 1.05459 57.2279 1.61434 57.2279 2.44962V17.547C57.2279 18.2756 57.0644 18.8222 56.7422 19.1865C56.4198 19.5508 55.987 19.733 55.4483 19.733C54.9405 19.733 54.521 19.5508 54.1942 19.1865C53.8675 18.8222 53.7041 18.2756 53.7041 17.547V4.37796L50.6616 16.534C50.4629 17.3204 50.3039 17.9024 50.1759 18.2712C50.0522 18.6355 49.8226 18.9732 49.487 19.2754C49.1469 19.5819 48.6833 19.733 48.0872 19.733C47.6369 19.733 47.2571 19.6353 46.948 19.4397C46.6388 19.2443 46.396 18.9954 46.2238 18.6933C46.0516 18.3867 45.9147 18.0536 45.8175 17.6847C45.7159 17.316 45.6144 16.9294 45.5129 16.534Z" fill="white"/>
<path d="M95.4643 13.6845C95.4643 14.8352 95.1691 15.8704 94.5787 16.7901C93.9927 17.7099 93.1291 18.4296 91.9923 18.9494C90.8555 19.4693 89.5073 19.727 87.9519 19.727C86.0837 19.727 84.5415 19.3715 83.3299 18.6651C82.4706 18.1541 81.7744 17.4699 81.2369 16.6169C80.6994 15.7638 80.4305 14.9329 80.4305 14.1244C80.4305 13.6578 80.5936 13.2579 80.9152 12.9202C81.2369 12.5871 81.6467 12.4226 82.1445 12.4226C82.55 12.4226 82.8892 12.5515 83.1668 12.8137C83.4488 13.0713 83.6867 13.4579 83.8849 13.9732C84.1229 14.5775 84.3872 15.0885 84.6649 15.4928C84.9468 15.9016 85.3391 16.2392 85.8457 16.5058C86.3568 16.7679 87.0222 16.9012 87.8505 16.9012C88.9829 16.9012 89.9082 16.6347 90.6176 16.1014C91.327 15.5683 91.6838 14.9018 91.6838 14.1021C91.6838 13.4668 91.4944 12.9514 91.111 12.5603C90.7277 12.1649 90.2298 11.8629 89.6218 11.654C89.0182 11.4452 88.203 11.223 87.1896 10.9875C85.8325 10.6677 84.6913 10.29 83.7792 9.86349C82.8628 9.4325 82.1357 8.846 81.5982 8.10404C81.0607 7.36208 80.7919 6.44236 80.7919 5.33607C80.7919 4.2875 81.0738 3.35446 81.6422 2.53693C82.2107 1.72384 83.0346 1.09739 84.1097 0.657516C85.1848 0.217713 86.4494 0 87.9034 0C89.0622 0 90.0669 0.146591 90.9172 0.435445C91.7631 0.728642 92.4682 1.11516 93.0278 1.59501C93.5829 2.07485 93.9927 2.5814 94.2527 3.11009C94.5082 3.63886 94.6404 4.15866 94.6404 4.66071C94.6404 5.11834 94.4773 5.53595 94.1557 5.90479C93.8341 6.27355 93.4287 6.45567 92.9484 6.45567C92.5078 6.45567 92.1773 6.3446 91.9483 6.12687C91.7192 5.9048 91.4723 5.54039 91.208 5.03834C90.8599 4.31858 90.4501 3.7543 89.9655 3.35001C89.4852 2.94573 88.7097 2.74577 87.639 2.74577C86.6521 2.74577 85.8501 2.9635 85.2465 3.40338C84.6385 3.84318 84.3344 4.36751 84.3344 4.98506C84.3344 5.36714 84.4357 5.69595 84.6429 5.97583C84.8499 6.25127 85.1363 6.49119 85.4976 6.69116C85.8589 6.89111 86.2247 7.0466 86.5948 7.16212C86.9649 7.2732 87.5772 7.43756 88.4278 7.65527C89.494 7.90852 90.4633 8.18405 91.3269 8.49056C92.1906 8.79272 92.9264 9.16149 93.5344 9.59694C94.1425 10.0279 94.614 10.5788 94.9532 11.2408C95.2925 11.9073 95.4643 12.7204 95.4643 13.6845Z" fill="white"/>
<path d="M26.3725 0.170654C28.34 0.170654 30.0252 0.567051 31.4324 1.36431C32.8397 2.15712 33.9072 3.28904 34.6308 4.7558C35.3542 6.22247 35.716 7.94463 35.716 9.92222C35.716 11.3845 35.5174 12.7148 35.1204 13.9083C34.7233 15.1063 34.1323 16.1414 33.3382 17.0179C32.5441 17.8944 31.5736 18.5639 30.4177 19.0308C29.2619 19.4933 27.9429 19.7267 26.4518 19.7267C24.9696 19.7267 23.6417 19.4888 22.4727 19.0087C21.2992 18.5331 20.3243 17.8592 19.539 16.9915C18.7538 16.1238 18.1627 15.08 17.7612 13.8555C17.3598 12.6354 17.1613 11.3141 17.1613 9.89584C17.1613 8.44232 17.3686 7.1122 17.7877 5.89651C18.2068 4.68525 18.8111 3.65462 19.6052 2.80014C20.3949 1.95004 21.361 1.29821 22.4992 0.848952C23.6329 0.395245 24.9254 0.170654 26.3725 0.170654ZM31.8251 9.89584C31.8251 8.51278 31.6 7.3104 31.1545 6.29291C30.7046 5.27987 30.0648 4.51352 29.2356 3.98937C28.4061 3.46965 27.4489 3.2098 26.3725 3.2098C25.6093 3.2098 24.8991 3.35514 24.2506 3.64139C23.5976 3.93206 23.0374 4.35051 22.5697 4.90113C22.1021 5.45168 21.7316 6.15637 21.4581 7.01083C21.189 7.86974 21.0522 8.82993 21.0522 9.89584C21.0522 10.9749 21.189 11.944 21.4581 12.816C21.7316 13.6837 22.1153 14.4061 22.6095 14.9787C23.1035 15.5513 23.6726 15.9785 24.3123 16.2604C24.9563 16.5466 25.6578 16.6876 26.4254 16.6876C27.4091 16.6876 28.3091 16.441 29.134 15.952C29.9546 15.4631 30.6075 14.7056 31.0971 13.6793C31.5824 12.6574 31.8251 11.3933 31.8251 9.89584Z" fill="white"/>
<path fill-rule="evenodd" clip-rule="evenodd" d="M70.8274 10.1786L68.909 4.6464L66.9845 10.1961C66.0553 12.8817 65.1703 15.8013 64.0651 18.4005C63.9066 18.7786 63.7606 19.0642 63.6231 19.2488C63.4813 19.4334 63.3103 19.5784 63.1102 19.6839C62.9059 19.7938 62.6598 19.8466 62.3762 19.8466C61.8884 19.8466 61.4673 19.6663 61.1212 19.3015C60.7709 18.9499 60.5958 18.55 60.5958 18.1061C60.5958 17.8468 60.6374 17.5787 60.7167 17.3061C60.7775 17.104 60.865 16.8482 60.9808 16.5333L60.9816 16.5311L60.983 16.5273C61.0155 16.4377 61.0499 16.3453 61.0866 16.2499L61.0879 16.2463L61.0951 16.2274L61.1212 16.1589L65.6995 3.90502C65.8329 3.55344 65.9871 3.13139 66.1706 2.63916C66.3541 2.14255 66.55 1.73376 66.7585 1.40856C66.967 1.08327 67.2381 0.819557 67.5758 0.617422C67.9137 0.415197 68.3305 0.314087 68.8267 0.314087C68.9885 0.314087 69.1413 0.324387 69.2855 0.344829C69.652 0.378167 69.9688 0.47492 70.236 0.634926C70.5738 0.837062 70.845 1.10077 71.0534 1.42606C71.2618 1.75126 71.4579 2.16007 71.6414 2.65666C71.8248 3.1489 71.9791 3.57095 72.1125 3.92253L76.2582 15.0186L76.6574 16.0579C76.8162 16.4594 76.9405 16.8129 77.0306 17.1192C77.0547 17.1927 77.0763 17.2608 77.0953 17.3236C77.1745 17.5962 77.2162 17.8643 77.2162 18.1236C77.2162 18.5675 77.041 18.9674 76.6908 19.3191C76.3405 19.6707 75.936 19.8466 75.4816 19.8466C75.0377 19.8466 74.6961 19.7328 74.4591 19.5078C74.3596 19.4284 74.2696 19.3362 74.1888 19.2313C74.0513 19.0467 73.9053 18.761 73.747 18.383C72.6417 15.7838 71.7567 12.8642 70.8274 10.1786Z" fill="white"/>
<path fill-rule="evenodd" clip-rule="evenodd" d="M69.7989 15.838L68.9156 13.4564L68.0296 15.8455C67.6017 17.0017 67.1943 18.2586 66.6854 19.3775C66.6125 19.5403 66.5453 19.6632 66.482 19.7427C66.4166 19.8222 66.3379 19.8846 66.2458 19.93C66.1517 19.9773 66.0385 20 65.9079 20C65.6833 20 65.4894 19.9224 65.33 19.7654C65.1688 19.6141 65.0881 19.4419 65.0881 19.2508C65.0881 19.1391 65.1073 19.0237 65.1438 18.9064C65.1718 18.8194 65.2121 18.7092 65.2654 18.5737L65.2658 18.5727L65.2664 18.5711C65.2814 18.5325 65.2972 18.4927 65.3141 18.4517L65.3147 18.4501L65.3181 18.442L65.33 18.4125L67.4379 13.1372C67.4993 12.9858 67.5704 12.8042 67.6548 12.5922C67.7393 12.3785 67.8295 12.2025 67.9255 12.0625C68.0215 11.9224 68.1463 11.8089 68.3018 11.7219C68.4574 11.6348 68.6493 11.5913 68.8777 11.5913C68.9522 11.5913 69.0226 11.5957 69.089 11.6045C69.2577 11.6189 69.4036 11.6605 69.5266 11.7294C69.6821 11.8164 69.807 11.93 69.9029 12.07C69.9989 12.21 70.0891 12.386 70.1736 12.5998C70.2581 12.8117 70.3291 12.9934 70.3905 13.1448L72.2992 17.9216L72.4831 18.369C72.5562 18.5418 72.6134 18.6941 72.6549 18.8259C72.666 18.8575 72.6759 18.8869 72.6846 18.9139C72.7211 19.0313 72.7403 19.1467 72.7403 19.2583C72.7403 19.4494 72.6597 19.6216 72.4984 19.7729C72.3371 19.9243 72.1509 20 71.9417 20C71.7373 20 71.5801 19.9511 71.4709 19.8542C71.4251 19.82 71.3837 19.7803 71.3465 19.7352C71.2832 19.6557 71.216 19.5327 71.1431 19.37C70.6342 18.251 70.2267 16.9941 69.7989 15.838Z" fill="white"/>
</svg>
