<svg width="231" height="145" viewBox="0 0 231 145" fill="none" xmlns="http://www.w3.org/2000/svg">
<path d="M118.184 144.82C118.184 144.82 20.0773 151.404 11.3306 85.0253C2.58402 18.647 105.893 -15.8539 154.536 20.1249C203.18 56.1037 205.692 141.862 118.184 144.82Z" fill="#FFE1E1"/>
<path d="M1 94.4548V110.36L67.4817 112.732L67.2343 106.712L1 94.4548Z" fill="#CC0000"/>
<path d="M1 94.4547L24.9025 80.2348L82.8392 94.0574L67.2343 106.712L1 94.4547Z" fill="white" stroke="#CC0000" stroke-width="0.5" stroke-miterlimit="10"/>
<path d="M82.8392 94.0574V99.4868L67.4817 112.732L67.2343 106.712L82.8392 94.0574Z" fill="#CC0000"/>
<path d="M10.3882 93.2019L32.2132 97.1304L45.7065 87.3373L26.7497 83.179L10.3882 93.2019Z" fill="#CC0000"/>
<path d="M34.9189 98.2084L48.2166 88.0016L50.4401 88.4382L37.8762 98.8571L34.9189 98.2084Z" fill="#CC0000"/>
<path d="M39.5597 99.2334L52.858 89.0271L55.0815 89.4637L42.5176 99.8821L39.5597 99.2334Z" fill="#CC0000"/>
<path d="M44.201 100.259L57.4987 90.0522L59.7228 90.4888L47.1589 100.908L44.201 100.259Z" fill="#CC0000"/>
<path d="M48.8424 101.284L62.1401 91.0778L64.3635 91.5144L51.7996 101.933L48.8424 101.284Z" fill="#CC0000"/>
<path d="M53.483 102.31L66.7813 92.1031L69.0048 92.5397L56.4409 102.959L53.483 102.31Z" fill="#CC0000"/>
<path d="M58.1245 103.335L71.4221 93.1286L73.6455 93.5645L61.0824 103.984L58.1245 103.335Z" fill="#CC0000"/>
<path d="M37.9103 95.9125L67.8653 102.32L69.8735 100.908L39.7364 94.5111L37.9103 95.9125Z" fill="#CC0000"/>
<path d="M45.5448 90.0522L76.4253 96.2533L74.7032 97.5309L44.2089 91.0779L45.5448 90.0522Z" fill="#CC0000"/>
<path d="M87.7684 66.4247L76.6366 64.7253C76.0634 64.6378 75.5278 65.0315 75.4403 65.6047L74.4698 71.9619C74.3823 72.5351 74.776 73.0707 75.3492 73.1582L86.481 74.8577C87.0542 74.9452 87.5898 74.5514 87.6773 73.9783L88.6478 67.621C88.7353 67.0478 88.3416 66.5122 87.7684 66.4247Z" fill="#CDEFF8" stroke="#CC0000" stroke-width="0.5" stroke-miterlimit="10"/>
<path d="M74.7498 70.1312C74.7498 70.1417 87.8766 72.6754 87.8766 72.6754L87.7417 73.5597L74.6051 71.079L74.7498 70.1312Z" fill="#CC0000"/>
<path d="M77.2657 67.9242C77.7291 67.9242 78.1048 67.5485 78.1048 67.0851C78.1048 66.6216 77.7291 66.2459 77.2657 66.2459C76.8023 66.2459 76.4266 66.6216 76.4266 67.0851C76.4266 67.5485 76.8023 67.9242 77.2657 67.9242Z" fill="#CC0000"/>
<path opacity="0.7" d="M78.5081 68.0885C78.9715 68.0885 79.3472 67.7128 79.3472 67.2494C79.3472 66.786 78.9715 66.4103 78.5081 66.4103C78.0446 66.4103 77.6689 66.786 77.6689 67.2494C77.6689 67.7128 78.0446 68.0885 78.5081 68.0885Z" fill="#FFE1E1"/>
<path d="M130.92 48.1734H130.91L124.666 47.9482L117.642 36.1201C117.642 36.1201 102.425 29.0969 98.1738 34.2716C98.1738 34.2716 97.5899 34.9916 97.5343 36.5462C92.7562 32.5679 100.192 24.9072 104.812 27.0789C109.433 29.2507 113.269 22.181 116.272 27.6798C119.275 33.1786 123.156 31.1449 124.309 35.9034C124.466 36.5214 124.663 37.1286 124.898 37.7211C125.141 38.3448 125.426 38.9896 125.74 39.6382C125.897 39.9655 126.062 40.2927 126.231 40.62C126.419 40.982 126.613 41.34 126.811 41.6987C126.985 42.0155 127.163 42.3284 127.342 42.636C127.559 43.011 127.777 43.3776 127.993 43.7323C129.52 46.2471 130.92 48.1734 130.92 48.1734Z" fill="#CC0000"/>
<path d="M96.8646 34.7488C96.8646 34.7488 94.8316 36.5508 96.3102 40.0159C97.7889 43.4811 101.115 48.8876 100.515 51.4292C99.9148 53.9708 104.673 53.6009 104.211 55.3099C103.749 57.019 104.165 63.7647 108.693 63.4649C113.222 63.1651 120.475 49.8118 116.41 45.0526C112.345 40.2934 96.8646 34.7488 96.8646 34.7488Z" fill="#CC0000"/>
<path d="M230.076 107.47C230.076 110.016 217.878 112.248 199.554 113.499C189.671 114.173 178.005 114.563 165.511 114.563C147.045 114.563 130.39 113.712 118.622 112.347C107.666 111.075 100.949 109.359 100.949 107.47C100.949 105.614 107.444 103.923 118.074 102.66C129.871 101.257 146.758 100.378 165.514 100.378C175.313 100.378 184.601 100.618 192.921 101.047C214.874 102.179 230.076 104.63 230.076 107.47Z" fill="#CC0000"/>
<path d="M124.665 47.9477C119.567 46.454 117.087 40.0781 117.087 38.8299C117.087 36.3656 115.948 35.6724 114.608 35.95C114.221 36.0259 113.855 36.1851 113.536 36.4166C113.217 36.6481 112.952 36.9463 112.76 37.2905C110.449 38.5374 106.476 34.6101 104.72 35.6338C102.964 36.6575 101.069 37.1975 99.5909 36.0422C98.1129 34.887 97.5343 36.5462 97.5343 36.5462C97.5899 34.993 98.1738 34.2717 98.1738 34.2717C102.428 29.0969 117.642 36.1201 117.642 36.1201L124.665 47.9477Z" fill="#CC0000" stroke="#CC0000" stroke-width="6" stroke-miterlimit="10"/>
<path d="M157.256 71.7848C157.256 71.7848 119.305 90.1499 111.974 93.9692C104.643 97.7884 86.9308 81.9564 82.6802 79.5837C78.4296 77.2109 76.7658 75.3331 76.0569 74.5934C75.348 73.8538 75.1949 71.4516 75.3794 70.4659C75.564 69.4802 76.2421 70.4044 76.2421 70.4044C76.5812 70.0345 78.1521 71.2356 78.2444 72.838C78.3367 74.4403 79.7845 75.6407 79.7845 75.6407C78.8603 73.8852 79.1686 72.6841 79.1994 71.5439C79.2301 70.4037 80.0306 71.0818 80.0306 71.0818C80.8933 71.2664 81.2324 73.916 81.2324 73.916L86.9923 75.3331C87.9473 75.8567 88.5325 77.0892 88.5325 77.0892C91.1205 79.2453 104.581 81.7096 104.581 81.7096C104.581 81.7096 104.643 74.3133 105.937 66.6768C107.23 59.0402 113.333 53.616 113.333 53.616L112.286 49.9506C112.286 49.9506 111.731 50.8434 108.743 51.0594C105.755 51.2754 103.384 48.1022 103.384 48.1022C100.858 49.3962 101.844 46.3467 101.844 46.3467C101.844 46.3467 99.6257 44.0669 98.1785 40.0631C97.6509 38.6028 97.5082 37.4377 97.539 36.5463C97.539 36.5463 98.1169 34.8877 99.5955 36.0423C101.074 37.1969 102.968 36.6569 104.725 35.6338C106.481 34.6108 110.454 38.5374 112.764 37.2905C112.957 36.9463 113.222 36.6481 113.541 36.4166C113.86 36.1851 114.226 36.0259 114.613 35.95C115.953 35.6724 117.2 36.5044 117.154 37.7526C117.107 39.0008 119.572 46.4541 124.67 47.9477C126.366 47.9196 128.8 48.0387 130.914 48.1729H130.924C133.335 48.3274 135.328 48.5002 135.328 48.5002L133.506 45.052C131.751 45.5606 129.07 44.0827 128.701 43.7128C128.626 43.6376 128.363 43.6559 127.99 43.7272C126.535 44.0054 123.414 45.0874 123.343 44.4983C123.272 43.9092 126.092 43.1165 127.342 42.6309C127.662 42.5065 127.88 42.4018 127.917 42.3265C128.026 42.1066 127.729 41.7891 126.81 41.6936C126.182 41.6281 125.265 41.6667 123.99 41.9109C120.848 42.5111 120.756 40.9402 121.171 41.1254C121.486 41.2655 124.64 40.9291 126.231 40.6155C126.739 40.5161 127.087 40.4192 127.131 40.3406C127.262 40.1148 126.828 39.9787 125.739 39.6357C125.267 39.4865 124.67 39.2986 123.943 39.0466C121.54 38.2153 120.847 35.7196 121.911 36.5515C122.369 36.9102 123.601 37.3546 124.898 37.7185C126.609 38.1983 128.432 38.5374 128.749 38.3535C129.303 38.0262 125.607 33.9641 126.115 33.178C126.623 32.3919 132.029 38.8156 132.726 38.6761C133.422 38.5367 132.957 37.3363 133.604 36.181C134.25 35.0258 135.73 35.3033 134.943 36.5967C134.157 37.89 134.959 42.0948 134.959 42.0948C134.959 42.0948 149.252 49.118 158.863 59.2215C168.474 69.325 157.256 71.7848 157.256 71.7848Z" fill="white" stroke="#CC0000" stroke-width="0.5" stroke-miterlimit="10"/>
<path d="M109.554 65.7237C109.554 65.7237 111.281 70.0961 113.129 69.5855C114.978 69.075 116.838 69.778 116.838 69.778L112.066 71.1414C112.066 71.1414 109.909 69.9462 109.554 65.7237Z" fill="#CC0000"/>
<path d="M104.581 81.8835C104.581 81.8835 108.955 82.538 111.388 84.5122C111.388 84.5122 112.589 84.6359 110.433 82.4791C108.277 80.3224 105.486 80.0134 104.818 76.3794L104.581 81.8835Z" fill="#CC0000"/>
<path d="M199.554 113.364C189.671 114.039 178.006 114.429 165.511 114.429C147.045 114.429 130.39 113.578 118.622 112.212C118.35 109.185 118.128 105.819 118.072 102.525C118.037 100.43 118.067 98.3643 118.196 96.4334C118.196 96.4334 118.012 89.4095 114.993 84.9737C111.974 80.5379 111.79 79.306 111.173 73.5768C111.173 73.5768 108.017 68.423 107.562 61.5739L108.353 60.0298C108.353 60.0298 109.756 69.3564 112.066 71.1433C112.066 71.1433 114.685 70.1261 119.336 69.2634C123.987 68.4007 121.585 67.3567 129.933 63.4733C129.933 63.4733 127.118 53.4916 128.231 48.0262H129.532C129.532 48.0262 128.701 49.7208 129.856 54.9414C131.01 60.162 132.027 63.2128 132.027 63.2128C132.027 63.2128 134.892 64.1128 135.155 63.4661C135.155 63.4661 148.07 74.4723 158.207 71.4993L160.675 79.7086C160.675 79.7086 181.345 88.7792 192.919 100.916C195.788 103.927 198.098 107.121 199.399 110.415C199.816 111.479 199.853 112.46 199.554 113.364Z" fill="#CDEFF8" stroke="#CC0000" stroke-width="0.5" stroke-miterlimit="10"/>
<path d="M133.598 62.0563L135.155 63.4649" stroke="#CC0000" stroke-width="0.5" stroke-miterlimit="10"/>
<path d="M160.675 79.7073C160.675 79.7073 159.197 83.2189 154.853 87.0997" stroke="#CC0000" stroke-width="0.5" stroke-miterlimit="10"/>
<path d="M153.19 88.209C153.19 88.209 138.219 99.7603 121.03 97.5421" stroke="#CC0000" stroke-width="0.5" stroke-miterlimit="10"/>
<path d="M135.323 48.5027L135.57 48.6415C137.795 52.8561 143.912 63.6481 150.509 66.1223C150.509 66.1223 145.75 68.2483 142.701 63.766C139.651 59.2837 138.389 58.5584 135.323 48.5027Z" fill="#CC0000"/>
<path d="M158.822 73.5449C158.822 73.5449 156.749 79.3644 145.59 69.9017C145.59 69.9017 154.399 73.6398 158.207 71.4981L158.822 73.5449Z" fill="#CC0000"/>
<path d="M112.292 49.5395C112.292 49.5395 114.213 48.0302 115.229 46.3362C116.246 44.6422 113.699 50.1044 113.545 53.6468L112.292 49.5395Z" fill="#CC0000"/>
<path d="M115.312 38.6781C115.312 38.6781 115.43 37.7925 115.246 37.3075" stroke="#CC0000" stroke-width="6" stroke-miterlimit="10" stroke-linecap="round"/>
<path d="M114.496 37.2295C114.49 37.1784 115.464 36.9447 116.086 37.9149" stroke="#CC0000" stroke-width="6" stroke-miterlimit="10" stroke-linecap="round"/>
<path d="M76.2415 70.4042C76.2415 70.4042 76.6931 73.2076 76.7343 74.1311C76.7756 75.0547 79.2772 77.4339 79.2772 77.4339" fill="white"/>
<path d="M76.2415 70.4042C76.2415 70.4042 76.6931 73.2076 76.7343 74.1311C76.7756 75.0547 79.2772 77.4339 79.2772 77.4339" stroke="#CC0000" stroke-width="0.5" stroke-miterlimit="10"/>
<path d="M34.2441 27.2131C34.2441 27.2131 46.1758 15.9007 65.8853 8.52861C97.6469 -3.34932 147.064 -7.38849 180.215 44.6762" stroke="#CC0000" stroke-width="0.5" stroke-miterlimit="10" stroke-linecap="round"/>
</svg>
