<svg width="270" height="191" viewBox="0 0 270 191" fill="none" xmlns="http://www.w3.org/2000/svg">
<path d="M118.081 189.795C118.081 189.795 5.55433 208.953 11.1006 94.4971C16.6469 -19.9587 125.657 -1.94842 150.965 15.5341C181.726 36.7847 190.889 32.4363 217.363 54.5238C258.708 89.02 245.755 167.625 118.081 189.795Z" fill="#DFF5FB"/>
<path d="M269.204 163.267C269.204 166.646 254.689 169.622 232.692 171.352C220.973 172.274 207.132 172.843 192.233 172.931C190.878 172.94 189.515 172.944 188.144 172.944C185.81 172.944 183.501 172.932 181.217 172.908C170.658 172.802 160.677 172.453 151.661 171.91C125.218 170.317 107.083 167.044 107.083 163.267C107.083 159.38 126.297 156.024 154.01 154.487C158.588 154.232 163.398 154.028 168.391 153.882C170.919 153.808 173.493 153.747 176.112 153.699C180.039 153.628 184.049 153.593 188.143 153.593C203.034 153.593 216.988 154.072 228.978 154.909C253.04 156.584 269.204 159.7 269.204 163.267Z" fill="#CC0000"/>
<path d="M233.07 170.963L232.691 171.079C220.973 172.001 207.132 172.57 192.233 172.658C187.469 165.221 181.808 160.375 181.808 160.375L181.216 172.639C170.658 172.532 160.677 172.183 151.661 171.64L150.688 158.301C150.688 158.301 151.905 156.747 154.01 154.217C164.892 141.139 199.496 102.077 211.975 118.204L212.034 118.284C212.991 119.521 213.91 120.818 214.793 122.16L214.799 122.169C215.62 123.418 216.411 124.703 217.173 126.025C222.52 135.28 226.395 145.994 228.979 154.64C231.784 164.014 233.07 170.963 233.07 170.963Z" fill="#DFF5FB" stroke="#CC0000" stroke-width="0.5" stroke-miterlimit="10"/>
<path d="M211.887 123.543C211.887 123.543 228.909 153.65 226.724 171.171L232.761 170.826C232.761 170.826 225.967 137.898 213.908 121.469L211.887 123.543Z" fill="white"/>
<path d="M204.785 139.047C204.785 139.047 212.283 144.877 223.978 140.494" stroke="#CC0000" stroke-width="0.5" stroke-miterlimit="10" stroke-linecap="round"/>
<path d="M207.444 128.542C207.444 128.542 200.126 151.201 151.049 163.267L150.686 153.59L207.444 128.542Z" fill="#CC0000"/>
<path d="M63.8816 154.714C63.8816 154.714 63.3462 156 58.1981 157.745C52.2943 159.747 48.4606 159.761 48.7093 160.365C48.958 160.969 50.0341 161.42 50.0341 161.42C50.0341 161.42 48.3276 161.982 47.6971 162.025C47.0667 162.067 48.0763 164.116 49.9547 163.573C49.9547 163.573 48.0383 164.351 47.6868 164.4C47.3353 164.449 46.5373 165.143 47.3741 165.712C48.211 166.28 49.351 165.919 49.351 165.919C49.351 165.919 47.9692 166.696 48.7845 167.095C49.5997 167.494 51.0178 167.65 60.4694 164.422C60.4694 164.422 62.8962 163.213 62.9834 163.882C63.0707 164.55 61.9471 166.009 60.3856 167.018C58.8242 168.028 59.8277 168.913 62.2951 168.336C64.7625 167.759 69.1178 164.138 69.9996 160.506C70.8814 156.873 63.8816 154.714 63.8816 154.714Z" fill="white" stroke="#CC0000" stroke-width="0.5" stroke-miterlimit="10"/>
<path d="M64.7308 157.508C64.7308 157.508 65.7379 160.319 66.9107 161.352C68.0835 162.385 67.1231 165.188 67.1231 165.188C67.1231 165.188 69.9067 162.21 70.0595 159.583C70.2124 156.957 64.7308 157.508 64.7308 157.508Z" fill="#CC0000"/>
<path d="M49.3503 165.917C49.3503 165.917 55.1116 163.637 56.8303 162.522" stroke="#CC0000" stroke-width="0.5" stroke-miterlimit="10" stroke-linecap="round"/>
<path d="M49.9535 163.57C49.9535 163.57 53.2794 162.266 55.9057 160.8" stroke="#CC0000" stroke-width="0.5" stroke-miterlimit="10" stroke-linecap="round"/>
<path d="M50.033 161.42C50.033 161.42 53.2284 160.729 54.8805 159.769" stroke="#CC0000" stroke-width="0.5" stroke-miterlimit="10" stroke-linecap="round"/>
<path d="M65.2898 150.737L62.5615 154.823C62.5615 154.823 68.3315 162.967 71.9406 161.732L76.6396 156.837L65.2898 150.737Z" fill="#DFF5FB" stroke="#CC0000" stroke-width="0.5" stroke-miterlimit="10"/>
<path d="M89.0964 55.5583C89.0964 55.5583 91.2996 62.5088 94.1444 65.3001C94.1444 65.3001 93.2471 68.2045 95.1091 68.6087C96.2102 68.8479 97.903 67.7943 97.903 67.7943C97.903 67.7943 101.685 71.8732 106.645 69.4982C108.539 68.5914 109.304 67.8236 109.559 67.5119C109.571 67.4979 109.586 67.4871 109.603 67.4808C109.62 67.4744 109.639 67.4726 109.657 67.4756C109.675 67.4785 109.692 67.4862 109.706 67.4977C109.72 67.5092 109.731 67.5242 109.737 67.5412L113.682 77.4955C113.682 77.4955 116.685 85.1292 119.146 83.0159C122.188 80.4042 128.554 66.7251 130.449 63.179L114.09 52.6548C114.09 52.6548 117.558 47.9911 115.024 44.5539C112.49 41.1166 108.815 41.8317 108.103 43.6289C107.39 45.4261 105.626 39.1726 99.8539 41.9751C94.0822 44.7776 89.0964 55.5583 89.0964 55.5583Z" fill="white" stroke="#CC0000" stroke-width="0.5" stroke-miterlimit="10"/>
<path d="M99.5662 45.4419C99.5662 45.4419 95.6565 57.7919 82.7762 55.9895C76.0226 55.0395 80.922 39.2436 89.9306 35.2044C92.1147 34.2259 94.6331 34.5601 96.5961 35.9281C97.6696 36.676 99.3597 36.8289 101.555 33.7595C103.909 30.4656 106.874 33.1601 109.016 37.1674C111.141 41.1444 111.357 42.1661 111.357 42.1661C111.357 42.1661 106.936 41.7343 108.348 48.0026C109.373 52.5531 107.947 53.5938 106.638 52.7388C105.33 51.8838 100.961 42.4425 99.5662 45.4419Z" fill="#CC0000"/>
<path d="M111.567 47.9308C111.567 47.9308 112.086 46.0869 111.846 45.0031" stroke="#CC0000" stroke-width="6" stroke-miterlimit="10" stroke-linecap="round"/>
<path d="M110.275 44.6134C110.275 44.5028 112.417 44.3025 113.442 46.5506" stroke="#CC0000" stroke-width="6" stroke-miterlimit="10" stroke-linecap="round"/>
<path d="M109.378 67.283C110.409 66.3577 111.36 65.3465 112.22 64.2603C112.285 64.1805 112.373 64.1236 112.473 64.098C112.572 64.0724 112.677 64.0796 112.772 64.1184C112.867 64.1572 112.947 64.2255 112.999 64.3133C113.052 64.4011 113.076 64.5037 113.066 64.6058C112.83 66.8573 112.461 70.8809 112.408 74.2785L109.378 67.283Z" fill="#CC0000"/>
<path d="M129.442 60.6771C129.442 60.6771 156.343 58.3453 183.952 81.5158C211.562 104.686 215.024 119.491 215.024 119.491C215.024 119.491 188.979 157.478 144.891 158.67L130.346 134.3C130.346 134.3 120.201 131.686 111.518 123.543C111.518 123.543 90.0373 149.745 76.1613 159.316C76.1613 159.316 70.8136 159.252 64.0876 150.598C64.0876 150.598 87.4058 116.908 94.9677 100.41C102.53 83.9123 105.736 76.372 108.7 75.7294C111.664 75.0869 118.383 78.493 118.383 78.493L129.442 60.6771Z" fill="#FFE1E1" stroke="#CC0000" stroke-width="0.5" stroke-miterlimit="10"/>
<path d="M108.85 106.686C108.85 106.686 105.684 103.541 104.906 100.507C104.128 97.4732 100.896 89.2937 95.1112 93.0169C95.1112 93.0169 94.6276 93.0946 95.0948 93.7536C95.5621 94.4125 97.209 95.017 96.8808 95.5257C96.5527 96.0344 94.9541 97.4309 93.878 96.3289C92.8019 95.2269 92.7552 94.5265 92.1006 94.8374C91.446 95.1483 89.7265 96.1234 90.1021 97.3739C90.4778 98.6244 92.8442 103.541 94.3642 104.797C95.8842 106.053 103.045 110.583 103.804 111.839C104.562 113.095 108.85 106.686 108.85 106.686Z" fill="white" stroke="#CC0000" stroke-width="0.5" stroke-miterlimit="10"/>
<path d="M108.902 111.935L112.298 116.194L108.04 112.471L104.881 115.306L101.702 111.478C101.702 111.478 108.162 106.607 108.741 104.709L113.75 107.31C112.482 109.273 108.902 111.935 108.902 111.935Z" fill="#DFF5FB" stroke="#CC0000" stroke-width="0.5" stroke-miterlimit="10"/>
<path d="M113.751 107.314C113.912 107.078 114.039 106.821 114.13 106.55C114.13 106.55 127.288 110.931 136.532 111.946C136.532 111.946 122.496 86.9872 130.746 60.7551" stroke="#CC0000" stroke-width="0.5" stroke-miterlimit="10" stroke-linecap="round"/>
<path d="M104.882 115.306L104.778 115.398C107.155 118.985 111.515 123.543 111.515 123.543" stroke="#CC0000" stroke-width="0.5" stroke-miterlimit="10" stroke-linecap="round"/>
<path d="M136.533 111.943C136.533 111.943 142.153 111.822 147.89 116.156C147.89 116.156 150.662 117.912 145.83 111.425C140.998 104.939 136.004 109.463 131.616 99.9226C131.616 99.9226 133.858 106.72 136.533 111.943Z" fill="#CC0000"/>
<path d="M130.347 134.3C130.347 134.3 149.235 142.634 156.304 126.708C163.373 110.782 163.632 90.4078 163.632 90.4078C163.632 90.4078 163.946 87.9516 164.237 95.0326C164.528 102.114 164.059 113.384 164.809 116.569C166.543 123.928 158.273 143.698 130.347 134.3Z" fill="#CC0000"/>
<path d="M108.547 95.4549L116.296 107.237" stroke="#CC0000" stroke-width="0.5" stroke-miterlimit="10" stroke-linecap="round"/>
<path d="M163.572 155.878L148.545 134.969" stroke="#CC0000" stroke-width="0.5" stroke-miterlimit="10" stroke-linecap="round"/>
<path d="M118.382 78.4888C118.382 78.4888 126.031 97.9663 134.988 111.747" stroke="#CC0000" stroke-width="0.5" stroke-miterlimit="10" stroke-linecap="round"/>
<path d="M174.144 119.247C174.144 119.247 187.857 123.978 195.762 117.347C195.762 117.347 196.094 116.15 194.455 116.369C192.816 116.587 190.482 119.234 185.631 118.163C180.78 117.092 177.908 118.373 174.144 119.247Z" fill="#CC0000"/>
<path d="M96.184 94.2267L92.2415 89.5225C92.1501 89.4133 92.0208 89.3427 91.8796 89.3248C91.7384 89.3068 91.5956 89.3429 91.4798 89.4258L89.9399 90.526C89.8773 90.5707 89.8244 90.6278 89.7846 90.6937C89.7448 90.7596 89.7189 90.8329 89.7085 90.9092C89.698 90.9855 89.7033 91.063 89.7239 91.1372C89.7446 91.2114 89.7802 91.2805 89.8285 91.3404L94.2615 96.8271C94.2615 96.8271 97.5321 96.536 96.184 94.2267Z" fill="#CC0000"/>
<path d="M89.9394 87.2564L92.2582 90.4631L90.6977 91.5504L88.4022 88.5657L89.9394 87.2564Z" fill="#CC0000"/>
<path d="M89.7194 87.4205C91.6138 85.8755 91.1049 82.1162 88.5829 79.0239C86.0608 75.9315 82.4806 74.6772 80.5863 76.2222C78.6919 77.7672 79.2008 81.5265 81.7228 84.6188C84.2449 87.7111 87.8251 88.9655 89.7194 87.4205Z" stroke="#CC0000" stroke-width="0.5" stroke-miterlimit="10"/>
<path d="M89.2775 86.8797C90.8732 85.5783 90.3197 82.2586 88.0412 79.4649C85.7628 76.6712 82.6221 75.4615 81.0265 76.7629C79.4308 78.0644 79.9843 81.3841 82.2627 84.1777C84.5412 86.9714 87.6818 88.1811 89.2775 86.8797Z" stroke="#CC0000" stroke-width="0.5" stroke-miterlimit="10"/>
<path d="M80.7906 76.9715C80.7906 76.9715 87.368 77.1814 89.0279 84.6682C89.1458 85.1848 89.156 85.7201 89.0582 86.2409C88.9975 86.5866 88.8689 86.9168 88.6799 87.2125" stroke="#CC0000" stroke-width="0.5" stroke-miterlimit="10"/>
<path d="M81.3034 75.7303C81.3034 75.7303 78.2582 76.4782 78.6027 80.2161C78.9473 83.9539 82.1264 87.3393 84.9073 88.3748C84.9073 88.3748 88.4008 89.5278 90.1609 86.9489" stroke="#CC0000" stroke-width="0.5" stroke-miterlimit="10"/>
<path d="M126.602 59.6996L118.382 78.4888C118.382 78.4888 123.362 74.447 128.304 76.5966L130.914 59.6218L126.602 59.6996Z" fill="#CC0000"/>
<path d="M110.067 72.5425L118.384 78.4887C118.384 78.4887 113.94 79.6114 113.007 84.0807L106.357 75.9936L110.067 72.5425Z" fill="#CC0000"/>
<path d="M130.347 134.3C130.347 134.3 151.585 144.912 158.408 121.304C165.231 97.6969 163.635 90.4061 163.635 90.4061" stroke="#CC0000" stroke-width="0.5" stroke-miterlimit="10" stroke-linecap="round"/>
<path d="M129.003 25.6138L129.136 25.1457C129.377 24.181 130.081 23.2457 131.339 22.5427C132.477 21.8915 133.167 21.3716 133.46 20.5857C133.791 19.6936 133.453 18.8912 132.359 18.4646C131.73 18.2305 130.952 18.1796 130.391 18.3497L130.382 17.0923C131.132 16.8936 132.215 16.9783 133.145 17.3229C135.155 18.0708 135.603 19.6504 135.109 20.9786C134.666 22.167 133.677 22.7923 132.474 23.4616C131.366 24.0843 130.794 24.7665 130.515 25.6777L130.37 26.1207L129.003 25.6138ZM128.312 29.3965C127.717 29.1745 127.473 28.5475 127.701 27.9352C127.942 27.2892 128.547 26.9965 129.16 27.2245C129.772 27.4525 130.023 28.063 129.782 28.709C129.554 29.3214 128.976 29.6435 128.329 29.4L128.312 29.3965Z" fill="#CC0000"/>
<path d="M100.388 20.9697V20.4835C100.361 19.4894 100.791 18.403 101.814 17.3865C102.736 16.4546 103.263 15.7698 103.334 14.9338C103.416 13.9838 102.876 13.3032 101.706 13.184C101.038 13.1271 100.275 13.286 99.7805 13.5995L99.4351 12.3904C100.105 11.9983 101.171 11.7901 102.156 11.8722C104.293 12.0553 105.146 13.4578 105.024 14.8699C104.917 16.1334 104.131 17.0022 103.15 17.9669C102.249 18.8625 101.88 19.6734 101.854 20.626L101.833 21.0915L100.388 20.9697ZM100.733 24.7999C100.1 24.7455 99.6967 24.2058 99.7537 23.5546C99.8125 22.868 100.319 22.4241 100.969 22.4802C101.619 22.5364 102.024 23.058 101.965 23.7446C101.909 24.3949 101.439 24.8604 100.756 24.8008L100.733 24.7999Z" fill="#CC0000"/>
<path d="M70.7854 35.0135L70.4114 34.7017C69.6255 34.0971 69.0564 33.0729 68.9174 31.6375C68.7792 30.3334 68.5823 29.4922 67.9803 28.9076C67.298 28.2443 66.4258 28.2305 65.5958 29.0604C65.1277 29.5415 64.7676 30.2332 64.6976 30.8145L63.543 30.3161C63.6639 29.5492 64.1769 28.5889 64.8661 27.8841C66.361 26.3451 67.9864 26.5723 69.0029 27.5603C69.9123 28.4438 70.0876 29.6019 70.2119 30.9716C70.3354 32.236 70.7301 33.0349 71.4504 33.6575L71.7958 33.9693L70.7854 35.0135ZM73.9687 37.1725C73.5266 37.6277 72.8538 37.5983 72.3857 37.1432C71.8908 36.6621 71.8675 35.9902 72.3235 35.5213C72.7795 35.0523 73.4376 35.0705 73.9325 35.5515C74.4006 36.0058 74.4627 36.6647 73.9817 37.1596L73.9687 37.1725Z" fill="#CC0000"/>
<path d="M72.8254 173.171H91.0481" stroke="#CC0000" stroke-width="0.5" stroke-miterlimit="10" stroke-linecap="round"/>
<path d="M5.63989 165.188H10.5004" stroke="#CC0000" stroke-width="0.5" stroke-miterlimit="10" stroke-linecap="round"/>
<path d="M20.9141 172.702H36.95" stroke="#CC0000" stroke-width="0.5" stroke-miterlimit="10" stroke-linecap="round"/>
<path d="M32.489 165.916H37.3496" stroke="#CC0000" stroke-width="0.5" stroke-miterlimit="10" stroke-linecap="round"/>
<path d="M72.8254 166.255H77.686" stroke="#CC0000" stroke-width="0.5" stroke-miterlimit="10" stroke-linecap="round"/>
<path d="M10.5012 131.087C10.5012 131.087 -14.5425 14.7819 77.4242 1" stroke="#CC0000" stroke-width="0.5" stroke-miterlimit="10" stroke-linecap="round"/>
<g clip-path="url(#clip0)">
<path d="M41.8576 180.045L29.0872 136.645C28.7582 135.552 27.7499 134.801 26.6097 134.801H24.9069C23.7644 134.801 22.7582 135.55 22.4294 136.645L9.65471 180.045H7.47583C5.68331 180.045 4.23022 181.498 4.23022 183.291C4.23022 185.083 5.68331 186.536 7.47583 186.536H44.2593C46.0518 186.536 47.5049 185.083 47.5049 183.291C47.5049 181.498 46.0518 180.045 44.2593 180.045H41.8576Z" fill="#FF9F33"/>
<path d="M12.2019 171.39H39.3107L36.7641 162.735H14.7496L12.2019 171.39Z" fill="#FFEAD2"/>
<path d="M17.2974 154.08H34.2176L31.6709 145.425H19.845L17.2974 154.08Z" fill="#FFEAD2"/>
<path d="M44.2593 180.045C30.5304 180.045 21.2894 180.045 7.47583 180.045C5.68331 180.045 4.23022 181.498 4.23022 183.291C4.23022 185.083 5.68331 186.536 7.47583 186.536H44.2593C46.0518 186.536 47.5049 185.083 47.5049 183.291C47.5049 181.498 46.0517 180.045 44.2593 180.045Z" fill="#E47900"/>
</g>
<path d="M159.972 28.3675L159.145 26.0002L151.771 28.5766C151.107 28.8087 150.575 29.2842 150.271 29.9162C149.964 30.552 149.923 31.2639 150.155 31.9281C150.387 32.5923 150.862 33.1237 151.498 33.4303C152.13 33.735 152.842 33.7761 153.506 33.5441L159.217 31.5487C159.198 31.511 159.18 31.4694 159.168 31.4258L158.722 30.158C158.609 29.8344 158.629 29.4899 158.778 29.1796C158.926 28.8732 159.183 28.6432 159.505 28.534L159.972 28.3675Z" fill="#CC0000"/>
<path d="M175.411 25.7092C175.295 25.6062 175.137 25.5724 174.989 25.6239L171.655 26.792L169.746 25.0831L170.176 22.557L173.512 21.3945C173.659 21.343 173.764 21.214 173.789 21.0653C173.815 20.9128 173.758 20.7577 173.638 20.6624C172.149 19.4628 170.189 19.122 168.395 19.7488C166.488 20.4152 165.128 22.0399 164.799 24.0245L163.493 24.4807L164.317 26.8462L164.78 26.6873C165.11 26.5723 165.452 26.5959 165.755 26.7418C166.061 26.8895 166.295 27.1486 166.406 27.4666L166.853 28.7534C166.918 28.9313 166.94 29.1211 166.916 29.3078C168.369 30.3957 170.274 30.705 172.011 30.0981C173.805 29.4713 175.126 27.9841 175.544 26.1181C175.578 25.9692 175.527 25.8121 175.411 25.7092Z" fill="#CC0000"/>
<path d="M157.206 20.0467L158.227 20.808L160.773 28.0878L163.515 27.1299L160.974 19.848L161.299 18.6167C161.326 18.5022 161.309 18.3807 161.247 18.2846L159.356 15.2536C159.253 15.0858 159.043 15.0127 158.856 15.0782L156.914 15.7565C156.727 15.822 156.608 16.0101 156.631 16.2056L157.04 19.7543C157.051 19.8683 157.113 19.9739 157.206 20.0467Z" fill="#CC0000"/>
<path d="M166.049 29.0313L165.605 27.7502C165.527 27.5288 165.286 27.4124 165.061 27.4879L159.785 29.3344C159.563 29.4117 159.447 29.653 159.524 29.8744L159.975 31.1536C160.05 31.3789 160.291 31.4952 160.515 31.414L160.916 31.277L161.303 32.384L160.903 32.5267C160.682 32.6041 160.566 32.8454 160.643 33.0668L162.341 37.9359C162.625 38.7477 163.206 39.4012 163.984 39.7761C164.758 40.1491 165.631 40.1974 166.443 39.9138C168.118 39.3287 169.006 37.4863 168.421 35.8116L166.717 30.9445C166.684 30.8385 166.604 30.7484 166.505 30.7003C166.401 30.6505 166.285 30.6464 166.177 30.6841L165.776 30.8211L165.389 29.7141L165.789 29.5714C166.014 29.4959 166.13 29.2546 166.049 29.0313Z" fill="#CC0000"/>
<defs>
<clipPath id="clip0">
<rect width="51.7352" height="51.7352" fill="white" transform="translate(-0.000244141 134.801)"/>
</clipPath>
</defs>
</svg>
