<svg width="22" height="20" viewBox="0 0 22 20" fill="none" xmlns="http://www.w3.org/2000/svg">
<path d="M1.14546 19.6047C1.39889 19.6047 1.66244 19.5134 1.98682 19.331L7.14648 16.5535L12.7522 19.6959C13.1171 19.8986 13.5124 20 13.8875 20C14.2423 20 14.5971 19.9088 14.9012 19.7364L20.2027 16.7258C20.8109 16.3913 21.0846 15.9047 21.0846 15.2255V1.57121C21.0846 0.821085 20.669 0.405474 19.9392 0.405474C19.6858 0.405474 19.4222 0.486569 19.0877 0.669032L13.7152 3.6594L8.21085 0.283832C7.8966 0.101368 7.54181 0 7.18703 0C6.8221 0 6.45717 0.101368 6.14293 0.283832L0.871769 3.28434C0.273695 3.62899 0 4.11556 0 4.79473V18.4288C0 19.1789 0.415611 19.6047 1.14546 19.6047ZM6.48758 14.9417L1.91586 17.4557C1.86518 17.4759 1.8145 17.5063 1.76381 17.5063C1.68272 17.5063 1.63203 17.4455 1.63203 17.3441V5.19007C1.63203 4.94678 1.72326 4.77446 1.96655 4.63254L6.12266 2.1997C6.25444 2.12874 6.36594 2.06792 6.48758 1.99696V14.9417ZM8.11962 15.1039V2.20983C8.22098 2.27065 8.34263 2.33148 8.44399 2.3923L12.965 5.14952V17.8206C12.8231 17.7395 12.6711 17.6685 12.519 17.5874L8.11962 15.1039ZM14.5971 18.003V5.04815L19.1688 2.55449C19.2195 2.52408 19.2701 2.5038 19.3107 2.5038C19.4019 2.5038 19.4526 2.56462 19.4526 2.66599V14.8201C19.4526 15.0735 19.3512 15.2458 19.1181 15.3877L15.0532 17.7496C14.9012 17.8409 14.7491 17.9321 14.5971 18.003Z" fill="#B72F47"/>
</svg>
