<svg width="21" height="24" viewBox="0 0 21 24" fill="none" xmlns="http://www.w3.org/2000/svg">
<path d="M0.5 10.0561C0.5 4.50229 5.00229 0 10.5562 0C16.11 0 20.6123 4.50229 20.6123 10.0561C20.6123 12.7979 19.5089 15.366 17.5928 17.2402L11.0302 23.8036C10.7684 24.0655 10.3439 24.0655 10.0821 23.8036L3.50738 17.2289C1.59659 15.3505 0.5 12.7895 0.5 10.0561Z" fill="#CC0000"/>
<path d="M10.5562 14.749C7.96441 14.749 5.86334 12.648 5.86334 10.0562C5.86334 7.46435 7.96441 5.36328 10.5562 5.36328C13.148 5.36328 15.2491 7.46435 15.2491 10.0562C15.2491 12.648 13.148 14.749 10.5562 14.749Z" fill="white"/>
</svg>
