<svg width="25" height="14" viewBox="0 0 25 14" fill="none" xmlns="http://www.w3.org/2000/svg">
<path d="M12.042 1.64032C9.08705 1.64032 6.68286 4.04451 6.68286 6.9995C6.68286 9.95448 9.08705 12.3587 12.042 12.3587C14.997 12.3587 17.4012 9.95348 17.4012 6.9995C17.4012 4.04552 14.996 1.64032 12.042 1.64032ZM12.042 11.5536C9.53131 11.5536 7.48895 9.51124 7.48895 6.9995C7.48895 4.48877 9.53131 2.44641 12.042 2.44641C14.5538 2.44641 16.5961 4.48877 16.5961 6.9995C16.5961 9.51124 14.5538 11.5536 12.042 11.5536Z" fill="#75C1D4"/>
<path d="M23.1605 0H0.922679C0.4141 0 0 0.4141 0 0.923685V13.0763C0 13.5859 0.4141 14 0.922679 14H23.1605C23.67 14 24.0841 13.5859 24.0841 13.0763V0.923685C24.0841 0.4141 23.67 0 23.1605 0ZM21.6066 13.1949H2.47756C2.31474 12.3697 1.65741 11.7375 0.804078 11.5837V2.41525C1.65741 2.26147 2.31373 1.62926 2.47756 0.804078H21.6056C21.7684 1.62926 22.4257 2.26147 23.2791 2.41525V11.5837C22.4257 11.7375 21.7694 12.3697 21.6066 13.1949ZM23.2791 0.923685V1.57599C22.879 1.4594 22.5805 1.18199 22.4509 0.805083H23.1595C23.2258 0.804078 23.2791 0.857348 23.2791 0.923685ZM0.922679 0.804078H1.63228C1.50363 1.18099 1.20411 1.4584 0.805083 1.57499V0.923685C0.805083 0.857348 0.858353 0.804078 0.922679 0.804078ZM0.805083 13.0753V12.423C1.20511 12.5396 1.50363 12.817 1.63328 13.1939H0.922679C0.858353 13.1949 0.805083 13.1416 0.805083 13.0753ZM23.1605 13.1949H22.4519C22.5805 12.818 22.88 12.5406 23.2801 12.424V13.0763C23.2791 13.1416 23.2258 13.1949 23.1605 13.1949Z" fill="#75C1D4"/>
<path d="M10.8481 4.53903C11.024 4.53903 11.1828 4.56818 11.3235 4.62447C11.4642 4.68176 11.5848 4.75915 11.6863 4.85865C11.7868 4.95715 11.8642 5.07173 11.9175 5.2024C11.9708 5.33205 11.9969 5.47277 11.9969 5.62253C11.9969 5.8537 11.9486 6.05271 11.8511 6.22156C11.7537 6.39042 11.5958 6.51807 11.3757 6.60652V6.61757C11.4823 6.64672 11.5697 6.69195 11.6401 6.75226C11.7094 6.81256 11.7667 6.88392 11.8099 6.96634C11.8542 7.04876 11.8863 7.13922 11.9064 7.23872C11.9265 7.33722 11.9406 7.43673 11.9476 7.53623C11.9517 7.59855 11.9547 7.67192 11.9587 7.75534C11.9627 7.83977 11.9687 7.92621 11.9778 8.01365C11.9868 8.1011 12.0019 8.18553 12.022 8.26392C12.0421 8.34232 12.0723 8.40966 12.1125 8.46394H11.2501C11.2029 8.34031 11.1727 8.19156 11.1627 8.01868C11.1516 7.84681 11.1345 7.68197 11.1134 7.52417C11.0843 7.31813 11.0219 7.16837 10.9265 7.07288C10.831 6.9774 10.6752 6.93016 10.4591 6.93016H9.5947V8.46293H8.73132V4.53903H10.8481ZM10.5395 6.31504C10.7375 6.31504 10.8863 6.27081 10.9848 6.18337C11.0833 6.09492 11.1335 5.9522 11.1335 5.75419C11.1335 5.56423 11.0843 5.42553 10.9848 5.33909C10.8863 5.25265 10.7375 5.20943 10.5395 5.20943H9.5947V6.31403L10.5395 6.31504Z" fill="#75C1D4"/>
<path d="M13.3598 5.62253V5.98537H13.3709C13.4663 5.83159 13.587 5.72002 13.7337 5.65067C13.8804 5.58132 14.0413 5.54614 14.2172 5.54614C14.4403 5.54614 14.6333 5.58836 14.7941 5.67279C14.9549 5.75721 15.0886 5.86878 15.1951 6.00748C15.3017 6.14719 15.38 6.30901 15.4313 6.49395C15.4826 6.67889 15.5087 6.87187 15.5087 7.07389C15.5087 7.26486 15.4826 7.44779 15.4313 7.62368C15.38 7.79957 15.3027 7.95536 15.1981 8.09105C15.0936 8.22674 14.9629 8.33529 14.8081 8.4157C14.6524 8.4961 14.4704 8.53631 14.2614 8.53631C14.0855 8.53631 13.9237 8.50113 13.7749 8.42876C13.6262 8.3574 13.5045 8.25186 13.4091 8.11316H13.398V9.45999H12.618V5.62253H13.3598ZM14.3739 7.87696C14.4604 7.8257 14.5297 7.75836 14.583 7.67594C14.6363 7.59353 14.6735 7.49704 14.6956 7.38748C14.7177 7.27792 14.7287 7.16535 14.7287 7.05178C14.7287 6.9382 14.7167 6.82664 14.6936 6.71608C14.6694 6.60652 14.6302 6.50802 14.575 6.42158C14.5207 6.33514 14.4493 6.26579 14.3629 6.21252C14.2765 6.15925 14.1719 6.13312 14.0473 6.13312C13.9186 6.13312 13.8121 6.15925 13.7257 6.21252C13.6392 6.26579 13.5699 6.33414 13.5166 6.41857C13.4633 6.503 13.4261 6.59948 13.404 6.71005C13.3819 6.82061 13.3709 6.93418 13.3709 7.05077C13.3709 7.16435 13.3829 7.27592 13.406 7.38648C13.4302 7.49603 13.4684 7.59252 13.5216 7.67494C13.5749 7.75736 13.6453 7.8247 13.7337 7.87596C13.8211 7.92722 13.9277 7.95235 14.0523 7.95235C14.181 7.95335 14.2875 7.92822 14.3739 7.87696Z" fill="#75C1D4"/>
</svg>
