<svg width="37" height="24" viewBox="0 0 37 24" fill="none" xmlns="http://www.w3.org/2000/svg">
<path d="M8.69654 24.0002C7.29554 24.0002 5.95192 23.4437 4.96126 22.453C3.97061 21.4624 3.41406 20.1188 3.41406 18.7178C3.41411 18.5196 3.42702 18.3216 3.45271 18.1251C3.46297 18.0396 3.49028 17.957 3.53301 17.8822C3.57575 17.8074 3.63304 17.742 3.70151 17.6897C3.76998 17.6375 3.84823 17.5995 3.93164 17.578C4.01505 17.5565 4.10191 17.552 4.18711 17.5646C4.35605 17.5856 4.50984 17.6725 4.61486 17.8065C4.71987 17.9405 4.76758 18.1106 4.74756 18.2797C4.73795 18.4256 4.73795 18.5719 4.74756 18.7178C4.74756 19.777 5.16837 20.7929 5.9174 21.542C6.66643 22.291 7.68234 22.7118 8.74163 22.7118C9.80092 22.7118 10.8168 22.291 11.5659 21.542C12.3149 20.7929 12.7357 19.777 12.7357 18.7178C12.7453 18.5719 12.7453 18.4256 12.7357 18.2797C12.7129 18.1236 12.7482 17.9646 12.8349 17.8328C12.9216 17.701 13.0536 17.6056 13.206 17.5646C13.375 17.5446 13.5451 17.5923 13.6791 17.6973C13.8131 17.8024 13.9001 17.9561 13.921 18.1251C13.9467 18.3216 13.9596 18.5196 13.9597 18.7178C13.9597 20.1154 13.4058 21.4561 12.4193 22.4462C11.4328 23.4363 10.0942 23.9951 8.69654 24.0002Z" fill="#CC0000"/>
<path d="M8.69674 21.6615C8.30759 21.6615 7.92225 21.5849 7.56272 21.436C7.20319 21.2871 6.87651 21.0688 6.60134 20.7936C6.32617 20.5184 6.10789 20.1918 5.95897 19.8322C5.81005 19.4727 5.7334 19.0874 5.7334 18.6982C5.7353 18.4816 5.75904 18.2658 5.80426 18.054C5.83569 17.9075 5.91721 17.7765 6.03479 17.6836C6.15237 17.5907 6.29866 17.5417 6.44847 17.5451H10.9579C11.1077 17.5417 11.254 17.5907 11.3716 17.6836C11.4891 17.7765 11.5707 17.9075 11.6021 18.054C11.6473 18.2658 11.6711 18.4816 11.673 18.6982C11.673 19.0884 11.5959 19.4748 11.4462 19.8352C11.2964 20.1956 11.077 20.5228 10.8005 20.7982C10.5239 21.0735 10.1957 21.2915 9.83471 21.4397C9.4737 21.5878 9.08697 21.6632 8.69674 21.6615ZM7.02825 18.827C7.06495 19.2442 7.25661 19.6326 7.56546 19.9154C7.87431 20.1983 8.27792 20.3552 8.69674 20.3552C9.11555 20.3552 9.51917 20.1983 9.82801 19.9154C10.1369 19.6326 10.3285 19.2442 10.3652 18.827H7.02825Z" fill="#CC0000"/>
<path d="M21.9031 16.2693H21.2589C19.1717 16.2693 16.7494 14.5815 16.7494 12.4041C16.7463 12.3784 16.7463 12.3525 16.7494 12.3268L17.3936 7.17317C17.415 7.00232 17.5034 6.84695 17.6393 6.74124C17.7752 6.63553 17.9475 6.58814 18.1184 6.6095C18.2892 6.63085 18.4446 6.7192 18.5503 6.85512C18.656 6.99103 18.7034 7.16337 18.6821 7.33422L18.0379 12.4428C18.0701 13.8149 19.8223 14.9809 21.2589 14.9809H21.9031C22.5865 14.9809 23.2419 14.7094 23.7252 14.2262C24.2084 13.7429 24.4799 13.0875 24.4799 12.4041V4.02946C24.4799 3.8586 24.5478 3.69475 24.6686 3.57394C24.7894 3.45313 24.9532 3.38525 25.1241 3.38525C25.295 3.38525 25.4588 3.45313 25.5796 3.57394C25.7004 3.69475 25.7683 3.8586 25.7683 4.02946V12.4041C25.7683 13.4292 25.3611 14.4124 24.6362 15.1372C23.9113 15.8621 22.9282 16.2693 21.9031 16.2693Z" fill="#CC0000"/>
<path d="M27.952 5.49202C26.7924 5.4223 25.6571 5.12919 24.6086 4.62879C24.5227 4.59361 24.4454 4.54028 24.382 4.47246C24.3187 4.40463 24.2707 4.32391 24.2414 4.23582C23.913 3.26872 23.913 2.22026 24.2414 1.25316C24.2707 1.16507 24.3187 1.08435 24.382 1.01652C24.4454 0.948697 24.5227 0.89537 24.6086 0.860192C26.1547 0.215988 27.7781 -0.312259 29.2082 0.215988C29.3633 0.273844 29.4902 0.389187 29.5625 0.53809C29.9274 1.22092 30.1183 1.98318 30.1183 2.75737C30.1183 3.53157 29.9274 4.29382 29.5625 4.97666C29.4889 5.12313 29.3622 5.23601 29.2082 5.29232C28.8045 5.43236 28.3793 5.49997 27.952 5.49202ZM25.3752 3.55941C26.4897 4.01035 27.6106 4.35822 28.5125 4.14563C28.713 3.70688 28.8168 3.23012 28.8168 2.74771C28.8168 2.2653 28.713 1.78854 28.5125 1.34979C27.6106 1.14364 26.4832 1.49151 25.3752 1.94245C25.2453 2.47198 25.2497 3.02558 25.3881 3.55296L25.3752 3.55941Z" fill="#CC0000"/>
<path d="M23.8937 18.8466H2.29356C1.93098 18.8466 1.57367 18.7596 1.25162 18.593C0.929574 18.4265 0.652168 18.1851 0.442674 17.8891C0.23318 17.5932 0.0977078 17.2513 0.0476197 16.8922C-0.00246835 16.5331 0.0342886 16.1672 0.154807 15.8252L1.34658 12.4561C1.95099 10.7465 3.07018 9.26627 4.55023 8.21881C6.03029 7.17135 7.79851 6.60816 9.61172 6.60668H18.0379C18.2088 6.60668 18.3726 6.67455 18.4934 6.79537C18.6142 6.91618 18.6821 7.08003 18.6821 7.25089C18.6821 7.42174 18.6142 7.5856 18.4934 7.70641C18.3726 7.82722 18.2088 7.89509 18.0379 7.89509H9.61172C8.05924 7.89214 6.54405 8.37071 5.27492 9.26487C4.00579 10.159 3.04519 11.4248 2.52548 12.8877L1.37235 16.2569C1.32207 16.4034 1.30753 16.5599 1.32994 16.7132C1.35234 16.8665 1.41105 17.0123 1.50117 17.1383C1.59129 17.2643 1.71021 17.367 1.84804 17.4378C1.98587 17.5086 2.13862 17.5454 2.29356 17.5453H23.8937C24.7326 17.5453 25.5371 17.212 26.1303 16.6188C26.7235 16.0256 27.0568 15.2211 27.0568 14.3822V4.83512C27.0568 4.66427 27.1246 4.50041 27.2454 4.3796C27.3663 4.25879 27.5301 4.19092 27.701 4.19092C27.8718 4.19092 28.0357 4.25879 28.1565 4.3796C28.2773 4.50041 28.3452 4.66427 28.3452 4.83512V14.3951C28.3435 15.5752 27.8739 16.7064 27.0395 17.5409C26.2051 18.3753 25.0738 18.8449 23.8937 18.8466Z" fill="#CC0000"/>
<path d="M18.0379 7.89468H7.73067C7.63471 7.89643 7.53957 7.87672 7.45221 7.83699C7.36485 7.79726 7.28747 7.73851 7.22572 7.66503C7.16398 7.59155 7.11943 7.50521 7.09534 7.41231C7.07124 7.31941 7.06821 7.2223 7.08646 7.12808L7.40856 5.69795C7.54061 5.04648 7.8935 4.46057 8.40759 4.0392C8.92168 3.61783 9.56547 3.38684 10.2302 3.38525H15.9314C16.6672 3.38696 17.3725 3.68003 17.8928 4.20036C18.4131 4.72069 18.7062 5.42592 18.7079 6.16177V7.25048C18.708 7.33729 18.6905 7.42322 18.6565 7.50311C18.6225 7.58299 18.5728 7.65519 18.5102 7.71536C18.4476 7.77553 18.3735 7.82243 18.2924 7.85324C18.2112 7.88406 18.1247 7.89815 18.0379 7.89468ZM8.5166 6.60627H17.3937V6.16177C17.3937 5.7671 17.2369 5.3886 16.9579 5.10952C16.6788 4.83045 16.3003 4.67366 15.9056 4.67366H10.2044C9.83581 4.67561 9.47922 4.80496 9.1951 5.03977C8.91097 5.27459 8.71677 5.60043 8.64544 5.96207L8.5166 6.60627Z" fill="#CC0000"/>
<path d="M14.8167 18.8467H2.57682C2.40597 18.8467 2.24211 18.7788 2.1213 18.658C2.00049 18.5372 1.93262 18.3733 1.93262 18.2025V17.8804C1.93262 16.0864 2.64527 14.3659 3.91379 13.0974C5.18231 11.8289 6.9028 11.1162 8.69676 11.1162C10.4907 11.1162 12.2112 11.8289 13.4797 13.0974C14.7483 14.3659 15.4609 16.0864 15.4609 17.8804V18.2025C15.4609 18.3733 15.393 18.5372 15.2722 18.658C15.1514 18.7788 14.9876 18.8467 14.8167 18.8467ZM3.22103 17.5583H14.1725C14.1043 16.1519 13.4976 14.8258 12.4781 13.8546C11.4587 12.8835 10.1047 12.3418 8.69676 12.3418C7.28879 12.3418 5.9348 12.8835 4.91538 13.8546C3.89596 14.8258 3.28926 16.1519 3.22103 17.5583Z" fill="#CC0000"/>
<path d="M31.5657 23.9999C30.1989 23.9999 28.8881 23.4569 27.9216 22.4904C26.9551 21.5239 26.4121 20.2131 26.4121 18.8463C26.4125 18.5285 26.4427 18.2114 26.5023 17.8993C26.535 17.732 26.6327 17.5845 26.774 17.4891C26.9153 17.3937 27.0886 17.3582 27.256 17.3903C27.3395 17.4065 27.419 17.4391 27.4898 17.4861C27.5607 17.5331 27.6215 17.5937 27.6688 17.6644C27.7161 17.7351 27.749 17.8144 27.7655 17.8979C27.782 17.9813 27.7818 18.0672 27.7649 18.1505C27.7203 18.3797 27.6987 18.6128 27.7005 18.8463C27.7005 19.8714 28.1077 20.8545 28.8326 21.5794C29.5575 22.3042 30.5406 22.7115 31.5657 22.7115C32.5909 22.7115 33.574 22.3042 34.2989 21.5794C35.0237 20.8545 35.431 19.8714 35.431 18.8463C35.4334 17.8511 35.0475 16.8942 34.3551 16.1792C34.2948 16.1194 34.2468 16.0481 34.2141 15.9696C34.1814 15.8911 34.1646 15.8069 34.1646 15.7219C34.1646 15.6368 34.1814 15.5526 34.2141 15.4741C34.2468 15.3956 34.2948 15.3244 34.3551 15.2645C34.4758 15.1445 34.6391 15.0771 34.8093 15.0771C34.9795 15.0771 35.1428 15.1445 35.2635 15.2645C35.9662 15.9915 36.4396 16.9092 36.6246 17.9034C36.8096 18.8975 36.6981 19.924 36.3039 20.8552C35.9097 21.7864 35.2503 22.5811 34.4078 23.1402C33.5653 23.6994 32.5769 23.9984 31.5657 23.9999Z" fill="#CC0000"/>
<path d="M31.5657 22.0675C30.7115 22.0675 29.8922 21.7281 29.2881 21.124C28.6841 20.52 28.3447 19.7007 28.3447 18.8464C28.3445 18.5302 28.3901 18.2155 28.48 17.9123C28.5287 17.7483 28.6406 17.6104 28.791 17.5288C28.9414 17.4473 29.118 17.4288 29.282 17.4775C29.4461 17.5262 29.584 17.638 29.6656 17.7885C29.7471 17.9389 29.7656 18.1155 29.7169 18.2795C29.6603 18.4631 29.632 18.6543 29.6331 18.8464C29.6327 19.1829 29.7201 19.5137 29.8867 19.806C30.0534 20.0984 30.2934 20.3421 30.5832 20.5132C30.8729 20.6843 31.2023 20.7767 31.5388 20.7814C31.8752 20.7861 32.2071 20.7029 32.5015 20.54C32.7959 20.377 33.0427 20.1401 33.2174 19.8525C33.3921 19.5649 33.4887 19.2367 33.4977 18.9004C33.5066 18.564 33.4276 18.2311 33.2684 17.9347C33.1092 17.6382 32.8754 17.3885 32.59 17.2102C32.518 17.1654 32.4555 17.1069 32.4062 17.038C32.3568 16.969 32.3215 16.891 32.3024 16.8084C32.2832 16.7259 32.2806 16.6403 32.2946 16.5567C32.3086 16.4731 32.3389 16.393 32.3839 16.3211C32.4291 16.2497 32.488 16.1878 32.5572 16.139C32.6264 16.0903 32.7045 16.0557 32.787 16.0371C32.8696 16.0186 32.955 16.0165 33.0383 16.031C33.1217 16.0454 33.2014 16.0762 33.2729 16.1214C33.863 16.4933 34.3164 17.0467 34.565 17.6984C34.8136 18.3501 34.8439 19.0649 34.6515 19.7353C34.459 20.4057 34.0541 20.9956 33.4976 21.4161C32.9412 21.8367 32.2632 22.0652 31.5657 22.0675Z" fill="#CC0000"/>
<path d="M2.3449 12.4048H1.93261C1.42005 12.4048 0.928484 12.2012 0.566049 11.8387C0.203614 11.4763 0 10.9847 0 10.4722C0 9.9596 0.203614 9.46804 0.566049 9.1056C0.928484 8.74317 1.42005 8.53955 1.93261 8.53955H4.36126C4.53211 8.53955 4.69597 8.60742 4.81678 8.72823C4.93759 8.84905 5.00547 9.0129 5.00547 9.18375C5.00547 9.35461 4.93759 9.51846 4.81678 9.63928C4.69597 9.76009 4.53211 9.82796 4.36126 9.82796H1.93261C1.76176 9.82796 1.5979 9.89583 1.47709 10.0166C1.35628 10.1375 1.28841 10.3013 1.28841 10.4722C1.28841 10.643 1.35628 10.8069 1.47709 10.9277C1.5979 11.0485 1.76176 11.1164 1.93261 11.1164H2.3449C2.51576 11.1164 2.67961 11.1842 2.80042 11.3051C2.92124 11.4259 2.98911 11.5897 2.98911 11.7606C2.98911 11.9314 2.92124 12.0953 2.80042 12.2161C2.67961 12.3369 2.51576 12.4048 2.3449 12.4048Z" fill="#CC0000"/>
<path d="M22.5473 4.02977C22.3765 4.04173 22.2079 3.98533 22.0786 3.87297C21.9493 3.76062 21.87 3.60151 21.858 3.43066C21.8461 3.25981 21.9025 3.0912 22.0148 2.96193C22.1272 2.83266 22.2863 2.75332 22.4571 2.74136L26.9666 2.09716C27.1357 2.07326 27.3074 2.11753 27.4439 2.22021C27.5804 2.3229 27.6706 2.4756 27.6945 2.64473C27.7184 2.81387 27.6741 2.98558 27.5715 3.12209C27.4688 3.2586 27.3161 3.34874 27.1469 3.37268L22.6375 4.01688L22.5473 4.02977Z" fill="#CC0000"/>
<path d="M30.922 14.3371H27.701C27.5301 14.3371 27.3663 14.2692 27.2454 14.1484C27.1246 14.0276 27.0568 13.8637 27.0568 13.6929C27.0568 13.522 27.1246 13.3581 27.2454 13.2373C27.3663 13.1165 27.5301 13.0486 27.701 13.0486H30.2778V11.4446L27.3209 9.29294C27.2468 9.24545 27.1833 9.1833 27.1342 9.11031C27.085 9.03732 27.0514 8.95505 27.0353 8.86856C27.0192 8.78207 27.021 8.69319 27.0405 8.60742C27.0601 8.52165 27.097 8.44079 27.149 8.36983C27.201 8.29887 27.267 8.23932 27.3429 8.19484C27.4188 8.15036 27.503 8.1219 27.5904 8.11122C27.6777 8.10053 27.7663 8.10784 27.8507 8.1327C27.9351 8.15757 28.0135 8.19945 28.081 8.25577L31.3021 10.6007C31.3833 10.66 31.4494 10.7375 31.4953 10.827C31.5412 10.9165 31.5654 11.0155 31.5662 11.116V13.6929C31.5662 13.8637 31.4983 14.0276 31.3775 14.1484C31.2567 14.2692 31.0928 14.3371 30.922 14.3371Z" fill="#CC0000"/>
<path d="M28.3451 18.8462C27.9482 18.8561 27.5517 18.8127 27.1662 18.7174C27.0738 18.6919 26.9834 18.6596 26.8957 18.6208C26.626 18.5024 26.3897 18.3194 26.2077 18.0879C26.0257 17.8564 25.9035 17.5837 25.8521 17.2937C25.8373 17.2091 25.8393 17.1224 25.858 17.0386C25.8767 16.9548 25.9117 16.8755 25.961 16.8052C26.0104 16.7349 26.0731 16.675 26.1456 16.6289C26.2181 16.5829 26.2989 16.5516 26.3835 16.5368C26.4681 16.522 26.5548 16.524 26.6387 16.5427C26.7225 16.5614 26.8018 16.5964 26.8721 16.6457C26.9424 16.6951 27.0023 16.7578 27.0483 16.8303C27.0944 16.9028 27.1257 16.9836 27.1405 17.0682C27.1569 17.1486 27.1916 17.2241 27.2419 17.2888C27.2921 17.3536 27.3566 17.406 27.4304 17.4419H27.5334C27.8079 17.5056 28.0893 17.5337 28.3709 17.5256C28.5486 17.5198 28.7253 17.4982 28.8992 17.4612H28.9765C30.1994 17.1241 31.3895 16.6778 32.5325 16.1277C32.5927 16.0925 32.6578 16.0664 32.7257 16.0504H32.7644H32.8417L33.8982 15.7734C34.0197 15.7362 34.1236 15.6564 34.1911 15.5487C34.2585 15.4411 34.2849 15.3127 34.2654 15.1872C34.2471 15.0897 34.2018 14.9993 34.1346 14.9264C34.0673 14.8535 33.981 14.801 33.8853 14.7749C31.3085 14.0405 29.2921 14.2466 28.0875 15.374C28.0286 15.4428 27.9559 15.4984 27.8741 15.5372C27.7923 15.576 27.7032 15.5971 27.6127 15.5992C27.5222 15.6013 27.4322 15.5842 27.3487 15.5492C27.2652 15.5141 27.1901 15.4619 27.1281 15.3959C27.0662 15.3298 27.0188 15.2515 26.9892 15.1659C26.9596 15.0803 26.9484 14.9895 26.9562 14.8993C26.9641 14.8091 26.9908 14.7215 27.0348 14.6424C27.0788 14.5632 27.1389 14.4942 27.2113 14.4399C28.2936 13.4156 30.3937 12.4364 34.2461 13.538C34.5702 13.6291 34.8624 13.8088 35.09 14.0569C35.3176 14.305 35.4715 14.6116 35.5345 14.9424C35.6129 15.3227 35.5583 15.7184 35.3799 16.0633C35.2725 16.2981 35.1137 16.5057 34.9152 16.6707C34.7167 16.8358 34.4836 16.954 34.2332 17.0167L33.196 17.2873H33.1316C31.9025 17.8696 30.6241 18.3418 29.3115 18.6981L29.2148 18.7303C28.9296 18.7981 28.6382 18.8369 28.3451 18.8462Z" fill="#CC0000"/>
</svg>
