<svg width="32" height="32" viewBox="0 0 32 32" fill="none" xmlns="http://www.w3.org/2000/svg">
<path d="M19.2 4.48006C19.2 4.1266 18.9135 3.84006 18.56 3.84006H13.44C13.0866 3.84006 12.8 4.1266 12.8 4.48006V6.40006H19.2V4.48006ZM13.44 2.56006H18.56C19.6204 2.56006 20.48 3.41967 20.48 4.48006V7.04006C20.48 7.39352 20.1935 7.68006 19.84 7.68006H12.16C11.8066 7.68006 11.52 7.39352 11.52 7.04006V4.48006C11.52 3.41967 12.3796 2.56006 13.44 2.56006Z" fill="#FF8E10"/>
<path fill-rule="evenodd" clip-rule="evenodd" d="M7.04002 20.48H10.88C11.2335 20.48 11.52 20.7665 11.52 21.12C11.52 21.4734 11.2335 21.76 10.88 21.76H7.04002C6.68656 21.76 6.40002 21.4734 6.40002 21.12C6.40002 20.7665 6.68656 20.48 7.04002 20.48Z" fill="#FF8E10"/>
<path fill-rule="evenodd" clip-rule="evenodd" d="M21.12 20.48H24.96C25.3134 20.48 25.6 20.7665 25.6 21.12C25.6 21.4734 25.3134 21.76 24.96 21.76H21.12C20.7665 21.76 20.48 21.4734 20.48 21.12C20.48 20.7665 20.7665 20.48 21.12 20.48Z" fill="#FF8E10"/>
<path d="M10.2401 25.6V26.88C10.2401 28.2939 9.09391 29.44 7.68006 29.44C6.26621 29.44 5.12006 28.2939 5.12006 26.88V25.6H4.57881C3.5219 25.6 2.65474 24.7653 2.6344 23.7168L2.56089 19.9255C2.56006 19.8827 2.56006 19.8827 2.56006 19.84C2.56006 17.8673 3.86542 16.1586 5.72112 15.5736L7.12753 9.64267C7.6889 7.72102 9.47556 6.40002 11.5047 6.40002H20.498C22.5271 6.40002 24.3138 7.72102 24.8789 9.65619L26.4866 15.6447C28.2671 16.3011 29.4765 18.002 29.4392 19.9255L29.3657 23.7168C29.3454 24.7653 28.4782 25.6 27.4213 25.6H26.8801V26.88C26.8801 28.2939 25.7339 29.44 24.3201 29.44C22.9062 29.44 21.7601 28.2939 21.7601 26.88V25.6H10.2401ZM6.40006 25.6V26.88C6.40006 27.587 6.97313 28.16 7.68006 28.16C8.38698 28.16 8.96006 27.587 8.96006 26.88V25.6H6.40006ZM23.0401 25.6V26.88C23.0401 27.587 23.6131 28.16 24.3201 28.16C25.027 28.16 25.6001 27.587 25.6001 26.88V25.6H23.0401ZM6.87852 16.2403C6.82183 16.4795 6.63313 16.6651 6.39301 16.7178C4.90939 17.0435 3.84006 18.3376 3.84006 19.84C3.84006 19.8703 3.84006 19.8703 3.84065 19.9007L3.91416 23.692C3.92087 24.038 4.21387 24.32 4.57881 24.32H27.4213C27.7862 24.32 28.0792 24.038 28.0859 23.692L28.1595 19.9007C28.1877 18.4424 27.2044 17.1578 25.7867 16.7626C25.5688 16.7018 25.3991 16.5305 25.3405 16.312L23.6465 10.0016C23.2455 8.62916 21.9618 7.68002 20.498 7.68002H11.5047C10.0408 7.68002 8.7571 8.62916 8.3646 9.96972L6.87852 16.2403ZM9.60046 16.6243C9.1743 16.6243 8.86718 16.2156 8.98571 15.8063L10.4638 10.702C10.5431 10.4283 10.7937 10.24 11.0786 10.24H20.9003C21.1843 10.24 21.4343 10.4271 21.5143 10.6996L23.0145 15.8039C23.1349 16.2137 22.8277 16.6243 22.4005 16.6243H9.60046ZM21.5453 15.3443L20.4213 11.52H11.5595L10.4521 15.3443H21.5453Z" fill="#FF8E10"/>
</svg>
