<svg width="30" height="28" viewBox="0 0 30 28" fill="none" xmlns="http://www.w3.org/2000/svg">
<path d="M24.3477 21.7795L23.5375 20.1555C23.0349 19.1638 22.7745 18.0672 22.7776 16.9554V11.8393C22.7821 10.8514 22.5895 9.87242 22.2112 8.95974C21.8329 8.04707 21.2764 7.21898 20.5743 6.52391C19.7361 5.68096 18.7043 5.05613 17.5689 4.70403V4.31472C17.5689 3.70082 17.325 3.11206 16.8909 2.67797C16.4568 2.24387 15.8681 2 15.2542 2C14.6403 2 14.0515 2.24387 13.6174 2.67797C13.1833 3.11206 12.9394 3.70082 12.9394 4.31472V4.71576C11.4285 5.19807 10.1098 6.14791 9.17357 7.42826C8.2374 8.7086 7.73215 10.2532 7.73073 11.8393V16.9554C7.73384 18.068 7.47303 19.1655 6.96971 20.1578L6.16061 21.7807C6.04432 22.0141 5.98959 22.2733 6.00163 22.5338C6.01367 22.7943 6.09207 23.0474 6.2294 23.269C6.36672 23.4907 6.55841 23.6736 6.78628 23.8004C7.01414 23.9272 7.27063 23.9936 7.53139 23.9934H22.977C23.2378 23.9934 23.4942 23.9267 23.722 23.7998C23.9499 23.6729 24.1415 23.4899 24.2788 23.2682C24.4161 23.0464 24.4945 22.7933 24.5066 22.5328C24.5186 22.2723 24.4639 22.013 24.3477 21.7795Z" fill="#CC0000"/>
<path fill-rule="evenodd" clip-rule="evenodd" d="M11.7395 23.9934H18.7689C18.4126 24.598 17.9061 25.1007 17.2981 25.4523C16.6769 25.8116 15.9718 26.0005 15.2542 26C14.5366 26.0005 13.8316 25.8116 13.2104 25.4523C12.6024 25.1007 12.0958 24.598 11.7395 23.9934Z" fill="#CC0000"/>
<circle cx="23" cy="5" r="4.5" fill="#E83535" stroke="white"/>
</svg>
