<svg width="30" height="28" viewBox="0 0 30 28" fill="none" xmlns="http://www.w3.org/2000/svg">
<path d="M24.3137 21.7428L23.5049 20.1218C23.0033 19.1319 22.7434 18.0373 22.7465 16.9277V11.8211C22.7509 10.8349 22.5588 9.85781 22.1811 8.94683C21.8035 8.03584 21.2481 7.20929 20.5472 6.51552C19.7106 5.67413 18.6807 5.05046 17.5474 4.69901V4.31043C17.5474 3.69766 17.304 3.11 16.8707 2.67671C16.4374 2.24342 15.8498 2 15.237 2C14.6242 2 14.0366 2.24342 13.6033 2.67671C13.17 3.11 12.9266 3.69766 12.9266 4.31043V4.71071C11.4184 5.19213 10.1021 6.14022 9.16768 7.41818C8.23324 8.69615 7.72894 10.2379 7.72752 11.8211V16.9277C7.73062 18.0382 7.47029 19.1337 6.96791 20.1241L6.16031 21.744C6.04423 21.9769 5.98961 22.2357 6.00163 22.4957C6.01365 22.7557 6.0919 23.0083 6.22897 23.2296C6.36604 23.4508 6.55737 23.6334 6.78482 23.7599C7.01226 23.8865 7.26827 23.9528 7.52854 23.9526H22.9454C23.2058 23.9525 23.4617 23.886 23.6892 23.7594C23.9166 23.6327 24.1079 23.45 24.2449 23.2287C24.3819 23.0074 24.4602 22.7547 24.4722 22.4947C24.4842 22.2346 24.4297 21.9758 24.3137 21.7428V21.7428Z" stroke="#A1A4A8"/>
<path d="M15.2371 26C15.9534 26.0005 16.6571 25.812 17.2772 25.4534C17.8972 25.0947 18.4116 24.5788 18.7683 23.9576H11.7059C12.0626 24.5788 12.577 25.0947 13.197 25.4534C13.8171 25.812 14.5208 26.0005 15.2371 26V26Z" stroke="#A1A4A8"/>
<circle cx="23" cy="5" r="4.5" fill="#E83535" stroke="white"/>
</svg>
