<svg width="222" height="145" viewBox="0 0 222 145" fill="none" xmlns="http://www.w3.org/2000/svg">
<path d="M103.164 143.371C112.075 145.079 201.431 158.363 191.444 66.4626C181.457 -25.4375 116.176 20.7115 77.4783 5.38918C38.7808 -9.93312 7.18617 64.2921 30.4778 100.284C51.2388 132.366 84.2743 139.753 103.164 143.371Z" fill="#CDEFF8" fill-opacity="0.64"/>
<path d="M171.68 108.787C171.68 108.787 170.454 106.335 171.68 103.286C172.906 100.236 171.59 97.6946 174.04 97.0669C174.04 97.0669 175.146 96.8875 175.026 98.0533C174.907 99.2192 175.719 100.723 175.719 100.723C175.719 100.723 177.822 100.301 180.532 101.26C180.532 101.26 178.914 97.725 180.195 95.663C180.195 95.663 181.212 94.6462 181.66 96.2908C181.944 97.3069 182.378 98.2747 182.949 99.1619C182.949 99.1619 184.281 94.2619 189.27 93.9119C189.27 93.9119 190.254 91.7172 191.002 91.7165C191.327 91.7165 192.306 93.3449 192.162 94.1897C192.162 94.1897 194.156 95.0252 195.424 97.2678C195.424 97.2678 197.48 96.7567 198.47 97.6845C198.47 97.6845 197.973 99.0634 196.537 100.05C196.537 100.05 196.486 105.29 191.168 106.576C191.168 106.576 188.783 113.748 178.818 112.589C174.036 112.032 172.601 110.224 172.601 110.224C172.601 110.224 167.746 112.161 164.934 106.448C162.123 100.735 167.249 97.3049 170.03 98.5907C170.047 98.5979 170.064 98.6062 170.08 98.6157C170.638 98.9279 170.451 99.7788 169.815 99.8408C169.621 99.8568 169.425 99.8473 169.234 99.8125C167.357 99.4956 165.961 100.689 165.563 102.897C165.167 105.133 167.584 110.299 171.68 108.787Z" fill="white" stroke="#CC0000" stroke-width="0.5" stroke-miterlimit="10" stroke-linecap="round"/>
<path d="M175.102 107.965C175.102 107.965 174.04 102.723 176.358 102.179C176.358 102.179 177.302 101.865 177.345 103.233C177.388 104.602 177.524 106.417 177.75 106.978" stroke="#FFA0A0" stroke-width="0.5" stroke-miterlimit="10" stroke-linecap="round"/>
<path d="M188.035 99.9045C188.122 99.7737 188.037 99.5643 187.846 99.4368C187.654 99.3093 187.428 99.3121 187.341 99.4429C187.254 99.5738 187.339 99.7832 187.53 99.9107C187.722 100.038 187.948 100.035 188.035 99.9045Z" fill="#FFA0A0"/>
<path d="M190.128 101.919C190.128 101.919 191.683 102.293 192.924 104.356" stroke="#FFA0A0" stroke-width="0.5" stroke-miterlimit="10" stroke-linecap="round"/>
<path d="M190.364 101.492C190.364 101.492 192.441 101.485 193.613 103.05" stroke="#FFA0A0" stroke-width="0.5" stroke-miterlimit="10" stroke-linecap="round"/>
<path d="M189.945 102.541C189.945 102.541 191.222 103.51 191.683 104.799" stroke="#FFA0A0" stroke-width="0.5" stroke-miterlimit="10" stroke-linecap="round"/>
<path d="M185.404 98.1496C185.404 98.1496 184.389 96.4564 182.004 95.6951" stroke="#CC0000" stroke-width="0.5" stroke-miterlimit="10" stroke-linecap="round"/>
<path d="M185.682 97.73C185.682 97.73 184.778 95.3027 182.868 94.4518" stroke="#CC0000" stroke-width="0.5" stroke-miterlimit="10" stroke-linecap="round"/>
<path d="M184.928 98.5722C184.928 98.5722 183.505 97.4023 182.151 97.2951" stroke="#CC0000" stroke-width="0.5" stroke-miterlimit="10" stroke-linecap="round"/>
<path d="M156.832 55.8183C156.832 55.8183 166.579 52.9688 165.837 73.0064C165.094 93.0439 171.712 106.451 199.416 105.169" stroke="#CC0000" stroke-width="0.5" stroke-miterlimit="10"/>
<path d="M203.562 103.635H205.439" stroke="#CC0000" stroke-width="0.5" stroke-miterlimit="10" stroke-linecap="round"/>
<path d="M203.562 105.289H205.439" stroke="#CC0000" stroke-width="0.5" stroke-miterlimit="10" stroke-linecap="round"/>
<path d="M203.562 106.816H205.439" stroke="#CC0000" stroke-width="0.5" stroke-miterlimit="10" stroke-linecap="round"/>
<path d="M184.419 108.528C184.419 108.528 182.625 104.245 183.723 102.854C183.723 102.854 184.284 102.092 184.822 103.192C185.361 104.291 185.787 105.524 186.93 106.107" fill="white"/>
<path d="M184.419 108.528C184.419 108.528 182.625 104.245 183.723 102.854C183.723 102.854 184.284 102.092 184.822 103.192C185.361 104.291 185.787 105.524 186.93 106.107" stroke="#FFA0A0" stroke-width="0.5" stroke-miterlimit="10" stroke-linecap="round"/>
<path d="M172.494 100.509C172.494 100.509 172.54 99.6328 172.68 98.7468C172.68 98.7468 172.95 97.0975 174.434 97.283C174.434 97.283 174.846 97.3038 174.846 97.9431C174.846 98.5823 174.887 99.417 175.588 100.932L172.494 100.509Z" fill="white"/>
<path d="M195.846 98.3632C195.846 98.3632 196.495 97.8528 198.475 97.6829L195.846 98.3632Z" fill="white"/>
<path d="M195.846 98.3632C195.846 98.3632 196.495 97.8528 198.475 97.6829" stroke="#CC0000" stroke-width="0.5" stroke-miterlimit="10" stroke-linecap="round"/>
<path d="M190.865 94.3736C190.865 94.3736 191.377 92.8579 191.005 91.7143L190.865 94.3736Z" fill="white"/>
<path d="M190.865 94.3736C190.865 94.3736 191.377 92.8579 191.005 91.7143" stroke="#CC0000" stroke-width="0.5" stroke-miterlimit="10" stroke-linecap="round"/>
<path d="M186.018 99.6835C186.533 100.897 187.605 99.7698 187.605 99.7698C187.605 99.7698 186.471 101.435 188.224 101.125" stroke="#FFA0A0" stroke-width="0.5" stroke-miterlimit="10" stroke-linecap="round"/>
<path d="M203.619 103.046V107.536C203.619 107.598 203.602 107.66 203.57 107.714C203.538 107.768 203.492 107.812 203.436 107.842C203.381 107.872 203.319 107.887 203.256 107.884C203.194 107.882 203.133 107.863 203.08 107.829L199.017 105.184L203.091 102.746C203.144 102.715 203.205 102.698 203.266 102.698C203.328 102.697 203.389 102.713 203.442 102.743C203.496 102.774 203.54 102.818 203.571 102.871C203.602 102.924 203.619 102.985 203.619 103.046Z" fill="#CC0000"/>
<path d="M212.592 87.0848L214.368 86.4779L221.333 86.9216V100.692L220.384 101.247L212.592 87.0848Z" fill="#FFE1E1" stroke="#CC0000" stroke-width="0.5" stroke-miterlimit="10"/>
<path d="M212.592 87.0848L220.384 87.6107V101.247L212.592 100.336V87.0848Z" fill="#FFE1E1" stroke="#CC0000" stroke-width="0.5" stroke-miterlimit="10"/>
<path d="M221.332 86.9216L220.384 87.6107" stroke="#CC0000" stroke-width="0.5" stroke-miterlimit="10"/>
<path d="M216.558 89.9145C216.772 89.9145 216.945 89.7412 216.945 89.5274C216.945 89.3136 216.772 89.1403 216.558 89.1403C216.345 89.1403 216.171 89.3136 216.171 89.5274C216.171 89.7412 216.345 89.9145 216.558 89.9145Z" fill="#CC0000"/>
<path d="M215.107 91.6926C215.414 91.6926 215.663 91.4436 215.663 91.1363C215.663 90.8291 215.414 90.58 215.107 90.58C214.8 90.58 214.55 90.8291 214.55 91.1363C214.55 91.4436 214.8 91.6926 215.107 91.6926Z" fill="#CC0000"/>
<path d="M217.598 91.9551C217.905 91.9551 218.154 91.706 218.154 91.3988C218.154 91.0915 217.905 90.8424 217.598 90.8424C217.291 90.8424 217.042 91.0915 217.042 91.3988C217.042 91.706 217.291 91.9551 217.598 91.9551Z" fill="#CC0000"/>
<path d="M216.558 95.6507C216.772 95.6507 216.945 95.4774 216.945 95.2637C216.945 95.0499 216.772 94.8766 216.558 94.8766C216.345 94.8766 216.171 95.0499 216.171 95.2637C216.171 95.4774 216.345 95.6507 216.558 95.6507Z" fill="#CC0000"/>
<path d="M215.107 97.4287C215.414 97.4287 215.663 97.1797 215.663 96.8725C215.663 96.5653 215.414 96.3162 215.107 96.3162C214.8 96.3162 214.55 96.5653 214.55 96.8725C214.55 97.1797 214.8 97.4287 215.107 97.4287Z" fill="#CC0000"/>
<path d="M217.598 97.6909C217.905 97.6909 218.154 97.4419 218.154 97.1347C218.154 96.8275 217.905 96.5784 217.598 96.5784C217.291 96.5784 217.042 96.8275 217.042 97.1347C217.042 97.4419 217.291 97.6909 217.598 97.6909Z" fill="#CC0000"/>
<path d="M186.651 97.3022C186.651 97.3022 187.702 96.9529 187.804 97.9252L186.651 97.3022Z" fill="white"/>
<path d="M186.651 97.3022C186.651 97.3022 187.702 96.9529 187.804 97.9252" stroke="#CC0000" stroke-width="0.5" stroke-miterlimit="10" stroke-linecap="round"/>
<path d="M189.744 99.1879C189.744 99.1879 190.844 99.0591 190.747 100.032L189.744 99.1879Z" fill="white"/>
<path d="M189.744 99.1879C189.744 99.1879 190.844 99.0591 190.747 100.032" stroke="#CC0000" stroke-width="0.5" stroke-miterlimit="10" stroke-linecap="round"/>
<path d="M107.376 68.6297L144.39 71.5055V103.232L107.376 98.4422V68.6297Z" fill="#FFE1E1" stroke="#CC0000" stroke-width="0.5" stroke-miterlimit="10"/>
<path d="M144.388 71.5054L157.469 66.2177V96.0889L144.388 103.232V71.5054Z" fill="#FFE1E1" stroke="#CC0000" stroke-width="0.5" stroke-miterlimit="10"/>
<path d="M157.47 66.2177L127.97 63.9913L107.376 68.6296L144.39 71.5054L157.47 66.2177Z" fill="#FFE1E1" stroke="#CC0000" stroke-width="0.5" stroke-miterlimit="10"/>
<path d="M144.191 38.1261L155.138 44.3105C155.138 44.3105 158.725 54.1442 155.509 63.1735L143.882 68.832L144.191 38.1261Z" fill="#FFE1E1" stroke="#CC0000" stroke-width="0.5" stroke-miterlimit="10"/>
<path d="M112.21 40.1368C112.344 39.5459 112.664 39.0135 113.123 38.6182C113.582 38.223 114.156 37.9859 114.76 37.942C120.924 37.499 142.747 36.5146 144.191 38.1261C145.8 39.9197 144.686 67.8119 143.883 68.8321C143.079 69.8523 112.858 67.8989 112.178 65.425C111.599 63.3185 110.824 46.2647 112.21 40.1368Z" fill="#FFE1E1" stroke="#CC0000" stroke-width="0.5" stroke-miterlimit="10"/>
<path d="M115.414 41.9203C115.509 41.6273 115.689 41.3694 115.932 41.1798C116.174 40.9901 116.468 40.8775 116.775 40.8563C121.533 40.5191 132.553 39.5906 136.876 40.863C138.768 41.42 137.853 64.1081 137.201 64.9347C136.549 65.7614 115.493 63.9908 115.205 63.1095C114.629 61.3422 114.055 46.148 115.414 41.9203Z" fill="#CC0000"/>
<path d="M141.204 46.4709C141.954 46.4709 142.562 45.8626 142.562 45.1122C142.562 44.3619 141.954 43.7536 141.204 43.7536C140.453 43.7536 139.845 44.3619 139.845 45.1122C139.845 45.8626 140.453 46.4709 141.204 46.4709Z" fill="#FFE1E1" stroke="#CC0000" stroke-width="0.5" stroke-miterlimit="10"/>
<path d="M140.705 46.313C141.41 46.313 141.982 45.7416 141.982 45.0366C141.982 44.3317 141.41 43.7602 140.705 43.7602C140 43.7602 139.429 44.3317 139.429 45.0366C139.429 45.7416 140 46.313 140.705 46.313Z" fill="#FFE1E1" stroke="#CC0000" stroke-width="0.5" stroke-miterlimit="10"/>
<path d="M141.204 51.5469C141.954 51.5469 142.562 50.9386 142.562 50.1882C142.562 49.4378 141.954 48.8295 141.204 48.8295C140.453 48.8295 139.845 49.4378 139.845 50.1882C139.845 50.9386 140.453 51.5469 141.204 51.5469Z" fill="#FFE1E1" stroke="#CC0000" stroke-width="0.5" stroke-miterlimit="10"/>
<path d="M140.705 51.3892C141.41 51.3892 141.982 50.8177 141.982 50.1128C141.982 49.4078 141.41 48.8364 140.705 48.8364C140 48.8364 139.429 49.4078 139.429 50.1128C139.429 50.8177 140 51.3892 140.705 51.3892Z" fill="#FFE1E1" stroke="#CC0000" stroke-width="0.5" stroke-miterlimit="10"/>
<path d="M138.748 53.4793L143.727 53.6803" stroke="#CC0000" stroke-width="0.5" stroke-miterlimit="10"/>
<path d="M138.748 54.6115L143.727 54.8124" stroke="#CC0000" stroke-width="0.5" stroke-miterlimit="10"/>
<path d="M138.748 55.7437L143.727 55.9453" stroke="#CC0000" stroke-width="0.5" stroke-miterlimit="10"/>
<path d="M138.749 37.186L114.578 27.9834" stroke="#CC0000" stroke-width="0.5" stroke-miterlimit="10"/>
<path d="M1.94831 101.837C1.94831 101.837 14.8115 143.386 72.8223 123.225C72.8223 123.225 105.352 114.508 99.1677 101.918C92.9833 89.3274 72.08 94.0285 72.08 94.0285L7.147 91.2977C7.147 91.2977 -1.88631 89.6025 1.94831 101.837Z" fill="#CDEFF8" fill-opacity="0.64" stroke="#CC0000" stroke-width="0.5" stroke-miterlimit="10"/>
<path d="M66.7919 105.847C66.7919 105.847 40.3299 130.646 14.8307 109C14.8307 109 8.1634 102.909 14.1935 101.084L66.7919 105.847Z" fill="#CC0000"/>
<path d="M51.252 31.2613C51.252 31.2613 53.9282 33.1257 55.1871 37.8018C55.1871 37.8018 55.9592 39.2629 57.5322 39.596C59.1053 39.9291 59.5423 40.9298 59.3474 41.2352C59.1525 41.5407 56.3361 42.3936 56.3732 43.0274C56.4123 43.7017 57.7123 48.8936 54.026 49.9556C50.2325 51.0513 49.5333 51.2239 49.5333 51.2239C49.5333 51.2239 49.8812 57.4731 50.4213 58.1926L57.5161 60.4791C57.5161 60.4791 50.0525 70.6296 44.1431 69.1186C38.2337 67.6075 27.3044 58.968 27.3044 58.968L36.07 58.0308C36.07 58.0308 38.4165 51.3076 38.9512 46.8681C40.8796 30.85 51.252 31.2613 51.252 31.2613Z" fill="white" stroke="#CC0000" stroke-width="0.5" stroke-miterlimit="10"/>
<path d="M49.5896 50.959C49.5896 50.959 47.0408 51.5658 46.1508 51.5496C45.5291 51.5361 44.695 52.561 47.0475 54.8037C49.4001 57.0463 50.187 57.8083 50.187 57.8083L49.5896 50.959Z" fill="#CC0000"/>
<path d="M45.7419 41.9405C45.7419 41.9405 44.7446 41.542 44.3441 41.064" stroke="#CC0000" stroke-width="6" stroke-miterlimit="10" stroke-linecap="round"/>
<path d="M44.7059 40.2291C44.656 40.1927 43.8365 41.0753 44.486 42.2984" stroke="#CC0000" stroke-width="6" stroke-miterlimit="10" stroke-linecap="round"/>
<path d="M52.8404 32.6199C52.8404 32.6199 51.2403 33.6313 48.2135 33.5828C48.2135 33.5828 45.6202 33.6812 45.8076 35.2334C45.9951 36.7856 48.5951 40.7625 47.3281 40.5231C46.0612 40.2838 46.2999 38.8584 44.7153 39.3526C43.1308 39.8468 42.8071 42.0828 43.5636 42.9546C44.3202 43.8264 41.5408 47.922 38.7844 48.1466C36.0279 48.3711 28.3027 38.795 37.8282 30.4804C44.0012 25.0943 51.1594 27.6876 52.8404 32.6199Z" fill="#CC0000"/>
<path d="M75.8528 84.8193C75.8528 84.8193 78.4906 85.4174 78.3881 86.7161C78.2856 88.0147 69.6224 90.2897 69.6224 90.2897C69.6224 90.2897 76.3167 85.2212 75.8528 84.8193Z" fill="#CC0000"/>
<path d="M90.8191 82.2832C90.8191 77.5215 85.1916 72.1408 75.1085 65.9563C65.0253 59.7718 53.1944 58.5972 53.1944 58.5972C39.6098 66.1424 33.9822 57.2986 33.9822 57.2986C22.3577 57.8083 5.10223 68.2792 1.67015 77.274C-1.76192 86.2689 14.1942 97.497 14.1942 97.497V101.084C30.1496 128.745 66.7926 105.847 66.7926 105.847L66.3287 100.587C87.2967 95.8895 90.8191 87.0457 90.8191 82.2832ZM15.6162 88.5614C15.6162 88.5614 11.1323 81.9744 12.0601 81.2941C12.0601 81.2941 12.4053 80.017 17.7294 80.013L15.6162 88.5614ZM66.7616 92.4857L67.9989 81.2927C67.9989 81.2927 75.9149 84.6324 75.8529 85.1267C75.7908 85.6209 66.7616 92.4857 66.7616 92.4857Z" fill="#FFE1E1" stroke="#CC0000" stroke-width="0.5" stroke-miterlimit="10"/>
<path d="M68.0211 81.0904L64.3497 79.4397C64.3497 79.4397 65.6484 81.8206 65.2465 83.8616C64.8446 85.9027 66.7616 92.4924 66.7616 92.4924L68.0211 81.0904Z" fill="#CC0000"/>
<path d="M66.7618 92.4857L63.824 94.8976C63.7791 95.126 63.7469 95.3567 63.7275 95.5887C63.6129 96.8563 63.6722 99.5109 65.9843 100.463C66.0936 100.508 66.2089 100.55 66.3289 100.587" stroke="#CC0000" stroke-width="0.5" stroke-miterlimit="10"/>
<path d="M63.7268 95.5908C63.6695 95.6009 60.1531 96.2057 59.7884 97.1261C59.4236 98.0465 57.7938 100.7 58.3049 101.486C58.816 102.272 59.7331 102.898 60.2482 102.651C60.7472 102.411 61.7498 101.785 61.8125 101.746C63.1267 101.582 64.8144 101.228 65.985 100.465C63.6715 99.5131 63.6122 96.8584 63.7268 95.5908ZM59.816 101.888C60.4641 101.878 61.1113 101.833 61.7545 101.753C61.4457 101.8 60.0884 101.998 59.814 101.888H59.816Z" fill="white" stroke="#CC0000" stroke-width="0.5" stroke-miterlimit="10"/>
<path d="M14.1941 97.4971C14.1941 97.4971 16.0491 81.4175 19.8837 74.8621L14.1941 97.4971Z" fill="#FFE1E1"/>
<path d="M14.1941 97.4971C14.1941 97.4971 16.0491 81.4175 19.8837 74.8621" stroke="#CC0000" stroke-width="0.5" stroke-miterlimit="10"/>
<path d="M17.7285 80.0115C17.7285 80.0115 15.291 79.5712 12.3302 80.9723C12.3302 80.9723 12.639 80.0539 14.8305 79.2192C17.0219 78.3844 20.3157 74.162 20.3157 74.162L17.7285 80.0115Z" fill="#CC0000"/>
<path d="M74.0088 98.4422C74.0088 98.4422 81.6227 96.5165 89.5171 97.8684C89.5171 97.8684 91.1873 97.2191 87.8786 96.6621C84.5699 96.1052 81.3543 95.1868 81.3543 95.1868L74.0088 98.4422Z" fill="#CC0000"/>
<path d="M88.1642 94.1625C88.1642 94.1625 99.7862 99.4758 98.3634 106.03C96.9407 112.584 89.736 116.317 89.736 116.317C89.736 116.317 98.3634 112.059 99.6109 106.504C100.87 100.897 94.5625 95.5616 88.1642 94.1625Z" fill="white"/>
<path d="M204.735 55.157C204.735 55.157 202.993 -9.80235 139.755 2.56594" stroke="#CC0000" stroke-width="0.5" stroke-miterlimit="10" stroke-linecap="round"/>
</svg>
