<svg width="375" height="250" viewBox="0 0 375 250" fill="none" xmlns="http://www.w3.org/2000/svg">
<path d="M375 0H0V250H375V0Z" fill="white"/>
<path d="M301.416 160.862C292.919 174.082 281.981 181.982 269.568 186.465C255.891 191.405 240.425 192.201 224.457 191.4C219.507 191.151 214.507 190.749 209.498 190.269C207.603 190.085 205.708 189.893 203.812 189.695C202.353 189.543 200.894 189.386 199.437 189.223C184.404 187.575 169.524 185.684 155.833 185.614C155.391 185.614 154.95 185.614 154.511 185.614C152.666 185.62 150.847 185.663 149.054 185.743C146.332 185.865 143.669 186.079 141.072 186.402C135.553 187.088 130.085 188.235 124.82 190.044C117.091 192.7 108.93 193.905 101.211 193.106C90.6545 192.015 80.9302 187.175 74.2807 177.18C50.6294 141.631 66.0782 83.4661 101.211 60.4503C102.148 59.8354 103.101 59.2461 104.07 58.6823C113.596 53.1257 124.44 49.8978 135.436 49.1729C139.966 48.875 144.409 49.255 148.808 49.9596L149.05 49.9983C150.874 50.2953 152.692 50.6439 154.507 51.0294C154.948 51.1216 155.389 51.2157 155.83 51.3116C160.674 52.3658 165.499 53.585 170.368 54.4897C182.32 56.7114 192.502 54.664 203.808 50.9141L204.263 50.7619C218.105 46.1276 232.702 43.5859 246.986 46.5989C261.711 49.7069 274.463 56.7013 286.169 66.0742C287.779 67.3632 289.322 68.732 290.795 70.1755C293.034 72.3703 295.112 74.7246 297.012 77.2197C297.476 77.8271 297.929 78.4435 298.372 79.0688C300.615 82.2363 302.592 85.5835 304.284 89.0762C305.541 91.6662 306.645 94.3271 307.593 97.0455C309.305 101.961 310.508 107.039 311.183 112.2C313.371 128.934 310.635 146.52 301.416 160.862Z" fill="#CDEFF8" fill-opacity="0.64"/>
<path opacity="0.3" d="M101.213 60.4484V193.104C99.7725 192.957 98.3411 192.735 96.924 192.439C96.8318 192.422 96.7479 192.403 96.6603 192.384C92.4105 191.468 88.36 189.875 84.6709 187.505C84.5335 187.413 84.3943 187.329 84.2633 187.239C83.432 186.69 82.6208 186.1 81.8295 185.469C81.7372 185.399 81.6533 185.328 81.5657 185.256C79.1787 183.305 77.0545 181.054 75.2464 178.557C75.1818 178.465 75.1182 178.381 75.0546 178.293C74.7936 177.929 74.5372 177.555 74.2854 177.179C72.6781 174.758 71.2418 172.229 69.9868 169.609C69.9443 169.522 69.9019 169.433 69.8613 169.346C68.5307 166.533 67.396 163.631 66.4656 160.662C66.4388 160.57 66.4112 160.487 66.3844 160.399C65.5022 157.55 64.7938 154.651 64.2632 151.716C64.2457 151.624 64.23 151.54 64.2153 151.452C63.7048 148.579 63.3493 145.68 63.1501 142.769C63.1433 142.681 63.1378 142.592 63.1335 142.503C62.9416 139.631 62.8974 136.73 62.9924 133.821C62.9924 133.729 62.9979 133.645 63.0016 133.557C63.103 130.666 63.3419 127.767 63.7126 124.874C63.7246 124.781 63.7357 124.697 63.7477 124.61C64.1277 121.703 64.6392 118.809 65.2823 115.927C65.3017 115.835 65.3211 115.751 65.3414 115.663C66.0017 112.739 66.793 109.838 67.7106 106.98C67.7383 106.888 67.7669 106.803 67.7973 106.715C68.7509 103.77 69.8374 100.875 71.0566 98.0322L71.1691 97.7675C72.4538 94.7951 73.8787 91.8927 75.4373 89.0854C75.4853 88.9932 75.5351 88.9092 75.5839 88.8207C77.2543 85.8269 79.09 82.9284 81.0824 80.1386C81.1461 80.0463 81.2088 79.9624 81.2733 79.8739C81.3693 79.7405 81.4658 79.607 81.5629 79.4736C81.6502 79.3506 81.7382 79.2311 81.8267 79.1149C83.8682 76.3395 86.0794 73.6932 88.4476 71.1908C88.5315 71.0986 88.6154 71.0147 88.7003 70.9271C91.1764 68.3319 93.8376 65.92 96.663 63.7104L96.9268 63.5047C97.4802 63.0743 98.0421 62.6541 98.6127 62.244C98.7335 62.1518 98.8562 62.0669 98.9816 61.9802C99.7145 61.4539 100.458 60.9433 101.213 60.4484Z" fill="#88CADB"/>
<path d="M84.6664 187.505H96.6557V192.384C96.7479 192.403 96.8309 192.422 96.9195 192.439V187.505H101.208V187.239H84.2596C84.3952 187.329 84.5299 187.417 84.6664 187.505ZM81.8258 79.1148C81.7373 79.2341 81.6493 79.3537 81.562 79.4736V79.8738H81.2724C81.2079 79.9661 81.1452 80.05 81.0815 80.1385H96.6603V88.8206H75.583C75.5342 88.9129 75.4844 88.9959 75.4364 89.0853H81.562V97.7675H71.1682L71.0557 98.0322H96.6603V106.715H67.7937C67.7632 106.807 67.7346 106.892 67.707 106.98H81.5593V115.663H65.3404C65.3202 115.755 65.3008 115.839 65.2814 115.927H66.4628V124.61H63.7468C63.7348 124.702 63.7237 124.786 63.7117 124.874H81.562V133.557H63.0007C63.0007 133.649 62.9942 133.733 62.9915 133.821H66.4628V142.503H63.1326C63.1369 142.592 63.1424 142.681 63.1492 142.769H81.562V151.452H64.2144C64.2291 151.54 64.2448 151.627 64.2623 151.716H66.4628V160.399H66.3808C66.4075 160.487 66.4352 160.574 66.4619 160.662H81.562V169.346H69.8577C69.8982 169.433 69.9407 169.522 69.9831 169.609H96.6603V178.293H75.0509C75.1145 178.385 75.1782 178.47 75.2427 178.557H81.562V185.256C81.6543 185.328 81.7373 185.399 81.8258 185.469V178.557H101.213V178.293H96.9241V169.609H101.213V169.346H81.8258V160.662H101.213V160.399H96.9241V151.716H101.213V151.452H81.8258V142.769H101.213V142.503H96.9241V133.821H101.213V133.557H81.8258V124.874H101.213V124.61H96.9241V115.927H101.213V115.663H81.8258V106.98H101.213V106.715H96.9241V98.0322H101.213V97.7675H81.8258V89.0853H101.213V88.8206H96.9241V80.1385H101.213V79.8738H81.8258V79.1148ZM96.6603 151.716V160.399H66.7275V151.716H96.6603ZM96.6603 133.824V142.506H66.7275V133.824H96.6603ZM96.6603 115.932V124.615H66.7275V115.927L96.6603 115.932ZM96.9241 63.5102L96.6603 63.7159V70.9325H88.6975C88.6127 71.0248 88.5288 71.1078 88.4448 71.1963H101.213V70.9325H96.9241V63.5102ZM98.9752 61.9857C98.8535 62.0724 98.7308 62.1609 98.6063 62.2495H101.209V61.9857H98.9752Z" fill="white"/>
<path d="M155.831 51.3098V185.614C153.537 185.602 151.277 185.644 149.053 185.741V49.9974C151.321 50.3663 153.578 50.8201 155.831 51.3098Z" fill="white"/>
<path opacity="0.41" d="M267.065 89.0781L224.457 191.4C219.506 191.151 214.506 190.749 209.497 190.269C207.602 190.085 205.707 189.893 203.811 189.695C202.352 189.543 200.894 189.386 199.436 189.223L242.023 89.0781H267.065Z" fill="#C5E8F1"/>
<path d="M304.284 89.0781H202.582V70.1718H290.797C293.036 72.3679 295.113 74.7234 297.012 77.2197C297.476 77.8272 297.929 78.4435 298.372 79.0688C300.615 82.2369 302.592 85.5847 304.284 89.0781Z" fill="#CDEFF8"/>
<path d="M148.811 49.9577V75.5771H101.212V60.4521C102.15 59.8372 103.103 59.2479 104.071 58.6841C113.596 53.1275 124.44 49.8996 135.436 49.1747C139.964 48.8731 144.407 49.2531 148.811 49.9577Z" fill="#CDEFF8"/>
<path d="M203.81 50.9112V189.695C187.301 187.958 170.85 185.69 155.831 185.613C155.389 185.613 154.949 185.613 154.51 185.613V51.0274C154.951 51.1196 155.391 51.2119 155.831 51.3041C160.677 52.3573 165.502 53.5774 170.371 54.4822C182.323 56.7094 192.504 54.662 203.81 50.9112Z" fill="#CDEFF8"/>
<path d="M318.06 141.04C317.817 148.933 315.597 156.638 311.604 163.451C307.795 169.929 302.197 176.368 303.136 183.823C304.561 184.561 306.188 183.324 307.236 182.11C312.4 176.125 315.259 168.513 317.505 160.935C320.406 151.163 322.474 141.163 323.689 131.043C323.83 129.867 323.901 128.871 323.337 127.858C318.242 129.566 318.19 136.637 318.06 141.04Z" fill="#DCEEF3"/>
<path d="M316.403 115.315C315.954 117.662 315.885 120.772 318.094 121.679C319.271 122.165 320.667 121.718 321.642 120.9C323.031 119.735 323.751 117.765 323.268 116.012C322.786 114.26 321.031 112.906 319.223 113.04C317.415 113.174 315.835 114.921 316.035 116.723" fill="#DCEEF3"/>
<path d="M179.498 48.6398C189.495 49.3518 205.175 47.653 210.107 37.261C212.194 32.8609 208.96 29.6348 204.051 30.0333C195.813 30.7019 190.125 36.9825 182.741 39.4495C174.459 42.2163 164.237 39.0594 155.873 41.1741C155.254 41.33 154.549 41.5596 154.318 42.1545C152.805 46.0381 176.781 48.4452 179.498 48.6398Z" fill="#DCEEF3"/>
<path d="M83.2111 68.9505C85.2512 66.654 87.4468 64.5004 89.7822 62.5049C91.2117 61.2856 92.7915 59.5361 92.1109 57.7857C87.9487 57.5615 84.5484 60.89 81.7345 63.9648C76.1447 70.0729 70.4424 75.5751 65.1145 82.0752C61.2632 86.7704 56.3651 97.0674 57.5871 103.397C59.1936 111.718 63.199 102.596 64.9817 98.8363C70.1418 87.9611 75.4438 77.6806 83.2111 68.9505Z" fill="#DCEEF3"/>
<path d="M96.128 49.9023C96.4831 51.0533 98.2492 51.3613 99.0498 50.4557C99.8503 49.55 99.4298 47.9287 98.3369 47.4233C97.244 46.9179 95.8126 47.5432 95.3367 48.6499" fill="#DCEEF3"/>
<path d="M52.9249 123.849C53.3759 124.461 54.2069 124.684 54.9659 124.631C57.0631 124.485 58.7813 122.218 58.2454 120.185C57.7096 118.152 54.9558 117.049 53.2219 118.238C51.4881 119.427 51.6181 122.519 53.493 123.472" fill="#DCEEF3"/>
<path opacity="0.41" d="M301.416 160.862C292.919 174.082 281.981 181.982 269.568 186.465L307.593 97.0481C309.305 101.963 310.508 107.042 311.183 112.203C313.371 128.934 310.635 146.52 301.416 160.862Z" fill="white"/>
<path d="M91.2539 219.432V219.448H91.336C91.3092 219.44 91.2817 219.435 91.2539 219.432Z" fill="#75C1D4"/>
<path d="M91.2522 219.69L91.3361 219.449L91.4099 219.238L91.4662 219.075C91.4477 219.069 91.4289 219.064 91.4099 219.06C91.3702 219.052 91.3177 219.043 91.2568 219.036V219.431V219.447L91.2522 219.69Z" fill="#75C1D4"/>
<path d="M216.575 144.048C216.29 143.81 216.006 143.573 215.724 143.34C216.005 143.574 216.29 143.806 216.575 144.048Z" fill="white"/>
<path d="M212.359 140.624C212.025 140.362 211.695 140.106 211.374 139.86C211.695 140.107 212.024 140.361 212.359 140.624Z" fill="white"/>
<path d="M211.373 139.86C211.036 139.602 210.707 139.354 210.387 139.116C210.707 139.353 211.036 139.601 211.373 139.86Z" fill="white"/>
<path d="M210.11 138.91C209.838 138.709 209.573 138.518 209.315 138.335C209.573 138.518 209.838 138.711 210.11 138.91Z" fill="white"/>
<path d="M209.124 138.198C208.679 137.883 208.255 137.594 207.858 137.335C208.256 137.595 208.678 137.883 209.124 138.198Z" fill="white"/>
<path d="M207.858 137.335C207.744 137.26 207.633 137.188 207.523 137.119L207.858 137.335Z" fill="white"/>
<path d="M111.227 154.156C111.281 154.006 111.335 153.858 111.391 153.71C111.332 153.859 111.278 154.007 111.227 154.156Z" fill="white"/>
<path d="M111.386 153.71L111.485 153.448L111.386 153.71Z" fill="white"/>
<path d="M111.485 153.448L111.555 153.269L111.485 153.448Z" fill="white"/>
<path d="M112.974 150.059C112.482 151.053 111.997 152.132 111.555 153.269C113.694 147.783 116.839 143.677 116.839 143.677C116.901 143.596 116.961 143.516 117.024 143.437L116.839 143.677C116.839 143.677 114.861 146.257 112.974 150.059Z" fill="white"/>
<path d="M137.337 132.647C137.317 132.647 137.258 132.642 137.163 132.639C137.272 132.644 137.328 132.649 137.328 132.649L137.337 132.647Z" fill="white"/>
<path d="M135.87 132.655C136.488 132.621 136.933 132.631 137.161 132.641C136.939 132.631 136.497 132.621 135.87 132.655Z" fill="white"/>
<path d="M135.858 132.655L135.696 132.665L135.858 132.655Z" fill="white"/>
<path d="M110.272 157.315C110.087 158.086 109.933 158.868 109.824 159.656C109.936 158.868 110.086 158.086 110.272 157.315Z" fill="white"/>
<path d="M109.79 159.909C109.8 159.825 109.812 159.741 109.824 159.657C109.811 159.734 109.801 159.812 109.791 159.888C109.79 159.895 109.789 159.902 109.79 159.909Z" fill="white"/>
<path d="M214.042 190.671C211.836 182.437 203.348 177.557 195.084 179.771C186.82 181.985 181.909 190.455 184.116 198.69C186.322 206.924 194.81 211.804 203.074 209.59C211.338 207.376 216.248 198.906 214.042 190.671Z" fill="#75C1D4"/>
<path d="M195.084 179.771C193.571 180.176 192.172 180.793 190.907 181.578C197.547 181.788 203.542 186.274 205.344 193.002C207.147 199.728 204.198 206.611 198.553 210.113C200.041 210.161 201.561 209.995 203.074 209.59C211.338 207.376 216.249 198.906 214.042 190.671C211.836 182.437 203.348 177.557 195.084 179.771Z" fill="#57A4B9"/>
<path d="M177.511 107.194C172.963 109.444 167.455 107.596 165.205 103.066C162.957 98.537 164.821 93.0413 169.368 90.7917C173.915 88.5421 179.425 90.3897 181.674 94.9198C183.922 99.4492 182.059 104.945 177.511 107.194Z" fill="#75C1D4"/>
<path d="M181.674 94.9198C179.425 90.3897 173.915 88.5421 169.368 90.7917C168.945 91.0011 168.546 91.2394 168.17 91.5007C171.249 91.7724 174.116 93.5877 175.587 96.5508C177.627 100.658 176.283 105.561 172.623 108.116C174.251 108.26 175.939 107.972 177.511 107.194C182.059 104.945 183.922 99.4492 181.674 94.9198Z" fill="#57A4B9"/>
<path d="M235.471 182.255L161.35 202.116C154.717 203.893 147.905 199.977 146.135 193.369C145.155 189.71 145.889 185.803 148.131 182.74L149.999 180.188C154.321 174.286 155.736 166.756 153.847 159.705L150.477 147.13C145.506 128.576 156.57 109.492 175.19 104.503C193.809 99.514 212.933 110.509 217.905 129.063L221.337 141.87C223.19 148.788 228.031 154.523 234.551 157.524L237.385 158.829C240.768 160.386 243.28 163.362 244.242 166.952L244.274 167.072C246.045 173.68 242.104 180.478 235.471 182.255Z" fill="#A8E0EE"/>
<path d="M237.385 158.829L234.551 157.524C228.031 154.522 223.19 148.788 221.336 141.869L217.905 129.062C212.934 110.509 193.809 99.5131 175.19 104.502C171.89 105.386 168.83 106.715 166.054 108.402C181.143 108.739 194.816 118.887 198.906 134.152L202.338 146.96C204.192 153.878 209.033 159.612 215.552 162.615L218.388 163.919C221.77 165.477 224.283 168.452 225.245 172.042L225.277 172.163C227.048 178.771 223.107 185.568 216.474 187.345L235.472 182.255C242.104 180.478 246.045 173.68 244.274 167.072L244.242 166.952C243.28 163.362 240.768 160.386 237.385 158.829Z" fill="#75C1D4"/>
<path d="M250.912 99.8489C250.912 83.364 237.501 70 220.957 70C204.412 70 191 83.364 191 99.8489C191 116.334 204.412 129.698 220.957 129.698C237.501 129.698 250.912 116.334 250.912 99.8489Z" fill="#E83535"/>
<path d="M228.995 71.0887C236.634 76.4977 241.618 85.3872 241.618 95.4368C241.618 111.922 228.207 125.286 211.662 125.286C208.877 125.286 206.182 124.906 203.624 124.197C208.516 127.661 214.498 129.698 220.957 129.698C237.5 129.698 250.912 116.334 250.912 99.8489C250.912 86.1385 241.635 74.5893 228.995 71.0887Z" fill="#CC0000"/>
<path d="M230.213 89.7269L230.213 89.7268C229.854 89.3684 229.368 89.167 228.861 89.167C228.354 89.167 227.868 89.3684 227.509 89.7268L227.509 89.7269L219.685 97.5509L211.861 89.7269L211.861 89.7264C211.502 89.3686 211.016 89.1679 210.509 89.1682C210.003 89.1685 209.517 89.3699 209.159 89.7281C208.801 90.0863 208.599 90.5721 208.599 91.0787C208.599 91.5853 208.799 92.0713 209.157 92.43L209.158 92.4304L216.982 100.254L209.158 108.078L209.157 108.079C208.799 108.438 208.599 108.924 208.599 109.43C208.599 109.937 208.801 110.423 209.159 110.781L209.159 110.781C209.517 111.139 210.003 111.34 210.509 111.341C211.016 111.341 211.502 111.14 211.861 110.782L211.861 110.782L219.685 102.958L227.509 110.782L227.51 110.782C227.868 111.14 228.354 111.341 228.861 111.341C229.367 111.34 229.853 111.139 230.211 110.781C230.57 110.423 230.771 109.937 230.771 109.43C230.772 108.924 230.571 108.438 230.213 108.079L230.213 108.078L222.389 100.254L230.213 92.4304C230.39 92.2529 230.531 92.0421 230.627 91.8102C230.723 91.5783 230.773 91.3297 230.773 91.0786C230.773 90.8276 230.723 90.579 230.627 90.3471C230.531 90.1151 230.39 89.9044 230.213 89.7269Z" fill="white" stroke="white"/>
</svg>
