<svg width="375" height="250" viewBox="0 0 375 250" fill="none" xmlns="http://www.w3.org/2000/svg">
<g clip-path="url(#clip0)">
<path d="M375 0H0V250H375V0Z" fill="#F6F6F6"/>
<path d="M188.872 213.595C260.087 213.595 317.818 209.156 317.818 203.68C317.818 198.204 260.087 193.765 188.872 193.765C117.657 193.765 59.9253 198.204 59.9253 203.68C59.9253 209.156 117.657 213.595 188.872 213.595Z" fill="#DCEEF3"/>
<path d="M307.933 111.893C307.933 113.047 307.899 114.208 307.83 115.377C307.243 125.823 304.129 136.723 298.726 146.11C294.336 153.743 288.435 160.373 281.151 164.953C278.606 166.558 275.9 167.892 273.077 168.933C269.531 170.238 265.817 171.033 262.047 171.293C261.647 171.32 261.246 171.342 260.845 171.358C258.45 171.447 256.052 171.344 253.673 171.05C245.593 170.081 237.835 167.235 229.984 164.953H229.978C227.797 164.319 225.61 163.728 223.408 163.234C221.723 162.859 220.018 162.585 218.3 162.411C216.945 162.268 215.591 162.181 214.236 162.13C210.996 162.007 207.756 162.094 204.512 162.158C201.038 162.224 197.559 162.261 194.072 161.981C191.819 161.81 189.582 161.474 187.378 160.977C187.131 160.92 186.884 160.862 186.637 160.799C179.474 159.004 172.374 156.727 165.074 155.65C162.946 155.329 160.802 155.13 158.652 155.055C158.005 155.034 157.355 155.026 156.702 155.03C149.563 155.062 142.167 156.32 135.214 154.525C131.869 153.66 128.91 152.033 126.07 150.163C124.026 148.819 122.042 147.348 120.023 145.947C117.012 143.858 113.918 141.925 110.413 140.793C110.241 140.737 110.066 140.683 109.89 140.633C109.688 140.573 109.485 140.512 109.28 140.449C105.908 139.412 102.614 138.134 99.4246 136.625C92.173 133.194 85.1065 128.344 81.1089 122.25C81.0288 122.128 80.9486 122.009 80.8725 121.883C75.9703 114.11 72.9815 105.001 72.6065 95.8588C72.5531 94.557 72.5531 93.2558 72.6065 91.955C72.7479 88.3878 73.3278 84.8516 74.3332 81.4262C75.4169 77.7984 77.0264 74.3491 79.1105 71.1882C85.8613 60.8765 97.2748 53.3997 109.28 50.7163C111.26 50.2717 113.267 49.9603 115.289 49.7844C115.518 49.7643 115.748 49.7451 115.976 49.7299C116.63 49.6839 117.285 49.6479 117.939 49.6217C119.307 49.5683 120.674 49.5512 122.038 49.5704C122.922 49.5811 123.806 49.6035 124.689 49.6377C126.057 49.6906 127.423 49.7675 128.789 49.8605C129.673 49.9198 130.557 49.9852 131.44 50.0568C132.807 50.165 134.172 50.282 135.54 50.3981C136.423 50.4745 137.307 50.5488 138.191 50.6209C139.553 50.7331 140.924 50.8389 142.291 50.9262C143.174 50.985 144.057 51.0349 144.941 51.076C146.304 51.1401 147.673 51.1802 149.041 51.189C149.924 51.1954 150.807 51.1879 151.691 51.1666C152.134 51.1546 152.573 51.1393 153.018 51.1185C154.246 51.0651 155.473 50.9951 156.699 50.9086C167.834 50.1343 178.847 48.1003 189.524 44.8453C193.141 43.7419 196.82 42.6818 200.538 41.6986C205.072 40.5015 209.663 39.4246 214.271 38.5376C214.918 38.4126 215.566 38.2919 216.213 38.1754C216.623 38.1001 217.034 38.0288 217.444 37.9575C218.365 37.7972 219.285 37.6468 220.204 37.5063H220.208C220.662 37.4374 221.115 37.3685 221.571 37.3028C222.959 37.102 224.348 36.9225 225.737 36.7643C227.62 36.5507 229.499 36.3792 231.373 36.2499C241.98 35.5288 252.382 36.3028 262.049 39.431C266.149 40.7488 270.091 42.5128 273.806 44.6914C274.699 45.216 275.583 45.7691 276.457 46.3509C277.849 47.2756 279.216 48.2734 280.557 49.3445C281.453 50.0624 282.336 50.8135 283.208 51.5977C284.61 52.861 285.976 54.2157 287.307 55.6618C288.209 56.6404 289.093 57.6626 289.958 58.7283C290.157 58.9735 290.356 59.2211 290.552 59.4711C291.03 60.0742 291.501 60.6911 291.966 61.322C292.688 62.3012 293.386 63.2988 294.059 64.3148C294.99 65.7192 295.873 67.1567 296.709 68.6273C297.574 70.146 298.387 71.6951 299.151 73.2747C299.225 73.4286 299.3 73.5827 299.373 73.7371C299.875 74.7862 300.353 75.8466 300.809 76.9182C301.796 79.2376 302.679 81.6 303.459 84.0055C304.88 88.3879 305.966 92.8716 306.71 97.4181C306.836 98.1879 306.953 98.959 307.059 99.7314C307.26 101.174 307.426 102.621 307.558 104.072C307.665 105.234 307.748 106.395 307.809 107.557C307.859 108.456 307.895 109.353 307.916 110.249C307.928 110.793 307.933 111.342 307.933 111.893Z" fill="#F5FDFF"/>
<path d="M204.514 77.0735V162.41H194.071H187.377V160.977C187.129 160.921 186.882 160.862 186.635 160.8C179.472 159.005 172.376 156.727 165.072 155.65V77.0735H204.514Z" fill="#D3E0DB"/>
<path d="M176.882 83.4919H168.853V86.7516H176.882V83.4919Z" fill="#B6CEC4"/>
<path d="M187.378 83.4919H179.349V86.7516H187.378V83.4919Z" fill="#B6CEC4"/>
<path d="M197.874 83.4919H189.845V86.7516H197.874V83.4919Z" fill="white" stroke="black" stroke-width="4" stroke-miterlimit="10"/>
<path d="M176.882 90.8125H168.853V94.0721H176.882V90.8125Z" fill="#B6CEC4"/>
<path d="M187.378 90.8125H179.349V94.0721H187.378V90.8125Z" fill="#B6CEC4"/>
<path d="M197.874 90.8125H189.845V94.0721H197.874V90.8125Z" fill="white" stroke="black" stroke-width="4" stroke-miterlimit="10"/>
<path d="M176.882 98.1321H168.853V101.392H176.882V98.1321Z" fill="#B6CEC4"/>
<path d="M187.378 98.1321H179.349V101.392H187.378V98.1321Z" fill="#B6CEC4"/>
<path d="M197.874 98.1321H189.845V101.392H197.874V98.1321Z" fill="white" stroke="black" stroke-width="4" stroke-miterlimit="10"/>
<path d="M176.882 105.452H168.853V108.712H176.882V105.452Z" fill="#B6CEC4"/>
<path d="M187.378 105.452H179.349V108.712H187.378V105.452Z" fill="#B6CEC4"/>
<path d="M197.874 105.452H189.845V108.712H197.874V105.452Z" fill="white" stroke="black" stroke-width="4" stroke-miterlimit="10"/>
<path d="M176.882 112.772H168.853V116.032H176.882V112.772Z" fill="#B6CEC4"/>
<path d="M187.378 112.772H179.349V116.032H187.378V112.772Z" fill="#B6CEC4"/>
<path d="M197.874 112.772H189.845V116.032H197.874V112.772Z" fill="white" stroke="black" stroke-width="4" stroke-miterlimit="10"/>
<path d="M204.513 77.0735H187.378V162.41H204.513V77.0735Z" fill="#B6CEC4"/>
<path d="M120.023 71.1882V145.948C116.862 143.755 113.613 141.734 109.89 140.631C109.688 140.571 109.485 140.51 109.28 140.447C105.908 139.41 102.614 138.132 99.4244 136.623C92.0278 133.124 84.8226 128.147 80.8723 121.88C75.9701 114.107 72.9805 104.998 72.6055 95.8557V91.9511C72.748 88.3842 73.3282 84.8484 74.333 81.423C75.417 77.7964 77.0265 74.3482 79.1103 71.1882H120.023Z" fill="#D3F1F9"/>
<path d="M112.041 78.0496H102.386V81.5343H112.041V78.0496Z" fill="white" stroke="black" stroke-width="4" stroke-miterlimit="10"/>
<path d="M112.041 85.875H102.386V89.3598H112.041V85.875Z" fill="white" stroke="black" stroke-width="4" stroke-miterlimit="10"/>
<path d="M112.041 93.6995H102.386V97.1842H112.041V93.6995Z" fill="white" stroke="black" stroke-width="4" stroke-miterlimit="10"/>
<path d="M112.041 101.524H102.386V105.009H112.041V101.524Z" fill="white" stroke="black" stroke-width="4" stroke-miterlimit="10"/>
<path d="M86.7997 78.0496H77.145V81.5343H86.7997V78.0496Z" fill="#A8E0EE"/>
<path d="M99.4198 78.0496H89.7651V81.5343H99.4198V78.0496Z" fill="#A8E0EE"/>
<path d="M86.7997 85.875H77.145V89.3598H86.7997V85.875Z" fill="#A8E0EE"/>
<path d="M99.4198 85.875H89.7651V89.3598H99.4198V85.875Z" fill="#A8E0EE"/>
<path d="M86.7997 93.6995H77.145V97.1842H86.7997V93.6995Z" fill="#A8E0EE"/>
<path d="M99.4198 93.6995H89.7651V97.1842H99.4198V93.6995Z" fill="#A8E0EE"/>
<path d="M86.7997 101.524H77.145V105.009H86.7997V101.524Z" fill="#A8E0EE"/>
<path d="M99.4198 101.524H89.7651V105.009H99.4198V101.524Z" fill="#A8E0EE"/>
<path d="M86.7997 109.349H77.145V112.834H86.7997V109.349Z" fill="#A8E0EE"/>
<path d="M99.4198 109.349H89.7651V112.834H99.4198V109.349Z" fill="#A8E0EE"/>
<path d="M112.041 109.349H102.386V112.834H112.041V109.349Z" fill="white" stroke="black" stroke-width="4" stroke-miterlimit="10"/>
<path d="M117.468 65.209H92.9839V71.189H117.468V65.209Z" fill="#D3F1F9"/>
<path d="M120.022 71.189V145.948C116.861 143.755 113.612 141.734 109.889 140.632C109.687 140.572 109.484 140.511 109.28 140.448C105.907 139.411 102.613 138.133 99.4238 136.624V71.189H120.022Z" fill="#C4E7F0"/>
<path d="M117.467 69.3086H92.9839V71.19H117.467V69.3086Z" fill="#C4E7F0"/>
<path d="M156.702 50.9093V155.031C149.563 155.062 142.166 156.32 135.214 154.525C129.461 153.038 124.847 149.294 120.023 145.951C116.862 143.758 113.613 141.737 109.89 140.634C109.688 140.574 109.485 140.513 109.28 140.45V50.7161C111.26 50.2712 113.268 49.9598 115.29 49.7843C115.519 49.7645 115.747 49.7463 115.977 49.7298C116.631 49.6838 117.285 49.648 117.94 49.6224C119.308 49.5671 120.674 49.5535 122.039 49.5695C122.923 49.5807 123.807 49.6034 124.69 49.6376C126.058 49.6905 127.424 49.7674 128.79 49.8604C129.674 49.9197 130.558 49.9848 131.441 50.0559C132.803 50.1649 134.174 50.2818 135.541 50.398C136.425 50.4744 137.308 50.5487 138.191 50.6208C139.554 50.733 140.925 50.8387 142.292 50.9261C143.173 50.9848 144.057 51.0348 144.942 51.0759C146.304 51.1392 147.674 51.1801 149.042 51.1889C149.924 51.1953 150.808 51.1876 151.693 51.1657C152.134 51.1544 152.575 51.1387 153.018 51.1184C154.247 51.0639 155.475 50.9942 156.702 50.9093Z" fill="#E5F7FC"/>
<path d="M117.942 49.6226V126.329H115.292V49.7828C115.521 49.7631 115.75 49.7449 115.979 49.7283C116.633 49.6835 117.287 49.6482 117.942 49.6226Z" fill="#CAE3E9"/>
<path d="M124.692 49.6377V126.329H122.042V49.5664C122.926 49.5798 123.809 49.6035 124.692 49.6377Z" fill="#CAE3E9"/>
<path d="M131.443 50.0559V126.329H128.792V49.8628C129.676 49.9205 130.56 49.9849 131.443 50.0559Z" fill="#CAE3E9"/>
<path d="M138.194 50.621V126.329H135.543V50.3982C136.427 50.4746 137.311 50.5488 138.194 50.621Z" fill="#CAE3E9"/>
<path d="M144.944 51.0759V126.329H142.294V50.9285C143.176 50.9856 144.059 51.0348 144.944 51.0759Z" fill="#CAE3E9"/>
<path d="M151.696 51.1658V126.326H149.045V51.189C149.927 51.1954 150.81 51.1877 151.696 51.1658Z" fill="#CAE3E9"/>
<path d="M233.512 44.842H194.072V162.412H233.512V44.842Z" fill="#D7F2FA"/>
<path d="M226.873 53.6851H218.844V58.1762H226.873V53.6851Z" fill="white" stroke="black" stroke-width="4" stroke-miterlimit="10"/>
<path d="M226.873 63.77H218.844V68.2612H226.873V63.77Z" fill="white" stroke="black" stroke-width="4" stroke-miterlimit="10"/>
<path d="M226.873 73.8542H218.844V78.3454H226.873V73.8542Z" fill="white" stroke="black" stroke-width="4" stroke-miterlimit="10"/>
<path d="M226.873 83.939H218.844V88.4302H226.873V83.939Z" fill="white" stroke="black" stroke-width="4" stroke-miterlimit="10"/>
<path d="M205.881 53.6851H197.851V58.1762H205.881V53.6851Z" fill="#D7F2FA"/>
<path d="M216.376 53.6851H208.347V58.1762H216.376V53.6851Z" fill="#D7F2FA"/>
<path d="M205.881 63.77H197.851V68.2612H205.881V63.77Z" fill="#D7F2FA"/>
<path d="M216.376 63.77H208.347V68.2612H216.376V63.77Z" fill="#D7F2FA"/>
<path d="M205.881 73.8542H197.851V78.3454H205.881V73.8542Z" fill="#B6CEC4"/>
<path d="M216.376 73.8542H208.347V78.3454H216.376V73.8542Z" fill="#B6CEC4"/>
<path d="M205.881 83.939H197.851V88.4302H205.881V83.939Z" fill="#B6CEC4"/>
<path d="M216.376 83.939H208.347V88.4302H216.376V83.939Z" fill="#B6CEC4"/>
<path d="M205.881 94.0239H197.851V98.5143H205.881V94.0239Z" fill="#B6CEC4"/>
<path d="M216.376 94.0239H208.347V98.5143H216.376V94.0239Z" fill="#B6CEC4"/>
<path d="M226.873 94.0239H218.844V98.5143H226.873V94.0239Z" fill="white" stroke="black" stroke-width="4" stroke-miterlimit="10"/>
<path d="M253.677 58.366V171.053C245.596 170.084 237.838 167.238 229.987 164.955H229.981C227.801 164.321 225.613 163.731 223.411 163.236C221.726 162.862 220.02 162.587 218.303 162.413C216.949 162.271 215.594 162.183 214.238 162.131V58.3652L253.677 58.366Z" fill="#D7F2FA"/>
<path d="M220.875 48.4902H228.905V45.2306H220.875V48.4902Z" fill="white" stroke="black" stroke-width="4" stroke-miterlimit="10"/>
<path d="M220.875 55.8108H228.905V52.5512H220.875V55.8108Z" fill="white" stroke="black" stroke-width="4" stroke-miterlimit="10"/>
<path d="M220.875 63.1313H228.905V59.8717H220.875V63.1313Z" fill="white" stroke="black" stroke-width="4" stroke-miterlimit="10"/>
<path d="M220.875 70.4502H228.905V67.1906H220.875V70.4502Z" fill="white" stroke="black" stroke-width="4" stroke-miterlimit="10"/>
<path d="M242.073 69.3252H250.103V66.0656H242.073V69.3252Z" fill="#A8E0EE"/>
<path d="M231.578 69.3252H239.607V66.0656H231.578V69.3252Z" fill="#A8E0EE"/>
<path d="M242.073 76.6458H250.103V73.3861H242.073V76.6458Z" fill="#A8E0EE"/>
<path d="M231.578 76.6458H239.607V73.3861H231.578V76.6458Z" fill="#A8E0EE"/>
<path d="M242.073 83.9663H250.103V80.7067H242.073V83.9663Z" fill="#A8E0EE"/>
<path d="M231.578 83.9663H239.607V80.7067H231.578V83.9663Z" fill="#A8E0EE"/>
<path d="M242.073 91.2859H250.103V88.0263H242.073V91.2859Z" fill="#A8E0EE"/>
<path d="M231.578 91.2859H239.607V88.0263H231.578V91.2859Z" fill="#A8E0EE"/>
<path d="M242.073 98.6057H250.103V95.3461H242.073V98.6057Z" fill="#A8E0EE"/>
<path d="M231.578 98.6057H239.607V95.3461H231.578V98.6057Z" fill="#A8E0EE"/>
<path d="M220.875 77.7708H228.905V74.5111H220.875V77.7708Z" fill="white" stroke="black" stroke-width="4" stroke-miterlimit="10"/>
<path d="M231.372 36.249V164.953H214.237V38.5559L214.274 38.5375C215.332 38.334 216.39 38.1406 217.447 37.9574C218.368 37.7971 219.288 37.6467 220.207 37.5062H220.212C220.665 37.4373 221.119 37.3684 221.574 37.3027C222.963 37.1019 224.352 36.9224 225.741 36.7642C227.621 36.549 229.498 36.3772 231.372 36.249Z" fill="#C4E7F0"/>
<path d="M307.933 111.893C307.933 113.047 307.899 114.208 307.831 115.377C307.244 125.824 304.129 136.723 298.726 146.111C294.336 153.743 288.435 160.374 281.152 164.953C278.606 166.558 275.9 167.892 273.077 168.933C269.531 170.239 265.817 171.033 262.047 171.292V39.4302C266.147 40.7479 270.09 42.512 273.805 44.6906C274.698 45.2162 275.581 45.7694 276.455 46.35C277.848 47.2753 279.215 48.2734 280.555 49.3444C281.451 50.0608 282.335 50.8116 283.206 51.5968C284.607 52.8602 285.974 54.2149 287.306 55.6609C288.208 56.6401 289.092 57.6623 289.957 58.7274C290.637 59.5651 291.305 60.4294 291.96 61.3204C292.683 62.3006 293.38 63.2985 294.052 64.314C294.984 65.7194 295.868 67.1569 296.703 68.6265C297.653 70.2932 298.542 71.9953 299.368 73.7331C299.869 74.7822 300.348 75.8426 300.803 76.9141C301.79 79.2331 302.674 81.5955 303.454 84.0015C304.875 88.3838 305.961 92.8675 306.705 97.4141C306.831 98.1839 306.947 98.955 307.054 99.7274C307.254 101.173 307.42 102.62 307.552 104.068C307.659 105.23 307.743 106.392 307.805 107.553C307.853 108.452 307.889 109.349 307.911 110.245C307.926 110.793 307.933 111.343 307.933 111.893Z" fill="#CDEFF8" fill-opacity="0.4"/>
<path d="M303.458 84.0014V128.873H300.808V76.9141C301.795 79.2324 302.678 81.5949 303.458 84.0014Z" fill="#CAE3E9"/>
<path d="M296.707 68.6265V128.874H294.057V64.314C294.989 65.7194 295.872 67.1569 296.707 68.6265Z" fill="#CAE3E9"/>
<path d="M289.957 58.7274V128.874H287.307V55.6609C288.208 56.6401 289.092 57.6622 289.957 58.7274Z" fill="#CAE3E9"/>
<path d="M283.207 51.5969V128.874H280.556V49.3445C281.452 50.0608 282.336 50.8116 283.207 51.5969Z" fill="#CAE3E9"/>
<path d="M276.456 46.3501V128.874H273.805V44.6907C274.698 45.2163 275.582 45.7695 276.456 46.3501Z" fill="#CAE3E9"/>
<path d="M267.055 128.873H269.706V43.9622H267.055V128.873Z" fill="#CAE3E9"/>
<path d="M170.182 45.3924C171.519 44.9116 172.835 44.3555 174.153 43.7425C175.234 43.2385 176.828 42.6528 177.767 41.9228C178.644 41.2393 179.341 40.0582 179.726 39.0847C177.414 38.2233 175.069 40.6624 173.018 41.6929C165.492 45.4701 155.352 45.4949 147.34 43.3579C145.017 42.7377 140.138 39.5534 137.815 41.4132C134.154 44.3467 143.334 46.402 144.894 46.7457C151.358 48.1688 158.296 48.1881 164.783 46.906C166.619 46.5403 168.424 46.0343 170.182 45.3924Z" fill="#D9F3FA"/>
<path d="M73.5672 135.658C76.0015 139.401 80.7883 143.996 85.9021 141.694C91.0463 139.378 86.3989 133.285 83.076 130.845C78.0848 127.179 74.6473 123.45 73.1128 117.102C72.3564 113.971 72.2186 110.735 71.556 107.587C71.3645 106.679 68.5912 98.8717 67.3484 100.282C65.7972 102.045 66.1024 106.635 66.0496 108.845C65.975 111.987 66.2114 115.129 66.7555 118.225C67.8412 124.41 70.1425 130.392 73.5672 135.658Z" fill="#EBF9FC"/>
<path d="M61.1546 91.7586C63.302 93.8876 67.1097 94.5222 67.7123 90.6544C68.1778 87.6633 63.9815 83.3067 61.201 85.6985C58.8629 87.7097 59.5352 90.1568 61.1546 91.7586Z" fill="#D9F3FA"/>
<path d="M57.1828 100.209C57.2268 101.743 58.1772 103.167 60.2957 102.773C62.5586 102.349 62.94 98.4686 60.9648 97.3861C58.5738 96.0752 57.1259 98.2338 57.1828 100.209Z" fill="#D9F3FA"/>
<path d="M310.742 155.18C309.343 158.688 308.361 162.157 308.223 166.424C308.143 168.89 308.303 171.406 307.631 173.78C305.75 180.391 296.065 180.991 292.877 175.033C289.438 168.608 293.518 162.869 297.893 158.187C302.478 153.278 307.636 149.043 310.634 143.075C311.373 141.605 313.523 141.728 314.095 143.27C315.474 146.995 312.22 151.474 310.742 155.18Z" fill="#EBF9FC"/>
<path opacity="0.44" d="M307.933 111.893C307.933 113.047 307.898 114.209 307.83 115.377C307.243 125.823 304.129 136.723 298.726 146.111C294.336 153.743 288.435 160.373 281.151 164.953C278.606 166.558 275.9 167.892 273.077 168.933C269.531 170.239 265.817 171.033 262.047 171.293C261.647 171.32 261.246 171.342 260.845 171.358C258.45 171.447 256.052 171.344 253.673 171.05C245.593 170.081 237.835 167.235 229.984 164.953H229.978C227.797 164.319 225.61 163.728 223.408 163.234C221.723 162.86 220.018 162.585 218.3 162.411C216.945 162.268 215.591 162.181 214.235 162.13C210.996 162.007 207.756 162.094 204.512 162.158C201.038 162.224 197.559 162.261 194.072 161.981C191.819 161.81 189.582 161.474 187.378 160.977C187.131 160.921 186.884 160.862 186.637 160.8C179.473 159.004 172.374 156.727 165.074 155.65C162.946 155.329 160.802 155.131 158.652 155.055C158.005 155.034 157.355 155.026 156.702 155.03C149.563 155.062 142.167 156.32 135.214 154.525C131.869 153.66 128.91 152.033 126.07 150.163C125.376 145.453 125.055 140.695 125.109 135.934C165.805 140.421 208.028 139.7 246.304 125.161C256.981 121.106 267.423 115.897 275.758 108.087C280.332 103.8 284.191 98.8029 287.697 93.6041C292.052 87.1418 295.883 80.3422 299.155 73.27C299.23 73.4239 299.304 73.578 299.378 73.7324C299.88 74.7815 300.358 75.8419 300.813 76.9134C301.8 79.2329 302.684 81.5953 303.464 84.0008C304.884 88.3832 305.971 92.8669 306.715 97.4134C306.841 98.1832 306.957 98.9543 307.064 99.7267C307.265 101.169 307.431 102.616 307.562 104.067C307.669 105.229 307.753 106.391 307.814 107.552C307.864 108.451 307.899 109.349 307.921 110.244C307.928 110.793 307.933 111.342 307.933 111.893Z" fill="#CDEFF8"/>
<path d="M231.008 73.7532H169.175C166.885 73.7532 165.029 75.6093 165.029 77.899V201.233C165.029 203.523 166.885 205.379 169.175 205.379H231.008C233.298 205.379 235.154 203.523 235.154 201.233V77.899C235.154 75.6093 233.298 73.7532 231.008 73.7532Z" fill="#92C6D4"/>
<path d="M227.528 73.7532V205.379H169.174C168.629 205.379 168.09 205.272 167.587 205.063C167.084 204.855 166.627 204.55 166.243 204.165C165.858 203.78 165.552 203.323 165.344 202.82C165.136 202.317 165.029 201.777 165.029 201.233V77.899C165.029 77.3546 165.136 76.8155 165.344 76.3125C165.552 75.8095 165.858 75.3525 166.243 74.9675C166.627 74.5825 167.084 74.2771 167.587 74.0688C168.09 73.8604 168.629 73.7532 169.174 73.7532H227.528Z" fill="#75C1D4"/>
<path d="M225.358 80.9246H167.199V202.583H225.358V80.9246Z" fill="white"/>
<path d="M225.358 156.666V202.579H167.199V118.062C168.022 119.131 168.85 120.196 169.683 121.257C172.596 124.997 175.522 128.75 178.935 132.041C183.883 136.811 189.746 140.508 195.563 144.168C203.149 148.941 210.925 153.794 219.667 155.765C221.544 156.181 223.445 156.482 225.358 156.666Z" fill="#D7F2F9"/>
<path d="M213.505 99.078L209.887 107.826L210.539 108.095L214.157 99.3475L213.505 99.078Z" fill="#92C6D4"/>
<path d="M170.734 181.612L170.651 182.313L183.979 183.89L184.062 183.19L170.734 181.612Z" fill="#92C6D4"/>
<path d="M184.692 114.671L184.082 115.026L184.046 114.965L181.27 110.197L167.199 86.028V84.6257L182.102 110.222L184.665 114.625L184.692 114.671Z" fill="#92C6D4"/>
<path d="M224.095 96.3713L219.239 108.799L219.896 109.056L224.752 96.6279L224.095 96.3713Z" fill="#92C6D4"/>
<path d="M210.754 130.489V202.587H210.048V130.489C210.048 130.274 210.034 130.06 210.006 129.848C209.871 128.795 209.393 127.817 208.644 127.064L208.282 126.704L203.486 121.94L202.954 121.41L192.564 111.087L192.492 111.014L192.303 110.827L192.085 110.611L192.169 110.526L192.229 110.466L192.333 110.361L192.401 110.292L192.581 110.111L193.047 110.575L208.149 125.584L209.14 126.569C210 127.431 210.55 128.554 210.706 129.761C210.737 130.002 210.753 130.246 210.754 130.489Z" fill="#92C6D4"/>
<path d="M206.373 80.9246L204.076 86.0359L203.931 86.3572L203.787 86.6786L203.631 87.0255L201.079 92.7058L200.789 93.35L193.048 110.574L192.952 110.787L192.944 110.783V110.783L192.636 110.644L192.604 110.63L192.391 110.533H192.39L192.372 110.525L192.31 110.497L192.346 110.416L192.354 110.397H192.355L192.359 110.387L192.402 110.291L192.403 110.291L205.6 80.9246H206.373Z" fill="#92C6D4"/>
<path d="M200.942 92.6444L200.634 93.2788L213.641 99.589L213.948 98.9546L200.942 92.6444Z" fill="#92C6D4"/>
<path d="M225.411 188.719L225.358 188.718L224.706 188.714L211.326 188.631L210.754 188.627L210.401 188.625L210.216 188.624L210.22 187.918L210.401 187.919L210.754 187.921L211.154 187.924L225.358 188.013V188.46H225.41L225.411 188.719Z" fill="#92C6D4"/>
<path d="M192.983 110.856L192.885 110.91L192.562 111.087L192.515 111.114L174.55 120.992L173.908 121.345L167.657 124.783L167.334 124.96L167.257 125.002L167.199 125.034L167.196 125.036L166.935 124.778V124.777L166.913 124.674L167.199 124.613V124.046L167.318 124.164L184.046 114.965L184.665 114.625L192.121 110.525L192.228 110.466L192.342 110.404V110.403L192.355 110.397L192.364 110.391L192.643 110.238L192.813 110.546L192.944 110.783L192.983 110.856Z" fill="#92C6D4"/>
<path d="M172.019 170.123L171.956 170.732L171.919 171.083L171.884 171.429V171.434L170.834 181.623L170.761 182.324L168.678 202.583H167.969L169.812 184.689L169.847 184.336L169.884 183.985L169.905 183.786L170.906 174.042L170.978 173.336L171.316 170.051C172.459 158.961 171.853 147.76 169.519 136.858L169.16 135.18L169.086 134.832L169.06 134.715L169.011 134.485L167.255 126.275L167.198 126.012L166.935 124.778L166.912 124.675L167.198 124.614L167.257 124.601L167.601 124.527L167.657 124.784L170.209 136.711C170.823 139.581 171.318 142.465 171.693 145.364C171.708 145.473 171.722 145.583 171.736 145.693C171.738 145.701 171.739 145.71 171.74 145.719C171.754 145.836 171.769 145.959 171.784 146.074C172.764 154.056 172.843 162.123 172.019 170.123Z" fill="#92C6D4"/>
<path d="M171.731 146.097L171.524 145.422L186.967 140.69C186.986 139.19 187.141 134.735 187.148 134.534L187.157 134.293L198.742 130.198L198.977 130.863L187.845 134.799C187.809 135.84 187.671 139.964 187.671 140.952V141.209L171.731 146.097Z" fill="#92C6D4"/>
<path d="M193.889 132.615L193.187 132.678L196.024 164.657L196.727 164.595L193.889 132.615Z" fill="#92C6D4"/>
<path d="M203.079 121.161L198.544 130.912L199.183 131.21L203.718 121.459L203.079 121.161Z" fill="#92C6D4"/>
<path d="M174.477 120.631L173.79 120.79L178.922 143.017L179.609 142.858L174.477 120.631Z" fill="#92C6D4"/>
<path d="M201.759 164.216L201.255 180.516L201.96 180.538L202.463 164.238L201.759 164.216Z" fill="#92C6D4"/>
<path d="M184.869 127.261L176.03 130.368L176.264 131.033L185.103 127.926L184.869 127.261Z" fill="#92C6D4"/>
<path d="M183.811 121.368L183.126 121.535L184.637 127.701L185.322 127.534L183.811 121.368Z" fill="#92C6D4"/>
<path d="M225.358 96.8742L203.787 86.6787L203.579 86.5809L203.381 86.4872L203.531 86.1691L203.532 86.1683L203.682 85.8494L204.076 86.0361L225.358 96.0938V96.8742Z" fill="#92C6D4"/>
<path d="M225.358 147.574H210.768V148.28H225.358V147.574Z" fill="#92C6D4"/>
<path d="M170.526 184.1L170.463 184.447L170.401 184.795L170.16 184.751L169.812 184.689L167.199 184.221H167.196V183.505H167.199L169.885 183.985L170.107 184.025L170.233 184.048L170.526 184.1Z" fill="#92C6D4"/>
<path d="M171.265 173.393L171.127 174.086L170.906 174.042L167.207 173.307L167.199 173.305V172.586L167.208 172.587L170.978 173.336L171.265 173.393Z" fill="#92C6D4"/>
<path d="M169.364 134.734L169.087 134.833L167.246 135.484L167.199 135.501V134.602L167.247 134.604L168.463 134.679L169.061 134.716L169.364 134.734Z" fill="#92C6D4"/>
<path d="M169.482 135.066L169.16 135.18L167.245 135.858V135.859L167.199 135.875V135.127L167.246 135.11L168.463 134.679L169.011 134.485L169.246 134.401L169.364 134.734L169.482 135.066Z" fill="#92C6D4"/>
<path d="M225.498 200.724L225.424 200.509L225.358 200.32V202.583H224.807L224.706 188.714L224.704 188.465L225.358 188.46H225.409L225.411 188.719L225.494 200.14L225.497 200.492V200.506L225.498 200.724Z" fill="#92C6D4"/>
<path d="M189.724 195.385L189.691 196.089L210.21 197.046L210.243 196.341L189.724 195.385Z" fill="#92C6D4"/>
<path d="M191.359 173.047L190.925 178.707L189.09 202.583H188.382L190.174 179.268L190.604 173.667L186.242 173.147L185.89 173.105L185.54 173.063L171.886 171.434H171.884L171.704 171.412L171.746 171.062L171.788 170.712L171.956 170.732L185.622 172.363L185.972 172.404L186.324 172.446L191.359 173.047Z" fill="#92C6D4"/>
<path d="M184.646 189.885L183.807 198.171L181.861 197.937L180.859 197.817L178.193 197.496L177.68 202.583H176.972L177.563 196.71L181.15 197.141L181.581 197.193L183.178 197.385L183.831 190.923L183.944 189.812L184.646 189.885Z" fill="#92C6D4"/>
<path d="M225.358 159.181V159.887C221.333 160.008 215.618 160.18 212.61 160.268C211.708 160.295 211.05 160.314 210.754 160.321H210.584V159.616H210.754C211.967 159.584 219.297 159.364 225.358 159.181Z" fill="#92C6D4"/>
<path d="M225.497 200.492V200.506H225.424C225.448 200.499 225.472 200.494 225.497 200.492Z" fill="#92C6D4"/>
<path d="M225.498 200.723L225.424 200.509L225.358 200.32L225.308 200.175C225.324 200.169 225.341 200.165 225.358 200.162C225.403 200.152 225.449 200.145 225.494 200.14V200.492V200.506L225.498 200.723Z" fill="#92C6D4"/>
<path d="M215.891 118.512L225.358 118.356V119.062L215.903 119.217L215.891 118.512Z" fill="#92C6D4"/>
<path d="M184.998 183.502L184.325 183.288C184.323 183.296 184.321 183.304 184.319 183.312C184.421 182.816 186.002 169.097 186.601 163.852L186.638 163.532L209.955 164.114L209.937 164.819L187.268 164.253C186.584 170.203 185.088 183.219 184.998 183.502Z" fill="#92C6D4"/>
<path d="M180.682 78.7434C180.491 78.7432 180.305 78.6765 180.158 78.5546C180.01 78.4328 179.91 78.2634 179.874 78.0756C179.838 77.8877 179.868 77.6932 179.959 77.5253C180.051 77.3573 180.198 77.2265 180.376 77.1553C180.599 77.0663 180.791 76.9894 190.016 77.0327C194.499 77.0535 198.99 77.096 199.032 77.0968C199.14 77.0978 199.247 77.12 199.346 77.1623C199.446 77.2046 199.536 77.2661 199.612 77.3432C199.687 77.4203 199.747 77.5116 199.788 77.6118C199.828 77.712 199.848 77.8192 199.847 77.9273C199.846 78.0354 199.824 78.1422 199.782 78.2416C199.739 78.3411 199.678 78.4312 199.601 78.5069C199.524 78.5827 199.432 78.6424 199.332 78.6829C199.232 78.7233 199.125 78.7436 199.017 78.7426C192.206 78.6785 181.815 78.62 180.865 78.7226C180.805 78.7362 180.743 78.7432 180.682 78.7434Z" fill="#92C6D4"/>
<path d="M211.875 78.6674H204.167C203.948 78.6674 203.739 78.5807 203.585 78.4264C203.43 78.2721 203.344 78.0627 203.344 77.8445C203.344 77.6262 203.43 77.4169 203.585 77.2625C203.739 77.1082 203.948 77.0215 204.167 77.0215H211.873C212.091 77.0215 212.3 77.1082 212.454 77.2625C212.609 77.4169 212.696 77.6262 212.696 77.8445C212.696 78.0627 212.609 78.2721 212.454 78.4264C212.3 78.5807 212.091 78.6674 211.873 78.6674H211.875Z" fill="#92C6D4"/>
<path d="M214.71 171.003C214.803 170.747 214.946 170.513 215.131 170.314C216.74 168.687 217.107 173.39 217.27 174.53C217.527 176.337 217.574 178.167 217.536 179.989C217.519 180.863 216.761 184.656 217.234 185.289C215.666 183.191 215.386 179.144 214.769 176.617C214.312 174.752 213.755 171.134 215.383 169.681C215.76 169.345 216.341 169.183 216.779 169.433C217.16 169.651 217.33 170.104 217.441 170.529C218.217 173.494 217.447 176.645 217.761 179.696C217.991 181.919 218.79 184.183 218.158 186.332C217.966 186.182 217.81 185.99 217.704 185.77C217.598 185.55 217.544 185.309 217.546 185.065" fill="#111111"/>
<path d="M187.479 171.606C187.479 171.606 190.657 172.407 193.834 178.047C193.834 178.047 194.368 167.059 191.22 167.059C191.22 167.059 188.762 166.904 187.479 171.606Z" fill="#070208"/>
<path d="M138.47 203.198C143.815 203.198 148.148 197.251 148.148 189.916C148.148 182.58 143.815 176.634 138.47 176.634C133.124 176.634 128.791 182.58 128.791 189.916C128.791 197.251 133.124 203.198 138.47 203.198Z" fill="#AF0C0C"/>
<path d="M147.858 189.871C147.858 195.765 145.636 200.543 142.896 200.543C140.155 200.543 137.933 195.765 137.933 189.871C137.933 183.977 140.155 179.199 142.896 179.199C145.637 179.199 147.858 183.977 147.858 189.871Z" fill="#AF0C0C"/>
<path d="M217.454 185.579C217.454 196.537 214.073 205.42 209.902 205.42C205.732 205.42 202.351 196.537 202.351 185.579C202.351 174.622 205.732 165.738 209.902 165.738C214.072 165.738 217.454 174.622 217.454 185.579Z" fill="#72120C"/>
<path d="M216.039 186.001C216.039 193.332 214.708 199.275 213.066 199.275C211.423 199.275 210.096 193.332 210.096 186.001C210.096 178.669 211.428 172.726 213.07 172.726C214.712 172.726 216.039 178.67 216.039 186.001Z" fill="#BB1010"/>
<path d="M215.85 186.44C215.85 191.355 214.958 195.34 213.857 195.34C212.756 195.34 211.863 191.355 211.863 186.44C211.863 181.525 212.756 177.541 213.857 177.541C214.958 177.541 215.85 181.525 215.85 186.44Z" fill="#F3F5F4"/>
<path d="M94.3573 208.631C101.965 208.631 108.132 200.167 108.132 189.728C108.132 179.288 101.965 170.824 94.3573 170.824C86.7497 170.824 80.5825 179.288 80.5825 189.728C80.5825 200.167 86.7497 208.631 94.3573 208.631Z" fill="#AF0C0C"/>
<path d="M105.936 190.514C105.936 199.358 102.228 206.527 97.6524 206.527C93.077 206.527 89.3687 199.358 89.3687 190.514C89.3687 181.671 93.0778 174.501 97.6524 174.501C102.227 174.501 105.936 181.674 105.936 190.514Z" fill="#72120C"/>
<path d="M103.976 191.47C103.976 197.462 101.821 202.319 99.168 202.319C96.515 202.319 94.3604 197.462 94.3604 191.47C94.3604 185.478 96.515 180.622 99.168 180.622C101.821 180.622 103.976 185.479 103.976 191.47Z" fill="#CACCCF"/>
<path d="M196.368 189.476C196.367 190.48 196.314 191.483 196.207 192.481C196.175 192.796 196.139 193.087 196.102 193.35C196.022 193.922 195.926 194.482 195.814 195.033C195.013 198.982 193.368 202.38 191.201 204.759C189.129 207.035 186.576 208.377 183.814 208.377C178.561 208.377 174.061 203.517 172.189 196.618C171.567 194.289 171.256 191.887 171.263 189.476C171.263 185.506 172.075 181.824 173.462 178.783C175.724 173.824 179.518 170.573 183.814 170.573C184.515 170.573 185.212 170.659 185.892 170.83C186.455 170.973 187.004 171.169 187.531 171.415C187.621 171.457 187.711 171.5 187.8 171.546C188.958 172.142 190.007 172.93 190.904 173.875C191.994 175.02 192.916 176.313 193.643 177.717C193.77 177.957 193.893 178.203 194.013 178.454C194.013 178.457 194.013 178.46 194.013 178.462C195.498 181.563 196.368 185.366 196.368 189.476Z" fill="#72120C"/>
<path d="M194.45 189.381C194.45 196.801 191.726 202.817 188.365 202.817C185.005 202.817 182.281 196.801 182.281 189.381C182.281 181.96 185.006 175.944 188.365 175.944C191.725 175.944 194.45 181.96 194.45 189.381Z" fill="#BB1010"/>
<path d="M193.67 189.349C193.67 195.256 191.502 200.046 188.826 200.046C186.151 200.046 183.983 195.256 183.983 189.349C183.983 183.442 186.152 178.653 188.826 178.653C191.501 178.653 193.67 183.442 193.67 189.349Z" fill="#F3F5F4"/>
<path d="M113.736 133.267C113.991 133.053 114.244 132.843 114.496 132.635C114.245 132.844 113.991 133.054 113.736 133.267Z" fill="white"/>
<path d="M117.496 130.213C117.795 129.979 118.089 129.751 118.378 129.532C118.092 129.752 117.798 129.979 117.496 130.213Z" fill="white"/>
<path d="M118.376 129.532C118.677 129.302 118.971 129.081 119.257 128.868C118.973 129.083 118.679 129.304 118.376 129.532Z" fill="white"/>
<path d="M119.502 128.685C119.744 128.506 119.98 128.334 120.21 128.171C119.98 128.335 119.744 128.507 119.502 128.685Z" fill="white"/>
<path d="M120.382 128.05C120.778 127.769 121.156 127.511 121.511 127.28C121.153 127.512 120.778 127.77 120.382 128.05Z" fill="white"/>
<path d="M121.511 127.28C121.612 127.213 121.711 127.148 121.809 127.088C121.711 127.15 121.612 127.214 121.511 127.28Z" fill="white"/>
<path d="M207.692 142.28C207.644 142.147 207.595 142.014 207.546 141.88C207.593 142.014 207.642 142.147 207.692 142.28Z" fill="white"/>
<path d="M207.542 141.883C207.513 141.803 207.484 141.723 207.454 141.649C207.484 141.727 207.513 141.804 207.542 141.883Z" fill="white"/>
<path d="M207.452 141.649C207.431 141.595 207.41 141.542 207.39 141.489C207.412 141.542 207.433 141.595 207.452 141.649Z" fill="white"/>
<path d="M206.127 138.627C206.566 139.514 206.999 140.476 207.393 141.489C205.485 136.597 202.68 132.933 202.68 132.933C202.625 132.861 202.572 132.789 202.52 132.719C202.575 132.789 202.63 132.861 202.685 132.933C202.681 132.933 204.445 135.236 206.127 138.627Z" fill="white"/>
<path d="M184.4 123.1C184.418 123.1 184.471 123.095 184.56 123.092L184.412 123.102L184.4 123.1Z" fill="white"/>
<path d="M185.709 123.106C185.158 123.077 184.761 123.085 184.556 123.094C184.756 123.085 185.152 123.076 185.709 123.106Z" fill="white"/>
<path d="M185.72 123.106L185.865 123.114L185.72 123.106Z" fill="white"/>
<path d="M218.882 184.166C218.602 185.528 218.133 186.756 217.411 187.734C217.411 187.734 217.507 185.906 217.561 183.426C217.682 177.792 217.591 168.787 215.688 170.165C215.439 170.419 215.217 170.698 215.023 170.997C214.559 171.692 214.171 172.435 213.866 173.214C213.277 174.677 212.724 176.724 212.535 179.471C212.525 179.605 212.516 179.743 212.509 179.881C212.468 180.625 212.456 181.419 212.472 182.263C212.477 183.526 212.406 184.788 212.261 186.043C212.18 186.752 212.063 187.508 211.906 188.259C211.603 189.702 211.14 191.124 210.433 192.174C209.866 193.013 209.144 193.616 208.221 193.79L203.119 194.302L195.817 195.033H195.786C195.924 194.478 196.031 193.916 196.107 193.35C196.144 193.087 196.18 192.796 196.212 192.48C196.688 187.697 195.934 182.872 194.021 178.462C194.021 178.459 194.021 178.457 194.021 178.454C193.962 178.319 193.902 178.184 193.841 178.049C193.841 178.049 193.841 178.042 193.841 178.028C193.841 177.958 193.833 177.735 193.82 177.401C193.731 175.29 193.313 168.689 191.551 167.445C191.427 167.354 191.284 167.291 191.132 167.26C190.552 167.146 189.85 167.56 188.997 168.753C188.713 169.154 188.676 169.384 188.207 170.53C188.2 170.546 188.193 170.564 188.186 170.58C188.068 170.871 187.942 171.194 187.809 171.549C187.789 171.598 187.77 171.65 187.752 171.7C187.12 173.399 186.58 175.13 186.134 176.886C185.797 178.198 185.482 179.642 185.22 181.194C185.124 181.763 185.034 182.346 184.954 182.942C184.574 185.743 184.436 188.571 184.543 191.396L184.518 191.48C184.482 191.645 184.377 192.033 184.208 192.541C184.174 192.646 184.136 192.756 184.096 192.87L184.087 192.9C183.823 193.646 183.434 194.553 182.918 195.343C182.695 195.691 182.436 196.016 182.145 196.311C182.145 196.311 178.344 196.445 172.198 196.621L171.563 196.64C170.2 196.679 168.737 196.72 167.18 196.759H167.168L165.763 196.796H165.66C160.131 196.939 153.568 197.086 146.571 197.197H146.509C144.161 197.234 141.764 197.269 139.341 197.298C136.41 197.332 133.44 197.359 130.47 197.378C122.39 197.424 114.307 197.393 107.008 197.233C106.396 197.22 105.79 197.206 105.189 197.19C104.544 197.174 103.905 197.157 103.273 197.137C100.326 197.051 97.5425 196.94 94.98 196.802C93.1947 196.705 91.5177 196.594 89.9672 196.468C89.1344 196.401 88.3403 196.328 87.585 196.252C87.2765 196.221 86.9752 196.19 86.6803 196.156C86.4303 196.129 86.1867 196.101 85.9471 196.076C85.5857 196.033 85.2372 195.988 84.8991 195.942C84.0072 195.822 83.1987 195.69 82.48 195.553C82.48 195.553 81.3149 193.692 80.6515 191.547C80.5898 191.345 80.5321 191.139 80.48 190.933C80.2941 190.212 80.1795 189.485 80.1995 188.8C80.1995 188.699 80.2075 188.6 80.2164 188.501C80.2164 188.501 80.2764 171.299 84.6234 164.309C84.6234 164.309 84.5713 162.907 84.988 160.997C85.2174 159.928 85.5618 158.887 86.0152 157.892C86.0155 157.89 86.0155 157.888 86.0152 157.886C86.4803 156.864 87.0807 155.909 87.8005 155.047C88.2011 154.57 88.6401 154.126 89.113 153.721C89.1811 153.662 89.25 153.606 89.3189 153.548L89.4239 153.463C89.5297 153.377 89.6394 153.293 89.75 153.212C89.7869 153.184 89.8237 153.158 89.8614 153.132L89.9744 153.052L90.089 152.972C90.1691 152.915 90.258 152.857 90.3446 152.8C90.4167 152.754 90.4904 152.707 90.5649 152.661L90.6875 152.586C90.7676 152.537 90.8478 152.489 90.9327 152.443L90.9431 152.436L91.0489 152.376L91.1963 152.296L91.2765 152.255C92.0486 151.849 92.8589 151.519 93.6955 151.271C93.6955 151.271 95.7861 149.288 98.8911 146.43C98.9199 146.404 98.9487 146.377 98.9776 146.35C99.0577 146.278 99.1378 146.207 99.218 146.132C99.3213 146.037 99.4263 145.94 99.5329 145.843C100.159 145.266 100.822 144.658 101.511 144.03L101.716 143.844C101.867 143.707 102.018 143.569 102.172 143.429C102.372 143.247 102.572 143.064 102.78 142.877C103.442 142.278 104.122 141.664 104.814 141.043L105.227 140.674L105.684 140.266L106.135 139.865C106.547 139.499 106.962 139.132 107.378 138.764L107.748 138.437C108.212 138.029 108.677 137.621 109.142 137.214C109.208 137.158 109.273 137.099 109.339 137.041L109.607 136.808L109.802 136.639L110.592 135.954L110.947 135.65C111.66 135.036 112.369 134.432 113.067 133.844L113.294 133.654C113.445 133.527 113.595 133.402 113.744 133.275C113.851 133.184 113.96 133.094 114.071 133.005L114.125 132.959L114.189 132.907L114.502 132.646C115.023 132.213 115.535 131.795 116.037 131.39L116.357 131.133C116.427 131.076 116.497 131.019 116.567 130.964L116.775 130.798C117.02 130.602 117.262 130.411 117.502 130.223C117.544 130.191 117.586 130.158 117.627 130.125L117.725 130.05C117.873 129.933 118.02 129.82 118.164 129.708L118.38 129.541L118.603 129.372L118.825 129.204C118.971 129.094 119.116 128.985 119.258 128.879L119.324 128.83C119.385 128.784 119.446 128.739 119.506 128.695L119.687 128.562L120.041 128.306L120.215 128.182L120.386 128.06L120.534 127.956C120.583 127.922 120.631 127.888 120.68 127.854L120.824 127.754L120.966 127.657C121.059 127.593 121.152 127.529 121.244 127.469C121.337 127.408 121.426 127.348 121.514 127.291L121.575 127.251L121.815 127.098C122.793 126.478 123.578 126.074 124.122 125.949C124.122 125.949 151.506 122.504 184.398 123.112H184.414L184.504 123.106H184.562H184.642H184.736H184.743C184.871 123.106 185.035 123.101 185.233 123.106L185.398 123.11H185.472L185.607 123.116L185.714 123.122L185.844 123.129C188.885 123.317 196.23 124.651 202.522 132.735L202.602 132.841C202.629 132.876 202.656 132.912 202.682 132.949L202.7 132.973C202.711 132.986 202.721 133 202.732 133.015L202.779 133.077C202.789 133.09 202.798 133.102 202.807 133.116C202.816 133.13 202.838 133.156 202.854 133.177C202.855 133.179 202.857 133.181 202.857 133.183C205.95 137.311 208.273 141.837 210.193 146.547C210.321 146.86 210.447 147.174 210.571 147.49C210.696 147.806 210.819 148.122 210.939 148.439C211.019 148.641 211.093 148.84 211.169 149.045C211.391 149.637 211.608 150.231 211.82 150.828C212.219 151.949 212.603 153.075 212.974 154.205C214.434 158.648 215.717 163.146 217.105 167.534C217.104 167.519 220.253 177.485 218.882 184.166Z" fill="#E83535"/>
<path d="M208.537 145.098C208.703 145.785 208.839 146.483 208.938 147.187C208.838 146.483 208.702 145.785 208.537 145.098Z" fill="white"/>
<path d="M208.966 147.411C208.957 147.336 208.947 147.261 208.937 147.187C208.948 147.255 208.957 147.324 208.965 147.393C208.966 147.399 208.966 147.405 208.966 147.411Z" fill="white"/>
<path d="M98.7979 146.345L96.4622 148.428L94.9502 147.921L95.3284 145.91C98.318 140.962 102.759 142.625 102.759 142.625L98.7979 146.345Z" fill="#AF0C0C"/>
<path d="M196.503 127.61C196.503 127.61 186.581 120.27 186.77 128.397C186.77 128.397 188.518 149.522 191.983 152.924C191.983 152.924 206.687 150.039 208.843 147.648C209.621 146.786 202.839 131.23 196.503 127.61Z" fill="#CC0000"/>
<path d="M200.566 145.69C200.566 145.69 200.086 145.99 199.359 146.366C197.63 147.254 194.477 148.558 192.817 147.297C192.612 147.132 192.431 146.939 192.279 146.723C191.839 146.122 191.42 145.231 191.033 144.196L191.025 144.172C191.009 144.132 190.994 144.092 190.98 144.05C190.683 143.243 190.407 142.355 190.154 141.455C189.948 140.723 189.759 139.983 189.593 139.271C189.365 138.329 189.17 137.435 189.013 136.674C188.874 135.999 188.765 135.429 188.693 135.022C188.613 134.597 188.571 134.35 188.571 134.35C188.455 133.607 188.379 132.858 188.343 132.106C188.244 130.09 188.417 127.387 189.989 126.978C189.989 126.978 191.279 126.731 191.972 126.878C192.146 126.915 192.283 126.976 192.351 127.073C192.818 127.733 193.308 128.469 193.811 129.276C194.058 129.677 194.31 130.091 194.561 130.524C194.942 131.178 195.327 131.871 195.708 132.601C196.128 133.402 196.543 134.246 196.952 135.134L196.956 135.142C197.659 136.671 198.334 138.324 198.95 140.09L199.053 140.391C199.646 142.131 200.151 143.899 200.566 145.69Z" fill="#DCF4FA"/>
<path d="M205.89 143.706C205.89 143.706 204.025 144.412 202.66 144.765L202.52 144.8C201.912 144.95 201.426 145.019 201.291 144.902C201.131 144.763 200.601 143.179 199.856 141.03C199.724 140.647 199.584 140.248 199.438 139.835L199.364 139.625C199.293 139.426 199.221 139.224 199.149 139.02C198.85 138.182 198.528 137.306 198.188 136.429C197.979 135.886 197.765 135.342 197.547 134.808C196.692 132.724 195.769 130.765 194.864 129.468C194.864 129.468 194.641 129.134 194.609 128.86C194.581 128.627 194.689 128.437 195.179 128.523L195.216 128.544C195.511 128.713 197.503 129.897 199.729 132.217C200.002 132.502 200.279 132.803 200.555 133.121C200.729 133.32 200.903 133.522 201.076 133.739C201.328 134.046 201.578 134.369 201.826 134.707L201.831 134.714C202.516 135.645 203.131 136.625 203.674 137.645C203.932 138.126 204.18 138.635 204.412 139.161C204.663 139.728 204.895 140.319 205.111 140.933C205.427 141.841 205.688 142.767 205.89 143.706Z" fill="#DCF4FA"/>
<path d="M125.527 127.107C127.98 126.619 167.409 124.566 183.401 125.744C184.051 125.792 184.424 126.553 184.438 127.214C184.526 131.325 184.592 146.886 181.239 145.591C181.239 145.591 122.643 145.302 106.455 145.861C105.029 145.911 104.275 144.165 105.279 143.137C109.926 138.381 119.178 129.452 125.264 127.179C125.349 127.148 125.437 127.124 125.527 127.107Z" fill="#CC0000"/>
<path d="M182.279 131.463C182.238 136.522 181.783 144.735 179.28 143.865C179.28 143.865 170.312 143.825 158.645 143.808C152.887 143.801 146.474 143.799 140.156 143.808C127.879 143.83 115.964 143.903 109.935 144.082L109.677 144.09C108.348 144.131 107.646 142.67 108.581 141.808C112.908 137.827 121.518 130.35 127.182 128.449C127.261 128.423 127.341 128.402 127.423 128.388C128.294 128.227 134.181 127.885 141.954 127.571C150.481 127.226 161.279 126.92 170.219 126.948C174.479 126.961 178.317 127.051 181.287 127.248C181.893 127.289 182.239 127.925 182.249 128.479C182.273 129.162 182.292 130.216 182.279 131.463Z" fill="#CDEFF8"/>
<path d="M165.758 196.792C143.252 197.374 103.637 198.039 86.671 196.156L86.5043 195.809C86.2361 194.955 86.3037 194.03 86.6934 193.224C87.3136 191.984 87.8505 190.244 88.304 189.958L88.3946 189.92C88.8633 189.821 89.8152 173.47 97.7535 171.678C97.7535 171.678 105.556 168.578 110.876 167.103C113.084 166.491 114.863 166.16 115.482 166.446C117.591 167.422 137.028 166.575 137.028 166.575C137.028 166.575 138.056 166.716 139.681 167.027C144.936 168.032 156.439 170.82 159.708 176.401C159.708 176.401 164.463 185.473 164.75 190.296L165.758 196.792Z" fill="#CC0000"/>
<path d="M95.0736 153.597C94.5648 153.574 90.1425 154.632 87.7939 155.045C89.1249 153.461 91.0127 152.067 93.6882 151.265C93.6882 151.265 95.7787 149.283 98.8845 146.425L99.1369 146.258L182.268 145.537C183.107 147.358 179.493 149.924 179.493 149.924" fill="#F44E4E"/>
<path d="M165.758 196.792C143.251 197.374 103.637 198.039 86.671 196.157L86.5043 195.809C86.2361 194.955 86.3037 194.03 86.6934 193.223C87.3136 191.984 87.8505 190.245 88.304 189.957L88.3946 189.92L92.5837 191.143C96.4585 192.275 100.465 192.892 104.501 192.977C112.165 193.141 119.831 193.292 127.498 193.43C135.5 193.57 143.764 193.52 151.742 193.045C156.046 192.788 160.516 191.248 164.754 190.298L165.32 193.791L165.758 196.792Z" fill="#AF0C0C"/>
<path d="M143.331 178.418C143.331 179.014 143.214 179.604 142.986 180.154C142.759 180.704 142.425 181.205 142.003 181.626C141.582 182.047 141.082 182.381 140.532 182.609C139.981 182.837 139.392 182.954 138.796 182.954H110.698C109.495 182.954 108.341 182.476 107.491 181.626C106.64 180.775 106.162 179.621 106.162 178.418C106.162 177.215 106.64 176.061 107.491 175.211C108.341 174.36 109.495 173.882 110.698 173.882H138.796C139.999 173.882 141.152 174.36 142.003 175.211C142.853 176.062 143.331 177.215 143.331 178.418Z" fill="#AF0C0C"/>
<path d="M143.331 178.418C143.423 178.876 143.402 179.35 143.27 179.798C143.138 180.246 142.899 180.655 142.573 180.99C142.247 181.325 141.844 181.575 141.399 181.719C140.955 181.863 140.482 181.896 140.022 181.816H111.924C111.084 181.816 110.261 181.582 109.545 181.142C108.83 180.702 108.251 180.071 107.873 179.321C107.495 178.571 107.333 177.731 107.404 176.894C107.475 176.057 107.778 175.257 108.277 174.582C109.001 174.123 109.841 173.881 110.698 173.882H138.796C139.999 173.882 141.152 174.36 142.003 175.211C142.853 176.062 143.331 177.215 143.331 178.418Z" fill="#EC2C2C"/>
<path d="M212.972 154.19C212.578 154.66 212.113 155.066 211.593 155.392C210.065 156.384 208.228 156.935 206.47 157.334C198.624 159.113 190.015 157.586 182.328 155.807C182.328 155.807 181.876 153.643 181.131 152.649C182.158 154.019 188.442 153.173 189.744 153.057C197.292 152.384 203.533 149.548 210.191 146.535C211.218 149.043 212.123 151.606 212.972 154.19Z" fill="#F44E4E"/>
<path d="M184.948 182.939C184.568 185.74 184.43 188.568 184.536 191.393L184.511 191.478C184.475 191.642 184.37 192.03 184.202 192.538C184.167 192.643 184.13 192.753 184.09 192.867L184.08 192.897C183.816 193.643 183.427 194.55 182.911 195.34C182.688 195.689 182.429 196.013 182.139 196.308C182.139 196.308 178.337 196.442 172.191 196.619L171.556 196.637C170.194 196.676 168.731 196.717 167.173 196.756H167.162L165.756 196.793L164.752 190.793C164.738 190.562 164.713 190.319 164.68 190.072C165.19 190.122 165.701 190.155 166.214 190.172C169.867 190.3 173.498 189.551 176.804 187.989C180.109 186.427 182.992 184.097 185.213 181.193C185.117 181.76 185.027 182.343 184.948 182.939Z" fill="#BB1010"/>
<path d="M89.4336 185.245C88.8062 188.146 88.5682 190.381 88.3919 190.417L88.3014 190.453C87.8478 190.741 87.311 192.48 86.6908 193.72C86.4972 194.094 86.3918 194.507 86.3828 194.927C86.3738 195.348 86.4613 195.765 86.6387 196.147L85.9368 196.076C85.5762 196.033 85.2293 195.989 84.8951 195.942C84.0033 195.822 83.1948 195.691 82.4761 195.554C82.4761 195.554 81.311 193.692 80.6475 191.547C80.5858 191.345 80.5282 191.139 80.4761 190.933C80.2902 190.212 80.1756 189.486 80.1956 188.8C81.6032 188.807 82.9816 188.399 84.1588 187.627C86.5474 186.038 87.9344 183.292 88.6668 180.518C88.6728 180.922 88.6996 181.326 88.7469 181.728C88.8807 182.893 89.1587 184.071 89.4336 185.245Z" fill="#BB1010"/>
<path d="M165.756 196.795L164.751 190.795C164.738 190.563 164.713 190.321 164.68 190.074C164.017 185.123 159.712 176.903 159.712 176.903C155.433 169.593 137.032 167.075 137.032 167.075C137.032 167.075 117.595 167.922 115.486 166.947C113.377 165.972 97.7563 172.174 97.7563 172.174C92.7378 173.307 90.5111 180.259 89.4349 185.245C88.8075 188.146 88.5696 190.381 88.3933 190.417L88.3027 190.454C87.8492 190.741 87.3123 192.48 86.6922 193.72C86.4986 194.094 86.3932 194.507 86.3842 194.928C86.3751 195.348 86.4627 195.765 86.6401 196.147L85.9381 196.076L84.9061 195.97C84.9061 195.97 84.9061 195.961 84.8933 195.942C84.8252 195.758 84.5079 194.725 85.3412 193.048C85.5415 192.647 85.7418 192.167 85.9333 191.706C86.3468 190.712 86.6497 189.984 87.1016 189.506C87.1545 189.229 87.2226 188.832 87.2859 188.464C87.5752 186.781 88.0006 184.304 88.7474 181.724C90.1232 176.97 92.5888 171.869 97.3019 170.727C99.1256 170.006 111.084 165.326 114.819 165.326C115.339 165.326 115.764 165.406 116.118 165.567C116.25 165.611 117.32 165.896 122.944 165.896C129.099 165.896 136.886 165.56 136.966 165.557L137.102 165.551L137.236 165.569C138.017 165.676 156.418 168.277 161.017 176.131C161.243 176.56 165.644 185.004 166.216 190.166C166.234 190.32 166.247 190.472 166.258 190.62L167.164 196.753L167.171 196.805L165.756 196.795Z" fill="#AF0C0C"/>
<g opacity="0.51">
<path opacity="0.51" d="M182.328 156.46C181.767 159.214 181.39 163.202 178.44 164.167C174.553 165.438 169.674 165.546 165.613 165.919C148.695 167.476 153.411 166.01 150.373 164.867C150.373 164.867 155.138 160.861 162.098 157.335C163.746 156.496 165.688 155.791 167.966 155.319C167.966 155.319 173.541 153.675 176.337 152.472C178.027 151.744 180.007 152.06 181.33 153.339C181.797 153.772 182.134 154.327 182.303 154.941C182.43 155.439 182.439 155.959 182.328 156.46Z" fill="#530905"/>
</g>
<path d="M139.683 167.026C138.518 167.187 137.578 167.406 137.031 167.691C134.134 169.203 124.621 179.141 115.044 167.931C115.044 167.931 113.212 167.549 110.877 167.107C113.085 166.495 114.865 166.164 115.483 166.45C117.592 167.425 137.029 166.579 137.029 166.579C137.029 166.579 138.061 166.716 139.683 167.026Z" fill="#AF0C0C"/>
<path d="M99.5938 158.708C99.5938 158.708 117.502 159.487 118.919 159.014C118.919 159.014 125.156 153.062 133.85 158.921C133.85 158.921 157.759 158.732 159.885 158.353C159.885 158.353 154.688 162.716 153.931 165.485C153.931 165.485 139.929 165.059 137.031 166.571C134.133 168.083 124.621 178.022 115.045 166.812C115.045 166.812 103.642 164.434 101.503 164.686C101.5 164.687 100.857 162.49 99.5938 158.708Z" fill="#CC0000"/>
<g opacity="0.51">
<path opacity="0.51" d="M101.619 165.545L95.2724 165.568C92.7884 165.579 89.5416 166.156 87.1297 165.568C82.6802 164.481 86.0496 158.075 87.8349 155.97C88.7738 154.863 89.9134 153.942 91.1938 153.258C91.8219 152.923 92.553 152.836 93.2419 153.016C93.9307 153.195 94.5269 153.627 94.9118 154.226C95.6506 155.368 96.6354 156.78 97.6049 157.832H97.6097C97.8996 158.156 98.2138 158.458 98.5496 158.735C99.6039 159.579 100.488 160.616 101.154 161.791C102.064 163.4 105.454 164.843 105.94 165.118C105.247 165.122 102.308 165.542 101.619 165.545Z" fill="#530905"/>
</g>
<path d="M103.686 164.569L101.618 164.577L95.2723 164.607C92.7883 164.617 89.5415 165.195 87.1296 164.607C83.6521 163.757 84.9509 159.659 86.5359 156.903C86.9131 156.235 87.3474 155.601 87.834 155.009C88.1131 154.679 88.4106 154.366 88.725 154.07C89.4672 153.374 90.2971 152.777 91.1937 152.296C91.822 151.961 92.553 151.875 93.2418 152.054C93.9306 152.234 94.5266 152.666 94.9117 153.264C95.6505 154.407 96.6353 155.819 97.604 156.87H97.6088C97.8994 157.194 98.2138 157.496 98.5495 157.772C99.6038 158.617 100.488 159.654 101.154 160.829C101.573 161.569 102.04 162.363 102.471 163.03C102.493 163.066 102.516 163.101 102.538 163.135C103.012 163.865 103.437 164.426 103.686 164.569Z" fill="#FFEAD2"/>
<path d="M182.328 155.804C181.767 158.558 181.39 162.546 178.44 163.51C174.553 164.781 169.689 165.124 165.613 165.263C161.537 165.401 157.452 165.519 153.41 166.01C153.41 166.01 154.742 161.532 159.777 158.058C160.519 157.547 161.296 157.087 162.101 156.683C163.749 155.843 165.69 155.138 167.969 154.667C167.969 154.667 173.544 153.023 176.34 151.82C178.03 151.092 180.01 151.407 181.333 152.687C181.541 152.886 181.727 153.108 181.885 153.348C182.077 153.637 182.219 153.955 182.306 154.29C182.431 154.786 182.438 155.304 182.328 155.804Z" fill="#FFEAD2"/>
<path d="M212.26 186.043C212.18 186.752 212.063 187.509 211.905 188.26C211.602 189.702 211.139 191.124 210.432 192.174C209.866 193.014 209.143 193.616 208.22 193.79L203.118 194.302L195.816 195.033H195.785C195.923 194.478 196.03 193.916 196.106 193.35C196.143 193.087 196.179 192.796 196.211 192.481C196.687 187.698 195.933 182.872 194.02 178.462C194.02 178.46 194.02 178.457 194.02 178.454C193.961 178.319 193.901 178.184 193.84 178.049C193.84 178.049 193.84 178.042 193.84 178.028C193.84 177.958 193.832 177.736 193.819 177.401C195.864 180.142 198.78 182.228 201.938 183.592C205.195 184.997 208.715 185.691 212.26 186.043Z" fill="#BB1010"/>
<path d="M203.307 150.321C203.704 151.063 204.056 151.83 204.359 152.616C204.439 152.813 204.515 153.008 204.585 153.207C204.654 153.405 204.733 153.602 204.799 153.802L205.004 154.401L205.198 155.003C205.696 156.617 206.1 158.259 206.408 159.92C206.729 161.579 206.949 163.256 207.106 164.939C207.262 166.622 207.322 168.312 207.332 170.002C207.343 171.692 207.26 173.38 207.142 175.064L207.025 176.324L206.966 176.954C206.945 177.164 206.916 177.373 206.891 177.582L206.735 178.838C206.71 179.047 206.674 179.256 206.642 179.464L206.544 180.089C206.033 183.418 205.267 186.704 204.252 189.916C204.904 186.619 205.46 183.314 205.842 179.994C206.038 178.334 206.17 176.669 206.282 175.005L206.343 173.755C206.353 173.546 206.365 173.338 206.373 173.13L206.388 172.505C206.398 172.088 206.416 171.671 206.42 171.255L206.424 170.004V169.691L206.419 169.379L206.408 168.754L206.397 168.129C206.397 167.921 206.38 167.713 206.374 167.505C206.356 167.088 206.348 166.671 206.322 166.256L206.25 165.007L206.149 163.761C206.134 163.554 206.111 163.346 206.09 163.139L206.026 162.517C205.989 162.102 205.928 161.69 205.88 161.276C205.832 160.861 205.772 160.449 205.713 160.036C205.597 159.21 205.448 158.389 205.297 157.569C205.262 157.363 205.217 157.159 205.177 156.954L205.052 156.341L204.914 155.73L204.845 155.425L204.771 155.12C204.585 154.305 204.36 153.501 204.123 152.698L204.034 152.397L203.939 152.098C203.878 151.897 203.809 151.697 203.743 151.501C203.606 151.104 203.465 150.71 203.307 150.321Z" fill="#72120C"/>
<g opacity="0.33">
<path opacity="0.54" d="M196.95 135.143L190.98 144.05C190.684 143.243 190.407 142.355 190.154 141.455C189.949 140.723 189.76 139.983 189.593 139.271C189.365 138.329 189.171 137.435 189.014 136.674C190.421 133.675 192.55 129.929 193.809 129.277C194.056 129.678 194.308 130.092 194.559 130.525C194.94 131.179 195.325 131.872 195.706 132.602C196.126 133.403 196.541 134.247 196.95 135.134V135.143Z" fill="white"/>
</g>
<g opacity="0.33">
<path opacity="0.54" d="M205.113 140.933L202.52 144.8C201.912 144.95 201.426 145.019 201.291 144.902C201.131 144.763 200.601 143.179 199.856 141.029C199.724 140.647 199.584 140.247 199.438 139.835L199.364 139.625C200.093 137.941 200.916 136.299 201.828 134.707L201.833 134.714C202.517 135.645 203.133 136.624 203.675 137.645C203.933 138.126 204.181 138.635 204.413 139.161C204.665 139.728 204.898 140.319 205.113 140.933Z" fill="white"/>
</g>
<path d="M190.101 148.62L190.897 150.888C190.897 150.888 203.843 152.369 207.213 148.244C207.213 148.244 208.095 138.857 194.11 142.006C192.573 142.353 194.047 148.306 194.047 148.306C194.047 148.306 191.487 149.062 190.101 148.62Z" fill="#AF0C0C"/>
<g opacity="0.54">
<path opacity="0.54" d="M170.223 126.946L140.155 143.807C127.879 143.828 115.964 143.901 109.935 144.08C116.078 140.93 129.389 134.095 141.957 127.574C150.485 127.227 161.283 126.921 170.223 126.946Z" fill="white"/>
<path opacity="0.54" d="M182.279 131.463C182.238 136.522 181.783 144.736 179.28 143.865C179.28 143.865 170.312 143.825 158.645 143.809C167.12 139.422 175.801 134.902 182.279 131.463Z" fill="white"/>
</g>
<path d="M181.275 155.397C174.095 158.011 166.622 160.334 159.171 160.107C159.913 159.596 160.69 159.136 161.495 158.731C163.142 157.892 165.084 157.187 167.362 156.716C167.362 156.716 172.938 155.071 175.733 153.868C177.423 153.141 179.403 153.456 180.726 154.736C180.934 154.934 181.118 155.156 181.275 155.397Z" fill="white"/>
<path d="M102.336 163.711C98.3985 162.187 94.6936 160.121 91.3284 157.572C90.3324 156.816 89.3396 155.935 88.5239 154.961C89.2692 154.285 90.0991 153.709 90.9927 153.248C91.6197 152.923 92.3437 152.839 93.0285 153.011C93.7133 153.183 94.3115 153.599 94.7106 154.182C95.4494 155.284 96.4342 156.647 97.4037 157.663H97.4085C97.6994 157.977 98.0136 158.268 98.3484 158.534C99.3969 159.343 100.281 160.344 100.953 161.485C101.372 162.199 101.84 162.965 102.27 163.61C102.29 163.645 102.312 163.677 102.336 163.711Z" fill="white"/>
<path d="M266.111 111.284C266.031 111.605 265.951 111.925 265.865 112.246C265.78 112.566 265.705 112.88 265.63 113.199L265.573 113.439L265.519 113.679L265.413 114.16C265.345 114.481 265.28 114.801 265.204 115.127C265.184 114.794 265.193 114.461 265.231 114.131C265.247 113.966 265.273 113.801 265.299 113.637C265.325 113.473 265.363 113.311 265.398 113.148C265.476 112.825 265.573 112.507 265.69 112.195C265.804 111.88 265.945 111.575 266.111 111.284Z" fill="#D3E0DB"/>
<path d="M264.961 108.179C264.828 108.709 264.686 109.234 264.546 109.759C264.405 110.284 264.267 110.809 264.134 111.334L264.031 111.728L263.933 112.123L263.735 112.913C263.604 113.441 263.476 113.969 263.334 114.497C263.38 113.953 263.453 113.411 263.553 112.874C263.599 112.606 263.657 112.339 263.713 112.073C263.769 111.807 263.837 111.542 263.903 111.276C264.041 110.748 264.193 110.224 264.368 109.707C264.544 109.189 264.735 108.677 264.961 108.179Z" fill="#D3E0DB"/>
<path d="M285.689 118.998L286.239 118.892C286.058 118.934 285.873 118.968 285.689 118.998Z" fill="#FDB23D"/>
<path d="M280.493 102.628C280.376 102.625 280.258 102.629 280.142 102.638C280.206 102.611 280.271 102.584 280.336 102.558C280.392 102.587 280.443 102.606 280.493 102.628Z" fill="#D36C6C"/>
<path d="M281.706 188.084C281.813 187.97 281.92 187.856 282.027 187.742L283.244 186.829L281.706 188.084Z" fill="#FDB23D"/>
<path d="M250.909 115.075L250.953 115.108V115.114C250.924 115.145 250.87 115.079 250.909 115.075Z" fill="#A33307"/>
<path d="M277.107 116.458C277.095 116.417 277.083 116.378 277.071 116.333C277.11 116.391 277.119 116.43 277.107 116.458Z" fill="#A33307"/>
<path d="M142.392 73.2386C135.741 73.1881 130.313 78.9438 130.259 86.0928C130.221 91.0896 136.018 101.905 139.513 107.968V112.307H142.097C142.191 112.161 154.277 93.3965 154.329 86.2779C154.383 79.1257 149.038 73.2883 142.392 73.2386ZM142.26 90.7018C139.494 90.6818 137.271 88.3781 137.292 85.568C137.314 82.7579 139.572 80.4878 142.341 80.5095C145.109 80.5311 147.33 82.8284 147.309 85.6433C147.287 88.4582 145.025 90.7227 142.26 90.7018Z" fill="#CC0000"/>
<path d="M139.807 73.7091C139.683 73.7091 139.563 73.6596 139.475 73.5714C139.386 73.4831 139.337 73.3635 139.337 73.2388V70.4166C139.337 70.2919 139.386 70.1723 139.475 70.084C139.563 69.9958 139.683 69.9463 139.807 69.9463C139.932 69.9463 140.052 69.9958 140.14 70.084C140.228 70.1723 140.278 70.2919 140.278 70.4166V73.2388C140.278 73.3635 140.228 73.4831 140.14 73.5714C140.052 73.6596 139.932 73.7091 139.807 73.7091Z" fill="#CC0000"/>
<path d="M139.807 65.0402C139.683 65.0402 139.563 64.9906 139.475 64.9024C139.386 64.8142 139.337 64.6946 139.337 64.5698V61.2773H142.628C142.753 61.2773 142.872 61.3269 142.96 61.4151C143.049 61.5033 143.098 61.623 143.098 61.7477C143.098 61.8724 143.049 61.9921 142.96 62.0803C142.872 62.1685 142.753 62.218 142.628 62.218H140.276V64.5698C140.276 64.6943 140.227 64.8137 140.139 64.9018C140.051 64.99 139.932 65.0397 139.807 65.0402Z" fill="#CC0000"/>
<path d="M187.491 62.218H181.882C181.757 62.218 181.638 62.1685 181.549 62.0803C181.461 61.9921 181.412 61.8724 181.412 61.7477C181.412 61.623 181.461 61.5033 181.549 61.4151C181.638 61.3269 181.757 61.2773 181.882 61.2773H187.491C187.616 61.2773 187.735 61.3269 187.824 61.4151C187.912 61.5033 187.961 61.623 187.961 61.7477C187.961 61.8724 187.912 61.9921 187.824 62.0803C187.735 62.1685 187.616 62.218 187.491 62.218ZM176.273 62.218H170.664C170.539 62.218 170.42 62.1685 170.331 62.0803C170.243 61.9921 170.194 61.8724 170.194 61.7477C170.194 61.623 170.243 61.5033 170.331 61.4151C170.42 61.3269 170.539 61.2773 170.664 61.2773H176.273C176.398 61.2773 176.517 61.3269 176.606 61.4151C176.694 61.5033 176.743 61.623 176.743 61.7477C176.743 61.8724 176.694 61.9921 176.606 62.0803C176.517 62.1685 176.398 62.218 176.273 62.218ZM165.055 62.218H159.446C159.321 62.218 159.202 62.1685 159.114 62.0803C159.025 61.9921 158.976 61.8724 158.976 61.7477C158.976 61.623 159.025 61.5033 159.114 61.4151C159.202 61.3269 159.321 61.2773 159.446 61.2773H165.055C165.18 61.2773 165.299 61.3269 165.388 61.4151C165.476 61.5033 165.525 61.623 165.525 61.7477C165.525 61.8724 165.476 61.9921 165.388 62.0803C165.299 62.1685 165.18 62.218 165.055 62.218ZM153.837 62.218H148.228C148.103 62.218 147.984 62.1685 147.896 62.0803C147.807 61.9921 147.758 61.8724 147.758 61.7477C147.758 61.623 147.807 61.5033 147.896 61.4151C147.984 61.3269 148.103 61.2773 148.228 61.2773H153.837C153.962 61.2773 154.082 61.3269 154.17 61.4151C154.258 61.5033 154.307 61.623 154.307 61.7477C154.307 61.8724 154.258 61.9921 154.17 62.0803C154.082 62.1685 153.962 62.218 153.837 62.218Z" fill="#CC0000"/>
<path d="M196.394 62.2179H193.101C192.976 62.2179 192.857 62.1683 192.769 62.0801C192.68 61.9919 192.631 61.8723 192.631 61.7475C192.631 61.6228 192.68 61.5032 192.769 61.415C192.857 61.3268 192.976 61.2772 193.101 61.2772H195.453V58.9254C195.453 58.8637 195.465 58.8025 195.489 58.7454C195.513 58.6884 195.547 58.6365 195.591 58.5928C195.635 58.5492 195.686 58.5145 195.744 58.4909C195.801 58.4672 195.862 58.4551 195.924 58.4551C195.985 58.4551 196.046 58.4672 196.104 58.4909C196.161 58.5145 196.212 58.5492 196.256 58.5928C196.3 58.6365 196.334 58.6884 196.358 58.7454C196.382 58.8025 196.394 58.8637 196.394 58.9254V62.2179Z" fill="#CC0000"/>
<path d="M195.922 52.7235C195.797 52.7235 195.677 52.674 195.589 52.5858C195.501 52.4976 195.451 52.3779 195.451 52.2532V48.9607H198.744C198.868 48.9607 198.988 49.0102 199.076 49.0985C199.164 49.1867 199.214 49.3063 199.214 49.431C199.214 49.5558 199.164 49.6754 199.076 49.7636C198.988 49.8518 198.868 49.9014 198.744 49.9014H196.394V52.2532C196.394 52.3151 196.382 52.3765 196.358 52.4337C196.334 52.491 196.3 52.5429 196.256 52.5866C196.212 52.6303 196.16 52.6649 196.102 52.6884C196.045 52.7119 195.984 52.7238 195.922 52.7235Z" fill="#CC0000"/>
<path d="M256.202 49.9014H250.457C250.332 49.9014 250.212 49.8518 250.124 49.7636C250.036 49.6754 249.986 49.5558 249.986 49.431C249.986 49.3063 250.036 49.1867 250.124 49.0985C250.212 49.0102 250.332 48.9607 250.457 48.9607H256.202C256.327 48.9607 256.447 49.0102 256.535 49.0985C256.623 49.1867 256.673 49.3063 256.673 49.431C256.673 49.5558 256.623 49.6754 256.535 49.7636C256.447 49.8518 256.327 49.9014 256.202 49.9014ZM244.711 49.9014H238.965C238.841 49.9014 238.721 49.8518 238.633 49.7636C238.545 49.6754 238.495 49.5558 238.495 49.431C238.495 49.3063 238.545 49.1867 238.633 49.0985C238.721 49.0102 238.841 48.9607 238.965 48.9607H244.711C244.836 48.9607 244.956 49.0102 245.044 49.0985C245.132 49.1867 245.182 49.3063 245.182 49.431C245.182 49.5558 245.132 49.6754 245.044 49.7636C244.956 49.8518 244.836 49.9014 244.711 49.9014H244.711ZM233.219 49.9014H227.473C227.349 49.9014 227.229 49.8518 227.141 49.7636C227.053 49.6754 227.003 49.5558 227.003 49.431C227.003 49.3063 227.053 49.1867 227.141 49.0985C227.229 49.0102 227.349 48.9607 227.473 48.9607H233.219C233.344 48.9607 233.464 49.0102 233.552 49.0985C233.64 49.1867 233.69 49.3063 233.69 49.431C233.69 49.5558 233.64 49.6754 233.552 49.7636C233.464 49.8518 233.344 49.9014 233.219 49.9014ZM221.727 49.9014H215.981C215.857 49.9014 215.737 49.8518 215.649 49.7636C215.561 49.6754 215.511 49.5558 215.511 49.431C215.511 49.3063 215.561 49.1867 215.649 49.0985C215.737 49.0102 215.857 48.9607 215.981 48.9607H221.727C221.852 48.9607 221.972 49.0102 222.06 49.0985C222.148 49.1867 222.198 49.3063 222.198 49.431C222.198 49.5558 222.148 49.6754 222.06 49.7636C221.972 49.8518 221.852 49.9014 221.727 49.9014ZM210.235 49.9014H204.487C204.362 49.9014 204.243 49.8518 204.154 49.7636C204.066 49.6754 204.017 49.5558 204.017 49.431C204.017 49.3063 204.066 49.1867 204.154 49.0985C204.243 49.0102 204.362 48.9607 204.487 48.9607H210.233C210.358 48.9607 210.477 49.0102 210.566 49.0985C210.654 49.1867 210.703 49.3063 210.703 49.431C210.703 49.5558 210.654 49.6754 210.566 49.7636C210.477 49.8518 210.358 49.9014 210.233 49.9014H210.235Z" fill="#CC0000"/>
<path d="M264.771 55.338C264.646 55.338 264.527 55.2884 264.438 55.2002C264.35 55.112 264.301 54.9924 264.301 54.8676V49.8997H261.949C261.824 49.8997 261.704 49.8501 261.616 49.7619C261.528 49.6737 261.479 49.5541 261.479 49.4293C261.479 49.3046 261.528 49.185 261.616 49.0967C261.704 49.0085 261.824 48.959 261.949 48.959H265.241V54.866C265.242 54.9279 265.23 54.9893 265.206 55.0465C265.182 55.1038 265.148 55.1558 265.104 55.1997C265.06 55.2435 265.009 55.2783 264.951 55.302C264.894 55.3258 264.833 55.338 264.771 55.338Z" fill="#CC0000"/>
<path d="M139.676 90.7018C136.911 90.681 134.687 88.3829 134.708 85.568C134.73 82.7531 136.988 80.4878 139.756 80.5087C142.525 80.5295 144.745 82.8324 144.724 85.6433C144.704 88.4542 142.441 90.7235 139.676 90.7018ZM143.901 74.0399C142.598 73.5201 141.21 73.2483 139.808 73.2386C133.157 73.1881 127.729 78.9438 127.675 86.0928C127.655 88.6938 129.216 92.8709 131.212 97.1337C134.7 104.586 139.513 112.304 139.513 112.304C139.513 112.304 151.692 93.4238 151.745 86.2747C151.787 80.6729 148.515 75.878 143.901 74.0399Z" fill="#E83535"/>
<path d="M265.174 55.5641C261.501 55.5361 258.499 58.7172 258.469 62.6683C258.448 65.4295 261.652 71.4071 263.583 74.7565V77.1547H265.011C265.064 77.0746 271.742 66.7044 271.771 62.7693C271.802 58.8174 268.847 55.5914 265.174 55.5641ZM265.101 65.2156C263.573 65.2044 262.344 63.9335 262.356 62.3783C262.368 60.823 263.616 59.5738 265.144 59.5818C266.672 59.5898 267.902 60.8638 267.89 62.4191C267.878 63.9744 266.629 65.2268 265.101 65.2156Z" fill="#CC0000"/>
<path d="M263.746 55.5632C260.073 55.5359 257.071 58.7162 257.041 62.6673C257.011 66.6185 263.583 77.1545 263.583 77.1545C263.583 77.1545 270.314 66.7194 270.343 62.7683C270.373 58.8172 267.419 55.5912 263.746 55.5632ZM263.673 65.2154C262.145 65.2034 260.916 63.9334 260.928 62.3773C260.94 60.8212 262.188 59.5728 263.716 59.5816C265.244 59.5904 266.473 60.8637 266.462 62.4197C266.451 63.9758 265.201 65.2266 263.673 65.2154Z" fill="#E83535"/>
<path d="M210.803 182.894C210.523 184.256 210.054 185.485 209.333 186.463C209.333 186.463 209.428 184.635 209.482 182.155C209.915 182.415 210.355 182.661 210.803 182.894Z" fill="#BB1010"/>
<path d="M265.078 105.648L265.104 105.635C265.115 105.649 265.101 105.651 265.078 105.648Z" fill="#F26027"/>
<circle cx="139.5" cy="86.5" r="9.5" fill="white"/>
<path d="M143.583 89.2153L140.876 86.5001L143.583 83.7849C143.948 83.418 143.948 82.7943 143.583 82.3907C143.217 82.0238 142.595 82.0238 142.193 82.3907L139.486 85.1058L136.779 82.3907C136.414 82.0238 135.792 82.0238 135.39 82.3907C135.024 82.7576 135.024 83.3813 135.39 83.7849L138.096 86.5001L135.39 89.2153C135.024 89.5822 135.024 90.2059 135.39 90.6095C135.755 90.9764 136.377 90.9764 136.779 90.6095L139.486 87.8944L142.193 90.6095C142.559 90.9764 143.18 90.9764 143.583 90.6095C143.985 90.2059 143.985 89.5822 143.583 89.2153Z" fill="#CC0000"/>
</g>
<defs>
<clipPath id="clip0">
<rect width="375" height="250" fill="white"/>
</clipPath>
</defs>
</svg>
