<svg width="165" height="146" viewBox="0 0 165 146" fill="none" xmlns="http://www.w3.org/2000/svg">
<path d="M131.372 25.1925C105.085 -11.4465 75.72 2.66374 70.5324 16.7067C65.3448 30.7497 60.9768 42.3717 21.5724 52.0827C-4.27564 58.4541 2.78336 85.2897 10.6962 103C11.517 104.837 12.3468 106.575 13.1502 108.182C18.354 117.876 32.3502 138.176 59.9874 142.581C62.9501 142.988 65.933 143.231 68.9226 143.307C70.7934 143.357 72.6766 143.373 74.5722 143.357C76.0722 143.294 77.436 143.266 78.6798 143.27C109.507 142.235 141.715 132.431 152.557 111.203C160.471 95.7069 157.66 61.8315 131.372 25.1925Z" fill="#CDEFF8" fill-opacity="0.64"/>
<path d="M148.316 79.1337C148.316 79.1337 148.924 79.4103 148.896 80.4609C148.869 81.5115 147.099 83.5293 147.099 83.5293L144.888 80.5437L148.316 79.1337Z" fill="#CC0000"/>
<path d="M146.631 80.35C146.631 80.35 150.61 84.1102 149.864 87.43C149.118 90.7498 136.18 99.619 133.943 100.283C133.943 100.283 134.745 105.148 130.294 107.028C130.294 107.028 132.81 108.161 132.394 109.295C132.394 109.295 126.423 108.659 126.119 109.074C125.814 109.489 127.142 102.549 127.142 102.549C127.142 102.549 130.874 98.8726 131.288 97.3798C131.703 95.887 136.126 91.333 136.541 90.5788C136.955 89.8246 136.983 84.967 136.983 84.967L146.631 80.35Z" fill="white" stroke="#CC0000" stroke-width="0.5" stroke-miterlimit="10"/>
<path d="M133.944 100.283C133.944 100.283 133.096 99.094 134.091 98.7826C135.087 98.4712 139.415 97.0426 139.415 97.0426C139.415 97.0426 135.821 99.628 133.944 100.283Z" fill="#CC0000"/>
<path d="M164.767 118.221C164.767 121.48 148.932 124.291 126.072 125.587C117.448 126.076 107.823 126.349 97.6729 126.349C86.7343 126.349 76.4065 126.032 67.2823 125.469C45.5023 124.126 30.5785 121.385 30.5785 118.221C30.5785 113.732 60.6181 110.093 97.6729 110.093C134.728 110.093 164.767 113.732 164.767 118.221Z" fill="#CC0000"/>
<path d="M126.072 111.202V125.587C117.447 126.075 107.823 126.348 97.6725 126.348C86.7339 126.348 76.4061 126.031 67.2819 125.469L66.4419 114.549L126.072 111.202Z" fill="#CC0000" stroke="#FF9F33" stroke-width="0.5" stroke-miterlimit="10"/>
<path d="M114.443 36.1126C114.443 36.1126 115.489 41.245 114.679 43.99C114.679 43.99 116.258 45.5002 115.23 46.4044C114.622 46.939 113.19 46.8694 113.19 46.8694C113.19 46.8694 112.242 50.7508 108.299 50.9932C106.793 51.0862 106.045 50.8732 105.779 50.7658C105.766 50.7612 105.753 50.7597 105.74 50.7617C105.727 50.7637 105.715 50.769 105.705 50.7771C105.694 50.7852 105.686 50.7958 105.682 50.8079C105.677 50.8201 105.675 50.8333 105.677 50.8462L106.356 56.0062C106.356 56.0062 118.257 58.7842 117.909 61.1062C117.734 62.2678 80.2984 60.2662 79.5376 60.1108C76.7176 59.5342 82.3984 56.3368 92.641 53.5036L97.741 43.021C97.741 43.021 93.9358 41.3074 94.321 38.263C94.7062 35.2186 97.2664 34.3852 98.341 35.263C99.4156 36.1408 98.338 31.5994 102.942 31.3402C107.546 31.081 114.443 36.1126 114.443 36.1126Z" fill="white" stroke="#CC0000" stroke-width="0.5" stroke-miterlimit="10"/>
<path d="M104.335 33.4222C104.335 33.4222 111.187 39.9154 118.555 34.174C125.923 28.4326 110.288 19.8232 103.151 24.949C103.151 24.949 101.126 24.589 99.1354 25.558C96.5194 26.8294 95.5096 30.2302 95.5126 31.531C95.5198 34.771 95.7898 35.4862 95.7898 35.4862C95.7898 35.4862 98.4148 33.6712 99.7186 38.0974C100.665 41.3122 101.924 41.4664 102.446 40.4728C102.969 39.4792 102.411 32.0266 104.335 33.4222Z" fill="#CC0000"/>
<path d="M97.6728 39.1779C97.6728 39.1779 96.7026 38.2017 96.4728 37.4379" stroke="#CC0000" stroke-width="0.5" stroke-miterlimit="10" stroke-linecap="round"/>
<path d="M97.3231 36.64C97.2829 36.5716 95.8706 37.1932 96.0122 38.9621" stroke="#CC0000" stroke-width="0.5" stroke-miterlimit="10" stroke-linecap="round"/>
<path d="M105.81 50.5601C104.84 50.3408 103.89 50.0397 102.97 49.6601C102.902 49.632 102.826 49.6269 102.755 49.6455C102.683 49.6641 102.619 49.7055 102.573 49.7634C102.527 49.8213 102.501 49.8926 102.499 49.9665C102.497 50.0405 102.519 50.1132 102.561 50.1737C103.495 51.5045 105.135 53.8997 106.354 56.0135L105.81 50.5601Z" fill="#CC0000"/>
<path d="M88.6582 53.92C88.6582 53.92 102.135 64.9918 110.553 56.491C110.553 56.491 126.753 57.127 148.316 79.132C148.316 79.132 139.083 85.4356 136.539 90.577L128.025 84.385C128.025 84.385 128.882 111.062 127.555 117.448C127.555 117.448 83.7376 120.71 64.7176 116.287C64.7176 116.287 62.6722 99.2578 62.8378 87.7576C62.8378 87.7576 59.3824 66.8578 65.9344 62.4622C72.4864 58.0666 85.3246 54.1552 88.6582 53.92Z" fill="#FFE1E1" stroke="#CC0000" stroke-width="0.5" stroke-miterlimit="10"/>
<path d="M63.356 66.0521C63.356 66.0521 105.028 79.9961 125.674 61.6403" stroke="#FF9F33" stroke-width="0.5" stroke-miterlimit="10"/>
<path d="M62.1188 81.3316C62.1188 81.3316 112.209 92.9848 136.508 68.632" stroke="#FF9F33" stroke-width="0.5" stroke-miterlimit="10"/>
<path d="M63.3157 101.217C63.3157 101.217 109.438 108.206 128.245 94.4973" stroke="#FF9F33" stroke-width="0.5" stroke-miterlimit="10"/>
<path d="M85.1747 78.8018L89.4875 92.8598C89.4875 92.8598 88.3181 94.7282 87.8573 95.2532C87.0281 96.1976 85.5389 97.757 83.6982 99.0931H83.6951L83.6838 99.1009C83.5558 99.1945 83.4258 99.2863 83.2938 99.3763L83.2829 99.3847C82.4461 99.9672 81.5516 100.462 80.6136 100.861C78.372 101.792 75.6774 103.348 73.5744 104.651C71.5548 105.901 69.1428 105.349 69.1428 105.349C69.1428 105.349 65.133 99.5347 62.838 87.758" stroke="#CC0000" stroke-width="0.5" stroke-miterlimit="10"/>
<path d="M118.017 76.978L119.372 78.1114L124.569 77.4754L123.048 76.5077L118.017 76.978Z" fill="#FFE1E1" stroke="#CC0000" stroke-width="0.5" stroke-miterlimit="10" stroke-linecap="round" stroke-linejoin="round"/>
<path d="M118.017 76.9781L115.806 83.9723L115.032 86.6537L117.159 85.3655L119.372 78.1115L118.017 76.9781Z" fill="#FFE1E1" stroke="#CC0000" stroke-width="0.5" stroke-miterlimit="10" stroke-linecap="round" stroke-linejoin="round"/>
<path d="M117.159 85.3654L119.372 78.1114L124.569 77.4755L123.104 84.4696L117.159 85.3654Z" fill="#CC0000"/>
<path d="M121.694 89.2796C120.948 90.8552 116.165 91.4078 113.484 92.2928C110.802 93.1778 95.7901 108.438 88.5751 111.313C87.8753 111.593 87.1375 111.766 86.3863 111.827C85.3465 111.912 84.3121 111.788 83.3083 111.519C78.1069 110.123 73.7179 104.828 73.5769 104.657V104.653C75.6769 103.35 78.3769 101.794 80.6161 100.863C81.5542 100.464 82.4487 99.9691 83.2855 99.3867L83.2963 99.3783C83.4283 99.2883 83.5583 99.1965 83.6863 99.1029L83.6977 99.0951H83.7007C85.5415 97.7601 87.0307 96.2006 87.8599 95.255L88.5799 97.6029C88.5799 97.6029 91.0957 96.3308 102.265 92.2394C113.434 88.148 112.438 86.1578 112.438 84.9134C112.438 83.669 114.925 82.3975 114.981 81.4579C115.036 80.5183 115.368 80.3515 115.368 80.3515C117.939 80.5729 116.501 84.0842 116.388 85.0244C116.274 85.9646 119.65 84.8858 121.42 83.5585C123.189 82.2313 123.686 82.6747 123.686 82.6747C124.348 83.7505 122.44 87.704 121.694 89.2796Z" fill="white" stroke="#CC0000" stroke-width="0.5" stroke-miterlimit="10"/>
<path d="M83.6987 99.092H83.6951H83.6981H83.6987Z" stroke="#CC0000" stroke-width="6" stroke-miterlimit="10"/>
<path d="M86.5021 111.854C86.5021 111.854 85.3549 112.132 83.3083 111.519C81.0493 110.842 77.6941 109.079 73.5769 104.656V104.652C75.6769 103.35 78.3769 101.793 80.6161 100.863C81.5542 100.463 82.4487 99.9686 83.2855 99.3862C81.9733 100.341 78.0565 103.442 78.9577 105.797C80.0227 108.583 83.2723 111.087 86.3893 111.826L86.5021 111.854Z" fill="#CC0000"/>
<path d="M127.844 84.1516L127.637 77.3117C127.637 77.3117 128.079 75.4313 129.737 80.3519C131.395 85.2724 133.871 88.642 133.871 88.642L127.844 84.1516Z" fill="#CC0000"/>
<path d="M88.4319 97.7998C88.4319 97.7998 89.0127 100.26 91.6941 98.4904C94.3755 96.721 96.2115 94.495 96.2115 94.495L88.4319 97.7998Z" fill="#CC0000"/>
<path d="M67.7178 102.82C67.7178 102.82 81.7524 98.86 86.502 92.1357" stroke="#CC0000" stroke-width="0.5" stroke-miterlimit="10"/>
<path d="M134.97 89.44C134.97 89.44 136.036 83.2047 144.44 78.3945" stroke="#CC0000" stroke-width="0.5" stroke-miterlimit="10"/>
<path d="M86.208 54.3447C86.208 54.3447 100.043 70.0436 111.983 58.5999" stroke="#CC0000" stroke-width="0.5" stroke-miterlimit="10"/>
<path d="M67.6311 27.712L84.6928 27.712C86.0183 27.712 87.0928 26.6375 87.0928 25.312V21.73C87.0928 20.4045 86.0183 19.33 84.6928 19.33H67.6311C66.3056 19.33 65.2311 20.4045 65.2311 21.73V25.312C65.2311 26.6375 66.3056 27.712 67.6311 27.712Z" fill="#FFE1E1" stroke="#CC0000" stroke-width="0.5" stroke-miterlimit="10"/>
<path d="M71.6256 30.34H84.4152C85.1247 30.342 85.8046 30.6248 86.3064 31.1266C86.8081 31.6283 87.0909 32.3082 87.093 33.0178V36.04C87.0909 36.7495 86.8081 37.4294 86.3064 37.9312C85.8046 38.4329 85.1247 38.7157 84.4152 38.7177H84.0234L83.7174 39.6873C83.683 39.7961 83.6207 39.8939 83.5366 39.9709C83.4526 40.0479 83.3497 40.1015 83.2383 40.1262C83.127 40.1509 83.0112 40.1458 82.9024 40.1115C82.7937 40.0773 82.6958 40.015 82.6188 39.9309L81.5034 38.7189H71.6256C70.9158 38.7167 70.2358 38.4337 69.7341 37.9318C69.2323 37.4298 68.9497 36.7497 68.9478 36.04V33.0148C68.9508 32.3058 69.2339 31.6267 69.7356 31.1257C70.2372 30.6246 70.9166 30.3422 71.6256 30.34Z" fill="#FFE1E1" stroke="#CC0000" stroke-width="0.5" stroke-miterlimit="10"/>
<path d="M77.9013 21.7829L74.4243 25.2599" stroke="#CC0000" stroke-width="0.5" stroke-miterlimit="10" stroke-linecap="round"/>
<path d="M77.9013 25.2599L74.4243 21.7829" stroke="#CC0000" stroke-width="0.5" stroke-miterlimit="10" stroke-linecap="round"/>
<path d="M79.759 32.7094L76.282 36.1864" stroke="#CC0000" stroke-width="0.5" stroke-miterlimit="10" stroke-linecap="round"/>
<path d="M79.759 36.1864L76.282 32.7094" stroke="#CC0000" stroke-width="0.5" stroke-miterlimit="10" stroke-linecap="round"/>
<path d="M53.5065 12.007H40.7175C40.0079 12.0091 39.328 12.2918 38.8263 12.7936C38.3245 13.2953 38.0417 13.9752 38.0397 14.6848V17.7106C38.0417 18.4202 38.3245 19.1001 38.8263 19.6018C39.328 20.1036 40.0079 20.3863 40.7175 20.3884H41.1099L41.4159 21.358C41.4502 21.4667 41.5125 21.5645 41.5966 21.6416C41.6807 21.7186 41.7836 21.7721 41.8949 21.7968C42.0062 21.8215 42.1221 21.8165 42.2308 21.7822C42.3396 21.7479 42.4374 21.6856 42.5145 21.6016L43.6275 20.3884H53.5065C54.2159 20.386 54.8956 20.1031 55.3971 19.6014C55.8987 19.0997 56.1815 18.42 56.1837 17.7106V14.6848C56.1815 13.9754 55.8987 13.2957 55.3971 12.794C54.8956 12.2923 54.2159 12.0094 53.5065 12.007Z" fill="#FFE1E1" stroke="#CC0000" stroke-width="0.5" stroke-miterlimit="10"/>
<path d="M51.9969 17.3056C52.6073 17.3056 53.1021 16.8108 53.1021 16.2004C53.1021 15.59 52.6073 15.0952 51.9969 15.0952C51.3865 15.0952 50.8917 15.59 50.8917 16.2004C50.8917 16.8108 51.3865 17.3056 51.9969 17.3056Z" fill="#CC0000"/>
<path d="M47.2285 17.3056C47.8389 17.3056 48.3337 16.8108 48.3337 16.2004C48.3337 15.59 47.8389 15.0952 47.2285 15.0952C46.6181 15.0952 46.1233 15.59 46.1233 16.2004C46.1233 16.8108 46.6181 17.3056 47.2285 17.3056Z" fill="#CC0000"/>
<path d="M42.4591 17.3056C43.0695 17.3056 43.5643 16.8108 43.5643 16.2004C43.5643 15.59 43.0695 15.0952 42.4591 15.0952C41.8487 15.0952 41.3539 15.59 41.3539 16.2004C41.3539 16.8108 41.8487 17.3056 42.4591 17.3056Z" fill="#CC0000"/>
<path d="M40.439 9.382L53.7842 9.382C55.1097 9.382 56.1842 8.30748 56.1842 6.982V3.4C56.1842 2.07451 55.1097 0.999995 53.7842 0.999995L40.439 0.999995C39.1135 0.999995 38.039 2.07451 38.039 3.4V6.982C38.039 8.30748 39.1135 9.382 40.439 9.382Z" fill="#FFE1E1" stroke="#CC0000" stroke-width="0.5" stroke-miterlimit="10"/>
<path d="M43.0439 6.56677L43.0307 6.39338C42.9905 6.04118 43.1105 5.64158 43.4435 5.24919C43.7435 4.88919 43.9091 4.62999 43.9091 4.33059C43.9091 3.991 43.6961 3.7648 43.2767 3.7582C43.0369 3.75722 42.8025 3.8292 42.6047 3.9646L42.4451 3.5446C42.6713 3.385 43.0451 3.2788 43.3967 3.2788C44.1623 3.2788 44.5085 3.751 44.5085 4.25679C44.5085 4.70919 44.2553 5.04219 43.9355 5.41478C43.6427 5.76098 43.5359 6.06038 43.5563 6.39998L43.5635 6.56617L43.0439 6.56677ZM43.2839 7.91736C43.0571 7.91736 42.8975 7.73736 42.8975 7.50517C42.8975 7.25857 43.0643 7.08517 43.2965 7.08517C43.5287 7.08517 43.6895 7.25797 43.6895 7.50517C43.6895 7.73796 43.5359 7.91736 43.2899 7.91736H43.2839Z" fill="#CC0000"/>
<path d="M46.6791 6.56677L46.6653 6.39338C46.6251 6.04118 46.7451 5.64158 47.0781 5.24919C47.3781 4.88919 47.5437 4.62999 47.5437 4.33059C47.5437 3.991 47.3307 3.7648 46.9113 3.7582C46.6716 3.75729 46.4372 3.82927 46.2393 3.9646L46.0797 3.5446C46.3065 3.385 46.6797 3.2788 47.0319 3.2788C47.7969 3.2788 48.1431 3.751 48.1431 4.25679C48.1431 4.70919 47.8899 5.04219 47.5707 5.41478C47.2779 5.76098 47.1711 6.06038 47.1909 6.39998L47.1981 6.56617L46.6791 6.56677ZM46.9191 7.91736C46.6929 7.91736 46.5327 7.73736 46.5327 7.50517C46.5327 7.25857 46.6995 7.08517 46.9323 7.08517C47.1651 7.08517 47.3253 7.25797 47.3253 7.50517C47.3253 7.73796 47.1717 7.91736 46.9257 7.91736H46.9191Z" fill="#CC0000"/>
<path d="M50.3164 6.56677L50.3032 6.39338C50.263 6.04118 50.383 5.64158 50.716 5.24919C51.016 4.88919 51.1816 4.62999 51.1816 4.33059C51.1816 3.991 50.9686 3.7648 50.5492 3.7582C50.3095 3.75722 50.0751 3.8292 49.8772 3.9646L49.717 3.5446C49.9438 3.385 50.317 3.2788 50.6692 3.2788C51.4342 3.2788 51.7811 3.751 51.7811 4.25679C51.7811 4.70919 51.5278 5.04219 51.208 5.41478C50.9152 5.76098 50.8084 6.06038 50.8288 6.39998L50.836 6.56617L50.3164 6.56677ZM50.5564 7.91736C50.3296 7.91736 50.17 7.73736 50.17 7.50517C50.17 7.25857 50.3368 7.08517 50.569 7.08517C50.8013 7.08517 50.962 7.25797 50.962 7.50517C50.962 7.73796 50.8084 7.91736 50.5624 7.91736H50.5564Z" fill="#CC0000"/>
<path d="M1 76.2196C1 76.2196 7.4476 143.363 65.2318 145" stroke="#CC0000" stroke-width="0.5" stroke-miterlimit="10" stroke-linecap="round"/>
<path d="M143.891 5.51552C135.953 3.74012 128.133 8.48552 126.427 16.1145C125.546 20.0529 126.466 23.9901 128.654 27.1215L127.367 28.6269C127.367 28.6269 126.249 29.8923 129.789 28.5471C131.888 30.8647 134.656 32.4714 137.709 33.1443C145.649 34.9204 153.467 30.1749 155.174 22.5453C156.881 14.9157 151.83 7.29152 143.891 5.51552Z" fill="white" stroke="#CC0000" stroke-width="0.5" stroke-miterlimit="10"/>
<path d="M144.905 21.4653C144.905 21.4653 141.161 19.7811 138.267 18.1269C135.292 16.4265 133.215 14.7579 137.024 14.9817C144.537 15.4239 136.287 18.9597 139.454 21.9801C142.622 25.0005 141.885 20.9487 143.432 18.0759C144.98 15.2031 133.996 15.8661 134.957 20.2119C135.919 24.5577 141.077 19.9173 143.138 15.3519C145.198 10.7865 136.802 14.7627 136.802 19.3299C136.802 23.8971 140.042 22.0557 144.902 18.5199C149.762 14.9841 143.797 24.1917 141.809 24.5601C139.82 24.9285 132.719 17.9301 134.295 16.4601C135.871 14.9901 143.724 12.0405 144.315 15.2817C144.906 18.5229 135.992 22.8921 137.465 24.5721C138.938 26.2521 143.211 20.8749 145.789 16.1607C148.367 11.4465 147.484 24.2637 143.874 24.4845C140.264 24.7053 133.564 23.2089 135.474 19.1079C137.384 15.0069 149.765 17.4879 148.292 20.5065C146.819 23.5251 144.905 21.4653 144.905 21.4653Z" fill="white" stroke="#CC0000" stroke-width="0.5" stroke-miterlimit="10"/>
</svg>
