<svg width="375" height="250" viewBox="0 0 375 250" fill="none" xmlns="http://www.w3.org/2000/svg">
<path d="M375 0H0V250H375V0Z" fill="white"/>
<g opacity="0.75">
<path opacity="0.75" d="M297.672 116.9C297.632 117.052 297.591 117.201 297.551 117.347C297.317 118.192 297.058 119.032 296.776 119.869C296.775 119.874 296.773 119.879 296.771 119.883C296.724 120.024 296.675 120.165 296.626 120.306C294.82 125.493 292.086 130.476 288.367 135.072C283.743 140.783 278.672 145.784 273.223 150.044C269.805 152.717 266.186 155.123 262.398 157.241C259.444 158.891 256.39 160.358 253.255 161.631C252.881 161.783 252.504 161.933 252.124 162.079C251.873 162.177 251.62 162.273 251.367 162.369C251.114 162.464 250.86 162.558 250.607 162.651C239.248 166.809 226.87 168.487 213.782 167.521C213.325 165.821 211.973 163.214 210.342 161.956C209.855 161.581 209.342 161.326 208.82 161.251C206.278 160.891 203.717 160.686 201.15 160.637C192.942 160.467 184.731 161.784 176.665 163.842C174.2 164.472 171.749 165.17 169.317 165.918C166.663 166.73 164.028 167.601 161.426 168.503C160.235 168.916 159.044 169.334 157.854 169.756C154.295 171.02 150.742 172.32 147.18 173.594C143.537 174.894 139.889 176.158 136.208 177.324C134.293 177.93 132.369 178.504 130.438 179.046C129.749 179.239 129.059 179.426 128.368 179.607C127.585 179.814 126.802 180.012 126.017 180.203C122.422 181.092 118.783 181.789 115.115 182.292C113.478 182.512 111.881 182.773 110.317 183.051C108.114 183.443 105.976 183.871 103.881 184.274C100.744 184.876 97.7052 185.421 94.6916 185.704C89.0137 186.234 83.4287 185.828 77.4512 183.101C67.8831 178.738 60.2436 171.636 54.4263 163.122C52.4807 160.264 50.7364 157.273 49.206 154.173C47.9952 151.73 46.9071 149.219 45.9408 146.665C43.5828 140.404 41.9128 133.904 40.96 127.281C40.7265 125.67 40.5348 124.049 40.3847 122.416C40.3077 121.578 40.2412 120.738 40.1852 119.895C38.8662 99.9435 43.6122 78.901 53.9944 62.276C54.8406 60.9224 55.7239 59.5989 56.6443 58.3057C57.5754 56.9974 58.5452 55.7226 59.5537 54.4811C60.9774 52.7295 62.4776 51.0527 64.0545 49.4507C64.9985 48.495 65.968 47.5679 66.9632 46.6694C68.4087 45.3703 69.9095 44.1376 71.4656 42.9715C72.2963 42.3492 73.1424 41.7482 74.0041 41.1686L74.3743 40.9218C75.831 39.9571 77.3315 39.0538 78.8759 38.2119C79.8299 37.6927 80.8 37.1983 81.7861 36.7287C83.2503 36.0343 84.7503 35.3954 86.2861 34.812C87.2423 34.4483 88.2119 34.109 89.1948 33.7944C90.9816 33.2218 92.8142 32.7276 94.6924 32.312C98.9704 31.3779 103.332 30.8767 107.71 30.816C114.014 30.7151 120.076 31.6486 126.018 33.1221C126.802 33.3166 127.585 33.5206 128.365 33.7343C129.274 33.9806 130.176 34.2375 131.073 34.5051C131.817 34.7247 132.56 34.9509 133.303 35.1838C134.271 35.4867 135.238 35.7979 136.202 36.1173C136.875 36.3412 137.548 36.5666 138.22 36.7936C139.521 37.2359 140.82 37.6862 142.118 38.1446C143.02 38.4613 143.923 38.78 144.825 39.1005L147.175 39.9298L148.103 40.2576C152.131 41.671 156.174 43.0436 160.271 44.2111C163.244 45.0563 166.262 45.7336 169.311 46.2399C177.091 47.5452 185.016 47.804 192.852 47.3906C198.701 47.0829 204.519 46.3225 210.335 45.5877C212.167 45.3569 213.999 45.1278 215.83 44.917C216.8 44.8048 217.77 44.698 218.74 44.5965C220.24 44.4416 221.741 44.308 223.241 44.1959C224.211 44.1237 225.181 44.0631 226.152 44.014C227.651 43.9394 229.151 43.8946 230.652 43.8898C231.621 43.8839 232.591 43.897 233.563 43.929C235.061 43.9747 236.56 44.0653 238.063 44.2095C239.032 44.3014 240.002 44.4154 240.973 44.5516C242.469 44.7653 243.969 45.0364 245.474 45.3649L245.5 45.3713C246.465 45.585 247.426 45.8161 248.385 46.0645C249.898 46.4539 251.398 46.886 252.886 47.3609C253.862 47.6718 254.832 48.0012 255.795 48.3489C257.652 49.0177 259.481 49.7536 261.281 50.5564C261.655 50.7231 262.026 50.893 262.394 51.0661C265.797 52.6446 269.074 54.4817 272.196 56.5613C273.504 57.4347 274.781 58.3527 276.027 59.3153C280.141 62.4795 283.852 66.136 287.077 70.2031C287.434 70.6561 287.786 71.1139 288.131 71.5765C288.323 71.8345 288.512 72.0936 288.699 72.3537C289.201 73.0482 289.685 73.7522 290.152 74.4659C291.492 76.506 292.701 78.6291 293.773 80.8225C294.591 82.4972 295.321 84.1983 295.962 85.9259C299.685 95.9547 300.388 106.731 297.672 116.9Z" fill="#F3F5F4"/>
<path opacity="0.75" d="M40.9584 127.281C42.2741 136.377 44.9953 145.678 49.2052 154.173C50.7352 157.274 52.4798 160.264 54.4263 163.122C60.2437 171.635 67.8815 178.737 77.4504 183.101C83.428 185.825 89.0129 186.233 94.6908 185.704V32.3125C92.8126 32.726 90.9803 33.2204 89.194 33.7957C88.21 34.1103 87.2402 34.449 86.2845 34.8117C84.7477 35.3934 83.2474 36.0326 81.7837 36.7292C80.7976 37.1987 79.8278 37.6931 78.8743 38.2123C77.3305 39.0532 75.8299 39.9565 74.3727 40.9223C74.2487 41.004 74.1253 41.0865 74.0025 41.1699C73.1414 41.75 72.2949 42.3507 71.4632 42.972C69.9071 44.1365 68.4069 45.3694 66.9624 46.6707C65.9656 47.567 64.9958 48.4939 64.053 49.4511C62.4771 51.0499 60.9768 52.7268 59.5522 54.4816C58.5447 55.722 57.5749 56.9971 56.6427 58.3069C55.7218 59.5986 54.8385 60.9217 53.9929 62.2764C42.3198 80.9704 37.7725 105.255 40.9584 127.281Z" fill="#BDDDE5"/>
<path opacity="0.75" d="M49.2324 78.081V143.797H52.1427V67.7012C51.0588 71.097 50.0887 74.5569 49.2324 78.081Z" fill="#BDDDE5"/>
<path opacity="0.75" d="M56.6432 58.3068V143.797H59.5526V54.4814C58.5457 55.7218 57.5759 56.9969 56.6432 58.3068Z" fill="#BDDDE5"/>
<path opacity="0.75" d="M64.054 49.4512V143.797H66.9635V46.6699C65.9645 47.5663 64.9947 48.4934 64.054 49.4512Z" fill="#BDDDE5"/>
<path opacity="0.75" d="M71.4648 42.9716V143.797H74.3743V40.9219C73.3839 41.5784 72.4141 42.2616 71.4648 42.9716Z" fill="#BDDDE5"/>
<path opacity="0.75" d="M78.8755 38.2127V143.798H81.7858V36.7295C80.7986 37.199 79.8285 37.6934 78.8755 38.2127Z" fill="#BDDDE5"/>
<path opacity="0.75" d="M86.2854 34.8117V143.797H89.1949V33.7949C88.2109 34.1106 87.2411 34.4496 86.2854 34.8117Z" fill="#BDDDE5"/>
<path opacity="0.75" d="M157.853 67.934V169.76C159.042 169.337 160.232 168.919 161.424 168.506C164.03 167.606 166.661 166.734 169.314 165.921C171.747 165.174 174.198 164.479 176.662 163.845C184.728 161.786 192.939 160.468 201.147 160.64V67.9316L157.853 67.934Z" fill="#BDDDE5"/>
<path opacity="0.75" d="M196.998 77.334H188.184V84.4999H196.998V77.334Z" fill="#BDDDE5"/>
<path opacity="0.75" d="M185.477 77.334H176.662V84.4999H185.477V77.334Z" fill="#BDDDE5"/>
<path opacity="0.75" d="M173.955 77.334H165.14V82.1081H173.955V77.334Z" fill="white" stroke="#45ABC7" stroke-width="4" stroke-miterlimit="10"/>
<path opacity="0.75" d="M196.998 93.4258H188.184V100.592H196.998V93.4258Z" fill="#BDDDE5"/>
<path opacity="0.75" d="M185.477 93.4258H176.662V100.592H185.477V93.4258Z" fill="#BDDDE5"/>
<path opacity="0.75" d="M173.955 88.0547H165.14V92.8287H173.955V88.0547Z" fill="white" stroke="#45ABC7" stroke-width="4" stroke-miterlimit="10"/>
<path opacity="0.75" d="M196.998 109.517H188.184V116.682H196.998V109.517Z" fill="#BDDDE5"/>
<path opacity="0.75" d="M185.477 109.517H176.662V116.682H185.477V109.517Z" fill="#BDDDE5"/>
<path opacity="0.75" d="M173.955 98.7744H165.14V103.548H173.955V98.7744Z" fill="white" stroke="#45ABC7" stroke-width="4" stroke-miterlimit="10"/>
<path opacity="0.75" d="M196.998 125.608H188.184V132.774H196.998V125.608Z" fill="#BDDDE5"/>
<path opacity="0.75" d="M185.477 125.608H176.662V132.774H185.477V125.608Z" fill="#BDDDE5"/>
<path opacity="0.75" d="M173.955 109.495H165.14V114.269H173.955V109.495Z" fill="white" stroke="#45ABC7" stroke-width="4" stroke-miterlimit="10"/>
<path opacity="0.75" d="M196.998 141.7H188.184V148.866H196.998V141.7Z" fill="#BDDDE5"/>
<path opacity="0.75" d="M185.477 141.7H176.662V148.866H185.477V141.7Z" fill="#BDDDE5"/>
<path opacity="0.75" d="M173.955 120.217H165.14V124.991H173.955V120.217Z" fill="white" stroke="#45ABC7" stroke-width="4" stroke-miterlimit="10"/>
<path opacity="0.75" d="M157.853 67.934V169.76C159.042 169.337 160.232 168.919 161.424 168.506C164.03 167.606 166.661 166.734 169.314 165.921C171.747 165.174 174.198 164.479 176.662 163.845V67.9316L157.853 67.934Z" fill="#BDDDE5"/>
<path opacity="0.75" d="M296.626 120.306C294.82 125.492 292.085 130.476 288.367 135.07C283.743 140.783 278.676 145.784 273.223 150.043C269.805 152.716 266.186 155.122 262.398 157.24C258.616 159.353 254.673 161.163 250.604 162.653V59.3145H276.027C280.142 62.4787 283.852 66.1352 287.077 70.2023C287.434 70.6542 287.786 71.1123 288.131 71.5765C288.832 72.5231 289.505 73.4862 290.148 74.4659C291.489 76.5061 292.698 78.6292 293.769 80.8225C294.588 82.4971 295.318 84.1983 295.959 85.9258C299.685 95.9539 300.388 106.729 297.672 116.899C297.347 118.116 297.04 119.117 296.626 120.306Z" fill="#BDDDE5"/>
<path opacity="0.75" d="M283.819 69.3643H273.22V74.4677H283.819V69.3643Z" fill="#BDDDE5"/>
<path opacity="0.75" d="M269.963 69.3643H259.365V74.4677H269.963V69.3643Z" fill="white" stroke="#45ABC7" stroke-width="4" stroke-miterlimit="10"/>
<path opacity="0.75" d="M287.074 80.8232V85.9265H295.959C295.318 84.2016 294.588 82.5006 293.769 80.8232H287.074Z" fill="#BDDDE5"/>
<path opacity="0.75" d="M283.819 80.8232H273.22V85.9267H283.819V80.8232Z" fill="#BDDDE5"/>
<path opacity="0.75" d="M269.963 80.8232H259.365V85.9267H269.963V80.8232Z" fill="white" stroke="#45ABC7" stroke-width="4" stroke-miterlimit="10"/>
<path opacity="0.75" d="M297.672 92.2832H287.074V97.3866H297.672V92.2832Z" fill="#BDDDE5"/>
<path opacity="0.75" d="M283.819 92.2832H273.22V97.3866H283.819V92.2832Z" fill="#BDDDE5"/>
<path opacity="0.75" d="M269.963 92.2832H259.365V97.3866H269.963V92.2832Z" fill="white" stroke="#45ABC7" stroke-width="4" stroke-miterlimit="10"/>
<path opacity="0.75" d="M297.672 103.743H287.074V108.847H297.672V103.743Z" fill="#BDDDE5"/>
<path opacity="0.75" d="M283.819 103.743H273.22V108.847H283.819V103.743Z" fill="#BDDDE5"/>
<path opacity="0.75" d="M269.963 103.743H259.365V108.847H269.963V103.743Z" fill="white" stroke="#45ABC7" stroke-width="4" stroke-miterlimit="10"/>
<path opacity="0.75" d="M283.819 115.203H273.22V120.306H283.819V115.203Z" fill="#BDDDE5"/>
<path opacity="0.75" d="M269.963 115.203H259.365V120.306H269.963V115.203Z" fill="white" stroke="#45ABC7" stroke-width="4" stroke-miterlimit="10"/>
<path opacity="0.75" d="M250.602 59.3164V162.652C254.67 161.163 258.613 159.354 262.395 157.24C266.183 155.123 269.802 152.717 273.22 150.043V59.3164H250.602Z" fill="#E2F9FF"/>
<path opacity="0.75" d="M261.282 50.5607C259.483 49.7594 257.654 49.0233 255.796 48.3523C254.834 48.0046 253.865 47.6752 252.887 47.3643C251.4 46.89 249.899 46.4575 248.386 46.0671C247.429 45.8192 246.467 45.5884 245.501 45.3748L245.474 45.3691C243.97 45.0358 242.47 44.7644 240.972 44.555C240.001 44.4178 239.032 44.3037 238.063 44.2129C236.56 44.0697 235.06 43.976 233.563 43.9316C232.591 43.8996 231.621 43.8884 230.652 43.8924C229.151 43.8972 227.651 43.9429 226.152 44.0174C225.181 44.066 224.211 44.1266 223.241 44.1993C221.74 44.3104 220.24 44.4439 218.74 44.5999C217.771 44.6993 216.801 44.8061 215.83 44.9204C213.998 45.1312 212.167 45.3603 210.334 45.5911V161.958C211.966 163.216 213.317 165.823 213.775 167.523C226.864 168.485 239.242 166.81 250.599 162.653C254.667 161.164 258.61 159.354 262.392 157.241" fill="#BDDDE5"/>
<path opacity="0.75" d="M252.885 47.3613V140.07H255.793V48.3493C254.832 48.0016 253.862 47.6722 252.885 47.3613Z" fill="#E2F9FF"/>
<path opacity="0.75" d="M245.476 45.3662V140.071H248.386V46.0641C247.429 45.8163 246.467 45.5855 245.501 45.3718L245.476 45.3662Z" fill="#E2F9FF"/>
<path opacity="0.75" d="M238.065 44.21V140.071H240.974V44.5513C240.004 44.4146 239.034 44.3008 238.065 44.21Z" fill="#E2F9FF"/>
<path opacity="0.75" d="M230.654 43.8895V140.071H233.565V43.9287C232.593 43.8967 231.623 43.8854 230.654 43.8895Z" fill="#E2F9FF"/>
<path opacity="0.75" d="M223.244 44.1965V140.071H226.154V44.0146C225.183 44.0633 224.213 44.1239 223.244 44.1965Z" fill="#E2F9FF"/>
<path opacity="0.75" d="M215.833 44.9169V140.071H218.743V44.5996C217.773 44.699 216.803 44.8047 215.833 44.9169Z" fill="#E2F9FF"/>
<path opacity="0.75" d="M126.017 33.123V180.209C126.802 180.018 127.585 179.819 128.367 179.613C130.995 178.922 133.606 178.152 136.204 177.329C139.881 176.166 143.533 174.899 147.177 173.598C150.738 172.327 154.291 171.026 157.85 169.762C159.039 169.338 160.229 168.92 161.421 168.508C164.027 167.608 166.658 166.736 169.311 165.923V46.2408C166.262 45.7336 163.244 45.0565 160.271 44.2128C156.175 43.0445 152.132 41.6719 148.104 40.2577C147.794 40.1495 147.484 40.0397 147.175 39.9307C146.392 39.6551 145.608 39.3787 144.826 39.1014C143.924 38.7809 143.021 38.4623 142.118 38.1455C140.819 37.6887 139.52 37.2384 138.22 36.7945C137.549 36.567 136.876 36.3415 136.202 36.1182C135.241 35.7977 134.275 35.4866 133.303 35.1847C132.561 34.9513 131.818 34.7248 131.073 34.5053C130.172 34.2382 129.269 33.9815 128.365 33.7352C127.585 33.521 126.803 33.317 126.017 33.123Z" fill="#E2F9FF"/>
<path opacity="0.75" d="M165.165 48.4492H156.35V55.0261H165.165V48.4492Z" fill="#F3F5F4"/>
<path opacity="0.75" d="M153.642 48.4492H144.828V55.0261H153.642V48.4492Z" fill="#F3F5F4"/>
<path opacity="0.75" d="M142.119 48.4492H133.305V55.0261H142.119V48.4492Z" fill="white" stroke="#45ABC7" stroke-width="4" stroke-miterlimit="10"/>
<path opacity="0.75" d="M165.165 63.2197H156.35V69.7966H165.165V63.2197Z" fill="#F3F5F4"/>
<path opacity="0.75" d="M153.642 63.2197H144.828V69.7966H153.642V63.2197Z" fill="#F3F5F4"/>
<path opacity="0.75" d="M142.119 63.2197H133.305V69.7966H142.119V63.2197Z" fill="white" stroke="#45ABC7" stroke-width="4" stroke-miterlimit="10"/>
<path opacity="0.75" d="M165.165 77.9893H156.35V84.5661H165.165V77.9893Z" fill="#F3F5F4"/>
<path opacity="0.75" d="M153.642 77.9893H144.828V84.5661H153.642V77.9893Z" fill="#F3F5F4"/>
<path opacity="0.75" d="M142.119 77.9893H133.305V84.5661H142.119V77.9893Z" fill="white" stroke="#45ABC7" stroke-width="4" stroke-miterlimit="10"/>
<path opacity="0.75" d="M165.165 92.7578H156.35V99.3347H165.165V92.7578Z" fill="#F3F5F4"/>
<path opacity="0.75" d="M153.642 92.7578H144.828V99.3347H153.642V92.7578Z" fill="#F3F5F4"/>
<path opacity="0.75" d="M142.119 92.7578H133.305V99.3347H142.119V92.7578Z" fill="white" stroke="#45ABC7" stroke-width="4" stroke-miterlimit="10"/>
<path opacity="0.75" d="M103.882 40.5371V184.277C107.463 183.589 111.174 182.826 115.116 182.296C118.784 181.793 122.423 181.096 126.018 180.209C126.802 180.018 127.585 179.82 128.367 179.613C130.996 178.922 133.607 178.152 136.205 177.329C139.882 176.166 143.533 174.899 147.178 173.598V40.5371H103.882Z" fill="#BDDDE5"/>
<path opacity="0.75" d="M139.89 42.7402H131.075V47.5143H139.89V42.7402Z" fill="white" stroke="#45ABC7" stroke-width="4" stroke-miterlimit="10"/>
<path opacity="0.75" d="M139.89 53.4609H131.075V58.235H139.89V53.4609Z" fill="white" stroke="#45ABC7" stroke-width="4" stroke-miterlimit="10"/>
<path opacity="0.75" d="M116.618 51.8135H107.804V56.5875H116.618V51.8135Z" fill="#BDDDE5"/>
<path opacity="0.75" d="M128.142 51.8135H119.327V56.5875H128.142V51.8135Z" fill="#BDDDE5"/>
<path opacity="0.75" d="M116.618 62.5332H107.804V67.3072H116.618V62.5332Z" fill="#BDDDE5"/>
<path opacity="0.75" d="M128.142 62.5332H119.327V67.3072H128.142V62.5332Z" fill="#BDDDE5"/>
<path opacity="0.75" d="M116.618 73.2539H107.804V78.0279H116.618V73.2539Z" fill="#BDDDE5"/>
<path opacity="0.75" d="M128.142 73.2539H119.327V78.0279H128.142V73.2539Z" fill="#BDDDE5"/>
<path opacity="0.75" d="M116.618 83.9746H107.804V88.7486H116.618V83.9746Z" fill="#BDDDE5"/>
<path opacity="0.75" d="M128.142 83.9746H119.327V88.7486H128.142V83.9746Z" fill="#BDDDE5"/>
<path opacity="0.75" d="M116.618 94.6943H107.804V99.4684H116.618V94.6943Z" fill="#BDDDE5"/>
<path opacity="0.75" d="M128.142 94.6943H119.327V99.4684H128.142V94.6943Z" fill="#BDDDE5"/>
<path opacity="0.75" d="M139.89 64.1807H131.075V68.9546H139.89V64.1807Z" fill="white" stroke="#45ABC7" stroke-width="4" stroke-miterlimit="10"/>
<path opacity="0.75" d="M128.365 33.7344V179.613C130.994 178.921 133.605 178.151 136.203 177.328C139.88 176.165 143.531 174.898 147.175 173.597V39.9307C146.392 39.655 145.609 39.3786 144.826 39.1014C143.924 38.7808 143.021 38.4622 142.119 38.1454C140.819 37.6887 139.52 37.2384 138.22 36.7945C137.549 36.5669 136.876 36.3415 136.203 36.1182C135.241 35.7977 134.275 35.4865 133.304 35.1847C132.562 34.9513 131.818 34.7248 131.073 34.5052C130.173 34.2386 129.271 33.9817 128.365 33.7344Z" fill="#BDDDE5"/>
<g opacity="0.63">
<path opacity="0.63" d="M319.259 131.505C321.215 136.157 322.319 141.252 322.529 143.532C323.393 152.907 317.983 158.866 309.388 161.355C305.862 162.376 301.839 162.111 298.817 160.029C297.214 158.922 295.967 157.376 294.816 155.802C293.38 153.839 292.033 151.749 291.41 149.397C289.792 143.293 295.755 141.292 298.569 136.918C301.358 132.583 301.679 125.927 306.561 123.229C312.833 119.764 317.102 126.375 319.259 131.505Z" fill="#BDDDE5"/>
</g>
<path opacity="0.75" d="M310.817 115.241C309.229 117.052 306.964 117.27 304.99 112.966C304.034 110.883 305.012 108.12 307.067 107.102C314.343 103.497 313.689 111.97 310.817 115.241Z" fill="#BDDDE5"/>
<path opacity="0.75" d="M161.5 39.7548C154.915 38.3782 147.94 35.8862 145.645 30.9535C142.737 24.7035 165.051 34.2676 167.199 34.9816C175.894 37.8718 184.621 39.4944 193.712 37.2556C195.436 36.8317 206.329 33.7724 207.432 36.1242C207.913 37.1562 205.546 38.2716 204.694 38.7316C195.225 43.8349 181.01 42.4119 170.722 41.1859C168.226 40.883 164.915 40.4695 161.5 39.7548Z" fill="#BDDDE5"/>
<path opacity="0.44" d="M297.672 116.9C297.632 117.052 297.592 117.2 297.551 117.347C297.317 118.191 297.058 119.032 296.776 119.868C296.775 119.873 296.773 119.878 296.771 119.883C296.724 120.024 296.675 120.164 296.626 120.306C294.82 125.492 292.086 130.476 288.367 135.071C283.743 140.783 278.672 145.783 273.223 150.043C269.805 152.716 266.186 155.122 262.398 157.24C259.444 158.891 256.39 160.357 253.255 161.63C252.881 161.783 252.504 161.932 252.124 162.078C251.873 162.176 251.62 162.273 251.367 162.368C251.114 162.463 250.861 162.557 250.607 162.65C239.249 166.808 226.87 168.486 213.782 167.521C213.326 165.82 211.973 163.214 210.342 161.956C209.855 161.581 209.342 161.325 208.82 161.251C206.278 160.891 203.717 160.686 201.15 160.636C192.942 160.466 184.731 161.783 176.665 163.841C174.201 164.471 171.749 165.17 169.317 165.917C166.663 166.73 164.028 167.6 161.426 168.502C160.235 168.915 159.045 169.333 157.854 169.755C154.295 171.02 150.742 172.319 147.18 173.593C141.435 173.593 135.882 175.809 130.442 179.042C129.753 179.235 129.062 179.422 128.371 179.603C127.589 179.81 126.805 180.009 126.02 180.199C122.425 181.089 118.784 181.788 115.115 182.291C113.479 182.511 111.882 182.772 110.318 183.05C108.114 183.442 105.976 183.87 103.882 184.273C100.744 184.876 97.7053 185.42 94.6917 185.703C89.0138 186.233 83.4289 185.827 77.4513 183.101C67.8832 178.737 60.2438 171.635 54.4265 163.121C52.4809 160.263 50.7365 157.273 49.2061 154.172C47.9954 151.729 46.9073 149.218 45.9409 146.665C43.583 140.403 41.9129 133.903 40.9601 127.28C40.7267 125.67 40.5349 124.048 40.3848 122.416C40.3079 121.577 40.2414 120.737 40.1853 119.895C54.5443 124.363 70.1196 124.702 85.154 124.898C110.795 125.234 136.477 123.616 161.793 119.494C208.289 111.926 250.529 97.3555 288.696 72.3555C289.198 73.0499 289.682 73.754 290.148 74.4676C291.489 76.5077 292.698 78.6308 293.769 80.8242C294.588 82.4989 295.318 84.2 295.959 85.9276C299.685 95.954 300.388 106.73 297.672 116.9Z" fill="#BDDDE5"/>
</g>
<path d="M315.545 196.971C322.597 189.459 321.096 176.436 313.966 169.001C310.968 165.876 307.064 163.509 302.783 162.843C298.503 162.176 293.86 163.353 290.756 166.375C290.429 160.267 285.938 154.375 279.928 153.234C273.918 152.093 267.188 156.576 266.647 162.669C270.391 170.66 275.221 177.306 281.267 183.735C284.455 187.125 288.111 190.353 292.603 191.57C296.155 192.532 299.947 192.155 303.544 192.932C306.084 193.484 313.189 195.868 315.545 196.971Z" fill="#BDD3AF"/>
<path d="M235.453 169.351C238.69 176.217 241.997 183.138 246.723 189.078C251.449 195.018 257.781 199.975 265.19 201.642C272.12 203.199 286.166 203.101 291.896 198.134C301.41 189.885 285.966 164.716 276.561 175.583C280.638 170.873 282.964 164.489 282.083 158.321C281.202 152.154 276.826 146.425 270.855 144.645C264.885 142.866 257.679 145.64 255.041 151.285C254.314 147.519 253.564 143.694 251.749 140.32C249.934 136.946 246.855 134.033 243.078 133.386C221.924 129.765 230.69 159.242 235.453 169.351Z" fill="#A6BD97"/>
<path d="M100.894 192.622C98.203 194.471 94.5331 193.038 91.3016 193.498C89.0524 193.818 87.0548 195.064 84.8865 195.751C74.3961 199.082 60.3673 196.681 52.1509 189.153C44.695 182.323 41.7463 154.967 58.3328 161.02C55.4338 153.175 58.6966 143.792 65.2294 138.57C71.7623 133.348 80.945 132.086 89.0219 134.259C97.6549 136.583 97.1205 140.802 99.8977 147.623C102.431 153.843 108.163 157.799 110.306 164.786C112.407 171.637 112.986 179.712 108.619 185.395C105.758 189.119 104.764 189.962 100.894 192.622Z" fill="#BDD3AF"/>
<path d="M75.4063 174.711C73.2464 170.887 72.5028 166.425 73.3061 162.107C73.4856 161.162 73.7548 160.198 74.3694 159.463C75.7188 157.837 78.3446 157.853 80.1675 158.92C81.9904 159.988 83.2004 161.829 84.3438 163.605C86.1723 159.758 91.2348 160.705 93.5962 163.276C96.9712 166.945 94.9183 172.585 92.8887 176.267C89.3751 182.64 82.2853 188.893 74.9231 190.117C68.0649 191.256 61.4247 187.564 59.9231 180.388C57.8285 170.368 70.2965 165.74 75.4063 174.711Z" fill="#A6BD97"/>
<path d="M260.437 154.128C261.248 151.635 262.952 149.531 265.221 148.218C266.31 150.702 266.773 153.535 266.072 156.155C265.336 158.901 263.357 161.021 261.146 162.67C260.121 159.739 259.471 157.131 260.437 154.128Z" fill="#BDD3AF"/>
<path d="M260.049 171.979C261.37 170.703 263.115 169.958 264.951 169.89C264.811 171.785 264.168 173.69 262.875 175.083C261.519 176.542 259.597 177.206 257.688 177.501C258.013 175.351 258.467 173.523 260.049 171.979Z" fill="#BDD3AF"/>
<path d="M288.956 162.744C290.276 161.467 292.022 160.723 293.857 160.654C293.716 162.549 293.073 164.456 291.78 165.847C290.424 167.307 288.504 167.971 286.594 168.266C286.92 166.116 287.373 164.288 288.956 162.744Z" fill="#A6BD97"/>
<path d="M301.397 163.126C302.348 161.554 303.845 160.389 305.602 159.854C305.95 161.721 305.815 163.729 304.921 165.405C303.983 167.162 302.295 168.294 300.525 169.068C300.291 166.907 300.262 165.023 301.397 163.126Z" fill="#BDD3AF"/>
<path d="M309.644 174.652C310.594 173.08 312.091 171.915 313.848 171.379C314.197 173.247 314.062 175.255 313.168 176.931C312.229 178.688 310.542 179.82 308.771 180.594C308.537 178.432 308.508 176.55 309.644 174.652Z" fill="#A6BD97"/>
<path d="M290.458 178.493C291.408 176.921 292.905 175.755 294.662 175.22C295.01 177.088 294.876 179.095 293.981 180.772C293.043 182.529 291.356 183.661 289.584 184.434C289.351 182.272 289.322 180.39 290.458 178.493Z" fill="#A6BD97"/>
<path d="M272.596 144.58C274.123 143.411 276.028 142.847 277.945 142.996C277.571 144.951 276.673 146.856 275.159 148.148C273.574 149.502 271.496 149.961 269.47 150.038C270.074 147.841 270.764 145.994 272.596 144.58Z" fill="#84A05C"/>
<path d="M270.322 168.584C270.391 166.049 271.395 163.629 273.14 161.788C274.831 163.791 276.038 166.296 276.104 168.919C276.176 171.669 274.922 174.179 273.322 176.315C271.569 173.878 270.251 171.634 270.322 168.584Z" fill="#84A05C"/>
<path d="M73.3721 155.681C72.5604 153.189 70.8576 151.084 68.59 149.771C67.5011 152.255 67.0387 155.088 67.7398 157.708C68.4754 160.454 70.4546 162.574 72.6661 164.223C73.687 161.292 74.3368 158.686 73.3721 155.681Z" fill="#A6BD97"/>
<path d="M73.7582 173.532C72.4381 172.255 70.6929 171.511 68.8575 171.441C68.9978 173.336 69.6404 175.243 70.9337 176.635C72.2894 178.094 74.2101 178.758 76.1204 179.054C75.7934 176.903 75.3415 175.08 73.7582 173.532Z" fill="#BDD3AF"/>
<path d="M61.2112 146.131C59.6832 144.964 57.7782 144.401 55.8611 144.551C56.2361 146.505 57.1343 148.41 58.6471 149.703C60.2337 151.057 62.3114 151.515 64.3362 151.592C63.7345 149.392 63.043 147.546 61.2112 146.131Z" fill="#A6BD97"/>
<path d="M62.5334 168.404C62.4806 166.485 61.7213 164.654 60.4012 163.262C59.1191 164.779 58.2088 166.672 58.1576 168.657C58.1039 170.74 59.0526 172.636 60.2634 174.252C61.5895 172.408 62.5871 170.713 62.5334 168.404Z" fill="#84A05C"/>
<path d="M188.226 204.938C266.716 204.938 330.346 200.045 330.346 194.01C330.346 187.975 266.716 183.082 188.226 183.082C109.735 183.082 46.1053 187.975 46.1053 194.01C46.1053 200.045 109.735 204.938 188.226 204.938Z" fill="#DCEEF3"/>
<path d="M90.7567 188.047V188.064H90.8368C90.8106 188.056 90.7838 188.05 90.7567 188.047Z" fill="#84A05C"/>
<path d="M90.7537 188.302L90.8338 188.061L90.9059 187.853L90.962 187.693C90.9437 187.687 90.9249 187.682 90.9059 187.678C90.8561 187.668 90.8059 187.66 90.7553 187.654V188.044V188.061L90.7537 188.302Z" fill="#84A05C"/>
<path d="M214.554 113.581C214.272 113.345 213.992 113.112 213.713 112.882C213.991 113.113 214.272 113.345 214.554 113.581Z" fill="white"/>
<path d="M210.389 110.199C210.058 109.94 209.733 109.687 209.415 109.444C209.733 109.688 210.058 109.94 210.389 110.199Z" fill="white"/>
<path d="M209.416 109.444C209.083 109.19 208.758 108.945 208.442 108.709C208.759 108.946 209.083 109.191 209.416 109.444Z" fill="white"/>
<path d="M208.167 108.506C207.9 108.308 207.638 108.118 207.382 107.938C207.637 108.12 207.899 108.309 208.167 108.506Z" fill="white"/>
<path d="M207.193 107.803C206.753 107.491 206.336 107.207 205.942 106.95C206.336 107.207 206.753 107.491 207.193 107.803Z" fill="white"/>
<path d="M205.942 106.95C205.83 106.876 205.719 106.804 205.611 106.737C205.719 106.806 205.83 106.877 205.942 106.95Z" fill="white"/>
<path d="M110.481 123.567C110.534 123.418 110.588 123.272 110.641 123.126C110.588 123.272 110.534 123.418 110.481 123.567Z" fill="white"/>
<path d="M110.643 123.126L110.742 122.866L110.643 123.126Z" fill="white"/>
<path d="M110.742 122.867L110.81 122.69L110.742 122.867Z" fill="white"/>
<path d="M112.212 119.52C111.726 120.501 111.247 121.567 110.81 122.69C112.923 117.271 116.03 113.212 116.03 113.212C116.091 113.132 116.15 113.052 116.211 112.972C116.15 113.052 116.089 113.132 116.029 113.212C116.025 113.212 114.076 115.764 112.212 119.52Z" fill="white"/>
<path d="M136.279 102.323C136.258 102.323 136.199 102.318 136.106 102.315L136.266 102.325L136.279 102.323Z" fill="white"/>
<path d="M134.829 102.324C135.44 102.292 135.879 102.301 136.107 102.311C135.886 102.303 135.446 102.294 134.829 102.324Z" fill="white"/>
<path d="M134.818 102.323L134.657 102.332L134.818 102.323Z" fill="white"/>
<path d="M109.542 126.688C109.358 127.448 109.208 128.221 109.099 129C109.209 128.221 109.359 127.448 109.542 126.688Z" fill="white"/>
<path d="M109.067 129.246C109.077 129.166 109.088 129.08 109.1 128.997C109.088 129.077 109.078 129.15 109.067 129.226C109.067 129.233 109.067 129.24 109.067 129.246Z" fill="white"/>
<g opacity="0.33">
<path opacity="0.54" d="M122.377 115.661L128.991 125.526C129.319 124.632 129.625 123.649 129.906 122.652C130.132 121.842 130.342 121.022 130.531 120.233C130.783 119.192 130.999 118.198 131.173 117.355C129.614 114.035 127.256 109.885 125.861 109.162C125.587 109.604 125.31 110.065 125.029 110.545C124.608 111.266 124.182 112.036 123.76 112.845C123.295 113.731 122.835 114.666 122.381 115.649C122.379 115.653 122.378 115.657 122.377 115.661Z" fill="white"/>
</g>
<g opacity="0.33">
<path opacity="0.54" d="M113.335 122.074L116.208 126.358C116.882 126.523 117.419 126.598 117.57 126.471C117.75 126.316 118.333 124.562 119.16 122.181C119.305 121.757 119.46 121.314 119.623 120.857C119.649 120.777 119.677 120.702 119.703 120.624C118.894 118.759 117.983 116.94 116.974 115.176L116.968 115.184C116.21 116.215 115.527 117.3 114.926 118.431C114.64 118.967 114.367 119.528 114.108 120.113C113.832 120.739 113.572 121.395 113.335 122.074Z" fill="white"/>
</g>
<path d="M335.031 180.086C335.063 180.086 335.094 180.073 335.116 180.051C335.139 180.028 335.152 179.998 335.152 179.966C335.152 179.934 335.139 179.903 335.116 179.881C335.094 179.858 335.063 179.846 335.031 179.846C334.999 179.846 334.969 179.858 334.946 179.881C334.924 179.903 334.911 179.934 334.911 179.966C334.911 179.998 334.924 180.028 334.946 180.051C334.969 180.073 334.999 180.086 335.031 180.086Z" fill="#45ABC7"/>
<path d="M276.683 121.231H139.978V174.347H276.683V121.231Z" fill="#E83535"/>
<path opacity="0.1" d="M139.978 147.789V121.231H276.681L139.978 147.789Z" fill="#45ABC7"/>
<path d="M139.978 117.488H125.718V187.001H139.978V117.488Z" fill="#FFA0A0"/>
<path d="M138.73 116.598H126.966V189.319H138.73V116.598Z" fill="#E83535"/>
<path opacity="0.05" d="M126.966 161.585V116.598H138.73L126.966 161.585Z" fill="#1A1A1A"/>
<path d="M134.63 110.894H131.066V116.597H134.63V110.894Z" fill="#BB1010"/>
<path d="M278.703 171.436H277.562V134.658H278.703C278.907 134.658 279.104 134.577 279.248 134.432C279.393 134.287 279.474 134.091 279.474 133.886C279.474 133.682 279.393 133.485 279.248 133.341C279.104 133.196 278.907 133.115 278.703 133.115H277.562V110.894H275.067V133.115H273.954C273.853 133.115 273.753 133.135 273.659 133.173C273.565 133.212 273.48 133.269 273.409 133.341C273.337 133.412 273.28 133.497 273.241 133.591C273.203 133.685 273.183 133.785 273.183 133.886C273.183 133.988 273.203 134.088 273.241 134.182C273.28 134.275 273.337 134.36 273.409 134.432C273.48 134.504 273.565 134.561 273.659 134.599C273.753 134.638 273.853 134.658 273.954 134.658H275.067V171.436H273.954C273.75 171.436 273.553 171.517 273.409 171.662C273.264 171.807 273.183 172.003 273.183 172.208C273.183 172.412 273.264 172.609 273.409 172.753C273.553 172.898 273.75 172.98 273.954 172.98H275.067V189.319H277.562V172.98H278.703C278.907 172.98 279.104 172.898 279.248 172.753C279.393 172.609 279.474 172.412 279.474 172.208C279.474 172.003 279.393 171.807 279.248 171.662C279.104 171.517 278.907 171.436 278.703 171.436Z" fill="#760C0C"/>
<path d="M279.059 171.436H277.919V134.658H279.059C279.264 134.658 279.46 134.577 279.605 134.432C279.75 134.287 279.831 134.091 279.831 133.886C279.831 133.682 279.75 133.485 279.605 133.341C279.46 133.196 279.264 133.115 279.059 133.115H277.919V110.894H275.423V133.115H274.309C274.208 133.115 274.108 133.135 274.014 133.173C273.92 133.212 273.835 133.269 273.764 133.341C273.692 133.412 273.635 133.497 273.596 133.591C273.558 133.685 273.538 133.785 273.538 133.886C273.538 133.988 273.558 134.088 273.596 134.182C273.635 134.275 273.692 134.36 273.764 134.432C273.835 134.504 273.92 134.561 274.014 134.599C274.108 134.638 274.208 134.658 274.309 134.658H275.423V171.436H274.309C274.105 171.436 273.908 171.517 273.764 171.662C273.619 171.807 273.538 172.003 273.538 172.208C273.538 172.412 273.619 172.609 273.764 172.753C273.908 172.898 274.105 172.98 274.309 172.98H275.423V189.319H277.919V172.98H279.059C279.264 172.98 279.46 172.898 279.605 172.753C279.75 172.609 279.831 172.412 279.831 172.208C279.831 172.003 279.75 171.807 279.605 171.662C279.46 171.517 279.264 171.436 279.059 171.436Z" fill="#9C1A1A"/>
<path d="M157.152 188.695V175.498H154.333V188.695H152.461V189.319H154.333H157.152H158.967V188.695H157.152Z" fill="#9C1A1A"/>
<path d="M261.993 188.695V175.498H259.173V188.695H257.301V189.319H259.173H261.993H263.807V188.695H261.993Z" fill="#9C1A1A"/>
<path d="M208.675 188.695V175.498H205.857V188.695H203.985V189.319H205.857H208.675H210.491V188.695H208.675Z" fill="#9C1A1A"/>
<path d="M185.214 188.695V172.98H186.357C186.562 172.98 186.758 172.898 186.903 172.753C187.047 172.609 187.129 172.412 187.129 172.208C187.129 172.003 187.047 171.807 186.903 171.662C186.758 171.517 186.562 171.436 186.357 171.436H185.214V134.658H186.357C186.562 134.658 186.758 134.577 186.903 134.432C187.047 134.287 187.129 134.091 187.129 133.886C187.129 133.682 187.047 133.485 186.903 133.341C186.758 133.196 186.562 133.115 186.357 133.115H185.214V110.894H182.719V133.115H181.603C181.502 133.115 181.402 133.135 181.308 133.173C181.214 133.212 181.129 133.269 181.058 133.341C180.986 133.412 180.929 133.497 180.89 133.591C180.851 133.685 180.831 133.785 180.831 133.886C180.831 133.988 180.851 134.088 180.89 134.182C180.929 134.275 180.986 134.36 181.058 134.432C181.129 134.504 181.214 134.561 181.308 134.599C181.402 134.638 181.502 134.658 181.603 134.658H182.715V171.436H181.603C181.399 171.436 181.202 171.517 181.058 171.662C180.913 171.807 180.831 172.003 180.831 172.208C180.831 172.412 180.913 172.609 181.058 172.753C181.202 172.898 181.399 172.98 181.603 172.98H182.715V188.695H180.726V189.319H187.232V188.695H185.214Z" fill="#760C0C"/>
<path d="M185.751 188.695V172.98H186.891C187.096 172.98 187.292 172.898 187.437 172.753C187.582 172.609 187.663 172.412 187.663 172.208C187.663 172.003 187.582 171.807 187.437 171.662C187.292 171.517 187.096 171.436 186.891 171.436H185.751V134.658H186.891C187.096 134.658 187.292 134.577 187.437 134.432C187.582 134.287 187.663 134.091 187.663 133.886C187.663 133.682 187.582 133.485 187.437 133.341C187.292 133.196 187.096 133.115 186.891 133.115H185.751V110.894H183.255V133.115H182.138C182.036 133.115 181.936 133.135 181.842 133.173C181.749 133.212 181.664 133.269 181.592 133.341C181.52 133.412 181.464 133.497 181.425 133.591C181.386 133.685 181.366 133.785 181.366 133.886C181.366 133.988 181.386 134.088 181.425 134.182C181.464 134.275 181.52 134.36 181.592 134.432C181.664 134.504 181.749 134.561 181.842 134.599C181.936 134.638 182.036 134.658 182.138 134.658H183.252V171.436H182.138C181.933 171.436 181.737 171.517 181.592 171.662C181.447 171.807 181.366 172.003 181.366 172.208C181.366 172.412 181.447 172.609 181.592 172.753C181.737 172.898 181.933 172.98 182.138 172.98H183.252V188.695H181.261V189.319H187.767V188.695H185.751Z" fill="#9C1A1A"/>
<path d="M227.885 188.695V172.98H229.026C229.231 172.98 229.427 172.898 229.572 172.753C229.716 172.609 229.798 172.412 229.798 172.208C229.798 172.003 229.716 171.807 229.572 171.662C229.427 171.517 229.231 171.436 229.026 171.436H227.885V134.658H229.026C229.231 134.658 229.427 134.577 229.572 134.432C229.716 134.287 229.798 134.091 229.798 133.886C229.798 133.682 229.716 133.485 229.572 133.341C229.427 133.196 229.231 133.115 229.026 133.115H227.885V110.894H225.39V133.115H224.276C224.071 133.115 223.875 133.196 223.73 133.341C223.585 133.485 223.504 133.682 223.504 133.886C223.504 134.091 223.585 134.287 223.73 134.432C223.875 134.577 224.071 134.658 224.276 134.658H225.39V171.436H224.276C224.071 171.436 223.875 171.517 223.73 171.662C223.585 171.807 223.504 172.003 223.504 172.208C223.504 172.412 223.585 172.609 223.73 172.753C223.875 172.898 224.071 172.98 224.276 172.98H225.39V188.695H223.401V189.319H229.906V188.695H227.885Z" fill="#760C0C"/>
<path d="M228.42 188.695V172.98H229.561C229.765 172.98 229.962 172.898 230.106 172.753C230.251 172.609 230.332 172.412 230.332 172.208C230.332 172.003 230.251 171.807 230.106 171.662C229.962 171.517 229.765 171.436 229.561 171.436H228.42V134.658H229.561C229.765 134.658 229.962 134.577 230.106 134.432C230.251 134.287 230.332 134.091 230.332 133.886C230.332 133.682 230.251 133.485 230.106 133.341C229.962 133.196 229.765 133.115 229.561 133.115H228.42V110.894H225.924V133.115H224.812C224.711 133.115 224.611 133.135 224.517 133.173C224.423 133.212 224.338 133.269 224.267 133.341C224.195 133.412 224.138 133.497 224.099 133.591C224.06 133.685 224.04 133.785 224.04 133.886C224.04 133.988 224.06 134.088 224.099 134.182C224.138 134.275 224.195 134.36 224.267 134.432C224.338 134.504 224.423 134.561 224.517 134.599C224.611 134.638 224.711 134.658 224.812 134.658H225.924V171.436H224.812C224.608 171.436 224.411 171.517 224.267 171.662C224.122 171.807 224.04 172.003 224.04 172.208C224.04 172.412 224.122 172.609 224.267 172.753C224.411 172.898 224.608 172.98 224.812 172.98H225.924V188.695H223.935V189.319H230.441V188.695H228.42Z" fill="#9C1A1A"/>
<path d="M265.764 171.77H150.894V175.498H265.764V171.77Z" fill="#9C1A1A"/>
<path d="M269.832 128.183H235.253V165.078H269.832V128.183Z" fill="#88CADB"/>
<path d="M268.162 129.965H236.924V163.296H268.162V129.965Z" fill="#F6F6F6"/>
<path d="M250.708 131.286V131.507C250.708 131.806 250.603 131.994 250.37 132.068C250.619 132.141 250.712 132.345 250.712 132.635V133.059C250.703 133.172 250.722 133.284 250.767 133.387H250.459C250.417 133.282 250.4 133.169 250.409 133.056V132.628C250.409 132.322 250.264 132.223 250.011 132.223H249.797V133.387H249.494V130.662H250.1C250.53 130.662 250.708 130.881 250.708 131.286ZM250.403 131.569V131.309C250.403 131.063 250.314 130.935 250.088 130.935H249.792V131.944H250.018C250.264 131.947 250.403 131.869 250.403 131.569Z" fill="#CC0000"/>
<path d="M251.628 130.635C252.049 130.635 252.254 130.904 252.254 131.319V132.729C252.254 133.141 252.049 133.414 251.628 133.414C251.208 133.414 251.004 133.141 251.004 132.729V131.319C251.004 130.904 251.211 130.635 251.628 130.635ZM251.628 133.13C251.849 133.13 251.951 132.986 251.951 132.738V131.298C251.951 131.052 251.849 130.904 251.628 130.904C251.407 130.904 251.304 131.052 251.304 131.298V132.738C251.304 132.995 251.409 133.137 251.628 133.137V133.13Z" fill="#CC0000"/>
<path d="M253.15 133.138C253.367 133.138 253.465 132.99 253.465 132.746V130.662H253.749V132.73C253.749 133.141 253.558 133.418 253.138 133.418C252.717 133.418 252.531 133.141 252.531 132.73V130.662H252.831V132.746C252.831 132.995 252.927 133.138 253.15 133.138Z" fill="#CC0000"/>
<path d="M254.443 130.938H253.94V130.662H255.245V130.938H254.742V133.387H254.443V130.938Z" fill="#CC0000"/>
<path d="M256.419 132.141H255.751V133.111H256.569V133.387H255.448V130.662H256.569V130.938H255.751V131.869H256.416L256.419 132.141Z" fill="#CC0000"/>
<path d="M248.413 131.747H238.907V131.984H248.413V131.747Z" fill="#CC0000"/>
<path d="M267.128 131.747H257.622V131.984H267.128V131.747Z" fill="#CC0000"/>
<path d="M267.454 136.619H259.018V157.83H267.454V136.619Z" fill="#98DDEF"/>
<path d="M253.108 153.582H246.435L243.244 148.723V145.076H240.898V144.898H243.422V148.669L246.531 153.403H252.93V146.817H246.896L243.613 141.818H240.364V141.64H243.709L246.991 146.639H253.108V153.582Z" fill="#61CDB3"/>
<path d="M256.405 158.751H249.008V149.227H245.532V140.205H248.532V136.145H248.71V140.383H245.71V149.049H249.186V158.572H256.405V158.751Z" fill="#DEA689"/>
<path d="M251.71 144.432C251.434 144.432 251.164 144.351 250.934 144.197C250.704 144.043 250.525 143.825 250.419 143.57C250.314 143.315 250.286 143.034 250.34 142.762C250.394 142.491 250.527 142.242 250.722 142.047C250.918 141.852 251.167 141.718 251.438 141.665C251.709 141.611 251.99 141.638 252.245 141.744C252.5 141.85 252.719 142.029 252.872 142.259C253.026 142.489 253.108 142.759 253.108 143.035C253.108 143.406 252.961 143.761 252.698 144.023C252.436 144.285 252.081 144.432 251.71 144.432ZM251.71 141.818C251.469 141.818 251.233 141.889 251.033 142.023C250.832 142.157 250.676 142.348 250.584 142.571C250.492 142.794 250.468 143.039 250.515 143.275C250.562 143.512 250.678 143.729 250.849 143.9C251.02 144.07 251.237 144.186 251.474 144.233C251.71 144.28 251.955 144.255 252.178 144.163C252.401 144.07 252.591 143.914 252.725 143.713C252.859 143.512 252.93 143.276 252.93 143.035C252.929 142.712 252.8 142.403 252.571 142.175C252.343 141.947 252.033 141.818 251.71 141.818Z" fill="#808080"/>
<path d="M251.799 138.223H251.621V141.729H251.799V138.223Z" fill="#808080"/>
<path d="M253.849 154.888H243.482V151.546H247.263L251.621 147.188V144.344H251.799V147.262L247.336 151.725H243.661V154.71H253.849V154.888Z" fill="#808080"/>
<path d="M256.405 142.946H253.018V143.125H256.405V142.946Z" fill="#808080"/>
<path d="M250.404 142.946H245.622V143.125H250.404V142.946Z" fill="#808080"/>
<path d="M248.711 138.134H240.364V138.312H248.711V138.134Z" fill="#DEA689"/>
<path d="M246.752 157.325H240.364V157.147H246.629L248.035 153.461L248.201 153.525L246.752 157.325Z" fill="#808080"/>
<path d="M254.106 148.814C254.106 148.904 254.079 148.992 254.029 149.066C253.979 149.141 253.909 149.199 253.825 149.234C253.742 149.268 253.651 149.277 253.563 149.26C253.475 149.242 253.394 149.199 253.33 149.135C253.267 149.072 253.223 148.991 253.206 148.903C253.188 148.814 253.197 148.723 253.232 148.64C253.266 148.557 253.324 148.486 253.399 148.436C253.474 148.386 253.562 148.359 253.652 148.359C253.772 148.359 253.888 148.407 253.973 148.492C254.058 148.578 254.106 148.693 254.106 148.814Z" fill="#E83535"/>
<path d="M253.651 149.067C253.791 149.067 253.904 148.953 253.904 148.814C253.904 148.674 253.791 148.561 253.651 148.561C253.511 148.561 253.398 148.674 253.398 148.814C253.398 148.953 253.511 149.067 253.651 149.067Z" fill="#F6F6F6"/>
<path d="M260.661 139.273C260.661 139.363 260.635 139.451 260.585 139.525C260.535 139.6 260.464 139.658 260.381 139.693C260.298 139.727 260.206 139.736 260.118 139.719C260.03 139.701 259.949 139.658 259.885 139.594C259.822 139.531 259.778 139.45 259.761 139.362C259.743 139.273 259.752 139.182 259.787 139.099C259.821 139.016 259.879 138.945 259.954 138.895C260.029 138.845 260.117 138.818 260.207 138.818C260.327 138.818 260.443 138.866 260.528 138.951C260.613 139.037 260.661 139.152 260.661 139.273Z" fill="#E83535"/>
<path d="M260.46 139.273C260.46 139.323 260.445 139.372 260.417 139.413C260.389 139.455 260.35 139.487 260.304 139.506C260.257 139.526 260.206 139.531 260.157 139.521C260.108 139.511 260.063 139.487 260.028 139.452C259.992 139.416 259.968 139.371 259.958 139.322C259.949 139.273 259.954 139.222 259.973 139.176C259.992 139.13 260.024 139.09 260.066 139.062C260.108 139.034 260.157 139.02 260.207 139.02C260.274 139.02 260.338 139.047 260.385 139.094C260.433 139.142 260.459 139.206 260.46 139.273Z" fill="#F6F6F6"/>
<path d="M260.661 142.03C260.661 142.12 260.635 142.207 260.585 142.282C260.535 142.357 260.464 142.415 260.381 142.45C260.298 142.484 260.206 142.493 260.118 142.475C260.03 142.458 259.949 142.415 259.885 142.351C259.822 142.288 259.778 142.207 259.761 142.118C259.743 142.03 259.752 141.939 259.787 141.856C259.821 141.773 259.879 141.702 259.954 141.652C260.029 141.602 260.117 141.575 260.207 141.575C260.327 141.575 260.443 141.623 260.528 141.708C260.613 141.794 260.661 141.909 260.661 142.03Z" fill="#E83535"/>
<path d="M260.207 142.284C260.347 142.284 260.46 142.17 260.46 142.03C260.46 141.891 260.347 141.777 260.207 141.777C260.067 141.777 259.954 141.891 259.954 142.03C259.954 142.17 260.067 142.284 260.207 142.284Z" fill="#F6F6F6"/>
<path d="M260.661 144.788C260.661 144.877 260.635 144.965 260.585 145.04C260.535 145.115 260.464 145.173 260.381 145.207C260.298 145.242 260.206 145.251 260.118 145.233C260.03 145.216 259.949 145.172 259.885 145.109C259.822 145.045 259.778 144.964 259.761 144.876C259.743 144.788 259.752 144.697 259.787 144.614C259.821 144.531 259.879 144.46 259.954 144.41C260.029 144.36 260.117 144.333 260.207 144.333C260.327 144.333 260.443 144.381 260.528 144.466C260.613 144.551 260.661 144.667 260.661 144.788Z" fill="#E83535"/>
<path d="M260.207 145.04C260.347 145.04 260.46 144.927 260.46 144.787C260.46 144.647 260.347 144.534 260.207 144.534C260.067 144.534 259.954 144.647 259.954 144.787C259.954 144.927 260.067 145.04 260.207 145.04Z" fill="#F6F6F6"/>
<path d="M260.661 147.544C260.661 147.634 260.635 147.722 260.585 147.797C260.535 147.872 260.464 147.93 260.381 147.964C260.298 147.999 260.206 148.008 260.118 147.99C260.03 147.973 259.949 147.929 259.885 147.866C259.822 147.802 259.778 147.721 259.761 147.633C259.743 147.545 259.752 147.453 259.787 147.37C259.821 147.287 259.879 147.216 259.954 147.166C260.029 147.116 260.117 147.09 260.207 147.09C260.327 147.09 260.442 147.138 260.528 147.223C260.613 147.309 260.661 147.424 260.661 147.544Z" fill="#E83535"/>
<path d="M260.46 147.545C260.46 147.595 260.445 147.644 260.417 147.686C260.389 147.727 260.35 147.76 260.304 147.779C260.257 147.798 260.206 147.803 260.157 147.793C260.108 147.784 260.063 147.759 260.028 147.724C259.992 147.689 259.968 147.644 259.958 147.594C259.949 147.545 259.954 147.494 259.973 147.448C259.992 147.402 260.024 147.362 260.066 147.335C260.108 147.307 260.157 147.292 260.207 147.292C260.274 147.292 260.338 147.319 260.385 147.367C260.433 147.414 260.459 147.478 260.46 147.545Z" fill="#F6F6F6"/>
<path d="M260.661 153.061C260.66 153.151 260.633 153.238 260.582 153.312C260.531 153.386 260.46 153.444 260.377 153.477C260.294 153.511 260.203 153.519 260.115 153.501C260.027 153.483 259.946 153.439 259.883 153.376C259.82 153.312 259.778 153.231 259.761 153.143C259.743 153.055 259.753 152.964 259.787 152.881C259.822 152.798 259.88 152.728 259.955 152.678C260.029 152.628 260.117 152.602 260.207 152.602C260.267 152.602 260.326 152.613 260.382 152.637C260.437 152.66 260.488 152.694 260.53 152.737C260.572 152.779 260.606 152.83 260.628 152.886C260.651 152.942 260.662 153.001 260.661 153.061Z" fill="#E83535"/>
<path d="M260.46 153.062C260.46 153.112 260.445 153.161 260.417 153.202C260.389 153.244 260.35 153.276 260.304 153.296C260.257 153.315 260.206 153.32 260.157 153.31C260.108 153.3 260.063 153.276 260.028 153.241C259.992 153.205 259.968 153.16 259.958 153.111C259.949 153.062 259.954 153.011 259.973 152.965C259.992 152.919 260.024 152.879 260.066 152.851C260.108 152.823 260.157 152.809 260.207 152.809C260.274 152.809 260.338 152.836 260.385 152.883C260.433 152.931 260.459 152.995 260.46 153.062Z" fill="#F6F6F6"/>
<path d="M260.661 155.819C260.661 155.909 260.635 155.997 260.585 156.071C260.535 156.146 260.464 156.204 260.381 156.239C260.298 156.273 260.206 156.282 260.118 156.265C260.03 156.247 259.949 156.204 259.885 156.14C259.822 156.077 259.778 155.996 259.761 155.907C259.743 155.819 259.752 155.728 259.787 155.645C259.821 155.562 259.879 155.491 259.954 155.441C260.029 155.391 260.117 155.364 260.207 155.364C260.327 155.364 260.443 155.412 260.528 155.497C260.613 155.583 260.661 155.698 260.661 155.819Z" fill="#E83535"/>
<path d="M260.207 156.072C260.347 156.072 260.46 155.958 260.46 155.819C260.46 155.679 260.347 155.565 260.207 155.565C260.067 155.565 259.954 155.679 259.954 155.819C259.954 155.958 260.067 156.072 260.207 156.072Z" fill="#F6F6F6"/>
<path d="M260.661 150.304C260.661 150.394 260.635 150.482 260.585 150.557C260.535 150.631 260.464 150.69 260.381 150.724C260.298 150.758 260.206 150.767 260.118 150.75C260.03 150.732 259.949 150.689 259.885 150.626C259.822 150.562 259.778 150.481 259.761 150.393C259.743 150.305 259.752 150.213 259.787 150.13C259.821 150.047 259.879 149.976 259.954 149.926C260.029 149.876 260.117 149.85 260.207 149.85C260.327 149.85 260.443 149.897 260.528 149.983C260.613 150.068 260.661 150.184 260.661 150.304Z" fill="#E83535"/>
<path d="M260.207 150.557C260.347 150.557 260.46 150.444 260.46 150.304C260.46 150.164 260.347 150.051 260.207 150.051C260.067 150.051 259.954 150.164 259.954 150.304C259.954 150.444 260.067 150.557 260.207 150.557Z" fill="#F6F6F6"/>
<path d="M248.012 143.868C248.012 143.957 247.985 144.045 247.935 144.12C247.886 144.195 247.815 144.253 247.731 144.288C247.648 144.322 247.557 144.331 247.469 144.313C247.381 144.296 247.3 144.253 247.236 144.189C247.173 144.125 247.129 144.044 247.112 143.956C247.094 143.868 247.103 143.777 247.138 143.694C247.172 143.611 247.23 143.54 247.305 143.49C247.38 143.44 247.468 143.413 247.558 143.413C247.678 143.413 247.794 143.461 247.879 143.546C247.964 143.631 248.012 143.747 248.012 143.868Z" fill="#E83535"/>
<path d="M247.557 144.12C247.697 144.12 247.81 144.007 247.81 143.867C247.81 143.728 247.697 143.614 247.557 143.614C247.418 143.614 247.304 143.728 247.304 143.867C247.304 144.007 247.418 144.12 247.557 144.12Z" fill="#F6F6F6"/>
<path d="M242.451 137.59C242.451 137.68 242.424 137.768 242.374 137.843C242.324 137.918 242.253 137.976 242.17 138.01C242.087 138.045 241.996 138.054 241.908 138.036C241.82 138.018 241.739 137.975 241.675 137.912C241.612 137.848 241.568 137.767 241.551 137.679C241.533 137.591 241.542 137.499 241.577 137.416C241.611 137.333 241.669 137.262 241.744 137.212C241.819 137.162 241.907 137.136 241.996 137.136C242.117 137.136 242.233 137.184 242.318 137.269C242.403 137.354 242.451 137.47 242.451 137.59Z" fill="#E83535"/>
<path d="M242.249 137.59C242.249 137.64 242.235 137.689 242.207 137.731C242.179 137.772 242.139 137.805 242.093 137.824C242.047 137.843 241.996 137.848 241.947 137.838C241.898 137.828 241.853 137.804 241.817 137.769C241.782 137.734 241.758 137.688 241.748 137.639C241.738 137.59 241.743 137.539 241.762 137.493C241.782 137.447 241.814 137.407 241.856 137.38C241.897 137.352 241.946 137.337 241.996 137.337C242.063 137.337 242.128 137.364 242.175 137.411C242.223 137.459 242.249 137.523 242.249 137.59Z" fill="#F2F2F2"/>
<path d="M243.359 153.3C243.359 153.39 243.333 153.478 243.283 153.553C243.233 153.627 243.162 153.686 243.079 153.72C242.996 153.755 242.904 153.764 242.816 153.746C242.728 153.728 242.647 153.685 242.584 153.622C242.52 153.558 242.477 153.477 242.459 153.389C242.442 153.301 242.451 153.209 242.485 153.126C242.519 153.043 242.578 152.972 242.652 152.922C242.727 152.872 242.815 152.846 242.905 152.846C243.026 152.846 243.141 152.894 243.226 152.979C243.312 153.064 243.359 153.18 243.359 153.3Z" fill="#E83535"/>
<path d="M242.905 153.553C243.045 153.553 243.158 153.44 243.158 153.3C243.158 153.16 243.045 153.047 242.905 153.047C242.765 153.047 242.652 153.16 242.652 153.3C242.652 153.44 242.765 153.553 242.905 153.553Z" fill="#F6F6F6"/>
<path d="M242.905 145.695C242.905 145.785 242.879 145.873 242.829 145.947C242.779 146.022 242.708 146.08 242.625 146.115C242.542 146.149 242.45 146.158 242.362 146.141C242.274 146.123 242.193 146.08 242.129 146.016C242.066 145.953 242.023 145.872 242.005 145.783C241.988 145.695 241.997 145.604 242.031 145.521C242.065 145.438 242.124 145.367 242.198 145.317C242.273 145.267 242.361 145.24 242.451 145.24C242.571 145.24 242.687 145.288 242.772 145.373C242.857 145.459 242.905 145.574 242.905 145.695Z" fill="#E83535"/>
<path d="M242.451 145.948C242.591 145.948 242.704 145.834 242.704 145.695C242.704 145.555 242.591 145.441 242.451 145.441C242.311 145.441 242.198 145.555 242.198 145.695C242.198 145.834 242.311 145.948 242.451 145.948Z" fill="#F6F6F6"/>
<path d="M253.852 157.949C253.852 158.039 253.826 158.126 253.776 158.201C253.726 158.276 253.655 158.334 253.572 158.369C253.489 158.403 253.397 158.412 253.309 158.394C253.221 158.377 253.14 158.334 253.076 158.27C253.013 158.206 252.97 158.125 252.952 158.037C252.935 157.949 252.944 157.858 252.978 157.775C253.012 157.692 253.071 157.621 253.145 157.571C253.22 157.521 253.308 157.494 253.398 157.494C253.518 157.494 253.634 157.542 253.719 157.627C253.805 157.713 253.852 157.828 253.852 157.949Z" fill="#E83535"/>
<path d="M253.398 158.197C253.538 158.197 253.651 158.083 253.651 157.944C253.651 157.804 253.538 157.69 253.398 157.69C253.258 157.69 253.145 157.804 253.145 157.944C253.145 158.083 253.258 158.197 253.398 158.197Z" fill="#F6F6F6"/>
<path d="M248.468 149.848C248.468 149.938 248.442 150.027 248.392 150.102C248.342 150.177 248.271 150.236 248.187 150.271C248.104 150.306 248.012 150.315 247.924 150.298C247.835 150.28 247.753 150.237 247.689 150.173C247.625 150.109 247.582 150.028 247.564 149.94C247.546 149.851 247.555 149.759 247.59 149.676C247.624 149.592 247.683 149.521 247.758 149.471C247.833 149.42 247.921 149.394 248.011 149.394C248.132 149.394 248.248 149.441 248.333 149.527C248.419 149.612 248.467 149.727 248.468 149.848Z" fill="#E83535"/>
<path d="M248.012 150.101C248.152 150.101 248.265 149.988 248.265 149.848C248.265 149.708 248.152 149.595 248.012 149.595C247.872 149.595 247.759 149.708 247.759 149.848C247.759 149.988 247.872 150.101 248.012 150.101Z" fill="#F6F6F6"/>
<path d="M266.328 139.02H261.218V139.526H266.328V139.02Z" fill="#F6F6F6"/>
<path d="M266.328 141.777H261.218V142.284H266.328V141.777Z" fill="#F6F6F6"/>
<path d="M266.328 144.534H261.218V145.04H266.328V144.534Z" fill="#F6F6F6"/>
<path d="M266.328 147.292H261.218V147.798H266.328V147.292Z" fill="#F6F6F6"/>
<path d="M266.328 150.051H261.218V150.557H266.328V150.051Z" fill="#F6F6F6"/>
<path d="M266.328 152.809H261.218V153.315H266.328V152.809Z" fill="#F6F6F6"/>
<path d="M266.328 155.565H261.218V156.072H266.328V155.565Z" fill="#F6F6F6"/>
<path opacity="0.1" d="M235.253 140.392V128.183H269.832L235.253 140.392Z" fill="#1A1A1A"/>
<path d="M294.785 110.893C293.433 105.495 290.317 100.704 285.93 97.2807C281.543 93.8575 276.137 91.9988 270.573 92H131.546C125.983 91.9999 120.579 93.8592 116.193 97.2824C111.807 100.706 108.691 105.496 107.34 110.893H294.785Z" fill="#FFBDBD"/>
<path d="M152.907 92H147.025C141.462 92.0017 136.058 93.8616 131.672 97.2845C127.287 100.707 124.17 105.497 122.817 110.893H128.698C130.052 105.497 133.168 100.707 137.554 97.2845C141.94 93.8616 147.343 92.0017 152.907 92Z" fill="#CC0000"/>
<path d="M177.682 92H171.8C166.236 91.9992 160.831 93.8581 156.444 97.2813C152.058 100.705 148.941 105.496 147.59 110.893H153.472C154.823 105.496 157.94 100.705 162.326 97.2813C166.713 93.8581 172.118 91.9992 177.682 92Z" fill="#CC0000"/>
<path d="M194.513 92H190.515C182.553 92 175.869 100.04 174.025 110.893H179.684C181.519 100.04 186.549 92 194.513 92Z" fill="#CC0000"/>
<path d="M258.487 92H264.368C269.933 91.9992 275.338 93.8581 279.724 97.2813C284.111 100.705 287.227 105.496 288.579 110.893H282.697C281.345 105.496 278.229 100.705 273.842 97.2813C269.456 93.8581 264.051 91.9992 258.487 92Z" fill="#CC0000"/>
<path d="M233.715 92H239.597C245.161 91.9992 250.566 93.8581 254.952 97.2813C259.339 100.705 262.456 105.496 263.807 110.893H257.925C256.574 105.496 253.457 100.705 249.071 97.2813C244.684 93.8581 239.279 91.9992 233.715 92Z" fill="#CC0000"/>
<path d="M216.884 92H220.891C228.853 92 235.537 100.04 237.382 110.893H231.632C229.789 100.04 224.848 92 216.884 92Z" fill="#CC0000"/>
<path d="M203.122 92C202.183 94.8625 201.085 100.514 201.457 110.893H207.161C207.535 100.514 206.437 94.8625 205.498 92H203.122Z" fill="#CC0000"/>
<path opacity="0.08" d="M210.635 92H131.55C125.986 91.9992 120.581 93.8581 116.194 97.2813C111.808 100.705 108.691 105.496 107.34 110.893H146.989C155.821 106.334 177.293 96.8374 210.635 92Z" fill="#1A1A1A"/>
<path d="M92.0479 133.853H90.5917V189.319H92.0479V133.853Z" fill="#26282B"/>
<path d="M91.3184 140.125C97.5693 140.125 102.637 135.057 102.637 128.806C102.637 122.556 97.5693 117.488 91.3184 117.488C85.0676 117.488 80.0002 122.556 80.0002 128.806C80.0002 135.057 85.0676 140.125 91.3184 140.125Z" fill="#CC0000"/>
<path d="M91.3186 138.342C96.5851 138.342 100.854 134.073 100.854 128.806C100.854 123.54 96.5851 119.271 91.3186 119.271C86.0522 119.271 81.7828 123.54 81.7828 128.806C81.7828 134.073 86.0522 138.342 91.3186 138.342Z" fill="white"/>
<path d="M82.0947 129.341C82.0951 127.27 82.7697 125.255 84.0166 123.601C85.2635 121.948 87.0149 120.745 89.006 120.175C90.9971 119.605 93.1197 119.699 95.0528 120.442C96.9859 121.185 98.6244 122.538 99.7207 124.295C99.1161 123.169 98.2911 122.175 97.2949 121.374C96.2988 120.573 95.1517 119.981 93.9218 119.632C92.692 119.283 91.4046 119.185 90.1362 119.343C88.8677 119.502 87.6441 119.914 86.538 120.555C85.4319 121.196 84.4661 122.052 83.6977 123.074C82.9294 124.096 82.3744 125.262 82.0657 126.502C81.7569 127.743 81.7007 129.033 81.9004 130.295C82.1002 131.558 82.5517 132.767 83.2283 133.852C82.4817 132.466 82.0921 130.915 82.0947 129.341Z" fill="#9C1A1A"/>
<path d="M96.4251 126.269H98.4339L98.3608 125.659H83.5153V131.612H84.6988C84.6988 131.265 84.8366 130.933 85.082 130.687C85.3273 130.442 85.6601 130.304 86.007 130.304C86.354 130.304 86.6868 130.442 86.9321 130.687C87.1775 130.933 87.3153 131.265 87.3153 131.612H95.4198C95.4323 131.274 95.5757 130.953 95.8199 130.717C96.064 130.482 96.3899 130.351 96.729 130.351C97.0681 130.351 97.394 130.482 97.6381 130.717C97.8823 130.953 98.0257 131.274 98.0382 131.612H99.0791L98.621 127.811H96.4251V126.269ZM86.2459 127.811H84.7041V126.269H86.2459V127.811ZM88.0924 127.811H86.5507V126.269H88.0924V127.811ZM89.939 127.811H88.3847V126.269H89.9265L89.939 127.811ZM91.7856 127.811H90.2384V126.269H91.7802L91.7856 127.811ZM93.6339 127.811H92.0903V126.269H93.6339V127.811ZM95.4804 127.811H93.9387V126.269H95.4804V127.811Z" fill="#CC0000"/>
<path d="M86.0073 130.553C85.727 130.553 85.4581 130.664 85.2599 130.862C85.0617 131.061 84.9503 131.329 84.9503 131.61C84.9615 131.883 85.0779 132.141 85.275 132.33C85.4722 132.519 85.7349 132.625 86.0082 132.625C86.2814 132.625 86.5441 132.519 86.7413 132.33C86.9384 132.141 87.0548 131.883 87.066 131.61C87.0655 131.329 86.9538 131.06 86.7553 130.862C86.5568 130.664 86.2878 130.553 86.0073 130.553Z" fill="#26282B"/>
<path d="M96.73 130.553C96.4495 130.553 96.1805 130.664 95.982 130.862C95.7835 131.06 95.6717 131.329 95.6713 131.61C95.6825 131.883 95.7988 132.141 95.996 132.33C96.1931 132.519 96.4558 132.625 96.7291 132.625C97.0024 132.625 97.2651 132.519 97.4622 132.33C97.6594 132.141 97.7757 131.883 97.787 131.61C97.787 131.329 97.6756 131.061 97.4774 130.862C97.2792 130.664 97.0103 130.553 96.73 130.553Z" fill="#26282B"/>
<path opacity="0.05" d="M85.7203 138.642L97.8067 119.535C96.5527 118.659 95.1341 118.046 93.6366 117.734C92.139 117.421 90.5937 117.416 89.094 117.717C87.5942 118.019 86.1712 118.621 84.9109 119.488C83.6506 120.356 82.5792 121.469 81.7614 122.762C80.9436 124.055 80.3964 125.5 80.1529 127.01C79.9094 128.521 79.9747 130.064 80.3447 131.549C80.7148 133.033 81.3819 134.427 82.3058 135.646C83.2298 136.866 84.3913 137.885 85.7203 138.642Z" fill="#45ABC7"/>
</svg>
