<svg width="375" height="250" viewBox="0 0 375 250" fill="none" xmlns="http://www.w3.org/2000/svg">
<path d="M375 0H0V250H375V0Z" fill="white"/>
<path d="M339.116 137.985C331.25 158.173 315.201 174.26 297.027 185.232C294.624 186.683 292.207 188.037 289.779 189.292C269.089 200.007 247.447 207.112 225.234 211.383C210.1 214.292 194.705 215.886 179.16 216.408C167.291 216.808 155.338 216.582 143.355 215.841L141.936 215.75L141.626 215.729C137.609 215.464 133.577 215.127 129.549 214.687C114.362 213.046 99.2285 210.006 85.1452 204.123C84.2728 203.759 83.4048 203.384 82.541 202.997C82.3898 202.929 82.2392 202.862 82.0891 202.793L81.8383 202.679C81.5712 202.559 81.3076 202.437 81.0474 202.314C76.4364 200.153 72.0183 197.602 67.8415 194.689C67.24 194.27 66.6433 193.843 66.0514 193.407C63.5011 191.536 61.0504 189.533 58.7093 187.405C51.8262 181.155 45.9176 173.864 41.3342 165.851C39.7269 163.045 38.2848 160.147 37.0153 157.173C34.671 151.697 32.9617 145.971 31.9208 140.106C30.9473 134.592 30.6059 128.986 30.9032 123.395C31.0705 120.269 31.4291 117.155 31.9769 114.073C33.9064 103.224 38.2229 92.7989 45.1019 84.2268C55.0338 71.851 69.9641 64.1546 85.9112 64.6851L86.7125 64.7179C100.094 65.3229 112.892 69.7893 126.172 71.1458C144.824 73.0513 163.212 65.9167 180.259 59.25C197.466 52.5192 214.329 44.8493 231.978 39.2981C247.937 34.2949 264.132 29.7676 280.97 32.5609C287.71 33.6841 294.259 35.7514 300.423 38.7019C302.309 39.6036 304.155 40.5852 305.96 41.6466C314.749 46.8165 322.501 53.6851 328.589 61.871C330.399 64.3077 332.059 66.8516 333.561 69.4888C345.181 89.8814 347.677 116.026 339.116 137.985Z" fill="#DCEEF3"/>
<path opacity="0.44" d="M339.116 137.985C331.25 158.173 315.2 174.26 297.027 185.232C294.623 186.684 292.207 188.037 289.779 189.292C269.089 200.007 247.446 207.112 225.234 211.383C210.1 214.293 194.705 215.886 179.16 216.408C167.291 216.809 155.338 216.582 143.355 215.841L141.936 215.75L141.626 215.729C137.609 215.464 133.577 215.127 129.549 214.688C114.362 213.047 99.2283 210.006 85.145 204.123C84.2727 203.759 83.4046 203.384 82.5408 202.997C82.3896 202.93 82.239 202.862 82.0889 202.793L81.8381 202.68C81.571 202.559 81.3074 202.438 81.0472 202.314C76.4362 200.153 72.0182 197.602 67.8413 194.689C124.456 185.126 179.206 164.468 227.897 134.025C247.063 122.041 265.642 108.235 278.661 89.7565C289.445 74.452 295.835 56.7356 300.424 38.6956C302.31 39.5973 304.156 40.5788 305.961 41.6403C314.75 46.8102 322.502 53.6787 328.59 61.8646C330.4 64.3014 332.06 66.8453 333.562 69.4824C345.181 89.8815 347.676 116.026 339.116 137.985Z" fill="#DCEEF3"/>
<path d="M115.64 53.8694C120.012 53.8902 124.229 53.4952 125.246 53.4439C137.964 52.8004 150.547 50.5325 162.689 46.6955C168.603 44.8253 175.632 42.7692 180.362 38.6066C180.702 38.3077 181.046 37.9487 181.083 37.4976C181.135 36.8646 180.522 36.3325 179.894 36.2412C179.266 36.1499 178.639 36.379 178.051 36.6114C171.28 39.2741 165.254 42.0297 158.188 43.6963C150.951 45.4006 143.54 46.2581 136.106 46.2516C127.763 46.2444 119.376 44.6074 111.077 46.1394C109.038 46.516 105.357 47.2228 104.601 49.5986C103.5 53.0489 109.712 53.8414 115.64 53.8694Z" fill="#DCEEF3"/>
<path d="M332.719 168.83C333.37 167.987 334.335 167.027 335.326 167.417C335.703 167.565 335.984 167.892 336.171 168.25C337.324 170.454 335.24 172.908 333.348 174.522L319.433 186.396C311.516 193.151 303.579 201.346 292.928 202.762C292.228 202.855 291.377 202.867 290.981 202.281C290.369 201.379 291.484 200.316 292.442 199.797C301.022 195.15 309.461 189.891 317.282 184.021C323.084 179.671 328.276 174.562 332.719 168.83Z" fill="#DCEEF3"/>
<path d="M193.522 43.8373C194.491 38.9551 188.825 37.9711 185.867 40.7467C182.733 43.6899 184.675 46.9166 187.413 47.8998C189.767 48.7435 192.708 47.9262 193.522 43.8373Z" fill="#DCEEF3"/>
<path d="M189.934 31.8686C190.107 33.6578 192.297 34.9199 193.932 34.1739C195.567 33.4279 196.048 30.9463 194.813 29.6434C193.579 28.3405 191.073 28.6915 190.246 30.2844" fill="#DCEEF3"/>
<path d="M304.188 65.9174V161.35C304.188 164.885 301.248 167.748 297.622 167.748H102.28C98.6531 167.748 95.71 164.885 95.71 161.35V65.9174C95.71 62.383 98.6491 59.5192 102.28 59.5192H297.622C301.248 59.5192 304.188 62.383 304.188 65.9174Z" fill="#45ABC7"/>
<path d="M292.83 63.2773H100.143V163.992H292.83V63.2773Z" fill="white"/>
<path d="M249.789 138.338L250.216 137.209L264.071 143.475L263.644 144.604L249.789 138.338Z" fill="#45ABC7"/>
<path d="M129.751 92.3349L132.249 69.2548L133.359 69.399L130.861 92.4783L129.751 92.3349Z" fill="#45ABC7"/>
<path d="M239.381 93.5698L238.818 92.5137L238.916 92.452L246.467 87.6451L284.748 63.2773H286.968L246.428 89.0842L239.454 93.5233L239.381 93.5698Z" fill="#45ABC7"/>
<path d="M248.284 154.522L248.691 153.385L268.375 161.792L267.969 162.93L248.284 154.522Z" fill="#45ABC7"/>
<path d="M214.328 138.702H100.145V137.479H214.328C214.667 137.479 215.006 137.455 215.341 137.407C217.04 137.156 218.598 136.321 219.748 135.047L220.318 134.419L227.865 126.115L228.703 125.193L245.054 107.2L245.168 107.076L245.466 106.748L245.808 106.371L245.942 106.516L246.038 106.621L246.204 106.8L246.312 106.918L246.599 107.23L245.865 108.038L222.098 134.189L220.538 135.906C219.218 137.369 217.43 138.328 215.482 138.617C215.099 138.672 214.714 138.701 214.328 138.702Z" fill="#45ABC7"/>
<path d="M292.83 131.115L284.735 127.137L284.226 126.888L283.716 126.637L283.167 126.367L274.17 121.946L273.151 121.446L245.869 108.04L245.533 107.874L245.539 107.86H245.539L245.759 107.325L245.781 107.271L245.934 106.902V106.901L245.946 106.87L245.991 106.761L246.12 106.825L246.151 106.839V106.84L246.166 106.847L246.317 106.921L246.319 106.922L292.83 129.778V131.115Z" fill="#45ABC7"/>
<path d="M263.278 143.694L273.272 121.169L274.277 121.702L264.284 144.227L263.278 143.694Z" fill="#45ABC7"/>
<path d="M122.102 164.084L122.103 163.993L122.109 162.863L122.241 139.692L122.246 138.703L122.25 138.09L122.252 137.77L123.369 137.777L123.368 138.09L123.365 138.703L123.361 139.395L123.22 163.993H122.511V164.082L122.102 164.084Z" fill="#45ABC7"/>
<path d="M245.424 107.929L245.338 107.758L245.057 107.2L245.015 107.117L229.369 76.008L228.809 74.8958L223.365 64.0705L223.084 63.5112L223.018 63.3782L222.968 63.2772L222.965 63.2732L223.373 62.8205H223.375L223.538 62.7812L223.636 63.2772H224.533L224.346 63.484L238.916 92.4519L239.454 93.5232L245.946 106.435L246.042 106.622L246.14 106.819H246.141L246.151 106.84L246.16 106.856L246.403 107.34L245.914 107.635L245.539 107.86L245.424 107.929Z" fill="#45ABC7"/>
<path d="M151.554 71.6226L150.592 71.5152L150.036 71.4519L149.488 71.3902H149.481L133.342 69.5769L132.232 69.4519L100.145 65.8462V64.6178L128.486 67.8029L129.047 67.8646L129.603 67.9279L129.92 67.964L145.353 69.6979L146.47 69.8229L151.673 70.4071C169.246 72.3871 187.029 71.3347 204.246 67.2957L206.903 66.6739L207.454 66.5457L207.639 66.5008L208.006 66.4207L221.007 63.3758L221.424 63.2781L223.379 62.8214L223.539 62.7821L223.637 63.2781L223.656 63.3782L223.773 63.976L223.367 64.0713L204.476 68.492C199.931 69.5545 195.361 70.4111 190.766 71.0617C190.592 71.0881 190.419 71.1122 190.245 71.1354C190.232 71.1354 190.219 71.141 190.204 71.1426L189.643 71.2187C177.011 72.9152 164.219 73.0508 151.554 71.6226Z" fill="#45ABC7"/>
<path d="M189.613 71.125L190.681 70.7669L198.176 97.5104C200.553 97.5441 207.608 97.8125 207.927 97.8245L208.308 97.839L214.798 117.901L213.744 118.308L207.512 99.0313C205.86 98.9688 199.332 98.7284 197.767 98.7284H197.353L189.613 71.125Z" fill="#45ABC7"/>
<path d="M160.237 113.213L210.886 108.296L210.986 109.513L160.336 114.43L160.237 113.213Z" fill="#45ABC7"/>
<path d="M213.199 118.659L213.67 117.55L229.115 125.402L228.643 126.51L213.199 118.659Z" fill="#45ABC7"/>
<path d="M194.457 83.5633L229.662 74.6803L229.913 75.871L194.708 84.754L194.457 83.5633Z" fill="#45ABC7"/>
<path d="M135.058 123.474L135.092 122.252L160.909 123.125L160.875 124.346L135.058 123.474Z" fill="#45ABC7"/>
<path d="M213.438 78.968L214.491 78.5625L219.413 93.8702L218.358 94.2748L213.438 78.968Z" fill="#45ABC7"/>
<path d="M218.752 93.4792L228.519 90.8622L228.785 92.0489L219.018 94.6659L218.752 93.4792Z" fill="#45ABC7"/>
<path d="M267.568 163.993L283.716 126.637L283.871 126.277L284.02 125.934L284.524 126.193L284.526 126.195L285.03 126.455L284.735 127.137L268.805 163.993H267.568Z" fill="#45ABC7"/>
<path d="M187.268 138.726H186.151V163.993H187.268V138.726Z" fill="#45ABC7"/>
<path d="M129.417 69.0385L128.867 68.9304L128.317 68.823L128.385 68.4063L128.483 67.803L129.224 63.2773V63.2733H130.36V63.2773L129.598 67.928L129.535 68.3142L129.499 68.5313L129.417 69.0385Z" fill="#45ABC7"/>
<path d="M146.373 70.3182L145.278 70.0802L145.347 69.698L146.511 63.2918L146.514 63.2773H147.653L147.651 63.2934L146.464 69.823L146.373 70.3182Z" fill="#45ABC7"/>
<path d="M207.604 67.0273L207.448 66.5457L206.417 63.3591L206.39 63.2773H207.815L207.811 63.3607L207.692 65.4664L207.633 66.5008L207.604 67.0273Z" fill="#45ABC7"/>
<path d="M207.078 67.2308L206.898 66.6739L205.824 63.3575H205.823L205.797 63.2773H206.983L207.009 63.3591L207.692 65.4664L208 66.4167L208.132 66.823L207.604 67.0273L207.078 67.2308Z" fill="#45ABC7"/>
<path d="M103.088 164.236L103.429 164.106L103.727 163.993H100.142V163.038L122.109 162.863L122.504 162.861L122.511 163.993V164.082L122.102 164.084L104.012 164.228L103.454 164.232H103.431L103.088 164.236Z" fill="#45ABC7"/>
<path d="M108.927 137.745L110.442 102.213L111.558 102.27L110.043 137.802L108.927 137.745Z" fill="#45ABC7"/>
<path d="M146.923 105.116L137.958 104.363L100.142 101.187V99.9615L137.069 103.063L145.94 103.808L146.764 96.2548L146.831 95.645L146.897 95.0392L149.478 71.3942V71.3902L149.511 71.0785L150.066 71.1514L150.62 71.2235L150.589 71.5152L148.007 95.1803L147.942 95.7861L147.874 96.3958L146.923 105.116Z" fill="#45ABC7"/>
<path d="M120.256 93.4905L107.13 92.0394L107.501 88.6692L107.691 86.9336L108.2 82.3158L100.142 81.428V80.2012L109.446 81.226L108.762 87.4376L108.68 88.1836L108.376 90.9488L118.611 92.081L120.369 92.2749L120.256 93.4905Z" fill="#45ABC7"/>
<path d="M168.885 163.992H167.767C167.574 157.021 167.301 147.126 167.163 141.918C167.12 140.355 167.09 139.214 167.078 138.703C167.078 138.533 167.071 138.433 167.071 138.408H168.189C168.189 138.434 168.189 138.534 168.195 138.703C168.246 140.803 168.595 153.497 168.885 163.992Z" fill="#45ABC7"/>
<path d="M103.454 164.232H103.431V164.106C103.442 164.147 103.45 164.19 103.454 164.232Z" fill="#45ABC7"/>
<path d="M103.088 164.236L103.429 164.106L103.727 163.992L103.957 163.905C103.963 163.928 103.971 163.957 103.977 163.992C103.99 164.053 104.002 164.131 104.012 164.232H103.451H103.428L103.088 164.236Z" fill="#45ABC7"/>
<path d="M233.298 147.599L233.544 163.993H232.425L232.181 147.619L233.298 147.599Z" fill="#45ABC7"/>
<path d="M130.363 94.0994L130.703 92.9351C130.695 92.9351 130.683 92.9279 130.665 92.9239C131.451 93.1018 153.181 95.8373 161.486 96.8758L161.994 96.9399L161.072 137.313L159.955 137.283L160.851 98.0264C151.426 96.847 130.812 94.2556 130.363 94.0994Z" fill="#45ABC7"/>
<path d="M298.798 86.0962C298.531 85.3655 297.772 85.0097 297.103 85.3022C296.594 85.5249 296.284 86.0602 296.284 86.6259C296.283 86.7336 296.294 86.841 296.317 86.9464C296.477 88.593 296.386 106.585 296.284 118.381C296.277 119.172 296.855 119.812 297.575 119.823C298.296 119.834 298.884 119.199 298.891 118.411C298.891 118.331 298.959 110.559 298.992 102.798C299.062 86.8142 298.94 86.4817 298.798 86.0962Z" fill="#45ABC7"/>
<path d="M296.406 140.644V127.3C296.406 126.513 296.989 125.874 297.709 125.874C298.43 125.874 299.013 126.515 299.013 127.3V140.644C299.013 141.431 298.429 142.07 297.709 142.07C296.99 142.07 296.406 141.431 296.406 140.644Z" fill="#45ABC7"/>
<path d="M228.888 127.72L212.354 119.311L210.129 109.338L160.33 114.173C160.082 114.185 159.839 114.102 159.65 113.939C159.462 113.777 159.344 113.548 159.32 113.301C159.296 113.053 159.368 112.806 159.521 112.61C159.675 112.415 159.898 112.286 160.144 112.25L211.644 107.25L214.043 118.002L228.399 125.3L244.277 106.49C244.358 106.39 244.458 106.307 244.571 106.246C244.685 106.185 244.809 106.147 244.937 106.135C245.065 106.123 245.195 106.136 245.318 106.175C245.441 106.213 245.555 106.276 245.653 106.359C245.752 106.442 245.832 106.544 245.891 106.659C245.949 106.773 245.984 106.899 245.994 107.027C246.003 107.156 245.987 107.285 245.946 107.407C245.905 107.529 245.839 107.641 245.754 107.738L228.888 127.72Z" fill="#FF9F33"/>
<path d="M166.814 91.8317C166.227 91.2081 165.52 90.7101 164.735 90.3679C163.95 90.0256 163.103 89.8462 162.247 89.8405C158.676 89.8125 155.75 92.7877 155.72 96.4688C155.7 99.0505 158.82 104.623 160.693 107.732V109.884H162.147L162.179 109.838L163.645 107.551C165.513 104.539 168.649 99.1082 168.669 96.5633C168.693 94.8043 168.027 93.1059 166.814 91.8317ZM162.204 93.7548H162.224C163.627 93.7652 164.759 94.8894 164.748 96.2612C164.746 96.5896 164.677 96.9141 164.547 97.2154C164.416 97.5167 164.227 97.7887 163.989 98.0152C163.504 98.4807 162.856 98.7374 162.184 98.73C160.781 98.7196 159.648 97.5962 159.659 96.2244C159.671 94.8526 160.81 93.7588 162.204 93.7588V93.7548Z" fill="#CC0000"/>
<path d="M160.961 89.9655C157.443 89.9398 154.569 92.8629 154.54 96.4935C154.511 100.124 160.805 109.807 160.805 109.807C160.805 109.807 167.25 100.217 167.279 96.5857C167.308 92.9543 164.478 89.9911 160.961 89.9655ZM160.891 98.8349C159.428 98.8244 158.247 97.657 158.262 96.2275C158.277 94.798 159.469 93.6474 160.932 93.6578C162.395 93.6682 163.576 94.8365 163.561 96.266C163.546 97.6954 162.354 98.8461 160.891 98.8349Z" fill="#E83535"/>
<path d="M160.804 109.995L160.716 109.861C160.7 109.837 159.123 107.404 157.569 104.559C155.478 100.729 154.423 98.016 154.435 96.4936C154.44 94.7335 155.133 93.045 156.366 91.7893C156.962 91.1747 157.677 90.6874 158.467 90.3566C159.256 90.0258 160.105 89.8585 160.961 89.8647C161.817 89.8709 162.663 90.0505 163.448 90.3927C164.233 90.735 164.94 91.2327 165.527 91.8558C166.74 93.1301 167.406 94.8283 167.384 96.5874C167.372 98.1098 166.275 100.808 164.123 104.607C162.521 107.429 160.91 109.837 160.893 109.861L160.804 109.995ZM160.915 90.0657C160.095 90.066 159.283 90.231 158.528 90.5509C157.773 90.8707 157.089 91.339 156.518 91.9279C155.322 93.1474 154.649 94.7866 154.645 96.4952C154.619 99.8229 160.046 108.429 160.806 109.618C161.586 108.44 167.148 99.9143 167.174 96.5866C167.196 94.8787 166.55 93.2298 165.372 91.9928C164.805 91.3906 164.121 90.9096 163.363 90.5791C162.605 90.2485 161.787 90.0752 160.96 90.0697H160.915V90.0657ZM160.915 98.9359H160.893C159.371 98.9247 158.148 97.71 158.16 96.2268C158.172 94.7436 159.418 93.5457 160.936 93.5569C162.454 93.5681 163.681 94.7837 163.67 96.2668C163.659 97.75 162.42 98.9359 160.912 98.9359H160.915ZM160.915 93.7588C159.521 93.7588 158.381 94.863 158.37 96.2284C158.359 97.5938 159.492 98.7244 160.895 98.734C162.298 98.7428 163.449 97.637 163.459 96.2652C163.47 94.8934 162.337 93.7692 160.934 93.7588H160.915Z" fill="#CC0000"/>
<path d="M239.471 103.227C239.347 103.512 239.238 103.803 239.144 104.099C239.124 104.159 239.107 104.218 239.089 104.277C239.069 104.347 239.049 104.418 239.031 104.487C239.031 104.487 239.031 104.487 239.031 104.494L239.051 104.506C239.371 104.712 240.447 105.018 240.573 105.298L242.615 106.466L242.663 106.373V106.369C242.696 106.305 242.729 106.244 242.762 106.183L242.864 106.001C242.915 105.912 242.967 105.825 243.019 105.74C243.155 105.511 243.294 105.301 243.435 105.099C245.374 102.389 247.512 102.601 248.779 103.087C249.18 103.238 249.558 103.444 249.901 103.7L249.95 103.738L249.991 103.771L250.033 103.805H250.038L250.078 103.839C250.259 103.992 250.427 104.159 250.583 104.338L250.601 104.361C251.613 105.549 251.688 106.953 251.508 108.061C251.424 108.566 251.285 109.061 251.094 109.536C251.069 109.6 251.045 109.658 251.023 109.709L251.008 109.743V109.748C250.952 109.875 250.911 109.955 250.898 109.98V109.986C250.869 110.031 250.843 110.075 250.818 110.118C250.806 110.14 250.795 110.162 250.785 110.184C250.774 110.205 250.771 110.213 250.765 110.228C250.765 110.23 250.765 110.232 250.765 110.234C250.762 110.241 250.76 110.247 250.757 110.253C250.752 110.267 250.746 110.281 250.741 110.293C250.73 110.323 250.72 110.354 250.712 110.385L250.707 110.402C250.707 110.41 250.703 110.418 250.701 110.424C250.7 110.43 250.695 110.453 250.692 110.466C250.692 110.47 250.692 110.473 250.692 110.476V110.482V110.492C250.692 110.492 250.692 110.492 250.692 110.498C250.692 110.508 250.692 110.518 250.692 110.527C250.692 110.545 250.693 110.562 250.689 110.579V110.587C250.689 110.595 250.689 110.603 250.689 110.611C250.689 110.619 250.689 110.643 250.689 110.658C250.689 110.658 250.689 110.666 250.689 110.67C250.688 110.676 250.688 110.681 250.689 110.687C250.689 110.695 250.689 110.703 250.689 110.711C250.696 110.763 250.71 110.814 250.732 110.862C250.733 110.866 250.735 110.87 250.737 110.874C250.739 110.878 250.741 110.882 250.743 110.886L250.749 110.898L250.755 110.91L250.761 110.921C250.772 110.938 250.782 110.954 250.793 110.968L250.803 110.982L250.811 110.991L250.82 111.002L250.825 111.006L250.83 111.01L250.835 111.015L250.843 111.022C251.185 111.118 252.6 111.774 254.529 112.704L254.658 112.767L254.703 112.789L254.833 112.851L254.969 112.918L255.195 113.027L255.236 113.047L255.469 113.16L255.513 113.18C257.596 114.192 260.101 115.43 262.471 116.608L262.711 116.728L263.048 116.895H263.055L263.277 117.005L263.285 117.009L263.504 117.119H263.511L263.955 117.34H263.962C265.079 117.901 266.136 118.426 267.065 118.891C268.773 119.746 270.052 120.389 270.5 120.615L270.673 120.702L270.679 120.693C270.68 120.69 270.682 120.687 270.684 120.684L270.725 120.615L270.733 120.601L270.741 120.587C270.749 120.575 270.757 120.563 270.765 120.55L270.816 120.47L270.866 120.389C270.882 120.362 270.9 120.335 270.918 120.309C270.953 120.253 270.989 120.198 271.025 120.143L271.099 120.035L271.14 119.975C271.187 119.906 271.234 119.84 271.281 119.774L271.32 119.722L271.358 119.67C271.385 119.635 271.41 119.6 271.438 119.567L271.478 119.515L271.531 119.448C271.543 119.432 271.556 119.415 271.569 119.4L271.649 119.305V119.301L271.674 119.272C271.692 119.248 271.712 119.226 271.731 119.204L271.778 119.148L271.805 119.119L271.831 119.089C271.874 119.039 271.918 118.992 271.961 118.946L271.988 118.917C272.007 118.897 272.026 118.877 272.045 118.857L272.084 118.817L272.093 118.808L272.133 118.767C272.161 118.738 272.191 118.71 272.219 118.682L272.25 118.653L272.296 118.609L272.315 118.591L272.404 118.51C272.458 118.461 272.513 118.414 272.564 118.369C272.574 118.36 272.585 118.351 272.595 118.343L272.614 118.328L272.639 118.308L272.719 118.245L272.767 118.208C272.785 118.195 272.801 118.182 272.819 118.17C272.858 118.14 272.899 118.111 272.938 118.084L272.973 118.06L273.024 118.026C273.156 117.939 273.293 117.858 273.434 117.785L273.484 117.76L273.535 117.734C273.615 117.695 273.695 117.659 273.775 117.627L273.808 117.613L273.882 117.585L273.94 117.563L273.991 117.546C274.028 117.533 274.065 117.521 274.103 117.51L274.14 117.498L274.165 117.491L274.19 117.484L274.24 117.471L274.289 117.458L274.347 117.445L274.396 117.434L274.426 117.428L274.455 117.422L274.484 117.416L274.545 117.405H274.571C274.694 117.384 274.819 117.371 274.943 117.365H275.015H275.078H275.203C275.269 117.365 275.334 117.369 275.4 117.375H275.434H275.452H275.477L275.521 117.38L275.623 117.393H275.653H275.664L275.702 117.4L275.747 117.407L275.835 117.424L275.86 117.43H275.877L275.901 117.435L275.995 117.457L276.034 117.467L276.073 117.477L276.153 117.5L276.188 117.51L276.247 117.528L276.304 117.547L276.367 117.569L276.417 117.587L276.459 117.603L276.476 117.609L276.548 117.637H276.554L276.588 117.652L276.63 117.669L276.704 117.702L276.781 117.736C277.018 117.85 277.246 117.981 277.463 118.131L277.503 118.158C277.713 118.305 277.913 118.468 278.1 118.643L278.153 118.696L278.205 118.747L278.254 118.797L278.258 118.802C278.274 118.818 278.29 118.835 278.305 118.852C278.321 118.869 278.337 118.887 278.353 118.906L278.399 118.958C278.414 118.977 278.43 118.994 278.444 119.013C278.458 119.031 278.482 119.059 278.499 119.082L278.529 119.119L278.535 119.127L278.563 119.165L278.58 119.189L278.604 119.222L278.616 119.24L278.636 119.267C278.644 119.278 278.652 119.289 278.659 119.301C278.68 119.333 278.702 119.366 278.722 119.399L278.753 119.449C278.761 119.462 278.769 119.475 278.777 119.489L278.784 119.501C278.791 119.512 278.797 119.524 278.804 119.536C278.81 119.548 278.811 119.548 278.815 119.555C278.819 119.561 278.827 119.576 278.833 119.587L278.844 119.607L278.865 119.647L278.891 119.698C278.917 119.749 278.941 119.799 278.963 119.849C278.97 119.863 278.975 119.877 278.981 119.89C278.983 119.895 278.985 119.9 278.987 119.905C278.995 119.92 279.001 119.936 279.007 119.951C279.014 119.966 279.021 119.986 279.028 120.002C279.035 120.019 279.042 120.036 279.048 120.054L279.067 120.104C279.079 120.139 279.091 120.173 279.103 120.208C279.114 120.242 279.122 120.266 279.131 120.296C279.14 120.325 279.149 120.354 279.157 120.384C279.174 120.443 279.189 120.502 279.203 120.561C279.211 120.595 279.219 120.63 279.225 120.664L279.235 120.708L279.252 120.801C279.265 120.881 279.276 120.952 279.285 121.027C279.289 121.059 279.292 121.089 279.295 121.12C279.298 121.152 279.301 121.179 279.303 121.208C279.303 121.224 279.303 121.242 279.307 121.259C279.311 121.276 279.307 121.293 279.307 121.309C279.307 121.326 279.307 121.343 279.307 121.361V121.411C279.307 121.462 279.307 121.512 279.307 121.562C279.307 121.595 279.307 121.627 279.307 121.659C279.307 121.673 279.307 121.688 279.307 121.703C279.307 121.74 279.307 121.777 279.307 121.814C279.307 121.837 279.307 121.858 279.307 121.881C279.302 121.969 279.296 122.056 279.288 122.142C279.284 122.185 279.279 122.228 279.274 122.269C279.274 122.291 279.269 122.312 279.266 122.333C279.261 122.375 279.255 122.413 279.249 122.458C279.249 122.478 279.243 122.498 279.24 122.519C279.236 122.54 279.232 122.56 279.229 122.58C279.223 122.62 279.216 122.66 279.208 122.7C279.197 122.759 279.185 122.817 279.173 122.874L279.161 122.93C279.128 123.08 279.091 123.221 279.053 123.353C279.039 123.4 279.026 123.446 279.011 123.491C279.011 123.5 279.006 123.51 279.003 123.519C278.97 123.624 278.936 123.722 278.905 123.809C278.903 123.816 278.9 123.823 278.897 123.83C278.837 123.998 278.769 124.162 278.692 124.322C278.716 124.355 278.747 124.382 278.782 124.402C278.859 124.448 278.939 124.486 279.023 124.516L279.055 124.529L279.105 124.547L279.141 124.56C279.186 124.576 279.232 124.591 279.278 124.606L279.316 124.617L279.39 124.64L279.491 124.669H279.499L279.532 124.679L279.561 124.687L279.594 124.696L279.656 124.712L279.744 124.735L279.857 124.763L279.898 124.772L279.937 124.781C279.994 124.792 280.053 124.79 280.11 124.777C280.119 124.775 280.128 124.772 280.137 124.769C280.147 124.767 280.157 124.765 280.166 124.761L280.193 124.752C280.223 124.74 280.252 124.727 280.281 124.712L280.295 124.705H280.301L280.328 124.69L280.383 124.656L280.414 124.635L280.443 124.614L280.473 124.592L280.499 124.572L280.518 124.557C280.575 124.51 280.632 124.458 280.69 124.402L280.708 124.385L280.732 124.361L280.777 124.315L280.808 124.282L280.853 124.232L280.878 124.205C280.894 124.187 280.91 124.168 280.927 124.148L280.987 124.078L281.047 124.005L281.106 123.93L281.149 123.874L281.188 123.824C281.208 123.797 281.229 123.768 281.249 123.744L281.277 123.705L281.305 123.667L281.333 123.628L281.377 123.567L281.426 123.494L281.446 123.465L281.465 123.438L281.526 123.347C281.536 123.332 281.546 123.317 281.555 123.301C281.579 123.266 281.602 123.231 281.623 123.196L281.656 123.148L281.703 123.073L281.718 123.049C282.452 121.872 282.76 120.288 283.088 118.943L283.1 118.893C283.128 118.781 283.157 118.668 283.187 118.553C283.196 118.518 283.205 118.482 283.216 118.445C283.265 118.256 283.317 118.065 283.365 117.872C283.365 117.857 283.372 117.843 283.375 117.828L283.411 117.68C283.418 117.653 283.424 117.626 283.43 117.6C283.431 117.595 283.433 117.589 283.434 117.583L283.451 117.503L283.47 117.414C283.47 117.401 283.476 117.387 283.478 117.374C283.481 117.361 283.486 117.336 283.49 117.317C283.493 117.297 283.499 117.273 283.503 117.251C283.507 117.229 283.51 117.212 283.514 117.192C283.518 117.173 283.514 117.168 283.52 117.156L283.537 117.055C283.537 117.043 283.541 117.031 283.543 117.018L283.552 116.954C283.552 116.945 283.552 116.935 283.552 116.926C283.552 116.899 283.559 116.873 283.563 116.845C283.568 116.798 283.574 116.75 283.578 116.703C283.578 116.688 283.578 116.675 283.582 116.66C283.587 116.605 283.591 116.551 283.593 116.496C283.593 116.484 283.593 116.473 283.593 116.461V116.393V116.361C283.593 116.327 283.593 116.293 283.593 116.259C283.593 116.241 283.593 116.224 283.593 116.206C283.593 116.188 283.593 116.17 283.593 116.152C283.593 116.133 283.593 116.108 283.593 116.086C283.58 115.832 283.533 115.582 283.453 115.341C283.446 115.319 283.438 115.297 283.43 115.275L283.423 115.253C283.418 115.239 283.414 115.224 283.408 115.209L283.393 115.165L283.361 115.077C283.35 115.048 283.34 115.018 283.329 114.988C283.311 114.941 283.293 114.893 283.275 114.845C283.266 114.821 283.257 114.797 283.248 114.773C283.248 114.771 283.248 114.769 283.248 114.767C283.176 114.575 283.107 114.381 283.041 114.188C283.033 114.164 283.025 114.141 283.018 114.118C283.011 114.095 282.994 114.05 282.983 114.016L282.944 113.895C282.896 113.749 282.849 113.602 282.805 113.455C282.789 113.406 282.774 113.357 282.76 113.308C282.715 113.16 282.671 113.013 282.628 112.865C282.54 112.57 282.454 112.273 282.368 111.978C282.339 111.881 282.31 111.783 282.281 111.685C282.251 111.587 282.222 111.489 282.192 111.391C282.161 111.293 282.132 111.195 282.101 111.097C282.071 110.999 282.039 110.901 282.007 110.804C281.926 110.563 281.846 110.317 281.754 110.077C281.693 109.912 281.624 109.75 281.547 109.591C281.532 109.562 281.518 109.533 281.503 109.505C281.473 109.448 281.442 109.393 281.411 109.34C281.405 109.328 281.398 109.316 281.39 109.305L281.369 109.269L281.348 109.235L281.326 109.201C281.307 109.172 281.287 109.142 281.267 109.113C281.237 109.071 281.208 109.029 281.176 108.988C281.128 108.924 281.077 108.862 281.026 108.804C281.005 108.78 280.983 108.757 280.962 108.734L280.946 108.717L280.93 108.7C280.466 108.22 279.889 107.899 279.168 107.432L279.012 107.331L278.918 107.268L278.635 107.084L278.539 107.023L278.494 106.994L278.448 106.966L278.331 106.892C278.122 106.76 277.911 106.63 277.7 106.502C276.329 105.672 274.917 104.921 273.499 104.178C272.568 103.689 271.636 103.204 270.712 102.703L270.615 102.651L270.601 102.643L270.477 102.575L270.372 102.518C270.234 102.443 270.095 102.37 269.956 102.3C266.062 100.297 262.369 99.7797 259.299 99.7252C257.205 99.6876 255.4 99.8646 254.018 99.932C253.956 99.932 253.89 99.932 253.821 99.932H253.72H253.666C253.586 99.932 253.506 99.9255 253.419 99.9207H253.363C253.276 99.9151 253.184 99.9079 253.091 99.8991L252.93 99.8839L252.862 99.8767L252.653 99.8534C252.539 99.8398 252.422 99.8254 252.302 99.8094L252.242 99.8005L252.12 99.7837L251.935 99.7573L251.842 99.7429L251.806 99.738H251.793H251.78H251.773H251.764H251.756H251.748L251.698 99.73L251.618 99.718L251.452 99.6908L251.318 99.6691L251.248 99.6579L251.106 99.6339L251.035 99.6219L250.866 99.5922L250.795 99.5802H250.781L250.713 99.5682L250.646 99.5561L250.556 99.5401C250.466 99.5241 250.374 99.5073 250.284 99.4896L250.182 99.4712L250.096 99.4552L249.995 99.4368L249.955 99.4287L249.84 99.4063L249.584 99.3566L249.504 99.3406L249.243 99.2885L249.163 99.2725L249.083 99.2573L248.837 99.2068L248.667 99.1715L248.574 99.1523L248.481 99.1331L248.391 99.1146L248.311 99.097L248.151 99.0634L248.071 99.0465H248.053L247.902 99.0137H247.886L247.76 98.9864L247.631 98.9584L247.588 98.9496L247.544 98.94L247.458 98.9207L247.414 98.9111L247.366 98.9007L247.317 98.8895C247.269 98.8791 247.221 98.8695 247.175 98.8582L247.095 98.8414L246.935 98.8062L246.867 98.7909L246.802 98.7765L246.764 98.7677H246.759H246.749L246.696 98.7565L246.645 98.7445L246.62 98.7388L246.596 98.7332L246.524 98.7172L246.456 98.702L246.435 98.6964L246.414 98.6916H246.4H246.391H246.382H246.366L246.316 98.6796L246.265 98.6675L246.239 98.6619L246.025 98.6122H246.017L245.985 98.605H245.975C245.971 98.6056 245.967 98.6056 245.963 98.605H245.957H245.947H245.939H245.934H245.919C245.826 98.5706 245.734 98.5385 245.644 98.5105C243.381 97.7981 241.901 99.0553 240.996 100.458C240.465 101.313 239.891 102.25 239.471 103.227Z" fill="#E83535"/>
<path d="M242.614 106.467L243.428 107.063L243.486 107.106C244.528 104.188 246.652 103.526 248.203 103.859C248.778 103.983 249.274 104.244 249.607 104.58C253.093 108.075 249.06 110.971 249.06 110.971L249.093 110.981C249.66 111.135 250.178 110.907 250.435 110.759C250.494 110.726 250.551 110.689 250.605 110.648C250.631 110.604 250.656 110.561 250.681 110.517C250.868 110.192 251.034 109.855 251.18 109.51C251.404 108.986 251.559 108.436 251.641 107.872C251.99 105.333 250.379 103.766 249.103 103.192C249.002 103.147 248.901 103.105 248.802 103.067C245.617 101.838 243.722 104.383 242.978 105.72C242.841 105.962 242.72 106.211 242.614 106.467Z" fill="#26282B"/>
<path d="M271.314 120.994L270.681 120.735C270.681 120.735 272.506 116.007 276.87 117.662C278.603 118.318 280.698 121.095 278.729 124.393C278.729 124.393 278.832 124.018 278.248 123.945C278.248 123.945 279.419 121.536 277.426 119.311C276.262 118.007 273.157 117.257 271.314 120.994Z" fill="#26282B"/>
<path d="M243.43 107.065C243.325 107.879 243.478 108.706 243.867 109.429C244.108 109.875 244.434 110.269 244.827 110.588C245.22 110.908 245.673 111.147 246.159 111.291C246.644 111.435 247.154 111.482 247.658 111.428C248.162 111.375 248.65 111.223 249.095 110.98C249.713 110.643 250.229 110.146 250.588 109.54C250.947 108.935 251.137 108.244 251.137 107.54C251.137 106.836 250.947 106.145 250.588 105.54C250.229 104.934 249.713 104.437 249.095 104.1C248.834 103.962 248.558 103.854 248.272 103.78C247.424 103.558 246.526 103.63 245.724 103.985C244.922 104.339 244.264 104.955 243.858 105.732C243.636 106.147 243.491 106.598 243.43 107.065Z" fill="#760C0C"/>
<path d="M249.658 108.697C250.304 107.249 249.687 105.566 248.279 104.937C246.871 104.308 245.205 104.972 244.558 106.419C243.912 107.867 244.529 109.551 245.937 110.18C247.345 110.809 249.011 110.145 249.658 108.697Z" fill="#CC0000"/>
<path d="M248.878 108.414C248.357 109.398 247.177 109.792 246.241 109.295C245.305 108.798 244.969 107.593 245.49 106.608C246.011 105.623 247.191 105.23 248.127 105.727C249.063 106.224 249.398 107.431 248.878 108.414Z" fill="#DCEEF3"/>
<path d="M278.479 123.772C278.243 124.224 277.92 124.625 277.529 124.951C277.138 125.278 276.686 125.524 276.199 125.675C275.712 125.826 275.201 125.88 274.693 125.833C274.186 125.786 273.692 125.639 273.242 125.401C271.357 124.395 270.645 122.035 271.652 120.13C271.888 119.678 272.211 119.278 272.603 118.951C272.994 118.625 273.446 118.379 273.932 118.227C274.419 118.076 274.931 118.022 275.438 118.069C275.946 118.116 276.439 118.263 276.889 118.502C278.774 119.507 279.487 121.867 278.479 123.772Z" fill="#760C0C"/>
<path d="M277.474 123.116C278.12 121.668 277.503 119.985 276.095 119.356C274.687 118.727 273.021 119.391 272.374 120.838C271.728 122.286 272.345 123.97 273.753 124.599C275.161 125.228 276.827 124.564 277.474 123.116Z" fill="#CC0000"/>
<path d="M276.677 122.817C276.157 123.801 274.976 124.195 274.04 123.698C273.104 123.201 272.768 121.996 273.289 121.011C273.809 120.027 274.99 119.633 275.926 120.13C276.861 120.627 277.198 121.832 276.677 122.817Z" fill="#DCEEF3"/>
<path d="M241.026 100.449L241.035 100.463C241.035 100.463 243.069 100.558 245.202 100.484C246.351 100.445 247.526 100.355 248.433 100.176H248.438H248.446C248.446 100.176 249.177 100.461 250.432 100.954L252.023 101.581C252.916 101.933 253.946 102.341 255.076 102.791H255.08L255.165 102.824L255.229 102.85L255.596 102.997L255.683 103.031L255.772 103.066L255.859 103.102L255.954 103.139L256.215 103.244L256.241 103.254L256.405 103.32L256.566 103.383L256.577 103.388L256.737 103.451L256.852 103.498L257.274 103.667L257.408 103.72C257.465 103.742 257.521 103.765 257.577 103.788L257.596 103.796L257.691 103.833L257.723 103.846L257.785 103.871L258.266 104.063L258.362 104.102L258.579 104.189L258.7 104.238L258.749 104.258L258.955 104.338H258.963L259.043 104.37L259.537 104.569L259.736 104.649L259.786 104.669L259.836 104.689L259.936 104.729L260.137 104.809L260.205 104.837L260.237 104.85L260.338 104.891L260.616 105.003L260.743 105.055L260.845 105.096L260.896 105.117L261.049 105.179L261.728 105.454L261.852 105.504L261.975 105.554L262.183 105.635L262.39 105.719L263.018 105.975L263.258 106.074L263.436 106.147L263.452 106.153L263.647 106.233L263.752 106.276L263.857 106.32C266.074 107.227 268.345 108.163 270.526 109.089L271.365 109.444L271.641 109.562C271.975 109.703 272.306 109.844 272.634 109.986L272.8 110.057L273.15 110.207L273.237 110.244L273.413 110.324L273.493 110.361L273.565 110.392H273.575L274.178 110.653L274.263 110.69L274.347 110.727L274.467 110.779C274.989 111.006 275.498 111.23 275.994 111.449H276.001L276.229 111.551L276.644 111.736L276.829 111.816L277.051 111.916L277.236 111.996L277.247 112.002C277.398 112.069 277.547 112.137 277.695 112.203H277.7L277.861 112.276L277.941 112.311L278.139 112.401L278.284 112.468L278.709 112.663L278.728 112.672L278.744 112.679C279.471 113.016 280.146 113.336 280.756 113.635C281.322 113.913 281.859 114.246 282.359 114.631C282.764 114.944 283.253 115.296 283.489 115.376H283.497C283.49 115.354 283.482 115.332 283.474 115.31L283.467 115.288C283.458 115.259 283.447 115.23 283.437 115.2L283.405 115.112C283.394 115.083 283.384 115.054 283.373 115.023C283.355 114.976 283.337 114.929 283.319 114.881C283.31 114.857 283.301 114.832 283.292 114.808C283.292 114.806 283.292 114.804 283.292 114.802C283.22 114.61 283.151 114.417 283.085 114.223C283.077 114.199 283.069 114.176 283.062 114.153C283.054 114.13 283.038 114.085 283.027 114.051L282.988 113.93C282.94 113.784 282.893 113.637 282.849 113.49C282.833 113.441 282.818 113.392 282.804 113.343C282.759 113.195 282.715 113.048 282.671 112.9C282.584 112.605 282.498 112.308 282.412 112.014C282.383 111.916 282.354 111.818 282.324 111.72C282.295 111.623 282.266 111.524 282.236 111.426C282.205 111.328 282.175 111.23 282.145 111.132C282.115 111.034 282.083 110.936 282.05 110.839C281.97 110.599 281.89 110.353 281.798 110.112C281.737 109.947 281.668 109.785 281.591 109.627C281.576 109.597 281.562 109.568 281.546 109.54C281.517 109.482 281.486 109.428 281.455 109.375C281.449 109.363 281.441 109.351 281.434 109.34C281.413 109.304 281.392 109.27 281.37 109.236C281.349 109.203 281.331 109.177 281.311 109.148C281.281 109.106 281.252 109.064 281.22 109.023C281.171 108.959 281.121 108.897 281.07 108.839C281.049 108.815 281.027 108.792 281.006 108.769L280.99 108.752L280.974 108.736C280.413 108.296 279.821 107.875 279.212 107.469L279.056 107.366L278.962 107.304L278.679 107.119L278.583 107.058L278.538 107.03L278.492 107C278.244 106.84 277.994 106.687 277.744 106.535C276.325 105.671 274.877 104.893 273.552 104.199C272.523 103.661 271.568 103.174 270.756 102.736L270.659 102.683L270.645 102.675L270.521 102.608L270.416 102.551C270.278 102.476 270.139 102.403 270 102.332C266.106 100.329 262.413 99.8124 259.343 99.7579C257.249 99.7203 255.444 99.8974 254.062 99.9647C254 99.9647 253.934 99.9647 253.865 99.9647H253.764H253.71C253.63 99.9647 253.55 99.9583 253.463 99.9535H253.407C253.32 99.9478 253.228 99.9406 253.135 99.9318L252.974 99.9166L252.906 99.9094L252.697 99.8861L252.346 99.8421L252.286 99.8333L252.164 99.8164L251.979 99.79L251.886 99.7756L251.85 99.7708H251.837H251.824H251.817H251.808H251.8H251.792L251.742 99.7628L251.662 99.7507L251.496 99.7235L251.361 99.7019L251.292 99.6906L251.15 99.6666L251.079 99.6546L250.909 99.6249L250.839 99.6129H250.825L250.757 99.6009L250.69 99.5889L250.6 99.5728C250.51 99.5568 250.418 99.54 250.328 99.5224L250.226 99.5039L250.14 99.4879L250.04 99.4687L249.998 99.4615L249.884 99.439L249.628 99.3894L249.548 99.3733L249.287 99.3212L249.207 99.3052L249.127 99.29L248.881 99.2395L248.711 99.2043L248.618 99.185L248.525 99.1658L248.434 99.1466L248.369 99.1329H248.353L248.193 99.0993L248.113 99.0825H248.095L247.945 99.0496H247.928L247.802 99.0224L247.673 98.9943L247.631 98.9855L247.587 98.9759L247.5 98.9567L247.457 98.947L247.408 98.9366L247.359 98.9254L247.217 98.8942L247.137 98.8773L246.977 98.8421L246.909 98.8268L246.845 98.8124L246.806 98.8036H246.801H246.791L246.738 98.7924L246.687 98.7804L246.663 98.7748L246.638 98.7692L246.566 98.7531L246.498 98.7379L246.477 98.7323L246.456 98.7275H246.442L246.425 98.7235H246.408L246.358 98.7115L246.307 98.6994L246.281 98.6938L246.067 98.6442H246.059L246.027 98.6369H246.017C246.013 98.6375 246.009 98.6375 246.005 98.6369H245.999H245.989H245.981H245.976H245.962C245.869 98.6025 245.776 98.5704 245.686 98.5424C243.41 97.79 241.93 99.0472 241.026 100.449Z" fill="#FC7373"/>
<path d="M283.397 115.134C283.43 115.223 283.46 115.31 283.489 115.397C283.46 115.31 283.43 115.224 283.397 115.134Z" fill="#FFC83E"/>
<path d="M274.567 116.705C274.046 116.721 273.393 116.985 272.798 117.296C272.226 117.6 271.676 117.944 271.153 118.326C271.098 118.384 271.044 118.438 270.993 118.486C269.859 119.551 269.03 118.913 269.03 118.913L263.4 116.06L253.123 110.852C252.928 110.808 252.741 110.737 252.567 110.639C251.699 110.137 252.315 109.259 252.315 109.259C252.387 108.048 252.808 106.817 253.301 105.756C253.792 104.706 254.389 103.707 255.082 102.777C256.486 103.141 262.332 105.581 267.857 107.937C273.46 110.328 278.736 112.642 278.736 112.642C277.773 116.179 274.567 116.705 274.567 116.705Z" fill="#E83535"/>
<path d="M251.713 101.91C260.757 109.569 272.214 113.672 283.57 117.111C283.625 116.792 283.645 116.467 283.629 116.143C283.616 115.889 283.569 115.638 283.489 115.398H283.481C283.245 115.317 282.76 114.966 282.351 114.652C281.851 114.268 281.314 113.935 280.748 113.657C280.138 113.358 279.466 113.038 278.736 112.701L278.72 112.694L278.701 112.685L278.49 112.587L277.933 112.333L277.852 112.297L277.692 112.225H277.687C277.54 112.159 277.391 112.091 277.24 112.023C276.909 111.874 276.571 111.723 276.225 111.57C275.619 111.301 274.99 111.024 274.343 110.743L274.174 110.669L273.571 110.408H273.561L273.489 110.377L273.316 110.302L273.142 110.227L272.792 110.077L272.086 109.775L271.908 109.699L271.357 109.464C268.92 108.43 266.351 107.364 263.849 106.339L263.639 106.252L263.25 106.092L262.173 105.653L261.966 105.573L261.719 105.473L261.347 105.322L260.733 105.074L260.228 104.869L260.127 104.828L260.07 104.805L259.83 104.707L259.731 104.667L259.531 104.587L259.433 104.547L259.235 104.466L258.958 104.355H258.949L258.842 104.313L258.695 104.253L258.455 104.156L258.263 104.075L257.782 103.884L257.583 103.804L257.405 103.732L257.271 103.679L256.849 103.51L256.734 103.463L256.393 103.327L256.304 103.291L256.267 103.277L256.214 103.256L255.858 103.114L255.771 103.079L255.228 102.862L255.079 102.803H255.075C253.945 102.353 252.912 101.946 252.022 101.593C251.925 101.704 251.822 101.81 251.713 101.91Z" fill="#FC7373"/>
<path d="M256.441 100.596C256.441 100.596 251.362 100.837 253.014 101.718L255.079 102.785C255.079 102.785 255.609 101.442 256.441 100.596Z" fill="white"/>
<path d="M256.441 100.596C256.441 100.596 251.362 100.837 253.014 101.718L255.079 102.785C255.079 102.785 255.609 101.442 256.441 100.596Z" stroke="#CC0000" stroke-width="0.1" stroke-miterlimit="10"/>
<path d="M280.769 115.411C280.769 115.411 282.056 118.519 282.879 119.061C282.912 119.083 282.948 119.102 282.985 119.117C283.032 119.078 283.077 119.037 283.121 118.998L283.133 118.949C283.352 118.051 283.684 117.075 283.628 116.144C283.434 116.014 283.165 115.84 282.87 115.663C281.856 115.053 280.529 114.412 280.769 115.411Z" fill="#FFDCDC"/>
<path d="M261.058 100.704C262.26 100.817 267.302 101.385 269.941 103.209C269.962 103.224 269.979 103.243 269.991 103.265C270.004 103.287 270.012 103.311 270.015 103.336C270.018 103.361 270.016 103.386 270.009 103.411C270.002 103.435 269.99 103.457 269.974 103.477C269.505 104.075 267.805 106.225 267.001 107.101C266.933 107.177 266.843 107.231 266.744 107.255C266.644 107.278 266.54 107.271 266.445 107.233L258.897 104.172L259.04 102.756L260.61 100.873C260.667 100.813 260.737 100.767 260.815 100.738C260.892 100.709 260.975 100.697 261.058 100.704Z" fill="white"/>
<path d="M261.058 100.704C262.26 100.817 267.302 101.385 269.941 103.209C269.962 103.224 269.979 103.243 269.991 103.265C270.004 103.287 270.012 103.311 270.015 103.336C270.018 103.361 270.016 103.386 270.009 103.411C270.002 103.435 269.99 103.457 269.974 103.477C269.505 104.075 267.805 106.225 267.001 107.101C266.933 107.177 266.843 107.231 266.744 107.255C266.644 107.278 266.54 107.271 266.445 107.233L258.897 104.172L259.04 102.756L260.61 100.873C260.667 100.813 260.737 100.767 260.815 100.738C260.892 100.709 260.975 100.697 261.058 100.704V100.704Z" stroke="black" stroke-width="0.1" stroke-miterlimit="10"/>
<path d="M261.058 100.704C262.26 100.817 267.302 101.385 269.941 103.209C269.962 103.224 269.979 103.243 269.991 103.265C270.004 103.287 270.012 103.311 270.015 103.336C270.018 103.361 270.016 103.386 270.009 103.411C270.002 103.435 269.99 103.457 269.974 103.477C269.505 104.075 267.805 106.225 267.001 107.101C266.933 107.177 266.843 107.231 266.744 107.255C266.644 107.278 266.54 107.271 266.445 107.233L258.897 104.172L259.04 102.756L260.61 100.873C260.667 100.813 260.737 100.767 260.815 100.738C260.892 100.709 260.975 100.697 261.058 100.704Z" fill="white"/>
<path d="M261.058 100.704C262.26 100.817 267.302 101.385 269.941 103.209C269.962 103.224 269.979 103.243 269.991 103.265C270.004 103.287 270.012 103.311 270.015 103.336C270.018 103.361 270.016 103.386 270.009 103.411C270.002 103.435 269.99 103.457 269.974 103.477C269.505 104.075 267.805 106.225 267.001 107.101C266.933 107.177 266.843 107.231 266.744 107.255C266.644 107.278 266.54 107.271 266.445 107.233L258.897 104.172L259.04 102.756L260.61 100.873C260.667 100.813 260.737 100.767 260.815 100.738C260.892 100.709 260.975 100.697 261.058 100.704V100.704Z" stroke="black" stroke-width="0.1" stroke-miterlimit="10"/>
<path d="M261.058 100.704C262.26 100.817 267.302 101.385 269.941 103.209C269.962 103.224 269.979 103.243 269.991 103.265C270.004 103.287 270.012 103.311 270.015 103.336C270.018 103.361 270.016 103.386 270.009 103.411C270.002 103.435 269.99 103.457 269.974 103.477C269.505 104.075 267.805 106.225 267.001 107.101C266.933 107.177 266.843 107.231 266.744 107.255C266.644 107.278 266.54 107.271 266.445 107.233L258.897 104.172L259.04 102.756L260.61 100.873C260.667 100.813 260.737 100.767 260.815 100.738C260.892 100.709 260.975 100.697 261.058 100.704Z" fill="white"/>
<path d="M261.058 100.704C262.26 100.817 267.302 101.385 269.941 103.209C269.962 103.224 269.979 103.243 269.991 103.265C270.004 103.287 270.012 103.311 270.015 103.336C270.018 103.361 270.016 103.386 270.009 103.411C270.002 103.435 269.99 103.457 269.974 103.477C269.505 104.075 267.805 106.225 267.001 107.101C266.933 107.177 266.843 107.231 266.744 107.255C266.644 107.278 266.54 107.271 266.445 107.233L258.897 104.172L259.04 102.756L260.61 100.873C260.667 100.813 260.737 100.767 260.815 100.738C260.892 100.709 260.975 100.697 261.058 100.704V100.704Z" stroke="black" stroke-width="0.1" stroke-miterlimit="10"/>
<path d="M261.058 100.704C262.26 100.817 267.302 101.385 269.941 103.209C269.962 103.224 269.979 103.243 269.991 103.265C270.004 103.287 270.012 103.311 270.015 103.336C270.018 103.361 270.016 103.386 270.009 103.411C270.002 103.435 269.99 103.457 269.974 103.477C269.505 104.075 267.805 106.225 267.001 107.101C266.933 107.177 266.843 107.231 266.744 107.255C266.644 107.278 266.54 107.271 266.445 107.233L258.897 104.172L259.04 102.756L260.61 100.873C260.667 100.813 260.737 100.767 260.815 100.738C260.892 100.709 260.975 100.697 261.058 100.704Z" fill="white"/>
<path d="M261.058 100.704C262.26 100.817 267.302 101.385 269.941 103.209C269.962 103.224 269.979 103.243 269.991 103.265C270.004 103.287 270.012 103.311 270.015 103.336C270.018 103.361 270.016 103.386 270.009 103.411C270.002 103.435 269.99 103.457 269.974 103.477C269.505 104.075 267.805 106.225 267.001 107.101C266.933 107.177 266.843 107.231 266.744 107.255C266.644 107.278 266.54 107.271 266.445 107.233L258.897 104.172L259.04 102.756L260.61 100.873C260.667 100.813 260.737 100.767 260.815 100.738C260.892 100.709 260.975 100.697 261.058 100.704Z" stroke="black" stroke-width="0.1" stroke-miterlimit="10"/>
<path d="M242.613 106.469C242.747 106.21 242.881 105.967 243.02 105.742C242.999 105.727 242.975 105.717 242.95 105.711C242.365 105.571 239.176 103.998 239.176 103.998L239.026 104.478C239.014 104.578 240.571 105.302 240.571 105.302L242.613 106.469Z" fill="#CC0000"/>
<path d="M281.752 123.104C281.317 123.804 280.508 124.958 279.966 124.849C279.966 124.849 278.86 124.603 278.726 124.388C278.726 124.388 280.465 120.914 278.129 118.705C276.744 117.399 273.575 115.875 270.691 120.76C270.691 120.76 252.226 111.455 250.861 111.071C250.861 111.071 250.414 110.747 250.893 109.998C250.893 109.998 251.008 109.774 251.121 109.489C251.121 109.489 268.769 115.729 270.993 118.487C270.993 118.487 274.595 115.098 278.181 117.987C279.144 118.761 279.781 119.868 279.964 121.09C279.964 121.09 280.74 123.053 281.708 123.093C281.723 123.095 281.738 123.098 281.752 123.104Z" fill="#CC0000"/>
<path d="M248.94 99.8677C248.94 99.8677 253.593 100.99 255.115 100.685C255.115 100.685 251.617 101.062 253.051 101.619C261.035 104.723 278.765 112.639 278.747 112.683C278.338 113.659 248.371 100.149 248.371 100.149C248.371 100.149 248.898 100.228 248.94 99.8677Z" fill="#E83535"/>
<path d="M243.022 99.7683C243.022 99.7683 245.602 101.227 248.31 100.223C248.335 100.216 248.359 100.206 248.382 100.195L248.444 100.172C249.566 100.14 248.43 99.161 248.43 99.161L248.418 99.1466L248.193 99.0993C246.911 98.822 245.92 98.5384 245.92 98.5384C245.84 98.5232 245.753 98.5104 245.672 98.5023C245.293 98.453 244.908 98.4756 244.537 98.5688C244.477 98.5849 244.419 98.6025 244.363 98.6217C243.783 98.814 243.302 99.2256 243.022 99.7683Z" fill="#FFDCDC"/>
<path d="M270.994 118.487C269.86 119.551 269.031 118.913 269.031 118.913L263.401 116.061L253.123 110.853C252.929 110.809 252.742 110.737 252.567 110.64L252.229 109.891C252.229 109.891 267.942 115.295 270.917 118.409C270.939 118.44 270.966 118.464 270.994 118.487Z" fill="#CC0000"/>
<path d="M267.8 107.975C267.526 108.696 267.208 109.4 266.846 110.081C266.495 110.757 266.125 111.418 265.736 112.069C265.346 112.72 264.95 113.36 264.547 113.998C264.346 114.318 264.143 114.634 263.946 114.959C263.738 115.278 263.56 115.614 263.413 115.965C263.386 115.767 263.388 115.566 263.418 115.369C263.429 115.269 263.45 115.173 263.466 115.075C263.483 114.976 263.511 114.882 263.534 114.785C263.636 114.408 263.762 114.037 263.912 113.675C264.207 112.962 264.555 112.271 264.954 111.61C265.346 110.949 265.777 110.312 266.245 109.703C266.71 109.082 267.231 108.503 267.8 107.975Z" fill="#E83535"/>
<path d="M277.203 109.921C276.945 110.558 276.891 111.26 277.049 111.929L277.241 112.016C277.393 112.083 277.542 112.151 277.689 112.218H277.694L277.854 112.29L277.934 112.325L278.491 112.58L278.703 112.678L278.722 112.687L278.737 112.694C279.465 113.03 280.14 113.351 280.75 113.65C281.316 113.927 281.853 114.261 282.353 114.645C282.758 114.958 283.247 115.311 283.483 115.39H283.491C283.462 115.303 283.431 115.216 283.399 115.127C283.388 115.098 283.378 115.068 283.366 115.038C283.349 114.99 283.331 114.943 283.313 114.895C283.304 114.871 283.295 114.847 283.285 114.823V114.816C283.213 114.624 283.144 114.431 283.079 114.237C283.071 114.214 283.063 114.191 283.055 114.167C281.451 112.598 280.095 110.793 279.035 108.816C278.546 108.663 278.544 109.437 278.035 109.397C277.879 109.373 277.719 109.39 277.572 109.447C277.386 109.542 277.28 109.734 277.203 109.921Z" fill="#FFC1C1"/>
<path d="M278.733 112.647C278.726 112.661 278.715 112.673 278.702 112.682C275.717 111.303 271.853 109.645 267.889 107.994C263.359 106.109 258.7 104.232 255.079 102.785V102.777C255.079 102.777 256.171 100.284 257.205 100.275C257.205 100.275 264.565 99.6002 271.361 103.418C273.591 104.671 280.064 108.018 279.614 109.487C279.619 109.491 278.99 112.138 278.733 112.647Z" fill="#E83535"/>
<path d="M271.844 104.59C271.193 105.488 269.219 108.223 269.128 108.426L276.208 111.572C276.208 111.572 278.477 110.381 278.788 108.955C278.826 108.78 274.696 105.635 272.361 104.456C272.273 104.413 272.173 104.402 272.078 104.427C271.983 104.451 271.9 104.509 271.844 104.59Z" fill="#DCEEF3"/>
<path d="M257.386 100.785C258.012 100.615 259.3 100.68 259.956 100.733C259.98 100.736 260.002 100.744 260.021 100.759C260.04 100.773 260.055 100.791 260.064 100.813C260.073 100.835 260.077 100.859 260.074 100.882C260.071 100.905 260.062 100.928 260.048 100.946C259.715 101.412 258.795 102.681 258.624 102.709C258.624 102.709 257.037 102.435 256.666 101.837C256.666 101.835 256.942 100.905 257.386 100.785Z" fill="white"/>
<path d="M259.1 102.014C259.1 102.014 259.123 103.376 258.379 103.582C258.379 103.582 256.757 103.061 257.248 101.979C257.252 101.975 257.813 101.07 259.1 102.014Z" fill="#FC7373"/>
<path d="M271.844 104.59C271.193 105.488 269.219 108.223 269.128 108.426L276.208 111.572C276.208 111.572 278.477 110.381 278.788 108.955C278.826 108.78 274.696 105.635 272.361 104.456C272.273 104.413 272.173 104.402 272.078 104.427C271.983 104.451 271.9 104.509 271.844 104.59Z" fill="white"/>
<g opacity="0.57">
<path opacity="0.57" d="M269.766 108.917L270.049 109.626L277.57 106.267L277.288 105.558L269.766 108.917Z" fill="white"/>
<path opacity="0.57" d="M270.915 110.003L271.546 111.583L279.067 108.224L278.437 106.643L270.915 110.003Z" fill="white"/>
</g>
<path d="M261.058 100.704C262.26 100.817 267.302 101.385 269.941 103.209C269.962 103.224 269.979 103.243 269.991 103.265C270.004 103.287 270.012 103.311 270.015 103.336C270.018 103.361 270.016 103.386 270.009 103.411C270.002 103.435 269.99 103.457 269.974 103.477C269.505 104.075 267.805 106.225 267.001 107.101C266.933 107.177 266.843 107.231 266.744 107.255C266.644 107.278 266.54 107.271 266.445 107.233L258.897 104.172L259.04 102.756L260.61 100.873C260.667 100.813 260.737 100.767 260.815 100.738C260.892 100.709 260.975 100.697 261.058 100.704Z" fill="white"/>
<g opacity="0.56">
<path opacity="0.56" d="M258.944 105.27L259.231 105.89L268.159 101.326L267.872 100.706L258.944 105.27Z" fill="white"/>
<path opacity="0.56" d="M260.522 105.949L261.64 108.365L270.568 103.802L269.451 101.385L260.522 105.949Z" fill="white"/>
</g>
<path d="M282.871 115.661C282.626 116.39 282.542 117.164 282.624 117.929C282.667 118.315 282.753 118.694 282.88 119.061C282.913 119.083 282.948 119.102 282.986 119.117C283.033 119.078 283.078 119.037 283.122 118.998L283.134 118.949C283.353 118.051 283.685 117.075 283.629 116.144C283.434 116.012 283.166 115.838 282.871 115.661Z" fill="white"/>
<path d="M244.362 98.6218C244.34 98.6726 244.315 98.726 244.288 98.7821C244.805 99.343 245.609 99.5577 246.371 99.5233C246.997 99.4952 247.602 99.3157 248.195 99.1034C246.913 98.8261 245.921 98.5425 245.921 98.5425C245.841 98.5273 245.755 98.5144 245.674 98.5064C245.295 98.4571 244.909 98.4796 244.538 98.5729C244.476 98.5849 244.418 98.6026 244.362 98.6218Z" fill="white"/>
<path opacity="0.58" d="M277.724 113.346C275.665 112.318 273.464 111.627 271.294 110.738C268.361 109.536 265.458 108.264 262.607 106.881C265.344 108.208 267.921 110.106 270.768 111.387C272.274 112.064 273.807 112.675 275.367 113.221C276.524 113.622 278.204 114.513 279.436 114.312C278.883 113.959 278.312 113.637 277.724 113.346Z" fill="white"/>
<path opacity="0.44" d="M222.114 59.5184L218.814 63.2772L218.14 64.044L216.76 65.6154V65.6162L202.867 81.4407V81.4415L201.453 83.052L195.897 89.379L195.012 90.3878L176.346 111.649L175.17 112.99L161.265 128.827L160.118 130.134L153.669 137.48L152.595 138.703L130.393 163.992L127.093 167.75H103.401L106.504 164.208L106.693 163.992L107.581 162.979L122.203 146.284L123.328 145L128.844 138.703L129.916 137.48L141.979 123.707L143.018 122.521L160.753 102.273L161.901 100.962L187.742 71.4607L188.953 70.0777L188.953 70.0769L194.91 63.2772L198.203 59.5184H222.114Z" fill="white"/>
<path opacity="0.44" d="M304.188 68.2531V161.352C304.188 164.887 301.248 167.75 297.622 167.75H219.52L222.719 163.992L292.831 81.6001L304.188 68.2531Z" fill="white"/>
<g opacity="0.57">
<path opacity="0.57" d="M194.204 163.992H100.143V63.2773H141.073C140.748 77.8999 141.548 92.5337 146.721 106.097C148.909 111.833 151.84 117.254 154.933 122.556C160.151 131.502 165.903 140.227 173.14 147.636C179.374 154.021 186.586 159.307 194.204 163.992Z" fill="#DCEEF3"/>
</g>
<path d="M117.103 82.2853L95.9496 104.117L93.2565 106.896L93.0241 107.136C93.0241 107.136 92.9776 107.095 92.8927 107.017C92.0594 106.248 87.5041 101.872 86.0161 96.875C85.5738 95.3902 85.4031 93.851 85.6812 92.3357C86.9929 85.1987 100.977 72.7845 104.912 73.5745C107.156 74.0232 110.81 76.7973 113.533 79.0962L113.551 79.1114L113.639 79.1851C114.069 79.5505 114.475 79.9014 114.847 80.2268C116.2 81.4183 117.103 82.2853 117.103 82.2853Z" fill="#E83535"/>
<path opacity="0.42" d="M93.5337 84.2051C94.089 84.7492 95.0169 84.5344 95.7164 84.1939C98.3526 82.9118 100.198 80.4679 101.941 78.1105C101.36 80.7242 100.084 83.1326 98.2484 85.0817C97.75 85.6098 97.1972 86.1114 96.5273 86.3934C95.9455 86.6386 95.3053 86.7051 94.6771 86.7692C94.2036 86.8173 93.6851 86.855 93.2925 86.5849C92.8574 86.2861 92.7228 85.7035 92.7316 85.1739C92.7297 84.6709 92.7797 84.169 92.8806 83.6763C93.1683 83.7844 93.3109 83.9872 93.5337 84.2051Z" fill="#760C0C"/>
<path d="M93.5633 82.8437C93.4536 83.2491 93.3053 83.645 93.1715 84.0352C93.0377 84.4254 92.9055 84.8196 92.8069 85.2115C92.7565 85.4026 92.7174 85.5966 92.69 85.7924C92.6626 85.9709 92.6593 86.1523 92.6803 86.3317C92.742 86.6698 92.8734 86.7483 93.2044 86.7756C93.3795 86.7804 93.5546 86.7645 93.726 86.7283C93.9137 86.6906 94.0994 86.643 94.2821 86.5857C94.6507 86.4662 95.0087 86.3163 95.3526 86.1378C96.0456 85.7614 96.688 85.2986 97.2644 84.7604C97.8547 84.2129 98.4033 83.622 98.9055 82.9927C99.4191 82.3645 99.8942 81.6987 100.356 81.0208C101.276 79.6586 102.107 78.2267 102.965 76.7884C102.475 78.3959 101.818 79.9477 101.004 81.4182C100.797 81.786 100.585 82.1514 100.353 82.5071C100.122 82.8629 99.8838 83.2131 99.6322 83.556C99.3806 83.899 99.105 84.2267 98.8245 84.552C98.5441 84.8773 98.2364 85.1794 97.9191 85.4735C97.5964 85.7659 97.2566 86.0389 96.9015 86.2908C96.5401 86.5425 96.1594 86.7651 95.7629 86.9567C95.3605 87.1467 94.9409 87.2975 94.5097 87.407C94.0802 87.5072 93.6355 87.5929 93.1266 87.5304C92.9913 87.5139 92.8588 87.4785 92.7332 87.4254C92.5919 87.3672 92.4638 87.2811 92.3566 87.1722C92.2507 87.0608 92.1703 86.9276 92.121 86.782C92.0779 86.6527 92.0547 86.5176 92.0521 86.3814C92.0496 86.1449 92.0812 85.9093 92.1459 85.6818C92.2047 85.4706 92.2764 85.2632 92.3606 85.0608C92.6916 84.2668 93.1443 83.5664 93.5633 82.8437Z" fill="#CC0000"/>
<path opacity="0.68" d="M114.849 80.23C109.437 87.8878 103.524 95.3317 97.1515 102.149L95.9495 104.117L94.4592 106.564C94.0521 106.655 93.6523 106.768 93.2572 106.896C93.1354 106.935 93.0142 106.976 92.8935 107.017C92.0601 106.248 87.5048 101.872 86.0168 96.875C88.4031 97.1154 90.9471 96.4039 93.1899 95.3678C97.2933 93.4728 99.8934 89.9664 103.294 87.1539C106.649 84.3798 110.096 81.7236 113.637 79.1851C114.071 79.5505 114.477 79.9015 114.849 80.23Z" fill="#760C0C"/>
<path d="M131.642 88.1411C130.521 90.5615 129.243 92.9055 127.814 95.1579C125.386 99.0281 122.34 103.091 118.786 107.086C115.879 110.369 112.742 113.443 109.4 116.282C100.304 123.958 91.7718 127.668 87.8134 125.162C87.6216 125.04 87.4399 124.903 87.2702 124.753C82.3976 120.418 88.6091 105.482 101.144 91.3911C113.678 77.2997 127.789 69.391 132.661 73.7276C135.281 76.0593 134.696 81.4592 131.642 88.1411Z" fill="#E83535"/>
<path d="M131.642 88.141C130.521 90.5614 129.242 92.9054 127.814 95.1579C125.645 96.2228 123.6 97.5866 121.607 98.9239C119.961 100.03 118.122 100.986 116.84 102.502C115.521 104.061 113.544 105.81 112.612 107.603C111.944 108.885 111.655 110.627 111.17 112.025C110.609 113.448 110.038 114.883 109.4 116.281C100.304 123.956 91.7716 127.667 87.8132 125.16C86.7972 124.519 90.3613 114.167 90.7908 112.923C92.2102 108.777 94.0773 104.798 96.3589 101.056C100.986 93.5161 107.37 87.6435 114.994 83.2276C117.256 81.9175 119.761 80.7708 122.366 80.9223C125.343 81.0946 128.012 82.9672 129.841 85.3205C130.522 86.2067 131.124 87.1504 131.642 88.141Z" fill="#CC0000"/>
<path d="M143.37 215.656L143.353 215.841C143.353 215.851 143.353 215.861 143.353 215.872V215.841C142.881 215.812 142.408 215.78 141.934 215.75L141.624 215.729C137.607 215.464 133.576 215.127 129.547 214.687C117.5 213.386 105.486 211.204 94.0024 207.42C91.0109 206.434 88.0582 205.335 85.1442 204.123C84.2959 203.769 83.4516 203.405 82.6114 203.029L82.5801 203.015L82.5392 202.997L82.3157 202.897L82.0873 202.793L81.9118 202.713L81.8365 202.679C81.5721 202.558 81.3088 202.437 81.0465 202.313L80.9776 202.28C75.726 199.815 70.7266 196.846 66.0497 193.413C63.4994 191.542 61.0487 189.539 58.7075 187.412C64.6795 175.353 74.403 152.149 78.9118 144.253C79.2844 143.601 79.621 143.051 79.9175 142.624C80.1154 142.339 80.3317 142.043 80.5657 141.743C81.4858 140.574 82.4671 139.454 83.5056 138.389C83.8181 138.062 84.1402 137.732 84.4719 137.4C87.6322 134.224 91.1314 131.672 95.1146 129.573C97.7949 128.16 102.553 125.233 105.745 126.314C108.079 127.106 109.719 130.49 111.49 132.111C117.691 137.785 125.22 144.756 129.474 148.978L129.576 149.08C130.266 149.766 130.867 150.377 131.357 150.896C132.135 151.718 132.639 152.307 132.783 152.591C132.887 152.825 132.976 153.066 133.05 153.312C133.103 153.472 133.162 153.663 133.224 153.873C133.234 153.903 133.244 153.934 133.252 153.966C133.281 154.06 133.31 154.159 133.341 154.261C133.351 154.296 133.361 154.331 133.371 154.367C133.392 154.437 133.413 154.509 133.434 154.583C133.445 154.62 133.456 154.658 133.467 154.698C133.478 154.738 133.489 154.778 133.5 154.813C133.534 154.93 133.567 155.054 133.603 155.177C133.673 155.427 133.747 155.692 133.823 155.978C133.874 156.166 133.927 156.36 133.983 156.562C134.143 157.151 134.312 157.797 134.492 158.492C134.532 158.647 134.572 158.805 134.613 158.964C134.714 159.363 134.819 159.778 134.927 160.208C135.178 161.204 135.442 162.278 135.718 163.417C135.809 163.798 135.902 164.186 135.996 164.582C136.238 165.597 136.486 166.658 136.739 167.766C136.837 168.189 136.935 168.619 137.033 169.055C137.06 169.175 137.087 169.296 137.113 169.415C137.248 170.018 137.385 170.629 137.522 171.25L137.683 172.001C137.716 172.149 137.748 172.299 137.78 172.448C137.845 172.746 137.91 173.046 137.975 173.349C138.203 174.406 138.43 175.483 138.658 176.579C138.755 177.048 138.852 177.52 138.949 177.994C139.045 178.47 139.141 178.946 139.237 179.425C140.062 183.553 140.849 187.839 141.517 192.037C141.709 193.236 141.89 194.426 142.06 195.608C142.075 195.705 142.088 195.801 142.102 195.899C142.115 195.997 142.131 196.098 142.145 196.196C143.221 203.778 143.799 210.784 143.37 215.656Z" fill="#E83535"/>
<path d="M143.37 215.656C143.365 215.717 143.359 215.779 143.353 215.841C142.881 215.812 142.407 215.78 141.934 215.75L141.623 215.729C139.22 215.569 136.813 215.382 134.404 215.168C132.785 215.023 131.166 214.863 129.547 214.687C130.226 209.386 130.602 201.423 128.841 192.437C127.083 183.462 122.492 174.893 117.849 167.504C114.125 161.579 110.369 156.413 108.015 152.407C103.797 145.228 105.168 142.661 106.101 138.793C106.372 137.711 106.548 136.609 106.626 135.497C107.014 129.53 101.674 123.266 101.344 122.884L101.339 122.879L101.332 122.87C101.497 123.019 105.329 126.476 110.268 130.982L111.487 132.104C113.588 134.027 115.842 136.097 118.068 138.16C122.415 142.186 126.661 146.18 129.474 148.973L129.518 149.018C129.539 149.037 129.558 149.056 129.576 149.075C130.266 149.761 130.866 150.372 131.357 150.89L131.369 150.902C132.14 151.718 132.638 152.302 132.782 152.585C132.886 152.82 132.975 153.06 133.049 153.306C133.102 153.466 133.161 153.657 133.224 153.867C133.233 153.897 133.243 153.928 133.252 153.96C133.28 154.055 133.31 154.153 133.34 154.256C133.35 154.29 133.361 154.325 133.37 154.361C133.392 154.431 133.412 154.503 133.434 154.578C133.445 154.615 133.455 154.652 133.466 154.691C133.477 154.729 133.488 154.771 133.499 154.806C133.534 154.923 133.567 155.047 133.602 155.168C133.672 155.418 133.746 155.684 133.822 155.965C133.874 156.151 133.926 156.346 133.982 156.547C134.143 157.135 134.311 157.781 134.491 158.477C134.531 158.631 134.571 158.789 134.612 158.949C134.714 159.348 134.819 159.763 134.928 160.192C135.178 161.188 135.442 162.263 135.717 163.402C135.809 163.783 135.901 164.171 135.995 164.565C136.236 165.582 136.486 166.648 136.738 167.748C136.836 168.171 136.934 168.6 137.032 169.035C137.059 169.155 137.087 169.276 137.112 169.395C137.247 169.998 137.384 170.609 137.522 171.23C137.575 171.478 137.629 171.728 137.682 171.979C137.715 172.127 137.747 172.277 137.78 172.426C137.845 172.724 137.91 173.025 137.974 173.327C138.202 174.384 138.43 175.46 138.657 176.556C138.754 177.025 138.851 177.497 138.948 177.971C139.044 178.446 139.14 178.922 139.236 179.402C140.061 183.53 140.849 187.816 141.516 192.014C141.709 193.216 141.891 194.405 142.059 195.585C142.074 195.682 142.087 195.778 142.101 195.876C142.115 195.974 142.131 196.075 142.144 196.173C143.221 203.778 143.799 210.784 143.37 215.656Z" fill="#FF9F33"/>
<path d="M134.624 218.177C129.168 215.507 129.714 214.233 130.049 208.773C130.386 203.345 129.889 197.767 128.841 192.439C128.645 191.44 128.415 190.447 128.152 189.459C127.636 185.203 126.749 181.001 125.501 176.9C123.233 169.448 119.789 162.385 116.881 155.163C116.732 152.183 116.649 149.199 116.649 146.211C116.649 144.172 116.698 142.082 117.265 140.139C117.389 139.71 117.541 139.288 117.72 138.878C117.827 138.632 117.944 138.393 118.068 138.157C122.415 142.183 126.661 146.176 129.474 148.97L129.519 149.014C129.539 149.034 129.558 149.053 129.577 149.073C130.267 149.759 130.867 150.369 131.358 150.888L131.37 150.9C130.233 160.199 129.956 169.949 131.421 179.055C133.238 190.347 129.177 209.835 142.92 214.932C143.721 215.23 144.75 216.054 144.177 216.695C144.047 216.84 143.857 216.917 143.674 216.986C140.068 218.339 137 219 134.624 218.177Z" fill="#FD8600"/>
<path d="M128.842 192.439C128.842 192.439 128.5 191 128.151 189.459C127.636 185.203 126.749 181.001 125.501 176.9C123.232 169.448 119.789 162.385 116.881 155.163C115.131 150.82 113.575 146.418 112.584 141.841C111.628 137.423 112.093 135.555 112.504 131.053C112.31 133.2 115.211 137.092 117.269 140.139C118.027 141.261 118.671 142.271 119.005 143.034C120.794 147.137 122.583 151.413 123.973 155.705C127.979 168.064 128.8 180.144 128.842 192.439Z" fill="white"/>
<path d="M117.859 90.3646C118.351 93.5385 119.257 96.8967 118.015 99.859C116.949 102.404 114.34 104.631 114.936 107.325C115.368 109.273 117.328 110.44 118.445 112.093C119.688 113.931 119.875 116.763 118.59 118.644C117.348 120.46 115.842 120.375 114.032 120.875C115.611 120.439 116.859 118.991 117.058 117.366C117.539 113.44 113.292 112.283 111.902 109.387C110.548 106.561 112.09 103.245 112.009 100.112C111.922 96.738 109.73 93.5088 106.626 92.1843C106.719 91.2877 106.874 90.3986 107.09 89.5233C108.236 88.3678 109.388 87.3045 110.51 86.3526C112.49 84.6699 114.632 83.093 117.103 82.2853C117.989 81.9935 118.91 81.8213 119.841 81.7733C117.548 83.7276 117.388 87.3278 117.859 90.3646Z" fill="white" stroke="black" stroke-width="4" stroke-miterlimit="10"/>
<path d="M132.272 158.974C131.746 158.628 131.608 157.924 131.587 157.292C131.506 155.016 132.324 152.793 133.43 150.801C133.947 149.865 134.533 148.958 134.914 147.958C135.761 145.733 135.315 142.366 133.632 140.614C132.564 139.502 131.007 138.956 129.958 137.826C128.023 135.743 128.415 132.509 128.996 129.7C128.939 129.72 128.881 129.527 128.996 129.7C129.02 129.736 129.052 129.789 129.094 129.861C128.841 132.039 130.13 132.631 131.877 133.128C132.346 133.262 132.838 133.398 133.319 133.313C133.8 133.228 134.269 132.859 134.294 132.37C133.77 132.812 132.956 132.74 132.371 132.385C127.978 129.73 133.119 121.912 133.08 118.15C133.067 117.147 132.874 116.154 132.51 115.22C132.471 115.116 132.43 115.014 132.386 114.913V114.907C132.343 114.808 132.298 114.708 132.252 114.611C132.039 114.163 131.787 113.734 131.5 113.329C131.468 113.284 131.436 113.238 131.403 113.194L131.315 113.076L131.3 113.057L131.208 112.939C131.205 112.937 131.203 112.934 131.201 112.931C131.192 112.918 131.182 112.907 131.172 112.894C130.808 112.441 130.397 112.028 129.946 111.663C130.101 110.89 130.161 110.1 130.126 109.313C130.059 107.881 129.682 106.632 129.433 104.817C129.377 104.417 129.333 104.01 129.296 103.603C129.162 102.136 129.135 100.649 129.135 99.1739C129.135 98.6587 129.135 98.1443 129.135 97.6339C129.135 98.2364 129.43 98.7885 129.881 99.2364C129.924 99.2797 129.968 99.3214 130.014 99.363C130.746 100.018 131.806 100.422 132.688 100.384C132.879 100.377 133.07 100.345 133.253 100.289C132.946 100.363 132.563 99.9119 132.152 99.1531C131.271 97.5297 130.254 94.4992 129.552 92.2428C129.113 90.8294 128.797 89.7212 128.716 89.4512C127.958 86.9496 126.8 84.3919 124.615 82.9544C124.52 82.8911 124.423 82.831 124.324 82.7733C124.146 82.6664 123.965 82.5708 123.779 82.4864C123.462 82.3363 123.135 82.2101 122.8 82.109C121.919 81.8469 121.001 81.7281 120.083 81.7573C120.002 81.7573 119.922 81.7621 119.848 81.7653C118.916 81.8136 117.996 81.9858 117.11 82.2773C117.06 82.2933 117.01 82.3093 116.961 82.3278L116.943 82.3334L116.829 82.3726L116.687 82.4247C116.639 82.4416 116.591 82.4608 116.543 82.4784L116.51 82.4912C116.455 82.5121 116.401 82.5329 116.349 82.5553C116.339 82.5587 116.328 82.563 116.318 82.5682L116.171 82.6274L116.145 82.6379L116.088 82.6627C116.035 82.6851 115.982 82.7076 115.928 82.7308L115.688 82.8374C115.629 82.8646 115.571 82.8911 115.514 82.9175C115.378 82.9822 115.245 83.0489 115.114 83.1178L114.915 83.222L114.715 83.3302L114.704 83.3366C114.643 83.3702 114.583 83.4039 114.523 83.4391C114.449 83.4808 114.375 83.5193 114.301 83.5666H114.296C114.241 83.5986 114.189 83.6299 114.135 83.6627C114.055 83.71 113.975 83.7589 113.899 83.8077C113.807 83.8646 113.716 83.9223 113.625 83.9808C113.558 84.0241 113.491 84.0682 113.425 84.113C113.358 84.1579 113.313 84.1867 113.256 84.2244L113.176 84.2805L113.006 84.3983C112.918 84.46 112.829 84.5225 112.741 84.5858L112.719 84.6018C112.631 84.6651 112.543 84.7284 112.457 84.7925C112.396 84.8366 112.336 84.8815 112.276 84.9271L112.095 85.0633L111.948 85.1771C111.877 85.2308 111.808 85.2853 111.739 85.3374C111.684 85.3791 111.632 85.4175 111.579 85.464L111.57 85.4704C111.41 85.6018 111.241 85.734 111.079 85.871C111.016 85.9231 110.954 85.9744 110.891 86.0313C110.766 86.1355 110.641 86.2399 110.518 86.3446C110.377 86.4632 110.236 86.585 110.095 86.7076L109.9 86.8766C109.75 87.0089 109.599 87.1427 109.446 87.2773C109.349 87.3638 109.252 87.452 109.155 87.5401C108.933 87.742 108.711 87.948 108.487 88.1587C108.454 88.19 108.422 88.2212 108.388 88.2517L108.093 88.5417C107.976 88.6555 107.857 88.7693 107.74 88.8847L107.579 89.0377C107.514 89.1002 107.449 89.1651 107.384 89.23L107.09 89.5241C103.545 93.0962 100.055 97.5465 97.7148 102.297C97.7148 103.641 96.1667 105.848 95.7677 107.226C95.593 107.832 95.4327 108.444 95.2869 109.062C94.5978 111.938 94.1571 114.918 93.5048 117.787C92.6234 121.649 92.5433 125.778 94.0129 129.511C94.4472 130.61 95.0089 131.663 95.3141 132.805C95.9792 135.289 95.2941 138.099 93.5585 140.002C94.2965 139.194 95.2869 138.91 96.3182 138.66C97.7869 138.307 99.3382 138.019 100.357 136.389C101.673 134.28 101.187 131.607 101.781 129.307C103.958 132.58 104.694 135.215 106.099 138.797C106.651 140.206 107.404 141.482 108.571 142.49C109.654 143.426 110.997 144.019 112.117 144.903C112.24 145.001 112.361 145.102 112.478 145.207C115.982 148.345 113.385 153.051 116.332 156.461C117.147 157.404 118.36 158.18 119.457 158.726C119.962 158.977 121.013 159.149 121.961 159.355C122.752 159.527 123.474 159.722 123.742 160.007C122.433 158.621 123.865 157.028 125.446 155.691C126.568 154.744 127.756 153.928 128.11 153.397C128.911 152.195 129.41 150.661 129.573 149.076C129.724 147.627 129.594 146.139 129.157 144.838C129.009 144.392 128.818 143.961 128.586 143.551C129.027 143.883 129.428 144.266 129.779 144.692C131.898 147.248 131.397 149.715 130.93 152.673C130.652 154.449 130.542 157.836 132.272 158.974ZM128.996 129.701C129.016 129.603 129.037 129.506 129.057 129.41C129.054 129.62 129.026 129.692 128.996 129.703V129.701Z" fill="#413E42"/>
<path opacity="0.45" d="M108.809 118.204C106.852 115.56 105.793 111.705 106.619 108.471C107.251 105.998 107.328 100.929 109.456 99.2493C107.873 100.498 106.276 101.761 105.001 103.324C102.329 106.598 102.677 109.734 103.302 113.647C103.679 116.009 104.413 118.468 106.209 120.048C107.162 120.886 108.373 121.432 109.189 122.399C111.619 125.262 109.684 129.251 110.456 132.503C110.783 133.878 111.756 135.196 113.138 135.501C111.944 133.938 110.974 131.192 111.055 129.226C111.153 126.928 112.176 124.607 111.535 122.397C111.076 120.784 109.809 119.551 108.809 118.204Z" fill="#070208"/>
<path d="M97.5474 206.986C99.6547 208.877 101.954 208.817 104.563 208.579C106.841 208.372 109.063 209.091 111.398 208.996C115.128 208.844 120.5 207.014 122.167 203.377C123.308 200.885 122.992 197.984 122.434 195.301C121.476 190.701 119.883 186.256 117.7 182.096C114.902 188.713 106.402 187.224 100.676 186.877C101.015 190.507 100.125 194.183 99.847 197.818C99.569 201.454 99.4216 203.857 97.5474 206.986Z" fill="#CC0000"/>
<path d="M97.5474 206.986C97.7565 207.146 97.948 207.306 98.1643 207.444C98.2675 207.518 98.3745 207.586 98.4849 207.649C98.5962 207.711 98.7044 207.779 98.819 207.836C99.2721 208.066 99.752 208.239 100.248 208.352C100.741 208.465 101.245 208.529 101.751 208.545C102.259 208.558 102.767 208.543 103.273 208.502C103.527 208.483 103.781 208.458 104.035 208.434C104.289 208.41 104.54 208.377 104.805 208.354C105.327 208.314 105.851 208.309 106.373 208.338C107.415 208.39 108.436 208.534 109.447 208.619C109.952 208.66 110.455 208.686 110.954 208.678C111.455 208.666 111.954 208.626 112.45 208.559C113.445 208.42 114.427 208.196 115.384 207.889C116.338 207.588 117.259 207.195 118.136 206.715C119.001 206.246 119.792 205.652 120.483 204.952C120.815 204.607 121.11 204.229 121.365 203.823C121.429 203.724 121.482 203.618 121.543 203.516C121.603 203.414 121.647 203.304 121.703 203.196C121.759 203.087 121.794 202.974 121.841 202.864C121.862 202.808 121.888 202.753 121.907 202.696L121.964 202.525L122.022 202.354L122.051 202.268L122.074 202.181L122.167 201.831C122.216 201.591 122.272 201.358 122.302 201.116C122.333 200.874 122.361 200.635 122.382 200.39C122.393 200.145 122.412 199.901 122.41 199.654C122.407 199.407 122.402 199.161 122.396 198.914C122.389 198.667 122.368 198.419 122.34 198.171C122.312 197.924 122.285 197.675 122.254 197.428C122.224 197.18 122.183 196.933 122.138 196.685C122.053 196.189 121.956 195.694 121.846 195.199C121.791 194.951 121.739 194.703 121.68 194.455L121.503 193.715C120.523 189.769 119.077 185.954 117.196 182.349L118.212 182.307C117.88 183.089 117.435 183.818 116.891 184.47C116.34 185.123 115.688 185.683 114.959 186.129C114.239 186.563 113.464 186.9 112.656 187.132C111.864 187.361 111.054 187.522 110.235 187.613C108.611 187.799 106.992 187.773 105.394 187.682C103.797 187.591 102.214 187.409 100.644 187.291L101.091 186.829C101.157 187.701 101.166 188.576 101.119 189.45C101.075 190.318 100.982 191.179 100.873 192.034C100.653 193.744 100.365 195.43 100.163 197.12C100.066 197.963 99.9945 198.821 99.8983 199.675L99.823 200.316L99.7373 200.957C99.6708 201.383 99.5986 201.809 99.5073 202.231C99.3306 203.077 99.0766 203.904 98.7485 204.704C98.4171 205.499 98.0151 206.262 97.5474 206.986ZM97.5474 206.986C97.9659 206.24 98.3201 205.46 98.6059 204.655C98.8858 203.851 99.0931 203.025 99.2252 202.184C99.3599 201.346 99.4336 200.498 99.4929 199.647C99.5522 198.796 99.5866 197.942 99.6491 197.083C99.7116 196.223 99.8094 195.368 99.9047 194.518C100 193.669 100.102 192.818 100.182 191.971C100.262 191.124 100.321 190.277 100.342 189.434C100.368 188.596 100.339 187.757 100.256 186.922L100.205 186.434L100.703 186.46C102.301 186.54 103.878 186.678 105.45 186.738C107.023 186.798 108.588 186.805 110.117 186.607C110.875 186.512 111.624 186.353 112.354 186.131C113.07 185.913 113.755 185.605 114.393 185.215C115.019 184.826 115.578 184.339 116.048 183.772C116.516 183.2 116.899 182.562 117.184 181.88L117.65 180.789L118.2 181.838C120.138 185.516 121.611 189.421 122.586 193.463L122.761 194.221C122.819 194.474 122.87 194.729 122.922 194.982C123.028 195.49 123.128 196.003 123.208 196.522C123.251 196.78 123.283 197.041 123.318 197.301C123.353 197.562 123.379 197.825 123.398 198.089C123.418 198.353 123.433 198.618 123.447 198.882C123.462 199.147 123.46 199.414 123.447 199.683C123.434 199.953 123.423 200.219 123.406 200.485C123.375 200.752 123.352 201.02 123.302 201.286C123.264 201.553 123.199 201.817 123.142 202.082L123.031 202.474L123.004 202.572L122.97 202.669L122.902 202.862L122.835 203.055C122.812 203.119 122.782 203.181 122.755 203.244C122.7 203.369 122.65 203.496 122.595 203.621C122.539 203.746 122.472 203.87 122.404 203.991C122.336 204.112 122.267 204.232 122.192 204.347C121.895 204.808 121.547 205.235 121.156 205.619C120.385 206.366 119.507 206.995 118.551 207.484C117.614 207.969 116.632 208.361 115.619 208.655C114.611 208.95 113.579 209.152 112.535 209.259C112.011 209.314 111.484 209.338 110.958 209.333C110.43 209.323 109.907 209.279 109.391 209.22C108.358 209.103 107.351 208.91 106.346 208.819C105.845 208.77 105.341 208.754 104.837 208.772C104.589 208.78 104.329 208.8 104.072 208.816C103.816 208.831 103.556 208.844 103.297 208.849C102.778 208.865 102.259 208.853 101.741 208.814C101.222 208.771 100.708 208.678 100.207 208.536C99.7067 208.393 99.2266 208.188 98.7781 207.925C98.666 207.861 98.5602 207.785 98.4512 207.716C98.3429 207.646 98.2384 207.571 98.1379 207.49C97.9264 207.337 97.7357 207.148 97.5474 206.986Z" fill="#9C1A1A"/>
<path d="M103.833 160.088C103.728 163.042 102.808 165.898 101.896 168.709L98.7708 178.343C97.1579 183.311 95.4431 188.208 92.085 192.298C89.1306 195.896 85.5016 199.262 82.5818 203.019L82.5409 203.001L82.089 202.797L81.9135 202.717L81.8382 202.683C81.5738 202.562 81.3104 202.441 81.0481 202.317L80.9792 202.284C81.0714 201.758 81.1571 201.232 81.2436 200.709C82.2412 194.619 82.8005 188.732 84.629 182.804C84.7092 184.121 84.8222 185.541 85.6795 186.542C89.0161 190.441 93.7668 179.605 94.9247 177.629C97.1811 173.778 99.3574 169.708 99.7596 165.264C99.9696 162.932 99.6795 160.588 99.3934 158.266C98.9856 154.981 98.5465 151.599 96.8958 148.731C95.0665 145.555 91.7821 143.273 88.1787 142.596C85.0289 142.005 81.6803 142.633 78.9143 144.252C79.2869 143.599 79.6234 143.05 79.9199 142.623C80.1178 142.337 80.3342 142.041 80.5682 141.741C81.4883 140.572 82.4696 139.452 83.5081 138.387C83.6964 138.355 83.8871 138.333 84.0762 138.318C87.504 138.051 90.7668 139.805 93.5184 141.865C99.3277 146.217 104.087 152.832 103.833 160.088Z" fill="#CC0000"/>
<path d="M84.4679 182.305L82.7788 199.626L82.6105 201.356L82.5384 201.324L82.4286 202.455C82.302 202.014 82.188 201.569 82.0865 201.12L81.911 201.04C81.8837 200.901 81.857 200.761 81.8309 200.621C81.3523 197.851 81.3455 195.02 81.8108 192.248C82.1313 190.377 82.6554 188.549 83.1842 186.725C83.6126 185.252 84.0405 183.779 84.4679 182.305Z" fill="#BB1010"/>
<path d="M107.206 174.639C104.587 180.939 101.935 186.942 97.831 192.391C95.5617 195.405 93.5569 196.954 93.0145 200.944C92.7188 203.119 92.9776 205.539 93.9984 207.424C91.007 206.438 88.0543 205.339 85.1403 204.127C84.292 203.773 83.4477 203.409 82.6074 203.033L82.5762 203.019L82.5353 203.001L82.3118 202.901C83.0329 199.878 89.4287 194.092 90.8606 192.083C97.21 183.164 101.728 172.933 103.982 162.219C104.802 158.317 103.636 157.197 102.744 153.31C101.853 149.423 100.661 144.24 98.8831 140.67C100.834 142.175 102.409 144.132 103.665 146.25C108.323 154.078 110.817 165.945 107.206 174.639Z" fill="#CC0000"/>
<path d="M100.116 185.889C99.613 186.7 99.0762 187.524 98.5056 188.363C95.5321 192.732 91.6042 197.487 86.4696 202.706C86.1672 203.013 85.8609 203.321 85.5505 203.631L85.1435 204.13C84.2711 203.766 83.4028 203.391 82.5385 203.004L82.0866 202.8L81.8358 202.687C81.5714 202.567 81.308 202.445 81.0457 202.321C81.3037 202.07 81.5665 201.808 81.8342 201.535C82.1467 201.215 82.4632 200.884 82.7789 200.539C84.5417 198.621 86.3358 196.325 87.6082 193.842C90.3382 188.52 97.0561 175.902 99.9584 168.252C100.773 166.103 101.288 164.345 101.327 163.252C101.505 158.27 100.788 148.279 93.2028 142.276C93.2028 142.276 85.1699 139.304 80.5658 141.744C80.1131 141.98 79.6943 142.277 79.3206 142.625L81.5585 139.137C81.5585 139.137 82.2837 137.949 84.472 137.401C85.7837 137.071 87.6202 136.971 90.1427 137.496C96.8734 138.894 101.855 139.478 104.913 151.365C107.189 160.2 109.604 170.583 100.116 185.889Z" fill="#49B89D"/>
<path d="M132.146 99.161C131.393 99.2581 130.633 99.285 129.875 99.2411C129.624 99.2275 129.374 99.2051 129.125 99.1762C128.532 99.106 127.944 98.9925 127.367 98.8365L123.55 89.5833C124.305 87.4017 124.567 85.0801 124.317 82.7852C124.417 82.8429 124.514 82.903 124.609 82.9663C126.793 84.4038 127.952 86.9615 128.709 89.4631C128.789 89.7331 129.11 90.8413 129.546 92.2547C130.248 94.5071 131.263 97.5376 132.146 99.161Z" fill="#070208"/>
<path d="M131.195 112.937C131.019 113.504 130.774 114.048 130.465 114.555C130.063 115.215 129.483 115.749 128.791 116.094C127.329 116.835 125.404 116.823 123.477 116.48C122.996 116.395 122.524 116.289 122.055 116.171C121.14 115.938 120.252 115.652 119.442 115.361C119.006 115.2 118.593 115.045 118.211 114.893C117.995 114.807 117.789 114.723 117.595 114.642C117.407 114.573 117.229 114.477 117.068 114.357C116.142 113.601 115.925 111.86 115.286 110.857C114.811 110.111 114.164 109.587 113.834 108.742C112.792 106.098 114.738 104.036 115.367 101.611C115.857 99.7204 115.957 97.6739 115.268 95.8478C115.008 95.1565 114.628 94.5164 114.146 93.9568C113.704 93.4455 113.024 93.1555 112.605 92.6747C111.84 91.7981 112.034 90.0056 112.477 89.0201C112.941 87.9888 113.421 86.9664 113.972 85.9752C114.39 85.2116 114.86 84.478 115.379 83.7797C116.901 81.7685 118.504 80.8654 120.123 81.7925C120.306 81.8971 120.482 82.0127 120.65 82.1387C122.941 83.8366 124.897 87.7476 126.127 89.964C126.321 90.3133 126.511 90.6651 126.696 91.0193C128.779 95.0153 130.266 99.3622 130.994 103.806C131.451 106.603 132.097 110.074 131.195 112.937Z" fill="#FCDCCD"/>
<path d="M126.694 91.0176C125.176 92.1522 123.56 93.4214 122.335 94.7515C117.864 99.6065 117.886 109.34 119.442 115.36C119.006 115.2 118.593 115.045 118.211 114.893C117.995 114.807 117.789 114.723 117.595 114.642C117.407 114.573 117.229 114.477 117.068 114.356C116.142 113.601 115.925 111.86 115.286 110.857C114.811 110.11 114.164 109.587 113.834 108.742C112.792 106.098 114.738 104.036 115.367 101.61C115.857 99.7203 115.957 97.6738 115.268 95.8477C114.977 95.0778 114.538 94.372 113.977 93.77C112.827 92.5408 113.003 90.5849 114.392 89.6329L114.478 89.5752L113.97 85.9775L113.792 84.7187C114.305 84.3853 114.834 84.0704 115.377 83.782C117.026 82.9086 118.807 82.2828 120.648 82.141C122.939 83.8389 124.895 87.7499 126.126 89.9663C126.32 90.313 126.509 90.6634 126.694 91.0176Z" fill="#F2AD94"/>
<path opacity="0.45" d="M108.711 87.9527C108.857 87.8172 109.003 87.6826 109.148 87.552C109.244 87.4639 109.341 87.3757 109.438 87.2892C109.591 87.1514 109.742 87.0176 109.892 86.8885L110.087 86.7195C110.228 86.5961 110.369 86.4791 110.51 86.3565C110.633 86.2497 110.758 86.1452 110.883 86.0432C110.946 85.9903 111.008 85.939 111.071 85.8829C111.232 85.7491 111.398 85.6169 111.562 85.4823L111.571 85.4759L111.723 85.3549C111.766 85.322 111.81 85.2892 111.853 85.2547C111.881 85.2307 111.911 85.2091 111.94 85.1866L112.087 85.0728L112.268 84.9366C112.328 84.891 112.388 84.8461 112.449 84.802C112.535 84.7379 112.623 84.6746 112.711 84.6113L112.733 84.5953C112.821 84.532 112.91 84.4695 112.999 84.4078L113.168 84.29L113.249 84.2339C113.305 84.1962 113.361 84.1586 113.417 84.1225C113.473 84.0865 113.55 84.0336 113.617 83.9903C113.708 83.9318 113.799 83.8741 113.891 83.8172C113.971 83.7684 114.051 83.7195 114.128 83.6722C114.18 83.6394 114.232 83.6081 114.288 83.5761H114.293C114.367 83.5328 114.441 83.4903 114.515 83.4486C114.575 83.4134 114.636 83.3797 114.696 83.3461L114.707 83.3397L114.907 83.2315L115.106 83.1273C115.239 83.0584 115.372 82.9917 115.507 82.927C115.563 82.899 115.621 82.8725 115.68 82.8469L115.92 82.7403C115.971 82.7171 116.024 82.6946 116.08 82.6722L116.137 82.6474L116.163 82.637L116.31 82.5776C116.32 82.5725 116.331 82.5682 116.341 82.5648C116.396 82.5424 116.45 82.5216 116.502 82.5007L116.535 82.4879C116.583 82.4703 116.631 82.4511 116.679 82.4342L116.821 82.3821L116.935 82.3429L116.953 82.3373C117.003 82.3188 117.052 82.3028 117.102 82.2868C117.988 81.9953 118.909 81.8231 119.84 81.7748C119.92 81.7748 120 81.7684 120.075 81.7668C120.993 81.7376 121.911 81.8564 122.792 82.1185C123.127 82.2196 123.454 82.3458 123.771 82.4959C123.337 82.29 118.304 84.4575 117.567 84.7459C116.146 85.3068 114.725 85.9246 113.997 87.3381C112.394 90.4486 112.515 96.2323 113.516 99.4326C114.069 101.201 114.858 102.925 115.519 104.656C114.687 107.663 114.849 110.797 116.912 114.16C116.586 113.982 116.273 113.781 115.977 113.558C113.923 112.022 112.505 109.494 111.541 107.227C110.82 105.526 110.651 103.079 110.882 101.252C111.079 99.6874 111.804 98.4198 110.445 97.0368C109.652 96.2291 108.397 94.3557 107.192 94.4038C106.34 94.4374 105.59 94.9583 104.928 95.4967C100.583 99.0272 97.7774 104.01 95.283 109.066C95.4304 108.449 95.5907 107.837 95.7637 107.23C96.1644 105.852 97.7108 103.645 97.7108 102.301C100.049 97.5504 103.539 93.1001 107.086 89.528L107.38 89.2339C107.445 89.169 107.511 89.1041 107.575 89.0416L107.736 88.8885C107.853 88.7732 107.976 88.6594 108.089 88.5456L108.38 88.2676C108.414 88.2371 108.446 88.2059 108.479 88.1746L108.711 87.9527Z" fill="#070208"/>
<path d="M124.279 87.6891C124.005 89.532 123.176 91.2997 122.162 92.8461C119.624 96.7147 116.654 100.566 115.523 104.655C114.691 107.662 114.854 110.796 116.916 114.159C117.088 114.442 117.274 114.724 117.477 115.01C116.943 114.564 116.444 114.077 115.983 113.556C114.262 111.622 112.9 109.236 112.287 106.71C111.583 103.812 112.81 102.159 113.07 99.4736C113.51 94.9327 108.823 89.6025 111.86 85.2516C112.519 84.3083 113.323 83.4751 114.242 82.7828C117.207 80.5577 123.051 79.5673 125.076 83.5841C123.638 84.2949 124.474 86.3878 124.279 87.6891Z" fill="#413E42"/>
<path d="M133.829 101.282C133.603 102.61 131.666 103.606 130.29 103.696C130.115 103.708 129.94 103.704 129.766 103.681L126.874 92.4184C127.966 94.2742 129.205 96.0398 130.579 97.698L130.584 97.7052C131.414 98.7044 133.511 99.3078 133.815 100.694C133.858 100.887 133.863 101.087 133.829 101.282Z" fill="#FCDCCD"/>
<path d="M130.392 108.958C130.295 109.413 130.102 109.843 129.826 110.218C129.748 110.32 129.661 110.416 129.567 110.504C128.986 111.051 128.171 111.238 127.21 110.972C126.524 110.777 125.899 110.409 125.394 109.906C125.144 109.66 124.918 109.392 124.717 109.104C124.619 108.965 124.332 108.092 124.156 108.086C126.388 108.166 128.423 108.166 130.357 106.877C130.26 106.942 130.466 108.645 130.392 108.958Z" fill="#3A0302"/>
<path d="M99.9585 168.249C99.8367 170.489 99.5186 172.719 98.9 174.873C97.7325 178.94 95.5346 182.622 93.4152 186.285C90.4553 191.401 87.5459 196.99 86.4698 202.703C86.1674 203.009 85.8611 203.318 85.5507 203.628L85.1436 204.127C84.2713 203.763 83.403 203.388 82.5387 203.001L82.0868 202.797L81.836 202.683C81.5715 202.563 81.3082 202.442 81.0459 202.318C81.3039 202.067 81.5667 201.805 81.8344 201.532C82.1469 201.212 82.4634 200.881 82.7791 200.536C84.5419 198.618 86.3359 196.321 87.6084 193.839C90.3383 188.517 97.0563 175.899 99.9585 168.249Z" fill="#2AA285"/>
<path opacity="0.45" d="M124.236 130.669C123.69 135.91 126.408 138.858 129.172 143.065C129.491 143.557 129.699 144.112 129.782 144.692C129.431 144.266 129.03 143.883 128.589 143.551C128.821 143.96 129.013 144.391 129.16 144.837C128.623 143.653 127.887 142.569 126.984 141.632C125.542 140.143 124.132 139.668 123.224 137.681C120.124 130.901 124.458 122.982 122.063 116.191L122.055 116.168C122.524 116.287 123 116.393 123.477 116.478C125.4 116.821 127.329 116.833 128.791 116.091C129.483 115.746 130.063 115.213 130.465 114.552C130.774 114.045 131.02 113.502 131.195 112.934C131.197 112.937 131.199 112.94 131.201 112.942L131.293 113.06L131.309 113.079L131.397 113.197C131.43 113.241 131.462 113.287 131.494 113.332C131.781 113.737 132.032 114.166 132.246 114.614C132.293 114.712 132.337 114.811 132.38 114.91V114.916C132.423 115.017 132.465 115.119 132.504 115.223C132.309 115.694 132.063 116.143 131.771 116.562C131.083 117.558 130.199 118.4 129.357 119.27C126.418 122.311 124.67 126.49 124.236 130.669Z" fill="#070208"/>
<path d="M122.308 124.631C122.694 122.604 122.192 120.464 121.201 118.652C120.429 117.24 119.38 116.008 118.211 114.893C119.667 115.475 121.576 116.14 123.477 116.48L123.503 116.546C122.506 119.187 122.861 121.869 122.308 124.631Z" fill="#F2AD94"/>
<path d="M118.454 115.437C118.608 115.554 118.764 115.67 118.917 115.792C119.07 115.913 119.21 116.047 119.352 116.181C119.494 116.315 119.627 116.457 119.752 116.604L119.943 116.828C120.006 116.902 120.072 116.975 120.129 117.054C120.608 117.678 121.013 118.355 121.337 119.071C121.985 120.506 122.351 122.06 122.501 123.624C122.577 124.404 122.614 125.187 122.612 125.971C122.612 126.753 122.591 127.532 122.561 128.308C122.496 129.861 122.401 131.398 122.401 132.934C122.39 133.693 122.43 134.452 122.52 135.205C122.565 135.574 122.635 135.94 122.728 136.3C122.82 136.651 122.947 136.992 123.106 137.319C123.18 137.479 123.283 137.639 123.374 137.8C123.422 137.88 123.474 137.96 123.524 138.04C123.574 138.12 123.623 138.2 123.68 138.275L123.84 138.505C123.894 138.586 123.953 138.656 124.01 138.732C124.121 138.884 124.243 139.03 124.361 139.177C124.602 139.469 124.856 139.755 125.118 140.034C125.38 140.314 125.643 140.595 125.911 140.872C126.448 141.429 126.998 141.981 127.514 142.577C127.768 142.876 128.019 143.179 128.247 143.502C128.481 143.822 128.692 144.157 128.878 144.506C128.975 144.679 129.054 144.862 129.138 145.042C129.176 145.133 129.211 145.226 129.248 145.318C129.265 145.364 129.285 145.409 129.301 145.456L129.346 145.598C129.472 145.972 129.56 146.359 129.611 146.751C129.63 146.946 129.656 147.141 129.656 147.338C129.656 147.436 129.665 147.534 129.664 147.631L129.653 147.925L129.648 148.07L129.632 148.216L129.601 148.506C129.576 148.699 129.538 148.89 129.506 149.081C129.589 148.315 129.557 147.54 129.413 146.784C129.335 146.411 129.224 146.047 129.083 145.694L129.031 145.562C129.011 145.518 128.99 145.476 128.97 145.433C128.93 145.348 128.89 145.261 128.849 145.176C128.758 145.01 128.673 144.842 128.569 144.683C128.465 144.523 128.365 144.362 128.259 144.207C128.204 144.127 128.146 144.055 128.09 143.979L128.005 143.864L127.915 143.754C127.68 143.456 127.422 143.174 127.161 142.896C126.9 142.618 126.626 142.348 126.351 142.078L125.515 141.277C124.954 140.74 124.394 140.189 123.879 139.594C123.752 139.442 123.622 139.294 123.501 139.136C123.439 139.056 123.376 138.981 123.317 138.901L123.14 138.661C123.08 138.581 123.026 138.501 122.97 138.415C122.914 138.329 122.857 138.25 122.804 138.165C122.7 137.992 122.591 137.828 122.497 137.639C122.309 137.273 122.159 136.888 122.051 136.491C121.946 136.102 121.866 135.706 121.811 135.307C121.713 134.522 121.668 133.732 121.676 132.941C121.664 129.81 122.132 126.732 121.938 123.677C121.891 122.916 121.793 122.159 121.644 121.411C121.496 120.662 121.284 119.928 121.009 119.216C120.47 117.788 119.631 116.457 118.454 115.437Z" fill="#070208"/>
<path opacity="0.45" d="M111.463 144.042C111.698 144.321 111.917 144.608 112.118 144.902C110.997 144.021 109.655 143.425 108.573 142.489C107.405 141.481 106.65 140.205 106.101 138.796C104.695 135.214 103.959 132.579 101.783 129.306C101.188 131.606 101.675 134.279 100.359 136.388C99.3396 138.021 97.7883 138.306 96.3196 138.659C97.9149 137.009 99.1818 135.093 99.5576 132.861C100.37 128.02 96.7659 123.09 98.0936 118.364C98.8853 115.549 101.379 112.872 100.38 110.123C101.349 111.951 101.707 114.041 101.402 116.087C101.193 117.46 100.686 118.797 100.707 120.187C100.747 122.787 102.55 124.818 104.152 126.678C106.051 128.873 106.421 130.964 106.787 133.828C107.299 137.806 108.903 141.004 111.463 144.042Z" fill="#070208"/>
<path opacity="0.45" d="M123.745 160.006C123.477 159.721 122.756 159.525 121.964 159.354C119.246 156.838 117.961 152.772 118.949 149.178C119.27 148.001 119.815 146.805 119.562 145.611C119.407 144.876 118.965 144.239 118.547 143.608C116.963 141.221 115.607 138.595 115.268 135.749C114.93 132.904 115.761 129.8 117.945 127.946C116.522 131.231 116.768 135.186 118.586 138.267C120.663 141.784 123.962 144.248 124.093 148.651C124.164 151.046 124.173 153.901 125.449 155.686C123.868 157.027 122.436 158.62 123.745 160.006Z" fill="#070208"/>
<path d="M97.5577 108.075C96.4303 110.566 95.3229 113.059 94.3213 115.59C94.0729 116.223 93.8261 116.857 93.593 117.495C93.3598 118.134 93.1258 118.777 92.9199 119.413C92.8117 119.734 92.7228 120.054 92.6274 120.375C92.5473 120.696 92.452 121.022 92.3814 121.35C92.2268 122.003 92.1074 122.665 92.012 123.331C91.8219 124.667 91.7476 126.016 91.7901 127.365L91.8093 127.871L91.8438 128.377C91.8534 128.546 91.8718 128.714 91.8878 128.882C91.9039 129.05 91.9175 129.22 91.9415 129.387C92.0217 130.058 92.1386 130.729 92.2428 131.41C92.3594 132.095 92.4219 132.788 92.4295 133.482C92.4292 133.832 92.4025 134.182 92.3494 134.528C92.2936 134.876 92.1968 135.215 92.0609 135.54C92.0241 135.62 91.9952 135.7 91.952 135.78L91.8294 136.012L91.6907 136.235C91.6459 136.309 91.5898 136.377 91.5393 136.449C91.3304 136.728 91.0854 136.978 90.8109 137.193C90.5353 137.405 90.2244 137.566 89.8927 137.67C89.5626 137.772 89.2144 137.802 88.8718 137.757C89.2124 137.784 89.5548 137.737 89.8758 137.62C90.1931 137.503 90.4872 137.33 90.7444 137.111C90.9984 136.889 91.2223 136.636 91.4103 136.357C91.4552 136.285 91.5056 136.218 91.5449 136.144L91.6667 135.924L91.7725 135.696C91.8093 135.622 91.8334 135.541 91.8638 135.463C92.0962 134.837 92.1435 134.158 92.1146 133.49C92.0721 132.815 91.9768 132.146 91.8294 131.486C91.6915 130.821 91.5345 130.149 91.4207 129.465C91.387 129.295 91.3662 129.123 91.3406 128.952C91.3149 128.781 91.2877 128.609 91.2693 128.437L91.2076 127.921L91.1603 127.402C91.0454 126.015 91.0508 124.621 91.1763 123.236C91.2388 122.542 91.3277 121.849 91.4527 121.162C91.5088 120.817 91.5866 120.476 91.6571 120.133C91.7276 119.79 91.8173 119.452 91.9103 119.115C92.0914 118.438 92.2909 117.785 92.4952 117.123C92.6995 116.462 92.9151 115.81 93.1362 115.156C94.0176 112.544 95.0048 109.974 96.0064 107.42C96.0459 107.315 96.1057 107.219 96.1826 107.137C96.2595 107.055 96.3519 106.99 96.4544 106.944C96.5568 106.899 96.6673 106.874 96.7795 106.871C96.8916 106.869 97.0031 106.889 97.1075 106.93C97.2119 106.97 97.3072 107.032 97.3877 107.11C97.4682 107.188 97.5324 107.281 97.5765 107.384C97.6206 107.487 97.6438 107.598 97.6447 107.71C97.6456 107.823 97.6242 107.934 97.5817 108.038C97.5697 108.048 97.5633 108.063 97.5577 108.075Z" fill="#413E42"/>
<g opacity="0.5">
<path opacity="0.5" d="M120.879 107.507C123.236 107.135 124.986 105.809 124.787 104.546C124.587 103.283 122.514 102.56 120.156 102.932C117.799 103.305 116.049 104.63 116.248 105.894C116.448 107.157 118.521 107.879 120.879 107.507Z" fill="#F68E6E"/>
</g>
<path d="M129.567 110.504C128.986 111.051 128.171 111.238 127.21 110.972C126.524 110.776 125.899 110.409 125.394 109.905C126.748 109.615 128.307 109.94 129.567 110.504Z" fill="#EE6749"/>
<path d="M133.829 101.282C133.603 102.61 131.666 103.606 130.29 103.696C130.187 103.552 130.104 103.395 130.044 103.228C130.561 102.87 131.32 102.972 131.902 102.676C132.567 102.343 133.219 101.793 133.829 101.282Z" fill="#F2AD94"/>
<path d="M49.8989 195.463C51.4213 196.049 53.5103 196.166 54.318 194.75C55.0431 193.477 54.1986 191.913 53.3765 190.7C47.3108 181.746 41.076 171.967 33.2963 164.213C27.8588 172.035 42.0103 192.425 49.8989 195.463Z" fill="#DCEEF3"/>
</svg>
