<svg width="30" height="28" viewBox="0 0 30 28" fill="none" xmlns="http://www.w3.org/2000/svg">
<path d="M24.3477 21.7795L23.5375 20.1555C23.0349 19.1638 22.7745 18.0672 22.7776 16.9554V11.8393C22.7821 10.8514 22.5895 9.87242 22.2112 8.95974C21.8329 8.04707 21.2764 7.21898 20.5743 6.52391C19.7361 5.68096 18.7043 5.05613 17.5689 4.70403V4.31472C17.5689 3.70082 17.325 3.11206 16.8909 2.67797C16.4568 2.24387 15.8681 2 15.2542 2C14.6403 2 14.0515 2.24387 13.6174 2.67797C13.1833 3.11206 12.9394 3.70082 12.9394 4.31472V4.71576C11.4285 5.19807 10.1098 6.14791 9.17357 7.42826C8.2374 8.7086 7.73215 10.2532 7.73073 11.8393V16.9554C7.73384 18.068 7.47303 19.1655 6.96971 20.1578L6.16061 21.7807C6.04432 22.0141 5.98959 22.2733 6.00163 22.5338C6.01367 22.7943 6.09207 23.0474 6.2294 23.269C6.36672 23.4907 6.55841 23.6736 6.78628 23.8004C7.01414 23.9272 7.27063 23.9936 7.53139 23.9934H22.977C23.2378 23.9934 23.4942 23.9267 23.722 23.7998C23.9499 23.6729 24.1415 23.4899 24.2788 23.2682C24.4161 23.0464 24.4945 22.7933 24.5066 22.5328C24.5186 22.2723 24.4639 22.013 24.3477 21.7795Z" fill="#CC0000" stroke="#CC0000"/>
<path fill-rule="evenodd" clip-rule="evenodd" d="M11.7395 23.9934H18.7689C18.4126 24.5981 17.9061 25.1007 17.2981 25.4523C16.6769 25.8116 15.9718 26.0006 15.2542 26C14.5366 26.0006 13.8316 25.8116 13.2104 25.4523C12.6024 25.1007 12.0958 24.5981 11.7395 23.9934Z" fill="#CC0000"/>
<path d="M11.7395 23.9934V23.4934H10.8645L11.3087 24.2473L11.7395 23.9934ZM18.7689 23.9934L19.1997 24.2473L19.6439 23.4934H18.7689V23.9934ZM17.2981 25.4523L17.5484 25.8852V25.8852L17.2981 25.4523ZM15.2542 26L15.2546 25.5L15.2538 25.5L15.2542 26ZM13.2104 25.4523L13.4607 25.0195L13.4607 25.0195L13.2104 25.4523ZM11.7395 24.4934H18.7689V23.4934H11.7395V24.4934ZM17.5484 25.8852C18.231 25.4904 18.7997 24.9261 19.1997 24.2473L18.3382 23.7396C18.0256 24.27 17.5811 24.711 17.0477 25.0195L17.5484 25.8852ZM15.2538 26.5C16.0595 26.5006 16.851 26.2885 17.5484 25.8852L17.0477 25.0195C16.5027 25.3347 15.8842 25.5005 15.2546 25.5L15.2538 26.5ZM12.96 25.8852C13.6574 26.2885 14.449 26.5006 15.2546 26.5L15.2538 25.5C14.6242 25.5005 14.0057 25.3347 13.4607 25.0195L12.96 25.8852ZM11.3087 24.2473C11.7088 24.9261 12.2775 25.4904 12.96 25.8852L13.4607 25.0195C12.9273 24.711 12.4829 24.27 12.1703 23.7396L11.3087 24.2473Z" fill="#CC0000"/>
</svg>
