<svg width="60" height="60" viewBox="0 0 60 60" fill="none" xmlns="http://www.w3.org/2000/svg">
<circle cx="30" cy="30" r="30" fill="#E8E8E8"/>
<path d="M33.8367 29.4274C35.5139 28.5844 36.8576 27.2002 37.6505 25.4987C38.4434 23.7972 38.639 21.878 38.2058 20.0515C37.7726 18.225 36.7359 16.5981 35.2633 15.4339C33.7907 14.2698 31.9685 13.6365 30.0913 13.6365C28.2142 13.6365 26.3919 14.2698 24.9193 15.4339C23.4468 16.5981 22.41 18.225 21.9768 20.0515C21.5436 21.878 21.7393 23.7972 22.5322 25.4987C23.325 27.2002 24.6688 28.5844 26.346 29.4274C22.1784 30.2781 18.4303 32.5364 15.7307 35.8233C15.2422 36.4214 14.9834 37.1743 15.0008 37.9463C15.0183 38.7183 15.3109 39.4587 15.8259 40.0342C17.6296 42.0272 19.831 43.6201 22.288 44.7103C24.7451 45.8005 27.4033 46.3637 30.0913 46.3637C32.7794 46.3637 35.4376 45.8005 37.8946 44.7103C40.3517 43.6201 42.553 42.0272 44.3568 40.0342C44.8718 39.4587 45.1644 38.7183 45.1818 37.9463C45.1993 37.1743 44.9405 36.4214 44.452 35.8233C41.7523 32.5364 38.0042 30.2781 33.8367 29.4274Z" fill="#A1A4A8"/>
</svg>
