<svg width="9" height="9" viewBox="0 0 9 9" fill="none" xmlns="http://www.w3.org/2000/svg">
<path d="M4.74362 0.153809C4.39105 0.153809 4.10259 0.44227 4.10259 0.794834V3.61535H1.28208C0.929514 3.61535 0.641052 3.90381 0.641052 4.25637C0.641052 4.60894 0.929514 4.8974 1.28208 4.8974H4.10259V7.71791C4.10259 8.07048 4.39105 8.35894 4.74362 8.35894C5.09618 8.35894 5.38464 8.07048 5.38464 7.71791V4.8974H8.20516C8.55772 4.8974 8.84618 4.60894 8.84618 4.25637C8.84618 3.90381 8.55772 3.61535 8.20516 3.61535H5.38464V0.794834C5.38464 0.44227 5.09618 0.153809 4.74362 0.153809Z" fill="white"/>
</svg>
