<svg width="16" height="16" viewBox="0 0 16 16" fill="none" xmlns="http://www.w3.org/2000/svg">
<path d="M11.7667 10.8579C12.8773 9.77151 13.5143 8.28897 13.5143 6.7041C13.5143 3.4952 10.913 0.89388 7.7041 0.89388C4.4952 0.89388 1.89388 3.4952 1.89388 6.7041C1.89388 8.28411 2.52694 9.76256 3.63428 10.8512L7.70408 14.921L11.7667 10.8579ZM1 6.7041C1 3.00153 4.00153 0 7.7041 0C11.4067 0 14.4082 3.00153 14.4082 6.7041C14.4082 8.53196 13.6726 10.244 12.3952 11.4935L8.02015 15.8691C7.84562 16.0436 7.56261 16.0436 7.38807 15.8691L3.00492 11.4859C1.73106 10.2336 1 8.52632 1 6.7041Z" fill="#5BB2C9"/>
<path d="M7.70426 9.83284C5.9764 9.83284 4.57568 8.43213 4.57568 6.70426C4.57568 4.9764 5.9764 3.57568 7.70426 3.57568C9.43213 3.57568 10.8328 4.9764 10.8328 6.70426C10.8328 8.43213 9.43213 9.83284 7.70426 9.83284Z" fill="#5BB2C9"/>
</svg>
