<svg width="32" height="32" viewBox="0 0 32 32" fill="none" xmlns="http://www.w3.org/2000/svg">
<path d="M8.96002 23.04C7.54618 23.04 6.40002 21.8939 6.40002 20.48C6.40002 19.0662 7.54618 17.92 8.96002 17.92C10.3739 17.92 11.52 19.0662 11.52 20.48C11.52 21.8939 10.3739 23.04 8.96002 23.04ZM8.96002 21.76C9.66695 21.76 10.24 21.187 10.24 20.48C10.24 19.7731 9.66695 19.2 8.96002 19.2C8.2531 19.2 7.68002 19.7731 7.68002 20.48C7.68002 21.187 8.2531 21.76 8.96002 21.76Z" fill="#219C7E"/>
<path d="M21.76 23.04C20.3461 23.04 19.2 21.8939 19.2 20.48C19.2 19.0662 20.3461 17.92 21.76 17.92C23.1738 17.92 24.32 19.0662 24.32 20.48C24.32 21.8939 23.1738 23.04 21.76 23.04ZM21.76 21.76C22.4669 21.76 23.04 21.187 23.04 20.48C23.04 19.7731 22.4669 19.2 21.76 19.2C21.053 19.2 20.48 19.7731 20.48 20.48C20.48 21.187 21.053 21.76 21.76 21.76Z" fill="#219C7E"/>
<path d="M5.76006 16.64C4.69967 16.64 3.84006 17.4996 3.84006 18.56V21.12C3.84006 22.8873 5.27275 24.32 7.04006 24.32H24.9601C26.7274 24.32 28.1601 22.8873 28.1601 21.12V18.56C28.1601 17.4996 27.3004 16.64 26.2401 16.64H5.76006ZM5.4039 15.3796L6.64203 9.88177C7.10079 7.84467 8.88618 6.40002 10.945 6.40002H21.0551C23.1139 6.40002 24.8993 7.84467 25.3581 9.88177L26.5962 15.3796C28.1959 15.5568 29.4401 16.9131 29.4401 18.56V21.12C29.4401 22.9072 28.3936 24.4499 26.8801 25.1689V26.88C26.8801 28.2939 25.7339 29.44 24.3201 29.44C22.9062 29.44 21.7601 28.2939 21.7601 26.88V25.6H10.2401V26.88C10.2401 28.2939 9.09391 29.44 7.68006 29.44C6.26621 29.44 5.12006 28.2939 5.12006 26.88V25.1689C3.60649 24.4499 2.56006 22.9072 2.56006 21.12V18.56C2.56006 16.9131 3.80421 15.5568 5.4039 15.3796ZM6.40006 25.6V26.88C6.40006 27.587 6.97313 28.16 7.68006 28.16C8.38698 28.16 8.96006 27.587 8.96006 26.88V25.6H6.40006ZM23.0401 25.6V26.88C23.0401 27.587 23.6131 28.16 24.3201 28.16C25.027 28.16 25.6001 27.587 25.6001 26.88V25.6H23.0401ZM25.2981 15.36L24.1287 10.167C23.801 8.71191 22.5257 7.68002 21.0551 7.68002H10.945C9.47442 7.68002 8.19914 8.71191 7.87145 10.167L6.70197 15.36H25.2981Z" fill="#219C7E"/>
</svg>
