<svg width="24" height="24" viewBox="0 0 24 24" fill="none" xmlns="http://www.w3.org/2000/svg">
<path d="M12 24C5.3856 24 0 18.6144 0 12C0 5.3856 5.3856 0 12 0C18.6144 0 24 5.3856 24 12C24 18.6144 18.6144 24 12 24ZM12 0.96C5.9136 0.96 0.96 5.9136 0.96 12C0.96 18.0864 5.9136 23.04 12 23.04C18.0864 23.04 23.04 18.0864 23.04 12C23.04 5.9136 18.0864 0.96 12 0.96Z" fill="#26282B"/>
<path d="M8.4862 9.42797H14.1694C14.6782 9.42797 15.091 9.84077 15.091 10.3496C15.091 10.8584 14.6782 11.2712 14.1694 11.2712H13.0078H10.9918H9.8302C8.5342 11.2712 7.45899 12.3272 7.45899 13.6424C7.45899 14.9384 8.5342 16.0136 9.8302 16.0136H15.5134V17.0504L17.0494 15.2744L15.5134 13.4984V14.5736H9.8302C9.3214 14.5736 8.9086 14.1608 8.9086 13.652C8.9086 13.1432 9.3214 12.7304 9.8302 12.7304H10.9918H13.0078H14.1694C15.4654 12.7304 16.5406 11.6744 16.5406 10.3592C16.5406 9.06317 15.4654 7.98797 14.1694 7.98797H8.4862V6.95117L6.9502 8.72717L8.4862 10.5032V9.42797Z" fill="#26282B"/>
</svg>
