<svg width="16" height="16" viewBox="0 0 16 16" fill="none" xmlns="http://www.w3.org/2000/svg">
<path d="M2.43445 3.36196C2.91464 3.36196 3.30391 2.97269 3.30391 2.4925C3.30391 2.01232 2.91464 1.62305 2.43445 1.62305C1.95426 1.62305 1.56499 2.01232 1.56499 2.4925C1.56499 2.97269 1.95426 3.36196 2.43445 3.36196Z" fill="#5BB2C9"/>
<path d="M2.43448 6.43398L2.0867 6.31805C1.73891 5.85434 9.12785e-08 3.70968 9.12785e-08 2.49244C-0.000176004 1.84133 0.254448 1.21599 0.709408 0.7502C1.16437 0.284408 1.78354 0.0151422 2.43448 0C3.08542 0.0151422 3.70459 0.284408 4.15955 0.7502C4.61451 1.21599 4.86913 1.84133 4.86896 2.49244C4.86896 3.70968 3.13004 5.85434 2.78226 6.31805L2.43448 6.43398ZM2.43448 0.92742C2.01389 0.927152 1.60963 1.09017 1.30687 1.38211C1.00411 1.67405 0.826514 2.07212 0.811493 2.49244C0.811493 3.07208 1.73891 4.40525 2.43448 5.33267C3.13004 4.40525 4.05746 3.07208 4.05746 2.49244C4.04244 2.07212 3.86484 1.67405 3.56209 1.38211C3.25933 1.09017 2.85506 0.927152 2.43448 0.92742Z" fill="#5BB2C9"/>
<path d="M13.1577 12.8678C13.6379 12.8678 14.0272 12.4786 14.0272 11.9984C14.0272 11.5182 13.6379 11.1289 13.1577 11.1289C12.6776 11.1289 12.2883 11.5182 12.2883 11.9984C12.2883 12.4786 12.6776 12.8678 13.1577 12.8678Z" fill="#5BB2C9"/>
<path d="M13.1578 15.9978L12.81 15.8239C12.4622 15.4182 10.6653 13.2155 10.6653 11.9983C10.6653 11.3373 10.9279 10.7033 11.3954 10.2359C11.8628 9.76846 12.4967 9.50586 13.1578 9.50586C13.8188 9.50586 14.4528 9.76846 14.9202 10.2359C15.3876 10.7033 15.6502 11.3373 15.6502 11.9983C15.6502 13.2155 13.8534 15.4182 13.5056 15.8239L13.1578 15.9978ZM13.1578 10.4333C12.7427 10.4333 12.3446 10.5982 12.0511 10.8917C11.7576 11.1852 11.5928 11.5832 11.5928 11.9983C11.5928 12.6359 12.4622 13.9111 13.1578 14.8385C13.8534 13.9111 14.7228 12.6359 14.7228 11.9983C14.7228 11.5832 14.5579 11.1852 14.2644 10.8917C13.9709 10.5982 13.5729 10.4333 13.1578 10.4333Z" fill="#5BB2C9"/>
<path d="M13.1578 15.998H5.21676C4.79563 16.0134 4.37605 15.9387 3.98617 15.7787C3.59628 15.6188 3.2451 15.3773 2.95618 15.0705C2.64351 14.7828 2.39393 14.4333 2.22321 14.0442C2.05249 13.6551 1.96434 13.2349 1.96434 12.8099C1.96434 12.385 2.05249 11.9647 2.22321 11.5756C2.39393 11.1865 2.64351 10.8371 2.95618 10.5494C3.2451 10.2426 3.59628 10.0011 3.98617 9.84116C4.37605 9.6812 4.79563 9.60646 5.21676 9.62194H8.57866C8.78915 9.62208 8.99751 9.57976 9.19127 9.49751C9.38503 9.41526 9.5602 9.29477 9.70631 9.14325C9.85242 8.99173 9.96646 8.81229 10.0416 8.61568C10.1168 8.41906 10.1515 8.2093 10.1437 7.99895C10.1437 7.58388 9.9788 7.18581 9.6853 6.89232C9.3918 6.59882 8.99373 6.43393 8.57866 6.43393H2.4345C2.32689 6.43393 2.22369 6.39118 2.1476 6.31509C2.07151 6.239 2.02876 6.1358 2.02876 6.02818C2.02039 5.97025 2.02466 5.91119 2.04127 5.85506C2.05788 5.79894 2.08644 5.74707 2.12498 5.70301C2.16353 5.65896 2.21115 5.62377 2.26458 5.59986C2.318 5.57594 2.37597 5.56387 2.4345 5.56447H8.57866C8.89605 5.56504 9.20976 5.63242 9.49937 5.76225C9.78899 5.89208 10.048 6.08144 10.2596 6.318C10.4908 6.53394 10.6765 6.79385 10.8059 7.0825C10.9353 7.37114 11.0057 7.68272 11.0131 7.99895C11.0131 8.64462 10.7567 9.26383 10.3001 9.72039C9.84355 10.1769 9.22433 10.4334 8.57866 10.4334H5.21676C4.59763 10.4349 4.00017 10.6615 3.53582 11.071C3.10975 11.5297 2.86287 12.1263 2.84025 12.752C2.85538 13.3722 3.11243 13.9619 3.55648 14.3951C4.00054 14.8283 4.59639 15.0707 5.21676 15.0705H13.1578C13.3897 15.1285 13.6215 15.3024 13.5635 15.5342C13.5644 15.6478 13.5236 15.7578 13.4488 15.8432C13.374 15.9287 13.2705 15.9838 13.1578 15.998Z" fill="#5BB2C9"/>
</svg>
