<svg width="32" height="32" viewBox="0 0 32 32" fill="none" xmlns="http://www.w3.org/2000/svg">
<path d="M15.36 16.64H5.11996V15.36H26.88V16.64H16.64V25.6H15.36V16.64Z" fill="#CC0000"/>
<path d="M25.6 23.6801V12.8036L24.9802 12.8101C23.9199 12.8213 23.0513 11.9708 23.04 10.8902V7.04881C23.04 6.69697 23.324 6.4111 23.6758 6.40882L25.5367 6.39675C25.2421 4.93822 23.9532 3.84006 22.4078 3.84006H9.59211C8.04833 3.84006 6.76051 4.93594 6.46414 6.39221H8.31996C8.67343 6.39221 8.95996 6.67874 8.95996 7.03221V10.8902C8.95996 11.9506 8.10035 12.8102 7.01969 12.8101L6.39996 12.8036V23.6801C6.39996 24.0335 6.6865 24.3201 7.03996 24.3201H24.96C25.3134 24.3201 25.6 24.0335 25.6 23.6801ZM7.67996 7.67221H5.75996C5.4065 7.67221 5.11996 7.38567 5.11996 7.03221C5.11996 4.56231 7.12221 2.56006 9.59211 2.56006H22.4078C24.8777 2.56006 26.88 4.56231 26.88 7.03221C26.88 7.38405 26.5959 7.66991 26.2441 7.67219L24.32 7.68467L24.32 10.897C24.3237 11.2504 24.6133 11.5339 24.9667 11.5302L26.2332 11.5168C26.5893 11.5131 26.88 11.8007 26.88 12.1568V23.6801C26.88 24.7404 26.0204 25.6001 24.96 25.6001H7.03996C5.97958 25.6001 5.11996 24.7404 5.11996 23.6801V12.1568C5.11996 11.8007 5.41064 11.5131 5.76672 11.5168L7.03996 11.5302C7.39343 11.5302 7.67996 11.2437 7.67996 10.8902V7.67221Z" fill="#CC0000"/>
<path fill-rule="evenodd" clip-rule="evenodd" d="M5.11996 6.40002H26.88V7.68002H5.11996V6.40002Z" fill="#CC0000"/>
<path d="M3.84 11.52H7.04C7.39346 11.52 7.68 11.2335 7.68 10.88V7.68002H5.76C4.69961 7.68002 3.84 8.53964 3.84 9.60002V11.52ZM3.2 12.8C2.84654 12.8 2.56 12.5135 2.56 12.16V9.60002C2.56 7.83271 3.99269 6.40002 5.76 6.40002H8.32C8.67346 6.40002 8.96 6.68656 8.96 7.04002V10.88C8.96 11.9404 8.10038 12.8 7.04 12.8H3.2Z" fill="#CC0000"/>
<path d="M28.16 9.60002C28.16 8.53964 27.3004 7.68002 26.24 7.68002H24.32V10.88C24.32 11.2335 24.6065 11.52 24.96 11.52H28.16V9.60002ZM28.8 12.8H24.96C23.8996 12.8 23.04 11.9404 23.04 10.88V7.04002C23.04 6.68656 23.3265 6.40002 23.68 6.40002H26.24C28.0073 6.40002 29.44 7.83271 29.44 9.60002V12.16C29.44 12.5135 29.1534 12.8 28.8 12.8Z" fill="#CC0000"/>
<path d="M10.88 21.76C9.81964 21.76 8.96002 20.9004 8.96002 19.84C8.96002 18.7797 9.81964 17.92 10.88 17.92C11.9404 17.92 12.8 18.7797 12.8 19.84C12.8 20.9004 11.9404 21.76 10.88 21.76ZM10.88 20.48C11.2335 20.48 11.52 20.1935 11.52 19.84C11.52 19.4866 11.2335 19.2 10.88 19.2C10.5266 19.2 10.24 19.4866 10.24 19.84C10.24 20.1935 10.5266 20.48 10.88 20.48Z" fill="#CC0000"/>
<path d="M21.12 21.76C20.0596 21.76 19.2 20.9004 19.2 19.84C19.2 18.7797 20.0596 17.92 21.12 17.92C22.1804 17.92 23.04 18.7797 23.04 19.84C23.04 20.9004 22.1804 21.76 21.12 21.76ZM21.12 20.48C21.4734 20.48 21.76 20.1935 21.76 19.84C21.76 19.4866 21.4734 19.2 21.12 19.2C20.7665 19.2 20.48 19.4866 20.48 19.84C20.48 20.1935 20.7665 20.48 21.12 20.48Z" fill="#CC0000"/>
<path d="M21.76 26.8799C21.76 27.5869 22.3331 28.1599 23.04 28.1599C23.7469 28.1599 24.32 27.5869 24.32 26.8799V25.5999H21.76V26.8799ZM21.12 24.3199H24.96C25.3134 24.3199 25.6 24.6065 25.6 24.9599V26.8799C25.6 28.2938 24.4538 29.4399 23.04 29.4399C21.6261 29.4399 20.48 28.2938 20.48 26.8799V24.9599C20.48 24.6065 20.7665 24.3199 21.12 24.3199Z" fill="#CC0000"/>
<path d="M7.67996 25.5999V26.8799C7.67996 27.5869 8.25304 28.1599 8.95996 28.1599C9.66689 28.1599 10.24 27.5869 10.24 26.8799V25.5999H7.67996ZM7.03996 24.3199H10.88C11.2334 24.3199 11.52 24.6065 11.52 24.9599V26.8799C11.52 28.2938 10.3738 29.4399 8.95996 29.4399C7.54611 29.4399 6.39996 28.2938 6.39996 26.8799V24.9599C6.39996 24.6065 6.6865 24.3199 7.03996 24.3199Z" fill="#CC0000"/>
</svg>
