<svg width="16" height="16" viewBox="0 0 16 16" fill="none" xmlns="http://www.w3.org/2000/svg">
<path d="M15.796 14.7686L12.9121 11.8846C14.094 10.4391 14.6751 8.59455 14.5352 6.73256C14.3953 4.87057 13.5451 3.13358 12.1604 1.88088C10.7758 0.628178 8.96258 -0.044396 7.09593 0.00227621C5.22928 0.0489484 3.45197 0.811296 2.13163 2.13163C0.811296 3.45197 0.0489484 5.22928 0.00227621 7.09593C-0.044396 8.96258 0.628178 10.7758 1.88088 12.1604C3.13358 13.5451 4.87057 14.3953 6.73256 14.5352C8.59455 14.6751 10.4391 14.094 11.8846 12.9121L14.7686 15.796C14.9056 15.9284 15.0892 16.0016 15.2797 16C15.4702 15.9983 15.6525 15.9219 15.7872 15.7872C15.9219 15.6525 15.9983 15.4702 16 15.2797C16.0016 15.0892 15.9284 14.9056 15.796 14.7686ZM7.28947 13.1024C6.13977 13.1024 5.0159 12.7615 4.05996 12.1228C3.10402 11.484 2.35896 10.5762 1.91899 9.514C1.47902 8.45182 1.3639 7.28302 1.5882 6.15542C1.81249 5.02781 2.36612 3.99204 3.17908 3.17908C3.99204 2.36612 5.02781 1.81249 6.15542 1.5882C7.28302 1.3639 8.45182 1.47902 9.514 1.91899C10.5762 2.35896 11.484 3.10402 12.1228 4.05996C12.7615 5.0159 13.1024 6.13977 13.1024 7.28947C13.1007 8.83064 12.4877 10.3082 11.398 11.398C10.3082 12.4877 8.83064 13.1007 7.28947 13.1024Z" fill="#A1A4A8"/>
</svg>
