<svg width="60" height="60" viewBox="0 0 60 60" fill="none" xmlns="http://www.w3.org/2000/svg">
<path d="M38.9173 0.666626H21.0826C9.80718 0.666626 0.666626 9.80718 0.666626 21.0826V38.9173C0.666626 50.1927 9.80718 59.3333 21.0826 59.3333H38.9173C50.1927 59.3333 59.3333 50.1927 59.3333 38.9173V21.0826C59.3333 9.80718 50.1927 0.666626 38.9173 0.666626Z" fill="#F8DE40"/>
<path d="M59.3334 35.168C55.7074 40.5981 50.7816 45.0357 45.0038 48.0773C39.2261 51.119 32.7797 52.6681 26.2507 52.584C11.4721 52.584 8.7494 49.9173 1.87207 45.84C3.298 49.7916 5.90764 53.2074 9.34537 55.622C12.7831 58.0367 16.8817 59.3326 21.0827 59.3333H38.9174C44.3321 59.3333 49.5249 57.1823 53.3537 53.3536C57.1824 49.5249 59.3334 44.332 59.3334 38.9173V35.168Z" fill="#E7C930"/>
<path d="M23.5466 16.6213C22.7541 15.962 21.7411 15.6276 20.7119 15.6855C19.6826 15.7434 18.7135 16.1893 17.9999 16.9333L16.8026 18.1333L15.5999 16.9333C14.8843 16.1891 13.9129 15.7442 12.882 15.6883C11.851 15.6323 10.8372 15.9696 10.0453 16.632C9.64845 16.9881 9.32836 17.4214 9.1045 17.9053C8.88065 18.3893 8.75774 18.9137 8.74327 19.4467C8.72879 19.9797 8.82306 20.5101 9.02032 21.0055C9.21758 21.5008 9.5137 21.9508 9.8906 22.328L15.8133 28.24C15.9417 28.37 16.0948 28.4733 16.2634 28.5438C16.4321 28.6142 16.6131 28.6505 16.7959 28.6505C16.9787 28.6505 17.1597 28.6142 17.3284 28.5438C17.4971 28.4733 17.6501 28.37 17.7786 28.24L23.6986 22.3173C24.076 21.9405 24.3726 21.4907 24.5704 20.9954C24.7681 20.5001 24.8627 19.9697 24.8485 19.4366C24.8342 18.9035 24.7114 18.3789 24.4876 17.8948C24.2638 17.4108 23.9436 16.9774 23.5466 16.6213Z" fill="#CC0000"/>
<path d="M49.9547 16.6212C49.1617 15.9596 48.147 15.6238 47.1158 15.6817C46.0847 15.7396 45.114 16.187 44.4 16.9332L43.2027 18.1332L42 16.9332C41.2843 16.1891 40.313 15.7441 39.282 15.6882C38.2511 15.6323 37.2373 15.9695 36.4453 16.6319C36.0484 16.988 35.7282 17.4214 35.5043 17.9054C35.2805 18.3895 35.1577 18.9141 35.1435 19.4472C35.1293 19.9803 35.2239 20.5107 35.4216 21.006C35.6193 21.5013 35.9159 21.9511 36.2933 22.3279L42.216 28.2506C42.3443 28.3805 42.4971 28.4837 42.6655 28.5542C42.834 28.6246 43.0148 28.6609 43.1973 28.6609C43.3799 28.6609 43.5607 28.6246 43.7292 28.5542C43.8976 28.4837 44.0504 28.3805 44.1787 28.2506L50.1013 22.3279C50.4804 21.9511 50.7786 21.5009 50.9775 21.0048C51.1765 20.5087 51.272 19.9773 51.2583 19.443C51.2445 18.9086 51.1218 18.3828 50.8977 17.8976C50.6735 17.4124 50.3526 16.978 49.9547 16.6212Z" fill="#CC0000"/>
<path d="M42.4427 31.5546H17.5573C17.3729 31.554 17.1903 31.5922 17.0216 31.6667C16.8528 31.7413 16.7017 31.8506 16.5779 31.9874C16.4542 32.1242 16.3606 32.2856 16.3033 32.4609C16.246 32.6363 16.2262 32.8217 16.2453 33.0052C16.5733 36.1386 18.5787 43.2506 30 43.2506C41.4213 43.2506 43.4267 36.1386 43.7547 33.0052C43.7738 32.8217 43.754 32.6363 43.6967 32.4609C43.6394 32.2856 43.5459 32.1242 43.4221 31.9874C43.2984 31.8506 43.1472 31.7413 42.9785 31.6667C42.8097 31.5922 42.6272 31.554 42.4427 31.5546Z" fill="#864E20"/>
<path d="M30 43.2506C32.7191 43.3402 35.4213 42.7923 37.8907 41.6506C37.1506 40.5041 35.9951 39.6888 34.6667 39.376C31.0827 38.576 30 39.6666 30 39.6666C30 39.6666 28.9174 38.584 25.3334 39.376C24.005 39.6888 22.8495 40.5041 22.1094 41.6506C24.5787 42.7923 27.281 43.3402 30 43.2506Z" fill="#F06880"/>
</svg>
