<svg width="64" height="64" viewBox="0 0 64 64" fill="none" xmlns="http://www.w3.org/2000/svg">
<path d="M40.9173 2.66663H23.0826C11.8072 2.66663 2.66663 11.8072 2.66663 23.0826V40.9173C2.66663 52.1927 11.8072 61.3333 23.0826 61.3333H40.9173C52.1927 61.3333 61.3333 52.1927 61.3333 40.9173V23.0826C61.3333 11.8072 52.1927 2.66663 40.9173 2.66663Z" fill="#F8DE40"/>
<path d="M61.3334 37.168C57.7078 42.5984 52.782 47.0363 47.0042 50.078C41.2263 53.1197 34.7798 54.6686 28.2507 54.584C13.4721 54.584 10.7494 51.9173 3.87207 47.84C5.298 51.7916 7.90764 55.2074 11.3454 57.622C14.7831 60.0367 18.8817 61.3326 23.0827 61.3333H40.9174C46.3321 61.3333 51.525 59.1823 55.3537 55.3536C59.1824 51.5249 61.3334 46.332 61.3334 40.9173V37.168Z" fill="#E7C930"/>
<path d="M45.8667 33.9894C42.6107 29.5974 35.7627 28.04 32 28.04C28.2373 28.04 21.376 29.5974 18.1333 33.9894C14.8907 38.3814 17.632 43.056 21.1413 42.7707C24.6507 42.4854 30.5973 41.8 32.0133 41.8C33.4293 41.8 39.3787 42.488 42.8853 42.7707C46.392 43.0534 49.1387 38.3787 45.8667 33.9894Z" fill="#864E20"/>
<path d="M38.68 45.392C36.4938 44.8251 34.2556 44.482 32 44.368C29.7488 44.4823 27.515 44.8254 25.3333 45.392C24.3307 45.5947 24.2933 46.416 25.3333 46.2774C26.3733 46.1387 32 45.8347 32 45.8347C32 45.8347 37.6507 46.1414 38.68 46.2774C39.7093 46.4134 39.68 45.6 38.68 45.392Z" fill="#E7C930"/>
<path d="M23.752 26.2506C23.7495 26.3528 23.7148 26.4516 23.6529 26.5329C23.591 26.6142 23.505 26.6738 23.4072 26.7034C23.3093 26.733 23.2047 26.7309 23.1081 26.6975C23.0115 26.664 22.928 26.601 22.8693 26.5173C22.4701 25.9166 21.9541 25.4024 21.352 25.0053C20.5952 24.5028 19.707 24.2348 18.7987 24.2348C17.8903 24.2348 17.0021 24.5028 16.2453 25.0053C15.6408 25.4034 15.1229 25.9195 14.7227 26.5226C14.664 26.6063 14.5805 26.6694 14.4839 26.7028C14.3873 26.7362 14.2826 26.7383 14.1848 26.7087C14.087 26.6792 14.001 26.6195 13.9391 26.5382C13.8772 26.4569 13.8425 26.3581 13.84 26.256C13.8291 25.2683 14.1544 24.3062 14.7627 23.528C15.2436 22.9182 15.8565 22.4254 16.5554 22.0865C17.2542 21.7477 18.0207 21.5717 18.7973 21.5717C19.5739 21.5717 20.3405 21.7477 21.0393 22.0865C21.7381 22.4254 22.351 22.9182 22.832 23.528C23.4366 24.306 23.7608 25.2654 23.752 26.2506Z" fill="#864E20"/>
<path d="M50.1599 26.2506C50.1575 26.3528 50.1228 26.4516 50.0609 26.5329C49.9989 26.6142 49.9129 26.6738 49.8151 26.7034C49.7173 26.733 49.6126 26.7309 49.5161 26.6975C49.4195 26.664 49.3359 26.601 49.2773 26.5173C48.8783 25.9173 48.3633 25.4033 47.7626 25.0053C47.0054 24.5026 46.1168 24.2345 45.2079 24.2345C44.2991 24.2345 43.4104 24.5026 42.6533 25.0053C42.0488 25.4034 41.5308 25.9195 41.1306 26.5226C41.072 26.6063 40.9884 26.6694 40.8918 26.7028C40.7953 26.7362 40.6906 26.7383 40.5928 26.7087C40.495 26.6792 40.4089 26.6195 40.347 26.5382C40.2851 26.4569 40.2504 26.3581 40.2479 26.256C40.237 25.2683 40.5624 24.3062 41.1706 23.528C41.6516 22.9182 42.2645 22.4254 42.9633 22.0865C43.6621 21.7477 44.4286 21.5717 45.2053 21.5717C45.9819 21.5717 46.7484 21.7477 47.4472 22.0865C48.1461 22.4254 48.759 22.9182 49.2399 23.528C49.8446 24.306 50.1687 25.2654 50.1599 26.2506Z" fill="#864E20"/>
<path d="M22.8693 26.5226C22.4701 25.9219 21.9541 25.4077 21.352 25.0106C20.5952 24.5081 19.707 24.2401 18.7986 24.2401C17.8903 24.2401 17.0021 24.5081 16.2453 25.0106C15.6408 25.4087 15.1229 25.9248 14.7226 26.5279C14.6619 26.618 14.5717 26.684 14.4676 26.7147C14.3634 26.7453 14.2518 26.7387 14.152 26.6959V56.6693C14.1513 57.2815 14.2713 57.8879 14.5051 58.4537C14.7389 59.0195 15.0819 59.5337 15.5146 59.9669C15.9473 60.4001 16.4611 60.7437 17.0266 60.9781C17.5922 61.2126 18.1984 61.3333 18.8106 61.3333C20.0455 61.3319 21.2294 60.8405 22.1023 59.9671C22.9753 59.0936 23.4659 57.9095 23.4666 56.6746V26.6799C23.3649 26.7304 23.2483 26.7423 23.1384 26.7134C23.0286 26.6845 22.933 26.6167 22.8693 26.5226Z" fill="#26A9E0"/>
<path d="M49.2613 26.5227C48.8623 25.9228 48.3473 25.4087 47.7466 25.0107C46.9894 24.508 46.1008 24.2399 45.1919 24.2399C44.2831 24.2399 43.3944 24.508 42.6373 25.0107C42.0327 25.4088 41.5148 25.9249 41.1146 26.528C41.0539 26.6181 40.9637 26.6841 40.8595 26.7148C40.7554 26.7454 40.6438 26.7388 40.5439 26.696V56.6694C40.5436 57.2817 40.6639 57.8882 40.898 58.454C41.1321 59.0199 41.4754 59.534 41.9083 59.9672C42.3412 60.4003 42.8551 60.7439 43.4208 60.9783C43.9866 61.2127 44.5929 61.3334 45.2053 61.3334C45.8173 61.3337 46.4234 61.2135 46.9889 60.9795C47.5544 60.7456 48.0683 60.4025 48.5012 59.9698C48.9341 59.5372 49.2774 59.0235 49.5117 58.4581C49.746 57.8927 49.8666 57.2867 49.8666 56.6747V26.68C49.764 26.7328 49.6456 26.7459 49.5339 26.7169C49.4223 26.6879 49.3252 26.6188 49.2613 26.5227Z" fill="#26A9E0"/>
</svg>
