<svg width="64" height="64" viewBox="0 0 64 64" fill="none" xmlns="http://www.w3.org/2000/svg">
<path d="M40.9174 2.66663H23.0827C11.8072 2.66663 2.66669 11.8072 2.66669 23.0826V40.9173C2.66669 52.1927 11.8072 61.3333 23.0827 61.3333H40.9174C52.1928 61.3333 61.3334 52.1927 61.3334 40.9173V23.0826C61.3334 11.8072 52.1928 2.66663 40.9174 2.66663Z" fill="#F8DE40"/>
<path d="M61.3334 37.168C57.7074 42.5981 52.7816 47.0357 47.0038 50.0773C41.2261 53.119 34.7797 54.6681 28.2507 54.584C13.4721 54.584 10.7494 51.9173 3.87207 47.84C5.298 51.7916 7.90764 55.2074 11.3454 57.622C14.7831 60.0367 18.8817 61.3326 23.0827 61.3333H40.9174C46.3321 61.3333 51.525 59.1823 55.3537 55.3536C59.1824 51.5249 61.3334 46.332 61.3334 40.9173V37.168Z" fill="#E7C930"/>
<path d="M44.4427 33.5547H19.5573C19.3729 33.5541 19.1903 33.5923 19.0216 33.6669C18.8528 33.7414 18.7017 33.8507 18.5779 33.9875C18.4542 34.1243 18.3606 34.2857 18.3033 34.461C18.246 34.6364 18.2262 34.8219 18.2453 35.0054C18.5733 38.1387 20.5787 45.2507 32 45.2507C43.4213 45.2507 45.4267 38.1387 45.7547 35.0054C45.7738 34.8219 45.754 34.6364 45.6967 34.461C45.6394 34.2857 45.5459 34.1243 45.4221 33.9875C45.2984 33.8507 45.1472 33.7414 44.9785 33.6669C44.8097 33.5923 44.6272 33.5541 44.4427 33.5547Z" fill="#864E20"/>
<path d="M32 45.2506C34.7191 45.3402 37.4213 44.7923 39.8907 43.6506C39.1506 42.5041 37.9951 41.6888 36.6667 41.376C33.0827 40.576 32 41.6666 32 41.6666C32 41.6666 30.9174 40.584 27.3334 41.376C26.005 41.6888 24.8495 42.5041 24.1094 43.6506C26.5787 44.7923 29.281 45.3402 32 45.2506Z" fill="#F06880"/>
<path d="M25.0667 20.5707C25.1638 20.5015 25.2362 20.4032 25.2735 20.29C25.3109 20.1768 25.3111 20.0547 25.2742 19.9414C25.2373 19.828 25.1653 19.7294 25.0685 19.6599C24.9717 19.5903 24.8552 19.5535 24.7361 19.5547H20.5894C20.4708 19.5543 20.3554 19.5164 20.2596 19.4465C20.1638 19.3766 20.0926 19.2782 20.0561 19.1654L18.7734 15.224C18.7346 15.1136 18.6624 15.0179 18.5669 14.9502C18.4713 14.8825 18.3571 14.8462 18.2401 14.8462C18.123 14.8462 18.0088 14.8825 17.9133 14.9502C17.8177 15.0179 17.7456 15.1136 17.7067 15.224L16.4267 19.1654C16.3906 19.2784 16.3194 19.377 16.2235 19.447C16.1277 19.517 16.0121 19.5547 15.8934 19.5547H11.7334C11.6151 19.5552 11.4999 19.5931 11.4043 19.6628C11.3087 19.7326 11.2376 19.8307 11.201 19.9432C11.1643 20.0557 11.1641 20.1769 11.2003 20.2896C11.2366 20.4022 11.3074 20.5006 11.4027 20.5707L14.7547 23.008C14.8509 23.0773 14.9225 23.1753 14.9594 23.2879C14.9963 23.4005 14.9965 23.5219 14.9601 23.6347L13.6801 27.576C13.6438 27.6888 13.644 27.8101 13.6806 27.9227C13.7173 28.0354 13.7886 28.1335 13.8844 28.2033C13.9801 28.273 14.0954 28.3108 14.2139 28.3111C14.3323 28.3115 14.4479 28.2745 14.5441 28.2054L17.8961 25.7707C17.992 25.7005 18.1078 25.6626 18.2267 25.6626C18.3456 25.6626 18.4614 25.7005 18.5574 25.7707L21.9094 28.2054C22.0055 28.2756 22.1214 28.3135 22.2405 28.3137C22.3595 28.3138 22.4756 28.2762 22.5719 28.2063C22.6682 28.1363 22.7399 28.0376 22.7766 27.9244C22.8133 27.8111 22.8131 27.6892 22.7761 27.576L21.4961 23.6347C21.4584 23.5223 21.4578 23.4008 21.4943 23.288C21.5308 23.1752 21.6024 23.0771 21.6987 23.008L25.0667 20.5707Z" fill="#864E20"/>
<path d="M52.5866 20.5707C52.6819 20.5006 52.7527 20.4022 52.789 20.2896C52.8252 20.1769 52.825 20.0557 52.7884 19.9432C52.7517 19.8307 52.6806 19.7326 52.585 19.6628C52.4894 19.5931 52.3743 19.5552 52.2559 19.5547H48.1119C47.9932 19.5547 47.8776 19.517 47.7818 19.447C47.6859 19.377 47.6148 19.2784 47.5786 19.1654L46.2986 15.224C46.2598 15.1136 46.1876 15.0179 46.0921 14.9502C45.9965 14.8825 45.8823 14.8462 45.7653 14.8462C45.6482 14.8462 45.534 14.8825 45.4385 14.9502C45.3429 15.0179 45.2708 15.1136 45.2319 15.224L43.9519 19.1654C43.9154 19.2782 43.8442 19.3766 43.7484 19.4465C43.6526 19.5164 43.5372 19.5543 43.4186 19.5547H39.2693C39.1501 19.5535 39.0336 19.5903 38.9369 19.6599C38.8401 19.7294 38.768 19.828 38.7311 19.9414C38.6942 20.0547 38.6945 20.1768 38.7318 20.29C38.7691 20.4032 38.8415 20.5015 38.9386 20.5707L42.2906 23.008C42.3869 23.0771 42.4585 23.1752 42.495 23.288C42.5315 23.4008 42.5309 23.5223 42.4933 23.6347L41.2133 27.576C41.1762 27.6892 41.1761 27.8111 41.2127 27.9244C41.2494 28.0376 41.3211 28.1363 41.4174 28.2063C41.5137 28.2762 41.6298 28.3138 41.7488 28.3137C41.8679 28.3135 41.9838 28.2756 42.0799 28.2054L45.4319 25.7707C45.5279 25.7005 45.6437 25.6626 45.7626 25.6626C45.8815 25.6626 45.9973 25.7005 46.0933 25.7707L49.4453 28.2054C49.5414 28.2745 49.657 28.3115 49.7754 28.3111C49.8939 28.3108 50.0092 28.273 50.105 28.2033C50.2007 28.1335 50.272 28.0354 50.3087 27.9227C50.3454 27.8101 50.3456 27.6888 50.3093 27.576L49.0293 23.6347C48.9928 23.5219 48.993 23.4005 49.0299 23.2879C49.0668 23.1753 49.1385 23.0773 49.2346 23.008L52.5866 20.5707Z" fill="#864E20"/>
</svg>
