<svg width="64" height="64" viewBox="0 0 64 64" fill="none" xmlns="http://www.w3.org/2000/svg">
<path d="M40.9174 2.66663H23.0827C11.8072 2.66663 2.66669 11.8072 2.66669 23.0826V40.9173C2.66669 52.1927 11.8072 61.3333 23.0827 61.3333H40.9174C52.1928 61.3333 61.3334 52.1927 61.3334 40.9173V23.0826C61.3334 11.8072 52.1928 2.66663 40.9174 2.66663Z" fill="#F8DE40"/>
<path d="M61.3334 37.168C57.7074 42.5981 52.7816 47.0357 47.0038 50.0773C41.2261 53.119 34.7797 54.6681 28.2507 54.584C13.4721 54.584 10.7494 51.9173 3.87207 47.84C5.298 51.7916 7.90764 55.2074 11.3454 57.622C14.7831 60.0367 18.8817 61.3326 23.0827 61.3333H40.9174C46.3321 61.3333 51.525 59.1823 55.3537 55.3536C59.1824 51.5249 61.3334 46.332 61.3334 40.9173V37.168Z" fill="#E7C930"/>
<path d="M42.888 33.4826C41.4988 31.9887 39.8125 30.8018 37.9374 29.9982C36.0623 29.1945 34.0399 28.7918 32 28.816C29.9601 28.7918 27.9377 29.1945 26.0626 29.9982C24.1876 30.8018 22.5013 31.9887 21.112 33.4826C18.5547 36.928 20.72 40.5946 23.472 40.3706C26.224 40.1466 30.888 39.6106 32.0053 39.6106C33.1227 39.6106 37.784 40.144 40.5387 40.3706C43.2933 40.5973 45.4453 36.928 42.888 33.4826Z" fill="#864E20"/>
<path d="M36.6666 35.376C33.0826 34.576 32 35.6666 32 35.6666C32 35.6666 30.9173 34.584 27.3333 35.376C26.2224 35.7404 25.229 36.3946 24.4555 37.2713C23.682 38.1479 23.1565 39.2151 22.9333 40.3626C23.1169 40.38 23.3017 40.38 23.4853 40.3626C26.2346 40.1413 30.9013 39.6026 32.0186 39.6026C33.136 39.6026 37.7973 40.136 40.552 40.3626C40.7355 40.38 40.9204 40.38 41.104 40.3626C40.8775 39.2107 40.3464 38.1406 39.566 37.2636C38.7856 36.3866 37.7844 35.7347 36.6666 35.376Z" fill="#F06880"/>
<path d="M37.24 42.4266C35.5248 41.9838 33.7692 41.7157 32 41.6266C30.2308 41.7157 28.4752 41.9838 26.76 42.4266C25.976 42.5893 25.96 43.2266 26.76 43.1226C27.56 43.0186 32 42.7759 32 42.7759C32 42.7759 36.4347 43.0159 37.24 43.1226C38.0454 43.2293 38.024 42.5893 37.24 42.4266Z" fill="#E7C930"/>
<path d="M25.5999 23.5547L24.0559 22.9334C23.1226 22.5494 22.1893 22.1787 21.2346 21.8347C20.2799 21.4907 19.3253 21.1654 18.3546 20.8694C17.3839 20.5734 16.4053 20.304 15.4213 20.0694H15.3893C15.2382 20.0347 15.0798 20.0546 14.942 20.1256C14.8043 20.1966 14.6961 20.3141 14.6367 20.4572C14.5773 20.6003 14.5704 20.7599 14.6174 20.9075C14.6644 21.0552 14.7621 21.1815 14.8933 21.264L14.9199 21.28C15.7866 21.8134 16.6693 22.3254 17.5626 22.808C18.0622 23.0747 18.5635 23.3334 19.0666 23.584C19.1756 23.6381 19.2674 23.7215 19.3316 23.8249C19.3957 23.9284 19.4297 24.0477 19.4297 24.1694C19.4297 24.2911 19.3957 24.4103 19.3316 24.5138C19.2674 24.6172 19.1756 24.7006 19.0666 24.7547C18.5599 25.0054 18.0586 25.2649 17.5626 25.5334C16.6693 26.0134 15.7839 26.5174 14.9173 27.0614L14.8746 27.088C14.7448 27.1713 14.6485 27.2977 14.6026 27.445C14.5567 27.5923 14.5642 27.751 14.6238 27.8933C14.6833 28.0356 14.7911 28.1523 14.9281 28.2231C15.0652 28.2938 15.2228 28.314 15.3733 28.28H15.4213C16.4186 28.0454 17.3973 27.7734 18.3679 27.48C19.3386 27.1867 20.2959 26.856 21.2453 26.5147C21.7226 26.344 22.1919 26.1574 22.6639 25.9814L24.0666 25.4134L25.5946 24.7947C25.7238 24.7507 25.836 24.6675 25.9156 24.5567C25.9953 24.4459 26.0384 24.313 26.039 24.1766C26.0395 24.0401 25.9976 23.9069 25.9189 23.7954C25.8402 23.684 25.7287 23.5998 25.5999 23.5547Z" fill="#864E20"/>
<path d="M38.4134 23.5546L39.944 22.928C40.8774 22.544 41.8107 22.1733 42.7654 21.8293C43.72 21.4853 44.6747 21.16 45.6454 20.864C46.616 20.568 47.5947 20.2986 48.5787 20.064H48.6107C48.7617 20.0293 48.9202 20.0493 49.0579 20.1202C49.1957 20.1912 49.3039 20.3087 49.3633 20.4518C49.4227 20.5949 49.4295 20.7545 49.3826 20.9022C49.3356 21.0499 49.2379 21.1761 49.1067 21.2586L49.08 21.2746C48.2134 21.808 47.3307 22.32 46.4374 22.8026C45.9396 23.0693 45.4383 23.328 44.9334 23.5786C44.8243 23.6327 44.7326 23.7162 44.6684 23.8196C44.6042 23.923 44.5703 24.0423 44.5703 24.164C44.5703 24.2857 44.6042 24.405 44.6684 24.5084C44.7326 24.6118 44.8243 24.6953 44.9334 24.7493C45.44 25 45.9414 25.2595 46.4374 25.528C47.3307 26.008 48.216 26.512 49.0827 27.056L49.1254 27.0826C49.2552 27.166 49.3515 27.2924 49.3974 27.4396C49.4432 27.5869 49.4357 27.7456 49.3762 27.8879C49.3167 28.0302 49.2089 28.147 49.0719 28.2177C48.9348 28.2884 48.7772 28.3086 48.6267 28.2746H48.5787C47.5814 28.04 46.6027 27.768 45.632 27.4747C44.6614 27.1813 43.704 26.8506 42.7547 26.5093C42.2774 26.3386 41.808 26.152 41.336 25.976L39.9334 25.408L38.4054 24.7893C38.2785 24.7428 38.1692 24.6583 38.0922 24.5473C38.0152 24.4363 37.9744 24.3042 37.9752 24.1692C37.9761 24.0341 38.0187 23.9026 38.0971 23.7926C38.1755 23.6826 38.286 23.5995 38.4134 23.5546Z" fill="#864E20"/>
</svg>
