<svg width="64" height="64" viewBox="0 0 64 64" fill="none" xmlns="http://www.w3.org/2000/svg">
<path d="M40.9173 2.66663H23.0827C11.8072 2.66663 2.66667 11.8072 2.66667 23.0826V40.9173C2.66667 52.1927 11.8072 61.3333 23.0827 61.3333H40.9173C52.1928 61.3333 61.3333 52.1927 61.3333 40.9173V23.0826C61.3333 11.8072 52.1928 2.66663 40.9173 2.66663Z" fill="#F8DE40"/>
<path d="M61.3334 37.168C57.7074 42.5981 52.7816 47.0357 47.0038 50.0773C41.2261 53.119 34.7796 54.6681 28.2507 54.584C13.472 54.584 10.7494 51.9173 3.87204 47.84C5.29797 51.7916 7.90761 55.2074 11.3453 57.622C14.7831 60.0367 18.8817 61.3326 23.0827 61.3333H40.9174C46.332 61.3333 51.5249 59.1823 55.3537 55.3536C59.1824 51.5249 61.3334 46.332 61.3334 40.9173V37.168Z" fill="#E7C930"/>
<path d="M44.4427 33.5547H19.5573C19.3729 33.5541 19.1903 33.5923 19.0216 33.6669C18.8528 33.7414 18.7017 33.8507 18.5779 33.9875C18.4542 34.1243 18.3606 34.2857 18.3033 34.461C18.246 34.6364 18.2262 34.8219 18.2453 35.0054C18.5733 38.1387 20.5787 45.2507 32 45.2507C43.4213 45.2507 45.4267 38.1387 45.7547 35.0054C45.7738 34.8219 45.754 34.6364 45.6967 34.461C45.6394 34.2857 45.5459 34.1243 45.4221 33.9875C45.2984 33.8507 45.1472 33.7414 44.9784 33.6669C44.8097 33.5923 44.6272 33.5541 44.4427 33.5547Z" fill="#864E20"/>
<path d="M32 45.2506C34.7191 45.3402 37.4213 44.7923 39.8907 43.6506C39.1506 42.5041 37.995 41.6888 36.6667 41.376C33.0827 40.576 32 41.6666 32 41.6666C32 41.6666 30.9174 40.584 27.3334 41.376C26.005 41.6888 24.8495 42.5041 24.1094 43.6506C26.5787 44.7923 29.281 45.3402 32 45.2506Z" fill="#F06880"/>
<path d="M18.664 19C17.7423 18.9989 16.8409 19.2713 16.0741 19.7827C15.3072 20.2941 14.7092 21.0215 14.3559 21.8728C14.0026 22.7241 13.9097 23.6611 14.0891 24.5652C14.2684 25.4694 14.712 26.2999 15.3635 26.9519C16.0151 27.6038 16.8455 28.0479 17.7495 28.2278C18.6535 28.4076 19.5906 28.3153 20.4421 27.9625C21.2936 27.6096 22.0213 27.0121 22.5331 26.2455C23.0449 25.4789 23.3179 24.5777 23.3173 23.656C23.3166 22.4218 22.8262 21.2384 21.9538 20.3654C21.0813 19.4925 19.8982 19.0014 18.664 19Z" fill="#864E20"/>
<path d="M45.0719 19C44.1498 18.9974 43.2477 19.2684 42.4798 19.7788C41.7119 20.2893 41.1127 21.0161 40.7581 21.8672C40.4035 22.7184 40.3095 23.6557 40.488 24.5603C40.6665 25.465 41.1094 26.2963 41.7606 26.9491C42.4119 27.6018 43.2422 28.0466 44.1464 28.2272C45.0507 28.4077 45.9881 28.3158 46.8401 27.9632C47.6921 27.6106 48.4203 27.0131 48.9325 26.2463C49.4446 25.4796 49.7178 24.5781 49.7172 23.656C49.7165 22.4232 49.2272 21.241 48.3565 20.3683C47.4858 19.4956 46.3047 19.0035 45.0719 19Z" fill="#864E20"/>
</svg>
