<svg width="41" height="40" viewBox="0 0 41 40" fill="none" xmlns="http://www.w3.org/2000/svg">
<path d="M20.0501 40C19.4784 40 18.9067 39.8285 18.4493 39.4854L15.1332 37.2557C14.6187 36.9127 14.0469 36.7411 13.4752 36.7411L9.35874 36.6268C8.21527 36.6268 7.12898 35.8835 6.72877 34.7972L5.35662 31.1382C5.1851 30.5664 4.84206 30.109 4.3275 29.766L1.1258 27.4791C0.153859 26.7358 -0.246353 25.5352 0.153859 24.4489L1.29732 20.7898C1.46884 20.2181 1.46884 19.6464 1.29732 19.189L0.153859 15.4155C-0.246353 14.3293 0.211032 13.0714 1.1258 12.3854L4.3275 10.0984C4.84206 9.7554 5.1851 9.29802 5.35662 8.78346L6.72877 5.12438C7.12898 4.03809 8.1581 3.29484 9.35874 3.29484L13.3609 3.23766C13.9898 3.23766 14.5615 3.06614 15.0189 2.7231L18.3349 0.493351C19.4212 -0.192727 20.679 -0.135553 21.651 0.493351L24.967 2.66593C25.4816 3.00897 26.0533 3.18049 26.625 3.18049L30.6843 3.23766C31.8278 3.23766 32.9141 3.98091 33.3143 5.0672L34.6864 8.72629C34.858 9.29802 35.201 9.7554 35.7156 10.0984L38.9173 12.4425C39.8892 13.1858 40.2894 14.3864 39.8892 15.4727L38.8029 19.0746C38.6314 19.6464 38.6314 20.2181 38.8029 20.7326L40.0036 24.4489C40.4038 25.5352 39.9464 26.793 38.9744 27.4791L35.7156 29.8232C35.201 30.1662 34.858 30.6236 34.6864 31.1382L33.3143 34.8544C32.9141 35.9407 31.885 36.684 30.6843 36.684L26.6822 36.7983C26.0533 36.7983 25.4816 36.9698 25.0242 37.3129L21.7081 39.5426C21.1936 39.8285 20.6218 40 20.0501 40ZM13.4752 35.3118C14.3328 35.3118 15.2476 35.5977 15.9337 36.1122L19.2497 38.2848C19.7071 38.6278 20.336 38.6278 20.8505 38.2848L24.1666 36.1122C24.9098 35.5977 25.7674 35.369 26.625 35.369L30.6272 35.2546C31.1989 35.2546 31.7134 34.9116 31.885 34.397L33.2571 30.738C33.543 29.9375 34.0575 29.1943 34.8008 28.6797L38.0597 26.3356C38.4599 26.0498 38.6886 25.4208 38.5171 24.9635L37.3164 21.2472C37.0305 20.4468 37.0305 19.532 37.3164 18.7316L38.4599 15.0725C38.6314 14.5579 38.4599 14.0434 38.0025 13.7004L34.8008 11.4134C34.0575 10.8989 33.4858 10.1556 33.2571 9.29802L31.9421 5.69611C31.7706 5.2959 31.3132 4.83851 30.6843 4.83851L26.625 4.78134C25.7103 4.78134 24.8527 4.49547 24.1666 3.98091L20.8505 1.69399C20.3932 1.35095 19.7643 1.35095 19.1925 1.69399L15.8765 3.86657C15.1332 4.38113 14.2756 4.60982 13.418 4.60982L9.41591 4.66699C8.84418 4.66699 8.32962 5.01003 8.1581 5.52459L6.78594 9.18367C6.50008 9.9841 5.98552 10.7273 5.24227 11.2419L2.04057 13.5288C1.64036 13.8147 1.41167 14.4436 1.58319 14.901L2.78382 18.6172C3.06969 19.4177 3.06969 20.3324 2.78382 21.1329L1.58319 24.8491C1.41167 25.3637 1.58319 25.8782 2.04057 26.2213L5.24227 28.5082C5.98552 29.0228 6.50008 29.766 6.78594 30.6236L8.10093 34.2255C8.27245 34.6257 8.72983 35.0831 9.35874 35.0831L13.4752 35.3118Z" fill="white"/>
<path d="M18.4725 25.2688C18.2772 25.2688 18.0168 25.2037 17.8866 25.0084L12.7441 19.8659C12.4186 19.5404 12.4186 19.0196 12.7441 18.6941C13.0696 18.3687 13.5903 18.3687 13.9158 18.6941L18.4725 23.1857L26.4141 15.2441C26.7395 14.9186 27.2603 14.9186 27.5858 15.2441C27.9113 15.5696 27.9113 16.0903 27.5858 16.4158L19.0583 25.0084C18.863 25.2037 18.6678 25.2688 18.4725 25.2688Z" fill="white"/>
</svg>
