<svg width="65" height="64" viewBox="0 0 65 64" fill="none" xmlns="http://www.w3.org/2000/svg">
<path d="M32.0802 64C31.1654 64 30.2506 63.7256 29.5188 63.1767L24.2132 59.6091C23.3899 59.0602 22.4751 58.7858 21.5603 58.7858L14.974 58.6029C13.1444 58.6029 11.4064 57.4137 10.766 55.6756L8.57059 49.8211C8.29615 48.9063 7.74729 48.1745 6.924 47.6256L1.80128 43.9665C0.246174 42.7773 -0.394165 40.8563 0.246175 39.1182L2.07572 33.2637C2.35015 32.3489 2.35015 31.4342 2.07572 30.7024L0.246175 24.6649C-0.394165 22.9268 0.337652 20.9143 1.80128 19.8166L6.924 16.1575C7.74729 15.6086 8.29615 14.8768 8.57059 14.0535L10.766 8.199C11.4064 6.46094 13.053 5.27174 14.974 5.27174L21.3774 5.18026C22.3836 5.18026 23.2984 4.90583 24.0302 4.35697L29.3359 0.789362C31.0739 -0.308363 33.0864 -0.216885 34.6415 0.789362L39.9472 4.26549C40.7705 4.81435 41.6853 5.08878 42.6 5.08878L49.0949 5.18026C50.9245 5.18026 52.6625 6.36946 53.3029 8.10753L55.4983 13.9621C55.7727 14.8768 56.3216 15.6086 57.1449 16.1575L62.2676 19.9081C63.8227 21.0973 64.4631 23.0183 63.8227 24.7563L62.0847 30.5194C61.8102 31.4342 61.8102 32.3489 62.0847 33.1722L64.0057 39.1182C64.646 40.8563 63.9142 42.8688 62.3591 43.9665L57.1449 47.7171C56.3216 48.2659 55.7727 48.9978 55.4983 49.8211L53.3029 55.7671C52.6625 57.5051 51.0159 58.6943 49.0949 58.6943L42.6915 58.8773C41.6853 58.8773 40.7705 59.1517 40.0387 59.7006L34.733 63.2682C33.9097 63.7256 32.995 64 32.0802 64ZM21.5603 56.4989C22.9325 56.4989 24.3961 56.9563 25.4938 57.7796L30.7995 61.2557C31.5313 61.8046 32.5376 61.8046 33.3609 61.2557L38.6665 57.7796C39.8557 56.9563 41.2279 56.5904 42.6 56.5904L49.0034 56.4074C49.9182 56.4074 50.7415 55.8585 51.0159 55.0352L53.2114 49.1807C53.6688 47.9 54.4921 46.7108 55.6813 45.8875L60.8955 42.137C61.5358 41.6796 61.9017 40.6734 61.6273 39.9415L59.7063 33.9955C59.2489 32.7149 59.2489 31.2512 59.7063 29.9705L61.5358 24.116C61.8102 23.2927 61.5358 22.4694 60.804 21.9206L55.6813 18.2615C54.4921 17.4382 53.5773 16.249 53.2114 14.8768L51.1074 9.11377C50.833 8.47343 50.1012 7.74162 49.0949 7.74162L42.6 7.65014C41.1364 7.65014 39.7643 7.19276 38.6665 6.36946L33.3609 2.71038C32.6291 2.16152 31.6228 2.16152 30.708 2.71038L25.4024 6.18651C24.2132 7.0098 22.841 7.37571 21.4689 7.37571L15.0655 7.46719C14.1507 7.46719 13.3274 8.01605 13.053 8.83934L10.8575 14.6939C10.4001 15.9746 9.57683 17.1638 8.38763 17.987L3.26492 21.6461C2.62458 22.1035 2.25867 23.1098 2.5331 23.8416L4.45412 29.7876C4.9115 31.0683 4.9115 32.5319 4.45412 33.8126L2.5331 39.7586C2.25867 40.5819 2.5331 41.4052 3.26492 41.954L8.38763 45.6131C9.57683 46.4364 10.4001 47.6256 10.8575 48.9978L12.9615 54.7608C13.2359 55.4012 13.9677 56.133 14.974 56.133L21.5603 56.4989Z" fill="#CC0000"/>
<path d="M29.556 40.43C29.2435 40.43 28.8269 40.3258 28.6186 40.0134L20.3906 31.7854C19.8698 31.2646 19.8698 30.4314 20.3906 29.9106C20.9113 29.3899 21.7446 29.3899 22.2653 29.9106L29.556 37.0971L42.2625 24.3906C42.7833 23.8698 43.6165 23.8698 44.1373 24.3906C44.658 24.9113 44.658 25.7445 44.1373 26.2653L30.4933 40.0134C30.1809 40.3258 29.8684 40.43 29.556 40.43Z" fill="#CC0000"/>
</svg>
