<svg width="25" height="24" viewBox="0 0 25 24" fill="none" xmlns="http://www.w3.org/2000/svg">
<path d="M12 0C8.05246 0 4.84176 3.2107 4.84176 7.15823C4.84176 9.286 5.77891 11.1937 7.25764 12.507C2.88254 14.3879 0 18.7173 0 23.5327C0 23.7923 0.20519 24 0.467274 24H23.5327C23.7923 24 24.0049 23.7923 24.0049 23.5327C24.0072 18.7173 21.1199 14.3904 16.7473 12.507C18.226 11.1937 19.1582 9.286 19.1582 7.15823C19.1582 3.2107 15.9475 0 12 0ZM12.0045 0.939526C15.4328 0.939526 18.2232 3.72738 18.2232 7.15823C18.2232 10.5866 15.4328 13.377 12.0045 13.377C8.57616 13.377 5.78576 10.5891 5.78576 7.15823C5.78576 3.72738 8.57616 0.939526 12.0045 0.939526ZM8.1321 13.1731C9.24939 13.896 10.5766 14.3165 12.0045 14.3165C13.4323 14.3165 14.7546 13.8934 15.8719 13.1731C20.0358 14.7282 22.8692 18.6343 23.055 23.0654H0.953951C1.13965 18.6369 3.97328 14.7308 8.1321 13.1731Z" fill="#A1A4A8"/>
</svg>
