<svg width="14" height="16" viewBox="0 0 14 16" fill="none" xmlns="http://www.w3.org/2000/svg">
<path d="M13.5508 2.49982C13.5498 2.44098 13.5365 2.383 13.5118 2.3296C13.4871 2.2762 13.4515 2.22856 13.4072 2.18973C13.361 2.15137 13.3072 2.12312 13.2493 2.1068C13.1915 2.09049 13.1308 2.08646 13.0713 2.09499C13.0369 2.09499 9.56565 2.57734 7.1223 0.122508C7.04048 0.0439008 6.93142 0 6.81796 0C6.7045 0 6.59544 0.0439008 6.51362 0.122508C4.07028 2.57734 0.59906 2.10073 0.564606 2.09499C0.50531 2.08676 0.44496 2.09066 0.387217 2.10646C0.329474 2.12225 0.275539 2.1496 0.228682 2.18686C0.182024 2.22516 0.143878 2.27278 0.116686 2.32667C0.0894931 2.38056 0.0738537 2.43953 0.0707689 2.49982C-0.084273 5.60353 -0.115856 9.9648 1.40872 12.0636C2.97924 14.217 6.09156 15.7961 6.6055 15.9684C6.744 16.0105 6.89192 16.0105 7.03043 15.9684C7.54436 15.8076 10.6567 14.217 12.2272 12.0636C13.7374 9.97054 13.6944 5.60353 13.5508 2.49982ZM11.5152 11.5554C10.2002 13.3614 7.44674 14.8888 6.80361 15.13C6.16047 14.9003 3.40704 13.3642 2.09206 11.5554C0.777071 9.74659 0.7742 5.91935 0.894788 2.99078C1.96573 3.04821 4.62728 2.96781 6.80361 1.02118C8.97132 2.96781 11.6415 3.04821 12.7124 2.99078C12.833 5.91935 12.8129 9.7753 11.5152 11.5554ZM9.30725 6.07727C9.34903 6.11508 9.38293 6.16078 9.407 6.21174C9.43108 6.2627 9.44484 6.31791 9.44751 6.3742C9.45018 6.4305 9.44169 6.48676 9.42255 6.53977C9.40341 6.59278 9.37398 6.64148 9.33596 6.68308L6.41313 9.89302C6.37297 9.93614 6.3246 9.9708 6.27086 9.99496C6.21711 10.0191 6.15908 10.0323 6.10018 10.0337C6.04275 10.0333 5.98599 10.0214 5.93323 9.9987C5.88047 9.97602 5.83278 9.94302 5.79296 9.90163L4.28561 8.3627C4.20566 8.28084 4.16149 8.17057 4.16284 8.05615C4.16419 7.94173 4.21093 7.83253 4.29279 7.75258C4.37465 7.67262 4.48492 7.62846 4.59934 7.62981C4.71375 7.63115 4.82295 7.6779 4.90291 7.75976L6.08869 8.97425L8.70431 6.10311C8.78137 6.02065 8.88773 5.97175 9.00049 5.96692C9.11325 5.96208 9.2234 6.00171 9.30725 6.07727Z" fill="#53555B"/>
</svg>
