<svg width="14" height="28" viewBox="0 0 14 28" fill="none" xmlns="http://www.w3.org/2000/svg">
<path d="M4.05435 8.37432C2.18095 8.87073 0.8 10.5776 0.8 12.6071V18.4107H0.799917L0.800083 18.4165L0.802447 18.4983L0.802363 18.4983L0.802698 18.5041C0.851146 19.3406 1.54437 20.0036 2.39286 20.0036C2.93819 20.0036 3.41931 19.7297 3.70606 19.312C3.96712 20.0789 4.31353 20.8177 4.74103 21.514L4.74202 21.5156L4.97283 21.8837L5.01138 21.9494L3.70556 24.0709L3.70548 24.0708L3.70249 24.076L3.65573 24.1574L3.65565 24.1573L3.65284 24.1626C3.30461 24.8122 3.39534 25.6152 3.88978 26.1718L3.88984 26.1719C4.55637 26.9214 5.6737 26.9471 6.37807 26.3265C6.67159 26.8534 7.23391 27.2 7.86493 27.2C8.91256 27.2 9.71484 26.2643 9.55188 25.2293L9.55186 25.2292L9.40374 24.2926L9.40339 24.2905L9.34276 23.9319L9.34237 23.9297C9.23816 23.3526 9.10323 22.7807 8.93795 22.2159C9.46871 21.203 9.89783 20.1441 10.2213 19.0548C10.4686 19.6137 11.028 20.0036 11.6786 20.0036C12.5584 20.0036 13.2714 19.2906 13.2714 18.4107V12.6071H13.2715L13.2714 12.6042L13.2695 12.4775H13.2695L13.2695 12.4745C13.2108 10.5035 11.8495 8.85988 10.0168 8.37444C10.8895 7.57734 11.437 6.43407 11.437 5.16371C11.437 2.75229 9.46496 0.8 7.03571 0.8C4.60647 0.8 2.63439 2.75229 2.63439 5.16371C2.63439 6.43406 3.1819 7.57732 4.05435 8.37432ZM10.0833 14.3282C10.0434 16.6537 9.51964 18.9419 8.55 21.048C8.45887 20.8045 8.36196 20.5629 8.25938 20.3234L8.25936 20.3233L7.66505 18.9369L7.66152 18.9287L7.65727 18.9208L7.6374 18.8839L7.63312 18.876L7.62814 18.8684C7.51501 18.6975 7.29278 18.6263 7.09759 18.71C6.87823 18.804 6.77664 19.058 6.87067 19.2774L7.46408 20.6617L7.46495 20.6638L7.59848 20.9852C7.59862 20.9855 7.59876 20.9859 7.5989 20.9862C7.72857 21.3083 7.84747 21.6341 7.95538 21.963C7.95548 21.9634 7.95559 21.9637 7.95569 21.964L8.05867 22.2898L8.16236 22.6459C8.16246 22.6463 8.16256 22.6466 8.16266 22.647C8.32613 23.2337 8.45549 23.8279 8.55002 24.4274L8.55004 24.4275L8.69763 25.3607L8.70543 25.4237C8.74723 25.9087 8.36229 26.3357 7.86493 26.3357C7.46003 26.3357 7.11278 26.0456 7.04131 25.6485L6.84447 25.6839L7.04131 25.6485L6.80173 24.3178L6.80174 24.3178L6.80122 24.3151L6.75687 24.0869L6.75689 24.0869L6.75631 24.0841C6.56155 23.1522 6.21052 22.2601 5.71808 21.4458L5.7181 21.4457L5.71645 21.4431L5.47323 21.0547C5.47306 21.0544 5.4729 21.0541 5.47274 21.0539C4.50104 19.468 3.98571 17.6431 3.98571 15.7801V11.9107V11.9018L3.98492 11.8929L3.98117 11.8511L3.98037 11.8421L3.97876 11.8333C3.94215 11.6315 3.76593 11.4786 3.55357 11.4786C3.3149 11.4786 3.12143 11.672 3.12143 11.9107V18.407L3.11916 18.4688C3.0897 18.844 2.77582 19.1393 2.39286 19.1393C1.99034 19.1393 1.66429 18.8132 1.66429 18.4107V12.6087L1.666 12.4963C1.72389 10.6264 3.24325 9.12406 5.11997 9.09388C5.69938 9.37204 6.34947 9.52789 7.03571 9.52789C7.72238 9.52789 8.37286 9.37185 8.95255 9.09335C10.8657 9.12523 12.4071 10.6864 12.4071 12.6071V18.407L12.4049 18.4688C12.3754 18.844 12.0615 19.1393 11.6786 19.1393C11.2761 19.1393 10.95 18.8132 10.95 18.4107V11.9107V11.9018L10.9492 11.8929L10.9455 11.8511L10.9447 11.8421L10.943 11.8333C10.9064 11.6315 10.7302 11.4786 10.5179 11.4786C10.2792 11.4786 10.0857 11.672 10.0857 11.9107V14.0404V14.0413L10.0833 14.3273C10.0833 14.3276 10.0833 14.3279 10.0833 14.3282ZM4.53586 25.5977C4.27107 25.2996 4.2328 24.8633 4.44164 24.5238L5.46976 22.8543C5.68935 23.3722 5.85108 23.9143 5.9511 24.4709L6.09653 25.2809L5.98389 25.4658L5.94458 25.5253C5.61143 25.9904 4.92385 26.0339 4.53586 25.5977ZM3.49868 5.16371C3.49868 3.23404 5.07937 1.66429 7.03571 1.66429C8.99206 1.66429 10.5728 3.23404 10.5728 5.16371C10.5728 7.09381 8.9921 8.66361 7.03571 8.66361C5.07932 8.66361 3.49868 7.09381 3.49868 5.16371Z" fill="#CC0000" stroke="#CC0000" stroke-width="0.4"/>
</svg>
