<svg width="16" height="16" viewBox="0 0 16 16" fill="none" xmlns="http://www.w3.org/2000/svg">
<path fill-rule="evenodd" clip-rule="evenodd" d="M8.97574 3.29893C9.04669 1.98629 6.91809 1.98629 6.98904 3.29893L7.37928 10.5362C7.41476 11.2812 8.55002 11.2812 8.58549 10.5362L8.97574 3.29893Z" fill="#CC0000"/>
<path fill-rule="evenodd" clip-rule="evenodd" d="M7.98247 12.0625C8.44367 12.0625 8.79843 12.4173 8.79843 12.843C8.79843 13.3042 8.44367 13.659 7.98247 13.659C7.55675 13.659 7.1665 13.3042 7.1665 12.843C7.1665 12.4173 7.55675 12.0625 7.98247 12.0625Z" fill="#CC0000"/>
<path d="M7.98226 0C12.4169 0 16 3.58315 16 7.98226C16 12.4169 12.4169 16 7.98226 16C3.58315 16 0 12.4169 0 7.98226C0 3.58315 3.58315 0 7.98226 0ZM7.98226 0.886918C4.07982 0.886918 0.886918 4.07982 0.886918 7.98226C0.886918 11.9202 4.07982 15.0776 7.98226 15.0776C11.9202 15.0776 15.0776 11.9202 15.0776 7.98226C15.0776 4.07982 11.9202 0.886918 7.98226 0.886918Z" fill="#CC0000"/>
</svg>
