<svg width="20" height="20" viewBox="0 0 20 20" fill="none" xmlns="http://www.w3.org/2000/svg">
<path d="M17.0998 2.87413C15.1998 1.03749 12.6998 0 10.0374 0C2.3958 0 -2.40247 8.27906 1.41332 14.8648L0 19.9998L5.2791 18.6231C7.57907 19.8656 9.46322 19.7556 10.0424 19.8289C18.9031 19.8289 23.3139 9.10905 17.0873 2.90663L17.0998 2.87413Z" fill="#CC0000"/>
<path d="M10.0563 18.1258L10.0513 18.125H10.038C7.38634 18.125 5.69219 16.8692 5.52553 16.7967L2.40057 17.6091L3.23806 14.5717L3.03889 14.2592C2.2139 12.9459 1.77557 11.4334 1.77557 9.87591C1.77557 2.5485 10.7296 -1.11562 15.9112 4.06348C21.0803 9.18841 17.4512 18.1258 10.0563 18.1258Z" fill="white"/>
<path d="M14.5892 11.9226L14.5817 11.9851C14.3309 11.8601 13.1092 11.2626 12.8817 11.1801C12.3709 10.9909 12.5151 11.1501 11.5343 12.2734C11.3884 12.4359 11.2434 12.4484 10.9959 12.3359C10.7459 12.2109 9.94345 11.9484 8.99346 11.0984C8.25347 10.4359 7.75681 9.62343 7.61014 9.37344C7.36598 8.95177 7.87681 8.89177 8.3418 8.01179C8.42513 7.83679 8.38263 7.69929 8.32097 7.57512C8.25847 7.45013 7.76097 6.22514 7.55264 5.73681C7.35265 5.25015 7.14682 5.31182 6.99265 5.31182C6.51266 5.27015 6.16183 5.27682 5.85266 5.59848C4.50768 7.0768 4.84684 8.60178 5.99766 10.2234C8.2593 13.1834 9.46429 13.7284 11.6676 14.485C12.2626 14.6742 12.8051 14.6475 13.2342 14.5859C13.7126 14.51 14.7067 13.985 14.9142 13.3976C15.1267 12.8101 15.1267 12.3226 15.0642 12.2101C15.0026 12.0976 14.8392 12.0351 14.5892 11.9226Z" fill="#CC0000"/>
</svg>
